<?xml version="1.0" encoding="utf-8" standalone="no"?>
<!DOCTYPE svg PUBLIC "-//W3C//DTD SVG 1.1//EN"
  "http://www.w3.org/Graphics/SVG/1.1/DTD/svg11.dtd">
<svg xmlns:xlink="http://www.w3.org/1999/xlink" width="1080pt" height="216pt" viewBox="0 0 1080 216" xmlns="http://www.w3.org/2000/svg" version="1.1">
 <metadata>
  <rdf:RDF xmlns:dc="http://purl.org/dc/elements/1.1/" xmlns:cc="http://creativecommons.org/ns#" xmlns:rdf="http://www.w3.org/1999/02/22-rdf-syntax-ns#">
   <cc:Work>
    <dc:type rdf:resource="http://purl.org/dc/dcmitype/StillImage"/>
    <dc:date>2026-01-03T23:05:45.424114</dc:date>
    <dc:format>image/svg+xml</dc:format>
    <dc:creator>
     <cc:Agent>
      <dc:title>Matplotlib v3.8.4, https://matplotlib.org/</dc:title>
     </cc:Agent>
    </dc:creator>
   </cc:Work>
  </rdf:RDF>
 </metadata>
 <defs>
  <style type="text/css">*{stroke-linejoin: round; stroke-linecap: butt}</style>
 </defs>
 <g id="figure_1">
  <g id="patch_1">
   <path d="M 0 216 
L 1080 216 
L 1080 0 
L 0 0 
z
" style="fill: #ffffff"/>
  </g>
  <g id="axes_1">
   <g id="patch_2">
    <path d="M 135 192.24 
L 972 192.24 
L 972 25.92 
L 135 25.92 
z
" style="fill: #ffffff"/>
   </g>
   <g id="matplotlib.axis_1">
    <g id="xtick_1">
     <g id="line2d_1">
      <defs>
       <path id="m74be9b9fe2" d="M 0 0 
L 0 3.5 
" style="stroke: #000000; stroke-width: 0.8"/>
      </defs>
      <g>
       <use xlink:href="#m74be9b9fe2" x="625.549451" y="192.24" style="stroke: #000000; stroke-width: 0.8"/>
      </g>
     </g>
     <g id="text_1">
      <text style="font: 10px 'DejaVu Sans', 'Bitstream Vera Sans', 'Computer Modern Sans Serif', 'Lucida Grande', 'Verdana', 'Geneva', 'Lucid', 'Arial', 'Helvetica', 'Avant Garde', sans-serif; text-anchor: middle" x="625.549451" y="206.838437" transform="rotate(-0 625.549451 206.838437)">1850</text>
     </g>
    </g>
    <g id="xtick_2">
     <g id="line2d_2">
      <g>
       <use xlink:href="#m74be9b9fe2" x="710.714286" y="192.24" style="stroke: #000000; stroke-width: 0.8"/>
      </g>
     </g>
     <g id="text_2">
      <text style="font: 10px 'DejaVu Sans', 'Bitstream Vera Sans', 'Computer Modern Sans Serif', 'Lucida Grande', 'Verdana', 'Geneva', 'Lucid', 'Arial', 'Helvetica', 'Avant Garde', sans-serif; text-anchor: middle" x="710.714286" y="206.838437" transform="rotate(-0 710.714286 206.838437)">1900</text>
     </g>
    </g>
    <g id="xtick_3">
     <g id="line2d_3">
      <g>
       <use xlink:href="#m74be9b9fe2" x="795.879121" y="192.24" style="stroke: #000000; stroke-width: 0.8"/>
      </g>
     </g>
     <g id="text_3">
      <text style="font: 10px 'DejaVu Sans', 'Bitstream Vera Sans', 'Computer Modern Sans Serif', 'Lucida Grande', 'Verdana', 'Geneva', 'Lucid', 'Arial', 'Helvetica', 'Avant Garde', sans-serif; text-anchor: middle" x="795.879121" y="206.838437" transform="rotate(-0 795.879121 206.838437)">1950</text>
     </g>
    </g>
    <g id="xtick_4">
     <g id="line2d_4">
      <g>
       <use xlink:href="#m74be9b9fe2" x="855.494505" y="192.24" style="stroke: #000000; stroke-width: 0.8"/>
      </g>
     </g>
     <g id="text_4">
      <text style="font: 10px 'DejaVu Sans', 'Bitstream Vera Sans', 'Computer Modern Sans Serif', 'Lucida Grande', 'Verdana', 'Geneva', 'Lucid', 'Arial', 'Helvetica', 'Avant Garde', sans-serif; text-anchor: middle" x="855.494505" y="206.838437" transform="rotate(-0 855.494505 206.838437)">1985</text>
     </g>
    </g>
    <g id="xtick_5">
     <g id="line2d_5">
      <g>
       <use xlink:href="#m74be9b9fe2" x="915.10989" y="192.24" style="stroke: #000000; stroke-width: 0.8"/>
      </g>
     </g>
     <g id="text_5">
      <text style="font: 10px 'DejaVu Sans', 'Bitstream Vera Sans', 'Computer Modern Sans Serif', 'Lucida Grande', 'Verdana', 'Geneva', 'Lucid', 'Arial', 'Helvetica', 'Avant Garde', sans-serif; text-anchor: middle" x="915.10989" y="206.838437" transform="rotate(-0 915.10989 206.838437)">2020</text>
     </g>
    </g>
   </g>
   <g id="matplotlib.axis_2">
    <g id="ytick_1">
     <g id="line2d_6">
      <defs>
       <path id="m02b18d74b0" d="M 0 0 
L -3.5 0 
" style="stroke: #000000; stroke-width: 0.8"/>
      </defs>
      <g>
       <use xlink:href="#m02b18d74b0" x="135" y="168.582208" style="stroke: #000000; stroke-width: 0.8"/>
      </g>
     </g>
     <g id="text_6">
      <text style="font: 10px 'DejaVu Sans', 'Bitstream Vera Sans', 'Computer Modern Sans Serif', 'Lucida Grande', 'Verdana', 'Geneva', 'Lucid', 'Arial', 'Helvetica', 'Avant Garde', sans-serif; text-anchor: end" x="128" y="172.381427" transform="rotate(-0 128 172.381427)">8</text>
     </g>
    </g>
    <g id="ytick_2">
     <g id="line2d_7">
      <g>
       <use xlink:href="#m02b18d74b0" x="135" y="114.702219" style="stroke: #000000; stroke-width: 0.8"/>
      </g>
     </g>
     <g id="text_7">
      <text style="font: 10px 'DejaVu Sans', 'Bitstream Vera Sans', 'Computer Modern Sans Serif', 'Lucida Grande', 'Verdana', 'Geneva', 'Lucid', 'Arial', 'Helvetica', 'Avant Garde', sans-serif; text-anchor: end" x="128" y="118.501438" transform="rotate(-0 128 118.501438)">10</text>
     </g>
    </g>
    <g id="ytick_3">
     <g id="line2d_8">
      <g>
       <use xlink:href="#m02b18d74b0" x="135" y="60.822229" style="stroke: #000000; stroke-width: 0.8"/>
      </g>
     </g>
     <g id="text_8">
      <text style="font: 10px 'DejaVu Sans', 'Bitstream Vera Sans', 'Computer Modern Sans Serif', 'Lucida Grande', 'Verdana', 'Geneva', 'Lucid', 'Arial', 'Helvetica', 'Avant Garde', sans-serif; text-anchor: end" x="128" y="64.621448" transform="rotate(-0 128 64.621448)">12</text>
     </g>
    </g>
    <g id="text_9">
     <!-- Area ($10^6\ km^2$) -->
     <g transform="translate(109.195312 146.98) rotate(-90)">
      <text>
       <tspan style="font: 10px 'DejaVu Sans'" x="0 6.84082 10.952148 17.104492 23.232422 26.411133 30.3125 36.674805 71.830293" y="-0.9765625">Area (10)</tspan>
       <tspan style="font: 7px 'DejaVu Sans'" x="43.132812 67.103242" y="-4.8046875">62</tspan>
       <tspan style="font: oblique 10px 'DejaVu Sans'" x="51.106901 56.897917" y="-0.9765625">km</tspan>
      </text>
     </g>
    </g>
   </g>
   <g id="line2d_9">
    <path d="M 625.549451 109.115069 
L 932.142857 109.115069 
L 932.142857 109.115069 
" clip-path="url(#pa67b174c6d)" style="fill: none; stroke-dasharray: 7.4,3.2; stroke-dashoffset: 0; stroke: #ff0000; stroke-opacity: 0.8; stroke-width: 2"/>
   </g>
   <g id="line2d_10">
    <path d="M 625.549451 98.325216 
L 627.252747 99.229867 
L 628.956044 100.397364 
L 632.362637 109.624147 
L 634.065934 104.176712 
L 635.769231 102.457522 
L 637.472527 102.205684 
L 639.175824 102.985118 
L 640.879121 106.24811 
L 642.582418 104.021867 
L 644.285714 110.402667 
L 645.989011 111.17836 
L 647.692308 108.492863 
L 649.395604 108.367098 
L 651.098901 106.35259 
L 652.802198 105.250835 
L 654.505495 103.257499 
L 656.208791 98.621297 
L 657.912088 104.40974 
L 659.615385 103.299082 
L 661.318681 103.899871 
L 663.021978 105.20589 
L 664.725275 104.980165 
L 666.428571 100.692934 
L 668.131868 100.17081 
L 669.835165 98.647274 
L 671.538462 96.559332 
L 673.241758 97.240811 
L 674.945055 103.76465 
L 676.648352 98.931471 
L 678.351648 99.202083 
L 680.054945 100.129041 
L 681.758242 103.429993 
L 683.461538 96.968161 
L 685.164835 92.088419 
L 686.868132 93.276807 
L 688.571429 93.591279 
L 690.274725 94.742203 
L 691.978022 92.66765 
L 693.681319 101.183338 
L 695.384615 100.32514 
L 697.087912 98.510611 
L 698.791209 100.193936 
L 700.494505 100.740505 
L 702.197802 102.961302 
L 703.901099 102.507691 
L 705.604396 102.739706 
L 707.307692 98.272869 
L 709.010989 101.018599 
L 710.714286 101.466429 
L 712.417582 101.450809 
L 714.120879 103.010624 
L 715.824176 96.457083 
L 717.527473 97.873306 
L 719.230769 98.743336 
L 720.934066 99.821775 
L 722.637363 99.064195 
L 724.340659 97.532365 
L 726.043956 100.685272 
L 727.747253 104.917978 
L 729.450549 103.48724 
L 731.153846 98.868905 
L 732.857143 98.837385 
L 734.56044 99.408852 
L 736.263736 99.41337 
L 737.967033 99.642938 
L 739.67033 98.029864 
L 741.373626 97.685875 
L 743.076923 99.285382 
L 744.78022 102.005533 
L 746.483516 106.090235 
L 748.186813 101.440761 
L 749.89011 100.597346 
L 751.593407 104.923487 
L 753.296703 104.913697 
L 755 105.802009 
L 756.703297 102.881847 
L 758.406593 99.093689 
L 761.813187 103.972883 
L 763.516484 106.102433 
L 765.21978 105.475535 
L 766.923077 106.31677 
L 768.626374 105.218212 
L 770.32967 106.587565 
L 772.032967 105.802116 
L 773.736264 107.225622 
L 775.43956 107.81213 
L 777.142857 96.329388 
L 778.846154 97.131417 
L 780.549451 97.277589 
L 782.252747 98.10164 
L 783.956044 101.134916 
L 785.659341 104.913584 
L 787.362637 105.878069 
L 789.065934 100.978938 
L 790.769231 104.376269 
L 792.472527 104.679128 
L 794.175824 107.274803 
L 795.879121 105.775646 
L 797.582418 106.47581 
L 799.285714 104.156744 
L 800.989011 105.461785 
L 802.692308 107.897303 
L 804.395604 108.870815 
L 806.098901 107.879606 
L 807.802198 107.146292 
L 809.505495 109.221145 
L 811.208791 108.312636 
L 812.912088 104.817381 
L 814.615385 107.728077 
L 816.318681 111.412469 
L 818.021978 109.069149 
L 819.725275 104.060297 
L 821.428571 100.379246 
L 823.131868 100.5003 
L 824.835165 98.7185 
L 826.538462 99.782985 
L 828.241758 103.653026 
L 829.945055 99.540118 
L 831.648352 96.558121 
L 833.351648 98.599336 
L 835.054945 104.942499 
L 836.758242 101.411616 
L 838.461538 98.992577 
L 840.164835 98.63064 
L 841.868132 96.666121 
L 843.571429 90.383234 
L 845.274725 96.251581 
L 846.978022 100.861173 
L 848.681319 101.895675 
L 850.384615 102.331408 
L 852.087912 102.908416 
L 853.791209 100.705564 
L 855.494505 101.3626 
L 857.197802 104.338932 
L 858.901099 108.038441 
L 860.604396 109.617211 
L 862.307692 109.065714 
L 864.010989 114.639104 
L 865.714286 117.537375 
L 867.417582 110.353277 
L 869.120879 106.094434 
L 870.824176 108.425983 
L 872.527473 112.688758 
L 874.230769 113.728138 
L 875.934066 116.373283 
L 877.637363 119.638533 
L 879.340659 122.660015 
L 881.043956 121.36417 
L 882.747253 124.954778 
L 884.450549 122.901349 
L 886.153846 121.429886 
L 887.857143 126.038195 
L 889.56044 132.828954 
L 891.263736 132.195436 
L 892.967033 131.920503 
L 894.67033 133.949385 
L 896.373626 135.420725 
L 898.076923 130.998254 
L 899.78022 131.589863 
L 901.483516 134.01854 
L 903.186813 136.664188 
L 904.89011 137.518408 
L 904.89011 137.518408 
" clip-path="url(#pa67b174c6d)" style="fill: none; stroke: #0b0b0b; stroke-opacity: 0.8; stroke-width: 2; stroke-linecap: square"/>
   </g>
   <g id="line2d_11">
    <path d="M 135 112.202852 
L 135.681319 120.74934 
L 136.362637 105.801026 
L 137.043956 105.560909 
L 137.725275 105.805291 
L 139.087912 125.20731 
L 139.769231 110.603731 
L 140.450549 110.104202 
L 141.131868 109.820177 
L 142.494505 103.855604 
L 143.175824 106.315534 
L 143.857143 106.049365 
L 144.538462 109.259064 
L 145.21978 114.737751 
L 145.901099 113.411351 
L 146.582418 118.458669 
L 147.263736 107.990908 
L 147.945055 108.62347 
L 148.626374 99.301854 
L 149.307692 99.371454 
L 149.989011 101.997252 
L 150.67033 101.733986 
L 151.351648 93.115303 
L 152.032967 104.331188 
L 152.714286 104.869538 
L 154.076923 96.981509 
L 154.758242 90.842333 
L 155.43956 110.380571 
L 156.120879 110.974081 
L 156.802198 112.499517 
L 157.483516 111.462255 
L 158.164835 115.239926 
L 158.846154 106.807664 
L 159.527473 100.341892 
L 160.208791 100.757768 
L 160.89011 114.871401 
L 161.571429 116.398917 
L 162.252747 113.678625 
L 162.934066 117.612375 
L 163.615385 113.916661 
L 164.296703 97.218723 
L 164.978022 102.477178 
L 165.659341 117.7915 
L 166.340659 116.095726 
L 167.021978 110.466074 
L 167.703297 108.371304 
L 168.384615 105.462689 
L 169.065934 123.392454 
L 169.747253 115.560562 
L 170.428571 103.929777 
L 171.10989 102.861247 
L 171.791209 107.950623 
L 172.472527 106.778401 
L 173.153846 101.017668 
L 173.835165 108.95947 
L 174.516484 106.519169 
L 175.197802 101.270425 
L 175.879121 94.67329 
L 176.56044 92.599742 
L 177.923077 109.995885 
L 178.604396 113.090715 
L 179.285714 108.748513 
L 179.967033 111.506291 
L 180.648352 114.875408 
L 181.32967 109.900233 
L 182.010989 112.832742 
L 182.692308 114.115851 
L 183.373626 113.389744 
L 184.054945 117.325858 
L 184.736264 113.297818 
L 185.417582 110.266139 
L 186.098901 114.510737 
L 186.78022 104.718109 
L 187.461538 96.715468 
L 189.505495 114.120347 
L 190.186813 117.319281 
L 190.868132 111.464464 
L 191.549451 115.004279 
L 192.230769 117.652712 
L 192.912088 115.766124 
L 193.593407 101.954089 
L 194.274725 106.017224 
L 194.956044 94.351935 
L 195.637363 108.024025 
L 196.318681 103.284086 
L 197 106.938976 
L 197.681319 119.94662 
L 198.362637 117.931778 
L 199.725275 124.666956 
L 201.087912 111.217847 
L 201.769231 117.878339 
L 202.450549 116.269121 
L 203.131868 106.236506 
L 203.813187 105.42839 
L 204.494505 111.378139 
L 205.175824 110.086141 
L 206.538462 100.137743 
L 207.21978 112.236457 
L 207.901099 101.300305 
L 208.582418 99.924757 
L 209.263736 104.5117 
L 209.945055 113.807264 
L 210.626374 117.813158 
L 211.307692 106.80047 
L 211.989011 107.885314 
L 212.67033 109.782025 
L 213.351648 104.535337 
L 214.032967 123.225277 
L 214.714286 111.211295 
L 215.395604 116.230301 
L 216.076923 113.732809 
L 216.758242 114.968413 
L 217.43956 119.345788 
L 218.120879 114.804704 
L 218.802198 100.520143 
L 219.483516 100.528415 
L 220.846154 115.692645 
L 221.527473 119.200576 
L 222.208791 124.194455 
L 222.89011 118.168838 
L 223.571429 120.956392 
L 224.252747 118.18785 
L 225.615385 113.676287 
L 226.296703 114.046123 
L 226.978022 128.229972 
L 227.659341 135.692567 
L 228.340659 116.838944 
L 229.021978 119.424277 
L 229.703297 114.115029 
L 230.384615 107.871543 
L 231.065934 117.622035 
L 231.747253 112.044769 
L 232.428571 121.519483 
L 233.10989 135.468302 
L 233.791209 126.906706 
L 234.472527 109.143399 
L 235.153846 98.075062 
L 235.835165 100.523739 
L 236.516484 104.082593 
L 237.197802 106.18859 
L 237.879121 120.403809 
L 238.56044 115.452861 
L 239.241758 118.460236 
L 239.923077 119.552402 
L 240.604396 111.044169 
L 241.285714 108.198242 
L 241.967033 114.615894 
L 242.648352 119.778929 
L 243.32967 129.104219 
L 244.692308 112.902855 
L 245.373626 129.531116 
L 246.054945 116.478922 
L 247.417582 101.711428 
L 248.098901 99.678525 
L 248.78022 105.94056 
L 249.461538 108.457192 
L 250.142857 105.357223 
L 250.824176 101.509541 
L 251.505495 104.088579 
L 252.186813 104.682886 
L 252.868132 111.053264 
L 254.230769 117.485534 
L 254.912088 111.852079 
L 255.593407 113.822012 
L 256.274725 110.463633 
L 256.956044 118.95992 
L 257.637363 109.521328 
L 258.318681 123.066397 
L 259 115.389813 
L 259.681319 111.745688 
L 260.362637 109.955009 
L 261.043956 97.262271 
L 261.725275 108.073328 
L 262.406593 103.640665 
L 263.087912 103.361958 
L 263.769231 115.692208 
L 264.450549 112.800524 
L 265.131868 103.992388 
L 265.813187 118.196328 
L 266.494505 101.71965 
L 267.175824 103.446202 
L 267.857143 101.883308 
L 268.538462 115.092583 
L 269.21978 110.596872 
L 270.582418 125.027287 
L 271.263736 120.647395 
L 271.945055 124.177165 
L 272.626374 110.264006 
L 273.307692 111.41809 
L 274.67033 120.728067 
L 275.351648 116.947287 
L 276.032967 117.233753 
L 276.714286 112.963822 
L 277.395604 110.190347 
L 278.076923 124.293164 
L 278.758242 117.874665 
L 279.43956 123.637145 
L 280.120879 112.440014 
L 280.802198 107.150164 
L 281.483516 105.018885 
L 282.164835 117.023078 
L 282.846154 108.325906 
L 283.527473 114.554284 
L 284.208791 116.6925 
L 284.89011 96.844262 
L 285.571429 98.124905 
L 286.252747 89.744746 
L 286.934066 96.736921 
L 287.615385 110.831619 
L 288.296703 116.037431 
L 288.978022 117.411592 
L 289.659341 121.490117 
L 291.021978 101.351972 
L 291.703297 101.278441 
L 292.384615 101.060522 
L 293.065934 104.4959 
L 293.747253 106.550256 
L 294.428571 109.086877 
L 295.10989 118.012117 
L 295.791209 110.532898 
L 296.472527 95.325995 
L 297.153846 86.013063 
L 297.835165 88.801979 
L 298.516484 98.104685 
L 299.197802 112.218036 
L 299.879121 117.291919 
L 300.56044 118.752534 
L 301.241758 115.562489 
L 301.923077 119.057652 
L 302.604396 100.6123 
L 303.285714 98.745674 
L 303.967033 95.943039 
L 304.648352 89.865627 
L 305.32967 99.31339 
L 306.010989 105.090155 
L 306.692308 106.7338 
L 307.373626 114.770765 
L 308.054945 113.696686 
L 308.736264 115.872746 
L 309.417582 104.58446 
L 310.098901 112.959609 
L 310.78022 91.95662 
L 311.461538 96.965606 
L 312.142857 91.296259 
L 312.824176 95.489062 
L 314.186813 108.165922 
L 314.868132 95.96999 
L 315.549451 92.464782 
L 316.230769 100.357076 
L 316.912088 91.123403 
L 317.593407 90.686742 
L 318.274725 99.762101 
L 318.956044 110.915786 
L 319.637363 103.130756 
L 320.318681 107.323276 
L 321 109.755151 
L 321.681319 118.34696 
L 322.362637 110.851839 
L 323.043956 114.527128 
L 323.725275 111.496271 
L 324.406593 106.658496 
L 325.087912 119.195078 
L 325.769231 128.584752 
L 326.450549 123.686628 
L 327.131868 109.369052 
L 327.813187 112.843481 
L 328.494505 121.667392 
L 329.175824 119.296408 
L 329.857143 106.39911 
L 330.538462 104.39457 
L 331.21978 113.583076 
L 331.901099 101.764405 
L 332.582418 104.190242 
L 333.263736 101.199105 
L 333.945055 99.077718 
L 334.626374 106.986403 
L 335.307692 98.159717 
L 335.989011 106.399341 
L 336.67033 100.485998 
L 337.351648 108.761796 
L 338.032967 110.270301 
L 338.714286 117.661575 
L 339.395604 109.385906 
L 340.076923 107.114375 
L 340.758242 116.026769 
L 341.43956 119.484139 
L 342.120879 116.530229 
L 342.802198 108.28223 
L 343.483516 117.585758 
L 344.164835 117.515594 
L 344.846154 115.614207 
L 345.527473 125.50192 
L 346.208791 129.257728 
L 346.89011 106.275917 
L 347.571429 113.586879 
L 348.252747 115.964826 
L 348.934066 110.152683 
L 349.615385 122.79211 
L 350.296703 106.844018 
L 350.978022 114.648137 
L 351.659341 111.929951 
L 352.340659 108.556774 
L 353.021978 100.563999 
L 353.703297 101.842946 
L 354.384615 104.893509 
L 355.065934 113.233485 
L 355.747253 110.330292 
L 356.428571 110.294503 
L 357.10989 109.194423 
L 357.791209 111.705249 
L 358.472527 124.564754 
L 359.153846 121.293625 
L 359.835165 116.169051 
L 360.516484 110.007883 
L 361.197802 110.119206 
L 361.879121 110.393365 
L 362.56044 97.983779 
L 363.241758 105.986754 
L 363.923077 111.831936 
L 364.604396 95.691078 
L 365.285714 96.731731 
L 365.967033 96.32883 
L 367.32967 106.238972 
L 368.692308 100.026368 
L 369.373626 94.810819 
L 370.054945 102.199987 
L 370.736264 104.168661 
L 371.417582 114.920369 
L 372.098901 113.183078 
L 372.78022 118.600977 
L 373.461538 96.803078 
L 374.142857 98.642239 
L 374.824176 107.708194 
L 375.505495 100.684417 
L 376.186813 100.896581 
L 376.868132 106.004019 
L 377.549451 103.696828 
L 378.230769 103.701015 
L 378.912088 109.556346 
L 379.593407 106.471664 
L 380.274725 114.42436 
L 380.956044 104.547566 
L 381.637363 102.525504 
L 382.318681 111.404165 
L 383 113.869439 
L 383.681319 117.105241 
L 384.362637 115.836109 
L 385.043956 126.468966 
L 385.725275 107.93901 
L 386.406593 105.168439 
L 387.087912 115.18587 
L 387.769231 117.038571 
L 388.450549 125.191818 
L 389.131868 131.645644 
L 389.813187 119.701519 
L 390.494505 119.630069 
L 391.175824 110.942968 
L 391.857143 122.147215 
L 392.538462 108.697412 
L 393.21978 112.54864 
L 393.901099 104.128016 
L 394.582418 103.16562 
L 395.263736 109.142654 
L 395.945055 119.882853 
L 396.626374 117.829395 
L 397.307692 104.309658 
L 397.989011 102.196698 
L 398.67033 95.49921 
L 399.351648 109.03336 
L 400.032967 110.881667 
L 400.714286 103.216542 
L 401.395604 102.462585 
L 402.076923 99.673977 
L 402.758242 105.939532 
L 403.43956 115.494148 
L 404.120879 105.837766 
L 404.802198 106.815629 
L 405.483516 109.876802 
L 406.164835 109.985197 
L 406.846154 118.828916 
L 407.527473 118.722577 
L 408.208791 123.316149 
L 408.89011 115.896742 
L 409.571429 116.811402 
L 410.252747 112.391919 
L 410.934066 103.661424 
L 411.615385 118.322476 
L 412.296703 119.881774 
L 413.659341 105.593024 
L 414.340659 110.526912 
L 415.021978 116.611416 
L 415.703297 111.215252 
L 416.384615 118.619886 
L 417.065934 117.320103 
L 417.747253 114.316094 
L 418.428571 121.679416 
L 419.10989 116.772864 
L 419.791209 108.762156 
L 420.472527 112.570452 
L 421.153846 106.781304 
L 421.835165 114.434817 
L 422.516484 107.087552 
L 423.197802 101.368415 
L 423.879121 93.714953 
L 424.56044 103.069404 
L 425.241758 92.487699 
L 425.923077 91.862639 
L 426.604396 97.734978 
L 427.285714 105.670306 
L 427.967033 107.42088 
L 428.648352 103.504035 
L 429.32967 116.138503 
L 430.010989 104.19926 
L 430.692308 106.151953 
L 431.373626 114.427058 
L 432.054945 104.573053 
L 432.736264 111.224861 
L 433.417582 111.659081 
L 434.098901 123.499898 
L 434.78022 115.690538 
L 435.461538 113.910854 
L 436.142857 119.288597 
L 436.824176 114.183267 
L 437.505495 116.541739 
L 438.186813 106.200126 
L 438.868132 119.340623 
L 439.549451 116.035658 
L 440.230769 122.048738 
L 440.912088 107.476812 
L 441.593407 115.884692 
L 442.274725 112.846898 
L 442.956044 110.319938 
L 443.637363 119.543693 
L 444.318681 109.116936 
L 445 116.49295 
L 445.681319 117.626634 
L 446.362637 117.182625 
L 447.043956 113.844929 
L 447.725275 125.602864 
L 448.406593 123.77917 
L 449.087912 103.946065 
L 449.769231 111.440468 
L 450.450549 106.980263 
L 451.131868 106.227282 
L 451.813187 109.672268 
L 452.494505 103.152235 
L 453.175824 99.359353 
L 453.857143 110.369112 
L 454.538462 101.339974 
L 455.21978 102.093519 
L 455.901099 96.035093 
L 456.582418 101.145383 
L 457.263736 101.231399 
L 457.945055 110.628524 
L 458.626374 107.634663 
L 459.307692 107.486729 
L 459.989011 101.909154 
L 460.67033 100.040833 
L 461.351648 93.636927 
L 462.032967 107.488039 
L 462.714286 108.265093 
L 463.395604 116.922854 
L 464.076923 121.819334 
L 464.758242 130.105512 
L 466.120879 108.800488 
L 466.802198 118.456331 
L 467.483516 108.533163 
L 468.164835 109.185739 
L 468.846154 111.835019 
L 469.527473 109.69146 
L 470.208791 116.022093 
L 470.89011 113.785298 
L 471.571429 115.181657 
L 472.934066 100.875154 
L 473.615385 110.099449 
L 474.296703 113.456261 
L 474.978022 126.26582 
L 475.659341 112.845562 
L 476.340659 110.528891 
L 477.021978 102.121061 
L 477.703297 95.603751 
L 478.384615 110.100066 
L 479.065934 111.568799 
L 479.747253 109.027528 
L 480.428571 98.407517 
L 481.10989 107.622203 
L 481.791209 111.186862 
L 482.472527 102.217252 
L 483.153846 110.687461 
L 484.516484 103.090677 
L 485.197802 111.862998 
L 485.879121 109.099414 
L 486.56044 119.372404 
L 487.241758 115.395748 
L 487.923077 115.055252 
L 488.604396 110.543355 
L 489.285714 109.472359 
L 489.967033 110.036067 
L 490.648352 109.246938 
L 491.32967 111.257772 
L 492.010989 101.763763 
L 492.692308 120.416038 
L 493.373626 114.985756 
L 494.054945 107.062272 
L 494.736264 114.872762 
L 495.417582 118.895227 
L 496.098901 115.416173 
L 496.78022 120.583987 
L 497.461538 116.188885 
L 498.142857 107.708913 
L 498.824176 95.259555 
L 499.505495 97.433559 
L 500.186813 96.238934 
L 500.868132 91.337006 
L 501.549451 93.058626 
L 502.230769 98.313638 
L 502.912088 104.485237 
L 503.593407 94.541053 
L 504.274725 95.706082 
L 504.956044 104.569507 
L 505.637363 100.829988 
L 506.318681 109.91421 
L 507 113.920438 
L 507.681319 116.346043 
L 508.362637 100.158605 
L 509.043956 110.100014 
L 509.725275 108.876151 
L 510.406593 117.252508 
L 511.087912 109.026809 
L 511.769231 114.538638 
L 512.450549 112.875159 
L 513.131868 111.566667 
L 513.813187 107.560696 
L 514.494505 123.299706 
L 515.175824 121.595711 
L 515.857143 109.52937 
L 516.538462 109.067633 
L 517.21978 110.128455 
L 517.901099 110.394239 
L 518.582418 114.073408 
L 519.263736 110.200444 
L 519.945055 118.585074 
L 520.626374 105.451204 
L 521.307692 101.060984 
L 521.989011 98.741487 
L 522.67033 103.888387 
L 523.351648 104.224412 
L 524.032967 99.383195 
L 524.714286 97.507681 
L 525.395604 108.693507 
L 526.076923 102.00406 
L 526.758242 102.749539 
L 527.43956 101.209279 
L 528.120879 97.779168 
L 528.802198 112.294469 
L 529.483516 114.112948 
L 530.164835 104.248666 
L 530.846154 105.356041 
L 531.527473 105.143183 
L 532.208791 108.10886 
L 532.89011 119.171776 
L 533.571429 113.746272 
L 534.252747 109.779147 
L 534.934066 116.820009 
L 535.615385 120.156575 
L 536.296703 124.679212 
L 536.978022 124.033084 
L 537.659341 120.043402 
L 538.340659 129.967212 
L 539.021978 111.40676 
L 539.703297 113.195564 
L 540.384615 117.927744 
L 541.065934 117.232699 
L 541.747253 120.36301 
L 542.428571 112.093943 
L 543.10989 115.303257 
L 543.791209 106.790784 
L 544.472527 101.730389 
L 545.153846 93.182667 
L 545.835165 99.719272 
L 546.516484 93.038047 
L 547.197802 95.2083 
L 547.879121 98.042819 
L 548.56044 97.721078 
L 549.241758 96.470059 
L 549.923077 97.711778 
L 550.604396 106.925616 
L 551.285714 110.260229 
L 551.967033 109.894401 
L 552.648352 101.501807 
L 553.32967 104.720165 
L 554.010989 100.205878 
L 554.692308 102.158315 
L 555.373626 110.342367 
L 556.054945 112.028609 
L 556.736264 107.097495 
L 557.417582 108.417292 
L 558.098901 111.41994 
L 558.78022 115.626591 
L 559.461538 114.7637 
L 560.142857 105.306636 
L 560.824176 103.037777 
L 561.505495 107.747759 
L 562.186813 98.799011 
L 562.868132 101.198385 
L 563.549451 99.919952 
L 564.230769 102.50436 
L 564.912088 99.067595 
L 565.593407 101.581504 
L 566.274725 98.153012 
L 566.956044 96.152429 
L 567.637363 94.615611 
L 569 111.7155 
L 569.681319 102.346868 
L 570.362637 110.698201 
L 571.043956 124.910696 
L 571.725275 113.445213 
L 572.406593 110.893074 
L 573.087912 104.310275 
L 573.769231 110.22498 
L 574.450549 105.256356 
L 575.131868 102.475868 
L 575.813187 101.993552 
L 576.494505 111.474612 
L 577.175824 112.27836 
L 577.857143 116.640268 
L 578.538462 111.964867 
L 579.901099 121.528141 
L 580.582418 119.985287 
L 581.263736 122.946262 
L 581.945055 127.687974 
L 582.626374 125.052644 
L 583.307692 110.783215 
L 583.989011 126.610812 
L 584.67033 126.60516 
L 585.351648 110.733681 
L 586.032967 105.630791 
L 586.714286 108.045221 
L 587.395604 107.607044 
L 588.076923 115.649354 
L 588.758242 118.042793 
L 589.43956 106.779942 
L 590.120879 102.968588 
L 590.802198 100.791578 
L 591.483516 101.391537 
L 592.164835 114.861355 
L 592.846154 118.0811 
L 593.527473 120.54866 
L 594.208791 113.250699 
L 594.89011 113.632533 
L 595.571429 126.023801 
L 596.252747 115.744877 
L 596.934066 122.251499 
L 597.615385 118.634171 
L 598.296703 117.996856 
L 598.978022 121.160027 
L 599.659341 113.073193 
L 600.340659 107.364795 
L 601.021978 113.319913 
L 601.703297 120.566336 
L 602.384615 117.484481 
L 603.065934 127.796805 
L 603.747253 109.257497 
L 604.428571 112.312042 
L 605.10989 107.755544 
L 605.791209 107.95923 
L 606.472527 113.288826 
L 607.153846 109.246552 
L 607.835165 104.368544 
L 608.516484 106.837647 
L 609.197802 111.224886 
L 609.879121 104.593298 
L 610.56044 113.232817 
L 611.241758 102.893388 
L 611.241758 102.893388 
" clip-path="url(#pa67b174c6d)" style="fill: none; stroke: #2626ff; stroke-opacity: 0.8; stroke-width: 2; stroke-linecap: square"/>
   </g>
   <g id="line2d_12">
    <path d="M 625.549451 93.351206 
L 627.252747 101.105534 
L 628.956044 102.436199 
L 630.659341 101.57819 
L 632.362637 108.18907 
L 634.065934 106.237328 
L 635.769231 106.242723 
L 637.472527 108.899865 
L 639.175824 96.886449 
L 642.582418 97.427239 
L 644.285714 100.119784 
L 645.989011 104.042513 
L 647.692308 105.103181 
L 649.395604 105.637677 
L 651.098901 109.076292 
L 652.802198 120.866753 
L 654.505495 105.157622 
L 656.208791 91.188327 
L 657.912088 93.545849 
L 659.615385 106.042017 
L 661.318681 107.448962 
L 663.021978 103.068042 
L 664.725275 99.932259 
L 666.428571 95.761551 
L 668.131868 103.104036 
L 669.835165 102.945003 
L 671.538462 115.649636 
L 673.241758 99.615913 
L 674.945055 96.517614 
L 676.648352 102.558262 
L 678.351648 97.59064 
L 680.054945 87.685122 
L 681.758242 99.919079 
L 683.461538 100.991719 
L 685.164835 94.978125 
L 686.868132 89.576181 
L 688.571429 97.127722 
L 690.274725 110.693294 
L 691.978022 100.986144 
L 693.681319 101.760449 
L 695.384615 98.816867 
L 697.087912 100.667178 
L 698.791209 105.1763 
L 700.494505 111.04011 
L 702.197802 103.931447 
L 703.901099 106.112747 
L 705.604396 102.521317 
L 707.307692 111.004166 
L 709.010989 99.372713 
L 710.714286 102.869649 
L 712.417582 103.992131 
L 714.120879 111.187504 
L 715.824176 115.179113 
L 717.527473 98.642367 
L 719.230769 101.340719 
L 720.934066 96.512861 
L 722.637363 96.201577 
L 724.340659 94.579668 
L 726.043956 102.903947 
L 727.747253 109.399394 
L 729.450549 96.925809 
L 731.153846 103.895195 
L 732.857143 93.537653 
L 734.56044 92.26143 
L 736.263736 90.649129 
L 737.967033 92.306904 
L 739.67033 99.637931 
L 741.373626 103.486462 
L 743.076923 95.329771 
L 744.78022 103.401139 
L 746.483516 104.624539 
L 748.186813 116.84827 
L 749.89011 117.770612 
L 751.593407 114.234111 
L 753.296703 109.322035 
L 755 115.21647 
L 756.703297 118.7225 
L 758.406593 119.995769 
L 760.10989 113.706244 
L 761.813187 114.684234 
L 763.516484 108.740035 
L 765.21978 109.555498 
L 766.923077 120.773594 
L 768.626374 115.651383 
L 770.32967 114.339114 
L 772.032967 114.602585 
L 773.736264 118.263538 
L 775.43956 115.507817 
L 777.142857 110.35827 
L 778.846154 115.144352 
L 780.549451 109.71538 
L 782.252747 114.830088 
L 783.956044 110.29273 
L 785.659341 100.139028 
L 787.362637 97.706408 
L 789.065934 99.437585 
L 790.769231 94.84612 
L 792.472527 91.232466 
L 794.175824 108.279326 
L 795.879121 101.068075 
L 797.582418 111.324211 
L 799.285714 101.789326 
L 800.989011 101.102939 
L 802.692308 95.780717 
L 804.395604 107.990934 
L 806.098901 91.908936 
L 807.802198 99.778235 
L 809.505495 95.788014 
L 811.208791 109.472282 
L 812.912088 103.569472 
L 814.615385 110.067051 
L 816.318681 126.210351 
L 818.021978 99.916458 
L 819.725275 115.07578 
L 821.428571 112.883175 
L 823.131868 102.25746 
L 824.835165 94.077981 
L 826.538462 104.545485 
L 828.241758 91.908113 
L 829.945055 98.841223 
L 831.648352 106.789962 
L 833.351648 98.227467 
L 835.054945 97.507912 
L 836.758242 104.137008 
L 838.461538 101.618577 
L 840.164835 107.440535 
L 841.868132 111.713368 
L 845.274725 98.49618 
L 846.978022 112.594808 
L 848.681319 109.511796 
L 850.384615 105.929872 
L 852.087912 105.671539 
L 853.791209 113.198878 
L 855.494505 117.205003 
L 857.197802 117.836384 
L 858.901099 122.948702 
L 860.604396 123.426625 
L 862.307692 117.087514 
L 864.010989 114.991947 
L 865.714286 110.401818 
L 867.417582 103.020178 
L 869.120879 111.781323 
L 870.824176 106.922738 
L 872.527473 120.612376 
L 874.230769 115.202776 
L 875.934066 121.248895 
L 877.637363 120.69847 
L 879.340659 119.849838 
L 881.043956 126.921274 
L 882.747253 123.336497 
L 886.153846 157.25762 
L 887.857143 154.349159 
L 891.263736 136.114121 
L 892.967033 142.747585 
L 894.67033 150.44146 
L 896.373626 154.850281 
L 898.076923 142.362591 
L 899.78022 145.513661 
L 901.483516 139.896932 
L 903.186813 151.688189 
L 904.89011 146.799108 
L 904.89011 146.799108 
" clip-path="url(#pa67b174c6d)" style="fill: none; stroke: #2626ff; stroke-opacity: 0.8; stroke-width: 2; stroke-linecap: square"/>
   </g>
   <g id="line2d_13">
    <path d="M 625.549451 192.24 
L 625.549451 25.92 
" clip-path="url(#pa67b174c6d)" style="fill: none; stroke-dasharray: 3.7,1.6; stroke-dashoffset: 0; stroke: #808080; stroke-opacity: 0.5"/>
   </g>
   <g id="line2d_14">
    <path d="M 710.714286 192.24 
L 710.714286 25.92 
" clip-path="url(#pa67b174c6d)" style="fill: none; stroke-dasharray: 3.7,1.6; stroke-dashoffset: 0; stroke: #808080; stroke-opacity: 0.5"/>
   </g>
   <g id="line2d_15">
    <path d="M 611.923077 192.24 
L 611.923077 25.92 
" clip-path="url(#pa67b174c6d)" style="fill: none; stroke-dasharray: 3.7,1.6; stroke-dashoffset: 0; stroke: #808080; stroke-opacity: 0.8"/>
   </g>
   <g id="line2d_16">
    <path d="M 135 123.506761 
L 611.786786 123.506761 
L 611.786786 123.506761 
" clip-path="url(#pa67b174c6d)" style="fill: none; stroke-dasharray: 7.4,3.2; stroke-dashoffset: 0; stroke: #2626ff; stroke-opacity: 0.8; stroke-width: 2"/>
   </g>
   <g id="line2d_17">
    <path d="M 625.659846 123.506761 
L 932.142857 123.506761 
L 932.142857 123.506761 
" clip-path="url(#pa67b174c6d)" style="fill: none; stroke-dasharray: 7.4,3.2; stroke-dashoffset: 0; stroke: #2626ff; stroke-opacity: 0.8; stroke-width: 2"/>
   </g>
   <g id="line2d_18">
    <path d="M 625.549451 65.374967 
L 627.252747 58.739715 
L 628.956044 54.041902 
L 630.659341 55.595578 
L 632.362637 64.285338 
L 634.065934 61.848964 
L 635.769231 64.888666 
L 637.472527 69.414627 
L 639.175824 67.375342 
L 640.879121 70.297628 
L 642.582418 66.26583 
L 644.285714 63.014163 
L 645.989011 61.219707 
L 647.692308 68.112099 
L 649.395604 70.426968 
L 651.098901 68.281884 
L 652.802198 68.340959 
L 654.505495 68.978472 
L 656.208791 66.19509 
L 657.912088 69.163776 
L 661.318681 57.958022 
L 663.021978 69.707184 
L 664.725275 70.038945 
L 666.428571 62.487422 
L 668.131868 70.388542 
L 669.835165 62.327612 
L 671.538462 57.739572 
L 673.241758 57.850126 
L 674.945055 65.554665 
L 676.648352 65.007599 
L 678.351648 62.399715 
L 680.054945 61.055898 
L 681.758242 77.514223 
L 683.461538 71.010866 
L 685.164835 51.287689 
L 686.868132 51.964496 
L 688.571429 42.312824 
L 690.274725 42.067555 
L 691.978022 47.276412 
L 693.681319 61.661813 
L 695.384615 62.632757 
L 697.087912 64.587 
L 698.791209 67.319771 
L 700.494505 63.911687 
L 702.197802 70.364712 
L 703.901099 67.289523 
L 705.604396 70.899436 
L 707.307692 67.857738 
L 709.010989 67.702004 
L 710.714286 70.782111 
L 712.417582 78.000821 
L 714.120879 68.127459 
L 715.824176 70.841802 
L 717.527473 71.561579 
L 719.230769 69.364481 
L 720.934066 63.15501 
L 722.637363 76.319406 
L 724.340659 63.180683 
L 726.043956 64.681961 
L 727.747253 74.908684 
L 729.450549 76.091155 
L 731.153846 70.344734 
L 732.857143 67.816007 
L 734.56044 56.610106 
L 736.263736 70.952229 
L 737.967033 69.115375 
L 739.67033 69.66267 
L 741.373626 63.48401 
L 743.076923 75.593913 
L 744.78022 79.956107 
L 746.483516 80.78376 
L 748.186813 76.962978 
L 749.89011 74.348159 
L 751.593407 77.802468 
L 753.296703 64.940951 
L 755 66.729092 
L 756.703297 58.153812 
L 758.406593 63.468071 
L 760.10989 64.851287 
L 761.813187 62.723921 
L 763.516484 69.420841 
L 765.21978 82.053049 
L 766.923077 83.899816 
L 768.626374 68.038771 
L 770.32967 70.086794 
L 772.032967 70.176332 
L 773.736264 61.129712 
L 775.43956 75.700933 
L 777.142857 69.424454 
L 778.846154 64.982492 
L 780.549451 68.556149 
L 782.252747 64.525179 
L 783.956044 68.303218 
L 785.659341 71.67461 
L 787.362637 62.526567 
L 789.065934 59.751471 
L 790.769231 66.311928 
L 792.472527 66.19591 
L 794.175824 71.306932 
L 797.582418 63.876624 
L 799.285714 56.797975 
L 800.989011 56.259346 
L 802.692308 71.877696 
L 804.395604 74.264249 
L 806.098901 73.291148 
L 807.802198 66.65643 
L 809.505495 69.072636 
L 811.208791 78.587868 
L 812.912088 68.001193 
L 814.615385 71.266008 
L 816.318681 73.877589 
L 819.725275 57.433487 
L 821.428571 53.409266 
L 823.131868 56.16238 
L 824.835165 55.858762 
L 826.538462 59.412026 
L 828.241758 71.960604 
L 829.945055 63.083422 
L 831.648352 51.619954 
L 833.351648 61.212396 
L 835.054945 62.339391 
L 836.758242 51.60612 
L 838.461538 54.466679 
L 840.164835 49.113787 
L 841.868132 51.016982 
L 843.571429 38.472401 
L 845.274725 34.164089 
L 846.978022 35.127638 
L 850.384615 42.921452 
L 852.087912 44.932273 
L 853.791209 46.026634 
L 855.494505 46.725955 
L 857.197802 59.99389 
L 858.901099 66.433241 
L 860.604396 62.457918 
L 862.307692 64.70668 
L 864.010989 65.135761 
L 865.714286 70.402918 
L 867.417582 46.801659 
L 869.120879 33.48 
L 870.824176 44.913767 
L 872.527473 46.35106 
L 874.230769 58.8762 
L 875.934066 50.708269 
L 877.637363 65.226743 
L 879.340659 75.553658 
L 881.043956 71.408506 
L 882.747253 79.517049 
L 884.450549 77.314043 
L 886.153846 70.457325 
L 887.857143 76.72056 
L 889.56044 70.329267 
L 891.263736 72.900448 
L 892.967033 74.095038 
L 894.67033 76.403313 
L 896.373626 79.996414 
L 898.076923 72.319173 
L 899.78022 78.218579 
L 901.483516 73.850239 
L 903.186813 78.550807 
L 904.89011 74.092592 
L 904.89011 74.092592 
" clip-path="url(#pa67b174c6d)" style="fill: none; stroke: #d3d3d3; stroke-opacity: 0.6; stroke-linecap: square"/>
   </g>
   <g id="line2d_19">
    <path d="M 625.549451 93.031798 
L 627.252747 109.364849 
L 628.956044 109.374189 
L 630.659341 121.102049 
L 632.362637 127.051818 
L 634.065934 115.84687 
L 635.769231 119.197861 
L 637.472527 112.05016 
L 639.175824 112.216602 
L 640.879121 123.221021 
L 642.582418 107.682077 
L 644.285714 126.242565 
L 645.989011 116.234411 
L 647.692308 113.005748 
L 649.395604 117.988974 
L 651.098901 121.540058 
L 652.802198 116.994269 
L 654.505495 105.191736 
L 656.208791 99.388628 
L 657.912088 107.497973 
L 659.615385 111.522428 
L 661.318681 114.088957 
L 663.021978 111.467831 
L 664.725275 111.814588 
L 666.428571 104.419904 
L 668.131868 104.227188 
L 669.835165 109.302258 
L 671.538462 107.671463 
L 673.241758 102.295326 
L 674.945055 114.624051 
L 676.648352 104.114903 
L 678.351648 101.848907 
L 680.054945 103.250652 
L 681.758242 91.289125 
L 683.461538 91.09748 
L 685.164835 91.369356 
L 686.868132 90.155302 
L 688.571429 94.428909 
L 690.274725 90.944349 
L 691.978022 82.135334 
L 693.681319 94.497848 
L 695.384615 98.941964 
L 697.087912 96.789811 
L 698.791209 97.246321 
L 700.494505 106.359378 
L 702.197802 106.982459 
L 703.901099 112.4392 
L 705.604396 108.173625 
L 707.307692 108.835561 
L 709.010989 104.246027 
L 710.714286 106.981647 
L 712.417582 98.846826 
L 714.120879 107.506017 
L 715.824176 94.890861 
L 717.527473 98.591552 
L 719.230769 92.064521 
L 720.934066 101.641472 
L 722.637363 100.472816 
L 724.340659 105.940756 
L 726.043956 115.883894 
L 727.747253 112.795815 
L 729.450549 107.016419 
L 731.153846 98.732963 
L 732.857143 93.528748 
L 734.56044 96.573219 
L 736.263736 91.786427 
L 737.967033 97.260181 
L 739.67033 92.258632 
L 741.373626 95.280956 
L 743.076923 95.360677 
L 744.78022 108.063973 
L 746.483516 123.0839 
L 748.186813 103.031899 
L 749.89011 97.217733 
L 751.593407 96.699945 
L 753.296703 104.964789 
L 755 106.932367 
L 758.406593 104.331181 
L 760.10989 107.496403 
L 761.813187 109.928072 
L 763.516484 109.683149 
L 765.21978 109.57901 
L 766.923077 108.537252 
L 768.626374 108.521565 
L 770.32967 111.505384 
L 772.032967 118.056654 
L 773.736264 125.389066 
L 775.43956 121.835478 
L 777.142857 105.270176 
L 778.846154 105.376117 
L 780.549451 101.319098 
L 782.252747 105.294832 
L 783.956044 115.995634 
L 785.659341 113.223826 
L 787.362637 118.847979 
L 789.065934 113.706669 
L 790.769231 114.279717 
L 792.472527 114.531055 
L 794.175824 126.264912 
L 795.879121 123.25156 
L 797.582418 128.153792 
L 799.285714 125.384674 
L 800.989011 129.915629 
L 802.692308 132.73066 
L 804.395604 126.145141 
L 806.098901 120.680634 
L 807.802198 118.16912 
L 809.505495 128.591154 
L 811.208791 125.47692 
L 812.912088 125.310702 
L 814.615385 124.353191 
L 816.318681 141.18991 
L 818.021978 135.719295 
L 819.725275 137.397539 
L 821.428571 134.187316 
L 823.131868 134.26968 
L 824.835165 136.259831 
L 826.538462 137.918387 
L 828.241758 133.933857 
L 829.945055 122.757086 
L 831.648352 119.126567 
L 833.351648 114.788998 
L 835.054945 129.733516 
L 836.758242 123.783967 
L 838.461538 115.981791 
L 840.164835 121.115132 
L 841.868132 126.823476 
L 843.571429 127.049231 
L 845.274725 133.082385 
L 846.978022 142.430567 
L 848.681319 137.329529 
L 850.384615 137.942362 
L 852.087912 130.27187 
L 853.791209 129.68407 
L 855.494505 132.044506 
L 857.197802 135.261018 
L 858.901099 141.597301 
L 860.604396 144.582578 
L 862.307692 148.29208 
L 864.010989 148.642628 
L 865.714286 142.129093 
L 867.417582 145.318121 
L 869.120879 146.903208 
L 870.824176 146.394235 
L 872.527473 153.936909 
L 874.230769 156.424345 
L 875.934066 161.913924 
L 877.637363 154.041726 
L 879.340659 152.360933 
L 881.043956 141.178763 
L 882.747253 150.72567 
L 884.450549 145.915356 
L 886.153846 144.627117 
L 887.857143 148.235842 
L 889.56044 163.90186 
L 891.263736 162.659768 
L 892.967033 164.370893 
L 894.67033 165.498328 
L 896.373626 166.07463 
L 898.076923 163.042491 
L 899.78022 149.826803 
L 901.483516 160.432649 
L 903.186813 157.235776 
L 904.89011 159.834251 
L 904.89011 159.834251 
" clip-path="url(#pa67b174c6d)" style="fill: none; stroke: #d3d3d3; stroke-opacity: 0.6; stroke-linecap: square"/>
   </g>
   <g id="line2d_20">
    <path d="M 625.549451 145.459218 
L 627.252747 142.026147 
L 628.956044 142.514201 
L 630.659341 140.579238 
L 632.362637 146.508288 
L 634.065934 145.206842 
L 635.769231 134.42999 
L 637.472527 137.457197 
L 639.175824 132.062647 
L 640.879121 132.412745 
L 642.582418 134.686146 
L 644.285714 142.118428 
L 645.989011 152.024035 
L 647.692308 140.08947 
L 649.395604 135.741148 
L 651.098901 130.797654 
L 652.802198 131.602616 
L 654.505495 137.128819 
L 656.208791 136.453035 
L 657.912088 144.242546 
L 659.615385 147.120622 
L 661.318681 152.467535 
L 664.725275 137.44925 
L 666.428571 136.749597 
L 668.131868 126.263312 
L 669.835165 126.677179 
L 671.538462 122.041418 
L 673.241758 127.025671 
L 674.945055 126.768567 
L 676.648352 127.174092 
L 678.351648 134.067005 
L 680.054945 137.011182 
L 681.758242 140.612789 
L 683.461538 124.752255 
L 685.164835 123.008329 
L 686.868132 122.615267 
L 688.571429 128.09739 
L 690.274725 137.259663 
L 691.978022 136.92375 
L 693.681319 146.27452 
L 695.384615 137.127326 
L 697.087912 136.391287 
L 698.791209 139.606233 
L 700.494505 138.269224 
L 702.197802 139.415298 
L 703.901099 137.37211 
L 705.604396 138.075501 
L 707.307692 134.255517 
L 709.010989 141.633793 
L 710.714286 138.7701 
L 712.417582 141.473241 
L 714.120879 142.063638 
L 715.824176 132.439811 
L 717.527473 130.94406 
L 719.230769 136.150132 
L 720.934066 135.646003 
L 722.637363 124.661937 
L 724.340659 129.157046 
L 726.043956 128.013146 
L 727.747253 133.165143 
L 729.450549 132.824554 
L 731.153846 135.49464 
L 732.857143 142.675757 
L 734.56044 150.941535 
L 736.263736 149.559405 
L 737.967033 140.784209 
L 739.67033 144.998258 
L 741.373626 143.777126 
L 743.076923 138.941042 
L 744.78022 136.835071 
L 746.483516 137.217859 
L 748.186813 144.708591 
L 749.89011 152.987551 
L 751.593407 157.276982 
L 753.296703 157.230047 
L 755 155.506125 
L 756.703297 156.443904 
L 758.406593 148.370471 
L 760.10989 153.859307 
L 761.813187 157.854896 
L 763.516484 156.940312 
L 765.21978 150.520085 
L 766.923077 151.797997 
L 768.626374 157.250541 
L 770.32967 152.661724 
L 772.032967 155.195117 
L 773.736264 152.606749 
L 775.43956 148.337979 
L 777.142857 130.357493 
L 778.846154 139.919409 
L 780.549451 142.310322 
L 782.252747 138.854732 
L 783.956044 138.805994 
L 785.659341 141.904503 
L 787.362637 145.522637 
L 789.065934 136.65859 
L 790.769231 144.792459 
L 792.472527 148.891338 
L 794.175824 143.952838 
L 795.879121 145.403378 
L 797.582418 146.099581 
L 799.285714 145.057182 
L 800.989011 145.67995 
L 802.692308 135.875643 
L 804.395604 148.797057 
L 806.098901 152.040729 
L 807.802198 155.644876 
L 809.505495 152.69044 
L 811.208791 146.898925 
L 812.912088 137.155969 
L 814.615385 148.221387 
L 816.318681 142.692117 
L 818.021978 149.983159 
L 819.725275 141.981587 
L 821.428571 139.112376 
L 823.131868 145.825654 
L 824.835165 144.612006 
L 826.538462 142.571616 
L 828.241758 148.911533 
L 829.945055 153.987028 
L 831.648352 157.638579 
L 833.351648 156.273363 
L 835.054945 165.430418 
L 836.758242 163.611908 
L 838.461538 159.340375 
L 840.164835 163.714826 
L 841.868132 153.903914 
L 843.571429 144.767013 
L 845.274725 155.00554 
L 846.978022 153.65009 
L 848.681319 159.348525 
L 850.384615 158.620057 
L 852.087912 160.849685 
L 853.791209 157.492173 
L 855.494505 155.593826 
L 857.197802 147.406251 
L 858.901099 144.422255 
L 860.604396 151.384712 
L 862.307692 144.527598 
L 864.010989 154.397877 
L 865.714286 160.285741 
L 867.417582 157.59771 
L 869.120879 152.090567 
L 870.824176 153.049343 
L 872.527473 148.174653 
L 874.230769 138.244571 
L 875.934066 148.791531 
L 877.637363 145.106941 
L 879.340659 151.075393 
L 881.043956 155.283444 
L 882.747253 156.023773 
L 884.450549 157.65703 
L 886.153846 162.230414 
L 887.857143 170.050382 
L 889.56044 183.000403 
L 891.263736 184.68 
L 892.967033 181.549622 
L 894.67033 182.745184 
L 896.373626 177.248516 
L 898.076923 173.856083 
L 899.78022 176.343281 
L 901.483516 180.784928 
L 903.186813 180.931634 
L 904.89011 183.07129 
L 904.89011 183.07129 
" clip-path="url(#pa67b174c6d)" style="fill: none; stroke: #d3d3d3; stroke-opacity: 0.6; stroke-linecap: square"/>
   </g>
   <g id="line2d_21">
    <path d="M 864.010989 123.637317 
L 865.714286 121.639267 
L 867.417582 112.030669 
L 869.120879 119.820818 
L 870.824176 114.994069 
L 872.527473 130.125366 
L 874.230769 120.112668 
L 875.934066 125.029217 
L 877.637363 124.759817 
L 879.340659 122.963817 
L 881.043956 129.317166 
L 882.747253 126.308867 
L 884.450549 132.033615 
L 886.153846 133.852065 
L 887.857143 131.741766 
L 889.56044 141.080964 
L 891.263736 146.962863 
L 892.967033 156.189811 
L 894.67033 135.311315 
L 896.373626 135.266415 
L 898.076923 142.181013 
L 899.78022 147.681262 
L 901.483516 150.756912 
L 903.186813 135.221515 
L 904.89011 138.813514 
L 906.593407 143.774963 
L 908.296703 159.82671 
L 910 149.544612 
L 911.703297 148.242512 
L 913.406593 152.687611 
L 915.10989 155.404061 
L 916.813187 145.121963 
L 918.516484 142.630013 
L 920.21978 148.197612 
L 921.923077 150.869162 
" clip-path="url(#pa67b174c6d)" style="fill: none; stroke: #fea443; stroke-opacity: 0.8; stroke-width: 2; stroke-linecap: square"/>
   </g>
   <g id="line2d_22">
    <path d="M 625.549451 89.434881 
L 627.252747 86.788755 
L 628.956044 95.659165 
L 630.659341 103.005302 
L 632.362637 100.651144 
L 634.065934 93.804174 
L 635.769231 91.313572 
L 637.472527 89.900753 
L 639.175824 100.285879 
L 640.879121 99.061048 
L 642.582418 107.453415 
L 644.285714 110.23551 
L 645.989011 115.235289 
L 647.692308 112.764134 
L 649.395604 109.311302 
L 651.098901 104.790765 
L 652.802198 104.065496 
L 654.505495 101.730968 
L 656.208791 92.448434 
L 657.912088 96.734665 
L 659.615385 90.938718 
L 661.318681 91.084968 
L 663.021978 94.620418 
L 664.725275 100.617876 
L 666.428571 99.114813 
L 668.131868 99.804197 
L 669.835165 96.282049 
L 671.538462 98.784877 
L 673.241758 101.792122 
L 674.945055 108.111318 
L 676.648352 99.429289 
L 678.351648 98.492707 
L 680.054945 99.198432 
L 681.758242 104.303837 
L 683.461538 101.012045 
L 685.164835 102.688303 
L 686.868132 108.372162 
L 688.571429 109.525992 
L 690.274725 108.697244 
L 691.978022 104.335105 
L 693.681319 102.299172 
L 695.384615 102.598514 
L 697.087912 96.274348 
L 698.791209 96.603418 
L 700.494505 94.421731 
L 702.197802 95.082741 
L 703.901099 92.929932 
L 705.604396 93.810263 
L 707.307692 82.142662 
L 709.010989 90.492571 
L 710.714286 89.331859 
L 712.417582 87.482348 
L 714.120879 94.345383 
L 715.824176 87.65586 
L 717.527473 90.396033 
L 719.230769 97.394208 
L 720.934066 98.844615 
L 722.637363 94.80262 
L 724.340659 91.850973 
L 726.043956 94.162086 
L 727.747253 98.80227 
L 729.450549 98.016834 
L 731.153846 90.903283 
L 732.857143 91.329027 
L 734.56044 93.510548 
L 736.263736 85.355419 
L 737.967033 91.411986 
L 739.67033 85.199894 
L 741.373626 88.201409 
L 743.076923 87.245898 
L 744.78022 83.166982 
L 746.483516 83.275419 
L 748.186813 81.059578 
L 749.89011 77.83594 
L 751.593407 87.914555 
L 753.296703 92.519002 
L 755 94.040452 
L 756.703297 91.283201 
L 758.406593 80.205034 
L 760.10989 79.998412 
L 761.813187 85.384643 
L 763.516484 88.365431 
L 765.21978 79.749995 
L 766.923077 81.032013 
L 768.626374 87.061971 
L 770.32967 92.096358 
L 772.032967 79.780361 
L 773.736264 89.776961 
L 775.43956 85.374129 
L 777.142857 80.265429 
L 778.846154 78.247649 
L 780.549451 76.924786 
L 782.252747 83.731818 
L 783.956044 81.434819 
L 785.659341 92.851396 
L 787.362637 96.615093 
L 789.065934 93.799021 
L 790.769231 92.120971 
L 792.472527 89.098209 
L 794.175824 87.574531 
L 795.879121 86.764514 
L 797.582418 87.773242 
L 799.285714 89.387144 
L 800.989011 89.992216 
L 802.692308 91.105214 
L 804.395604 86.276812 
L 806.098901 85.505913 
L 807.802198 88.114742 
L 809.505495 86.530352 
L 811.208791 82.286832 
L 812.912088 88.801661 
L 814.615385 87.071722 
L 816.318681 87.890261 
L 818.021978 84.696985 
L 819.725275 79.428575 
L 821.428571 74.808026 
L 823.131868 65.743485 
L 824.835165 58.1434 
L 826.538462 59.229909 
L 828.241758 59.806109 
L 829.945055 58.332937 
L 831.648352 57.847386 
L 833.351648 62.122587 
L 835.054945 62.266673 
L 836.758242 66.644471 
L 838.461538 66.181463 
L 841.868132 54.920114 
L 843.571429 51.244292 
L 845.274725 62.754308 
L 846.978022 72.236398 
L 848.681319 71.763208 
L 850.384615 69.84176 
L 852.087912 75.579838 
L 853.791209 69.619379 
L 855.494505 71.086111 
L 857.197802 74.694567 
L 858.901099 79.700969 
L 860.604396 80.043637 
L 862.307692 78.736499 
L 864.010989 90.38015 
L 865.714286 97.331747 
L 867.417582 91.695619 
L 869.120879 91.90396 
L 870.824176 89.346589 
L 872.527473 102.292409 
L 874.230769 101.367436 
L 875.934066 104.079408 
L 877.637363 114.178724 
L 879.340659 111.650077 
L 881.043956 117.585969 
L 882.747253 113.552619 
L 884.450549 110.718967 
L 886.153846 108.404689 
L 887.857143 109.145996 
L 889.56044 114.084285 
L 891.263736 108.541527 
L 892.967033 107.666458 
L 894.67033 111.150714 
L 896.373626 118.363342 
L 898.076923 114.77527 
L 899.78022 121.970791 
L 901.483516 121.006344 
L 903.186813 129.938534 
L 904.89011 133.075499 
L 904.89011 133.075499 
" clip-path="url(#pa67b174c6d)" style="fill: none; stroke: #d3d3d3; stroke-opacity: 0.6; stroke-linecap: square"/>
   </g>
   <g id="patch_3">
    <path d="M 135 192.24 
L 135 25.92 
" style="fill: none; stroke: #000000; stroke-width: 0.8; stroke-linejoin: miter; stroke-linecap: square"/>
   </g>
   <g id="patch_4">
    <path d="M 972 192.24 
L 972 25.92 
" style="fill: none"/>
   </g>
   <g id="patch_5">
    <path d="M 135 192.24 
L 972 192.24 
" style="fill: none; stroke: #000000; stroke-width: 0.8; stroke-linejoin: miter; stroke-linecap: square"/>
   </g>
   <g id="patch_6">
    <path d="M 135 25.92 
L 972 25.92 
" style="fill: none"/>
   </g>
   <g id="legend_1">
    <g id="patch_7">
     <path d="M 142 187.24 
L 458.735938 187.24 
Q 460.735938 187.24 460.735938 185.24 
L 460.735938 98.17125 
Q 460.735938 96.17125 458.735938 96.17125 
L 142 96.17125 
Q 140 96.17125 140 98.17125 
L 140 185.24 
Q 140 187.24 142 187.24 
z
" style="fill: #ffffff; opacity: 0.8; stroke: #cccccc; stroke-linejoin: miter"/>
    </g>
    <g id="line2d_23">
     <path d="M 144 104.269688 
L 154 104.269688 
L 164 104.269688 
" style="fill: none; stroke-dasharray: 7.4,3.2; stroke-dashoffset: 0; stroke: #ff0000; stroke-opacity: 0.8; stroke-width: 2"/>
    </g>
    <g id="text_10">
     <text style="font: 10px 'DejaVu Sans', 'Bitstream Vera Sans', 'Computer Modern Sans Serif', 'Lucida Grande', 'Verdana', 'Geneva', 'Lucid', 'Arial', 'Helvetica', 'Avant Garde', sans-serif; text-anchor: start" x="172" y="107.769688" transform="rotate(-0 172 107.769688)">Pre-industrial baseline based on ISIMIP multimodel mean</text>
    </g>
    <g id="line2d_24">
     <path d="M 144 118.947812 
L 154 118.947812 
L 164 118.947812 
" style="fill: none; stroke: #0b0b0b; stroke-opacity: 0.8; stroke-width: 2; stroke-linecap: square"/>
    </g>
    <g id="text_11">
     <text style="font: 10px 'DejaVu Sans', 'Bitstream Vera Sans', 'Computer Modern Sans Serif', 'Lucida Grande', 'Verdana', 'Geneva', 'Lucid', 'Arial', 'Helvetica', 'Avant Garde', sans-serif; text-anchor: start" x="172" y="122.447812" transform="rotate(-0 172 122.447812)">ISIMIP multimodel mean, 1850-2014</text>
    </g>
    <g id="line2d_25">
     <path d="M 144 133.625938 
L 154 133.625938 
L 164 133.625938 
" style="fill: none; stroke: #2626ff; stroke-opacity: 0.8; stroke-width: 2; stroke-linecap: square"/>
    </g>
    <g id="text_12">
     <text style="font: 10px 'DejaVu Sans', 'Bitstream Vera Sans', 'Computer Modern Sans Serif', 'Lucida Grande', 'Verdana', 'Geneva', 'Lucid', 'Arial', 'Helvetica', 'Avant Garde', sans-serif; text-anchor: start" x="172" y="137.125938" transform="rotate(-0 172 137.125938)">CESM2 mid-Holocene and historical series</text>
    </g>
    <g id="line2d_26">
     <path d="M 144 148.304063 
L 154 148.304063 
L 164 148.304063 
" style="fill: none; stroke-dasharray: 7.4,3.2; stroke-dashoffset: 0; stroke: #2626ff; stroke-opacity: 0.8; stroke-width: 2"/>
    </g>
    <g id="text_13">
     <text style="font: 10px 'DejaVu Sans', 'Bitstream Vera Sans', 'Computer Modern Sans Serif', 'Lucida Grande', 'Verdana', 'Geneva', 'Lucid', 'Arial', 'Helvetica', 'Avant Garde', sans-serif; text-anchor: start" x="172" y="151.804063" transform="rotate(-0 172 151.804063)">Mid-Holocene baseline based on CESM2</text>
    </g>
    <g id="line2d_27">
     <path d="M 144 162.982188 
L 154 162.982188 
L 164 162.982188 
" style="fill: none; stroke: #d3d3d3; stroke-opacity: 0.6; stroke-linecap: square"/>
    </g>
    <g id="text_14">
     <text style="font: 10px 'DejaVu Sans', 'Bitstream Vera Sans', 'Computer Modern Sans Serif', 'Lucida Grande', 'Verdana', 'Geneva', 'Lucid', 'Arial', 'Helvetica', 'Avant Garde', sans-serif; text-anchor: start" x="172" y="166.482188" transform="rotate(-0 172 166.482188)">ISIMIP individual simulations, 1850-2014</text>
    </g>
    <g id="line2d_28">
     <path d="M 144 177.660313 
L 154 177.660313 
L 164 177.660313 
" style="fill: none; stroke: #fea443; stroke-opacity: 0.8; stroke-width: 2; stroke-linecap: square"/>
    </g>
    <g id="text_15">
     <text style="font: 10px 'DejaVu Sans', 'Bitstream Vera Sans', 'Computer Modern Sans Serif', 'Lucida Grande', 'Verdana', 'Geneva', 'Lucid', 'Arial', 'Helvetica', 'Avant Garde', sans-serif; text-anchor: start" x="172" y="181.160313" transform="rotate(-0 172 181.160313)">NSIDC satellite observation data</text>
    </g>
   </g>
  </g>
 </g>
 <defs>
  <clipPath id="pa67b174c6d">
   <rect x="135" y="25.92" width="837" height="166.32"/>
  </clipPath>
 </defs>
</svg>
