<?xml version="1.0" encoding="utf-8" standalone="no"?>
<!DOCTYPE svg PUBLIC "-//W3C//DTD SVG 1.1//EN"
  "http://www.w3.org/Graphics/SVG/1.1/DTD/svg11.dtd">
<svg xmlns:xlink="http://www.w3.org/1999/xlink" width="1080pt" height="216pt" viewBox="0 0 1080 216" xmlns="http://www.w3.org/2000/svg" version="1.1">
 <metadata>
  <rdf:RDF xmlns:dc="http://purl.org/dc/elements/1.1/" xmlns:cc="http://creativecommons.org/ns#" xmlns:rdf="http://www.w3.org/1999/02/22-rdf-syntax-ns#">
   <cc:Work>
    <dc:type rdf:resource="http://purl.org/dc/dcmitype/StillImage"/>
    <dc:date>2026-01-03T23:05:41.758672</dc:date>
    <dc:format>image/svg+xml</dc:format>
    <dc:creator>
     <cc:Agent>
      <dc:title>Matplotlib v3.8.4, https://matplotlib.org/</dc:title>
     </cc:Agent>
    </dc:creator>
   </cc:Work>
  </rdf:RDF>
 </metadata>
 <defs>
  <style type="text/css">*{stroke-linejoin: round; stroke-linecap: butt}</style>
 </defs>
 <g id="figure_1">
  <g id="patch_1">
   <path d="M 0 216 
L 1080 216 
L 1080 0 
L 0 0 
z
" style="fill: #ffffff"/>
  </g>
  <g id="axes_1">
   <g id="patch_2">
    <path d="M 135 192.24 
L 972 192.24 
L 972 25.92 
L 135 25.92 
z
" style="fill: #ffffff"/>
   </g>
   <g id="matplotlib.axis_1">
    <g id="xtick_1">
     <g id="line2d_1">
      <defs>
       <path id="m28d4603a47" d="M 0 0 
L 0 3.5 
" style="stroke: #000000; stroke-width: 0.8"/>
      </defs>
      <g>
       <use xlink:href="#m28d4603a47" x="625.549451" y="192.24" style="stroke: #000000; stroke-width: 0.8"/>
      </g>
     </g>
     <g id="text_1">
      <text style="font: 10px 'DejaVu Sans', 'Bitstream Vera Sans', 'Computer Modern Sans Serif', 'Lucida Grande', 'Verdana', 'Geneva', 'Lucid', 'Arial', 'Helvetica', 'Avant Garde', sans-serif; text-anchor: middle" x="625.549451" y="206.838437" transform="rotate(-0 625.549451 206.838437)">1850</text>
     </g>
    </g>
    <g id="xtick_2">
     <g id="line2d_2">
      <g>
       <use xlink:href="#m28d4603a47" x="710.714286" y="192.24" style="stroke: #000000; stroke-width: 0.8"/>
      </g>
     </g>
     <g id="text_2">
      <text style="font: 10px 'DejaVu Sans', 'Bitstream Vera Sans', 'Computer Modern Sans Serif', 'Lucida Grande', 'Verdana', 'Geneva', 'Lucid', 'Arial', 'Helvetica', 'Avant Garde', sans-serif; text-anchor: middle" x="710.714286" y="206.838437" transform="rotate(-0 710.714286 206.838437)">1900</text>
     </g>
    </g>
    <g id="xtick_3">
     <g id="line2d_3">
      <g>
       <use xlink:href="#m28d4603a47" x="795.879121" y="192.24" style="stroke: #000000; stroke-width: 0.8"/>
      </g>
     </g>
     <g id="text_3">
      <text style="font: 10px 'DejaVu Sans', 'Bitstream Vera Sans', 'Computer Modern Sans Serif', 'Lucida Grande', 'Verdana', 'Geneva', 'Lucid', 'Arial', 'Helvetica', 'Avant Garde', sans-serif; text-anchor: middle" x="795.879121" y="206.838437" transform="rotate(-0 795.879121 206.838437)">1950</text>
     </g>
    </g>
    <g id="xtick_4">
     <g id="line2d_4">
      <g>
       <use xlink:href="#m28d4603a47" x="855.494505" y="192.24" style="stroke: #000000; stroke-width: 0.8"/>
      </g>
     </g>
     <g id="text_4">
      <text style="font: 10px 'DejaVu Sans', 'Bitstream Vera Sans', 'Computer Modern Sans Serif', 'Lucida Grande', 'Verdana', 'Geneva', 'Lucid', 'Arial', 'Helvetica', 'Avant Garde', sans-serif; text-anchor: middle" x="855.494505" y="206.838437" transform="rotate(-0 855.494505 206.838437)">1985</text>
     </g>
    </g>
    <g id="xtick_5">
     <g id="line2d_5">
      <g>
       <use xlink:href="#m28d4603a47" x="915.10989" y="192.24" style="stroke: #000000; stroke-width: 0.8"/>
      </g>
     </g>
     <g id="text_5">
      <text style="font: 10px 'DejaVu Sans', 'Bitstream Vera Sans', 'Computer Modern Sans Serif', 'Lucida Grande', 'Verdana', 'Geneva', 'Lucid', 'Arial', 'Helvetica', 'Avant Garde', sans-serif; text-anchor: middle" x="915.10989" y="206.838437" transform="rotate(-0 915.10989 206.838437)">2020</text>
     </g>
    </g>
   </g>
   <g id="matplotlib.axis_2">
    <g id="ytick_1">
     <g id="line2d_6">
      <defs>
       <path id="me64565bd85" d="M 0 0 
L -3.5 0 
" style="stroke: #000000; stroke-width: 0.8"/>
      </defs>
      <g>
       <use xlink:href="#me64565bd85" x="135" y="165.134078" style="stroke: #000000; stroke-width: 0.8"/>
      </g>
     </g>
     <g id="text_6">
      <text style="font: 10px 'DejaVu Sans', 'Bitstream Vera Sans', 'Computer Modern Sans Serif', 'Lucida Grande', 'Verdana', 'Geneva', 'Lucid', 'Arial', 'Helvetica', 'Avant Garde', sans-serif; text-anchor: end" x="128" y="168.933296" transform="rotate(-0 128 168.933296)">5.0</text>
     </g>
    </g>
    <g id="ytick_2">
     <g id="line2d_7">
      <g>
       <use xlink:href="#me64565bd85" x="135" y="121.988841" style="stroke: #000000; stroke-width: 0.8"/>
      </g>
     </g>
     <g id="text_7">
      <text style="font: 10px 'DejaVu Sans', 'Bitstream Vera Sans', 'Computer Modern Sans Serif', 'Lucida Grande', 'Verdana', 'Geneva', 'Lucid', 'Arial', 'Helvetica', 'Avant Garde', sans-serif; text-anchor: end" x="128" y="125.78806" transform="rotate(-0 128 125.78806)">7.5</text>
     </g>
    </g>
    <g id="ytick_3">
     <g id="line2d_8">
      <g>
       <use xlink:href="#me64565bd85" x="135" y="78.843604" style="stroke: #000000; stroke-width: 0.8"/>
      </g>
     </g>
     <g id="text_8">
      <text style="font: 10px 'DejaVu Sans', 'Bitstream Vera Sans', 'Computer Modern Sans Serif', 'Lucida Grande', 'Verdana', 'Geneva', 'Lucid', 'Arial', 'Helvetica', 'Avant Garde', sans-serif; text-anchor: end" x="128" y="82.642823" transform="rotate(-0 128 82.642823)">10.0</text>
     </g>
    </g>
    <g id="ytick_4">
     <g id="line2d_9">
      <g>
       <use xlink:href="#me64565bd85" x="135" y="35.698368" style="stroke: #000000; stroke-width: 0.8"/>
      </g>
     </g>
     <g id="text_9">
      <text style="font: 10px 'DejaVu Sans', 'Bitstream Vera Sans', 'Computer Modern Sans Serif', 'Lucida Grande', 'Verdana', 'Geneva', 'Lucid', 'Arial', 'Helvetica', 'Avant Garde', sans-serif; text-anchor: end" x="128" y="39.497587" transform="rotate(-0 128 39.497587)">12.5</text>
     </g>
    </g>
    <g id="text_10">
     <!-- Area ($10^6\ km^2$) -->
     <g transform="translate(99.654687 146.98) rotate(-90)">
      <text>
       <tspan style="font: 10px 'DejaVu Sans'" x="0 6.84082 10.952148 17.104492 23.232422 26.411133 30.3125 36.674805 71.830293" y="-0.9765625">Area (10)</tspan>
       <tspan style="font: 7px 'DejaVu Sans'" x="43.132812 67.103242" y="-4.8046875">62</tspan>
       <tspan style="font: oblique 10px 'DejaVu Sans'" x="51.106901 56.897917" y="-0.9765625">km</tspan>
      </text>
     </g>
    </g>
   </g>
   <g id="line2d_10">
    <path d="M 625.549451 87.761556 
L 932.142857 87.761556 
L 932.142857 87.761556 
" clip-path="url(#p792da6ba5f)" style="fill: none; stroke-dasharray: 7.4,3.2; stroke-dashoffset: 0; stroke: #ff0000; stroke-opacity: 0.8; stroke-width: 2"/>
   </g>
   <g id="line2d_11">
    <path d="M 625.549451 81.835057 
L 627.252747 79.345918 
L 628.956044 77.392265 
L 630.659341 84.468792 
L 632.362637 79.667573 
L 634.065934 78.639816 
L 635.769231 75.112307 
L 637.472527 74.096151 
L 639.175824 74.710978 
L 640.879121 78.023552 
L 642.582418 78.933691 
L 644.285714 85.705745 
L 645.989011 80.213679 
L 647.692308 80.232212 
L 649.395604 80.448755 
L 651.098901 79.06439 
L 652.802198 77.067786 
L 654.505495 83.559235 
L 656.208791 85.29489 
L 657.912088 76.886228 
L 659.615385 77.181475 
L 661.318681 75.27215 
L 663.021978 77.175092 
L 666.428571 88.838531 
L 668.131868 87.066435 
L 669.835165 80.192008 
L 671.538462 80.705292 
L 673.241758 83.709285 
L 674.945055 81.654732 
L 676.648352 80.57888 
L 678.351648 81.241918 
L 680.054945 73.444911 
L 681.758242 71.504832 
L 683.461538 77.269933 
L 685.164835 81.128701 
L 686.868132 82.624921 
L 688.571429 85.798743 
L 691.978022 90.7695 
L 693.681319 86.426928 
L 695.384615 84.929258 
L 697.087912 84.15248 
L 698.791209 77.109879 
L 700.494505 82.215599 
L 702.197802 81.383416 
L 703.901099 73.644224 
L 705.604396 76.140288 
L 707.307692 77.430696 
L 709.010989 77.349162 
L 710.714286 81.604841 
L 712.417582 87.731348 
L 714.120879 86.015604 
L 715.824176 85.102571 
L 717.527473 88.95005 
L 719.230769 89.685307 
L 720.934066 86.356152 
L 722.637363 81.520753 
L 724.340659 84.089803 
L 726.043956 78.930203 
L 727.747253 78.43376 
L 729.450549 82.890285 
L 731.153846 81.122883 
L 732.857143 85.322066 
L 736.263736 97.262385 
L 737.967033 90.920393 
L 741.373626 80.147675 
L 743.076923 83.753267 
L 746.483516 80.898684 
L 748.186813 81.463928 
L 749.89011 79.419512 
L 751.593407 81.943795 
L 753.296703 84.192195 
L 755 84.963652 
L 756.703297 77.962862 
L 758.406593 88.973691 
L 760.10989 83.605193 
L 761.813187 79.707537 
L 763.516484 80.614959 
L 765.21978 85.221148 
L 766.923077 83.639045 
L 768.626374 91.312253 
L 770.32967 90.373533 
L 772.032967 88.195478 
L 773.736264 85.745933 
L 775.43956 83.877943 
L 777.142857 83.695991 
L 778.846154 86.677162 
L 780.549451 87.694806 
L 782.252747 89.05093 
L 783.956044 84.838903 
L 785.659341 88.70573 
L 787.362637 81.751635 
L 789.065934 85.757566 
L 790.769231 91.745867 
L 792.472527 83.9998 
L 794.175824 80.401862 
L 795.879121 76.411447 
L 797.582418 76.817352 
L 799.285714 77.888568 
L 800.989011 69.445862 
L 802.692308 80.869459 
L 804.395604 78.62621 
L 806.098901 85.245202 
L 807.802198 80.498172 
L 809.505495 89.872281 
L 811.208791 92.089396 
L 812.912088 90.863462 
L 814.615385 82.181016 
L 816.318681 85.177097 
L 818.021978 87.540442 
L 819.725275 80.591426 
L 821.428571 83.106039 
L 823.131868 82.590421 
L 824.835165 79.169956 
L 826.538462 81.096984 
L 828.241758 80.077686 
L 829.945055 85.164245 
L 831.648352 83.106663 
L 833.351648 91.681168 
L 835.054945 92.757712 
L 836.758242 88.212909 
L 840.164835 93.122936 
L 841.868132 87.801697 
L 843.571429 86.059645 
L 845.274725 83.906643 
L 846.978022 90.374809 
L 848.681319 98.709927 
L 850.384615 99.200454 
L 852.087912 95.035051 
L 853.791209 101.189738 
L 855.494505 95.658037 
L 857.197802 90.637315 
L 858.901099 99.298883 
L 860.604396 99.395646 
L 862.307692 105.933252 
L 864.010989 111.570954 
L 867.417582 94.788565 
L 869.120879 91.043228 
L 870.824176 92.837988 
L 872.527473 101.081441 
L 875.934066 105.956739 
L 877.637363 100.616419 
L 879.340659 104.61266 
L 881.043956 101.059063 
L 882.747253 95.323965 
L 884.450549 98.517335 
L 886.153846 103.036374 
L 887.857143 92.987132 
L 889.56044 93.192256 
L 891.263736 99.334245 
L 892.967033 106.470493 
L 894.67033 110.88717 
L 896.373626 114.420479 
L 898.076923 116.690979 
L 899.78022 110.310033 
L 901.483516 105.840655 
L 903.186813 105.353341 
L 904.89011 108.646186 
L 904.89011 108.646186 
" clip-path="url(#p792da6ba5f)" style="fill: none; stroke: #0b0b0b; stroke-opacity: 0.8; stroke-width: 2; stroke-linecap: square"/>
   </g>
   <g id="line2d_12">
    <path d="M 135 75.390244 
L 135.681319 73.323784 
L 136.362637 68.455462 
L 137.043956 69.810136 
L 137.725275 71.812638 
L 138.406593 73.37874 
L 139.087912 72.920187 
L 140.450549 75.868449 
L 141.131868 72.477434 
L 141.813187 72.335018 
L 142.494505 71.642094 
L 143.175824 72.463773 
L 143.857143 63.92008 
L 144.538462 66.679315 
L 145.21978 73.89345 
L 145.901099 70.762184 
L 146.582418 71.446483 
L 147.263736 71.475697 
L 147.945055 74.740475 
L 148.626374 63.564755 
L 149.307692 66.385677 
L 149.989011 67.612321 
L 150.67033 67.466678 
L 151.351648 64.595459 
L 152.032967 71.788855 
L 152.714286 73.402588 
L 153.395604 70.266089 
L 154.076923 69.789563 
L 154.758242 73.107683 
L 155.43956 65.294258 
L 156.120879 71.14014 
L 156.802198 74.52309 
L 157.483516 77.065648 
L 158.164835 76.678311 
L 158.846154 74.979635 
L 159.527473 82.767105 
L 160.208791 72.398745 
L 160.89011 78.157281 
L 161.571429 75.835762 
L 162.252747 70.297377 
L 162.934066 73.053567 
L 163.615385 84.394976 
L 164.296703 81.556871 
L 164.978022 69.41885 
L 165.659341 68.38548 
L 166.340659 77.191803 
L 167.021978 77.581197 
L 167.703297 82.191794 
L 168.384615 74.811988 
L 169.065934 79.84302 
L 169.747253 69.369079 
L 170.428571 77.143431 
L 171.10989 74.312996 
L 171.791209 62.971604 
L 172.472527 82.707327 
L 173.153846 86.034762 
L 173.835165 79.026575 
L 174.516484 77.403378 
L 175.197802 74.961086 
L 175.879121 78.223148 
L 176.56044 78.654215 
L 177.241758 78.318048 
L 177.923077 68.627257 
L 178.604396 63.44576 
L 179.285714 67.037504 
L 179.967033 66.949105 
L 180.648352 62.715524 
L 181.32967 61.010496 
L 182.010989 69.453314 
L 182.692308 66.421458 
L 183.373626 69.739266 
L 184.054945 68.599738 
L 184.736264 75.935732 
L 185.417582 67.075457 
L 186.098901 62.198691 
L 186.78022 68.959836 
L 187.461538 71.376436 
L 188.142857 73.073136 
L 188.824176 80.90246 
L 189.505495 77.421943 
L 190.186813 66.384081 
L 190.868132 60.377679 
L 191.549451 65.114464 
L 192.230769 63.950956 
L 192.912088 64.603441 
L 193.593407 60.950488 
L 194.274725 62.658495 
L 194.956044 65.612732 
L 195.637363 70.421425 
L 196.318681 70.790016 
L 197 70.945006 
L 197.681319 68.969382 
L 198.362637 71.900461 
L 199.043956 83.524431 
L 199.725275 97.844369 
L 200.406593 81.962707 
L 201.087912 70.846502 
L 201.769231 67.14646 
L 202.450549 64.109453 
L 203.131868 68.137366 
L 203.813187 59.989931 
L 204.494505 68.143143 
L 205.175824 69.312116 
L 205.857143 67.369145 
L 206.538462 56.872112 
L 207.21978 61.477574 
L 207.901099 68.976311 
L 208.582418 71.507479 
L 209.263736 71.928507 
L 209.945055 78.571725 
L 210.626374 80.154581 
L 211.307692 79.602083 
L 211.989011 81.927683 
L 212.67033 72.382106 
L 213.351648 66.651961 
L 214.032967 70.797406 
L 214.714286 66.784486 
L 215.395604 69.388796 
L 216.076923 70.095677 
L 216.758242 64.548091 
L 217.43956 76.15919 
L 218.120879 76.434822 
L 218.802198 72.036228 
L 219.483516 70.162252 
L 220.846154 73.20334 
L 221.527473 70.475294 
L 222.208791 73.915685 
L 222.89011 74.753971 
L 223.571429 75.928984 
L 224.252747 76.431728 
L 224.934066 72.524835 
L 225.615385 76.347789 
L 226.296703 72.59508 
L 226.978022 75.343617 
L 227.659341 63.295114 
L 228.340659 70.509841 
L 229.021978 70.933798 
L 229.703297 71.581378 
L 230.384615 69.274178 
L 231.065934 69.569429 
L 231.747253 60.399305 
L 232.428571 73.734032 
L 233.10989 73.638177 
L 233.791209 74.22407 
L 234.472527 72.681734 
L 235.153846 72.649262 
L 235.835165 68.763945 
L 236.516484 75.087505 
L 237.197802 70.244446 
L 237.879121 74.568483 
L 238.56044 67.524909 
L 239.241758 71.175822 
L 239.923077 66.542413 
L 240.604396 79.748828 
L 241.285714 73.007549 
L 241.967033 71.527723 
L 242.648352 77.642127 
L 243.32967 76.541425 
L 244.010989 75.018198 
L 244.692308 71.454433 
L 245.373626 78.239903 
L 246.054945 76.609333 
L 246.736264 76.845925 
L 247.417582 75.500155 
L 248.098901 65.954742 
L 248.78022 71.562615 
L 249.461538 72.210607 
L 250.142857 71.608403 
L 250.824176 68.848493 
L 251.505495 67.272105 
L 252.186813 63.258346 
L 252.868132 72.263176 
L 253.549451 63.651377 
L 254.230769 63.07447 
L 254.912088 78.103659 
L 255.593407 73.319341 
L 256.274725 79.948898 
L 256.956044 77.366741 
L 257.637363 75.614196 
L 258.318681 78.691198 
L 259 75.91315 
L 259.681319 65.578432 
L 260.362637 77.55827 
L 261.043956 71.886586 
L 261.725275 68.734402 
L 262.406593 68.347888 
L 263.087912 76.248544 
L 263.769231 72.762958 
L 264.450549 73.360388 
L 265.131868 64.500954 
L 265.813187 65.230004 
L 266.494505 56.240809 
L 267.857143 68.743652 
L 268.538462 66.368643 
L 269.21978 76.971504 
L 269.901099 75.430173 
L 270.582418 69.783803 
L 271.263736 76.426955 
L 271.945055 72.861578 
L 272.626374 75.329545 
L 273.989011 60.491309 
L 274.67033 61.648711 
L 275.351648 61.694433 
L 276.032967 75.252765 
L 276.714286 76.708562 
L 277.395604 72.17058 
L 278.758242 67.652315 
L 279.43956 72.104317 
L 280.120879 73.681463 
L 280.802198 83.159445 
L 281.483516 77.76471 
L 282.164835 74.9007 
L 282.846154 76.967916 
L 283.527473 82.1083 
L 284.208791 72.402481 
L 284.89011 73.725901 
L 285.571429 66.900157 
L 286.252747 64.439448 
L 286.934066 64.530431 
L 287.615385 65.541878 
L 288.296703 68.358949 
L 288.978022 59.809956 
L 289.659341 67.701082 
L 290.340659 64.890446 
L 291.021978 69.490017 
L 291.703297 61.241986 
L 292.384615 69.322336 
L 293.065934 62.303664 
L 293.747253 75.826907 
L 294.428571 76.043404 
L 295.10989 70.92761 
L 295.791209 70.071614 
L 296.472527 62.207283 
L 297.153846 62.194165 
L 297.835165 67.835993 
L 298.516484 72.467476 
L 299.197802 79.587566 
L 299.879121 78.123491 
L 300.56044 82.851603 
L 301.241758 73.389915 
L 302.604396 71.717474 
L 303.285714 74.624936 
L 303.967033 70.43051 
L 304.648352 78.751749 
L 305.32967 70.356315 
L 306.010989 91.167526 
L 306.692308 82.174891 
L 307.373626 86.122108 
L 308.054945 74.617957 
L 308.736264 72.639847 
L 309.417582 67.435308 
L 310.78022 74.995649 
L 311.461538 71.45519 
L 312.142857 78.772915 
L 312.824176 76.325076 
L 313.505495 83.223041 
L 314.186813 85.331618 
L 314.868132 76.483556 
L 315.549451 76.139028 
L 316.230769 78.131309 
L 316.912088 78.989724 
L 317.593407 79.391643 
L 318.274725 77.909348 
L 318.956044 79.050687 
L 319.637363 83.539622 
L 321.681319 64.717335 
L 322.362637 68.71666 
L 323.043956 69.086369 
L 323.725275 67.779853 
L 324.406593 72.801421 
L 325.087912 75.619216 
L 325.769231 76.67046 
L 326.450549 77.019284 
L 327.131868 71.026625 
L 327.813187 68.364462 
L 328.494505 72.484264 
L 329.175824 73.40137 
L 329.857143 70.309029 
L 330.538462 64.647797 
L 331.21978 63.680229 
L 331.901099 68.328747 
L 332.582418 74.476677 
L 333.945055 68.024082 
L 334.626374 71.000439 
L 335.307692 81.068774 
L 335.989011 79.518967 
L 336.67033 77.050144 
L 337.351648 71.998785 
L 338.032967 69.513519 
L 338.714286 63.047198 
L 339.395604 62.443003 
L 340.076923 66.276326 
L 340.758242 69.125376 
L 341.43956 75.757501 
L 342.120879 78.754662 
L 342.802198 72.337453 
L 343.483516 76.256082 
L 344.164835 64.214294 
L 344.846154 64.041561 
L 345.527473 65.285667 
L 346.208791 71.929362 
L 346.89011 66.883781 
L 347.571429 72.401757 
L 348.252747 64.179764 
L 348.934066 71.185615 
L 349.615385 60.817436 
L 350.296703 70.81207 
L 350.978022 69.045305 
L 351.659341 67.879855 
L 352.340659 65.573725 
L 353.021978 75.183903 
L 353.703297 72.550197 
L 354.384615 72.073029 
L 355.065934 71.810745 
L 355.747253 66.803578 
L 356.428571 73.350184 
L 357.10989 74.968904 
L 357.791209 67.353558 
L 358.472527 67.846954 
L 359.153846 73.351715 
L 359.835165 83.345526 
L 360.516484 78.593137 
L 361.197802 79.513371 
L 362.56044 62.153381 
L 363.241758 68.126849 
L 363.923077 71.509421 
L 364.604396 64.121961 
L 365.285714 58.893475 
L 365.967033 70.838634 
L 366.648352 69.793826 
L 367.32967 76.467279 
L 368.010989 72.583756 
L 368.692308 72.551514 
L 369.373626 67.917167 
L 370.054945 70.513182 
L 370.736264 70.663515 
L 371.417582 67.556411 
L 372.098901 76.450968 
L 372.78022 73.836733 
L 373.461538 77.15533 
L 374.142857 65.513042 
L 374.824176 69.57463 
L 375.505495 69.315292 
L 376.186813 71.430914 
L 376.868132 79.086138 
L 377.549451 74.974105 
L 378.230769 71.642835 
L 378.912088 73.623891 
L 379.593407 76.333503 
L 380.274725 76.635683 
L 380.956044 73.647788 
L 381.637363 72.544338 
L 382.318681 60.699741 
L 383 63.097068 
L 383.681319 64.72377 
L 384.362637 68.318444 
L 385.043956 74.79785 
L 385.725275 63.400087 
L 386.406593 71.820258 
L 387.087912 69.653533 
L 387.769231 63.917776 
L 388.450549 72.634317 
L 389.131868 62.033381 
L 389.813187 69.656331 
L 390.494505 61.006151 
L 391.175824 71.904082 
L 392.538462 78.176603 
L 393.21978 68.97371 
L 393.901099 70.572993 
L 394.582418 74.350275 
L 395.263736 76.693979 
L 395.945055 74.877147 
L 396.626374 72.660091 
L 397.307692 74.372033 
L 397.989011 83.034689 
L 398.67033 84.08376 
L 399.351648 79.395626 
L 400.032967 82.954157 
L 400.714286 79.687766 
L 401.395604 79.015366 
L 402.076923 77.960535 
L 402.758242 75.409764 
L 403.43956 68.445225 
L 404.120879 78.858269 
L 404.802198 67.342054 
L 405.483516 67.717672 
L 406.164835 69.429186 
L 406.846154 64.960741 
L 407.527473 69.908872 
L 408.208791 72.050926 
L 408.89011 76.066808 
L 409.571429 70.190412 
L 410.252747 69.436559 
L 410.934066 70.431564 
L 411.615385 77.826562 
L 412.296703 67.812358 
L 412.978022 62.781721 
L 413.659341 74.271273 
L 414.340659 75.133918 
L 415.021978 71.79771 
L 415.703297 70.16658 
L 416.384615 75.02674 
L 417.065934 56.772867 
L 418.428571 71.498163 
L 419.10989 74.342918 
L 419.791209 76.37228 
L 420.472527 71.371465 
L 421.835165 62.849284 
L 423.197802 75.475154 
L 423.879121 78.675661 
L 424.56044 69.889286 
L 425.241758 74.425885 
L 425.923077 74.472595 
L 426.604396 79.482906 
L 427.967033 67.908839 
L 428.648352 69.692128 
L 429.32967 84.494781 
L 430.010989 85.317908 
L 430.692308 76.369152 
L 431.373626 73.147694 
L 432.054945 74.217898 
L 432.736264 74.742549 
L 433.417582 72.619406 
L 434.098901 83.797314 
L 434.78022 85.512366 
L 435.461538 74.474619 
L 436.824176 76.691083 
L 438.186813 73.519 
L 438.868132 79.366922 
L 439.549451 89.87067 
L 440.230769 88.480511 
L 441.593407 76.016198 
L 442.274725 72.251309 
L 442.956044 71.11983 
L 443.637363 79.892215 
L 445 70.047502 
L 445.681319 70.806194 
L 446.362637 78.555892 
L 447.043956 74.200468 
L 447.725275 68.772142 
L 448.406593 68.124957 
L 449.087912 70.394055 
L 449.769231 69.91929 
L 450.450549 71.925248 
L 451.131868 72.920252 
L 451.813187 61.32711 
L 452.494505 64.745446 
L 453.175824 70.795447 
L 453.857143 71.204443 
L 455.21978 83.783111 
L 455.901099 79.54293 
L 456.582418 77.701345 
L 457.263736 69.363104 
L 457.945055 68.691709 
L 458.626374 65.492189 
L 459.307692 67.744351 
L 459.989011 63.782058 
L 461.351648 74.847258 
L 462.032967 79.363597 
L 462.714286 77.845571 
L 463.395604 71.636827 
L 464.076923 79.076 
L 464.758242 75.059904 
L 465.43956 79.51268 
L 466.120879 71.542355 
L 466.802198 77.406308 
L 467.483516 70.754761 
L 468.846154 83.804704 
L 469.527473 77.296595 
L 470.208791 82.69467 
L 470.89011 77.733011 
L 471.571429 68.842897 
L 472.252747 65.728025 
L 472.934066 64.258749 
L 473.615385 66.356184 
L 474.296703 59.346745 
L 474.978022 55.576557 
L 475.659341 62.643913 
L 476.340659 66.665539 
L 477.021978 65.152846 
L 477.703297 65.840815 
L 478.384615 60.228136 
L 479.065934 63.063838 
L 479.747253 64.48624 
L 480.428571 70.246964 
L 481.10989 61.660462 
L 481.791209 67.815469 
L 482.472527 72.47034 
L 483.153846 72.457009 
L 483.835165 64.934177 
L 484.516484 75.484091 
L 485.197802 70.087875 
L 486.56044 75.714265 
L 487.241758 75.023892 
L 487.923077 68.605433 
L 488.604396 63.43865 
L 489.285714 63.700358 
L 489.967033 66.440666 
L 490.648352 78.239278 
L 491.32967 67.979512 
L 492.010989 72.592463 
L 492.692308 74.160573 
L 493.373626 73.563274 
L 494.054945 70.300882 
L 494.736264 68.685783 
L 496.098901 78.214754 
L 496.78022 75.054719 
L 497.461538 70.32799 
L 498.142857 73.491547 
L 499.505495 76.560352 
L 500.186813 73.059788 
L 500.868132 78.373152 
L 501.549451 81.043478 
L 502.230769 77.909464 
L 502.912088 80.108645 
L 503.593407 71.25214 
L 504.274725 73.613555 
L 504.956044 74.869609 
L 505.637363 71.356718 
L 506.318681 61.397372 
L 507 58.484512 
L 507.681319 64.375753 
L 508.362637 66.874021 
L 509.043956 64.09808 
L 509.725275 64.266172 
L 510.406593 62.35513 
L 511.087912 59.668346 
L 511.769231 67.790781 
L 512.450549 69.457955 
L 513.131868 68.90883 
L 513.813187 67.652381 
L 514.494505 69.896231 
L 515.175824 66.99407 
L 515.857143 67.516202 
L 516.538462 70.813914 
L 517.21978 59.793497 
L 518.582418 76.488806 
L 519.263736 78.882496 
L 519.945055 75.035413 
L 520.626374 79.773104 
L 521.307692 79.553085 
L 521.989011 75.699534 
L 522.67033 78.085752 
L 523.351648 72.438657 
L 524.032967 78.997064 
L 524.714286 80.730073 
L 525.395604 78.1307 
L 526.076923 80.959193 
L 526.758242 72.984704 
L 527.43956 76.056225 
L 528.120879 72.865775 
L 528.802198 75.114102 
L 529.483516 73.84358 
L 530.164835 79.628663 
L 530.846154 72.388261 
L 531.527473 77.001953 
L 532.208791 80.450672 
L 532.89011 79.571733 
L 533.571429 77.457132 
L 534.252747 72.129203 
L 534.934066 71.285535 
L 535.615385 73.342086 
L 536.296703 73.624253 
L 536.978022 71.033554 
L 537.659341 72.335561 
L 538.340659 70.635124 
L 539.021978 71.478413 
L 539.703297 68.260148 
L 540.384615 78.232908 
L 541.065934 78.708315 
L 541.747253 79.975051 
L 542.428571 82.782773 
L 543.10989 76.557389 
L 543.791209 82.729711 
L 544.472527 67.663457 
L 545.153846 71.683882 
L 545.835165 71.964485 
L 546.516484 77.675241 
L 547.197802 73.647361 
L 547.879121 76.992752 
L 548.56044 74.093158 
L 549.241758 78.578506 
L 549.923077 69.234908 
L 550.604396 80.275256 
L 551.285714 71.545433 
L 551.967033 75.052036 
L 552.648352 73.518375 
L 553.32967 67.108885 
L 554.010989 67.439933 
L 554.692308 73.464078 
L 555.373626 67.385537 
L 556.054945 77.322517 
L 556.736264 76.230917 
L 557.417582 79.614986 
L 558.098901 78.795052 
L 558.78022 74.899712 
L 560.142857 77.72177 
L 560.824176 75.978096 
L 561.505495 71.786765 
L 562.186813 74.5012 
L 562.868132 70.585057 
L 563.549451 70.143933 
L 564.230769 73.576934 
L 564.912088 71.430403 
L 565.593407 72.63175 
L 566.274725 72.993098 
L 566.956044 74.551646 
L 567.637363 85.929263 
L 568.318681 83.038013 
L 569 79.042754 
L 569.681319 74.117961 
L 570.362637 75.816078 
L 571.043956 70.024839 
L 571.725275 74.616805 
L 572.406593 77.622113 
L 573.087912 79.985157 
L 573.769231 74.202312 
L 574.450549 75.963267 
L 575.131868 79.581345 
L 575.813187 81.379348 
L 576.494505 71.200082 
L 577.175824 74.420882 
L 577.857143 78.83154 
L 578.538462 72.910937 
L 579.21978 65.196494 
L 579.901099 65.089382 
L 580.582418 71.258674 
L 581.263736 63.060892 
L 581.945055 67.567109 
L 582.626374 70.489893 
L 583.307692 56.777705 
L 584.67033 81.748087 
L 585.351648 82.357351 
L 586.032967 79.584143 
L 586.714286 74.484198 
L 587.395604 72.520177 
L 588.076923 72.193803 
L 588.758242 64.814342 
L 589.43956 78.531418 
L 590.120879 75.475615 
L 590.802198 81.170373 
L 591.483516 84.851619 
L 592.164835 86.288455 
L 592.846154 93.453642 
L 593.527473 91.575501 
L 594.208791 78.292439 
L 594.89011 77.205447 
L 595.571429 74.710158 
L 596.252747 85.615562 
L 596.934066 93.738096 
L 597.615385 84.586932 
L 598.978022 75.104095 
L 599.659341 74.559825 
L 600.340659 71.178011 
L 601.021978 75.734509 
L 601.703297 67.635461 
L 602.384615 74.842913 
L 603.065934 78.230917 
L 603.747253 77.978886 
L 604.428571 82.979733 
L 605.10989 76.549637 
L 605.791209 80.923001 
L 606.472527 79.562368 
L 607.153846 74.750531 
L 607.835165 75.556081 
L 608.516484 76.635074 
L 609.197802 76.930769 
L 609.879121 86.724197 
L 611.241758 73.668921 
L 611.241758 73.668921 
" clip-path="url(#p792da6ba5f)" style="fill: none; stroke: #2626ff; stroke-opacity: 0.8; stroke-width: 2; stroke-linecap: square"/>
   </g>
   <g id="line2d_13">
    <path d="M 625.549451 61.70913 
L 627.252747 74.556155 
L 628.956044 70.568631 
L 630.659341 61.670272 
L 632.362637 56.742138 
L 634.065934 70.880966 
L 635.769231 66.072503 
L 637.472527 72.487046 
L 639.175824 70.861002 
L 640.879121 67.339075 
L 642.582418 62.334113 
L 644.285714 68.632836 
L 645.989011 70.460037 
L 647.692308 68.005467 
L 649.395604 72.250782 
L 651.098901 65.064134 
L 652.802198 69.370033 
L 654.505495 68.469962 
L 656.208791 61.862557 
L 657.912088 70.858615 
L 659.615385 66.800319 
L 661.318681 70.899153 
L 663.021978 65.472521 
L 664.725275 76.096664 
L 666.428571 73.338087 
L 668.131868 63.50088 
L 669.835165 56.039833 
L 671.538462 73.553267 
L 673.241758 73.045223 
L 674.945055 70.438954 
L 676.648352 74.82917 
L 678.351648 69.13219 
L 680.054945 71.290061 
L 681.758242 55.531427 
L 683.461538 61.546289 
L 685.164835 62.943871 
L 686.868132 61.179065 
L 688.571429 61.136206 
L 690.274725 68.755288 
L 691.978022 65.965045 
L 693.681319 69.102334 
L 695.384615 72.99616 
L 697.087912 72.831804 
L 698.791209 75.375267 
L 700.494505 77.504796 
L 702.197802 72.450195 
L 703.901099 73.084262 
L 705.604396 72.419022 
L 707.307692 73.053682 
L 709.010989 71.432132 
L 710.714286 65.01201 
L 712.417582 68.87644 
L 714.120879 75.242545 
L 715.824176 76.573305 
L 717.527473 82.431333 
L 719.230769 76.980754 
L 720.934066 76.878596 
L 722.637363 74.919578 
L 724.340659 66.98533 
L 726.043956 64.934918 
L 727.747253 63.473838 
L 729.450549 66.579593 
L 731.153846 68.577157 
L 732.857143 70.338359 
L 734.56044 69.908411 
L 736.263736 69.218598 
L 737.967033 74.609201 
L 739.67033 69.385159 
L 741.373626 74.568466 
L 743.076923 74.531467 
L 744.78022 68.195317 
L 746.483516 62.831788 
L 748.186813 62.747964 
L 749.89011 68.222721 
L 751.593407 73.156614 
L 753.296703 71.732419 
L 755 69.192132 
L 756.703297 59.918731 
L 758.406593 68.299368 
L 760.10989 65.068874 
L 761.813187 72.620443 
L 763.516484 77.758489 
L 765.21978 78.399617 
L 766.923077 78.918178 
L 768.626374 78.371753 
L 770.32967 82.230916 
L 772.032967 78.55627 
L 773.736264 70.128018 
L 775.43956 66.371046 
L 777.142857 69.702069 
L 778.846154 70.807692 
L 780.549451 66.221618 
L 782.252747 72.210936 
L 783.956044 71.960831 
L 785.659341 73.787143 
L 787.362637 66.471098 
L 789.065934 74.666066 
L 790.769231 81.025801 
L 792.472527 76.840148 
L 794.175824 77.728798 
L 795.879121 69.612946 
L 797.582418 76.967258 
L 799.285714 77.617801 
L 800.989011 76.380887 
L 802.692308 75.871082 
L 804.395604 74.475524 
L 806.098901 65.040927 
L 807.802198 64.947574 
L 809.505495 77.487086 
L 811.208791 72.485482 
L 814.615385 65.911341 
L 816.318681 64.051864 
L 818.021978 74.73664 
L 819.725275 62.382666 
L 821.428571 72.06322 
L 823.131868 62.706472 
L 824.835165 73.048975 
L 826.538462 65.401799 
L 828.241758 77.447421 
L 829.945055 75.114875 
L 831.648352 84.256641 
L 833.351648 86.193473 
L 835.054945 83.941887 
L 836.758242 81.986918 
L 838.461538 83.651952 
L 840.164835 83.833754 
L 841.868132 83.447158 
L 843.571429 77.406472 
L 845.274725 79.295163 
L 846.978022 84.868638 
L 848.681319 81.307095 
L 850.384615 81.077465 
L 852.087912 83.747297 
L 853.791209 83.441644 
L 855.494505 80.881739 
L 857.197802 87.472076 
L 858.901099 90.01883 
L 860.604396 93.516974 
L 862.307692 93.922646 
L 864.010989 92.488049 
L 865.714286 97.949259 
L 869.120879 94.709812 
L 870.824176 99.896937 
L 872.527473 87.504335 
L 874.230769 96.267157 
L 875.934066 93.302552 
L 877.637363 98.333387 
L 879.340659 106.16253 
L 881.043956 112.002206 
L 882.747253 104.17861 
L 884.450549 103.8221 
L 886.153846 94.639451 
L 887.857143 97.763294 
L 889.56044 103.237342 
L 892.967033 102.820594 
L 894.67033 104.125136 
L 896.373626 96.068091 
L 898.076923 94.23294 
L 899.78022 93.235862 
L 901.483516 99.355762 
L 903.186813 101.89827 
L 904.89011 100.544764 
L 904.89011 100.544764 
" clip-path="url(#p792da6ba5f)" style="fill: none; stroke: #2626ff; stroke-opacity: 0.8; stroke-width: 2; stroke-linecap: square"/>
   </g>
   <g id="line2d_14">
    <path d="M 625.549451 192.24 
L 625.549451 25.92 
" clip-path="url(#p792da6ba5f)" style="fill: none; stroke-dasharray: 3.7,1.6; stroke-dashoffset: 0; stroke: #808080; stroke-opacity: 0.5"/>
   </g>
   <g id="line2d_15">
    <path d="M 710.714286 192.24 
L 710.714286 25.92 
" clip-path="url(#p792da6ba5f)" style="fill: none; stroke-dasharray: 3.7,1.6; stroke-dashoffset: 0; stroke: #808080; stroke-opacity: 0.5"/>
   </g>
   <g id="line2d_16">
    <path d="M 611.923077 192.24 
L 611.923077 25.92 
" clip-path="url(#p792da6ba5f)" style="fill: none; stroke-dasharray: 3.7,1.6; stroke-dashoffset: 0; stroke: #808080; stroke-opacity: 0.8"/>
   </g>
   <g id="line2d_17">
    <path d="M 135 82.767888 
L 611.786786 82.767888 
L 611.786786 82.767888 
" clip-path="url(#p792da6ba5f)" style="fill: none; stroke-dasharray: 7.4,3.2; stroke-dashoffset: 0; stroke: #2626ff; stroke-opacity: 0.8; stroke-width: 2"/>
   </g>
   <g id="line2d_18">
    <path d="M 625.659846 82.767888 
L 932.142857 82.767888 
L 932.142857 82.767888 
" clip-path="url(#p792da6ba5f)" style="fill: none; stroke-dasharray: 7.4,3.2; stroke-dashoffset: 0; stroke: #2626ff; stroke-opacity: 0.8; stroke-width: 2"/>
   </g>
   <g id="line2d_19">
    <path d="M 864.010989 101.926306 
L 865.714286 101.724962 
L 867.417582 104.299294 
L 869.120879 102.803592 
L 870.824176 95.583956 
L 872.527473 98.374015 
L 874.230769 99.222538 
L 875.934066 102.012596 
L 877.637363 99.308828 
L 879.340659 99.049957 
L 881.043956 96.18799 
L 882.747253 100.862057 
L 884.450549 104.644456 
L 886.153846 94.951159 
L 887.857143 95.28194 
L 889.56044 100.373077 
L 891.263736 101.840016 
L 892.967033 97.022131 
L 894.67033 91.255051 
L 896.373626 93.426694 
L 898.076923 93.987582 
L 899.78022 101.422945 
L 901.483516 92.535026 
L 903.186813 84.74012 
L 904.89011 81.791862 
L 906.593407 89.399806 
L 908.296703 107.261934 
L 910 111.921619 
L 911.703297 108.772017 
L 913.406593 107.693386 
L 915.10989 99.409501 
L 916.813187 102.199559 
L 918.516484 113.589902 
L 920.21978 123.657123 
L 921.923077 115.373238 
" clip-path="url(#p792da6ba5f)" style="fill: none; stroke: #fea443; stroke-opacity: 0.8; stroke-width: 2; stroke-linecap: square"/>
   </g>
   <g id="line2d_20">
    <path d="M 625.549451 74.5053 
L 627.252747 67.651719 
L 628.956044 77.833924 
L 630.659341 74.403799 
L 632.362637 69.812822 
L 634.065934 63.707388 
L 635.769231 62.408434 
L 637.472527 65.191147 
L 639.175824 64.766152 
L 640.879121 72.779524 
L 642.582418 59.552697 
L 644.285714 70.498607 
L 645.989011 69.987489 
L 647.692308 70.654263 
L 649.395604 76.279425 
L 651.098901 70.380715 
L 652.802198 65.796555 
L 654.505495 77.97266 
L 656.208791 72.641956 
L 657.912088 67.910275 
L 659.615385 75.834697 
L 661.318681 66.424857 
L 663.021978 66.116949 
L 664.725275 68.355781 
L 666.428571 73.067577 
L 668.131868 72.0996 
L 669.835165 72.273676 
L 671.538462 77.263355 
L 673.241758 74.462286 
L 674.945055 68.940056 
L 676.648352 66.631522 
L 678.351648 70.087847 
L 680.054945 63.904139 
L 681.758242 65.284864 
L 685.164835 83.396618 
L 686.868132 93.495951 
L 688.571429 100.168923 
L 690.274725 100.049368 
L 691.978022 100.319214 
L 693.681319 95.476758 
L 695.384615 101.639808 
L 697.087912 94.019541 
L 698.791209 99.553434 
L 700.494505 98.264389 
L 702.197802 84.443507 
L 703.901099 82.309037 
L 705.604396 88.161666 
L 707.307692 79.95078 
L 709.010989 86.251706 
L 710.714286 91.995396 
L 712.417582 96.577708 
L 714.120879 100.478511 
L 715.824176 109.127457 
L 717.527473 109.980144 
L 719.230769 118.427782 
L 720.934066 117.875824 
L 722.637363 109.786732 
L 724.340659 100.987447 
L 726.043956 91.116428 
L 727.747253 87.15409 
L 729.450549 89.231327 
L 731.153846 76.447255 
L 732.857143 77.679195 
L 734.56044 95.687531 
L 736.263736 92.18121 
L 737.967033 81.932163 
L 739.67033 80.740099 
L 741.373626 84.988653 
L 743.076923 80.973021 
L 744.78022 84.052754 
L 746.483516 89.121892 
L 748.186813 82.272644 
L 749.89011 95.905117 
L 751.593407 91.937163 
L 753.296703 96.408838 
L 755 88.785209 
L 756.703297 89.433377 
L 758.406593 93.332462 
L 760.10989 90.489591 
L 761.813187 85.016723 
L 763.516484 77.977314 
L 765.21978 86.281963 
L 766.923077 80.692101 
L 768.626374 76.166154 
L 770.32967 78.16092 
L 772.032967 64.981341 
L 773.736264 70.939325 
L 775.43956 68.546964 
L 777.142857 65.531267 
L 778.846154 73.832403 
L 780.549451 67.861658 
L 782.252747 73.539371 
L 783.956044 63.921167 
L 785.659341 64.718094 
L 787.362637 63.525968 
L 789.065934 67.04131 
L 790.769231 70.989637 
L 792.472527 62.581448 
L 794.175824 57.772276 
L 795.879121 57.300891 
L 797.582418 65.161774 
L 799.285714 64.678677 
L 800.989011 65.025729 
L 802.692308 63.240649 
L 804.395604 65.122845 
L 806.098901 72.57125 
L 807.802198 72.773171 
L 809.505495 82.319037 
L 811.208791 82.618439 
L 812.912088 75.512787 
L 814.615385 70.717287 
L 816.318681 72.651653 
L 818.021978 88.915125 
L 819.725275 77.468954 
L 821.428571 84.330904 
L 823.131868 85.604399 
L 824.835165 93.177734 
L 826.538462 93.000864 
L 828.241758 85.537223 
L 829.945055 89.644286 
L 831.648352 77.343097 
L 833.351648 91.578703 
L 835.054945 104.398754 
L 836.758242 93.852652 
L 838.461538 87.596937 
L 840.164835 83.692359 
L 841.868132 82.305395 
L 843.571429 71.967172 
L 845.274725 75.210155 
L 846.978022 84.436656 
L 848.681319 84.351652 
L 850.384615 95.658209 
L 852.087912 95.899659 
L 853.791209 93.752688 
L 855.494505 92.785015 
L 857.197802 95.180008 
L 858.901099 98.907481 
L 860.604396 95.640477 
L 862.307692 98.343167 
L 864.010989 106.288879 
L 865.714286 106.374535 
L 867.417582 102.154437 
L 869.120879 95.281518 
L 870.824176 90.482111 
L 872.527473 86.757888 
L 874.230769 91.394652 
L 875.934066 94.195168 
L 877.637363 85.537663 
L 879.340659 83.884046 
L 881.043956 90.952602 
L 882.747253 87.295664 
L 884.450549 93.137868 
L 886.153846 100.926989 
L 887.857143 95.579255 
L 889.56044 98.15583 
L 891.263736 98.816505 
L 892.967033 96.599377 
L 894.67033 92.478163 
L 896.373626 96.46074 
L 898.076923 91.615189 
L 899.78022 93.202999 
L 901.483516 92.589625 
L 903.186813 86.594823 
L 904.89011 96.936064 
L 904.89011 96.936064 
" clip-path="url(#p792da6ba5f)" style="fill: none; stroke: #d3d3d3; stroke-opacity: 0.6; stroke-linecap: square"/>
   </g>
   <g id="line2d_21">
    <path d="M 625.549451 49.894669 
L 627.252747 45.791457 
L 628.956044 43.373329 
L 630.659341 61.495089 
L 632.362637 67.029099 
L 634.065934 59.837563 
L 635.769231 60.800393 
L 637.472527 59.65888 
L 639.175824 52.864333 
L 640.879121 61.404519 
L 642.582418 65.264295 
L 644.285714 71.454483 
L 645.989011 54.879302 
L 647.692308 59.561895 
L 649.395604 55.845834 
L 651.098901 59.995722 
L 652.802198 70.64791 
L 654.505495 73.90631 
L 656.208791 62.940911 
L 657.912088 56.226866 
L 659.615385 56.31258 
L 661.318681 66.256577 
L 663.021978 71.469576 
L 664.725275 63.444321 
L 666.428571 78.597566 
L 668.131868 63.743656 
L 669.835165 46.418353 
L 671.538462 56.114586 
L 673.241758 73.066387 
L 674.945055 67.524894 
L 676.648352 69.357179 
L 678.351648 59.300972 
L 680.054945 54.02341 
L 681.758242 38.318847 
L 683.461538 48.207713 
L 685.164835 61.223268 
L 686.868132 51.499067 
L 688.571429 53.267067 
L 690.274725 54.049042 
L 691.978022 54.053204 
L 693.681319 65.087954 
L 697.087912 55.56762 
L 698.791209 44.664063 
L 700.494505 52.85709 
L 702.197802 58.19567 
L 703.901099 42.775735 
L 705.604396 47.929792 
L 707.307692 59.05613 
L 709.010989 59.476635 
L 710.714286 64.825496 
L 712.417582 66.546906 
L 714.120879 59.348271 
L 715.824176 50.477201 
L 717.527473 63.170392 
L 719.230769 61.646446 
L 720.934066 64.051155 
L 722.637363 60.711387 
L 724.340659 66.912491 
L 726.043956 59.608704 
L 727.747253 57.635156 
L 729.450549 64.488486 
L 731.153846 77.903777 
L 732.857143 71.283172 
L 734.56044 68.617415 
L 736.263736 72.104636 
L 737.967033 70.141011 
L 739.67033 61.675753 
L 741.373626 52.195452 
L 743.076923 62.816916 
L 744.78022 56.316198 
L 746.483516 62.214729 
L 748.186813 53.49846 
L 749.89011 49.881692 
L 751.593407 65.964725 
L 753.296703 57.072926 
L 755 60.571614 
L 756.703297 51.242705 
L 758.406593 66.005541 
L 760.10989 70.627411 
L 761.813187 58.31146 
L 763.516484 54.495993 
L 765.21978 72.285925 
L 766.923077 72.243402 
L 768.626374 77.991507 
L 770.32967 84.616957 
L 772.032967 78.328335 
L 773.736264 75.353946 
L 775.43956 72.901803 
L 777.142857 77.912023 
L 778.846154 79.589353 
L 780.549451 83.34706 
L 782.252747 82.112652 
L 783.956044 79.291824 
L 785.659341 84.404428 
L 787.362637 75.164634 
L 789.065934 69.789088 
L 790.769231 74.438696 
L 792.472527 69.208676 
L 794.175824 63.603752 
L 795.879121 62.394861 
L 797.582418 53.789306 
L 799.285714 71.278206 
L 800.989011 50.473123 
L 802.692308 58.781332 
L 804.395604 60.530786 
L 806.098901 68.503258 
L 807.802198 62.803298 
L 809.505495 73.391128 
L 811.208791 78.648331 
L 814.615385 62.216207 
L 816.318681 67.805346 
L 818.021978 74.259278 
L 819.725275 72.489179 
L 821.428571 68.608092 
L 823.131868 70.712171 
L 824.835165 68.122366 
L 826.538462 61.488481 
L 828.241758 64.059907 
L 829.945055 60.33383 
L 831.648352 49.833937 
L 833.351648 68.506827 
L 835.054945 71.635071 
L 836.758242 68.207262 
L 838.461538 65.88319 
L 840.164835 69.469143 
L 841.868132 64.520741 
L 843.571429 67.048869 
L 845.274725 63.836599 
L 846.978022 72.027824 
L 848.681319 82.520623 
L 850.384615 67.456448 
L 852.087912 46.90003 
L 853.791209 66.965017 
L 855.494505 70.173504 
L 857.197802 55.062608 
L 858.901099 82.900707 
L 860.604396 82.674814 
L 862.307692 92.449765 
L 864.010989 91.411504 
L 865.714286 73.95561 
L 867.417582 58.036149 
L 869.120879 59.383009 
L 870.824176 64.416193 
L 872.527473 81.248577 
L 874.230769 67.89045 
L 875.934066 71.888465 
L 877.637363 67.811953 
L 879.340659 73.284499 
L 881.043956 70.919901 
L 882.747253 63.983166 
L 884.450549 60.882854 
L 886.153846 69.708422 
L 887.857143 58.433373 
L 889.56044 69.638425 
L 891.263736 77.494589 
L 892.967033 68.853293 
L 894.67033 80.811187 
L 896.373626 85.493468 
L 898.076923 92.887227 
L 899.78022 81.199029 
L 901.483516 92.385677 
L 903.186813 87.58228 
L 904.89011 86.845545 
L 904.89011 86.845545 
" clip-path="url(#p792da6ba5f)" style="fill: none; stroke: #d3d3d3; stroke-opacity: 0.6; stroke-linecap: square"/>
   </g>
   <g id="line2d_22">
    <path d="M 625.549451 152.433648 
L 627.252747 152.186628 
L 628.956044 143.443887 
L 630.659341 146.081116 
L 632.362637 122.826189 
L 634.065934 121.992706 
L 635.769231 121.312603 
L 637.472527 113.565196 
L 639.175824 121.058437 
L 640.879121 120.203491 
L 642.582418 121.88494 
L 644.285714 150.59914 
L 645.989011 140.575539 
L 647.692308 139.900851 
L 649.395604 145.104329 
L 651.098901 144.919288 
L 652.802198 136.700521 
L 654.505495 143.797935 
L 656.208791 161.483144 
L 657.912088 144.26353 
L 659.615385 133.643544 
L 661.318681 125.976616 
L 663.021978 129.038883 
L 664.725275 142.685676 
L 666.428571 151.645582 
L 668.131868 161.779161 
L 669.835165 153.988471 
L 671.538462 143.94096 
L 673.241758 134.566438 
L 674.945055 136.819185 
L 676.648352 127.71981 
L 678.351648 132.831758 
L 680.054945 116.811428 
L 681.758242 120.117608 
L 683.461538 129.080585 
L 685.164835 128.307832 
L 686.868132 130.061185 
L 688.571429 138.903854 
L 690.274725 152.902122 
L 691.978022 144.998585 
L 693.681319 127.387346 
L 695.384615 126.404662 
L 697.087912 120.682471 
L 698.791209 111.843283 
L 700.494505 120.222026 
L 702.197802 117.075601 
L 705.604396 124.446262 
L 707.307692 120.51034 
L 709.010989 115.357046 
L 710.714286 132.806851 
L 712.417582 144.173721 
L 714.120879 140.232913 
L 715.824176 126.536699 
L 717.527473 134.212158 
L 719.230769 136.619664 
L 720.934066 120.693061 
L 722.637363 113.253987 
L 724.340659 125.303662 
L 726.043956 120.779184 
L 727.747253 121.429391 
L 729.450549 125.914236 
L 731.153846 120.811822 
L 732.857143 136.363154 
L 734.56044 138.928105 
L 736.263736 156.920334 
L 737.967033 153.560138 
L 739.67033 146.43376 
L 741.373626 134.134046 
L 743.076923 141.92278 
L 744.78022 140.004461 
L 746.483516 134.573748 
L 748.186813 141.102313 
L 749.89011 124.915598 
L 751.593407 116.51447 
L 753.296703 124.21257 
L 755 127.165089 
L 756.703297 120.184676 
L 758.406593 137.074098 
L 760.10989 121.871128 
L 761.813187 122.845555 
L 763.516484 134.977799 
L 765.21978 131.992144 
L 766.923077 140.383786 
L 768.626374 168.659774 
L 770.32967 165.236254 
L 772.032967 163.399694 
L 773.736264 157.65313 
L 777.142857 140.988452 
L 778.846154 139.014713 
L 780.549451 141.775767 
L 782.252747 147.380302 
L 783.956044 148.433365 
L 785.659341 147.384909 
L 787.362637 140.88394 
L 789.065934 154.070417 
L 790.769231 171.794812 
L 792.472527 163.106568 
L 794.175824 146.590992 
L 795.879121 135.429087 
L 797.582418 132.698641 
L 800.989011 113.289781 
L 802.692308 129.863624 
L 804.395604 132.700636 
L 806.098901 126.032627 
L 807.802198 125.899113 
L 809.505495 132.240588 
L 811.208791 131.831676 
L 812.912088 142.168882 
L 814.615385 125.312578 
L 816.318681 137.372975 
L 818.021978 131.096267 
L 819.725275 126.580584 
L 821.428571 132.828787 
L 823.131868 122.337352 
L 824.835165 101.004393 
L 826.538462 115.948208 
L 828.241758 124.12431 
L 829.945055 125.431978 
L 831.648352 145.10306 
L 833.351648 143.278623 
L 835.054945 128.1201 
L 836.758242 126.01469 
L 838.461538 136.541443 
L 840.164835 151.879931 
L 841.868132 142.770662 
L 843.571429 145.018602 
L 845.274725 134.402094 
L 846.978022 144.539422 
L 848.681319 156.884917 
L 850.384615 156.499138 
L 852.087912 158.088653 
L 853.791209 167.279727 
L 855.494505 161.000871 
L 857.197802 148.582392 
L 858.901099 148.151024 
L 860.604396 146.851398 
L 862.307692 149.661114 
L 864.010989 162.427068 
L 865.714286 155.702062 
L 869.120879 126.455777 
L 870.824176 130.322333 
L 872.527473 145.606209 
L 874.230769 157.514229 
L 877.637363 140.786287 
L 879.340659 147.758035 
L 881.043956 139.890184 
L 882.747253 133.571513 
L 884.450549 135.770097 
L 886.153846 148.778357 
L 887.857143 130.504487 
L 889.56044 117.63708 
L 891.263736 141.796872 
L 892.967033 162.997603 
L 894.67033 177.79216 
L 896.373626 175.639814 
L 898.076923 184.68 
L 899.78022 167.496373 
L 901.483516 152.052903 
L 903.186813 154.886936 
L 904.89011 156.274948 
L 904.89011 156.274948 
" clip-path="url(#p792da6ba5f)" style="fill: none; stroke: #d3d3d3; stroke-opacity: 0.6; stroke-linecap: square"/>
   </g>
   <g id="line2d_23">
    <path d="M 625.549451 50.506613 
L 627.252747 51.75387 
L 628.956044 44.917922 
L 630.659341 55.895166 
L 632.362637 59.00218 
L 634.065934 69.021606 
L 635.769231 55.927796 
L 639.175824 60.154992 
L 640.879121 57.706673 
L 642.582418 69.032831 
L 644.285714 50.270752 
L 645.989011 55.412387 
L 647.692308 50.811838 
L 649.395604 44.565431 
L 651.098901 40.961836 
L 652.802198 35.126159 
L 654.505495 38.560036 
L 656.208791 44.113549 
L 657.912088 39.144239 
L 659.615385 42.935079 
L 661.318681 42.430551 
L 663.021978 42.074959 
L 664.725275 56.979474 
L 666.428571 52.043398 
L 668.131868 50.643322 
L 671.538462 45.502268 
L 673.241758 52.74203 
L 674.945055 53.334792 
L 676.648352 58.607007 
L 678.351648 62.747098 
L 680.054945 59.040665 
L 681.758242 62.29801 
L 683.461538 57.571513 
L 685.164835 51.587087 
L 686.868132 55.44348 
L 690.274725 46.320632 
L 691.978022 63.706998 
L 693.681319 57.755652 
L 695.384615 51.258793 
L 697.087912 66.340287 
L 698.791209 52.378735 
L 700.494505 57.518892 
L 702.197802 65.818886 
L 703.901099 48.739046 
L 705.604396 44.023434 
L 707.307692 50.205532 
L 709.010989 48.311261 
L 710.714286 36.791621 
L 712.417582 43.627055 
L 714.120879 44.00272 
L 715.824176 54.268925 
L 717.527473 48.437505 
L 719.230769 42.047337 
L 720.934066 42.804568 
L 722.637363 42.330907 
L 724.340659 43.15561 
L 726.043956 44.216494 
L 727.747253 47.516405 
L 729.450549 51.92709 
L 731.153846 49.328679 
L 732.857143 55.962745 
L 734.56044 61.583501 
L 736.263736 67.843361 
L 737.967033 58.048261 
L 739.67033 53.33036 
L 741.373626 49.272547 
L 743.076923 49.30035 
L 744.78022 49.205436 
L 746.483516 37.684368 
L 748.186813 48.982297 
L 749.89011 46.975639 
L 751.593407 53.35882 
L 753.296703 59.074448 
L 755 63.332698 
L 756.703297 50.99069 
L 758.406593 59.482665 
L 760.10989 51.432642 
L 761.813187 52.656412 
L 763.516484 55.008731 
L 765.21978 50.32456 
L 766.923077 41.236892 
L 768.626374 42.431578 
L 770.32967 33.48 
L 772.032967 46.072543 
L 773.736264 39.037329 
L 775.43956 45.02401 
L 777.142857 50.352223 
L 778.846154 54.272177 
L 780.549451 57.794739 
L 782.252747 53.171397 
L 783.956044 47.709259 
L 785.659341 58.315488 
L 787.362637 47.431999 
L 789.065934 52.129449 
L 790.769231 49.760325 
L 792.472527 41.102507 
L 794.175824 53.640428 
L 795.879121 50.520947 
L 797.582418 55.619689 
L 799.285714 52.587532 
L 800.989011 48.994815 
L 802.692308 71.592231 
L 804.395604 56.150571 
L 806.098901 73.873675 
L 807.802198 60.517105 
L 809.505495 71.538372 
L 811.208791 75.25914 
L 812.912088 75.109027 
L 814.615385 70.477992 
L 816.318681 62.878412 
L 818.021978 55.891098 
L 819.725275 45.826986 
L 821.428571 46.656372 
L 823.131868 51.707763 
L 824.835165 54.37533 
L 826.538462 53.950385 
L 828.241758 46.589305 
L 829.945055 65.246886 
L 831.648352 60.14656 
L 833.351648 63.360518 
L 835.054945 66.876923 
L 836.758242 64.777031 
L 838.461538 72.920112 
L 841.868132 61.60999 
L 843.571429 60.203936 
L 845.274725 62.177723 
L 846.978022 60.495333 
L 848.681319 71.082514 
L 850.384615 77.188021 
L 852.087912 79.251864 
L 853.791209 76.761519 
L 855.494505 58.672757 
L 857.197802 63.724252 
L 858.901099 67.236319 
L 860.604396 72.415894 
L 862.307692 83.278962 
L 864.010989 86.156365 
L 865.714286 76.466367 
L 867.417582 77.480171 
L 869.120879 83.052606 
L 870.824176 86.131315 
L 872.527473 90.713089 
L 874.230769 97.402231 
L 875.934066 108.441239 
L 877.637363 108.329772 
L 879.340659 113.524059 
L 881.043956 102.473566 
L 882.747253 96.445519 
L 884.450549 104.278521 
L 886.153846 92.731729 
L 887.857143 87.431412 
L 889.56044 87.33769 
L 891.263736 79.229013 
L 892.967033 97.431698 
L 894.67033 92.467171 
L 896.373626 100.087895 
L 898.076923 97.581501 
L 899.78022 99.34173 
L 901.483516 86.334414 
L 903.186813 92.349325 
L 904.89011 94.528186 
L 904.89011 94.528186 
" clip-path="url(#p792da6ba5f)" style="fill: none; stroke: #d3d3d3; stroke-opacity: 0.6; stroke-linecap: square"/>
   </g>
   <g id="patch_3">
    <path d="M 135 192.24 
L 135 25.92 
" style="fill: none; stroke: #000000; stroke-width: 0.8; stroke-linejoin: miter; stroke-linecap: square"/>
   </g>
   <g id="patch_4">
    <path d="M 972 192.24 
L 972 25.92 
" style="fill: none"/>
   </g>
   <g id="patch_5">
    <path d="M 135 192.24 
L 972 192.24 
" style="fill: none; stroke: #000000; stroke-width: 0.8; stroke-linejoin: miter; stroke-linecap: square"/>
   </g>
   <g id="patch_6">
    <path d="M 135 25.92 
L 972 25.92 
" style="fill: none"/>
   </g>
   <g id="legend_1">
    <g id="patch_7">
     <path d="M 142 187.24 
L 458.735938 187.24 
Q 460.735938 187.24 460.735938 185.24 
L 460.735938 98.17125 
Q 460.735938 96.17125 458.735938 96.17125 
L 142 96.17125 
Q 140 96.17125 140 98.17125 
L 140 185.24 
Q 140 187.24 142 187.24 
z
" style="fill: #ffffff; opacity: 0.8; stroke: #cccccc; stroke-linejoin: miter"/>
    </g>
    <g id="line2d_24">
     <path d="M 144 104.269688 
L 154 104.269688 
L 164 104.269688 
" style="fill: none; stroke-dasharray: 7.4,3.2; stroke-dashoffset: 0; stroke: #ff0000; stroke-opacity: 0.8; stroke-width: 2"/>
    </g>
    <g id="text_11">
     <text style="font: 10px 'DejaVu Sans', 'Bitstream Vera Sans', 'Computer Modern Sans Serif', 'Lucida Grande', 'Verdana', 'Geneva', 'Lucid', 'Arial', 'Helvetica', 'Avant Garde', sans-serif; text-anchor: start" x="172" y="107.769688" transform="rotate(-0 172 107.769688)">Pre-industrial baseline based on ISIMIP multimodel mean</text>
    </g>
    <g id="line2d_25">
     <path d="M 144 118.947812 
L 154 118.947812 
L 164 118.947812 
" style="fill: none; stroke: #0b0b0b; stroke-opacity: 0.8; stroke-width: 2; stroke-linecap: square"/>
    </g>
    <g id="text_12">
     <text style="font: 10px 'DejaVu Sans', 'Bitstream Vera Sans', 'Computer Modern Sans Serif', 'Lucida Grande', 'Verdana', 'Geneva', 'Lucid', 'Arial', 'Helvetica', 'Avant Garde', sans-serif; text-anchor: start" x="172" y="122.447812" transform="rotate(-0 172 122.447812)">ISIMIP multimodel mean, 1850-2014</text>
    </g>
    <g id="line2d_26">
     <path d="M 144 133.625938 
L 154 133.625938 
L 164 133.625938 
" style="fill: none; stroke: #2626ff; stroke-opacity: 0.8; stroke-width: 2; stroke-linecap: square"/>
    </g>
    <g id="text_13">
     <text style="font: 10px 'DejaVu Sans', 'Bitstream Vera Sans', 'Computer Modern Sans Serif', 'Lucida Grande', 'Verdana', 'Geneva', 'Lucid', 'Arial', 'Helvetica', 'Avant Garde', sans-serif; text-anchor: start" x="172" y="137.125938" transform="rotate(-0 172 137.125938)">CESM2 mid-Holocene and historical series</text>
    </g>
    <g id="line2d_27">
     <path d="M 144 148.304063 
L 154 148.304063 
L 164 148.304063 
" style="fill: none; stroke-dasharray: 7.4,3.2; stroke-dashoffset: 0; stroke: #2626ff; stroke-opacity: 0.8; stroke-width: 2"/>
    </g>
    <g id="text_14">
     <text style="font: 10px 'DejaVu Sans', 'Bitstream Vera Sans', 'Computer Modern Sans Serif', 'Lucida Grande', 'Verdana', 'Geneva', 'Lucid', 'Arial', 'Helvetica', 'Avant Garde', sans-serif; text-anchor: start" x="172" y="151.804063" transform="rotate(-0 172 151.804063)">Mid-Holocene baseline based on CESM2</text>
    </g>
    <g id="line2d_28">
     <path d="M 144 162.982188 
L 154 162.982188 
L 164 162.982188 
" style="fill: none; stroke: #fea443; stroke-opacity: 0.8; stroke-width: 2; stroke-linecap: square"/>
    </g>
    <g id="text_15">
     <text style="font: 10px 'DejaVu Sans', 'Bitstream Vera Sans', 'Computer Modern Sans Serif', 'Lucida Grande', 'Verdana', 'Geneva', 'Lucid', 'Arial', 'Helvetica', 'Avant Garde', sans-serif; text-anchor: start" x="172" y="166.482188" transform="rotate(-0 172 166.482188)">NSIDC satellite observation data</text>
    </g>
    <g id="line2d_29">
     <path d="M 144 177.660313 
L 154 177.660313 
L 164 177.660313 
" style="fill: none; stroke: #d3d3d3; stroke-opacity: 0.6; stroke-linecap: square"/>
    </g>
    <g id="text_16">
     <text style="font: 10px 'DejaVu Sans', 'Bitstream Vera Sans', 'Computer Modern Sans Serif', 'Lucida Grande', 'Verdana', 'Geneva', 'Lucid', 'Arial', 'Helvetica', 'Avant Garde', sans-serif; text-anchor: start" x="172" y="181.160313" transform="rotate(-0 172 181.160313)">ISIMIP individual simulations, 1850-2014</text>
    </g>
   </g>
  </g>
 </g>
 <defs>
  <clipPath id="p792da6ba5f">
   <rect x="135" y="25.92" width="837" height="166.32"/>
  </clipPath>
 </defs>
</svg>
