<?xml version="1.0" encoding="utf-8" standalone="no"?>
<!DOCTYPE svg PUBLIC "-//W3C//DTD SVG 1.1//EN"
  "http://www.w3.org/Graphics/SVG/1.1/DTD/svg11.dtd">
<svg xmlns:xlink="http://www.w3.org/1999/xlink" width="1080pt" height="216pt" viewBox="0 0 1080 216" xmlns="http://www.w3.org/2000/svg" version="1.1">
 <metadata>
  <rdf:RDF xmlns:dc="http://purl.org/dc/elements/1.1/" xmlns:cc="http://creativecommons.org/ns#" xmlns:rdf="http://www.w3.org/1999/02/22-rdf-syntax-ns#">
   <cc:Work>
    <dc:type rdf:resource="http://purl.org/dc/dcmitype/StillImage"/>
    <dc:date>2026-01-03T23:05:56.311780</dc:date>
    <dc:format>image/svg+xml</dc:format>
    <dc:creator>
     <cc:Agent>
      <dc:title>Matplotlib v3.8.4, https://matplotlib.org/</dc:title>
     </cc:Agent>
    </dc:creator>
   </cc:Work>
  </rdf:RDF>
 </metadata>
 <defs>
  <style type="text/css">*{stroke-linejoin: round; stroke-linecap: butt}</style>
 </defs>
 <g id="figure_1">
  <g id="patch_1">
   <path d="M 0 216 
L 1080 216 
L 1080 0 
L 0 0 
z
" style="fill: #ffffff"/>
  </g>
  <g id="axes_1">
   <g id="patch_2">
    <path d="M 135 192.24 
L 972 192.24 
L 972 25.92 
L 135 25.92 
z
" style="fill: #ffffff"/>
   </g>
   <g id="matplotlib.axis_1">
    <g id="xtick_1">
     <g id="line2d_1">
      <defs>
       <path id="ma88a27a473" d="M 0 0 
L 0 3.5 
" style="stroke: #000000; stroke-width: 0.8"/>
      </defs>
      <g>
       <use xlink:href="#ma88a27a473" x="625.549451" y="192.24" style="stroke: #000000; stroke-width: 0.8"/>
      </g>
     </g>
     <g id="text_1">
      <text style="font: 10px 'DejaVu Sans', 'Bitstream Vera Sans', 'Computer Modern Sans Serif', 'Lucida Grande', 'Verdana', 'Geneva', 'Lucid', 'Arial', 'Helvetica', 'Avant Garde', sans-serif; text-anchor: middle" x="625.549451" y="206.838437" transform="rotate(-0 625.549451 206.838437)">1850</text>
     </g>
    </g>
    <g id="xtick_2">
     <g id="line2d_2">
      <g>
       <use xlink:href="#ma88a27a473" x="710.714286" y="192.24" style="stroke: #000000; stroke-width: 0.8"/>
      </g>
     </g>
     <g id="text_2">
      <text style="font: 10px 'DejaVu Sans', 'Bitstream Vera Sans', 'Computer Modern Sans Serif', 'Lucida Grande', 'Verdana', 'Geneva', 'Lucid', 'Arial', 'Helvetica', 'Avant Garde', sans-serif; text-anchor: middle" x="710.714286" y="206.838437" transform="rotate(-0 710.714286 206.838437)">1900</text>
     </g>
    </g>
    <g id="xtick_3">
     <g id="line2d_3">
      <g>
       <use xlink:href="#ma88a27a473" x="795.879121" y="192.24" style="stroke: #000000; stroke-width: 0.8"/>
      </g>
     </g>
     <g id="text_3">
      <text style="font: 10px 'DejaVu Sans', 'Bitstream Vera Sans', 'Computer Modern Sans Serif', 'Lucida Grande', 'Verdana', 'Geneva', 'Lucid', 'Arial', 'Helvetica', 'Avant Garde', sans-serif; text-anchor: middle" x="795.879121" y="206.838437" transform="rotate(-0 795.879121 206.838437)">1950</text>
     </g>
    </g>
    <g id="xtick_4">
     <g id="line2d_4">
      <g>
       <use xlink:href="#ma88a27a473" x="855.494505" y="192.24" style="stroke: #000000; stroke-width: 0.8"/>
      </g>
     </g>
     <g id="text_4">
      <text style="font: 10px 'DejaVu Sans', 'Bitstream Vera Sans', 'Computer Modern Sans Serif', 'Lucida Grande', 'Verdana', 'Geneva', 'Lucid', 'Arial', 'Helvetica', 'Avant Garde', sans-serif; text-anchor: middle" x="855.494505" y="206.838437" transform="rotate(-0 855.494505 206.838437)">1985</text>
     </g>
    </g>
    <g id="xtick_5">
     <g id="line2d_5">
      <g>
       <use xlink:href="#ma88a27a473" x="915.10989" y="192.24" style="stroke: #000000; stroke-width: 0.8"/>
      </g>
     </g>
     <g id="text_5">
      <text style="font: 10px 'DejaVu Sans', 'Bitstream Vera Sans', 'Computer Modern Sans Serif', 'Lucida Grande', 'Verdana', 'Geneva', 'Lucid', 'Arial', 'Helvetica', 'Avant Garde', sans-serif; text-anchor: middle" x="915.10989" y="206.838437" transform="rotate(-0 915.10989 206.838437)">2020</text>
     </g>
    </g>
   </g>
   <g id="matplotlib.axis_2">
    <g id="ytick_1">
     <g id="line2d_6">
      <defs>
       <path id="mb563322751" d="M 0 0 
L -3.5 0 
" style="stroke: #000000; stroke-width: 0.8"/>
      </defs>
      <g>
       <use xlink:href="#mb563322751" x="135" y="180.622505" style="stroke: #000000; stroke-width: 0.8"/>
      </g>
     </g>
     <g id="text_6">
      <text style="font: 10px 'DejaVu Sans', 'Bitstream Vera Sans', 'Computer Modern Sans Serif', 'Lucida Grande', 'Verdana', 'Geneva', 'Lucid', 'Arial', 'Helvetica', 'Avant Garde', sans-serif; text-anchor: end" x="128" y="184.421724" transform="rotate(-0 128 184.421724)">12</text>
     </g>
    </g>
    <g id="ytick_2">
     <g id="line2d_7">
      <g>
       <use xlink:href="#mb563322751" x="135" y="131.190486" style="stroke: #000000; stroke-width: 0.8"/>
      </g>
     </g>
     <g id="text_7">
      <text style="font: 10px 'DejaVu Sans', 'Bitstream Vera Sans', 'Computer Modern Sans Serif', 'Lucida Grande', 'Verdana', 'Geneva', 'Lucid', 'Arial', 'Helvetica', 'Avant Garde', sans-serif; text-anchor: end" x="128" y="134.989705" transform="rotate(-0 128 134.989705)">16</text>
     </g>
    </g>
    <g id="ytick_3">
     <g id="line2d_8">
      <g>
       <use xlink:href="#mb563322751" x="135" y="81.758466" style="stroke: #000000; stroke-width: 0.8"/>
      </g>
     </g>
     <g id="text_8">
      <text style="font: 10px 'DejaVu Sans', 'Bitstream Vera Sans', 'Computer Modern Sans Serif', 'Lucida Grande', 'Verdana', 'Geneva', 'Lucid', 'Arial', 'Helvetica', 'Avant Garde', sans-serif; text-anchor: end" x="128" y="85.557685" transform="rotate(-0 128 85.557685)">20</text>
     </g>
    </g>
    <g id="ytick_4">
     <g id="line2d_9">
      <g>
       <use xlink:href="#mb563322751" x="135" y="32.326447" style="stroke: #000000; stroke-width: 0.8"/>
      </g>
     </g>
     <g id="text_9">
      <text style="font: 10px 'DejaVu Sans', 'Bitstream Vera Sans', 'Computer Modern Sans Serif', 'Lucida Grande', 'Verdana', 'Geneva', 'Lucid', 'Arial', 'Helvetica', 'Avant Garde', sans-serif; text-anchor: end" x="128" y="36.125665" transform="rotate(-0 128 36.125665)">24</text>
     </g>
    </g>
    <g id="text_10">
     <!-- Area ($10^6\ km^2$) -->
     <g transform="translate(109.195312 146.98) rotate(-90)">
      <text>
       <tspan style="font: 10px 'DejaVu Sans'" x="0 6.84082 10.952148 17.104492 23.232422 26.411133 30.3125 36.674805 71.830293" y="-0.9765625">Area (10)</tspan>
       <tspan style="font: 7px 'DejaVu Sans'" x="43.132812 67.103242" y="-4.8046875">62</tspan>
       <tspan style="font: oblique 10px 'DejaVu Sans'" x="51.106901 56.897917" y="-0.9765625">km</tspan>
      </text>
     </g>
    </g>
   </g>
   <g id="line2d_10">
    <path d="M 625.549451 81.257898 
L 932.142857 81.257898 
L 932.142857 81.257898 
" clip-path="url(#p591dfadda4)" style="fill: none; stroke-dasharray: 7.4,3.2; stroke-dashoffset: 0; stroke: #ff0000; stroke-opacity: 0.8; stroke-width: 2"/>
   </g>
   <g id="line2d_11">
    <path d="M 625.549451 76.388042 
L 627.252747 75.020629 
L 628.956044 74.157235 
L 630.659341 81.36822 
L 632.362637 80.019055 
L 635.769231 73.469667 
L 637.472527 72.626505 
L 639.175824 73.424309 
L 640.879121 77.293154 
L 642.582418 76.923647 
L 644.285714 84.699935 
L 645.989011 81.12306 
L 647.692308 79.90443 
L 649.395604 80.001798 
L 652.802198 76.151285 
L 654.505495 79.885228 
L 656.208791 79.001344 
L 657.912088 75.635447 
L 659.615385 75.33738 
L 661.318681 74.245765 
L 663.021978 76.207507 
L 664.725275 80.179274 
L 666.428571 82.489148 
L 668.131868 80.980692 
L 669.835165 75.359239 
L 671.538462 74.768999 
L 673.241758 77.232679 
L 674.945055 78.754112 
L 676.648352 75.766634 
L 678.351648 76.365553 
L 680.054945 71.207566 
L 681.758242 71.332558 
L 683.461538 72.496581 
L 685.164835 73.021277 
L 686.868132 74.637817 
L 690.274725 79.395473 
L 693.681319 80.987231 
L 697.087912 78.132524 
L 698.791209 73.861709 
L 700.494505 77.768486 
L 702.197802 78.191317 
L 703.901099 72.441431 
L 705.604396 74.335219 
L 707.307692 73.210198 
L 709.010989 74.411345 
L 710.714286 77.664139 
L 712.417582 82.043982 
L 714.120879 81.530913 
L 715.824176 77.870855 
L 717.527473 81.275574 
L 719.230769 82.201173 
L 720.934066 80.311969 
L 722.637363 76.501965 
L 724.340659 77.638899 
L 726.043956 75.390576 
L 727.747253 76.976729 
L 729.450549 79.5116 
L 731.153846 76.127479 
L 732.857143 79.119929 
L 736.263736 87.934252 
L 741.373626 74.886477 
L 743.076923 78.202066 
L 744.78022 78.477042 
L 746.483516 79.279529 
L 749.89011 75.700621 
L 751.593407 79.492687 
L 753.296703 81.098209 
L 755 82.058115 
L 756.703297 75.705513 
L 758.406593 81.852321 
L 760.10989 79.135488 
L 761.813187 77.455306 
L 763.516484 79.081958 
L 765.21978 82.092739 
L 766.923077 81.345737 
L 768.626374 86.336357 
L 770.32967 86.292321 
L 772.032967 84.372378 
L 775.43956 82.202761 
L 777.142857 76.805068 
L 778.846154 79.307705 
L 780.549451 80.103462 
L 782.252747 81.452553 
L 783.956044 79.827882 
L 785.659341 84.330163 
L 787.362637 79.792976 
L 789.065934 80.414157 
L 790.769231 86.260636 
L 792.472527 80.852837 
L 794.175824 79.467159 
L 795.879121 75.922044 
L 797.582418 76.533882 
L 799.285714 76.237138 
L 800.989011 70.790222 
L 802.692308 80.087546 
L 804.395604 78.927795 
L 806.098901 83.212767 
L 807.802198 79.477172 
L 809.505495 87.141475 
L 811.208791 88.312331 
L 812.912088 85.831121 
L 814.615385 80.949085 
L 816.318681 84.784605 
L 818.021978 85.401991 
L 819.725275 78.128331 
L 821.428571 78.240386 
L 823.131868 77.926698 
L 824.835165 74.660051 
L 826.538462 76.528243 
L 828.241758 77.573632 
L 829.945055 79.329278 
L 831.648352 76.487994 
L 833.351648 83.564292 
L 835.054945 87.244931 
L 836.758242 82.370835 
L 838.461538 83.06746 
L 840.164835 84.611059 
L 841.868132 79.899509 
L 843.571429 75.76997 
L 845.274725 76.920218 
L 848.681319 90.109484 
L 850.384615 90.660617 
L 852.087912 87.942584 
L 853.791209 91.339271 
L 855.494505 87.679583 
L 857.197802 85.449707 
L 858.901099 93.349048 
L 860.604396 94.142556 
L 862.307692 98.570956 
L 864.010989 105.164589 
L 865.714286 100.445944 
L 867.417582 91.181214 
L 869.120879 86.545659 
L 870.824176 88.90037 
L 872.527473 96.758693 
L 874.230769 99.003423 
L 875.934066 101.939926 
L 877.637363 99.61373 
L 879.340659 103.861343 
L 881.043956 100.722284 
L 882.747253 98.262648 
L 884.450549 99.607368 
L 886.153846 102.168323 
L 887.857143 97.0863 
L 889.56044 100.348263 
L 891.263736 104.455748 
L 892.967033 109.439683 
L 894.67033 113.533029 
L 896.373626 116.738064 
L 898.076923 116.33521 
L 899.78022 112.037391 
L 901.483516 109.951094 
L 903.186813 110.815763 
L 904.89011 113.565521 
L 904.89011 113.565521 
" clip-path="url(#p591dfadda4)" style="fill: none; stroke: #0b0b0b; stroke-opacity: 0.8; stroke-width: 2; stroke-linecap: square"/>
   </g>
   <g id="line2d_12">
    <path d="M 135 78.139112 
L 135.681319 80.579868 
L 136.362637 70.23662 
L 137.043956 71.096538 
L 137.725275 72.642585 
L 138.406593 78.109648 
L 139.087912 82.335815 
L 139.769231 76.644521 
L 140.450549 77.518841 
L 141.131868 74.960324 
L 142.494505 71.626085 
L 143.175824 73.34288 
L 143.857143 67.102923 
L 144.538462 70.551057 
L 145.21978 78.23012 
L 145.901099 75.379464 
L 146.582418 78.184769 
L 147.263736 73.403905 
L 147.945055 76.031862 
L 148.626374 63.753245 
L 149.989011 67.888003 
L 150.67033 67.662947 
L 151.351648 61.653373 
L 152.032967 71.949338 
L 152.714286 73.351837 
L 153.395604 69.329819 
L 154.076923 67.146223 
L 154.758242 66.706081 
L 155.43956 70.073744 
L 156.120879 74.532062 
L 156.802198 77.654232 
L 158.164835 80.454635 
L 158.846154 75.370177 
L 159.527473 77.98055 
L 160.208791 70.746862 
L 160.89011 81.344606 
L 161.571429 80.382979 
L 162.252747 75.16921 
L 162.934066 78.947362 
L 163.615385 85.373295 
L 164.296703 75.681267 
L 164.978022 69.401758 
L 166.340659 81.214871 
L 167.021978 78.911299 
L 167.703297 81.251901 
L 168.384615 74.633158 
L 169.065934 86.460532 
L 169.747253 75.367796 
L 170.428571 75.599428 
L 171.10989 73.082515 
L 171.791209 67.295899 
L 172.472527 80.890345 
L 173.153846 80.630404 
L 173.835165 79.255129 
L 174.516484 76.973407 
L 175.197802 72.816846 
L 176.56044 71.483951 
L 177.241758 74.98743 
L 178.604396 69.993296 
L 179.285714 70.573379 
L 179.967033 71.775124 
L 180.648352 70.289089 
L 181.32967 66.785916 
L 182.010989 74.176799 
L 182.692308 72.594382 
L 183.373626 74.637047 
L 184.054945 75.626677 
L 184.736264 79.031982 
L 185.417582 71.296703 
L 186.098901 69.751693 
L 186.78022 70.101039 
L 187.461538 68.160508 
L 188.142857 72.095148 
L 188.824176 80.47922 
L 189.505495 80.473539 
L 190.868132 67.050336 
L 191.549451 72.065991 
L 192.230769 72.447747 
L 192.912088 72.049538 
L 193.593407 63.097876 
L 194.274725 66.184784 
L 194.956044 62.949072 
L 195.637363 72.664129 
L 196.318681 70.753768 
L 197 72.541347 
L 197.681319 77.093549 
L 198.362637 78.268163 
L 199.043956 88.069089 
L 199.725275 99.935426 
L 200.406593 85.255251 
L 201.087912 74.433606 
L 201.769231 74.839428 
L 202.450549 71.926544 
L 203.131868 70.208641 
L 203.813187 64.003781 
L 204.494505 72.571353 
L 205.175824 72.815761 
L 205.857143 69.306932 
L 206.538462 59.344261 
L 207.21978 68.192069 
L 207.901099 68.545022 
L 208.582418 69.726543 
L 209.263736 72.132154 
L 209.945055 81.153233 
L 210.626374 84.124266 
L 211.307692 78.676861 
L 211.989011 80.839833 
L 213.351648 68.364633 
L 214.032967 79.906562 
L 214.714286 71.521924 
L 215.395604 75.689116 
L 216.076923 75.049634 
L 216.758242 71.643999 
L 217.43956 81.966363 
L 218.120879 80.080634 
L 218.802198 70.378258 
L 219.483516 69.040155 
L 220.846154 78.173974 
L 221.527473 77.829672 
L 222.208791 82.584018 
L 222.89011 80.420221 
L 223.571429 82.540317 
L 224.252747 81.630358 
L 224.934066 77.820644 
L 225.615385 79.500669 
L 226.296703 76.983142 
L 226.978022 85.457726 
L 227.659341 80.253409 
L 228.340659 76.77105 
L 229.021978 78.260597 
L 229.703297 76.288834 
L 230.384615 71.772696 
L 231.065934 76.456895 
L 231.747253 67.33201 
L 232.428571 81.226893 
L 233.10989 87.556915 
L 233.791209 84.049028 
L 234.472527 74.796175 
L 235.153846 69.695618 
L 235.835165 68.036736 
L 236.516484 74.1974 
L 237.197802 71.695454 
L 237.879121 81.31262 
L 238.56044 73.997825 
L 239.241758 77.991699 
L 239.923077 75.174844 
L 240.604396 80.728625 
L 241.285714 74.595916 
L 241.967033 76.480183 
L 242.648352 83.226917 
L 243.32967 86.71649 
L 244.010989 81.981566 
L 244.692308 75.64188 
L 245.373626 88.128535 
L 246.054945 80.973598 
L 246.736264 77.677803 
L 247.417582 73.405131 
L 248.098901 65.637418 
L 248.78022 72.525602 
L 249.461538 74.144036 
L 250.142857 72.290787 
L 250.824176 68.5495 
L 251.505495 68.603714 
L 252.186813 66.002227 
L 252.868132 75.372534 
L 253.549451 70.617292 
L 254.230769 71.743445 
L 254.912088 79.921176 
L 255.593407 77.398935 
L 256.274725 80.605608 
L 256.956044 82.654024 
L 257.637363 77.069365 
L 258.318681 85.486177 
L 259 79.97546 
L 259.681319 70.903444 
L 260.362637 78.660432 
L 261.043956 68.776631 
L 261.725275 71.478742 
L 262.406593 69.168593 
L 263.087912 74.698167 
L 263.769231 77.858428 
L 264.450549 76.959759 
L 265.131868 66.575262 
L 265.813187 73.613004 
L 266.494505 59.617874 
L 267.175824 64.802179 
L 268.538462 73.004589 
L 269.21978 78.534704 
L 269.901099 80.726904 
L 270.582418 80.007375 
L 271.263736 82.755167 
L 271.945055 81.821283 
L 273.307692 72.455101 
L 273.989011 69.158693 
L 274.67033 72.209915 
L 275.351648 70.508299 
L 276.032967 80.348448 
L 276.714286 79.432171 
L 277.395604 74.9104 
L 278.076923 79.883816 
L 278.758242 75.199994 
L 279.43956 81.031324 
L 280.120879 77.024273 
L 280.802198 81.384606 
L 281.483516 76.543919 
L 282.164835 79.999691 
L 282.846154 77.490367 
L 283.527473 84.028356 
L 284.208791 78.059159 
L 284.89011 69.901982 
L 285.571429 65.601708 
L 286.252747 59.995505 
L 286.934066 63.268153 
L 287.615385 70.457952 
L 288.296703 74.863188 
L 288.978022 69.371893 
L 289.659341 76.893407 
L 290.340659 70.476738 
L 291.021978 68.93656 
L 291.703297 62.996662 
L 292.384615 68.682818 
L 293.065934 65.232822 
L 293.747253 75.858804 
L 294.428571 77.177438 
L 295.10989 77.60841 
L 295.791209 73.564566 
L 296.472527 60.957368 
L 297.153846 56.675903 
L 297.835165 61.995224 
L 298.516484 69.579012 
L 299.197802 81.151654 
L 299.879121 82.430759 
L 300.56044 86.486436 
L 301.241758 78.247845 
L 301.923077 79.286149 
L 302.604396 70.192283 
L 303.285714 71.417952 
L 303.967033 67.128828 
L 304.648352 70.299555 
L 305.32967 68.621745 
L 306.010989 86.173979 
L 306.692308 80.488601 
L 307.373626 87.001864 
L 308.054945 78.271345 
L 308.736264 77.853101 
L 309.417582 68.948063 
L 310.098901 75.378097 
L 310.78022 68.569135 
L 311.461538 68.33168 
L 312.142857 70.970999 
L 312.824176 71.141488 
L 313.505495 79.043155 
L 314.186813 83.40601 
L 314.868132 71.475607 
L 315.549451 69.620968 
L 316.230769 74.667949 
L 316.912088 71.046945 
L 317.593407 71.13444 
L 318.274725 74.236104 
L 318.956044 80.169826 
L 319.637363 79.813055 
L 320.318681 77.187125 
L 321 73.406852 
L 321.681319 73.314972 
L 322.362637 72.740617 
L 323.043956 74.691284 
L 323.725275 72.365413 
L 324.406593 73.742008 
L 325.087912 81.51057 
L 325.769231 86.570561 
L 326.450549 84.573483 
L 327.131868 73.714477 
L 327.813187 73.40202 
L 328.494505 80.399809 
L 329.175824 79.968883 
L 329.857143 71.838271 
L 330.538462 66.864903 
L 331.21978 70.387027 
L 331.901099 68.294203 
L 332.582418 73.809374 
L 333.945055 66.843618 
L 334.626374 72.602774 
L 335.989011 78.433349 
L 336.67033 73.952898 
L 337.351648 74.132085 
L 338.714286 71.804659 
L 339.395604 67.575758 
L 340.076923 69.278693 
L 341.43956 81.742179 
L 342.120879 82.533317 
L 342.802198 74.154595 
L 343.483516 81.228378 
L 344.164835 72.573404 
L 344.846154 71.577505 
L 345.527473 77.00412 
L 346.208791 83.484337 
L 346.89011 69.329041 
L 347.571429 76.634031 
L 348.252747 71.837328 
L 348.934066 74.187831 
L 349.615385 72.561477 
L 350.296703 72.402585 
L 350.978022 74.717424 
L 351.659341 72.635985 
L 352.340659 69.437232 
L 353.021978 72.65232 
L 353.703297 71.353109 
L 354.384615 72.410788 
L 355.065934 76.048692 
L 355.747253 71.131447 
L 356.428571 75.80287 
L 357.10989 76.457343 
L 357.791209 72.156008 
L 358.472527 78.408246 
L 359.153846 80.84952 
L 359.835165 85.655039 
L 360.516484 79.425689 
L 361.197802 80.135743 
L 361.879121 74.089327 
L 362.56044 62.137946 
L 363.241758 70.086543 
L 363.923077 75.19 
L 364.604396 62.495896 
L 365.285714 59.229258 
L 365.967033 67.598032 
L 366.648352 69.241027 
L 367.32967 76.174561 
L 368.010989 72.054606 
L 368.692308 70.520745 
L 369.373626 64.809698 
L 370.054945 70.058234 
L 370.736264 71.06896 
L 371.417582 73.776139 
L 372.098901 79.348306 
L 372.78022 79.961647 
L 374.142857 64.845762 
L 374.824176 71.91292 
L 375.505495 68.505234 
L 376.186813 70.117492 
L 376.868132 77.942082 
L 377.549451 73.93918 
L 378.230769 71.555702 
L 378.912088 75.660265 
L 379.593407 76.185498 
L 380.274725 80.049991 
L 380.956044 73.379722 
L 381.637363 71.66203 
L 382.318681 67.253283 
L 383.681319 72.749998 
L 384.362637 74.741844 
L 385.043956 84.259093 
L 385.725275 67.597372 
L 386.406593 72.355891 
L 387.087912 75.399593 
L 387.769231 72.142243 
L 388.450549 82.123982 
L 389.131868 77.493525 
L 389.813187 77.473018 
L 390.494505 71.24612 
L 391.175824 75.064814 
L 391.857143 82.633517 
L 392.538462 78.52629 
L 393.21978 73.703045 
L 393.901099 70.985471 
L 394.582418 73.248808 
L 395.263736 77.66887 
L 395.945055 81.294706 
L 396.626374 78.765158 
L 397.307692 73.789197 
L 397.989011 79.023002 
L 398.67033 76.701916 
L 399.351648 79.553303 
L 400.032967 82.949345 
L 400.714286 77.094209 
L 401.395604 76.266842 
L 402.076923 74.232309 
L 402.758242 75.279947 
L 403.43956 74.675774 
L 404.120879 77.702647 
L 404.802198 69.904763 
L 405.483516 71.578 
L 406.164835 72.853263 
L 406.846154 73.710329 
L 408.208791 80.845843 
L 408.89011 80.318017 
L 409.571429 76.52973 
L 410.252747 73.962562 
L 410.934066 70.670162 
L 411.615385 82.690912 
L 412.978022 69.261039 
L 413.659341 74.305756 
L 414.340659 77.186772 
L 415.021978 77.588894 
L 415.703297 73.945568 
L 416.384615 80.822437 
L 417.065934 67.155156 
L 417.747253 71.216491 
L 418.428571 79.699207 
L 419.10989 79.485512 
L 419.791209 77.263991 
L 420.472527 75.430024 
L 421.153846 69.860285 
L 421.835165 70.182737 
L 422.516484 71.379532 
L 423.197802 73.229881 
L 423.879121 72.010882 
L 424.56044 70.010338 
L 425.241758 68.404751 
L 425.923077 68.151433 
L 426.604396 74.432969 
L 427.285714 73.87575 
L 427.967033 70.5883 
L 428.648352 70.068511 
L 429.32967 86.46395 
L 430.692308 76.06439 
L 431.373626 77.553561 
L 432.054945 73.799663 
L 432.736264 77.226678 
L 433.417582 75.905522 
L 434.098901 89.341359 
L 434.78022 86.987132 
L 435.461538 78.266938 
L 436.142857 81.54067 
L 436.824176 79.979043 
L 437.505495 79.885442 
L 438.186813 74.045579 
L 438.868132 84.260955 
L 439.549451 90.266262 
L 440.230769 92.029186 
L 440.912088 80.652702 
L 441.593407 80.276273 
L 442.274725 76.186842 
L 442.956044 74.217459 
L 443.637363 84.730254 
L 444.318681 76.562988 
L 445 76.281267 
L 445.681319 77.344627 
L 446.362637 82.690276 
L 447.043956 78.040397 
L 447.725275 79.546986 
L 448.406593 78.246997 
L 449.087912 70.773898 
L 449.769231 73.87179 
L 450.450549 73.262196 
L 451.131868 73.629268 
L 451.813187 66.908061 
L 452.494505 66.364961 
L 453.175824 68.957303 
L 453.857143 74.300594 
L 454.538462 74.584177 
L 455.21978 79.511582 
L 455.901099 73.696163 
L 456.582418 74.721691 
L 457.263736 68.790396 
L 457.945055 72.62031 
L 458.626374 68.955865 
L 459.307692 70.500686 
L 459.989011 65.104854 
L 460.67033 68.33234 
L 461.351648 69.233649 
L 462.032967 78.821493 
L 462.714286 78.090956 
L 463.395604 77.616566 
L 464.076923 85.189653 
L 464.758242 86.114934 
L 465.43956 84.067177 
L 466.120879 73.822998 
L 466.802198 82.45136 
L 467.483516 73.136398 
L 468.846154 83.99571 
L 469.527473 78.352147 
L 470.208791 85.121556 
L 470.89011 80.542579 
L 472.252747 69.37227 
L 472.934066 64.97189 
L 473.615385 70.705212 
L 474.296703 67.225822 
L 474.978022 70.402112 
L 475.659341 69.306649 
L 476.340659 71.123715 
L 477.021978 66.183653 
L 477.703297 63.686633 
L 479.065934 69.021675 
L 479.747253 68.874474 
L 480.428571 68.127933 
L 481.10989 66.206376 
L 481.791209 72.248972 
L 482.472527 71.467593 
L 483.153846 75.343565 
L 483.835165 68.078103 
L 484.516484 74.026345 
L 485.197802 74.186322 
L 485.879121 75.098474 
L 486.56044 81.659963 
L 487.241758 79.341423 
L 487.923077 74.589174 
L 488.604396 68.819671 
L 489.285714 68.515817 
L 489.967033 70.736608 
L 490.648352 78.823261 
L 491.32967 72.398978 
L 492.010989 71.347004 
L 492.692308 81.026138 
L 493.373626 78.107433 
L 494.054945 72.136657 
L 494.736264 74.562987 
L 495.417582 79.566078 
L 496.098901 81.635685 
L 496.78022 81.743452 
L 497.461538 76.34267 
L 498.142857 74.718014 
L 498.824176 70.208947 
L 499.505495 72.201948 
L 500.186813 69.147309 
L 500.868132 70.70342 
L 501.549451 73.40532 
L 502.230769 73.571708 
L 502.912088 77.97758 
L 503.593407 67.074048 
L 504.274725 69.299412 
L 504.956044 74.264672 
L 505.637363 70.033815 
L 506.318681 67.069334 
L 507 66.82132 
L 507.681319 72.152543 
L 508.362637 66.515887 
L 509.043956 69.088499 
L 509.725275 68.647438 
L 510.406593 71.121453 
L 511.087912 65.424195 
L 511.769231 73.768856 
L 512.450549 74.199569 
L 513.131868 73.206121 
L 513.813187 70.468794 
L 514.494505 79.295389 
L 515.175824 76.435587 
L 515.857143 71.274334 
L 516.538462 73.423941 
L 517.21978 66.019174 
L 517.901099 72.277753 
L 518.582418 79.783827 
L 519.263736 79.721246 
L 519.945055 80.812679 
L 520.626374 78.180408 
L 521.307692 76.008951 
L 521.989011 72.185543 
L 522.67033 76.255222 
L 523.351648 72.365673 
L 524.032967 74.841172 
L 524.714286 75.221774 
L 525.395604 78.49164 
L 526.076923 77.44841 
L 526.758242 72.08011 
L 527.43956 73.57298 
L 528.120879 69.714899 
L 528.802198 77.983402 
L 529.483516 77.907786 
L 530.164835 77.525323 
L 530.846154 72.84869 
L 531.527473 76.054774 
L 532.89011 84.330159 
L 533.571429 80.327163 
L 534.252747 74.69218 
L 536.296703 82.597736 
L 536.978022 80.44622 
L 537.659341 79.548353 
L 538.340659 82.88304 
L 539.021978 74.972769 
L 539.703297 73.488832 
L 540.384615 82.800801 
L 541.065934 82.822392 
L 541.747253 85.165398 
L 542.428571 83.382698 
L 543.10989 80.397075 
L 543.791209 80.912031 
L 544.472527 67.802228 
L 545.153846 66.760059 
L 545.835165 69.959495 
L 546.516484 70.983963 
L 547.197802 69.095264 
L 547.879121 72.791082 
L 548.56044 70.567156 
L 549.241758 73.205131 
L 549.923077 67.084043 
L 550.604396 79.216331 
L 551.285714 74.494796 
L 551.967033 76.837991 
L 552.648352 71.889891 
L 553.32967 68.776584 
L 554.010989 66.942829 
L 554.692308 72.152166 
L 555.373626 71.553722 
L 556.054945 79.442825 
L 556.736264 76.399123 
L 557.417582 79.427763 
L 558.098901 80.218029 
L 558.78022 79.358394 
L 559.461538 79.893786 
L 560.142857 76.645181 
L 560.824176 74.355821 
L 561.505495 73.515066 
L 562.186813 71.353839 
L 562.868132 69.650244 
L 563.549451 68.747945 
L 564.230769 72.391742 
L 564.912088 69.278104 
L 565.593407 71.291541 
L 566.274725 69.977598 
L 566.956044 70.175901 
L 567.637363 77.618098 
L 568.318681 79.581894 
L 569 80.530982 
L 569.681319 72.706887 
L 570.362637 77.753796 
L 571.043956 80.126479 
L 571.725275 78.155164 
L 572.406593 79.136449 
L 574.450549 75.362893 
L 575.131868 76.678227 
L 575.813187 77.744462 
L 576.494505 74.80459 
L 577.175824 77.479618 
L 577.857143 82.638844 
L 578.538462 76.254562 
L 579.21978 72.951884 
L 579.901099 75.040677 
L 580.582418 78.750592 
L 581.263736 74.238673 
L 581.945055 79.640563 
L 582.626374 80.524594 
L 583.307692 64.159986 
L 583.989011 79.928506 
L 584.67033 89.29846 
L 585.351648 82.454118 
L 586.032967 78.127468 
L 586.714286 75.583094 
L 587.395604 73.975715 
L 588.076923 77.431251 
L 588.758242 73.244942 
L 589.43956 77.900809 
L 590.120879 73.964283 
L 591.483516 79.954694 
L 592.846154 93.770236 
L 593.527473 93.557319 
L 594.208791 80.697959 
L 594.89011 80.094729 
L 595.571429 83.992127 
L 596.252747 87.085942 
L 596.934066 95.887009 
L 597.615385 87.67477 
L 598.296703 83.742156 
L 598.978022 82.043063 
L 599.659341 77.943708 
L 600.340659 72.90354 
L 601.021978 78.898028 
L 601.703297 76.422646 
L 602.384615 80.169968 
L 603.065934 87.326555 
L 603.747253 78.641646 
L 604.428571 83.623806 
L 605.10989 76.929211 
L 605.791209 80.15427 
L 606.472527 81.624771 
L 607.153846 76.324897 
L 607.835165 74.66406 
L 609.197802 78.793585 
L 609.879121 82.764336 
L 610.56044 82.316652 
L 611.241758 72.636032 
L 611.241758 72.636032 
" clip-path="url(#p591dfadda4)" style="fill: none; stroke: #2626ff; stroke-opacity: 0.8; stroke-width: 2; stroke-linecap: square"/>
   </g>
   <g id="line2d_13">
    <path d="M 625.549451 59.694786 
L 627.252747 72.451235 
L 628.956044 70.206308 
L 630.659341 63.440858 
L 632.362637 62.944547 
L 634.065934 72.173616 
L 635.769231 68.732883 
L 637.472527 74.545049 
L 639.175824 67.86983 
L 640.879121 65.454083 
L 642.582418 62.012077 
L 644.285714 67.757514 
L 645.989011 70.8654 
L 647.692308 69.594333 
L 649.395604 72.879427 
L 651.098901 69.310656 
L 652.802198 77.802541 
L 654.505495 69.951882 
L 656.208791 58.812452 
L 657.912088 66.33571 
L 659.615385 69.161993 
L 661.318681 72.742432 
L 663.021978 66.846965 
L 664.725275 73.016162 
L 668.131868 65.451631 
L 669.835165 60.036071 
L 671.538462 78.404828 
L 673.241758 70.685978 
L 674.945055 67.398456 
L 676.648352 73.313133 
L 678.351648 66.954921 
L 680.054945 63.956215 
L 681.758242 58.283942 
L 683.461538 63.08305 
L 685.164835 61.325241 
L 686.868132 57.583529 
L 688.571429 61.016908 
L 690.274725 72.695525 
L 691.978022 66.244608 
L 693.681319 68.846354 
L 695.384615 70.284304 
L 697.087912 71.015406 
L 698.791209 74.905144 
L 700.494505 79.119879 
L 702.197802 72.23952 
L 703.901099 73.694183 
L 705.604396 71.570339 
L 707.307692 75.916082 
L 709.010989 69.419318 
L 710.714286 66.426199 
L 712.417582 69.708323 
L 714.120879 77.567585 
L 715.824176 80.351535 
L 717.527473 76.96049 
L 719.230769 74.295291 
L 720.934066 72.007511 
L 722.637363 70.461912 
L 724.340659 64.036427 
L 726.043956 66.386741 
L 727.747253 68.320107 
L 729.450549 64.82212 
L 731.153846 69.449536 
L 732.857143 65.959422 
L 734.56044 65.066127 
L 736.263736 63.832561 
L 737.967033 68.453071 
L 739.67033 68.075228 
L 741.373626 73.552214 
L 743.076923 69.78408 
L 744.78022 68.949501 
L 746.483516 65.669993 
L 748.186813 71.217292 
L 749.89011 75.560748 
L 751.593407 77.471463 
L 753.296703 74.198343 
L 755 75.083247 
L 756.703297 70.051139 
L 758.406593 76.636318 
L 760.10989 71.437917 
L 761.813187 77.293997 
L 765.21978 79.079596 
L 766.923077 84.59696 
L 768.626374 81.85598 
L 770.32967 84.017442 
L 772.032967 81.506987 
L 773.736264 77.151133 
L 775.43956 73.196787 
L 777.142857 73.219816 
L 778.846154 76.207019 
L 780.549451 70.432684 
L 782.252747 77.067644 
L 783.956044 74.807183 
L 785.659341 71.457222 
L 787.362637 65.102521 
L 789.065934 71.7648 
L 790.769231 74.212627 
L 792.472527 69.557704 
L 794.175824 78.013856 
L 795.879121 68.894368 
L 797.582418 78.865312 
L 799.285714 74.957283 
L 800.989011 73.756693 
L 802.692308 70.950185 
L 804.395604 75.552004 
L 806.098901 61.419006 
L 807.802198 64.961943 
L 809.505495 72.110705 
L 811.208791 74.806499 
L 812.912088 69.803267 
L 814.615385 70.371776 
L 816.318681 76.445605 
L 818.021978 72.035018 
L 819.725275 70.142619 
L 821.428571 76.068798 
L 823.131868 64.494459 
L 824.835165 68.148274 
L 826.538462 67.474049 
L 828.241758 70.302524 
L 829.945055 71.812626 
L 831.648352 82.005043 
L 833.351648 79.464134 
L 835.054945 77.521787 
L 836.758242 79.162778 
L 838.461538 79.199808 
L 840.164835 82.000659 
L 841.868132 83.683889 
L 843.571429 76.322729 
L 845.274725 74.647748 
L 846.978022 85.106094 
L 848.681319 81.141518 
L 850.384615 79.333974 
L 852.087912 81.127281 
L 853.791209 84.361367 
L 855.494505 84.366011 
L 857.197802 89.374806 
L 858.901099 93.543577 
L 860.604396 96.267704 
L 862.307692 93.650307 
L 864.010989 91.661761 
L 865.714286 93.466759 
L 867.417582 88.879367 
L 869.120879 91.779899 
L 870.824176 93.26551 
L 872.527473 90.671307 
L 874.230769 94.464568 
L 875.934066 95.115175 
L 877.637363 98.465136 
L 879.340659 103.682064 
L 881.043956 111.107502 
L 882.747253 103.86085 
L 884.450549 111.45805 
L 886.153846 112.590544 
L 887.857143 113.493243 
L 889.56044 113.317003 
L 891.263736 108.889422 
L 892.967033 111.792735 
L 894.67033 116.256215 
L 896.373626 112.509271 
L 898.076923 105.466768 
L 899.78022 106.198271 
L 901.483516 108.004 
L 903.186813 115.233563 
L 904.89011 112.02161 
L 904.89011 112.02161 
" clip-path="url(#p591dfadda4)" style="fill: none; stroke: #2626ff; stroke-opacity: 0.8; stroke-width: 2; stroke-linecap: square"/>
   </g>
   <g id="line2d_14">
    <path d="M 625.549451 192.24 
L 625.549451 25.92 
" clip-path="url(#p591dfadda4)" style="fill: none; stroke-dasharray: 3.7,1.6; stroke-dashoffset: 0; stroke: #808080; stroke-opacity: 0.5"/>
   </g>
   <g id="line2d_15">
    <path d="M 710.714286 192.24 
L 710.714286 25.92 
" clip-path="url(#p591dfadda4)" style="fill: none; stroke-dasharray: 3.7,1.6; stroke-dashoffset: 0; stroke: #808080; stroke-opacity: 0.5"/>
   </g>
   <g id="line2d_16">
    <path d="M 611.923077 192.24 
L 611.923077 25.92 
" clip-path="url(#p591dfadda4)" style="fill: none; stroke-dasharray: 3.7,1.6; stroke-dashoffset: 0; stroke: #808080; stroke-opacity: 0.8"/>
   </g>
   <g id="line2d_17">
    <path d="M 135 84.264415 
L 611.786786 84.264415 
L 611.786786 84.264415 
" clip-path="url(#p591dfadda4)" style="fill: none; stroke-dasharray: 7.4,3.2; stroke-dashoffset: 0; stroke: #2626ff; stroke-opacity: 0.8; stroke-width: 2"/>
   </g>
   <g id="line2d_18">
    <path d="M 625.659846 84.264415 
L 932.142857 84.264415 
L 932.142857 84.264415 
" clip-path="url(#p591dfadda4)" style="fill: none; stroke-dasharray: 7.4,3.2; stroke-dashoffset: 0; stroke: #2626ff; stroke-opacity: 0.8; stroke-width: 2"/>
   </g>
   <g id="line2d_19">
    <path d="M 625.549451 56.024373 
L 627.252747 48.072984 
L 628.956044 53.20916 
L 630.659341 51.465657 
L 632.362637 52.164392 
L 634.065934 46.674852 
L 635.769231 47.139093 
L 637.472527 51.207874 
L 639.175824 49.96808 
L 640.879121 57.046737 
L 642.582418 45.725921 
L 644.285714 52.072345 
L 645.989011 50.883189 
L 647.692308 54.522347 
L 649.395604 59.612242 
L 651.098901 54.404353 
L 652.802198 51.148872 
L 654.505495 60.160258 
L 656.208791 55.066298 
L 657.912088 53.039889 
L 659.615385 56.168775 
L 661.318681 46.835884 
L 663.021978 52.005015 
L 664.725275 53.760363 
L 666.428571 53.670279 
L 668.131868 56.601568 
L 669.835165 53.028482 
L 671.538462 54.4968 
L 673.241758 52.541752 
L 674.945055 52.1217 
L 676.648352 50.217677 
L 678.351648 51.49635 
L 680.054945 46.451942 
L 681.758242 54.990455 
L 683.461538 58.405342 
L 685.164835 55.929017 
L 686.868132 63.471314 
L 688.571429 63.822182 
L 690.274725 63.624062 
L 691.978022 66.206714 
L 693.681319 69.338096 
L 695.384615 74.196667 
L 697.087912 69.636479 
L 698.791209 74.852719 
L 700.494505 72.366305 
L 702.197802 65.429739 
L 703.901099 62.490647 
L 705.604396 68.337492 
L 707.307692 61.062624 
L 709.010989 65.50309 
L 710.714286 71.028891 
L 712.417582 77.621539 
L 714.120879 75.885645 
L 715.824176 83.324029 
L 717.527473 84.264791 
L 719.230769 89.306032 
L 720.934066 86.062362 
L 722.637363 86.308821 
L 724.340659 73.980877 
L 726.043956 67.601207 
L 727.747253 69.455132 
L 729.450549 71.485006 
L 731.153846 59.694698 
L 732.857143 59.416867 
L 734.56044 67.171688 
L 736.263736 71.239984 
L 737.967033 63.058341 
L 739.67033 62.455796 
L 741.373626 62.663763 
L 743.076923 65.343384 
L 746.483516 73.559251 
L 748.186813 66.902027 
L 749.89011 75.464355 
L 751.593407 74.207594 
L 753.296703 71.509748 
L 755 66.870958 
L 756.703297 63.40141 
L 758.406593 68.631203 
L 760.10989 67.230022 
L 761.813187 62.335192 
L 763.516484 60.366515 
L 765.21978 72.107915 
L 766.923077 68.952338 
L 768.626374 58.435611 
L 770.32967 60.803479 
L 772.032967 51.40705 
L 773.736264 51.523488 
L 775.43956 56.494549 
L 777.142857 51.455931 
L 778.846154 55.362494 
L 780.549451 52.726343 
L 782.252747 54.942883 
L 783.956044 49.78865 
L 785.659341 51.905842 
L 787.362637 46.855775 
L 789.065934 48.100004 
L 790.769231 53.936718 
L 792.472527 47.862646 
L 794.175824 46.763487 
L 795.879121 44.763622 
L 797.582418 48.64643 
L 799.285714 45.053357 
L 800.989011 45.054788 
L 802.692308 50.941048 
L 804.395604 53.3836 
L 806.098901 58.270795 
L 807.802198 55.371885 
L 809.505495 63.315764 
L 811.208791 67.895016 
L 812.912088 57.950516 
L 814.615385 56.014249 
L 816.318681 58.597384 
L 818.021978 66.573185 
L 819.725275 54.503615 
L 821.428571 57.571248 
L 823.131868 59.746078 
L 824.835165 65.029839 
L 826.538462 66.533153 
L 828.241758 66.944989 
L 829.945055 65.813763 
L 831.648352 51.746689 
L 833.351648 66.340658 
L 835.054945 76.037691 
L 836.758242 63.562341 
L 838.461538 60.395016 
L 840.164835 55.143568 
L 841.868132 55.023445 
L 843.571429 41.866061 
L 845.274725 42.21194 
L 846.978022 49.260764 
L 848.681319 51.041119 
L 850.384615 60.871387 
L 852.087912 61.966692 
L 853.791209 60.93132 
L 855.494505 60.559193 
L 857.197802 68.360487 
L 858.901099 73.9835 
L 860.604396 69.820523 
L 862.307692 72.787398 
L 864.010989 78.673914 
L 865.714286 81.151417 
L 867.417582 67.303082 
L 869.120879 56.270635 
L 870.824176 58.078859 
L 872.527473 56.071375 
L 874.230769 65.137197 
L 875.934066 63.395742 
L 877.637363 63.856325 
L 879.340659 67.409416 
L 881.043956 70.569519 
L 882.747253 71.670474 
L 884.450549 74.84333 
L 886.153846 77.27555 
L 887.857143 76.31929 
L 889.56044 75.232463 
L 891.263736 76.885014 
L 892.967033 75.845381 
L 894.67033 73.953163 
L 896.373626 78.453206 
L 898.076923 71.461722 
L 899.78022 75.304901 
L 901.483516 72.861823 
L 903.186813 70.725385 
L 904.89011 76.085351 
L 904.89011 76.085351 
" clip-path="url(#p591dfadda4)" style="fill: none; stroke: #d3d3d3; stroke-opacity: 0.6; stroke-linecap: square"/>
   </g>
   <g id="line2d_20">
    <path d="M 625.549451 51.088272 
L 627.252747 55.642436 
L 628.956044 53.915172 
L 630.659341 72.271465 
L 632.362637 78.963502 
L 634.065934 68.673887 
L 635.769231 70.900519 
L 637.472527 66.804298 
L 639.175824 62.015277 
L 640.879121 73.178632 
L 642.582418 68.814426 
L 644.285714 81.761164 
L 645.989011 65.301199 
L 647.692308 67.173201 
L 649.395604 66.798163 
L 651.098901 71.398739 
L 652.802198 76.941192 
L 654.505495 73.860337 
L 656.208791 63.346322 
L 657.912088 62.258541 
L 659.615385 64.166029 
L 661.318681 72.463956 
L 663.021978 74.994456 
L 664.725275 69.406877 
L 666.428571 76.865547 
L 669.835165 56.062626 
L 671.538462 62.257724 
L 673.241758 71.930242 
L 674.945055 73.617619 
L 676.648352 70.108872 
L 678.351648 61.868458 
L 680.054945 58.732367 
L 681.758242 41.999768 
L 683.461538 48.992977 
L 685.164835 58.437741 
L 686.868132 50.917618 
L 688.571429 54.144032 
L 690.274725 53.105532 
L 691.978022 49.067612 
L 693.681319 62.64024 
L 695.384615 61.331815 
L 697.087912 56.874391 
L 698.791209 49.276092 
L 700.494505 59.323245 
L 702.197802 63.431865 
L 703.901099 54.893245 
L 705.604396 56.627192 
L 707.307692 64.898075 
L 709.010989 63.09386 
L 710.714286 68.178912 
L 712.417582 65.679929 
L 714.120879 64.497376 
L 715.824176 52.358201 
L 717.527473 63.145009 
L 719.230769 59.059655 
L 720.934066 65.174766 
L 722.637363 62.247169 
L 724.340659 69.195866 
L 726.043956 68.526992 
L 727.747253 65.697219 
L 729.450549 67.95354 
L 731.153846 73.760013 
L 732.857143 66.631901 
L 734.56044 66.119602 
L 736.263736 66.420884 
L 737.967033 67.525729 
L 739.67033 59.169684 
L 741.373626 53.767535 
L 743.076923 61.409818 
L 744.78022 62.582147 
L 746.483516 73.695899 
L 748.186813 58.256119 
L 749.89011 52.999165 
L 751.593407 64.278223 
L 753.296703 61.702349 
L 755 65.110228 
L 756.703297 57.840206 
L 758.406593 67.808076 
L 760.10989 72.56962 
L 761.813187 64.866 
L 763.516484 62.021506 
L 765.21978 74.712573 
L 766.923077 74.204245 
L 768.626374 78.313094 
L 770.32967 84.426128 
L 772.032967 82.928255 
L 773.736264 84.161933 
L 775.43956 80.775913 
L 777.142857 76.764691 
L 778.846154 78.014374 
L 782.252747 79.783945 
L 783.956044 82.672742 
L 785.659341 85.062232 
L 787.362637 81.025823 
L 789.065934 74.818116 
L 790.769231 78.410432 
L 792.472527 74.780666 
L 794.175824 76.149741 
L 795.879121 73.901796 
L 797.582418 69.988384 
L 799.285714 81.241402 
L 800.989011 68.42196 
L 802.692308 75.66254 
L 804.395604 73.894341 
L 806.098901 77.096492 
L 807.802198 71.862832 
L 809.505495 84.22529 
L 811.208791 86.561244 
L 812.912088 80.76705 
L 814.615385 74.279211 
L 816.318681 86.004823 
L 818.021978 88.116791 
L 819.725275 87.619126 
L 821.428571 83.367392 
L 823.131868 84.911842 
L 824.835165 83.970289 
L 826.538462 79.980781 
L 828.241758 79.994305 
L 829.945055 72.199127 
L 831.648352 63.015063 
L 833.351648 74.396417 
L 835.054945 83.491858 
L 838.461538 73.064871 
L 840.164835 77.987448 
L 841.868132 77.062596 
L 843.571429 78.976472 
L 845.274725 79.443811 
L 846.978022 89.597531 
L 848.681319 94.771145 
L 850.384615 84.265261 
L 852.087912 66.026792 
L 853.791209 80.125091 
L 855.494505 83.505379 
L 857.197802 74.160408 
L 858.901099 97.001038 
L 860.604396 98.208699 
L 862.307692 106.909885 
L 864.010989 106.327222 
L 865.714286 90.839668 
L 867.417582 80.9031 
L 869.120879 82.594662 
L 870.824176 85.965297 
L 872.527473 101.478464 
L 874.230769 93.054154 
L 875.934066 98.435211 
L 877.637363 91.904981 
L 879.340659 95.052689 
L 881.043956 88.229949 
L 882.747253 87.642149 
L 884.450549 83.215506 
L 886.153846 88.944286 
L 887.857143 82.525967 
L 889.56044 97.735938 
L 891.263736 102.791725 
L 892.967033 97.388885 
L 894.67033 106.468755 
L 896.373626 110.085959 
L 898.076923 113.989496 
L 899.78022 99.557582 
L 901.483516 112.433155 
L 903.186813 107.527106 
L 904.89011 108.191533 
L 904.89011 108.191533 
" clip-path="url(#p591dfadda4)" style="fill: none; stroke: #d3d3d3; stroke-opacity: 0.6; stroke-linecap: square"/>
   </g>
   <g id="line2d_21">
    <path d="M 625.549451 148.563047 
L 627.252747 146.811334 
L 628.956044 140.774801 
L 630.659341 141.775629 
L 632.362637 127.843265 
L 634.065934 126.649429 
L 635.769231 121.218834 
L 637.472527 117.059799 
L 639.175824 119.950878 
L 640.879121 119.499275 
L 642.582418 121.746173 
L 644.285714 145.716913 
L 645.989011 143.083245 
L 647.692308 137.125458 
L 649.395604 138.856836 
L 651.098901 136.456637 
L 652.802198 130.940679 
L 654.505495 138.557923 
L 656.208791 150.911774 
L 657.912088 142.154555 
L 659.615385 135.870141 
L 661.318681 132.832838 
L 663.021978 131.613006 
L 666.428571 144.00343 
L 668.131868 146.449479 
L 669.835165 141.06065 
L 671.538462 131.739396 
L 673.241758 127.312975 
L 674.945055 128.80816 
L 676.648352 122.478394 
L 678.351648 129.300846 
L 680.054945 119.179731 
L 681.758242 123.199328 
L 683.461538 122.34185 
L 685.164835 120.988526 
L 686.868132 122.063742 
L 688.571429 130.910491 
L 690.274725 145.137181 
L 691.978022 139.323603 
L 693.681319 131.002139 
L 695.384615 126.102436 
L 697.087912 121.667308 
L 698.791209 116.812602 
L 700.494505 122.199051 
L 702.197802 120.471721 
L 703.901099 122.167796 
L 705.604396 125.135035 
L 707.307692 120.564323 
L 709.010989 120.258791 
L 710.714286 131.440431 
L 712.417582 140.8199 
L 714.120879 138.268835 
L 715.824176 124.046711 
L 717.527473 128.856742 
L 719.230769 132.968832 
L 720.934066 121.333012 
L 722.637363 110.967466 
L 724.340659 121.65789 
L 726.043956 117.893313 
L 727.747253 120.722247 
L 729.450549 123.777475 
L 731.153846 121.34862 
L 732.857143 135.778609 
L 734.56044 141.406999 
L 736.263736 153.65668 
L 737.967033 147.225157 
L 739.67033 144.055254 
L 741.373626 134.687635 
L 743.076923 138.04649 
L 744.78022 135.706781 
L 746.483516 131.993604 
L 748.186813 140.104687 
L 749.89011 132.311618 
L 751.593407 128.263484 
L 753.296703 133.754333 
L 755 135.077739 
L 756.703297 130.509456 
L 758.406593 138.899993 
L 760.10989 130.531459 
L 761.813187 133.062086 
L 763.516484 141.330082 
L 765.21978 136.247036 
L 766.923077 142.842248 
L 768.626374 165.591046 
L 770.32967 161.034568 
L 772.032967 160.881589 
L 773.736264 155.579302 
L 775.43956 147.452794 
L 777.142857 133.439971 
L 780.549451 139.486786 
L 782.252747 141.914865 
L 785.659341 143.317166 
L 787.362637 140.321739 
L 789.065934 145.698035 
L 790.769231 162.121139 
L 792.472527 157.779999 
L 794.175824 143.688285 
L 795.879121 136.360975 
L 797.582418 134.725149 
L 799.285714 127.309129 
L 800.989011 120.634551 
L 802.692308 128.005119 
L 804.395604 135.963973 
L 806.098901 132.677159 
L 807.802198 134.23486 
L 809.505495 137.420532 
L 811.208791 134.471019 
L 812.912088 137.403861 
L 814.615385 130.409533 
L 816.318681 136.509216 
L 818.021978 135.359225 
L 819.725275 128.455172 
L 821.428571 131.613149 
L 823.131868 127.180084 
L 824.835165 111.347462 
L 826.538462 121.112305 
L 828.241758 129.875235 
L 829.945055 133.139865 
L 831.648352 148.90079 
L 833.351648 146.968109 
L 835.054945 140.314099 
L 836.758242 137.972286 
L 838.461538 143.550726 
L 840.164835 156.540821 
L 841.868132 145.517452 
L 843.571429 142.935825 
L 845.274725 140.030312 
L 846.978022 146.667573 
L 848.681319 158.121818 
L 850.384615 157.511407 
L 852.087912 159.672394 
L 853.791209 164.713678 
L 855.494505 159.34676 
L 857.197802 146.698428 
L 858.901099 145.020709 
L 860.604396 147.283928 
L 862.307692 146.150363 
L 864.010989 159.819408 
L 865.714286 157.704733 
L 867.417582 146.290186 
L 869.120879 133.003026 
L 870.824176 136.211564 
L 872.527473 144.919756 
L 874.230769 148.891572 
L 875.934066 147.849238 
L 877.637363 140.061123 
L 879.340659 147.791252 
L 881.043956 144.08765 
L 882.747253 139.902645 
L 884.450549 142.226198 
L 886.153846 153.638942 
L 887.857143 144.140774 
L 889.56044 140.867286 
L 891.263736 158.937859 
L 892.967033 172.683091 
L 894.67033 183.825462 
L 896.373626 179.762781 
L 898.076923 184.68 
L 899.78022 173.516255 
L 901.483516 164.495136 
L 904.89011 168.567223 
L 904.89011 168.567223 
" clip-path="url(#p591dfadda4)" style="fill: none; stroke: #d3d3d3; stroke-opacity: 0.6; stroke-linecap: square"/>
   </g>
   <g id="line2d_22">
    <path d="M 864.010989 102.386036 
L 865.714286 101.325307 
L 867.417582 98.761021 
L 869.120879 101.263517 
L 870.824176 93.879609 
L 872.527473 102.818566 
L 874.230769 98.83311 
L 875.934066 103.086323 
L 877.637363 101.026656 
L 879.340659 100.017419 
L 881.043956 100.882479 
L 882.747253 102.849461 
L 884.450549 108.184 
L 886.153846 102.077086 
L 887.857143 101.345904 
L 889.56044 109.275624 
L 891.263736 113.024219 
L 892.967033 113.806892 
L 894.67033 100.099805 
L 896.373626 101.634257 
L 898.076923 105.207781 
L 899.78022 113.055114 
L 901.483516 108.101613 
L 903.186813 95.393465 
L 904.89011 94.93004 
L 906.593407 102.653793 
L 908.296703 122.807639 
L 910 121.427662 
L 911.703297 118.575023 
L 913.406593 119.841718 
L 915.10989 115.155975 
L 916.813187 112.437213 
L 918.516484 119.450381 
L 920.21978 129.213205 
L 921.923077 124.506865 
" clip-path="url(#p591dfadda4)" style="fill: none; stroke: #fea443; stroke-opacity: 0.8; stroke-width: 2; stroke-linecap: square"/>
   </g>
   <g id="line2d_23">
    <path d="M 625.549451 49.876477 
L 627.252747 49.555761 
L 628.956044 48.729807 
L 630.659341 59.960128 
L 632.362637 61.10506 
L 634.065934 65.138806 
L 635.769231 54.620224 
L 637.472527 55.434048 
L 639.175824 61.762999 
L 640.879121 59.447972 
L 642.582418 71.408069 
L 644.285714 59.249318 
L 645.989011 65.224605 
L 647.692308 60.796713 
L 649.395604 54.739953 
L 652.802198 45.574399 
L 654.505495 46.962393 
L 656.208791 46.680982 
L 657.912088 45.088803 
L 659.615385 45.144573 
L 661.318681 44.850384 
L 663.021978 46.217549 
L 664.725275 59.6414 
L 666.428571 55.417334 
L 668.131868 54.731018 
L 669.835165 51.2852 
L 671.538462 50.582077 
L 673.241758 57.145747 
L 674.945055 60.468969 
L 676.648352 60.261595 
L 678.351648 62.796558 
L 680.054945 60.466224 
L 681.758242 65.140681 
L 683.461538 60.246156 
L 685.164835 56.729826 
L 686.868132 62.098593 
L 688.571429 59.342302 
L 690.274725 55.715117 
L 691.978022 66.163958 
L 693.681319 60.968447 
L 695.384615 56.453556 
L 697.087912 64.35192 
L 698.791209 54.505423 
L 700.494505 57.185344 
L 702.197802 63.431942 
L 703.901099 50.214036 
L 705.604396 47.241156 
L 707.307692 46.31577 
L 709.010989 48.789638 
L 710.714286 40.008323 
L 712.417582 44.054559 
L 714.120879 47.471796 
L 715.824176 51.754477 
L 717.527473 48.835753 
L 719.230769 47.470172 
L 720.934066 48.677738 
L 722.637363 46.484406 
L 724.340659 45.720962 
L 726.043956 47.54079 
L 727.747253 52.032319 
L 729.450549 54.83038 
L 731.153846 49.706584 
L 734.56044 59.677908 
L 736.263736 60.419459 
L 737.967033 56.18377 
L 739.67033 49.95579 
L 741.373626 48.426977 
L 743.076923 48.00857 
L 744.78022 46.069511 
L 746.483516 37.869362 
L 748.186813 44.943012 
L 749.89011 42.027347 
L 751.593407 51.221448 
L 753.296703 57.426405 
L 755 61.173535 
L 756.703297 51.070977 
L 758.406593 52.070013 
L 760.10989 46.21085 
L 761.813187 49.557945 
L 763.516484 52.609727 
L 765.21978 45.303431 
L 766.923077 39.384115 
L 768.626374 43.005677 
L 770.32967 38.905111 
L 772.032967 42.272618 
L 773.736264 41.820586 
L 775.43956 44.087787 
L 777.142857 45.559681 
L 780.549451 49.356613 
L 782.252747 49.168521 
L 783.956044 44.20356 
L 785.659341 57.035414 
L 787.362637 50.968569 
L 789.065934 53.040474 
L 790.769231 50.574255 
L 792.472527 42.988039 
L 794.175824 51.267122 
L 795.879121 48.661781 
L 797.582418 52.775565 
L 799.285714 51.344662 
L 800.989011 49.049587 
L 802.692308 65.741477 
L 804.395604 52.469266 
L 806.098901 64.806621 
L 807.802198 56.439112 
L 809.505495 63.604314 
L 811.208791 64.322043 
L 812.912088 67.203056 
L 814.615385 63.093347 
L 816.318681 58.026998 
L 818.021978 51.558762 
L 819.725275 41.93541 
L 821.428571 40.409754 
L 823.131868 39.868788 
L 824.835165 38.292616 
L 826.538462 38.486733 
L 828.241758 33.48 
L 829.945055 46.164357 
L 831.648352 42.289432 
L 833.351648 46.551986 
L 835.054945 49.136074 
L 836.758242 49.640602 
L 838.461538 55.259226 
L 841.868132 41.994543 
L 843.571429 39.301524 
L 845.274725 45.994807 
L 846.978022 49.139754 
L 848.681319 56.503854 
L 850.384615 59.994412 
L 852.087912 64.104458 
L 853.791209 59.586995 
L 855.494505 47.306999 
L 857.197802 52.579506 
L 858.901099 57.390946 
L 860.604396 61.257074 
L 864.010989 75.837814 
L 865.714286 72.087957 
L 867.417582 70.228488 
L 869.120879 74.314313 
L 870.824176 75.345758 
L 872.527473 84.565179 
L 874.230769 88.930767 
L 875.934066 98.079515 
L 877.637363 102.632489 
L 879.340659 105.192013 
L 881.043956 100.002018 
L 882.747253 93.835322 
L 884.450549 98.144438 
L 886.153846 88.814512 
L 887.857143 85.359169 
L 889.56044 87.557366 
L 891.263736 79.208392 
L 892.967033 91.841376 
L 894.67033 89.884736 
L 896.373626 98.65031 
L 898.076923 95.209623 
L 899.78022 99.770824 
L 901.483516 90.014261 
L 903.186813 98.418762 
L 904.89011 101.417979 
L 904.89011 101.417979 
" clip-path="url(#p591dfadda4)" style="fill: none; stroke: #d3d3d3; stroke-opacity: 0.6; stroke-linecap: square"/>
   </g>
   <g id="patch_3">
    <path d="M 135 192.24 
L 135 25.92 
" style="fill: none; stroke: #000000; stroke-width: 0.8; stroke-linejoin: miter; stroke-linecap: square"/>
   </g>
   <g id="patch_4">
    <path d="M 972 192.24 
L 972 25.92 
" style="fill: none"/>
   </g>
   <g id="patch_5">
    <path d="M 135 192.24 
L 972 192.24 
" style="fill: none; stroke: #000000; stroke-width: 0.8; stroke-linejoin: miter; stroke-linecap: square"/>
   </g>
   <g id="patch_6">
    <path d="M 135 25.92 
L 972 25.92 
" style="fill: none"/>
   </g>
   <g id="legend_1">
    <g id="patch_7">
     <path d="M 142 187.24 
L 458.735938 187.24 
Q 460.735938 187.24 460.735938 185.24 
L 460.735938 98.17125 
Q 460.735938 96.17125 458.735938 96.17125 
L 142 96.17125 
Q 140 96.17125 140 98.17125 
L 140 185.24 
Q 140 187.24 142 187.24 
z
" style="fill: #ffffff; opacity: 0.8; stroke: #cccccc; stroke-linejoin: miter"/>
    </g>
    <g id="line2d_24">
     <path d="M 144 104.269688 
L 154 104.269688 
L 164 104.269688 
" style="fill: none; stroke-dasharray: 7.4,3.2; stroke-dashoffset: 0; stroke: #ff0000; stroke-opacity: 0.8; stroke-width: 2"/>
    </g>
    <g id="text_11">
     <text style="font: 10px 'DejaVu Sans', 'Bitstream Vera Sans', 'Computer Modern Sans Serif', 'Lucida Grande', 'Verdana', 'Geneva', 'Lucid', 'Arial', 'Helvetica', 'Avant Garde', sans-serif; text-anchor: start" x="172" y="107.769688" transform="rotate(-0 172 107.769688)">Pre-industrial baseline based on ISIMIP multimodel mean</text>
    </g>
    <g id="line2d_25">
     <path d="M 144 118.947812 
L 154 118.947812 
L 164 118.947812 
" style="fill: none; stroke: #0b0b0b; stroke-opacity: 0.8; stroke-width: 2; stroke-linecap: square"/>
    </g>
    <g id="text_12">
     <text style="font: 10px 'DejaVu Sans', 'Bitstream Vera Sans', 'Computer Modern Sans Serif', 'Lucida Grande', 'Verdana', 'Geneva', 'Lucid', 'Arial', 'Helvetica', 'Avant Garde', sans-serif; text-anchor: start" x="172" y="122.447812" transform="rotate(-0 172 122.447812)">ISIMIP multimodel mean, 1850-2014</text>
    </g>
    <g id="line2d_26">
     <path d="M 144 133.625938 
L 154 133.625938 
L 164 133.625938 
" style="fill: none; stroke: #2626ff; stroke-opacity: 0.8; stroke-width: 2; stroke-linecap: square"/>
    </g>
    <g id="text_13">
     <text style="font: 10px 'DejaVu Sans', 'Bitstream Vera Sans', 'Computer Modern Sans Serif', 'Lucida Grande', 'Verdana', 'Geneva', 'Lucid', 'Arial', 'Helvetica', 'Avant Garde', sans-serif; text-anchor: start" x="172" y="137.125938" transform="rotate(-0 172 137.125938)">CESM2 mid-Holocene and historical series</text>
    </g>
    <g id="line2d_27">
     <path d="M 144 148.304063 
L 154 148.304063 
L 164 148.304063 
" style="fill: none; stroke-dasharray: 7.4,3.2; stroke-dashoffset: 0; stroke: #2626ff; stroke-opacity: 0.8; stroke-width: 2"/>
    </g>
    <g id="text_14">
     <text style="font: 10px 'DejaVu Sans', 'Bitstream Vera Sans', 'Computer Modern Sans Serif', 'Lucida Grande', 'Verdana', 'Geneva', 'Lucid', 'Arial', 'Helvetica', 'Avant Garde', sans-serif; text-anchor: start" x="172" y="151.804063" transform="rotate(-0 172 151.804063)">Mid-Holocene baseline based on CESM2</text>
    </g>
    <g id="line2d_28">
     <path d="M 144 162.982188 
L 154 162.982188 
L 164 162.982188 
" style="fill: none; stroke: #d3d3d3; stroke-opacity: 0.6; stroke-linecap: square"/>
    </g>
    <g id="text_15">
     <text style="font: 10px 'DejaVu Sans', 'Bitstream Vera Sans', 'Computer Modern Sans Serif', 'Lucida Grande', 'Verdana', 'Geneva', 'Lucid', 'Arial', 'Helvetica', 'Avant Garde', sans-serif; text-anchor: start" x="172" y="166.482188" transform="rotate(-0 172 166.482188)">ISIMIP individual simulations, 1850-2014</text>
    </g>
    <g id="line2d_29">
     <path d="M 144 177.660313 
L 154 177.660313 
L 164 177.660313 
" style="fill: none; stroke: #fea443; stroke-opacity: 0.8; stroke-width: 2; stroke-linecap: square"/>
    </g>
    <g id="text_16">
     <text style="font: 10px 'DejaVu Sans', 'Bitstream Vera Sans', 'Computer Modern Sans Serif', 'Lucida Grande', 'Verdana', 'Geneva', 'Lucid', 'Arial', 'Helvetica', 'Avant Garde', sans-serif; text-anchor: start" x="172" y="181.160313" transform="rotate(-0 172 181.160313)">NSIDC satellite observation data</text>
    </g>
   </g>
  </g>
 </g>
 <defs>
  <clipPath id="p591dfadda4">
   <rect x="135" y="25.92" width="837" height="166.32"/>
  </clipPath>
 </defs>
</svg>
