<?xml version="1.0" encoding="utf-8" standalone="no"?>
<!DOCTYPE svg PUBLIC "-//W3C//DTD SVG 1.1//EN"
  "http://www.w3.org/Graphics/SVG/1.1/DTD/svg11.dtd">
<svg xmlns:xlink="http://www.w3.org/1999/xlink" width="432pt" height="216pt" viewBox="0 0 432 216" xmlns="http://www.w3.org/2000/svg" version="1.1">
 <metadata>
  <rdf:RDF xmlns:dc="http://purl.org/dc/elements/1.1/" xmlns:cc="http://creativecommons.org/ns#" xmlns:rdf="http://www.w3.org/1999/02/22-rdf-syntax-ns#">
   <cc:Work>
    <dc:type rdf:resource="http://purl.org/dc/dcmitype/StillImage"/>
    <dc:date>2026-01-03T22:35:07.796476</dc:date>
    <dc:format>image/svg+xml</dc:format>
    <dc:creator>
     <cc:Agent>
      <dc:title>Matplotlib v3.8.4, https://matplotlib.org/</dc:title>
     </cc:Agent>
    </dc:creator>
   </cc:Work>
  </rdf:RDF>
 </metadata>
 <defs>
  <style type="text/css">*{stroke-linejoin: round; stroke-linecap: butt}</style>
 </defs>
 <g id="figure_1">
  <g id="patch_1">
   <path d="M 0 216 
L 432 216 
L 432 0 
L 0 0 
z
" style="fill: #ffffff"/>
  </g>
  <g id="axes_1">
   <g id="patch_2">
    <path d="M 54 192.24 
L 388.8 192.24 
L 388.8 25.92 
L 54 25.92 
z
" style="fill: #ffffff"/>
   </g>
   <g id="PolyCollection_1">
    <defs>
     <path id="m4eed947519" d="M 69.218182 -182.52 
L 69.218182 -175.889902 
L 71.797535 -175.889902 
L 74.376888 -175.889902 
L 76.95624 -175.889902 
L 79.535593 -175.889902 
L 82.114946 -175.889902 
L 84.694299 -175.9157 
L 87.273652 -175.9157 
L 89.853005 -175.9157 
L 92.432357 -175.941499 
L 95.01171 -175.941499 
L 97.591063 -175.941499 
L 100.170416 -175.967297 
L 102.749769 -175.967297 
L 105.329122 -175.967297 
L 107.908475 -175.967297 
L 110.487827 -175.967297 
L 113.06718 -175.967297 
L 115.646533 -175.993095 
L 118.225886 -175.993095 
L 120.805239 -175.993095 
L 123.384592 -175.993095 
L 125.963945 -175.993095 
L 128.543297 -175.967297 
L 131.12265 -175.967297 
L 133.702003 -175.967297 
L 136.281356 -175.967297 
L 138.860709 -175.993095 
L 141.440062 -175.993095 
L 144.019414 -175.993095 
L 146.598767 -175.993095 
L 149.17812 -175.993095 
L 151.757473 -175.993095 
L 154.336826 -175.993095 
L 156.916179 -176.018893 
L 159.495532 -176.018893 
L 162.074884 -176.018893 
L 164.654237 -175.993095 
L 167.23359 -175.993095 
L 169.812943 -175.993095 
L 172.392296 -175.993095 
L 174.971649 -176.018893 
L 177.551002 -176.018893 
L 180.130354 -175.993095 
L 182.709707 -175.993095 
L 185.28906 -175.993095 
L 187.868413 -175.993095 
L 190.447766 -175.993095 
L 193.027119 -175.993095 
L 195.606471 -175.993095 
L 198.185824 -175.993095 
L 200.765177 -175.993095 
L 203.34453 -175.993095 
L 205.923883 -175.993095 
L 208.503236 -175.993095 
L 211.082589 -175.993095 
L 213.661941 -175.967297 
L 216.241294 -175.993095 
L 218.820647 -175.967297 
L 221.4 -175.967297 
L 223.979353 -175.967297 
L 226.558706 -175.967297 
L 229.138059 -175.967297 
L 231.717411 -175.967297 
L 234.296764 -175.967297 
L 236.876117 -175.941499 
L 239.45547 -175.941499 
L 242.034823 -175.941499 
L 244.614176 -175.9157 
L 247.193529 -175.9157 
L 249.772881 -175.9157 
L 252.352234 -175.9157 
L 254.931587 -175.889902 
L 257.51094 -175.889902 
L 260.090293 -175.864104 
L 262.669646 -175.864104 
L 265.248998 -175.864104 
L 267.828351 -175.864104 
L 270.407704 -175.838306 
L 272.987057 -175.838306 
L 275.56641 -175.812508 
L 278.145763 -175.812508 
L 280.725116 -175.78671 
L 283.304468 -175.78671 
L 285.883821 -175.760912 
L 288.463174 -175.760912 
L 291.042527 -175.735114 
L 293.62188 -175.709316 
L 296.201233 -175.683518 
L 298.780586 -175.65772 
L 301.359938 -175.631922 
L 303.939291 -175.606124 
L 306.518644 -175.65772 
L 309.097997 -175.52873 
L 311.67735 -175.425538 
L 314.256703 -175.373941 
L 316.836055 -175.373941 
L 319.415408 -175.348143 
L 321.994761 -175.270749 
L 324.574114 -175.219153 
L 327.153467 -175.193355 
L 329.73282 -175.167557 
L 332.312173 -175.193355 
L 334.891525 -175.064365 
L 337.470878 -174.883779 
L 340.050231 -174.986971 
L 342.629584 -175.167557 
L 345.208937 -174.935375 
L 347.78829 -174.574202 
L 350.367643 -174.651596 
L 352.946995 -174.264626 
L 355.526348 -174.109837 
L 358.105701 -173.903453 
L 360.685054 -173.516482 
L 363.264407 -173.103714 
L 365.84376 -172.561954 
L 368.423112 -172.613551 
L 371.002465 -172.48456 
L 373.581818 -171.839609 
L 373.581818 -172.665147 
L 373.581818 -172.665147 
L 371.002465 -173.206906 
L 368.423112 -173.206906 
L 365.84376 -173.052117 
L 363.264407 -173.464886 
L 360.685054 -173.774463 
L 358.105701 -174.084039 
L 355.526348 -174.187231 
L 352.946995 -174.34202 
L 350.367643 -174.832183 
L 347.78829 -174.857981 
L 345.208937 -175.322345 
L 342.629584 -175.65772 
L 340.050231 -175.580326 
L 337.470878 -175.580326 
L 334.891525 -175.889902 
L 332.312173 -176.122085 
L 329.73282 -176.276873 
L 327.153467 -176.354267 
L 324.574114 -176.534854 
L 321.994761 -176.767036 
L 319.415408 -176.870228 
L 316.836055 -177.025016 
L 314.256703 -177.128209 
L 311.67735 -177.282997 
L 309.097997 -177.540977 
L 306.518644 -177.515179 
L 303.939291 -177.411987 
L 301.359938 -177.437785 
L 298.780586 -177.463583 
L 296.201233 -177.515179 
L 293.62188 -177.566775 
L 291.042527 -177.592573 
L 288.463174 -177.618372 
L 285.883821 -177.644169 
L 283.304468 -177.669968 
L 280.725116 -177.721564 
L 278.145763 -177.77316 
L 275.56641 -177.798958 
L 272.987057 -177.824756 
L 270.407704 -177.876352 
L 267.828351 -177.927948 
L 265.248998 -177.979544 
L 262.669646 -178.005342 
L 260.090293 -178.082736 
L 257.51094 -178.134332 
L 254.931587 -178.185928 
L 252.352234 -178.211727 
L 249.772881 -178.289121 
L 247.193529 -178.340717 
L 244.614176 -178.392313 
L 242.034823 -178.443909 
L 239.45547 -178.495505 
L 236.876117 -178.572899 
L 234.296764 -178.624495 
L 231.717411 -178.676091 
L 229.138059 -178.727688 
L 226.558706 -178.805081 
L 223.979353 -178.856678 
L 221.4 -178.934072 
L 218.820647 -178.985668 
L 216.241294 -179.037264 
L 213.661941 -179.08886 
L 211.082589 -179.140456 
L 208.503236 -179.192052 
L 205.923883 -179.269447 
L 203.34453 -179.321042 
L 200.765177 -179.372639 
L 198.185824 -179.450033 
L 195.606471 -179.501629 
L 193.027119 -179.553225 
L 190.447766 -179.630619 
L 187.868413 -179.682215 
L 185.28906 -179.733811 
L 182.709707 -179.785408 
L 180.130354 -179.862801 
L 177.551002 -179.914398 
L 174.971649 -179.965994 
L 172.392296 -180.043388 
L 169.812943 -180.094984 
L 167.23359 -180.172378 
L 164.654237 -180.223974 
L 162.074884 -180.301368 
L 159.495532 -180.352964 
L 156.916179 -180.430359 
L 154.336826 -180.481954 
L 151.757473 -180.533551 
L 149.17812 -180.610945 
L 146.598767 -180.662541 
L 144.019414 -180.739935 
L 141.440062 -180.791531 
L 138.860709 -180.843127 
L 136.281356 -180.920521 
L 133.702003 -180.972117 
L 131.12265 -181.023714 
L 128.543297 -181.101107 
L 125.963945 -181.178502 
L 123.384592 -181.230098 
L 120.805239 -181.281694 
L 118.225886 -181.359088 
L 115.646533 -181.410684 
L 113.06718 -181.462281 
L 110.487827 -181.513876 
L 107.908475 -181.591271 
L 105.329122 -181.642867 
L 102.749769 -181.720261 
L 100.170416 -181.797655 
L 97.591063 -181.849251 
L 95.01171 -181.900847 
L 92.432357 -181.952443 
L 89.853005 -182.004039 
L 87.273652 -182.081434 
L 84.694299 -182.133029 
L 82.114946 -182.210424 
L 79.535593 -182.26202 
L 76.95624 -182.339414 
L 74.376888 -182.39101 
L 71.797535 -182.442606 
L 69.218182 -182.52 
z
" style="stroke: #d3d3ff; stroke-opacity: 0.4"/>
    </defs>
    <g clip-path="url(#p0673904236)">
     <use xlink:href="#m4eed947519" x="0" y="216" style="fill: #d3d3ff; fill-opacity: 0.4; stroke: #d3d3ff; stroke-opacity: 0.4"/>
    </g>
   </g>
   <g id="matplotlib.axis_1">
    <g id="xtick_1">
     <g id="line2d_1">
      <defs>
       <path id="mee6b4962ba" d="M 0 0 
L 0 3.5 
" style="stroke: #000000; stroke-width: 0.8"/>
      </defs>
      <g>
       <use xlink:href="#mee6b4962ba" x="120.805239" y="192.24" style="stroke: #000000; stroke-width: 0.8"/>
      </g>
     </g>
     <g id="text_1">
      <text style="font: 10px 'DejaVu Sans', 'Bitstream Vera Sans', 'Computer Modern Sans Serif', 'Lucida Grande', 'Verdana', 'Geneva', 'Lucid', 'Arial', 'Helvetica', 'Avant Garde', sans-serif; text-anchor: middle" x="120.805239" y="206.838437" transform="rotate(-0 120.805239 206.838437)">1920</text>
     </g>
    </g>
    <g id="xtick_2">
     <g id="line2d_2">
      <g>
       <use xlink:href="#mee6b4962ba" x="198.185824" y="192.24" style="stroke: #000000; stroke-width: 0.8"/>
      </g>
     </g>
     <g id="text_2">
      <text style="font: 10px 'DejaVu Sans', 'Bitstream Vera Sans', 'Computer Modern Sans Serif', 'Lucida Grande', 'Verdana', 'Geneva', 'Lucid', 'Arial', 'Helvetica', 'Avant Garde', sans-serif; text-anchor: middle" x="198.185824" y="206.838437" transform="rotate(-0 198.185824 206.838437)">1950</text>
     </g>
    </g>
    <g id="xtick_3">
     <g id="line2d_3">
      <g>
       <use xlink:href="#mee6b4962ba" x="275.56641" y="192.24" style="stroke: #000000; stroke-width: 0.8"/>
      </g>
     </g>
     <g id="text_3">
      <text style="font: 10px 'DejaVu Sans', 'Bitstream Vera Sans', 'Computer Modern Sans Serif', 'Lucida Grande', 'Verdana', 'Geneva', 'Lucid', 'Arial', 'Helvetica', 'Avant Garde', sans-serif; text-anchor: middle" x="275.56641" y="206.838437" transform="rotate(-0 275.56641 206.838437)">1980</text>
     </g>
    </g>
    <g id="xtick_4">
     <g id="line2d_4">
      <g>
       <use xlink:href="#mee6b4962ba" x="352.946995" y="192.24" style="stroke: #000000; stroke-width: 0.8"/>
      </g>
     </g>
     <g id="text_4">
      <text style="font: 10px 'DejaVu Sans', 'Bitstream Vera Sans', 'Computer Modern Sans Serif', 'Lucida Grande', 'Verdana', 'Geneva', 'Lucid', 'Arial', 'Helvetica', 'Avant Garde', sans-serif; text-anchor: middle" x="352.946995" y="206.838437" transform="rotate(-0 352.946995 206.838437)">2010</text>
     </g>
    </g>
   </g>
   <g id="matplotlib.axis_2">
    <g id="ytick_1">
     <g id="line2d_5">
      <defs>
       <path id="mf254d1f2e0" d="M 0 0 
L -3.5 0 
" style="stroke: #000000; stroke-width: 0.8"/>
      </defs>
      <g>
       <use xlink:href="#mf254d1f2e0" x="54" y="175.485149" style="stroke: #000000; stroke-width: 0.8"/>
      </g>
     </g>
     <g id="text_5">
      <text style="font: 10px 'DejaVu Sans', 'Bitstream Vera Sans', 'Computer Modern Sans Serif', 'Lucida Grande', 'Verdana', 'Geneva', 'Lucid', 'Arial', 'Helvetica', 'Avant Garde', sans-serif; text-anchor: end" x="47" y="179.284368" transform="rotate(-0 47 179.284368)">24.70</text>
     </g>
    </g>
    <g id="ytick_2">
     <g id="line2d_6">
      <g>
       <use xlink:href="#mf254d1f2e0" x="54" y="132.784936" style="stroke: #000000; stroke-width: 0.8"/>
      </g>
     </g>
     <g id="text_6">
      <text style="font: 10px 'DejaVu Sans', 'Bitstream Vera Sans', 'Computer Modern Sans Serif', 'Lucida Grande', 'Verdana', 'Geneva', 'Lucid', 'Arial', 'Helvetica', 'Avant Garde', sans-serif; text-anchor: end" x="47" y="136.584154" transform="rotate(-0 47 136.584154)">24.73</text>
     </g>
    </g>
    <g id="ytick_3">
     <g id="line2d_7">
      <g>
       <use xlink:href="#mf254d1f2e0" x="54" y="90.084722" style="stroke: #000000; stroke-width: 0.8"/>
      </g>
     </g>
     <g id="text_7">
      <text style="font: 10px 'DejaVu Sans', 'Bitstream Vera Sans', 'Computer Modern Sans Serif', 'Lucida Grande', 'Verdana', 'Geneva', 'Lucid', 'Arial', 'Helvetica', 'Avant Garde', sans-serif; text-anchor: end" x="47" y="93.883941" transform="rotate(-0 47 93.883941)">24.76</text>
     </g>
    </g>
    <g id="ytick_4">
     <g id="line2d_8">
      <g>
       <use xlink:href="#mf254d1f2e0" x="54" y="47.384508" style="stroke: #000000; stroke-width: 0.8"/>
      </g>
     </g>
     <g id="text_8">
      <text style="font: 10px 'DejaVu Sans', 'Bitstream Vera Sans', 'Computer Modern Sans Serif', 'Lucida Grande', 'Verdana', 'Geneva', 'Lucid', 'Arial', 'Helvetica', 'Avant Garde', sans-serif; text-anchor: end" x="47" y="51.183727" transform="rotate(-0 47 51.183727)">24.79</text>
     </g>
    </g>
   </g>
   <g id="line2d_9">
    <path d="M 69.218182 36.913796 
L 71.797535 36.94193 
L 74.376888 36.970163 
L 76.95624 36.997909 
L 79.535593 37.025871 
L 82.114946 37.054001 
L 84.694299 37.082134 
L 87.273652 37.110157 
L 89.853005 37.138062 
L 92.432357 37.166161 
L 95.01171 37.194123 
L 97.591063 37.222218 
L 100.170416 37.250244 
L 102.749769 37.278094 
L 105.329122 37.306145 
L 107.908475 37.334169 
L 110.487827 37.362127 
L 113.06718 37.38986 
L 115.646533 37.418186 
L 118.225886 37.446306 
L 120.805239 37.47393 
L 123.384592 37.501937 
L 125.963945 37.530157 
L 128.543297 37.557899 
L 131.12265 37.586208 
L 133.702003 37.613984 
L 136.281356 37.642417 
L 138.860709 37.670085 
L 141.440062 37.697871 
L 144.019414 37.725838 
L 146.598767 37.754041 
L 149.17812 37.781761 
L 151.757473 37.810284 
L 154.336826 37.838066 
L 156.916179 37.866248 
L 159.495532 37.894116 
L 162.074884 37.921996 
L 164.654237 37.949778 
L 167.23359 37.978295 
L 169.812943 38.00604 
L 172.392296 38.034056 
L 174.971649 38.061847 
L 177.551002 38.089851 
L 180.130354 38.118283 
L 182.709707 38.145982 
L 185.28906 38.174123 
L 187.868413 38.202305 
L 190.447766 38.229954 
L 193.027119 38.258179 
L 195.606471 38.28602 
L 198.185824 38.3143 
L 200.765177 38.342067 
L 203.34453 38.370185 
L 205.923883 38.398174 
L 208.503236 38.426026 
L 211.082589 38.454186 
L 213.661941 38.481877 
L 216.241294 38.509849 
L 218.820647 38.538009 
L 221.4 38.56581 
L 223.979353 38.594118 
L 226.558706 38.621535 
L 229.138059 38.650181 
L 231.717411 38.677832 
L 234.296764 38.705684 
L 236.876117 38.733951 
L 239.45547 38.761768 
L 242.034823 38.78974 
L 244.614176 38.818202 
L 247.193529 38.845798 
L 249.772881 38.873544 
L 252.352234 38.901977 
L 254.931587 38.930152 
L 257.51094 38.957896 
L 260.090293 38.985983 
L 262.669646 39.013708 
L 265.248998 39.042071 
L 267.828351 39.069645 
L 270.407704 39.097756 
L 272.987057 39.1258 
L 275.56641 39.153823 
L 278.145763 39.181742 
L 280.725116 39.209969 
L 283.304468 39.237529 
L 285.883821 39.265962 
L 288.463174 39.293502 
L 291.042527 39.321969 
L 293.62188 39.349906 
L 296.201233 39.378002 
L 298.780586 39.405491 
L 301.359938 39.434059 
L 303.939291 39.461558 
L 306.518644 39.380255 
L 309.097997 39.396489 
L 311.67735 39.570547 
L 314.256703 39.696866 
L 316.836055 39.76047 
L 319.415408 39.839997 
L 321.994761 39.929345 
L 324.574114 40.078887 
L 327.153467 40.194678 
L 329.73282 40.275426 
L 332.312173 40.331151 
L 334.891525 40.49165 
L 337.470878 40.739493 
L 340.050231 40.701346 
L 342.629584 40.567047 
L 345.208937 40.860108 
L 347.78829 41.279315 
L 350.367643 41.256352 
L 352.946995 41.691146 
L 355.526348 41.857712 
L 358.105701 42.01032 
L 360.685054 42.369991 
L 363.264407 42.726046 
L 365.84376 43.206667 
L 368.423112 43.108827 
L 371.002465 43.181313 
L 373.581818 43.778591 
" clip-path="url(#p0673904236)" style="fill: none; stroke: #2626ff; stroke-width: 1.5; stroke-linecap: square"/>
   </g>
   <g id="line2d_10">
    <path d="M 69.218182 184.68 
L 71.797535 184.68 
L 74.376888 184.68 
L 76.95624 184.68 
L 79.535593 184.68 
L 82.114946 184.68 
L 84.694299 184.68 
L 87.273652 184.68 
L 89.853005 184.68 
L 92.432357 184.68 
L 95.01171 184.68 
L 97.591063 184.68 
L 100.170416 184.68 
L 102.749769 184.68 
L 105.329122 184.68 
L 107.908475 184.68 
L 110.487827 184.68 
L 113.06718 184.68 
L 115.646533 184.68 
L 118.225886 184.68 
L 120.805239 184.68 
L 123.384592 184.68 
L 125.963945 184.68 
L 128.543297 184.68 
L 131.12265 184.68 
L 133.702003 184.68 
L 136.281356 184.68 
L 138.860709 184.68 
L 141.440062 184.68 
L 144.019414 184.68 
L 146.598767 184.68 
L 149.17812 184.68 
L 151.757473 184.68 
L 154.336826 184.68 
L 156.916179 184.68 
L 159.495532 184.68 
L 162.074884 184.68 
L 164.654237 184.68 
L 167.23359 184.68 
L 169.812943 184.68 
L 172.392296 184.68 
L 174.971649 184.68 
L 177.551002 184.68 
L 180.130354 184.68 
L 182.709707 184.68 
L 185.28906 184.68 
L 187.868413 184.68 
L 190.447766 184.68 
L 193.027119 184.68 
L 195.606471 184.68 
L 198.185824 184.68 
L 200.765177 184.68 
L 203.34453 184.68 
L 205.923883 184.68 
L 208.503236 184.68 
L 211.082589 184.68 
L 213.661941 184.68 
L 216.241294 184.68 
L 218.820647 184.68 
L 221.4 184.68 
L 223.979353 184.68 
L 226.558706 184.68 
L 229.138059 184.68 
L 231.717411 184.68 
L 234.296764 184.68 
L 236.876117 184.68 
L 239.45547 184.68 
L 242.034823 184.68 
L 244.614176 184.68 
L 247.193529 184.68 
L 249.772881 184.68 
L 252.352234 184.68 
L 254.931587 184.68 
L 257.51094 184.68 
L 260.090293 184.68 
L 262.669646 184.68 
L 265.248998 184.68 
L 267.828351 184.68 
L 270.407704 184.68 
L 272.987057 184.68 
L 275.56641 184.68 
L 278.145763 184.68 
L 280.725116 184.68 
L 283.304468 184.68 
L 285.883821 184.68 
L 288.463174 184.68 
L 291.042527 184.68 
L 293.62188 184.68 
L 296.201233 184.68 
L 298.780586 184.68 
L 301.359938 184.68 
L 303.939291 184.68 
L 306.518644 184.68 
L 309.097997 184.68 
L 311.67735 184.68 
L 314.256703 184.68 
L 316.836055 184.68 
L 319.415408 184.68 
L 321.994761 184.68 
L 324.574114 184.68 
L 327.153467 184.68 
L 329.73282 184.68 
L 332.312173 184.68 
L 334.891525 184.68 
L 337.470878 184.68 
L 340.050231 184.68 
L 342.629584 184.68 
L 345.208937 184.68 
L 347.78829 184.68 
L 350.367643 184.68 
L 352.946995 184.68 
L 355.526348 184.68 
L 358.105701 184.68 
L 360.685054 184.68 
L 363.264407 184.68 
L 365.84376 184.68 
L 368.423112 184.68 
L 371.002465 184.68 
L 373.581818 184.68 
" clip-path="url(#p0673904236)" style="fill: none; stroke: #ff0001; stroke-width: 1.5; stroke-linecap: square"/>
   </g>
   <g id="line2d_11">
    <path d="M 198.185824 192.24 
L 198.185824 25.92 
" clip-path="url(#p0673904236)" style="fill: none; stroke-dasharray: 3.7,1.6; stroke-dashoffset: 0; stroke: #808080; stroke-opacity: 0.5"/>
   </g>
   <g id="patch_3">
    <path d="M 54 192.24 
L 54 25.92 
" style="fill: none; stroke: #000000; stroke-width: 0.8; stroke-linejoin: miter; stroke-linecap: square"/>
   </g>
   <g id="patch_4">
    <path d="M 388.8 192.24 
L 388.8 25.92 
" style="fill: none"/>
   </g>
   <g id="patch_5">
    <path d="M 54 192.24 
L 388.8 192.24 
" style="fill: none; stroke: #000000; stroke-width: 0.8; stroke-linejoin: miter; stroke-linecap: square"/>
   </g>
   <g id="patch_6">
    <path d="M 54 25.92 
L 388.8 25.92 
" style="fill: none"/>
   </g>
  </g>
 </g>
 <defs>
  <clipPath id="p0673904236">
   <rect x="54" y="25.92" width="334.8" height="166.32"/>
  </clipPath>
 </defs>
</svg>
