<?xml version="1.0" encoding="utf-8" standalone="no"?>
<!DOCTYPE svg PUBLIC "-//W3C//DTD SVG 1.1//EN"
  "http://www.w3.org/Graphics/SVG/1.1/DTD/svg11.dtd">
<svg xmlns:xlink="http://www.w3.org/1999/xlink" width="1080pt" height="216pt" viewBox="0 0 1080 216" xmlns="http://www.w3.org/2000/svg" version="1.1">
 <metadata>
  <rdf:RDF xmlns:dc="http://purl.org/dc/elements/1.1/" xmlns:cc="http://creativecommons.org/ns#" xmlns:rdf="http://www.w3.org/1999/02/22-rdf-syntax-ns#">
   <cc:Work>
    <dc:type rdf:resource="http://purl.org/dc/dcmitype/StillImage"/>
    <dc:date>2026-01-04T10:00:00.510783</dc:date>
    <dc:format>image/svg+xml</dc:format>
    <dc:creator>
     <cc:Agent>
      <dc:title>Matplotlib v3.8.4, https://matplotlib.org/</dc:title>
     </cc:Agent>
    </dc:creator>
   </cc:Work>
  </rdf:RDF>
 </metadata>
 <defs>
  <style type="text/css">*{stroke-linejoin: round; stroke-linecap: butt}</style>
 </defs>
 <g id="figure_1">
  <g id="patch_1">
   <path d="M 0 216 
L 1080 216 
L 1080 0 
L 0 0 
z
" style="fill: #ffffff"/>
  </g>
  <g id="axes_1">
   <g id="patch_2">
    <path d="M 135 192.24 
L 972 192.24 
L 972 25.92 
L 135 25.92 
z
" style="fill: #ffffff"/>
   </g>
   <g id="PolyCollection_1">
    <defs>
     <path id="m3f13b44e2b" d="M 642.404145 -71.600974 
L 642.404145 -71.600974 
L 633.73057 -54.938374 
L 625.056995 -52.572 
L 616.38342 -57.904044 
L 607.709845 -53.016605 
L 599.036269 -54.433164 
L 590.362694 -60.277184 
L 581.689119 -58.057369 
L 573.015544 -53.927224 
L 564.341969 -54.52539 
L 555.668394 -48.941996 
L 546.994819 -51.99273 
L 538.321244 -47.402871 
L 529.647668 -46.956062 
L 520.974093 -54.493213 
L 512.300518 -53.73912 
L 503.626943 -52.187601 
L 494.953368 -53.629026 
L 486.279793 -51.166836 
L 477.606218 -51.255798 
L 468.932642 -51.417286 
L 460.259067 -48.296595 
L 451.585492 -48.840833 
L 442.911917 -45.357805 
L 434.238342 -49.542511 
L 425.564767 -47.782462 
L 416.891192 -46.036384 
L 408.217617 -49.572338 
L 399.544041 -47.142987 
L 390.870466 -46.230996 
L 382.196891 -44.11673 
L 373.523316 -47.869559 
L 364.849741 -42.100809 
L 356.176166 -46.470963 
L 347.502591 -47.996489 
L 338.829016 -48.003816 
L 330.15544 -46.883272 
L 321.481865 -45.2734 
L 312.80829 -46.994818 
L 304.134715 -49.716133 
L 295.46114 -51.013656 
L 286.787565 -51.771659 
L 278.11399 -49.29068 
L 269.440415 -59.376617 
L 260.766839 -56.420494 
L 252.093264 -55.002941 
L 243.419689 -55.686789 
L 234.746114 -63.08919 
L 226.072539 -59.875729 
L 217.398964 -62.696363 
L 208.725389 -63.734998 
L 200.051813 -60.214873 
L 191.378238 -64.742908 
L 182.704663 -70.829545 
L 174.031088 -78.172145 
L 165.357513 -80.971902 
L 156.683938 -87.945699 
L 148.010363 -92.980201 
L 139.336788 -95.293859 
L 130.663212 -112.105689 
L 121.989637 -109.391061 
L 78.621762 -147.663186 
L 78.621762 -182.52 
L 78.621762 -182.52 
L 121.989637 -177.572996 
L 130.663212 -176.377848 
L 139.336788 -171.812319 
L 148.010363 -165.304324 
L 156.683938 -160.099758 
L 165.357513 -155.952781 
L 174.031088 -150.545101 
L 182.704663 -149.983524 
L 191.378238 -148.849877 
L 200.051813 -144.82714 
L 208.725389 -140.067549 
L 217.398964 -141.2202 
L 226.072539 -142.401574 
L 234.746114 -137.288607 
L 243.419689 -125.200292 
L 252.093264 -127.145819 
L 260.766839 -127.769101 
L 269.440415 -123.996284 
L 278.11399 -117.630212 
L 286.787565 -119.509332 
L 295.46114 -119.243739 
L 304.134715 -119.67218 
L 312.80829 -118.978396 
L 321.481865 -118.904552 
L 330.15544 -117.520215 
L 338.829016 -115.34414 
L 347.502591 -113.581603 
L 356.176166 -112.186634 
L 364.849741 -110.537314 
L 373.523316 -112.96585 
L 382.196891 -116.049976 
L 390.870466 -116.502212 
L 399.544041 -113.015544 
L 408.217617 -113.723093 
L 416.891192 -110.816376 
L 425.564767 -111.150567 
L 434.238342 -108.78015 
L 442.911917 -108.664748 
L 451.585492 -113.872385 
L 460.259067 -113.672907 
L 468.932642 -114.971771 
L 477.606218 -114.570186 
L 486.279793 -111.620571 
L 494.953368 -112.143809 
L 503.626943 -111.563138 
L 512.300518 -111.211261 
L 520.974093 -107.362741 
L 529.647668 -102.1736 
L 538.321244 -105.158508 
L 546.994819 -107.885045 
L 555.668394 -103.732999 
L 564.341969 -106.863328 
L 573.015544 -109.209132 
L 581.689119 -110.666483 
L 590.362694 -105.258598 
L 599.036269 -104.806426 
L 607.709845 -103.285236 
L 616.38342 -108.683544 
L 625.056995 -110.262252 
L 633.73057 -100.30524 
L 642.404145 -71.600974 
z
" style="stroke: #d5dadd; stroke-opacity: 0.4"/>
    </defs>
    <g clip-path="url(#pa75a03632e)">
     <use xlink:href="#m3f13b44e2b" x="0" y="216" style="fill: #d5dadd; fill-opacity: 0.4; stroke: #d5dadd; stroke-opacity: 0.4"/>
    </g>
   </g>
   <g id="PolyCollection_2">
    <defs>
     <path id="mb1d8478ef7" d="M 642.404145 -71.600974 
L 642.404145 -71.600974 
L 633.73057 -70.041407 
L 625.056995 -66.854175 
L 616.38342 -66.10943 
L 607.709845 -66.014829 
L 599.036269 -64.541619 
L 590.362694 -64.120674 
L 581.689119 -68.881005 
L 573.015544 -65.317882 
L 564.341969 -61.875278 
L 555.668394 -65.175535 
L 546.994819 -61.495764 
L 538.321244 -61.914468 
L 529.647668 -60.946389 
L 520.974093 -65.759755 
L 512.300518 -62.279135 
L 503.626943 -57.889376 
L 494.953368 -61.47722 
L 486.279793 -60.284802 
L 477.606218 -60.314 
L 468.932642 -61.570257 
L 460.259067 -58.011248 
L 451.585492 -57.898621 
L 442.911917 -54.692687 
L 434.238342 -55.262675 
L 425.564767 -56.020671 
L 416.891192 -56.275426 
L 408.217617 -57.309378 
L 399.544041 -53.636599 
L 390.870466 -55.015109 
L 382.196891 -54.730941 
L 373.523316 -56.942296 
L 364.849741 -48.864535 
L 356.176166 -54.960033 
L 347.502591 -55.192105 
L 338.829016 -58.154168 
L 330.15544 -55.630727 
L 321.481865 -55.162551 
L 312.80829 -56.529617 
L 304.134715 -57.511984 
L 295.46114 -60.619291 
L 286.787565 -63.304228 
L 278.11399 -61.823843 
L 269.440415 -66.605891 
L 260.766839 -66.749034 
L 252.093264 -63.752769 
L 243.419689 -63.988886 
L 234.746114 -70.346744 
L 226.072539 -66.119684 
L 217.398964 -70.762569 
L 208.725389 -70.787142 
L 200.051813 -69.976565 
L 191.378238 -70.256619 
L 182.704663 -80.89444 
L 174.031088 -84.628129 
L 165.357513 -88.062425 
L 156.683938 -92.859047 
L 148.010363 -99.446197 
L 139.336788 -102.69006 
L 130.663212 -119.499234 
L 121.989637 -116.522955 
L 78.621762 -153.344348 
L 78.621762 -177.873211 
L 78.621762 -177.873211 
L 121.989637 -170.302288 
L 130.663212 -166.589642 
L 139.336788 -161.28238 
L 148.010363 -156.632148 
L 156.683938 -148.624481 
L 165.357513 -141.362022 
L 174.031088 -137.626787 
L 182.704663 -135.750719 
L 191.378238 -133.088679 
L 200.051813 -130.831928 
L 208.725389 -127.051486 
L 217.398964 -124.865573 
L 226.072539 -127.452128 
L 234.746114 -122.625452 
L 243.419689 -111.752108 
L 252.093264 -108.071975 
L 260.766839 -110.118507 
L 269.440415 -105.928272 
L 278.11399 -103.288803 
L 286.787565 -105.4684 
L 295.46114 -103.088386 
L 304.134715 -101.331822 
L 312.80829 -99.188578 
L 321.481865 -96.024927 
L 330.15544 -97.066855 
L 338.829016 -99.159358 
L 347.502591 -94.970954 
L 356.176166 -91.138181 
L 364.849741 -94.198976 
L 373.523316 -95.604535 
L 382.196891 -98.189193 
L 390.870466 -100.807938 
L 399.544041 -97.453716 
L 408.217617 -95.998404 
L 416.891192 -95.333683 
L 425.564767 -90.269275 
L 434.238342 -90.934685 
L 442.911917 -93.793419 
L 451.585492 -95.197113 
L 460.259067 -96.620427 
L 468.932642 -99.829431 
L 477.606218 -99.53221 
L 486.279793 -96.483895 
L 494.953368 -98.466486 
L 503.626943 -96.054787 
L 512.300518 -92.051286 
L 520.974093 -89.18698 
L 529.647668 -84.068618 
L 538.321244 -83.925747 
L 546.994819 -88.776352 
L 555.668394 -90.637762 
L 564.341969 -90.232854 
L 573.015544 -93.578147 
L 581.689119 -89.80047 
L 590.362694 -87.99917 
L 599.036269 -84.772177 
L 607.709845 -82.111924 
L 616.38342 -87.821878 
L 625.056995 -89.6582 
L 633.73057 -88.412929 
L 642.404145 -71.600974 
z
" style="stroke: #a4b9ca; stroke-opacity: 0.4"/>
    </defs>
    <g clip-path="url(#pa75a03632e)">
     <use xlink:href="#mb1d8478ef7" x="0" y="216" style="fill: #a4b9ca; fill-opacity: 0.4; stroke: #a4b9ca; stroke-opacity: 0.4"/>
    </g>
   </g>
   <g id="PolyCollection_3">
    <defs>
     <path id="m57836085ae" d="M 640.235751 -81.951222 
L 640.235751 -76.468992 
L 640.279119 -76.352702 
L 640.322487 -76.253026 
L 640.365855 -76.145042 
L 640.409223 -76.020446 
L 640.452591 -75.862624 
L 640.495959 -75.729722 
L 640.539326 -75.663271 
L 640.582694 -75.563593 
L 640.626062 -75.455611 
L 640.66943 -75.355933 
L 640.712798 -75.231337 
L 640.756166 -75.123354 
L 640.799534 -75.015371 
L 640.842902 -74.865855 
L 640.886269 -74.666502 
L 640.929637 -74.492067 
L 640.973005 -74.309326 
L 641.016373 -74.176423 
L 641.059741 -74.051827 
L 641.103109 -73.968763 
L 641.146477 -73.902312 
L 641.189845 -73.786022 
L 641.233212 -73.619894 
L 641.27658 -73.486991 
L 641.319948 -73.345783 
L 641.363316 -73.196267 
L 641.406684 -73.021833 
L 641.450052 -72.864011 
L 641.49342 -72.697882 
L 641.536788 -72.556674 
L 641.580155 -72.35732 
L 641.623523 -72.257643 
L 641.666891 -72.12474 
L 641.710259 -72.025063 
L 641.753627 -71.883855 
L 641.796995 -71.717727 
L 641.840363 -71.559905 
L 641.883731 -71.418695 
L 641.927098 -71.302406 
L 641.970466 -71.152891 
L 642.013834 -70.995069 
L 642.057202 -70.828941 
L 642.10057 -70.654506 
L 642.143938 -70.480072 
L 642.187306 -70.355475 
L 642.230674 -70.197654 
L 642.274041 -70.039832 
L 642.317409 -69.898623 
L 642.360777 -69.798946 
L 642.404145 -69.632818 
L 644.572539 -69.499915 
L 646.740933 -69.317174 
L 648.909326 -69.167659 
L 651.07772 -69.034756 
L 653.246114 -68.993224 
L 655.414508 -68.81879 
L 657.582902 -68.719113 
L 659.751295 -68.644355 
L 661.919689 -68.61113 
L 664.088083 -68.519759 
L 666.256477 -68.453308 
L 668.42487 -68.320405 
L 670.593264 -68.337018 
L 672.761658 -68.436695 
L 674.930052 -68.453308 
L 677.098446 -68.428389 
L 679.266839 -68.428389 
L 681.435233 -68.37855 
L 683.603627 -68.320405 
L 685.772021 -68.312099 
L 687.940415 -68.253954 
L 690.108808 -68.278873 
L 692.277202 -68.278873 
L 694.445596 -68.253954 
L 696.61399 -68.245648 
L 698.782383 -68.245648 
L 700.950777 -68.17089 
L 703.119171 -68.112745 
L 705.287565 -67.996455 
L 707.455959 -67.971536 
L 709.624352 -67.93831 
L 711.792746 -67.888472 
L 713.96114 -67.896778 
L 716.129534 -67.84694 
L 718.297927 -67.755569 
L 720.466321 -67.705731 
L 722.634715 -67.697425 
L 724.803109 -67.664199 
L 726.971503 -67.606054 
L 729.139896 -67.539603 
L 731.30829 -67.481458 
L 733.476684 -67.448232 
L 735.645078 -67.323636 
L 737.813472 -67.240572 
L 739.981865 -67.165814 
L 742.150259 -67.140895 
L 744.318653 -67.049525 
L 746.487047 -66.958154 
L 748.65544 -66.908316 
L 750.823834 -66.891703 
L 752.992228 -66.841865 
L 755.160622 -66.833558 
L 757.329016 -66.816945 
L 759.497409 -66.700656 
L 761.665803 -66.617591 
L 763.834197 -66.492995 
L 766.002591 -66.385012 
L 768.170984 -66.301948 
L 770.339378 -66.193965 
L 772.507772 -66.044449 
L 774.676166 -65.944772 
L 776.84456 -65.894934 
L 779.012953 -65.745419 
L 781.181347 -65.620822 
L 783.349741 -65.479613 
L 785.518135 -65.363324 
L 787.686528 -65.197196 
L 789.854922 -65.130744 
L 789.854922 -65.28026 
L 789.854922 -65.28026 
L 787.686528 -65.313485 
L 785.518135 -65.446388 
L 783.349741 -65.554371 
L 781.181347 -65.678967 
L 779.012953 -65.803563 
L 776.84456 -65.944772 
L 774.676166 -65.986304 
L 772.507772 -66.085981 
L 770.339378 -66.243803 
L 768.170984 -66.351786 
L 766.002591 -66.451463 
L 763.834197 -66.567753 
L 761.665803 -66.708962 
L 759.497409 -66.800332 
L 757.329016 -66.933235 
L 755.160622 -67.207346 
L 752.992228 -67.365168 
L 750.823834 -67.52299 
L 748.65544 -67.630973 
L 746.487047 -67.780489 
L 744.318653 -67.946617 
L 742.150259 -68.137664 
L 739.981865 -68.229035 
L 737.813472 -68.411776 
L 735.645078 -68.552985 
L 733.476684 -68.694194 
L 731.30829 -68.760645 
L 729.139896 -68.885241 
L 726.971503 -69.059676 
L 724.803109 -69.167659 
L 722.634715 -69.250723 
L 720.466321 -69.325481 
L 718.297927 -69.391932 
L 716.129534 -69.499915 
L 713.96114 -69.624511 
L 711.792746 -69.657737 
L 709.624352 -69.740801 
L 707.455959 -69.790639 
L 705.287565 -69.857091 
L 703.119171 -70.023219 
L 700.950777 -70.147815 
L 698.782383 -70.264105 
L 696.61399 -70.297331 
L 694.445596 -70.363782 
L 692.277202 -70.43854 
L 690.108808 -70.480072 
L 687.940415 -70.546523 
L 685.772021 -70.637893 
L 683.603627 -70.712651 
L 681.435233 -70.812328 
L 679.266839 -70.862166 
L 677.098446 -70.903698 
L 674.930052 -71.003375 
L 672.761658 -71.011682 
L 670.593264 -70.978456 
L 668.42487 -71.06152 
L 666.256477 -71.211036 
L 664.088083 -71.352245 
L 661.919689 -71.485147 
L 659.751295 -71.59313 
L 657.582902 -71.759259 
L 655.414508 -71.958612 
L 653.246114 -72.12474 
L 651.07772 -72.207804 
L 648.909326 -72.349014 
L 646.740933 -72.548367 
L 644.572539 -72.722802 
L 642.404145 -72.855704 
L 642.360777 -73.038445 
L 642.317409 -73.179654 
L 642.274041 -73.345783 
L 642.230674 -73.53683 
L 642.187306 -73.719571 
L 642.143938 -73.910618 
L 642.10057 -74.143198 
L 642.057202 -74.350858 
L 642.013834 -74.541906 
L 641.970466 -74.741259 
L 641.927098 -74.924 
L 641.883731 -75.065209 
L 641.840363 -75.239643 
L 641.796995 -75.430691 
L 641.753627 -75.646658 
L 641.710259 -75.812786 
L 641.666891 -75.962301 
L 641.623523 -76.136736 
L 641.580155 -76.327783 
L 641.536788 -76.576976 
L 641.49342 -76.759716 
L 641.450052 -76.975684 
L 641.406684 -77.199956 
L 641.363316 -77.424229 
L 641.319948 -77.640196 
L 641.27658 -77.831243 
L 641.233212 -78.013985 
L 641.189845 -78.238257 
L 641.146477 -78.371159 
L 641.103109 -78.470837 
L 641.059741 -78.578819 
L 641.016373 -78.744948 
L 640.973005 -78.985834 
L 640.929637 -79.235026 
L 640.886269 -79.450992 
L 640.842902 -79.725104 
L 640.799534 -79.941071 
L 640.756166 -80.08228 
L 640.712798 -80.231795 
L 640.66943 -80.414536 
L 640.626062 -80.530825 
L 640.582694 -80.696954 
L 640.539326 -80.854776 
L 640.495959 -80.987678 
L 640.452591 -81.153806 
L 640.409223 -81.336548 
L 640.365855 -81.510982 
L 640.322487 -81.618965 
L 640.279119 -81.801706 
L 640.235751 -81.951222 
z
" style="stroke: #d3d3ff; stroke-opacity: 0.4"/>
    </defs>
    <g clip-path="url(#pa75a03632e)">
     <use xlink:href="#m57836085ae" x="0" y="216" style="fill: #d3d3ff; fill-opacity: 0.4; stroke: #d3d3ff; stroke-opacity: 0.4"/>
    </g>
   </g>
   <g id="matplotlib.axis_1">
    <g id="xtick_1">
     <g id="line2d_1">
      <defs>
       <path id="mc6446f8eb0" d="M 0 0 
L 0 3.5 
" style="stroke: #000000; stroke-width: 0.8"/>
      </defs>
      <g>
       <use xlink:href="#mc6446f8eb0" x="208.725389" y="192.24" style="stroke: #000000; stroke-width: 0.8"/>
      </g>
     </g>
     <g id="text_1">
      <text style="font: 10px 'DejaVu Sans', 'Bitstream Vera Sans', 'Computer Modern Sans Serif', 'Lucida Grande', 'Verdana', 'Geneva', 'Lucid', 'Arial', 'Helvetica', 'Avant Garde', sans-serif; text-anchor: middle" x="208.725389" y="206.838437" transform="rotate(-0 208.725389 206.838437)">10</text>
     </g>
    </g>
    <g id="xtick_2">
     <g id="line2d_2">
      <g>
       <use xlink:href="#mc6446f8eb0" x="295.46114" y="192.24" style="stroke: #000000; stroke-width: 0.8"/>
      </g>
     </g>
     <g id="text_2">
      <text style="font: 10px 'DejaVu Sans', 'Bitstream Vera Sans', 'Computer Modern Sans Serif', 'Lucida Grande', 'Verdana', 'Geneva', 'Lucid', 'Arial', 'Helvetica', 'Avant Garde', sans-serif; text-anchor: middle" x="295.46114" y="206.838437" transform="rotate(-0 295.46114 206.838437)">8</text>
     </g>
    </g>
    <g id="xtick_3">
     <g id="line2d_3">
      <g>
       <use xlink:href="#mc6446f8eb0" x="382.196891" y="192.24" style="stroke: #000000; stroke-width: 0.8"/>
      </g>
     </g>
     <g id="text_3">
      <text style="font: 10px 'DejaVu Sans', 'Bitstream Vera Sans', 'Computer Modern Sans Serif', 'Lucida Grande', 'Verdana', 'Geneva', 'Lucid', 'Arial', 'Helvetica', 'Avant Garde', sans-serif; text-anchor: middle" x="382.196891" y="206.838437" transform="rotate(-0 382.196891 206.838437)">6</text>
     </g>
    </g>
    <g id="xtick_4">
     <g id="line2d_4">
      <g>
       <use xlink:href="#mc6446f8eb0" x="468.932642" y="192.24" style="stroke: #000000; stroke-width: 0.8"/>
      </g>
     </g>
     <g id="text_4">
      <text style="font: 10px 'DejaVu Sans', 'Bitstream Vera Sans', 'Computer Modern Sans Serif', 'Lucida Grande', 'Verdana', 'Geneva', 'Lucid', 'Arial', 'Helvetica', 'Avant Garde', sans-serif; text-anchor: middle" x="468.932642" y="206.838437" transform="rotate(-0 468.932642 206.838437)">4</text>
     </g>
    </g>
    <g id="xtick_5">
     <g id="line2d_5">
      <g>
       <use xlink:href="#mc6446f8eb0" x="555.668394" y="192.24" style="stroke: #000000; stroke-width: 0.8"/>
      </g>
     </g>
     <g id="text_5">
      <text style="font: 10px 'DejaVu Sans', 'Bitstream Vera Sans', 'Computer Modern Sans Serif', 'Lucida Grande', 'Verdana', 'Geneva', 'Lucid', 'Arial', 'Helvetica', 'Avant Garde', sans-serif; text-anchor: middle" x="555.668394" y="206.838437" transform="rotate(-0 555.668394 206.838437)">2</text>
     </g>
    </g>
    <g id="xtick_6">
     <g id="line2d_6">
      <g>
       <use xlink:href="#mc6446f8eb0" x="642.404145" y="192.24" style="stroke: #000000; stroke-width: 0.8"/>
      </g>
     </g>
     <g id="text_6">
      <text style="font: 10px 'DejaVu Sans', 'Bitstream Vera Sans', 'Computer Modern Sans Serif', 'Lucida Grande', 'Verdana', 'Geneva', 'Lucid', 'Arial', 'Helvetica', 'Avant Garde', sans-serif; text-anchor: middle" x="642.404145" y="206.838437" transform="rotate(-0 642.404145 206.838437)">1950</text>
     </g>
    </g>
    <g id="xtick_7">
     <g id="line2d_7">
      <g>
       <use xlink:href="#mc6446f8eb0" x="707.455959" y="192.24" style="stroke: #000000; stroke-width: 0.8"/>
      </g>
     </g>
     <g id="text_7">
      <text style="font: 10px 'DejaVu Sans', 'Bitstream Vera Sans', 'Computer Modern Sans Serif', 'Lucida Grande', 'Verdana', 'Geneva', 'Lucid', 'Arial', 'Helvetica', 'Avant Garde', sans-serif; text-anchor: middle" x="707.455959" y="206.838437" transform="rotate(-0 707.455959 206.838437)">1980</text>
     </g>
    </g>
    <g id="xtick_8">
     <g id="line2d_8">
      <g>
       <use xlink:href="#mc6446f8eb0" x="750.823834" y="192.24" style="stroke: #000000; stroke-width: 0.8"/>
      </g>
     </g>
     <g id="text_8">
      <text style="font: 10px 'DejaVu Sans', 'Bitstream Vera Sans', 'Computer Modern Sans Serif', 'Lucida Grande', 'Verdana', 'Geneva', 'Lucid', 'Arial', 'Helvetica', 'Avant Garde', sans-serif; text-anchor: middle" x="750.823834" y="206.838437" transform="rotate(-0 750.823834 206.838437)">2000</text>
     </g>
    </g>
    <g id="xtick_9">
     <g id="line2d_9">
      <g>
       <use xlink:href="#mc6446f8eb0" x="794.19171" y="192.24" style="stroke: #000000; stroke-width: 0.8"/>
      </g>
     </g>
     <g id="text_9">
      <text style="font: 10px 'DejaVu Sans', 'Bitstream Vera Sans', 'Computer Modern Sans Serif', 'Lucida Grande', 'Verdana', 'Geneva', 'Lucid', 'Arial', 'Helvetica', 'Avant Garde', sans-serif; text-anchor: middle" x="794.19171" y="206.838437" transform="rotate(-0 794.19171 206.838437)">2020</text>
     </g>
    </g>
   </g>
   <g id="matplotlib.axis_2">
    <g id="ytick_1">
     <g id="line2d_10">
      <defs>
       <path id="meef3dca1da" d="M 0 0 
L -3.5 0 
" style="stroke: #000000; stroke-width: 0.8"/>
      </defs>
      <g>
       <use xlink:href="#meef3dca1da" x="135" y="190.260361" style="stroke: #000000; stroke-width: 0.8"/>
      </g>
     </g>
     <g id="text_10">
      <text style="font: 10px 'DejaVu Sans', 'Bitstream Vera Sans', 'Computer Modern Sans Serif', 'Lucida Grande', 'Verdana', 'Geneva', 'Lucid', 'Arial', 'Helvetica', 'Avant Garde', sans-serif; text-anchor: end" x="128" y="194.05958" transform="rotate(-0 128 194.05958)">0.0</text>
     </g>
    </g>
    <g id="ytick_2">
     <g id="line2d_11">
      <g>
       <use xlink:href="#meef3dca1da" x="135" y="144.4319" style="stroke: #000000; stroke-width: 0.8"/>
      </g>
     </g>
     <g id="text_11">
      <text style="font: 10px 'DejaVu Sans', 'Bitstream Vera Sans', 'Computer Modern Sans Serif', 'Lucida Grande', 'Verdana', 'Geneva', 'Lucid', 'Arial', 'Helvetica', 'Avant Garde', sans-serif; text-anchor: end" x="128" y="148.231118" transform="rotate(-0 128 148.231118)">0.1</text>
     </g>
    </g>
    <g id="ytick_3">
     <g id="line2d_12">
      <g>
       <use xlink:href="#meef3dca1da" x="135" y="98.603438" style="stroke: #000000; stroke-width: 0.8"/>
      </g>
     </g>
     <g id="text_12">
      <text style="font: 10px 'DejaVu Sans', 'Bitstream Vera Sans', 'Computer Modern Sans Serif', 'Lucida Grande', 'Verdana', 'Geneva', 'Lucid', 'Arial', 'Helvetica', 'Avant Garde', sans-serif; text-anchor: end" x="128" y="102.402657" transform="rotate(-0 128 102.402657)">0.2</text>
     </g>
    </g>
    <g id="ytick_4">
     <g id="line2d_13">
      <g>
       <use xlink:href="#meef3dca1da" x="135" y="52.774977" style="stroke: #000000; stroke-width: 0.8"/>
      </g>
     </g>
     <g id="text_13">
      <text style="font: 10px 'DejaVu Sans', 'Bitstream Vera Sans', 'Computer Modern Sans Serif', 'Lucida Grande', 'Verdana', 'Geneva', 'Lucid', 'Arial', 'Helvetica', 'Avant Garde', sans-serif; text-anchor: end" x="128" y="56.574196" transform="rotate(-0 128 56.574196)">0.3</text>
     </g>
    </g>
    <g id="text_14">
     <text style="font: 10px 'Times New Roman'; text-anchor: middle" x="105.957812" y="109.08" transform="rotate(-90 105.957812 109.08)">Ice volume (10^6 Gt)</text>
    </g>
   </g>
   <g id="line2d_14">
    <path d="M 642.404145 144.399026 
L 633.73057 144.795277 
L 625.056995 147.786632 
L 616.38342 147.924507 
L 607.709845 147.486388 
L 599.036269 148.519333 
L 590.362694 149.901226 
L 581.689119 145.317947 
L 573.015544 148.796809 
L 564.341969 151.723422 
L 555.668394 148.882799 
L 546.994819 152.304406 
L 538.321244 151.99157 
L 529.647668 152.882134 
L 520.974093 148.087167 
L 512.300518 151.554843 
L 503.626943 146.157671 
L 494.953368 145.051321 
L 486.279793 143.631454 
L 477.606218 142.883436 
L 468.932642 143.63867 
L 460.259067 142.583572 
L 451.585492 145.987962 
L 442.911917 148.121013 
L 434.238342 148.393289 
L 425.564767 148.468295 
L 416.891192 147.328318 
L 408.217617 149.256751 
L 399.544041 148.723368 
L 390.870466 148.865603 
L 382.196891 148.182983 
L 373.523316 147.125235 
L 364.849741 154.46355 
L 356.176166 149.136723 
L 347.502591 146.565433 
L 338.829016 145.591268 
L 330.15544 146.499947 
L 321.481865 147.756391 
L 312.80829 145.092471 
L 304.134715 145.556905 
L 295.46114 143.656782 
L 286.787565 141.099027 
L 278.11399 140.732241 
L 269.440415 137.616612 
L 260.766839 135.486139 
L 252.093264 139.942773 
L 243.419689 138.409925 
L 234.746114 133.601159 
L 226.072539 132.278707 
L 217.398964 130.877097 
L 208.725389 130.169322 
L 200.051813 130.447287 
L 191.378238 128.818366 
L 182.704663 119.417887 
L 174.031088 113.414801 
L 165.357513 112.350746 
L 156.683938 107.194837 
L 148.010363 99.228747 
L 139.336788 95.006559 
L 130.663212 81.460085 
L 121.989637 79.404211 
L 78.621762 52.7712 
" clip-path="url(#pa75a03632e)" style="fill: none; stroke: #0b0b0b; stroke-width: 1.5; stroke-linecap: square"/>
   </g>
   <g id="line2d_15">
    <path d="M 640.235751 136.697909 
L 640.279119 136.839098 
L 640.322487 136.981998 
L 640.365855 137.076947 
L 640.409223 137.216719 
L 640.452591 137.382123 
L 640.495959 137.514991 
L 640.539326 137.623315 
L 640.582694 137.754524 
L 640.626062 137.878596 
L 640.66943 137.994141 
L 640.712798 138.141849 
L 640.756166 138.266532 
L 640.799534 138.380221 
L 640.842902 138.568309 
L 640.886269 138.82575 
L 640.929637 138.992043 
L 640.973005 139.190404 
L 641.016373 139.36464 
L 641.059741 139.508753 
L 641.103109 139.595524 
L 641.146477 139.697475 
L 641.189845 139.821019 
L 641.233212 140.018867 
L 641.27658 140.17515 
L 641.319948 140.33025 
L 641.363316 140.506811 
L 641.406684 140.694921 
L 641.450052 140.864805 
L 641.49342 141.02678 
L 641.536788 141.186488 
L 641.580155 141.405156 
L 641.623523 141.559873 
L 641.666891 141.710779 
L 641.710259 141.833356 
L 641.753627 141.979443 
L 641.796995 142.157021 
L 641.840363 142.31319 
L 641.883731 142.475865 
L 641.927098 142.605546 
L 641.970466 142.763477 
L 642.013834 142.935846 
L 642.057202 143.092273 
L 642.10057 143.272915 
L 642.143938 143.465779 
L 642.187306 143.631935 
L 642.230674 143.787 
L 642.274041 143.959662 
L 642.317409 144.111471 
L 642.360777 144.214391 
L 642.404145 144.399026 
L 644.572539 144.528263 
L 646.740933 144.68222 
L 648.909326 144.848469 
L 651.07772 144.984082 
L 653.246114 145.061323 
L 655.414508 145.211815 
L 657.582902 145.375409 
L 659.751295 145.498997 
L 661.919689 145.589892 
L 664.088083 145.713909 
L 666.256477 145.838123 
L 668.42487 145.975963 
L 670.593264 146.035763 
L 672.761658 146.035343 
L 674.930052 146.056549 
L 677.098446 146.116512 
L 679.266839 146.171667 
L 681.435233 146.206824 
L 683.603627 146.285161 
L 685.772021 146.333773 
L 687.940415 146.411485 
L 690.108808 146.418382 
L 692.277202 146.46389 
L 694.445596 146.531696 
L 696.61399 146.58412 
L 698.782383 146.605148 
L 700.950777 146.698046 
L 703.119171 146.798677 
L 705.287565 146.902246 
L 707.455959 146.975625 
L 709.624352 147.050718 
L 711.792746 147.113519 
L 713.96114 147.15468 
L 716.129534 147.253131 
L 718.297927 147.342741 
L 720.466321 147.400664 
L 722.634715 147.453765 
L 724.803109 147.530769 
L 726.971503 147.618752 
L 729.139896 147.762446 
L 731.30829 147.873956 
L 733.476684 147.902381 
L 735.645078 148.026725 
L 737.813472 148.142378 
L 739.981865 148.27955 
L 742.150259 148.3227 
L 744.318653 148.437946 
L 746.487047 148.590809 
L 748.65544 148.690053 
L 750.823834 148.772927 
L 752.992228 148.871241 
L 755.160622 148.974429 
L 757.329016 149.124412 
L 759.497409 149.253091 
L 761.665803 149.340532 
L 763.834197 149.474734 
L 766.002591 149.585561 
L 768.170984 149.673356 
L 770.339378 149.779534 
L 772.507772 149.931315 
L 774.676166 150.035964 
L 776.84456 150.08025 
L 779.012953 150.224255 
L 781.181347 150.347248 
L 783.349741 150.477635 
L 785.518135 150.594816 
L 787.686528 150.742321 
L 789.854922 150.789853 
" clip-path="url(#pa75a03632e)" style="fill: none; stroke: #2626ff; stroke-width: 1.5; stroke-linecap: square"/>
   </g>
   <g id="LineCollection_1">
    <path d="M 789.854922 184.68 
L 789.854922 157.933364 
" clip-path="url(#pa75a03632e)" style="fill: none; stroke: #d57eeb; stroke-width: 2"/>
   </g>
   <g id="line2d_16">
    <defs>
     <path id="m8e217c0980" d="M 5 0 
L -5 -0 
" style="stroke: #d57eeb"/>
    </defs>
    <g clip-path="url(#pa75a03632e)">
     <use xlink:href="#m8e217c0980" x="789.854922" y="184.68" style="fill: #d57eeb; stroke: #d57eeb"/>
    </g>
   </g>
   <g id="line2d_17">
    <g clip-path="url(#pa75a03632e)">
     <use xlink:href="#m8e217c0980" x="789.854922" y="157.933364" style="fill: #d57eeb; stroke: #d57eeb"/>
    </g>
   </g>
   <g id="line2d_18">
    <path d="M 644.572539 152.038495 
L 789.854922 152.038495 
L 78.621762 152.038495 
L 78.621762 152.038495 
" clip-path="url(#pa75a03632e)" style="fill: none; stroke: #ff0001; stroke-width: 1.5; stroke-linecap: square"/>
   </g>
   <g id="line2d_19">
    <path d="M 642.404145 192.24 
L 642.404145 25.92 
" clip-path="url(#pa75a03632e)" style="fill: none; stroke-dasharray: 3.7,1.6; stroke-dashoffset: 0; stroke: #808080; stroke-opacity: 0.5"/>
   </g>
   <g id="patch_3">
    <path d="M 135 192.24 
L 135 25.92 
" style="fill: none; stroke: #000000; stroke-width: 0.8; stroke-linejoin: miter; stroke-linecap: square"/>
   </g>
   <g id="patch_4">
    <path d="M 972 192.24 
L 972 25.92 
" style="fill: none"/>
   </g>
   <g id="patch_5">
    <path d="M 135 192.24 
L 972 192.24 
" style="fill: none; stroke: #000000; stroke-width: 0.8; stroke-linejoin: miter; stroke-linecap: square"/>
   </g>
   <g id="patch_6">
    <path d="M 135 25.92 
L 972 25.92 
" style="fill: none"/>
   </g>
   <g id="legend_1">
    <g id="patch_7">
     <path d="M 730.498438 42.518438 
L 750.498438 42.518438 
L 750.498438 35.518438 
L 730.498438 35.518438 
z
" style="fill: #d5dadd; fill-opacity: 0.4; stroke: #d5dadd; stroke-opacity: 0.4; stroke-linejoin: miter"/>
    </g>
    <g id="text_15">
     <text style="font: 10px 'DejaVu Sans', 'Bitstream Vera Sans', 'Computer Modern Sans Serif', 'Lucida Grande', 'Verdana', 'Geneva', 'Lucid', 'Arial', 'Helvetica', 'Avant Garde', sans-serif; text-anchor: start" x="758.498438" y="42.518438" transform="rotate(-0 758.498438 42.518438)">90% credible interval</text>
    </g>
    <g id="patch_8">
     <path d="M 730.498438 57.196563 
L 750.498438 57.196563 
L 750.498438 50.196563 
L 730.498438 50.196563 
z
" style="fill: #a4b9ca; fill-opacity: 0.4; stroke: #a4b9ca; stroke-opacity: 0.4; stroke-linejoin: miter"/>
    </g>
    <g id="text_16">
     <text style="font: 10px 'DejaVu Sans', 'Bitstream Vera Sans', 'Computer Modern Sans Serif', 'Lucida Grande', 'Verdana', 'Geneva', 'Lucid', 'Arial', 'Helvetica', 'Avant Garde', sans-serif; text-anchor: start" x="758.498438" y="57.196563" transform="rotate(-0 758.498438 57.196563)">66% credible interval</text>
    </g>
    <g id="line2d_20">
     <path d="M 730.498438 68.374687 
L 740.498438 68.374687 
L 750.498438 68.374687 
" style="fill: none; stroke: #0b0b0b; stroke-width: 1.5; stroke-linecap: square"/>
    </g>
    <g id="text_17">
     <text style="font: 10px 'DejaVu Sans', 'Bitstream Vera Sans', 'Computer Modern Sans Serif', 'Lucida Grande', 'Verdana', 'Geneva', 'Lucid', 'Arial', 'Helvetica', 'Avant Garde', sans-serif; text-anchor: start" x="758.498438" y="71.874687" transform="rotate(-0 758.498438 71.874687)">Creel et al. (2023)</text>
    </g>
    <g id="line2d_21">
     <path d="M 730.498438 83.052813 
L 740.498438 83.052813 
L 750.498438 83.052813 
" style="fill: none; stroke: #2626ff; stroke-width: 1.5; stroke-linecap: square"/>
    </g>
    <g id="text_18">
     <text style="font: 10px 'DejaVu Sans', 'Bitstream Vera Sans', 'Computer Modern Sans Serif', 'Lucida Grande', 'Verdana', 'Geneva', 'Lucid', 'Arial', 'Helvetica', 'Avant Garde', sans-serif; text-anchor: start" x="758.498438" y="86.552813" transform="rotate(-0 758.498438 86.552813)">Frederikse et al. (2020)</text>
    </g>
    <g id="patch_9">
     <path d="M 730.498438 101.230938 
L 750.498438 101.230938 
L 750.498438 94.230938 
L 730.498438 94.230938 
z
" style="fill: #d3d3ff; fill-opacity: 0.4; stroke: #d3d3ff; stroke-opacity: 0.4; stroke-linejoin: miter"/>
    </g>
    <g id="text_19">
     <text style="font: 10px 'DejaVu Sans', 'Bitstream Vera Sans', 'Computer Modern Sans Serif', 'Lucida Grande', 'Verdana', 'Geneva', 'Lucid', 'Arial', 'Helvetica', 'Avant Garde', sans-serif; text-anchor: start" x="758.498438" y="101.230938" transform="rotate(-0 758.498438 101.230938)">90% credible interval</text>
    </g>
    <g id="line2d_22">
     <path d="M 730.498438 112.409063 
L 740.498438 112.409063 
L 750.498438 112.409063 
" style="fill: none; stroke: #ff0001; stroke-width: 1.5; stroke-linecap: square"/>
    </g>
    <g id="text_20">
     <text style="font: 10px 'DejaVu Sans', 'Bitstream Vera Sans', 'Computer Modern Sans Serif', 'Lucida Grande', 'Verdana', 'Geneva', 'Lucid', 'Arial', 'Helvetica', 'Avant Garde', sans-serif; text-anchor: start" x="758.498438" y="115.909063" transform="rotate(-0 758.498438 115.909063)">Holocene Baseline 95%</text>
    </g>
    <g id="LineCollection_2">
     <path d="M 740.498438 132.087187 
L 740.498438 122.087187 
" style="fill: none; stroke: #d57eeb; stroke-width: 2"/>
    </g>
    <g id="line2d_23">
     <g>
      <use xlink:href="#m8e217c0980" x="740.498438" y="132.087187" style="fill: #d57eeb; stroke: #d57eeb"/>
     </g>
    </g>
    <g id="line2d_24">
     <g>
      <use xlink:href="#m8e217c0980" x="740.498438" y="122.087187" style="fill: #d57eeb; stroke: #d57eeb"/>
     </g>
    </g>
    <g id="text_21">
     <text style="font: 10px 'DejaVu Sans', 'Bitstream Vera Sans', 'Computer Modern Sans Serif', 'Lucida Grande', 'Verdana', 'Geneva', 'Lucid', 'Arial', 'Helvetica', 'Avant Garde', sans-serif; text-anchor: start" x="758.498438" y="130.587187" transform="rotate(-0 758.498438 130.587187)">Committed change with credible interval</text>
    </g>
   </g>
  </g>
 </g>
 <defs>
  <clipPath id="pa75a03632e">
   <rect x="135" y="25.92" width="837" height="166.32"/>
  </clipPath>
 </defs>
</svg>
