<?xml version="1.0" encoding="utf-8" standalone="no"?>
<!DOCTYPE svg PUBLIC "-//W3C//DTD SVG 1.1//EN"
  "http://www.w3.org/Graphics/SVG/1.1/DTD/svg11.dtd">
<svg xmlns:xlink="http://www.w3.org/1999/xlink" width="1080pt" height="216pt" viewBox="0 0 1080 216" xmlns="http://www.w3.org/2000/svg" version="1.1">
 <metadata>
  <rdf:RDF xmlns:dc="http://purl.org/dc/elements/1.1/" xmlns:cc="http://creativecommons.org/ns#" xmlns:rdf="http://www.w3.org/1999/02/22-rdf-syntax-ns#">
   <cc:Work>
    <dc:type rdf:resource="http://purl.org/dc/dcmitype/StillImage"/>
    <dc:date>2026-01-03T22:31:37.477309</dc:date>
    <dc:format>image/svg+xml</dc:format>
    <dc:creator>
     <cc:Agent>
      <dc:title>Matplotlib v3.8.4, https://matplotlib.org/</dc:title>
     </cc:Agent>
    </dc:creator>
   </cc:Work>
  </rdf:RDF>
 </metadata>
 <defs>
  <style type="text/css">*{stroke-linejoin: round; stroke-linecap: butt}</style>
 </defs>
 <g id="figure_1">
  <g id="patch_1">
   <path d="M 0 216 
L 1080 216 
L 1080 0 
L 0 0 
z
" style="fill: #ffffff"/>
  </g>
  <g id="axes_1">
   <g id="patch_2">
    <path d="M 135 192.24 
L 972 192.24 
L 972 25.92 
L 135 25.92 
z
" style="fill: #ffffff"/>
   </g>
   <g id="PolyCollection_1">
    <path d="M 643.194084 145.193152 
L 643.194084 145.193152 
L 634.507006 145.640437 
L 625.819927 146.087722 
L 617.132849 146.535006 
L 608.445771 146.781811 
L 599.758692 146.879425 
L 591.071614 147.164987 
L 582.384536 147.450548 
L 573.697457 147.568728 
L 565.010379 147.519526 
L 556.3233 147.660591 
L 547.636222 147.869291 
L 538.949144 148.133757 
L 530.262065 148.380867 
L 521.574987 148.543375 
L 512.887909 148.705881 
L 504.20083 148.655973 
L 495.513752 148.606064 
L 486.826674 148.639588 
L 478.139595 148.756545 
L 469.452517 148.8735 
L 460.765439 149.084031 
L 452.07836 149.294561 
L 443.391282 149.696008 
L 434.704203 150.288376 
L 426.017125 150.880742 
L 417.330047 150.442766 
L 408.642968 150.004788 
L 399.95589 149.023551 
L 391.268812 148.75397 
L 382.581733 148.984185 
L 373.894655 149.602249 
L 365.207577 150.220312 
L 356.520498 150.534617 
L 347.83342 150.545164 
L 339.146341 150.555711 
L 330.459263 149.867809 
L 321.772185 149.179909 
L 313.085106 147.865625 
L 304.398028 145.924961 
L 295.71095 143.984297 
L 287.023871 133.495117 
L 278.336793 132.82196 
L 269.649715 131.998031 
L 260.962636 131.023327 
L 252.275558 130.048625 
L 243.58848 128.747541 
L 234.901401 127.446462 
L 226.214323 126.371691 
L 217.527244 125.52323 
L 208.840166 124.674768 
L 200.153088 123.194 
L 191.466009 121.713231 
L 182.778931 120.150413 
L 174.091853 118.505543 
L 165.404774 116.860679 
L 156.717696 114.670331 
L 148.030618 112.479974 
L 139.343539 110.27187 
L 130.656461 108.046016 
L 121.969382 105.820165 
L 113.282304 100.887852 
L 104.595226 95.955545 
L 95.908147 90.574508 
L 87.221069 84.744739 
L 78.533991 79.056407 
L 69.846912 79.364648 
L 61.159834 79.672906 
L 52.472756 80.116434 
L 43.785677 80.695254 
L 35.098599 81.274102 
L 26.41152 78.941514 
L 17.724442 76.191347 
L 9.037364 76.287179 
L 0.350285 78.253748 
L -8.336793 80.220324 
L -17.023871 81.654347 
L -25.71095 83.088347 
L -34.398028 84.522347 
L -43.085106 85.956365 
L -51.772185 87.390382 
L -60.459263 88.502083 
L -69.146341 89.613772 
L -77.83342 90.557579 
L -86.520498 91.278845 
L -95.207577 92.000116 
L -103.894655 92.734806 
L -112.581733 93.469501 
L -121.268812 94.014682 
L -129.95589 94.370367 
L -138.642968 94.726063 
L -147.330047 94.920978 
L -156.017125 95.115899 
L -164.704203 95.304329 
L -173.391282 95.486275 
L -182.07836 95.668239 
L -190.765439 95.802666 
L -199.452517 95.937094 
L -208.139595 96.059694 
L -216.826674 96.170432 
L -225.513752 96.281181 
L -234.20083 96.466799 
L -242.887909 96.652423 
L -251.574987 96.773962 
L -260.262065 96.831418 
L -268.949144 96.88887 
L -277.636222 96.935818 
L -286.3233 96.958635 
L -295.010379 96.638745 
L -303.697457 96.318855 
L -312.384536 95.998971 
L -321.071614 95.50872 
L -329.758692 95.018435 
L -338.445771 94.528168 
L -347.132849 94.0379 
L -355.819927 93.547644 
L -364.507006 93.519417 
L -373.194084 93.491191 
L -381.881162 93.462965 
L -390.568241 93.434739 
L -399.255319 93.406512 
L -407.942398 93.091528 
L -416.629476 92.776525 
L -425.316554 92.461535 
L -434.003633 92.146539 
L -442.690711 91.831571 
L -451.377789 91.404742 
L -460.064868 90.977907 
L -468.751946 90.551078 
L -477.439024 90.124254 
L -486.126103 89.697408 
L -494.813181 89.196966 
L -503.500259 88.69652 
L -512.187338 88.196078 
L -520.874416 87.695626 
L -529.561495 87.19519 
L -538.248573 86.829696 
L -546.935651 86.464195 
L -555.62273 86.098689 
L -564.309808 85.733206 
L -572.996886 85.795359 
L -581.683965 85.740221 
L -590.371043 85.685094 
L -599.058121 85.563526 
L -607.7452 85.375539 
L -616.432278 85.187529 
L -625.119357 85.235019 
L -633.806435 85.282502 
L -642.493513 85.455578 
L -651.180592 85.754204 
L -659.86767 86.121451 
L -746.738454 86.936012 
L -833.609237 86.03536 
L -920.480021 85.24657 
L -1007.350804 84.488628 
L -1094.221588 87.098632 
L -1181.092372 87.969352 
L -1267.963155 87.421738 
L -1354.833939 87.493713 
L -1441.704722 89.802255 
L -1528.575506 89.430172 
L -1615.44629 88.656356 
L -1702.317073 87.37407 
L -1789.187857 90.710602 
L -1876.05864 91.906393 
L -1962.929424 94.787236 
L -2049.800208 99.254135 
L -2136.670991 102.263976 
L -2223.541775 106.529112 
L -2310.412558 112.001257 
L -2397.283342 116.879472 
L -2484.154126 120.715217 
L -2571.024909 121.000247 
L -2657.895693 124.567452 
L -2744.766476 123.523382 
L -2831.63726 120.673993 
L -2831.63726 68.143796 
L -2831.63726 68.143796 
L -2744.766476 68.734934 
L -2657.895693 70.841816 
L -2571.024909 68.568187 
L -2484.154126 68.480073 
L -2397.283342 65.701881 
L -2310.412558 64.972408 
L -2223.541775 62.688652 
L -2136.670991 60.987468 
L -2049.800208 59.373037 
L -1962.929424 54.757419 
L -1876.05864 52.306016 
L -1789.187857 53.16741 
L -1702.317073 50.440812 
L -1615.44629 50.466376 
L -1528.575506 51.889551 
L -1441.704722 53.81481 
L -1354.833939 52.447494 
L -1267.963155 54.883886 
L -1181.092372 56.142569 
L -1094.221588 57.50807 
L -1007.350804 54.829123 
L -920.480021 55.647177 
L -833.609237 56.869956 
L -746.738454 57.993841 
L -659.86767 57.001173 
L -651.180592 56.658204 
L -642.493513 56.315252 
L -633.806435 56.095898 
L -625.119357 56.0001 
L -616.432278 55.904326 
L -607.7452 56.036546 
L -599.058121 56.168766 
L -590.371043 56.298744 
L -581.683965 56.426434 
L -572.996886 56.554175 
L -564.309808 56.41426 
L -555.62273 56.274368 
L -546.935651 56.23813 
L -538.248573 56.305534 
L -529.561495 56.372944 
L -520.874416 56.176594 
L -512.187338 55.980278 
L -503.500259 55.839014 
L -494.813181 55.752814 
L -486.126103 55.666619 
L -477.439024 55.668336 
L -468.751946 55.670077 
L -460.064868 55.609256 
L -451.377789 55.485918 
L -442.690711 55.362563 
L -434.003633 55.478355 
L -425.316554 55.594188 
L -416.629476 55.673138 
L -407.942398 55.715278 
L -399.255319 55.757402 
L -390.568241 55.557057 
L -381.881162 55.356741 
L -373.194084 55.216653 
L -364.507006 55.136822 
L -355.819927 55.056996 
L -347.132849 55.335783 
L -338.445771 55.614576 
L -329.758692 55.881731 
L -321.071614 56.137283 
L -312.384536 56.392824 
L -303.697457 56.53735 
L -295.010379 56.6819 
L -286.3233 56.797652 
L -277.636222 56.884579 
L -268.949144 56.971523 
L -260.262065 56.91684 
L -251.574987 56.86218 
L -242.887909 56.794274 
L -234.20083 56.713123 
L -225.513752 56.631966 
L -216.826674 56.57809 
L -208.139595 56.52422 
L -199.452517 56.40611 
L -190.765439 56.223732 
L -182.07836 56.04137 
L -173.391282 55.928563 
L -164.704203 55.815751 
L -156.017125 55.641177 
L -147.330047 55.404864 
L -138.642968 55.168524 
L -129.95589 54.696084 
L -121.268812 54.223627 
L -112.581733 53.655689 
L -103.894655 52.992254 
L -95.207577 52.328802 
L -86.520498 51.551942 
L -77.83342 50.775078 
L -69.146341 49.934181 
L -60.459263 49.029246 
L -51.772185 48.124282 
L -43.085106 47.074867 
L -34.398028 46.025429 
L -25.71095 44.92144 
L -17.023871 43.762809 
L -8.336793 42.604224 
L 0.350285 42.61476 
L 9.037364 42.744358 
L 17.724442 43.762071 
L 26.41152 45.667831 
L 35.098599 47.033239 
L 43.785677 46.406336 
L 52.472756 45.779456 
L 61.159834 45.45062 
L 69.846912 45.419864 
L 78.533991 45.389119 
L 87.221069 45.267729 
L 95.908147 45.146374 
L 104.595226 44.847546 
L 113.282304 44.371256 
L 121.969382 43.895035 
L 130.656461 43.536515 
L 139.343539 43.178017 
L 148.030618 43.018574 
L 156.717696 43.058184 
L 165.404774 43.097852 
L 174.091853 44.654971 
L 182.778931 46.212055 
L 191.466009 47.081691 
L 200.153088 47.263822 
L 208.840166 47.445929 
L 217.527244 48.14147 
L 226.214323 48.837005 
L 234.901401 49.274117 
L 243.58848 52.468359 
L 252.275558 56.688643 
L 260.962636 66.886837 
L 269.649715 68.672648 
L 278.336793 70.907704 
L 287.023871 76.561648 
L 295.71095 81.07517 
L 304.398028 83.69982 
L 313.085106 86.120823 
L 321.772185 87.978603 
L 330.459263 90.272977 
L 339.146341 95.131202 
L 347.83342 99.751225 
L 356.520498 104.371253 
L 365.207577 108.991287 
L 373.894655 113.611307 
L 382.581733 118.008961 
L 391.268812 122.438867 
L 399.95589 126.868793 
L 408.642968 130.611561 
L 417.330047 133.667189 
L 426.017125 136.722814 
L 434.704203 138.691367 
L 443.391282 140.659921 
L 452.07836 141.91508 
L 460.765439 142.222784 
L 469.452517 142.530487 
L 478.139595 142.810713 
L 486.826674 143.09094 
L 495.513752 143.280911 
L 504.20083 143.380627 
L 512.887909 143.480343 
L 521.574987 143.672758 
L 530.262065 143.865173 
L 538.949144 144.041984 
L 547.636222 144.203192 
L 556.3233 144.364399 
L 565.010379 144.393561 
L 573.697457 144.422724 
L 582.384536 144.518863 
L 591.071614 144.681981 
L 599.758692 144.845098 
L 608.445771 144.865443 
L 617.132849 144.885787 
L 625.819927 144.955398 
L 634.507006 145.074275 
L 643.194084 145.193152 
z
" clip-path="url(#pf403f64262)" style="fill: #a4b9ca; fill-opacity: 0.4; stroke: #a4b9ca; stroke-opacity: 0.4"/>
   </g>
   <g id="PolyCollection_2">
    <path d="M 643.194084 145.193152 
L 643.194084 145.193152 
L 634.507006 145.770048 
L 625.819927 146.346943 
L 617.132849 146.684198 
L 608.445771 146.982291 
L 599.758692 147.429576 
L 591.071614 148.195654 
L 582.384536 148.961732 
L 573.697457 149.727811 
L 565.010379 150.493889 
L 556.3233 151.259967 
L 547.636222 152.144062 
L 538.949144 153.028159 
L 530.262065 153.912252 
L 521.574987 154.79635 
L 512.887909 155.680445 
L 504.20083 155.925014 
L 495.513752 156.169579 
L 486.826674 156.414148 
L 478.139595 156.658714 
L 469.452517 156.903283 
L 460.765439 156.172347 
L 452.07836 155.441412 
L 443.391282 154.710475 
L 434.704203 153.979538 
L 426.017125 153.2486 
L 417.330047 152.267689 
L 408.642968 151.286771 
L 399.95589 150.305856 
L 391.268812 149.655404 
L 382.581733 150.033439 
L 373.894655 149.977647 
L 365.207577 150.220312 
L 356.520498 150.534617 
L 347.83342 150.545164 
L 339.146341 150.555711 
L 330.459263 149.867809 
L 321.772185 149.179909 
L 313.085106 147.865625 
L 304.398028 145.924961 
L 295.71095 145.211705 
L 287.023871 144.487178 
L 278.336793 143.762651 
L 269.649715 142.882304 
L 260.962636 141.846136 
L 252.275558 140.809971 
L 243.58848 140.810435 
L 234.901401 140.810903 
L 226.214323 140.793426 
L 217.527244 140.758005 
L 208.840166 140.722584 
L 200.153088 139.685915 
L 191.466009 138.649246 
L 182.778931 137.392539 
L 174.091853 135.915796 
L 165.404774 134.439052 
L 156.717696 131.311253 
L 148.030618 126.659867 
L 139.343539 120.19843 
L 130.656461 112.723627 
L 121.969382 110.742451 
L 113.282304 105.869032 
L 104.595226 100.079008 
L 95.908147 99.115523 
L 87.221069 99.122117 
L 78.533991 98.69902 
L 69.846912 96.522226 
L 61.159834 93.942604 
L 52.472756 90.506695 
L 43.785677 90.752656 
L 35.098599 89.083076 
L 26.41152 88.154722 
L 17.724442 87.728042 
L 9.037364 89.688681 
L 0.350285 91.649308 
L -8.336793 93.03104 
L -17.023871 94.376903 
L -25.71095 95.912453 
L -34.398028 97.448006 
L -43.085106 98.983548 
L -51.772185 100.519106 
L -60.459263 101.631911 
L -69.146341 102.744721 
L -77.83342 103.857532 
L -86.520498 104.970328 
L -95.207577 106.083141 
L -103.894655 106.732598 
L -112.581733 107.38207 
L -121.268812 108.031534 
L -129.95589 108.681 
L -138.642968 109.330463 
L -147.330047 109.554057 
L -156.017125 109.77764 
L -164.704203 110.001231 
L -173.391282 110.224833 
L -182.07836 110.44841 
L -190.765439 110.472814 
L -199.452517 110.497216 
L -208.139595 110.521609 
L -216.826674 110.546 
L -225.513752 110.570399 
L -234.20083 110.522416 
L -242.887909 110.474425 
L -251.574987 110.42644 
L -260.262065 110.378452 
L -268.949144 110.330467 
L -277.636222 110.078742 
L -286.3233 109.827034 
L -295.010379 109.575315 
L -303.697457 109.323599 
L -312.384536 109.071874 
L -321.071614 108.584249 
L -329.758692 108.096624 
L -338.445771 107.609007 
L -347.132849 107.121394 
L -355.819927 106.633763 
L -364.507006 106.57834 
L -373.194084 106.522925 
L -381.881162 106.467507 
L -390.568241 106.412083 
L -399.255319 106.356642 
L -407.942398 106.11852 
L -416.629476 105.880392 
L -425.316554 105.642265 
L -434.003633 105.404128 
L -442.690711 105.166004 
L -451.377789 104.752227 
L -460.064868 104.338439 
L -468.751946 103.924671 
L -477.439024 103.510891 
L -486.126103 103.097106 
L -494.813181 102.673006 
L -503.500259 102.248906 
L -512.187338 101.8248 
L -520.874416 101.4007 
L -529.561495 100.976614 
L -538.248573 100.623651 
L -546.935651 100.270684 
L -555.62273 99.917732 
L -564.309808 99.564757 
L -572.996886 99.211796 
L -581.683965 98.935352 
L -590.371043 98.658902 
L -599.058121 98.382458 
L -607.7452 98.106003 
L -616.432278 97.8522 
L -625.119357 98.079552 
L -633.806435 98.329539 
L -642.493513 98.579544 
L -651.180592 98.829519 
L -659.86767 99.079518 
L -746.738454 100.095568 
L -833.609237 99.164569 
L -920.480021 99.485182 
L -1007.350804 100.224788 
L -1094.221588 103.031863 
L -1181.092372 102.999386 
L -1267.963155 103.376676 
L -1354.833939 102.685782 
L -1441.704722 103.340427 
L -1528.575506 102.983495 
L -1615.44629 103.001519 
L -1702.317073 102.480958 
L -1789.187857 107.301331 
L -1876.05864 109.725617 
L -1962.929424 112.219989 
L -2049.800208 111.849774 
L -2136.670991 112.292002 
L -2223.541775 116.288139 
L -2310.412558 121.875424 
L -2397.283342 123.697904 
L -2484.154126 127.094813 
L -2571.024909 126.007742 
L -2657.895693 127.69826 
L -2744.766476 126.474602 
L -2831.63726 124.252437 
L -2831.63726 58.435813 
L -2831.63726 58.435813 
L -2744.766476 61.061149 
L -2657.895693 62.817252 
L -2571.024909 62.477004 
L -2484.154126 63.778438 
L -2397.283342 56.40475 
L -2310.412558 52.736771 
L -2223.541775 46.599925 
L -2136.670991 46.313086 
L -2049.800208 45.005813 
L -1962.929424 43.406998 
L -1876.05864 46.58932 
L -1789.187857 48.06346 
L -1702.317073 46.50105 
L -1615.44629 46.536372 
L -1528.575506 47.142282 
L -1441.704722 44.707838 
L -1354.833939 42.242706 
L -1267.963155 42.826276 
L -1181.092372 43.082635 
L -1094.221588 43.425143 
L -1007.350804 42.580061 
L -920.480021 43.442481 
L -833.609237 44.014107 
L -746.738454 44.048564 
L -659.86767 43.845119 
L -651.180592 43.699831 
L -642.493513 43.554556 
L -633.806435 43.605717 
L -625.119357 43.85328 
L -616.432278 44.100821 
L -607.7452 44.148108 
L -599.058121 44.195327 
L -590.371043 44.284277 
L -581.683965 44.414854 
L -572.996886 44.545478 
L -564.309808 44.520543 
L -555.62273 44.495643 
L -546.935651 44.614946 
L -538.248573 44.878487 
L -529.561495 45.142016 
L -520.874416 45.542556 
L -512.187338 45.943084 
L -503.500259 46.345342 
L -494.813181 46.749247 
L -486.126103 47.153188 
L -477.439024 47.629881 
L -468.751946 48.106575 
L -460.064868 48.399247 
L -451.377789 48.507904 
L -442.690711 48.61655 
L -434.003633 48.831789 
L -425.316554 49.047028 
L -416.629476 49.201952 
L -407.942398 49.296643 
L -399.255319 49.391351 
L -390.568241 49.360687 
L -381.881162 49.329993 
L -373.194084 49.388694 
L -364.507006 49.536725 
L -355.819927 49.684761 
L -347.132849 50.002795 
L -338.445771 50.320869 
L -329.758692 50.645526 
L -321.071614 50.976829 
L -312.384536 51.308114 
L -303.697457 51.523676 
L -295.010379 51.739255 
L -286.3233 51.891286 
L -277.636222 51.979786 
L -268.949144 52.068286 
L -260.262065 52.028953 
L -251.574987 51.989643 
L -242.887909 51.946234 
L -234.20083 51.898819 
L -225.513752 51.851364 
L -216.826674 51.930821 
L -208.139595 52.010289 
L -199.452517 52.02459 
L -190.765439 51.973757 
L -182.07836 51.922913 
L -173.391282 51.749342 
L -164.704203 51.575771 
L -156.017125 51.351119 
L -147.330047 51.075358 
L -138.642968 50.799609 
L -129.95589 50.561343 
L -121.268812 50.323066 
L -112.581733 49.8559 
L -103.894655 49.1598 
L -95.207577 48.463746 
L -86.520498 47.881387 
L -77.83342 47.299005 
L -69.146341 46.656101 
L -60.459263 45.952629 
L -51.772185 45.249146 
L -43.085106 44.522918 
L -34.398028 43.796713 
L -25.71095 43.243888 
L -17.023871 42.864537 
L -8.336793 42.485151 
L 0.350285 40.992693 
L 9.037364 39.381116 
L 17.724442 38.085359 
L 26.41152 37.105308 
L 35.098599 36.125245 
L 43.785677 35.726861 
L 52.472756 35.328454 
L 61.159834 35.011527 
L 69.846912 34.775976 
L 78.533991 34.54047 
L 87.221069 34.269736 
L 95.908147 33.999013 
L 104.595226 33.786909 
L 113.282304 33.633449 
L 121.969382 33.48 
L 130.656461 33.742907 
L 139.343539 34.005826 
L 148.030618 34.143112 
L 156.717696 34.154779 
L 165.404774 34.166445 
L 174.091853 34.353982 
L 182.778931 34.541531 
L 191.466009 35.54631 
L 200.153088 37.368157 
L 208.840166 39.190039 
L 217.527244 41.969239 
L 226.214323 44.748382 
L 234.901401 46.018777 
L 243.58848 46.728635 
L 252.275558 47.438505 
L 260.962636 49.852211 
L 269.649715 50.073058 
L 278.336793 50.142947 
L 287.023871 50.061865 
L 295.71095 49.980777 
L 304.398028 51.477581 
L 313.085106 52.974397 
L 321.772185 54.880791 
L 330.459263 57.19671 
L 339.146341 59.51263 
L 347.83342 69.868803 
L 356.520498 80.22497 
L 365.207577 91.924262 
L 373.894655 97.141477 
L 382.581733 100.594661 
L 391.268812 103.726677 
L 399.95589 106.104194 
L 408.642968 107.11725 
L 417.330047 110.984729 
L 426.017125 114.237285 
L 434.704203 115.020845 
L 443.391282 116.115608 
L 452.07836 120.961524 
L 460.765439 125.826455 
L 469.452517 126.827774 
L 478.139595 129.08421 
L 486.826674 131.340645 
L 495.513752 133.597077 
L 504.20083 135.853514 
L 512.887909 137.785461 
L 521.574987 138.633859 
L 530.262065 139.460034 
L 538.949144 140.19269 
L 547.636222 141.179057 
L 556.3233 142.027455 
L 565.010379 142.410476 
L 573.697457 142.879322 
L 582.384536 143.260029 
L 591.071614 143.368368 
L 599.758692 143.84702 
L 608.445771 144.116246 
L 617.132849 144.385473 
L 625.819927 144.654699 
L 634.507006 144.923926 
L 643.194084 145.193152 
z
" clip-path="url(#pf403f64262)" style="fill: #d5dadd; fill-opacity: 0.4; stroke: #d5dadd; stroke-opacity: 0.4"/>
   </g>
   <g id="PolyCollection_3">
    <defs>
     <path id="md6adcb6419" d="M 641.022314 -70.868401 
L 641.022314 -70.783983 
L 641.06575 -70.783983 
L 641.109185 -70.783983 
L 641.152621 -70.783983 
L 641.196056 -70.783983 
L 641.239491 -70.783983 
L 641.282927 -70.784311 
L 641.326362 -70.784311 
L 641.369798 -70.784311 
L 641.413233 -70.78464 
L 641.456668 -70.78464 
L 641.500104 -70.78464 
L 641.543539 -70.784968 
L 641.586975 -70.784968 
L 641.63041 -70.784968 
L 641.673845 -70.784968 
L 641.717281 -70.784968 
L 641.760716 -70.784968 
L 641.804152 -70.785297 
L 641.847587 -70.785297 
L 641.891022 -70.785297 
L 641.934458 -70.785297 
L 641.977893 -70.785297 
L 642.021328 -70.784968 
L 642.064764 -70.784968 
L 642.108199 -70.784968 
L 642.151635 -70.784968 
L 642.19507 -70.785297 
L 642.238505 -70.785297 
L 642.281941 -70.785297 
L 642.325376 -70.785297 
L 642.368812 -70.785297 
L 642.412247 -70.785297 
L 642.455682 -70.785297 
L 642.499118 -70.785625 
L 642.542553 -70.785625 
L 642.585989 -70.785625 
L 642.629424 -70.785297 
L 642.672859 -70.785297 
L 642.716295 -70.785297 
L 642.75973 -70.785297 
L 642.803166 -70.785625 
L 642.846601 -70.785625 
L 642.890036 -70.785297 
L 642.933472 -70.785297 
L 642.976907 -70.785297 
L 643.020343 -70.785297 
L 643.063778 -70.785297 
L 643.107213 -70.785297 
L 643.150649 -70.785297 
L 643.194084 -70.785297 
L 645.365854 -70.785297 
L 647.537623 -70.785297 
L 649.709393 -70.785297 
L 651.881162 -70.785297 
L 654.052932 -70.785297 
L 656.224702 -70.784968 
L 658.396471 -70.785297 
L 660.568241 -70.784968 
L 662.74001 -70.784968 
L 664.91178 -70.784968 
L 667.08355 -70.784968 
L 669.255319 -70.784968 
L 671.427089 -70.784968 
L 673.598858 -70.784968 
L 675.770628 -70.78464 
L 677.942398 -70.78464 
L 680.114167 -70.78464 
L 682.285937 -70.784311 
L 684.457706 -70.784311 
L 686.629476 -70.784311 
L 688.801245 -70.784311 
L 690.973015 -70.783983 
L 693.144785 -70.783983 
L 695.316554 -70.783654 
L 697.488324 -70.783654 
L 699.660093 -70.783654 
L 701.831863 -70.783654 
L 704.003633 -70.783326 
L 706.175402 -70.783326 
L 708.347172 -70.782997 
L 710.518941 -70.782997 
L 712.690711 -70.782669 
L 714.862481 -70.782669 
L 717.03425 -70.78234 
L 719.20602 -70.78234 
L 721.377789 -70.782012 
L 723.549559 -70.781683 
L 725.721328 -70.781355 
L 727.893098 -70.781026 
L 730.064868 -70.780698 
L 732.236637 -70.780369 
L 734.408407 -70.781026 
L 736.580176 -70.779384 
L 738.751946 -70.77807 
L 740.923716 -70.777413 
L 743.095485 -70.777413 
L 745.267255 -70.777085 
L 747.439024 -70.776099 
L 749.610794 -70.775442 
L 751.782564 -70.775114 
L 753.954333 -70.774785 
L 756.126103 -70.775114 
L 758.297872 -70.773471 
L 760.469642 -70.771172 
L 762.641412 -70.772486 
L 764.813181 -70.774785 
L 766.984951 -70.771829 
L 769.15672 -70.76723 
L 771.32849 -70.768216 
L 773.500259 -70.763289 
L 775.672029 -70.761318 
L 777.843799 -70.75869 
L 780.015568 -70.753763 
L 782.187338 -70.748507 
L 784.359107 -70.741609 
L 786.530877 -70.742266 
L 788.702647 -70.740624 
L 790.874416 -70.732412 
L 790.874416 -70.742923 
L 790.874416 -70.742923 
L 788.702647 -70.749821 
L 786.530877 -70.749821 
L 784.359107 -70.74785 
L 782.187338 -70.753106 
L 780.015568 -70.757048 
L 777.843799 -70.760989 
L 775.672029 -70.762303 
L 773.500259 -70.764274 
L 771.32849 -70.770515 
L 769.15672 -70.770844 
L 766.984951 -70.776756 
L 764.813181 -70.781026 
L 762.641412 -70.780041 
L 760.469642 -70.780041 
L 758.297872 -70.783983 
L 756.126103 -70.786939 
L 753.954333 -70.78891 
L 751.782564 -70.789895 
L 749.610794 -70.792195 
L 747.439024 -70.795151 
L 745.267255 -70.796465 
L 743.095485 -70.798436 
L 740.923716 -70.79975 
L 738.751946 -70.80172 
L 736.580176 -70.805005 
L 734.408407 -70.804677 
L 732.236637 -70.803363 
L 730.064868 -70.803691 
L 727.893098 -70.80402 
L 725.721328 -70.804677 
L 723.549559 -70.805334 
L 721.377789 -70.805662 
L 719.20602 -70.805991 
L 717.03425 -70.806319 
L 714.862481 -70.806648 
L 712.690711 -70.807305 
L 710.518941 -70.807961 
L 708.347172 -70.80829 
L 706.175402 -70.808618 
L 704.003633 -70.809275 
L 701.831863 -70.809932 
L 699.660093 -70.810589 
L 697.488324 -70.810918 
L 695.316554 -70.811903 
L 693.144785 -70.81256 
L 690.973015 -70.813217 
L 688.801245 -70.813546 
L 686.629476 -70.814531 
L 684.457706 -70.815188 
L 682.285937 -70.815845 
L 680.114167 -70.816502 
L 677.942398 -70.817159 
L 675.770628 -70.818144 
L 673.598858 -70.818801 
L 671.427089 -70.819458 
L 669.255319 -70.820115 
L 667.08355 -70.821101 
L 664.91178 -70.821758 
L 662.74001 -70.822743 
L 660.568241 -70.8234 
L 658.396471 -70.824057 
L 656.224702 -70.824714 
L 654.052932 -70.825371 
L 651.881162 -70.826028 
L 649.709393 -70.827013 
L 647.537623 -70.82767 
L 645.365854 -70.828327 
L 643.194084 -70.829313 
L 643.150649 -70.829969 
L 643.107213 -70.830626 
L 643.063778 -70.831612 
L 643.020343 -70.832269 
L 642.976907 -70.832926 
L 642.933472 -70.833583 
L 642.890036 -70.834568 
L 642.846601 -70.835225 
L 642.803166 -70.835882 
L 642.75973 -70.836868 
L 642.716295 -70.837524 
L 642.672859 -70.83851 
L 642.629424 -70.839167 
L 642.585989 -70.840152 
L 642.542553 -70.840809 
L 642.499118 -70.841795 
L 642.455682 -70.842452 
L 642.412247 -70.843109 
L 642.368812 -70.844094 
L 642.325376 -70.844751 
L 642.281941 -70.845736 
L 642.238505 -70.846393 
L 642.19507 -70.84705 
L 642.151635 -70.848036 
L 642.108199 -70.848693 
L 642.064764 -70.84935 
L 642.021328 -70.850335 
L 641.977893 -70.851321 
L 641.934458 -70.851977 
L 641.891022 -70.852634 
L 641.847587 -70.85362 
L 641.804152 -70.854277 
L 641.760716 -70.854934 
L 641.717281 -70.855591 
L 641.673845 -70.856576 
L 641.63041 -70.857233 
L 641.586975 -70.858219 
L 641.543539 -70.859204 
L 641.500104 -70.859861 
L 641.456668 -70.860518 
L 641.413233 -70.861175 
L 641.369798 -70.861832 
L 641.326362 -70.862817 
L 641.282927 -70.863474 
L 641.239491 -70.86446 
L 641.196056 -70.865117 
L 641.152621 -70.866102 
L 641.109185 -70.866759 
L 641.06575 -70.867416 
L 641.022314 -70.868401 
z
" style="stroke: #d3d3ff; stroke-opacity: 0.4"/>
    </defs>
    <g clip-path="url(#pf403f64262)">
     <use xlink:href="#md6adcb6419" x="0" y="216" style="fill: #d3d3ff; fill-opacity: 0.4; stroke: #d3d3ff; stroke-opacity: 0.4"/>
    </g>
   </g>
   <g id="matplotlib.axis_1">
    <g id="xtick_1">
     <g id="line2d_1">
      <defs>
       <path id="m00f6958bfe" d="M 0 0 
L 0 3.5 
" style="stroke: #000000; stroke-width: 0.8"/>
      </defs>
      <g>
       <use xlink:href="#m00f6958bfe" x="208.840166" y="192.24" style="stroke: #000000; stroke-width: 0.8"/>
      </g>
     </g>
     <g id="text_1">
      <text style="font: 10px 'DejaVu Sans', 'Bitstream Vera Sans', 'Computer Modern Sans Serif', 'Lucida Grande', 'Verdana', 'Geneva', 'Lucid', 'Arial', 'Helvetica', 'Avant Garde', sans-serif; text-anchor: middle" x="208.840166" y="206.838437" transform="rotate(-0 208.840166 206.838437)">10</text>
     </g>
    </g>
    <g id="xtick_2">
     <g id="line2d_2">
      <g>
       <use xlink:href="#m00f6958bfe" x="295.71095" y="192.24" style="stroke: #000000; stroke-width: 0.8"/>
      </g>
     </g>
     <g id="text_2">
      <text style="font: 10px 'DejaVu Sans', 'Bitstream Vera Sans', 'Computer Modern Sans Serif', 'Lucida Grande', 'Verdana', 'Geneva', 'Lucid', 'Arial', 'Helvetica', 'Avant Garde', sans-serif; text-anchor: middle" x="295.71095" y="206.838437" transform="rotate(-0 295.71095 206.838437)">8</text>
     </g>
    </g>
    <g id="xtick_3">
     <g id="line2d_3">
      <g>
       <use xlink:href="#m00f6958bfe" x="382.581733" y="192.24" style="stroke: #000000; stroke-width: 0.8"/>
      </g>
     </g>
     <g id="text_3">
      <text style="font: 10px 'DejaVu Sans', 'Bitstream Vera Sans', 'Computer Modern Sans Serif', 'Lucida Grande', 'Verdana', 'Geneva', 'Lucid', 'Arial', 'Helvetica', 'Avant Garde', sans-serif; text-anchor: middle" x="382.581733" y="206.838437" transform="rotate(-0 382.581733 206.838437)">6</text>
     </g>
    </g>
    <g id="xtick_4">
     <g id="line2d_4">
      <g>
       <use xlink:href="#m00f6958bfe" x="469.452517" y="192.24" style="stroke: #000000; stroke-width: 0.8"/>
      </g>
     </g>
     <g id="text_4">
      <text style="font: 10px 'DejaVu Sans', 'Bitstream Vera Sans', 'Computer Modern Sans Serif', 'Lucida Grande', 'Verdana', 'Geneva', 'Lucid', 'Arial', 'Helvetica', 'Avant Garde', sans-serif; text-anchor: middle" x="469.452517" y="206.838437" transform="rotate(-0 469.452517 206.838437)">4</text>
     </g>
    </g>
    <g id="xtick_5">
     <g id="line2d_5">
      <g>
       <use xlink:href="#m00f6958bfe" x="556.3233" y="192.24" style="stroke: #000000; stroke-width: 0.8"/>
      </g>
     </g>
     <g id="text_5">
      <text style="font: 10px 'DejaVu Sans', 'Bitstream Vera Sans', 'Computer Modern Sans Serif', 'Lucida Grande', 'Verdana', 'Geneva', 'Lucid', 'Arial', 'Helvetica', 'Avant Garde', sans-serif; text-anchor: middle" x="556.3233" y="206.838437" transform="rotate(-0 556.3233 206.838437)">2</text>
     </g>
    </g>
    <g id="xtick_6">
     <g id="line2d_6">
      <g>
       <use xlink:href="#m00f6958bfe" x="643.194084" y="192.24" style="stroke: #000000; stroke-width: 0.8"/>
      </g>
     </g>
     <g id="text_6">
      <text style="font: 10px 'DejaVu Sans', 'Bitstream Vera Sans', 'Computer Modern Sans Serif', 'Lucida Grande', 'Verdana', 'Geneva', 'Lucid', 'Arial', 'Helvetica', 'Avant Garde', sans-serif; text-anchor: middle" x="643.194084" y="206.838437" transform="rotate(-0 643.194084 206.838437)">1950</text>
     </g>
    </g>
    <g id="xtick_7">
     <g id="line2d_7">
      <g>
       <use xlink:href="#m00f6958bfe" x="708.347172" y="192.24" style="stroke: #000000; stroke-width: 0.8"/>
      </g>
     </g>
     <g id="text_7">
      <text style="font: 10px 'DejaVu Sans', 'Bitstream Vera Sans', 'Computer Modern Sans Serif', 'Lucida Grande', 'Verdana', 'Geneva', 'Lucid', 'Arial', 'Helvetica', 'Avant Garde', sans-serif; text-anchor: middle" x="708.347172" y="206.838437" transform="rotate(-0 708.347172 206.838437)">1980</text>
     </g>
    </g>
    <g id="xtick_8">
     <g id="line2d_8">
      <g>
       <use xlink:href="#m00f6958bfe" x="751.782564" y="192.24" style="stroke: #000000; stroke-width: 0.8"/>
      </g>
     </g>
     <g id="text_8">
      <text style="font: 10px 'DejaVu Sans', 'Bitstream Vera Sans', 'Computer Modern Sans Serif', 'Lucida Grande', 'Verdana', 'Geneva', 'Lucid', 'Arial', 'Helvetica', 'Avant Garde', sans-serif; text-anchor: middle" x="751.782564" y="206.838437" transform="rotate(-0 751.782564 206.838437)">2000</text>
     </g>
    </g>
    <g id="xtick_9">
     <g id="line2d_9">
      <g>
       <use xlink:href="#m00f6958bfe" x="795.217955" y="192.24" style="stroke: #000000; stroke-width: 0.8"/>
      </g>
     </g>
     <g id="text_9">
      <text style="font: 10px 'DejaVu Sans', 'Bitstream Vera Sans', 'Computer Modern Sans Serif', 'Lucida Grande', 'Verdana', 'Geneva', 'Lucid', 'Arial', 'Helvetica', 'Avant Garde', sans-serif; text-anchor: middle" x="795.217955" y="206.838437" transform="rotate(-0 795.217955 206.838437)">2020</text>
     </g>
    </g>
   </g>
   <g id="matplotlib.axis_2">
    <g id="ytick_1">
     <g id="line2d_10">
      <defs>
       <path id="mabf31651a3" d="M 0 0 
L -3.5 0 
" style="stroke: #000000; stroke-width: 0.8"/>
      </defs>
      <g>
       <use xlink:href="#mabf31651a3" x="135" y="159.625718" style="stroke: #000000; stroke-width: 0.8"/>
      </g>
     </g>
     <g id="text_10">
      <text style="font: 10px 'DejaVu Sans', 'Bitstream Vera Sans', 'Computer Modern Sans Serif', 'Lucida Grande', 'Verdana', 'Geneva', 'Lucid', 'Arial', 'Helvetica', 'Avant Garde', sans-serif; text-anchor: end" x="128" y="163.424937" transform="rotate(-0 128 163.424937)">24.0</text>
     </g>
    </g>
    <g id="ytick_2">
     <g id="line2d_11">
      <g>
       <use xlink:href="#mabf31651a3" x="135" y="123.37995" style="stroke: #000000; stroke-width: 0.8"/>
      </g>
     </g>
     <g id="text_11">
      <text style="font: 10px 'DejaVu Sans', 'Bitstream Vera Sans', 'Computer Modern Sans Serif', 'Lucida Grande', 'Verdana', 'Geneva', 'Lucid', 'Arial', 'Helvetica', 'Avant Garde', sans-serif; text-anchor: end" x="128" y="127.179169" transform="rotate(-0 128 127.179169)">26.0</text>
     </g>
    </g>
    <g id="ytick_3">
     <g id="line2d_12">
      <g>
       <use xlink:href="#mabf31651a3" x="135" y="87.134182" style="stroke: #000000; stroke-width: 0.8"/>
      </g>
     </g>
     <g id="text_12">
      <text style="font: 10px 'DejaVu Sans', 'Bitstream Vera Sans', 'Computer Modern Sans Serif', 'Lucida Grande', 'Verdana', 'Geneva', 'Lucid', 'Arial', 'Helvetica', 'Avant Garde', sans-serif; text-anchor: end" x="128" y="90.9334" transform="rotate(-0 128 90.9334)">28.0</text>
     </g>
    </g>
    <g id="ytick_4">
     <g id="line2d_13">
      <g>
       <use xlink:href="#mabf31651a3" x="135" y="50.888413" style="stroke: #000000; stroke-width: 0.8"/>
      </g>
     </g>
     <g id="text_13">
      <text style="font: 10px 'DejaVu Sans', 'Bitstream Vera Sans', 'Computer Modern Sans Serif', 'Lucida Grande', 'Verdana', 'Geneva', 'Lucid', 'Arial', 'Helvetica', 'Avant Garde', sans-serif; text-anchor: end" x="128" y="54.687632" transform="rotate(-0 128 54.687632)">30.0</text>
     </g>
    </g>
    <g id="text_14">
     <text style="font: 12px 'Times New Roman'; text-anchor: middle" x="99.1675" y="109.08" transform="rotate(-90 99.1675 109.08)">Ice volume (10^6 Gt)</text>
    </g>
   </g>
   <g id="line2d_14">
    <path d="M 643.194084 145.193152 
L 608.445771 146.012347 
L 582.384536 146.551174 
L 573.697457 146.860413 
L 556.3233 147.202193 
L 530.262065 146.799677 
L 521.574987 146.849514 
L 512.887909 147.090713 
L 478.139595 146.655883 
L 469.452517 146.501254 
L 443.391282 145.344774 
L 434.704203 145.048598 
L 426.017125 144.579421 
L 399.95589 142.391602 
L 391.268812 141.301089 
L 382.581733 140.462993 
L 373.894655 140.019281 
L 365.207577 139.444078 
L 356.520498 136.477729 
L 339.146341 133.855713 
L 330.459263 131.834083 
L 313.085106 129.565487 
L 295.71095 125.819838 
L 287.023871 118.219018 
L 278.336793 114.020158 
L 269.649715 109.977468 
L 260.962636 104.675341 
L 252.275558 102.009351 
L 243.58848 96.972811 
L 234.901401 95.169602 
L 226.214323 94.224157 
L 208.840166 88.303583 
L 200.153088 83.744324 
L 191.466009 76.485172 
L 182.778931 70.505574 
L 174.091853 70.362483 
L 165.404774 70.595544 
L 148.030618 70.832427 
L 139.343539 72.009791 
L 130.656461 71.390802 
L 121.969382 69.403078 
L 95.908147 65.553822 
L 78.533991 62.70535 
L 61.159834 54.610247 
L 52.472756 52.671776 
L 43.785677 52.103107 
L 35.098599 52.524996 
L 17.724442 54.977015 
L 9.037364 56.350136 
L -1 58.106713 
L -1 58.106713 
" clip-path="url(#pf403f64262)" style="fill: none; stroke: #0b0b0b; stroke-width: 1.5; stroke-linecap: square"/>
   </g>
   <g id="line2d_15">
    <path d="M 641.022314 145.17532 
L 641.06575 145.175678 
L 641.109185 145.176038 
L 641.152621 145.176391 
L 641.196056 145.176747 
L 641.239491 145.177105 
L 641.282927 145.177463 
L 641.326362 145.17782 
L 641.369798 145.178175 
L 641.413233 145.178533 
L 641.456668 145.178889 
L 641.500104 145.179247 
L 641.543539 145.179604 
L 641.586975 145.179958 
L 641.63041 145.180316 
L 641.673845 145.180672 
L 641.717281 145.181028 
L 641.760716 145.181382 
L 641.804152 145.181742 
L 641.847587 145.1821 
L 641.891022 145.182452 
L 641.934458 145.182809 
L 641.977893 145.183168 
L 642.021328 145.183521 
L 642.064764 145.183882 
L 642.108199 145.184235 
L 642.151635 145.184597 
L 642.19507 145.18495 
L 642.238505 145.185303 
L 642.281941 145.185659 
L 642.325376 145.186019 
L 642.368812 145.186371 
L 642.412247 145.186735 
L 642.455682 145.187088 
L 642.499118 145.187447 
L 642.542553 145.187802 
L 642.585989 145.188157 
L 642.629424 145.188511 
L 642.672859 145.188874 
L 642.716295 145.189227 
L 642.75973 145.189584 
L 642.803166 145.189938 
L 642.846601 145.190294 
L 642.890036 145.190656 
L 642.933472 145.191009 
L 642.976907 145.191367 
L 643.020343 145.191726 
L 643.063778 145.192078 
L 643.107213 145.192438 
L 643.150649 145.192792 
L 643.194084 145.193152 
L 645.365854 145.193506 
L 647.537623 145.193864 
L 649.709393 145.19422 
L 651.881162 145.194575 
L 654.052932 145.194933 
L 656.224702 145.195286 
L 658.396471 145.195642 
L 660.568241 145.196 
L 662.74001 145.196354 
L 664.91178 145.196715 
L 667.08355 145.197064 
L 669.255319 145.197429 
L 671.427089 145.197781 
L 673.598858 145.198135 
L 675.770628 145.198495 
L 677.942398 145.19885 
L 680.114167 145.199206 
L 682.285937 145.199568 
L 684.457706 145.199919 
L 686.629476 145.200273 
L 688.801245 145.200635 
L 690.973015 145.200994 
L 693.144785 145.201347 
L 695.316554 145.201704 
L 697.488324 145.202057 
L 699.660093 145.202419 
L 701.831863 145.20277 
L 704.003633 145.203128 
L 706.175402 145.203485 
L 708.347172 145.203841 
L 710.518941 145.204197 
L 712.690711 145.204556 
L 714.862481 145.204907 
L 717.03425 145.205269 
L 719.20602 145.20562 
L 721.377789 145.205982 
L 723.549559 145.206338 
L 725.721328 145.206696 
L 727.893098 145.207046 
L 730.064868 145.20741 
L 732.236637 145.20776 
L 734.408407 145.206725 
L 736.580176 145.206931 
L 738.751946 145.209147 
L 740.923716 145.210756 
L 743.095485 145.211566 
L 745.267255 145.212578 
L 747.439024 145.213716 
L 749.610794 145.21562 
L 751.782564 145.217094 
L 753.954333 145.218122 
L 756.126103 145.218832 
L 758.297872 145.220876 
L 760.469642 145.224031 
L 762.641412 145.223545 
L 764.813181 145.221836 
L 766.984951 145.225567 
L 769.15672 145.230905 
L 771.32849 145.230612 
L 773.500259 145.236148 
L 775.672029 145.238269 
L 777.843799 145.240212 
L 780.015568 145.244792 
L 782.187338 145.249325 
L 784.359107 145.255445 
L 786.530877 145.254199 
L 788.702647 145.255122 
L 790.874416 145.262727 
" clip-path="url(#pf403f64262)" style="fill: none; stroke: #2626ff; stroke-width: 1.5; stroke-linecap: square"/>
   </g>
   <g id="line2d_16">
    <path d="M 645.365854 147.056774 
L 790.874416 147.056774 
L -1 147.056774 
L -1 147.056774 
" clip-path="url(#pf403f64262)" style="fill: none; stroke: #ff0001; stroke-width: 1.5; stroke-linecap: square"/>
   </g>
   <g id="LineCollection_1">
    <path d="M 790.874416 184.68 
L 790.874416 145.591204 
" clip-path="url(#pf403f64262)" style="fill: none; stroke: #d57eeb; stroke-width: 2"/>
   </g>
   <g id="line2d_17">
    <defs>
     <path id="md82ab13259" d="M 5 0 
L -5 -0 
" style="stroke: #d57eeb"/>
    </defs>
    <g clip-path="url(#pf403f64262)">
     <use xlink:href="#md82ab13259" x="790.874416" y="184.68" style="fill: #d57eeb; stroke: #d57eeb"/>
    </g>
   </g>
   <g id="line2d_18">
    <g clip-path="url(#pf403f64262)">
     <use xlink:href="#md82ab13259" x="790.874416" y="145.591204" style="fill: #d57eeb; stroke: #d57eeb"/>
    </g>
   </g>
   <g id="line2d_19">
    <path d="M 643.194084 192.24 
L 643.194084 25.92 
" clip-path="url(#pf403f64262)" style="fill: none; stroke-dasharray: 3.7,1.6; stroke-dashoffset: 0; stroke: #808080; stroke-opacity: 0.5"/>
   </g>
   <g id="patch_3">
    <path d="M 135 192.24 
L 135 25.92 
" style="fill: none; stroke: #000000; stroke-width: 0.8; stroke-linejoin: miter; stroke-linecap: square"/>
   </g>
   <g id="patch_4">
    <path d="M 972 192.24 
L 972 25.92 
" style="fill: none"/>
   </g>
   <g id="patch_5">
    <path d="M 135 192.24 
L 972 192.24 
" style="fill: none; stroke: #000000; stroke-width: 0.8; stroke-linejoin: miter; stroke-linecap: square"/>
   </g>
   <g id="patch_6">
    <path d="M 135 25.92 
L 972 25.92 
" style="fill: none"/>
   </g>
   <g id="legend_1">
    <g id="line2d_20">
     <path d="M 730.498438 39.018438 
L 740.498438 39.018438 
L 750.498438 39.018438 
" style="fill: none; stroke: #0b0b0b; stroke-width: 1.5; stroke-linecap: square"/>
    </g>
    <g id="text_15">
     <text style="font: 10px 'DejaVu Sans', 'Bitstream Vera Sans', 'Computer Modern Sans Serif', 'Lucida Grande', 'Verdana', 'Geneva', 'Lucid', 'Arial', 'Helvetica', 'Avant Garde', sans-serif; text-anchor: start" x="758.498438" y="42.518438" transform="rotate(-0 758.498438 42.518438)">Creel et al. (2023)</text>
    </g>
    <g id="patch_7">
     <path d="M 730.498438 57.196563 
L 750.498438 57.196563 
L 750.498438 50.196563 
L 730.498438 50.196563 
z
" style="fill: #a4b9ca; fill-opacity: 0.4; stroke: #a4b9ca; stroke-opacity: 0.4; stroke-linejoin: miter"/>
    </g>
    <g id="text_16">
     <text style="font: 10px 'DejaVu Sans', 'Bitstream Vera Sans', 'Computer Modern Sans Serif', 'Lucida Grande', 'Verdana', 'Geneva', 'Lucid', 'Arial', 'Helvetica', 'Avant Garde', sans-serif; text-anchor: start" x="758.498438" y="57.196563" transform="rotate(-0 758.498438 57.196563)">66% credible interval</text>
    </g>
    <g id="patch_8">
     <path d="M 730.498438 71.874687 
L 750.498438 71.874687 
L 750.498438 64.874687 
L 730.498438 64.874687 
z
" style="fill: #d5dadd; fill-opacity: 0.4; stroke: #d5dadd; stroke-opacity: 0.4; stroke-linejoin: miter"/>
    </g>
    <g id="text_17">
     <text style="font: 10px 'DejaVu Sans', 'Bitstream Vera Sans', 'Computer Modern Sans Serif', 'Lucida Grande', 'Verdana', 'Geneva', 'Lucid', 'Arial', 'Helvetica', 'Avant Garde', sans-serif; text-anchor: start" x="758.498438" y="71.874687" transform="rotate(-0 758.498438 71.874687)">90% credible interval</text>
    </g>
    <g id="line2d_21">
     <path d="M 730.498438 83.052813 
L 740.498438 83.052813 
L 750.498438 83.052813 
" style="fill: none; stroke: #2626ff; stroke-width: 1.5; stroke-linecap: square"/>
    </g>
    <g id="text_18">
     <text style="font: 10px 'DejaVu Sans', 'Bitstream Vera Sans', 'Computer Modern Sans Serif', 'Lucida Grande', 'Verdana', 'Geneva', 'Lucid', 'Arial', 'Helvetica', 'Avant Garde', sans-serif; text-anchor: start" x="758.498438" y="86.552813" transform="rotate(-0 758.498438 86.552813)">Frederikse et al. (2020)</text>
    </g>
    <g id="patch_9">
     <path d="M 730.498438 101.230938 
L 750.498438 101.230938 
L 750.498438 94.230938 
L 730.498438 94.230938 
z
" style="fill: #d3d3ff; fill-opacity: 0.4; stroke: #d3d3ff; stroke-opacity: 0.4; stroke-linejoin: miter"/>
    </g>
    <g id="text_19">
     <text style="font: 10px 'DejaVu Sans', 'Bitstream Vera Sans', 'Computer Modern Sans Serif', 'Lucida Grande', 'Verdana', 'Geneva', 'Lucid', 'Arial', 'Helvetica', 'Avant Garde', sans-serif; text-anchor: start" x="758.498438" y="101.230938" transform="rotate(-0 758.498438 101.230938)">90% credible interval</text>
    </g>
    <g id="line2d_22">
     <path d="M 730.498438 112.409063 
L 740.498438 112.409063 
L 750.498438 112.409063 
" style="fill: none; stroke: #ff0001; stroke-width: 1.5; stroke-linecap: square"/>
    </g>
    <g id="text_20">
     <text style="font: 10px 'DejaVu Sans', 'Bitstream Vera Sans', 'Computer Modern Sans Serif', 'Lucida Grande', 'Verdana', 'Geneva', 'Lucid', 'Arial', 'Helvetica', 'Avant Garde', sans-serif; text-anchor: start" x="758.498438" y="115.909063" transform="rotate(-0 758.498438 115.909063)">Holocene Baseline</text>
    </g>
    <g id="LineCollection_2">
     <path d="M 740.498438 132.087187 
L 740.498438 122.087187 
" style="fill: none; stroke: #d57eeb; stroke-width: 2"/>
    </g>
    <g id="line2d_23">
     <g>
      <use xlink:href="#md82ab13259" x="740.498438" y="132.087187" style="fill: #d57eeb; stroke: #d57eeb"/>
     </g>
    </g>
    <g id="line2d_24">
     <g>
      <use xlink:href="#md82ab13259" x="740.498438" y="122.087187" style="fill: #d57eeb; stroke: #d57eeb"/>
     </g>
    </g>
    <g id="text_21">
     <text style="font: 10px 'DejaVu Sans', 'Bitstream Vera Sans', 'Computer Modern Sans Serif', 'Lucida Grande', 'Verdana', 'Geneva', 'Lucid', 'Arial', 'Helvetica', 'Avant Garde', sans-serif; text-anchor: start" x="758.498438" y="130.587187" transform="rotate(-0 758.498438 130.587187)">Committed change with credible interval</text>
    </g>
   </g>
  </g>
 </g>
 <defs>
  <clipPath id="pf403f64262">
   <rect x="135" y="25.92" width="837" height="166.32"/>
  </clipPath>
 </defs>
</svg>
