<?xml version="1.0" encoding="utf-8" standalone="no"?>
<!DOCTYPE svg PUBLIC "-//W3C//DTD SVG 1.1//EN"
  "http://www.w3.org/Graphics/SVG/1.1/DTD/svg11.dtd">
<svg xmlns:xlink="http://www.w3.org/1999/xlink" width="432pt" height="216pt" viewBox="0 0 432 216" xmlns="http://www.w3.org/2000/svg" version="1.1">
 <metadata>
  <rdf:RDF xmlns:dc="http://purl.org/dc/elements/1.1/" xmlns:cc="http://creativecommons.org/ns#" xmlns:rdf="http://www.w3.org/1999/02/22-rdf-syntax-ns#">
   <cc:Work>
    <dc:type rdf:resource="http://purl.org/dc/dcmitype/StillImage"/>
    <dc:date>2026-01-03T22:35:30.678823</dc:date>
    <dc:format>image/svg+xml</dc:format>
    <dc:creator>
     <cc:Agent>
      <dc:title>Matplotlib v3.8.4, https://matplotlib.org/</dc:title>
     </cc:Agent>
    </dc:creator>
   </cc:Work>
  </rdf:RDF>
 </metadata>
 <defs>
  <style type="text/css">*{stroke-linejoin: round; stroke-linecap: butt}</style>
 </defs>
 <g id="figure_1">
  <g id="patch_1">
   <path d="M 0 216 
L 432 216 
L 432 0 
L 0 0 
z
" style="fill: #ffffff"/>
  </g>
  <g id="axes_1">
   <g id="patch_2">
    <path d="M 54 192.24 
L 388.8 192.24 
L 388.8 25.92 
L 54 25.92 
z
" style="fill: #ffffff"/>
   </g>
   <g id="PolyCollection_1">
    <defs>
     <path id="m7907b0f497" d="M 69.218182 -182.443932 
L 69.218182 -171.591679 
L 71.797535 -171.6931 
L 74.376888 -171.617034 
L 76.95624 -171.363477 
L 79.535593 -171.591679 
L 82.114946 -171.870591 
L 84.694299 -171.642389 
L 87.273652 -171.515611 
L 89.853005 -171.16063 
L 92.432357 -171.4649 
L 95.01171 -172.048081 
L 97.591063 -172.048081 
L 100.170416 -171.769168 
L 102.749769 -171.591679 
L 105.329122 -171.617034 
L 107.908475 -171.515611 
L 110.487827 -171.439543 
L 113.06718 -171.109919 
L 115.646533 -171.109919 
L 118.225886 -171.059207 
L 120.805239 -171.008496 
L 123.384592 -170.907073 
L 125.963945 -171.033851 
L 128.543297 -170.907073 
L 131.12265 -170.653515 
L 133.702003 -170.552092 
L 136.281356 -170.070335 
L 138.860709 -169.689999 
L 141.440062 -169.182884 
L 144.019414 -168.72648 
L 146.598767 -168.422211 
L 149.17812 -167.509405 
L 151.757473 -167.027645 
L 154.336826 -166.495175 
L 156.916179 -166.038772 
L 159.495532 -165.45559 
L 162.074884 -164.796341 
L 164.654237 -164.542784 
L 167.23359 -164.365293 
L 169.812943 -164.162448 
L 172.392296 -163.959602 
L 174.971649 -163.680688 
L 177.551002 -163.503199 
L 180.130354 -163.173574 
L 182.709707 -162.945373 
L 185.28906 -162.945373 
L 187.868413 -162.843949 
L 190.447766 -162.590392 
L 193.027119 -162.159344 
L 195.606471 -161.626874 
L 198.185824 -161.195826 
L 200.765177 -160.916914 
L 203.34453 -160.688712 
L 205.923883 -160.485866 
L 208.503236 -160.333732 
L 211.082589 -160.257665 
L 213.661941 -160.10553 
L 216.241294 -159.775906 
L 218.820647 -159.420925 
L 221.4 -159.370214 
L 223.979353 -159.040589 
L 226.558706 -158.761676 
L 229.138059 -158.330629 
L 231.717411 -158.229206 
L 234.296764 -158.229206 
L 236.876117 -158.02636 
L 239.45547 -157.671379 
L 242.034823 -157.49389 
L 244.614176 -157.240332 
L 247.193529 -157.037486 
L 249.772881 -157.01213 
L 252.352234 -156.809284 
L 254.931587 -156.961419 
L 257.51094 -157.037486 
L 260.090293 -156.910707 
L 262.669646 -156.910707 
L 265.248998 -157.01213 
L 267.828351 -157.088198 
L 270.407704 -157.037486 
L 272.987057 -157.01213 
L 275.56641 -156.885351 
L 278.145763 -156.631794 
L 280.725116 -156.428948 
L 283.304468 -156.555727 
L 285.883821 -156.682506 
L 288.463174 -156.581083 
L 291.042527 -156.530371 
L 293.62188 -156.530371 
L 296.201233 -156.428948 
L 298.780586 -156.251458 
L 301.359938 -156.200747 
L 303.939291 -156.12468 
L 306.518644 -156.352881 
L 309.097997 -156.327526 
L 311.67735 -156.226103 
L 314.256703 -155.997901 
L 316.836055 -156.226103 
L 319.415408 -156.226103 
L 321.994761 -156.099324 
L 324.574114 -155.997901 
L 327.153467 -155.871122 
L 329.73282 -155.769699 
L 332.312173 -155.490786 
L 334.891525 -155.262585 
L 337.470878 -154.958316 
L 340.050231 -154.654047 
L 342.629584 -154.299067 
L 345.208937 -153.893375 
L 347.78829 -153.538395 
L 350.367643 -153.20877 
L 352.946995 -152.650944 
L 355.526348 -151.991695 
L 358.105701 -151.357801 
L 360.685054 -150.799975 
L 363.264407 -150.571774 
L 365.84376 -150.242149 
L 368.423112 -149.836457 
L 371.002465 -149.481477 
L 373.581818 -149.380054 
L 373.581818 -149.785746 
L 373.581818 -149.785746 
L 371.002465 -149.836457 
L 368.423112 -150.115371 
L 365.84376 -150.495707 
L 363.264407 -150.749264 
L 360.685054 -150.926754 
L 358.105701 -151.433869 
L 355.526348 -152.017051 
L 352.946995 -152.701655 
L 350.367643 -153.284837 
L 347.78829 -153.665173 
L 345.208937 -154.096221 
L 342.629584 -154.527268 
L 340.050231 -154.958316 
L 337.470878 -155.28794 
L 334.891525 -155.668276 
L 332.312173 -156.099324 
L 329.73282 -156.47966 
L 327.153467 -156.682506 
L 324.574114 -156.859996 
L 321.994761 -157.037486 
L 319.415408 -157.316399 
L 316.836055 -157.367111 
L 314.256703 -157.189621 
L 311.67735 -157.468534 
L 309.097997 -157.620668 
L 306.518644 -157.722091 
L 303.939291 -157.671379 
L 301.359938 -157.798158 
L 298.780586 -157.899581 
L 296.201233 -158.102427 
L 293.62188 -158.254562 
L 291.042527 -158.279917 
L 288.463174 -158.406696 
L 285.883821 -158.584186 
L 283.304468 -158.55883 
L 280.725116 -158.406696 
L 278.145763 -158.634898 
L 275.56641 -158.91381 
L 272.987057 -159.091301 
L 270.407704 -159.192723 
L 267.828351 -159.268791 
L 265.248998 -159.319502 
L 262.669646 -159.243435 
L 260.090293 -159.243435 
L 257.51094 -159.420925 
L 254.931587 -159.496992 
L 252.352234 -159.344858 
L 249.772881 -159.623771 
L 247.193529 -159.725194 
L 244.614176 -159.92804 
L 242.034823 -160.257665 
L 239.45547 -160.46051 
L 236.876117 -160.790135 
L 234.296764 -161.018336 
L 231.717411 -161.043692 
L 229.138059 -161.246538 
L 226.558706 -161.677586 
L 223.979353 -162.057922 
L 221.4 -162.412901 
L 218.820647 -162.565036 
L 216.241294 -162.894661 
L 213.661941 -163.300352 
L 211.082589 -163.503199 
L 208.503236 -163.655333 
L 205.923883 -163.858179 
L 203.34453 -164.086381 
L 200.765177 -164.365293 
L 198.185824 -164.745629 
L 195.606471 -165.176677 
L 193.027119 -165.759859 
L 190.447766 -166.317685 
L 187.868413 -166.545887 
L 185.28906 -166.698021 
L 182.709707 -166.723376 
L 180.130354 -167.027645 
L 177.551002 -167.407981 
L 174.971649 -167.661539 
L 172.392296 -168.016519 
L 169.812943 -168.219365 
L 167.23359 -168.472923 
L 164.654237 -168.650413 
L 162.074884 -169.056105 
L 159.495532 -169.715354 
L 156.916179 -170.298535 
L 154.336826 -170.805649 
L 151.757473 -171.414187 
L 149.17812 -171.921302 
L 146.598767 -172.884821 
L 144.019414 -173.189089 
L 141.440062 -173.772271 
L 138.860709 -174.38081 
L 136.281356 -174.761146 
L 133.702003 -175.318971 
L 131.12265 -175.44575 
L 128.543297 -175.826086 
L 125.963945 -175.97822 
L 123.384592 -175.952864 
L 120.805239 -176.028932 
L 118.225886 -176.130354 
L 115.646533 -176.257132 
L 113.06718 -176.3332 
L 110.487827 -176.738892 
L 107.908475 -176.81496 
L 105.329122 -177.017804 
L 102.749769 -177.119228 
L 100.170416 -177.34743 
L 97.591063 -177.626342 
L 95.01171 -177.70241 
L 92.432357 -178.843418 
L 89.853005 -179.730869 
L 87.273652 -180.111205 
L 84.694299 -180.237984 
L 82.114946 -180.567607 
L 79.535593 -181.125435 
L 76.95624 -182.139664 
L 74.376888 -182.367866 
L 71.797535 -182.52 
L 69.218182 -182.443932 
z
" style="stroke: #d3d3ff; stroke-opacity: 0.4"/>
    </defs>
    <g clip-path="url(#p8f11d03c91)">
     <use xlink:href="#m7907b0f497" x="0" y="216" style="fill: #d3d3ff; fill-opacity: 0.4; stroke: #d3d3ff; stroke-opacity: 0.4"/>
    </g>
   </g>
   <g id="matplotlib.axis_1">
    <g id="xtick_1">
     <g id="line2d_1">
      <defs>
       <path id="maae0c8a74e" d="M 0 0 
L 0 3.5 
" style="stroke: #000000; stroke-width: 0.8"/>
      </defs>
      <g>
       <use xlink:href="#maae0c8a74e" x="120.805239" y="192.24" style="stroke: #000000; stroke-width: 0.8"/>
      </g>
     </g>
     <g id="text_1">
      <text style="font: 10px 'DejaVu Sans', 'Bitstream Vera Sans', 'Computer Modern Sans Serif', 'Lucida Grande', 'Verdana', 'Geneva', 'Lucid', 'Arial', 'Helvetica', 'Avant Garde', sans-serif; text-anchor: middle" x="120.805239" y="206.838437" transform="rotate(-0 120.805239 206.838437)">1920</text>
     </g>
    </g>
    <g id="xtick_2">
     <g id="line2d_2">
      <g>
       <use xlink:href="#maae0c8a74e" x="198.185824" y="192.24" style="stroke: #000000; stroke-width: 0.8"/>
      </g>
     </g>
     <g id="text_2">
      <text style="font: 10px 'DejaVu Sans', 'Bitstream Vera Sans', 'Computer Modern Sans Serif', 'Lucida Grande', 'Verdana', 'Geneva', 'Lucid', 'Arial', 'Helvetica', 'Avant Garde', sans-serif; text-anchor: middle" x="198.185824" y="206.838437" transform="rotate(-0 198.185824 206.838437)">1950</text>
     </g>
    </g>
    <g id="xtick_3">
     <g id="line2d_3">
      <g>
       <use xlink:href="#maae0c8a74e" x="275.56641" y="192.24" style="stroke: #000000; stroke-width: 0.8"/>
      </g>
     </g>
     <g id="text_3">
      <text style="font: 10px 'DejaVu Sans', 'Bitstream Vera Sans', 'Computer Modern Sans Serif', 'Lucida Grande', 'Verdana', 'Geneva', 'Lucid', 'Arial', 'Helvetica', 'Avant Garde', sans-serif; text-anchor: middle" x="275.56641" y="206.838437" transform="rotate(-0 275.56641 206.838437)">1980</text>
     </g>
    </g>
    <g id="xtick_4">
     <g id="line2d_4">
      <g>
       <use xlink:href="#maae0c8a74e" x="352.946995" y="192.24" style="stroke: #000000; stroke-width: 0.8"/>
      </g>
     </g>
     <g id="text_4">
      <text style="font: 10px 'DejaVu Sans', 'Bitstream Vera Sans', 'Computer Modern Sans Serif', 'Lucida Grande', 'Verdana', 'Geneva', 'Lucid', 'Arial', 'Helvetica', 'Avant Garde', sans-serif; text-anchor: middle" x="352.946995" y="206.838437" transform="rotate(-0 352.946995 206.838437)">2010</text>
     </g>
    </g>
   </g>
   <g id="matplotlib.axis_2">
    <g id="ytick_1">
     <g id="line2d_5">
      <defs>
       <path id="m1ad00ce4d8" d="M 0 0 
L -3.5 0 
" style="stroke: #000000; stroke-width: 0.8"/>
      </defs>
      <g>
       <use xlink:href="#m1ad00ce4d8" x="54" y="183.631805" style="stroke: #000000; stroke-width: 0.8"/>
      </g>
     </g>
     <g id="text_5">
      <text style="font: 10px 'DejaVu Sans', 'Bitstream Vera Sans', 'Computer Modern Sans Serif', 'Lucida Grande', 'Verdana', 'Geneva', 'Lucid', 'Arial', 'Helvetica', 'Avant Garde', sans-serif; text-anchor: end" x="47" y="187.431024" transform="rotate(-0 47 187.431024)">2.67</text>
     </g>
    </g>
    <g id="ytick_2">
     <g id="line2d_6">
      <g>
       <use xlink:href="#m1ad00ce4d8" x="54" y="141.663692" style="stroke: #000000; stroke-width: 0.8"/>
      </g>
     </g>
     <g id="text_6">
      <text style="font: 10px 'DejaVu Sans', 'Bitstream Vera Sans', 'Computer Modern Sans Serif', 'Lucida Grande', 'Verdana', 'Geneva', 'Lucid', 'Arial', 'Helvetica', 'Avant Garde', sans-serif; text-anchor: end" x="47" y="145.462911" transform="rotate(-0 47 145.462911)">2.70</text>
     </g>
    </g>
    <g id="ytick_3">
     <g id="line2d_7">
      <g>
       <use xlink:href="#m1ad00ce4d8" x="54" y="99.695579" style="stroke: #000000; stroke-width: 0.8"/>
      </g>
     </g>
     <g id="text_7">
      <text style="font: 10px 'DejaVu Sans', 'Bitstream Vera Sans', 'Computer Modern Sans Serif', 'Lucida Grande', 'Verdana', 'Geneva', 'Lucid', 'Arial', 'Helvetica', 'Avant Garde', sans-serif; text-anchor: end" x="47" y="103.494798" transform="rotate(-0 47 103.494798)">2.73</text>
     </g>
    </g>
    <g id="ytick_4">
     <g id="line2d_8">
      <g>
       <use xlink:href="#m1ad00ce4d8" x="54" y="57.727466" style="stroke: #000000; stroke-width: 0.8"/>
      </g>
     </g>
     <g id="text_8">
      <text style="font: 10px 'DejaVu Sans', 'Bitstream Vera Sans', 'Computer Modern Sans Serif', 'Lucida Grande', 'Verdana', 'Geneva', 'Lucid', 'Arial', 'Helvetica', 'Avant Garde', sans-serif; text-anchor: end" x="47" y="61.526685" transform="rotate(-0 47 61.526685)">2.76</text>
     </g>
    </g>
   </g>
   <g id="line2d_9">
    <path d="M 69.218182 39.000235 
L 71.797535 38.941937 
L 74.376888 39.103041 
L 76.95624 39.31002 
L 79.535593 39.7294 
L 82.114946 39.835565 
L 84.694299 40.069303 
L 87.273652 40.254677 
L 89.853005 40.614784 
L 92.432357 40.905434 
L 95.01171 41.133527 
L 97.591063 41.17006 
L 100.170416 41.436451 
L 102.749769 41.608454 
L 105.329122 41.688621 
L 107.908475 41.852163 
L 110.487827 41.94097 
L 113.06718 42.289739 
L 115.646533 42.34509 
L 118.225886 42.429202 
L 120.805239 42.520233 
L 123.384592 42.600891 
L 125.963945 42.501366 
L 128.543297 42.665459 
L 131.12265 42.96309 
L 133.702003 43.060377 
L 136.281356 43.577731 
L 138.860709 43.959951 
L 141.440062 44.529772 
L 144.019414 45.0512 
L 146.598767 45.36227 
L 149.17812 46.297394 
L 151.757473 46.792771 
L 154.336826 47.348999 
L 156.916179 47.833826 
L 159.495532 48.399537 
L 162.074884 49.03462 
L 164.654237 49.367305 
L 167.23359 49.575622 
L 169.812943 49.817422 
L 172.392296 50.030248 
L 174.971649 50.34545 
L 177.551002 50.588877 
L 180.130354 50.943155 
L 182.709707 51.1971 
L 185.28906 51.218343 
L 187.868413 51.31713 
L 190.447766 51.581723 
L 193.027119 52.066959 
L 195.606471 52.63255 
L 198.185824 53.04681 
L 200.765177 53.397342 
L 203.34453 53.63362 
L 205.923883 53.866906 
L 208.503236 54.014697 
L 211.082589 54.130855 
L 213.661941 54.322495 
L 216.241294 54.68902 
L 218.820647 55.034169 
L 221.4 55.129157 
L 223.979353 55.476976 
L 226.558706 55.823313 
L 229.138059 56.26016 
L 231.717411 56.381894 
L 234.296764 56.398684 
L 236.876117 56.619028 
L 239.45547 56.989335 
L 242.034823 57.175999 
L 244.614176 57.459783 
L 247.193529 57.66687 
L 249.772881 57.744558 
L 252.352234 57.990854 
L 254.931587 57.837551 
L 257.51094 57.812727 
L 260.090293 57.934965 
L 262.669646 57.963454 
L 265.248998 57.873849 
L 267.828351 57.875965 
L 270.407704 57.91477 
L 272.987057 57.970019 
L 275.56641 58.116571 
L 278.145763 58.38393 
L 280.725116 58.580271 
L 283.304468 58.462017 
L 285.883821 58.393444 
L 288.463174 58.500895 
L 291.042527 58.589586 
L 293.62188 58.589061 
L 296.201233 58.727028 
L 298.780586 58.91119 
L 301.359938 59.017276 
L 303.939291 59.111421 
L 306.518644 58.988825 
L 309.097997 59.034894 
L 311.67735 59.157203 
L 314.256703 59.428208 
L 316.836055 59.238604 
L 319.415408 59.251986 
L 321.994761 59.440431 
L 324.574114 59.581231 
L 327.153467 59.726568 
L 329.73282 59.872617 
L 332.312173 60.19883 
L 334.891525 60.551909 
L 337.470878 60.896794 
L 340.050231 61.21615 
L 342.629584 61.603301 
L 345.208937 62.013248 
L 347.78829 62.413051 
L 350.367643 62.758353 
L 352.946995 63.323215 
L 355.526348 63.990138 
L 358.105701 64.593763 
L 360.685054 65.120798 
L 363.264407 65.326574 
L 365.84376 65.620923 
L 368.423112 66.002157 
L 371.002465 66.332194 
L 373.581818 66.401593 
" clip-path="url(#p8f11d03c91)" style="fill: none; stroke: #2626ff; stroke-width: 1.5; stroke-linecap: square"/>
   </g>
   <g id="line2d_10">
    <path d="M 69.218182 184.68 
L 71.797535 184.68 
L 74.376888 184.68 
L 76.95624 184.68 
L 79.535593 184.68 
L 82.114946 184.68 
L 84.694299 184.68 
L 87.273652 184.68 
L 89.853005 184.68 
L 92.432357 184.68 
L 95.01171 184.68 
L 97.591063 184.68 
L 100.170416 184.68 
L 102.749769 184.68 
L 105.329122 184.68 
L 107.908475 184.68 
L 110.487827 184.68 
L 113.06718 184.68 
L 115.646533 184.68 
L 118.225886 184.68 
L 120.805239 184.68 
L 123.384592 184.68 
L 125.963945 184.68 
L 128.543297 184.68 
L 131.12265 184.68 
L 133.702003 184.68 
L 136.281356 184.68 
L 138.860709 184.68 
L 141.440062 184.68 
L 144.019414 184.68 
L 146.598767 184.68 
L 149.17812 184.68 
L 151.757473 184.68 
L 154.336826 184.68 
L 156.916179 184.68 
L 159.495532 184.68 
L 162.074884 184.68 
L 164.654237 184.68 
L 167.23359 184.68 
L 169.812943 184.68 
L 172.392296 184.68 
L 174.971649 184.68 
L 177.551002 184.68 
L 180.130354 184.68 
L 182.709707 184.68 
L 185.28906 184.68 
L 187.868413 184.68 
L 190.447766 184.68 
L 193.027119 184.68 
L 195.606471 184.68 
L 198.185824 184.68 
L 200.765177 184.68 
L 203.34453 184.68 
L 205.923883 184.68 
L 208.503236 184.68 
L 211.082589 184.68 
L 213.661941 184.68 
L 216.241294 184.68 
L 218.820647 184.68 
L 221.4 184.68 
L 223.979353 184.68 
L 226.558706 184.68 
L 229.138059 184.68 
L 231.717411 184.68 
L 234.296764 184.68 
L 236.876117 184.68 
L 239.45547 184.68 
L 242.034823 184.68 
L 244.614176 184.68 
L 247.193529 184.68 
L 249.772881 184.68 
L 252.352234 184.68 
L 254.931587 184.68 
L 257.51094 184.68 
L 260.090293 184.68 
L 262.669646 184.68 
L 265.248998 184.68 
L 267.828351 184.68 
L 270.407704 184.68 
L 272.987057 184.68 
L 275.56641 184.68 
L 278.145763 184.68 
L 280.725116 184.68 
L 283.304468 184.68 
L 285.883821 184.68 
L 288.463174 184.68 
L 291.042527 184.68 
L 293.62188 184.68 
L 296.201233 184.68 
L 298.780586 184.68 
L 301.359938 184.68 
L 303.939291 184.68 
L 306.518644 184.68 
L 309.097997 184.68 
L 311.67735 184.68 
L 314.256703 184.68 
L 316.836055 184.68 
L 319.415408 184.68 
L 321.994761 184.68 
L 324.574114 184.68 
L 327.153467 184.68 
L 329.73282 184.68 
L 332.312173 184.68 
L 334.891525 184.68 
L 337.470878 184.68 
L 340.050231 184.68 
L 342.629584 184.68 
L 345.208937 184.68 
L 347.78829 184.68 
L 350.367643 184.68 
L 352.946995 184.68 
L 355.526348 184.68 
L 358.105701 184.68 
L 360.685054 184.68 
L 363.264407 184.68 
L 365.84376 184.68 
L 368.423112 184.68 
L 371.002465 184.68 
L 373.581818 184.68 
" clip-path="url(#p8f11d03c91)" style="fill: none; stroke: #ff0001; stroke-width: 1.5; stroke-linecap: square"/>
   </g>
   <g id="line2d_11">
    <path d="M 198.185824 192.24 
L 198.185824 25.92 
" clip-path="url(#p8f11d03c91)" style="fill: none; stroke-dasharray: 3.7,1.6; stroke-dashoffset: 0; stroke: #808080; stroke-opacity: 0.5"/>
   </g>
   <g id="patch_3">
    <path d="M 54 192.24 
L 54 25.92 
" style="fill: none; stroke: #000000; stroke-width: 0.8; stroke-linejoin: miter; stroke-linecap: square"/>
   </g>
   <g id="patch_4">
    <path d="M 388.8 192.24 
L 388.8 25.92 
" style="fill: none"/>
   </g>
   <g id="patch_5">
    <path d="M 54 192.24 
L 388.8 192.24 
" style="fill: none; stroke: #000000; stroke-width: 0.8; stroke-linejoin: miter; stroke-linecap: square"/>
   </g>
   <g id="patch_6">
    <path d="M 54 25.92 
L 388.8 25.92 
" style="fill: none"/>
   </g>
  </g>
 </g>
 <defs>
  <clipPath id="p8f11d03c91">
   <rect x="54" y="25.92" width="334.8" height="166.32"/>
  </clipPath>
 </defs>
</svg>
