<?xml version="1.0" encoding="utf-8" standalone="no"?>
<!DOCTYPE svg PUBLIC "-//W3C//DTD SVG 1.1//EN"
  "http://www.w3.org/Graphics/SVG/1.1/DTD/svg11.dtd">
<svg xmlns:xlink="http://www.w3.org/1999/xlink" width="1080pt" height="216pt" viewBox="0 0 1080 216" xmlns="http://www.w3.org/2000/svg" version="1.1">
 <metadata>
  <rdf:RDF xmlns:dc="http://purl.org/dc/elements/1.1/" xmlns:cc="http://creativecommons.org/ns#" xmlns:rdf="http://www.w3.org/1999/02/22-rdf-syntax-ns#">
   <cc:Work>
    <dc:type rdf:resource="http://purl.org/dc/dcmitype/StillImage"/>
    <dc:date>2026-01-03T22:31:09.626934</dc:date>
    <dc:format>image/svg+xml</dc:format>
    <dc:creator>
     <cc:Agent>
      <dc:title>Matplotlib v3.8.4, https://matplotlib.org/</dc:title>
     </cc:Agent>
    </dc:creator>
   </cc:Work>
  </rdf:RDF>
 </metadata>
 <defs>
  <style type="text/css">*{stroke-linejoin: round; stroke-linecap: butt}</style>
 </defs>
 <g id="figure_1">
  <g id="patch_1">
   <path d="M 0 216 
L 1080 216 
L 1080 0 
L 0 0 
z
" style="fill: #ffffff"/>
  </g>
  <g id="axes_1">
   <g id="patch_2">
    <path d="M 135 192.24 
L 972 192.24 
L 972 25.92 
L 135 25.92 
z
" style="fill: #ffffff"/>
   </g>
   <g id="PolyCollection_1">
    <path d="M 643.194084 169.172104 
L 643.194084 169.172104 
L 634.507006 169.697191 
L 625.819927 170.304109 
L 617.132849 170.79921 
L 608.445771 171.437989 
L 599.758692 172.955204 
L 591.071614 173.784517 
L 582.384536 174.343365 
L 573.697457 175.165671 
L 565.010379 176.235638 
L 556.3233 176.489072 
L 547.636222 177.241986 
L 538.949144 177.570771 
L 530.262065 177.288503 
L 521.574987 177.561393 
L 512.887909 178.645154 
L 504.20083 178.713901 
L 495.513752 178.774774 
L 486.826674 179.163299 
L 478.139595 179.613494 
L 469.452517 180.203937 
L 460.765439 180.974956 
L 452.07836 181.793624 
L 443.391282 182.48978 
L 434.704203 182.759694 
L 426.017125 182.934984 
L 417.330047 183.145237 
L 408.642968 183.521058 
L 399.95589 183.736405 
L 391.268812 183.948787 
L 382.581733 184.133147 
L 373.894655 184.349861 
L 365.207577 184.68 
L 356.520498 183.705535 
L 347.83342 181.394621 
L 339.146341 180.768266 
L 330.459263 182.063615 
L 321.772185 182.136932 
L 313.085106 182.465072 
L 304.398028 182.252604 
L 295.71095 181.935299 
L 287.023871 183.501422 
L 278.336793 184.066861 
L 269.649715 183.821559 
L 260.962636 183.914246 
L 252.275558 180.631014 
L 243.58848 176.926762 
L 234.901401 171.98913 
L 226.214323 162.683912 
L 217.527244 159.399024 
L 208.840166 159.179505 
L 200.153088 158.164486 
L 191.466009 156.908223 
L 182.778931 155.877176 
L 174.091853 154.991845 
L 165.404774 153.680288 
L 156.717696 152.622957 
L 148.030618 150.871835 
L 139.343539 149.617989 
L 130.656461 148.473612 
L 121.969382 146.927187 
L 113.282304 144.931706 
L 104.595226 142.678829 
L 95.908147 140.059927 
L 87.221069 137.920947 
L 78.533991 135.371674 
L 69.846912 132.383327 
L 61.159834 128.460344 
L 52.472756 124.51236 
L 43.785677 119.772418 
L 35.098599 114.599515 
L 26.41152 110.760406 
L 17.724442 105.486259 
L 9.037364 104.997079 
L 0.350285 105.855381 
L -8.336793 106.011937 
L -17.023871 106.138494 
L -25.71095 106.508245 
L -34.398028 106.391099 
L -43.085106 106.443236 
L -51.772185 106.307767 
L -60.459263 105.910128 
L -69.146341 106.161502 
L -77.83342 106.294009 
L -86.520498 106.239354 
L -95.207577 105.634732 
L -103.894655 106.24075 
L -112.581733 106.309391 
L -121.268812 106.365247 
L -129.95589 106.817416 
L -138.642968 107.477516 
L -147.330047 107.917751 
L -156.017125 108.458674 
L -164.704203 109.191644 
L -173.391282 109.781358 
L -182.07836 110.340862 
L -190.765439 111.152576 
L -199.452517 111.978134 
L -208.139595 110.392445 
L -216.826674 110.749994 
L -225.513752 111.155837 
L -234.20083 111.606489 
L -242.887909 111.834861 
L -251.574987 112.122379 
L -260.262065 112.646672 
L -268.949144 112.876686 
L -277.636222 113.066319 
L -286.3233 113.048121 
L -295.010379 113.117118 
L -303.697457 113.072566 
L -312.384536 113.201542 
L -321.071614 113.318689 
L -329.758692 113.301378 
L -338.445771 113.498802 
L -347.132849 113.736842 
L -355.819927 114.000734 
L -364.507006 114.904446 
L -373.194084 115.772737 
L -381.881162 115.162217 
L -390.568241 114.705238 
L -399.255319 117.119745 
L -407.942398 116.899633 
L -416.629476 116.990785 
L -425.316554 117.044239 
L -434.003633 117.018496 
L -442.690711 117.024102 
L -451.377789 117.137811 
L -460.064868 117.052408 
L -468.751946 116.936829 
L -477.439024 116.499523 
L -486.126103 116.331486 
L -494.813181 116.289165 
L -503.500259 116.215592 
L -512.187338 115.910289 
L -520.874416 115.673244 
L -529.561495 115.408649 
L -538.248573 115.556447 
L -546.935651 115.543055 
L -555.62273 115.916256 
L -564.309808 117.217379 
L -572.996886 117.118012 
L -581.683965 116.796571 
L -590.371043 116.636892 
L -599.058121 116.368229 
L -607.7452 117.781173 
L -616.432278 117.304435 
L -625.119357 117.209461 
L -633.806435 117.139453 
L -642.493513 117.246657 
L -651.180592 117.091056 
L -659.86767 116.726991 
L -746.738454 112.414633 
L -833.609237 111.728258 
L -920.480021 118.114301 
L -1007.350804 114.055223 
L -1094.221588 110.753341 
L -1181.092372 107.952916 
L -1267.963155 109.255532 
L -1354.833939 108.438109 
L -1441.704722 106.656255 
L -1528.575506 104.563108 
L -1615.44629 112.845263 
L -1702.317073 111.192534 
L -1789.187857 116.17386 
L -1876.05864 122.853568 
L -1962.929424 124.879254 
L -2049.800208 126.808385 
L -2136.670991 126.154766 
L -2223.541775 123.420182 
L -2310.412558 119.033739 
L -2397.283342 128.196993 
L -2484.154126 144.504291 
L -2571.024909 161.8143 
L -2657.895693 160.153378 
L -2744.766476 158.492457 
L -2831.63726 156.831535 
L -2831.63726 105.486259 
L -2831.63726 105.486259 
L -2744.766476 103.95415 
L -2657.895693 108.0733 
L -2571.024909 114.133017 
L -2484.154126 109.314969 
L -2397.283342 112.773841 
L -2310.412558 108.186242 
L -2223.541775 108.186242 
L -2136.670991 110.760406 
L -2049.800208 97.719874 
L -1962.929424 85.005829 
L -1876.05864 97.859783 
L -1789.187857 107.923821 
L -1702.317073 99.669948 
L -1615.44629 99.428459 
L -1528.575506 94.504568 
L -1441.704722 92.438405 
L -1354.833939 95.537641 
L -1267.963155 99.648267 
L -1181.092372 93.471472 
L -1094.221588 98.478055 
L -1007.350804 99.499286 
L -920.480021 102.029744 
L -833.609237 98.428617 
L -746.738454 85.076032 
L -659.86767 74.529084 
L -651.180592 74.401165 
L -642.493513 74.273287 
L -633.806435 74.14538 
L -625.119357 74.017467 
L -616.432278 73.889583 
L -607.7452 73.76167 
L -599.058121 73.633786 
L -590.371043 73.505879 
L -581.683965 73.377978 
L -572.996886 73.250088 
L -564.309808 73.122181 
L -555.62273 72.99428 
L -546.935651 72.549354 
L -538.248573 71.787358 
L -529.561495 71.025373 
L -520.874416 70.263412 
L -512.187338 69.501416 
L -503.500259 68.739431 
L -494.813181 67.977435 
L -486.126103 67.21545 
L -477.439024 66.453466 
L -468.751946 65.691504 
L -460.064868 64.929496 
L -451.377789 64.167523 
L -442.690711 63.405516 
L -434.003633 63.564686 
L -425.316554 63.723787 
L -416.629476 63.882935 
L -407.942398 64.042082 
L -399.255319 64.201206 
L -390.568241 64.360365 
L -381.881162 64.519489 
L -373.194084 64.678636 
L -364.507006 64.837772 
L -355.819927 64.996897 
L -347.132849 65.156032 
L -338.445771 65.315168 
L -329.758692 65.170563 
L -321.071614 64.722216 
L -312.384536 64.273824 
L -303.697457 63.8255 
L -295.010379 63.377153 
L -286.3233 62.928795 
L -277.636222 62.480414 
L -268.949144 62.032056 
L -260.262065 61.583709 
L -251.574987 61.135339 
L -242.887909 60.68697 
L -234.20083 60.238612 
L -225.513752 59.790276 
L -216.826674 59.94916 
L -208.139595 60.108056 
L -199.452517 60.26694 
L -190.765439 60.425824 
L -182.07836 60.584731 
L -173.391282 60.743581 
L -164.704203 60.902476 
L -156.017125 61.061372 
L -147.330047 61.22029 
L -138.642968 61.379152 
L -129.95589 61.538047 
L -121.268812 61.696943 
L -112.581733 62.0798 
L -103.894655 62.686653 
L -95.207577 63.293529 
L -86.520498 63.900394 
L -77.83342 64.507259 
L -69.146341 65.114135 
L -60.459263 65.720965 
L -51.772185 66.327841 
L -43.085106 66.934672 
L -34.398028 67.541513 
L -25.71095 68.148389 
L -17.023871 68.755254 
L -8.336793 69.362119 
L 0.350285 71.011118 
L 9.037364 72.660139 
L 17.724442 74.309144 
L 26.41152 75.958137 
L 35.098599 77.607147 
L 43.785677 79.256163 
L 52.472756 80.905168 
L 61.159834 82.554161 
L 69.846912 84.203188 
L 78.533991 85.852181 
L 87.221069 87.50118 
L 95.908147 89.150201 
L 104.595226 90.708208 
L 113.282304 92.175177 
L 121.969382 93.206277 
L 130.656461 92.86292 
L 139.343539 92.518248 
L 148.030618 94.858353 
L 156.717696 98.178409 
L 165.404774 99.438098 
L 174.091853 100.625547 
L 182.778931 103.911073 
L 191.466009 105.378065 
L 200.153088 106.845029 
L 208.840166 108.312032 
L 217.527244 113.136819 
L 226.214323 117.961606 
L 234.901401 122.786376 
L 243.58848 127.611163 
L 252.275558 132.435942 
L 260.962636 137.260715 
L 269.649715 142.085502 
L 278.336793 146.910283 
L 287.023871 151.735064 
L 295.71095 156.559844 
L 304.398028 161.384624 
L 313.085106 166.209405 
L 321.772185 169.052173 
L 330.459263 169.912928 
L 339.146341 170.773682 
L 347.83342 171.607565 
L 356.520498 171.607565 
L 365.207577 171.607565 
L 373.894655 171.607565 
L 382.581733 171.607565 
L 391.268812 171.607565 
L 399.95589 171.878485 
L 408.642968 171.955015 
L 417.330047 171.607565 
L 426.017125 171.607565 
L 434.704203 171.607565 
L 443.391282 171.607565 
L 452.07836 171.607565 
L 460.765439 171.607565 
L 469.452517 171.607565 
L 478.139595 171.607565 
L 486.826674 171.607565 
L 495.513752 171.607565 
L 504.20083 171.607565 
L 512.887909 171.480863 
L 521.574987 171.354162 
L 530.262065 171.22746 
L 538.949144 171.100759 
L 547.636222 170.974057 
L 556.3233 170.847356 
L 565.010379 170.693701 
L 573.697457 170.531061 
L 582.384536 170.368421 
L 591.071614 170.205781 
L 599.758692 170.043141 
L 608.445771 169.871369 
L 617.132849 169.696553 
L 625.819927 169.354877 
L 634.507006 169.050188 
L 643.194084 169.172104 
z
" clip-path="url(#p7afbb46e4f)" style="fill: #a4b9ca; fill-opacity: 0.4; stroke: #a4b9ca; stroke-opacity: 0.4"/>
   </g>
   <g id="PolyCollection_2">
    <path d="M 643.194084 169.172104 
L 643.194084 169.172104 
L 634.507006 169.697191 
L 625.819927 170.304109 
L 617.132849 170.79921 
L 608.445771 171.437989 
L 599.758692 172.955204 
L 591.071614 173.784517 
L 582.384536 174.343365 
L 573.697457 175.165671 
L 565.010379 176.235638 
L 556.3233 176.489072 
L 547.636222 177.241986 
L 538.949144 177.570771 
L 530.262065 177.288503 
L 521.574987 177.561393 
L 512.887909 178.645154 
L 504.20083 178.713901 
L 495.513752 178.774774 
L 486.826674 179.163299 
L 478.139595 179.613494 
L 469.452517 180.203937 
L 460.765439 180.974956 
L 452.07836 181.793624 
L 443.391282 182.48978 
L 434.704203 182.759694 
L 426.017125 182.934984 
L 417.330047 183.145237 
L 408.642968 183.521058 
L 399.95589 183.736405 
L 391.268812 183.948787 
L 382.581733 184.133147 
L 373.894655 184.349861 
L 365.207577 184.68 
L 356.520498 183.705535 
L 347.83342 181.394621 
L 339.146341 180.768266 
L 330.459263 182.063615 
L 321.772185 182.136932 
L 313.085106 182.465072 
L 304.398028 182.252604 
L 295.71095 181.935299 
L 287.023871 183.501422 
L 278.336793 184.066861 
L 269.649715 183.821559 
L 260.962636 183.914246 
L 252.275558 180.631014 
L 243.58848 176.926762 
L 234.901401 171.98913 
L 226.214323 162.683912 
L 217.527244 159.399024 
L 208.840166 159.179505 
L 200.153088 158.164486 
L 191.466009 156.908223 
L 182.778931 155.877176 
L 174.091853 154.991845 
L 165.404774 153.680288 
L 156.717696 152.622957 
L 148.030618 150.871835 
L 139.343539 149.617989 
L 130.656461 148.473612 
L 121.969382 146.927187 
L 113.282304 144.931706 
L 104.595226 142.678829 
L 95.908147 140.059927 
L 87.221069 137.920947 
L 78.533991 135.371674 
L 69.846912 132.383327 
L 61.159834 128.460344 
L 52.472756 124.51236 
L 43.785677 119.772418 
L 35.098599 114.599515 
L 26.41152 110.760406 
L 17.724442 105.486259 
L 9.037364 104.997079 
L 0.350285 105.855381 
L -8.336793 106.011937 
L -17.023871 106.138494 
L -25.71095 106.508245 
L -34.398028 106.391099 
L -43.085106 106.443236 
L -51.772185 106.307767 
L -60.459263 105.910128 
L -69.146341 106.161502 
L -77.83342 106.294009 
L -86.520498 106.239354 
L -95.207577 105.634732 
L -103.894655 106.24075 
L -112.581733 106.309391 
L -121.268812 106.365247 
L -129.95589 106.817416 
L -138.642968 107.477516 
L -147.330047 107.917751 
L -156.017125 108.458674 
L -164.704203 109.191644 
L -173.391282 109.781358 
L -182.07836 110.340862 
L -190.765439 111.152576 
L -199.452517 111.978134 
L -208.139595 110.392445 
L -216.826674 110.749994 
L -225.513752 111.155837 
L -234.20083 111.606489 
L -242.887909 111.834861 
L -251.574987 112.122379 
L -260.262065 112.646672 
L -268.949144 112.876686 
L -277.636222 113.066319 
L -286.3233 113.048121 
L -295.010379 113.117118 
L -303.697457 113.072566 
L -312.384536 113.201542 
L -321.071614 113.318689 
L -329.758692 113.301378 
L -338.445771 113.498802 
L -347.132849 113.736842 
L -355.819927 114.000734 
L -364.507006 114.904446 
L -373.194084 115.772737 
L -381.881162 115.162217 
L -390.568241 114.705238 
L -399.255319 117.119745 
L -407.942398 116.899633 
L -416.629476 116.990785 
L -425.316554 117.044239 
L -434.003633 117.018496 
L -442.690711 117.024102 
L -451.377789 117.137811 
L -460.064868 117.052408 
L -468.751946 116.936829 
L -477.439024 116.499523 
L -486.126103 116.331486 
L -494.813181 116.289165 
L -503.500259 116.215592 
L -512.187338 115.910289 
L -520.874416 115.673244 
L -529.561495 115.408649 
L -538.248573 115.556447 
L -546.935651 115.543055 
L -555.62273 115.916256 
L -564.309808 117.217379 
L -572.996886 117.118012 
L -581.683965 116.796571 
L -590.371043 116.636892 
L -599.058121 116.368229 
L -607.7452 117.781173 
L -616.432278 117.304435 
L -625.119357 117.209461 
L -633.806435 117.139453 
L -642.493513 117.246657 
L -651.180592 117.091056 
L -659.86767 116.726991 
L -746.738454 112.414633 
L -833.609237 111.728258 
L -920.480021 118.114301 
L -1007.350804 114.055223 
L -1094.221588 134.414296 
L -1181.092372 128.216306 
L -1267.963155 112.37035 
L -1354.833939 112.373771 
L -1441.704722 126.499209 
L -1528.575506 125.794482 
L -1615.44629 112.845263 
L -1702.317073 115.150804 
L -1789.187857 116.17386 
L -1876.05864 122.853568 
L -1962.929424 124.879254 
L -2049.800208 126.808385 
L -2136.670991 126.154766 
L -2223.541775 129.613965 
L -2310.412558 136.675199 
L -2397.283342 144.09441 
L -2484.154126 152.316934 
L -2571.024909 161.994401 
L -2657.895693 167.166097 
L -2744.766476 167.311844 
L -2831.63726 167.351986 
L -2831.63726 105.304933 
L -2831.63726 105.304933 
L -2744.766476 103.95415 
L -2657.895693 107.934564 
L -2571.024909 113.557639 
L -2484.154126 108.967637 
L -2397.283342 112.773841 
L -2310.412558 108.186242 
L -2223.541775 96.637478 
L -2136.670991 83.390696 
L -2049.800208 70.143908 
L -1962.929424 75.824584 
L -1876.05864 81.505305 
L -1789.187857 87.186015 
L -1702.317073 84.651277 
L -1615.44629 82.116523 
L -1528.575506 79.581774 
L -1441.704722 78.68678 
L -1354.833939 77.79178 
L -1267.963155 76.896797 
L -1181.092372 71.607548 
L -1094.221588 66.318288 
L -1007.350804 61.029073 
L -920.480021 59.526282 
L -833.609237 58.023525 
L -746.738454 56.52071 
L -659.86767 52.322346 
L -651.180592 52.549992 
L -642.493513 52.777592 
L -633.806435 53.005238 
L -625.119357 53.232849 
L -616.432278 53.460484 
L -607.7452 53.921645 
L -599.058121 54.382794 
L -590.371043 54.843955 
L -581.683965 55.305093 
L -572.996886 55.766231 
L -564.309808 55.903628 
L -555.62273 56.041083 
L -546.935651 56.178492 
L -538.248573 56.31589 
L -529.561495 56.453321 
L -520.874416 56.117133 
L -512.187338 55.780967 
L -503.500259 55.444813 
L -494.813181 55.108636 
L -486.126103 54.77247 
L -477.439024 53.862574 
L -468.751946 52.952689 
L -460.064868 52.042792 
L -451.377789 51.132884 
L -442.690711 50.22301 
L -434.003633 49.906089 
L -425.316554 49.589167 
L -416.629476 49.272269 
L -407.942398 48.955324 
L -399.255319 48.638414 
L -390.568241 47.706493 
L -381.881162 46.774584 
L -373.194084 45.84264 
L -364.507006 44.910719 
L -355.819927 43.978798 
L -347.132849 43.853093 
L -338.445771 43.727354 
L -329.758692 43.601616 
L -321.071614 43.475911 
L -312.384536 43.350195 
L -303.697457 43.131565 
L -295.010379 42.912935 
L -286.3233 42.694316 
L -277.636222 42.475686 
L -268.949144 42.257079 
L -260.262065 41.945924 
L -251.574987 41.634769 
L -242.887909 41.323648 
L -234.20083 41.012515 
L -225.513752 40.701383 
L -216.826674 41.421264 
L -208.139595 42.141088 
L -199.452517 42.86098 
L -190.765439 43.580861 
L -182.07836 44.300719 
L -173.391282 43.786963 
L -164.704203 43.273264 
L -156.017125 42.759508 
L -147.330047 42.245809 
L -138.642968 41.732053 
L -129.95589 40.188771 
L -121.268812 38.645443 
L -112.581733 37.10215 
L -103.894655 35.558845 
L -95.207577 34.015517 
L -86.520498 33.747759 
L -77.83342 33.48 
L -69.146341 33.56899 
L -60.459263 34.014671 
L -51.772185 34.460397 
L -43.085106 35.738632 
L -34.398028 37.016856 
L -25.71095 38.4741 
L -17.023871 40.110433 
L -8.336793 41.746744 
L 0.350285 42.282844 
L 9.037364 42.818922 
L 17.724442 44.748723 
L 26.41152 48.072223 
L 35.098599 51.3957 
L 43.785677 51.676238 
L 52.472756 51.956765 
L 61.159834 54.003838 
L 69.846912 57.817423 
L 78.533991 61.63103 
L 87.221069 66.219264 
L 95.908147 70.807498 
L 104.595226 75.320381 
L 113.282304 79.757923 
L 121.969382 84.195477 
L 130.656461 87.796592 
L 139.343539 91.397736 
L 148.030618 93.372723 
L 156.717696 95.427067 
L 165.404774 97.482292 
L 174.091853 97.412735 
L 182.778931 97.342011 
L 191.466009 97.282294 
L 200.153088 97.234332 
L 208.840166 97.187412 
L 217.527244 102.662294 
L 226.214323 108.132354 
L 234.901401 113.58242 
L 243.58848 119.014884 
L 252.275558 124.449579 
L 260.962636 133.29022 
L 269.649715 142.085502 
L 278.336793 146.910283 
L 287.023871 151.735064 
L 295.71095 156.559844 
L 304.398028 161.384624 
L 313.085106 165.749487 
L 321.772185 166.749906 
L 330.459263 167.688707 
L 339.146341 168.627507 
L 347.83342 169.199047 
L 356.520498 169.770587 
L 365.207577 170.232973 
L 373.894655 170.586204 
L 382.581733 170.939436 
L 391.268812 171.40896 
L 399.95589 171.607565 
L 408.642968 171.607565 
L 417.330047 171.146002 
L 426.017125 170.336989 
L 434.704203 169.850927 
L 443.391282 169.364863 
L 452.07836 168.889753 
L 460.765439 168.425622 
L 469.452517 167.961555 
L 478.139595 168.022758 
L 486.826674 168.083094 
L 495.513752 168.154043 
L 504.20083 168.236251 
L 512.887909 168.319537 
L 521.574987 168.884573 
L 530.262065 169.448987 
L 538.949144 169.619343 
L 547.636222 169.395799 
L 556.3233 169.172104 
L 565.010379 169.172104 
L 573.697457 169.172104 
L 582.384536 169.172104 
L 591.071614 169.172104 
L 599.758692 169.172104 
L 608.445771 169.172104 
L 617.132849 169.172104 
L 625.819927 169.172104 
L 634.507006 169.050188 
L 643.194084 169.172104 
z
" clip-path="url(#p7afbb46e4f)" style="fill: #d5dadd; fill-opacity: 0.4; stroke: #d5dadd; stroke-opacity: 0.4"/>
   </g>
   <g id="PolyCollection_3">
    <defs>
     <path id="m6ab5ce0547" d="M 641.022314 -47.830285 
L 641.022314 -47.272164 
L 641.06575 -47.27738 
L 641.109185 -47.273468 
L 641.152621 -47.260428 
L 641.196056 -47.272164 
L 641.239491 -47.286509 
L 641.282927 -47.274772 
L 641.326362 -47.268252 
L 641.369798 -47.249996 
L 641.413233 -47.265644 
L 641.456668 -47.295637 
L 641.500104 -47.295637 
L 641.543539 -47.281293 
L 641.586975 -47.272164 
L 641.63041 -47.273468 
L 641.673845 -47.268252 
L 641.717281 -47.26434 
L 641.760716 -47.247388 
L 641.804152 -47.247388 
L 641.847587 -47.24478 
L 641.891022 -47.242172 
L 641.934458 -47.236956 
L 641.977893 -47.243476 
L 642.021328 -47.236956 
L 642.064764 -47.223916 
L 642.108199 -47.2187 
L 642.151635 -47.193923 
L 642.19507 -47.174363 
L 642.238505 -47.148283 
L 642.281941 -47.12481 
L 642.325376 -47.109162 
L 642.368812 -47.062217 
L 642.412247 -47.037441 
L 642.455682 -47.010056 
L 642.499118 -46.986584 
L 642.542553 -46.956592 
L 642.585989 -46.922687 
L 642.629424 -46.909647 
L 642.672859 -46.900519 
L 642.716295 -46.890087 
L 642.75973 -46.879655 
L 642.803166 -46.86531 
L 642.846601 -46.856182 
L 642.890036 -46.83923 
L 642.933472 -46.827494 
L 642.976907 -46.827494 
L 643.020343 -46.822278 
L 643.063778 -46.809237 
L 643.107213 -46.787069 
L 643.150649 -46.759685 
L 643.194084 -46.737516 
L 645.365854 -46.723172 
L 647.537623 -46.711436 
L 649.709393 -46.701004 
L 651.881162 -46.69318 
L 654.052932 -46.689268 
L 656.224702 -46.681444 
L 658.396471 -46.664491 
L 660.568241 -46.646235 
L 662.74001 -46.643627 
L 664.91178 -46.626675 
L 667.08355 -46.612331 
L 669.255319 -46.590162 
L 671.427089 -46.584946 
L 673.598858 -46.584946 
L 675.770628 -46.574514 
L 677.942398 -46.556258 
L 680.114167 -46.54713 
L 682.285937 -46.534089 
L 684.457706 -46.523657 
L 686.629476 -46.522353 
L 688.801245 -46.511921 
L 690.973015 -46.519745 
L 693.144785 -46.523657 
L 695.316554 -46.517137 
L 697.488324 -46.517137 
L 699.660093 -46.522353 
L 701.831863 -46.526265 
L 704.003633 -46.523657 
L 706.175402 -46.522353 
L 708.347172 -46.515833 
L 710.518941 -46.502793 
L 712.690711 -46.492361 
L 714.862481 -46.498881 
L 717.03425 -46.505401 
L 719.20602 -46.500185 
L 721.377789 -46.497577 
L 723.549559 -46.497577 
L 725.721328 -46.492361 
L 727.893098 -46.483233 
L 730.064868 -46.480625 
L 732.236637 -46.476713 
L 734.408407 -46.488449 
L 736.580176 -46.487145 
L 738.751946 -46.481929 
L 740.923716 -46.470192 
L 743.095485 -46.481929 
L 745.267255 -46.481929 
L 747.439024 -46.475409 
L 749.610794 -46.470192 
L 751.782564 -46.463672 
L 753.954333 -46.458456 
L 756.126103 -46.444112 
L 758.297872 -46.432376 
L 760.469642 -46.416728 
L 762.641412 -46.401079 
L 764.813181 -46.382823 
L 766.984951 -46.361959 
L 769.15672 -46.343703 
L 771.32849 -46.32675 
L 773.500259 -46.298062 
L 775.672029 -46.264157 
L 777.843799 -46.231557 
L 780.015568 -46.202868 
L 782.187338 -46.191132 
L 784.359107 -46.17418 
L 786.530877 -46.153316 
L 788.702647 -46.135059 
L 790.874416 -46.129843 
L 790.874416 -46.150708 
L 790.874416 -46.150708 
L 788.702647 -46.153316 
L 786.530877 -46.16766 
L 784.359107 -46.18722 
L 782.187338 -46.20026 
L 780.015568 -46.209389 
L 777.843799 -46.235469 
L 775.672029 -46.265461 
L 773.500259 -46.30067 
L 771.32849 -46.330662 
L 769.15672 -46.350223 
L 766.984951 -46.372391 
L 764.813181 -46.394559 
L 762.641412 -46.416728 
L 760.469642 -46.43368 
L 758.297872 -46.45324 
L 756.126103 -46.475409 
L 753.954333 -46.494969 
L 751.782564 -46.505401 
L 749.610794 -46.514529 
L 747.439024 -46.523657 
L 745.267255 -46.538001 
L 743.095485 -46.540609 
L 740.923716 -46.531481 
L 738.751946 -46.545826 
L 736.580176 -46.55365 
L 734.408407 -46.558866 
L 732.236637 -46.556258 
L 730.064868 -46.562778 
L 727.893098 -46.567994 
L 725.721328 -46.578426 
L 723.549559 -46.58625 
L 721.377789 -46.587554 
L 719.20602 -46.594074 
L 717.03425 -46.603202 
L 714.862481 -46.601898 
L 712.690711 -46.594074 
L 710.518941 -46.60581 
L 708.347172 -46.620155 
L 706.175402 -46.629283 
L 704.003633 -46.634499 
L 701.831863 -46.638411 
L 699.660093 -46.641019 
L 697.488324 -46.637107 
L 695.316554 -46.637107 
L 693.144785 -46.646235 
L 690.973015 -46.650147 
L 688.801245 -46.642323 
L 686.629476 -46.656667 
L 684.457706 -46.661883 
L 682.285937 -46.672315 
L 680.114167 -46.689268 
L 677.942398 -46.6997 
L 675.770628 -46.716652 
L 673.598858 -46.728388 
L 671.427089 -46.729692 
L 669.255319 -46.740124 
L 667.08355 -46.762293 
L 664.91178 -46.781853 
L 662.74001 -46.800109 
L 660.568241 -46.807933 
L 658.396471 -46.824886 
L 656.224702 -46.84575 
L 654.052932 -46.856182 
L 651.881162 -46.864006 
L 649.709393 -46.874438 
L 647.537623 -46.886175 
L 645.365854 -46.900519 
L 643.194084 -46.920079 
L 643.150649 -46.942247 
L 643.107213 -46.97224 
L 643.063778 -47.000928 
L 643.020343 -47.012665 
L 642.976907 -47.020489 
L 642.933472 -47.021793 
L 642.890036 -47.037441 
L 642.846601 -47.057001 
L 642.803166 -47.070041 
L 642.75973 -47.088298 
L 642.716295 -47.09873 
L 642.672859 -47.11177 
L 642.629424 -47.120898 
L 642.585989 -47.141762 
L 642.542553 -47.175667 
L 642.499118 -47.205659 
L 642.455682 -47.23174 
L 642.412247 -47.263036 
L 642.368812 -47.289117 
L 642.325376 -47.338669 
L 642.281941 -47.354318 
L 642.238505 -47.38431 
L 642.19507 -47.415607 
L 642.151635 -47.435167 
L 642.108199 -47.463855 
L 642.064764 -47.470375 
L 642.021328 -47.489936 
L 641.977893 -47.49776 
L 641.934458 -47.496456 
L 641.891022 -47.500368 
L 641.847587 -47.505584 
L 641.804152 -47.512104 
L 641.760716 -47.516016 
L 641.717281 -47.53688 
L 641.673845 -47.540792 
L 641.63041 -47.551224 
L 641.586975 -47.556441 
L 641.543539 -47.568177 
L 641.500104 -47.582521 
L 641.456668 -47.586433 
L 641.413233 -47.645114 
L 641.369798 -47.690755 
L 641.326362 -47.710315 
L 641.282927 -47.716835 
L 641.239491 -47.733787 
L 641.196056 -47.762476 
L 641.152621 -47.814636 
L 641.109185 -47.826373 
L 641.06575 -47.834197 
L 641.022314 -47.830285 
z
" style="stroke: #d3d3ff; stroke-opacity: 0.4"/>
    </defs>
    <g clip-path="url(#p7afbb46e4f)">
     <use xlink:href="#m6ab5ce0547" x="0" y="216" style="fill: #d3d3ff; fill-opacity: 0.4; stroke: #d3d3ff; stroke-opacity: 0.4"/>
    </g>
   </g>
   <g id="matplotlib.axis_1">
    <g id="xtick_1">
     <g id="line2d_1">
      <defs>
       <path id="m4302309a69" d="M 0 0 
L 0 3.5 
" style="stroke: #000000; stroke-width: 0.8"/>
      </defs>
      <g>
       <use xlink:href="#m4302309a69" x="208.840166" y="192.24" style="stroke: #000000; stroke-width: 0.8"/>
      </g>
     </g>
     <g id="text_1">
      <text style="font: 10px 'DejaVu Sans', 'Bitstream Vera Sans', 'Computer Modern Sans Serif', 'Lucida Grande', 'Verdana', 'Geneva', 'Lucid', 'Arial', 'Helvetica', 'Avant Garde', sans-serif; text-anchor: middle" x="208.840166" y="206.838437" transform="rotate(-0 208.840166 206.838437)">10</text>
     </g>
    </g>
    <g id="xtick_2">
     <g id="line2d_2">
      <g>
       <use xlink:href="#m4302309a69" x="295.71095" y="192.24" style="stroke: #000000; stroke-width: 0.8"/>
      </g>
     </g>
     <g id="text_2">
      <text style="font: 10px 'DejaVu Sans', 'Bitstream Vera Sans', 'Computer Modern Sans Serif', 'Lucida Grande', 'Verdana', 'Geneva', 'Lucid', 'Arial', 'Helvetica', 'Avant Garde', sans-serif; text-anchor: middle" x="295.71095" y="206.838437" transform="rotate(-0 295.71095 206.838437)">8</text>
     </g>
    </g>
    <g id="xtick_3">
     <g id="line2d_3">
      <g>
       <use xlink:href="#m4302309a69" x="382.581733" y="192.24" style="stroke: #000000; stroke-width: 0.8"/>
      </g>
     </g>
     <g id="text_3">
      <text style="font: 10px 'DejaVu Sans', 'Bitstream Vera Sans', 'Computer Modern Sans Serif', 'Lucida Grande', 'Verdana', 'Geneva', 'Lucid', 'Arial', 'Helvetica', 'Avant Garde', sans-serif; text-anchor: middle" x="382.581733" y="206.838437" transform="rotate(-0 382.581733 206.838437)">6</text>
     </g>
    </g>
    <g id="xtick_4">
     <g id="line2d_4">
      <g>
       <use xlink:href="#m4302309a69" x="469.452517" y="192.24" style="stroke: #000000; stroke-width: 0.8"/>
      </g>
     </g>
     <g id="text_4">
      <text style="font: 10px 'DejaVu Sans', 'Bitstream Vera Sans', 'Computer Modern Sans Serif', 'Lucida Grande', 'Verdana', 'Geneva', 'Lucid', 'Arial', 'Helvetica', 'Avant Garde', sans-serif; text-anchor: middle" x="469.452517" y="206.838437" transform="rotate(-0 469.452517 206.838437)">4</text>
     </g>
    </g>
    <g id="xtick_5">
     <g id="line2d_5">
      <g>
       <use xlink:href="#m4302309a69" x="556.3233" y="192.24" style="stroke: #000000; stroke-width: 0.8"/>
      </g>
     </g>
     <g id="text_5">
      <text style="font: 10px 'DejaVu Sans', 'Bitstream Vera Sans', 'Computer Modern Sans Serif', 'Lucida Grande', 'Verdana', 'Geneva', 'Lucid', 'Arial', 'Helvetica', 'Avant Garde', sans-serif; text-anchor: middle" x="556.3233" y="206.838437" transform="rotate(-0 556.3233 206.838437)">2</text>
     </g>
    </g>
    <g id="xtick_6">
     <g id="line2d_6">
      <g>
       <use xlink:href="#m4302309a69" x="643.194084" y="192.24" style="stroke: #000000; stroke-width: 0.8"/>
      </g>
     </g>
     <g id="text_6">
      <text style="font: 10px 'DejaVu Sans', 'Bitstream Vera Sans', 'Computer Modern Sans Serif', 'Lucida Grande', 'Verdana', 'Geneva', 'Lucid', 'Arial', 'Helvetica', 'Avant Garde', sans-serif; text-anchor: middle" x="643.194084" y="206.838437" transform="rotate(-0 643.194084 206.838437)">1950</text>
     </g>
    </g>
    <g id="xtick_7">
     <g id="line2d_7">
      <g>
       <use xlink:href="#m4302309a69" x="708.347172" y="192.24" style="stroke: #000000; stroke-width: 0.8"/>
      </g>
     </g>
     <g id="text_7">
      <text style="font: 10px 'DejaVu Sans', 'Bitstream Vera Sans', 'Computer Modern Sans Serif', 'Lucida Grande', 'Verdana', 'Geneva', 'Lucid', 'Arial', 'Helvetica', 'Avant Garde', sans-serif; text-anchor: middle" x="708.347172" y="206.838437" transform="rotate(-0 708.347172 206.838437)">1980</text>
     </g>
    </g>
    <g id="xtick_8">
     <g id="line2d_8">
      <g>
       <use xlink:href="#m4302309a69" x="751.782564" y="192.24" style="stroke: #000000; stroke-width: 0.8"/>
      </g>
     </g>
     <g id="text_8">
      <text style="font: 10px 'DejaVu Sans', 'Bitstream Vera Sans', 'Computer Modern Sans Serif', 'Lucida Grande', 'Verdana', 'Geneva', 'Lucid', 'Arial', 'Helvetica', 'Avant Garde', sans-serif; text-anchor: middle" x="751.782564" y="206.838437" transform="rotate(-0 751.782564 206.838437)">2000</text>
     </g>
    </g>
    <g id="xtick_9">
     <g id="line2d_9">
      <g>
       <use xlink:href="#m4302309a69" x="795.217955" y="192.24" style="stroke: #000000; stroke-width: 0.8"/>
      </g>
     </g>
     <g id="text_9">
      <text style="font: 10px 'DejaVu Sans', 'Bitstream Vera Sans', 'Computer Modern Sans Serif', 'Lucida Grande', 'Verdana', 'Geneva', 'Lucid', 'Arial', 'Helvetica', 'Avant Garde', sans-serif; text-anchor: middle" x="795.217955" y="206.838437" transform="rotate(-0 795.217955 206.838437)">2020</text>
     </g>
    </g>
   </g>
   <g id="matplotlib.axis_2">
    <g id="ytick_1">
     <g id="line2d_10">
      <defs>
       <path id="m889849c158" d="M 0 0 
L -3.5 0 
" style="stroke: #000000; stroke-width: 0.8"/>
      </defs>
      <g>
       <use xlink:href="#m889849c158" x="135" y="188.118759" style="stroke: #000000; stroke-width: 0.8"/>
      </g>
     </g>
     <g id="text_10">
      <text style="font: 10px 'DejaVu Sans', 'Bitstream Vera Sans', 'Computer Modern Sans Serif', 'Lucida Grande', 'Verdana', 'Geneva', 'Lucid', 'Arial', 'Helvetica', 'Avant Garde', sans-serif; text-anchor: end" x="128" y="191.917978" transform="rotate(-0 128 191.917978)">2.5</text>
     </g>
    </g>
    <g id="ytick_2">
     <g id="line2d_11">
      <g>
       <use xlink:href="#m889849c158" x="135" y="152.14581" style="stroke: #000000; stroke-width: 0.8"/>
      </g>
     </g>
     <g id="text_11">
      <text style="font: 10px 'DejaVu Sans', 'Bitstream Vera Sans', 'Computer Modern Sans Serif', 'Lucida Grande', 'Verdana', 'Geneva', 'Lucid', 'Arial', 'Helvetica', 'Avant Garde', sans-serif; text-anchor: end" x="128" y="155.945028" transform="rotate(-0 128 155.945028)">3.0</text>
     </g>
    </g>
    <g id="ytick_3">
     <g id="line2d_12">
      <g>
       <use xlink:href="#m889849c158" x="135" y="116.17286" style="stroke: #000000; stroke-width: 0.8"/>
      </g>
     </g>
     <g id="text_12">
      <text style="font: 10px 'DejaVu Sans', 'Bitstream Vera Sans', 'Computer Modern Sans Serif', 'Lucida Grande', 'Verdana', 'Geneva', 'Lucid', 'Arial', 'Helvetica', 'Avant Garde', sans-serif; text-anchor: end" x="128" y="119.972079" transform="rotate(-0 128 119.972079)">3.5</text>
     </g>
    </g>
    <g id="ytick_4">
     <g id="line2d_13">
      <g>
       <use xlink:href="#m889849c158" x="135" y="80.19991" style="stroke: #000000; stroke-width: 0.8"/>
      </g>
     </g>
     <g id="text_13">
      <text style="font: 10px 'DejaVu Sans', 'Bitstream Vera Sans', 'Computer Modern Sans Serif', 'Lucida Grande', 'Verdana', 'Geneva', 'Lucid', 'Arial', 'Helvetica', 'Avant Garde', sans-serif; text-anchor: end" x="128" y="83.999129" transform="rotate(-0 128 83.999129)">4.0</text>
     </g>
    </g>
    <g id="ytick_5">
     <g id="line2d_14">
      <g>
       <use xlink:href="#m889849c158" x="135" y="44.226961" style="stroke: #000000; stroke-width: 0.8"/>
      </g>
     </g>
     <g id="text_14">
      <text style="font: 10px 'DejaVu Sans', 'Bitstream Vera Sans', 'Computer Modern Sans Serif', 'Lucida Grande', 'Verdana', 'Geneva', 'Lucid', 'Arial', 'Helvetica', 'Avant Garde', sans-serif; text-anchor: end" x="128" y="48.026179" transform="rotate(-0 128 48.026179)">4.5</text>
     </g>
    </g>
    <g id="text_15">
     <text style="font: 10px 'Times New Roman'; text-anchor: middle" x="105.957812" y="109.08" transform="rotate(-90 105.957812 109.08)">Ice volume (10^6 Gt)</text>
    </g>
   </g>
   <g id="line2d_15">
    <path d="M 643.194084 169.172104 
L 625.819927 169.62113 
L 582.384536 171.167893 
L 556.3233 172.236912 
L 521.574987 173.113662 
L 469.452517 176.423689 
L 460.765439 175.680274 
L 443.391282 175.224983 
L 434.704203 175.744202 
L 426.017125 175.660207 
L 417.330047 175.253712 
L 408.642968 175.915697 
L 399.95589 176.187172 
L 391.268812 175.938212 
L 382.581733 175.077458 
L 373.894655 174.651473 
L 339.146341 175.568495 
L 295.71095 168.727846 
L 287.023871 162.757696 
L 278.336793 161.889985 
L 269.649715 160.885303 
L 252.275558 158.601985 
L 234.901401 154.584564 
L 226.214323 150.076797 
L 208.840166 136.063152 
L 191.466009 119.952589 
L 182.778931 113.039661 
L 165.404774 101.498494 
L 156.717696 100.953326 
L 148.030618 102.527002 
L 139.343539 104.302992 
L 130.656461 104.682737 
L 113.282304 103.557494 
L 104.595226 102.841389 
L 95.908147 101.768112 
L 87.221069 100.319477 
L 78.533991 100.295662 
L 69.846912 99.657386 
L 52.472756 95.537641 
L 43.785677 95.292896 
L 35.098599 95.884973 
L 17.724442 94.194768 
L 9.037364 93.728636 
L -1 93.625181 
L -1 93.625181 
" clip-path="url(#p7afbb46e4f)" style="fill: none; stroke: #0b0b0b; stroke-width: 1.5; stroke-linecap: square"/>
   </g>
   <g id="line2d_16">
    <path d="M 641.022314 168.449703 
L 641.06575 168.446705 
L 641.109185 168.45499 
L 641.152621 168.465635 
L 641.196056 168.487203 
L 641.239491 168.492663 
L 641.282927 168.504684 
L 641.326362 168.514218 
L 641.369798 168.532738 
L 641.413233 168.547686 
L 641.456668 168.559416 
L 641.500104 168.561295 
L 641.543539 168.574995 
L 641.586975 168.583841 
L 641.63041 168.587964 
L 641.673845 168.596375 
L 641.717281 168.600942 
L 641.760716 168.618879 
L 641.804152 168.621726 
L 641.847587 168.626051 
L 641.891022 168.630733 
L 641.934458 168.634881 
L 641.977893 168.629763 
L 642.021328 168.638202 
L 642.064764 168.653509 
L 642.108199 168.658512 
L 642.151635 168.685119 
L 642.19507 168.704776 
L 642.238505 168.734082 
L 642.281941 168.760898 
L 642.325376 168.776896 
L 642.368812 168.824989 
L 642.412247 168.850465 
L 642.455682 168.879072 
L 642.499118 168.904006 
L 642.542553 168.9331 
L 642.585989 168.965761 
L 642.629424 168.982871 
L 642.672859 168.993585 
L 642.716295 169.00602 
L 642.75973 169.016966 
L 642.803166 169.033176 
L 642.846601 169.045695 
L 642.890036 169.063915 
L 642.933472 169.076976 
L 642.976907 169.078068 
L 643.020343 169.083149 
L 643.063778 169.096756 
L 643.107213 169.121711 
L 643.150649 169.150799 
L 643.194084 169.172104 
L 645.365854 169.190132 
L 647.537623 169.202283 
L 649.709393 169.214281 
L 651.881162 169.221882 
L 654.052932 169.227856 
L 656.224702 169.237711 
L 658.396471 169.256561 
L 660.568241 169.274312 
L 662.74001 169.279197 
L 664.91178 169.297085 
L 667.08355 169.314897 
L 669.255319 169.337363 
L 671.427089 169.343624 
L 673.598858 169.344488 
L 675.770628 169.35582 
L 677.942398 169.374864 
L 680.114167 169.384464 
L 682.285937 169.399059 
L 684.457706 169.409709 
L 686.629476 169.413705 
L 688.801245 169.426371 
L 690.973015 169.418487 
L 693.144785 169.41721 
L 695.316554 169.423497 
L 697.488324 169.424962 
L 699.660093 169.420354 
L 701.831863 169.420463 
L 704.003633 169.422458 
L 706.175402 169.4253 
L 708.347172 169.432837 
L 710.518941 169.446587 
L 712.690711 169.456684 
L 714.862481 169.450603 
L 717.03425 169.447076 
L 719.20602 169.452602 
L 721.377789 169.457163 
L 723.549559 169.457136 
L 725.721328 169.464232 
L 727.893098 169.473703 
L 730.064868 169.479159 
L 732.236637 169.484001 
L 734.408407 169.477696 
L 736.580176 169.480065 
L 738.751946 169.486355 
L 740.923716 169.500293 
L 743.095485 169.490542 
L 745.267255 169.49123 
L 747.439024 169.500922 
L 749.610794 169.508163 
L 751.782564 169.515637 
L 753.954333 169.523148 
L 756.126103 169.539925 
L 758.297872 169.558084 
L 760.469642 169.575821 
L 762.641412 169.592245 
L 764.813181 169.612156 
L 766.984951 169.633239 
L 769.15672 169.6538 
L 771.32849 169.671559 
L 773.500259 169.700609 
L 775.672029 169.734908 
L 777.843799 169.765952 
L 780.015568 169.793057 
L 782.187338 169.80364 
L 784.359107 169.818778 
L 786.530877 169.838384 
L 788.702647 169.855358 
L 790.874416 169.858927 
" clip-path="url(#p7afbb46e4f)" style="fill: none; stroke: #2626ff; stroke-width: 1.5; stroke-linecap: square"/>
   </g>
   <g id="line2d_17">
    <path d="M 645.365854 175.941864 
L 790.874416 175.941864 
L -1 175.941864 
L -1 175.941864 
" clip-path="url(#p7afbb46e4f)" style="fill: none; stroke: #ff0001; stroke-width: 1.5; stroke-linecap: square"/>
   </g>
   <g id="LineCollection_1">
    <path d="M 790.874416 178.77842 
L 790.874416 175.231487 
" clip-path="url(#p7afbb46e4f)" style="fill: none; stroke: #d57eeb; stroke-width: 2"/>
   </g>
   <g id="line2d_18">
    <defs>
     <path id="m7045457d09" d="M 5 0 
L -5 -0 
" style="stroke: #d57eeb"/>
    </defs>
    <g clip-path="url(#p7afbb46e4f)">
     <use xlink:href="#m7045457d09" x="790.874416" y="178.77842" style="fill: #d57eeb; stroke: #d57eeb"/>
    </g>
   </g>
   <g id="line2d_19">
    <g clip-path="url(#p7afbb46e4f)">
     <use xlink:href="#m7045457d09" x="790.874416" y="175.231487" style="fill: #d57eeb; stroke: #d57eeb"/>
    </g>
   </g>
   <g id="line2d_20">
    <path d="M 643.194084 192.24 
L 643.194084 25.92 
" clip-path="url(#p7afbb46e4f)" style="fill: none; stroke-dasharray: 3.7,1.6; stroke-dashoffset: 0; stroke: #808080; stroke-opacity: 0.5"/>
   </g>
   <g id="patch_3">
    <path d="M 135 192.24 
L 135 25.92 
" style="fill: none; stroke: #000000; stroke-width: 0.8; stroke-linejoin: miter; stroke-linecap: square"/>
   </g>
   <g id="patch_4">
    <path d="M 972 192.24 
L 972 25.92 
" style="fill: none"/>
   </g>
   <g id="patch_5">
    <path d="M 135 192.24 
L 972 192.24 
" style="fill: none; stroke: #000000; stroke-width: 0.8; stroke-linejoin: miter; stroke-linecap: square"/>
   </g>
   <g id="patch_6">
    <path d="M 135 25.92 
L 972 25.92 
" style="fill: none"/>
   </g>
   <g id="legend_1">
    <g id="line2d_21">
     <path d="M 730.498438 39.018438 
L 740.498438 39.018438 
L 750.498438 39.018438 
" style="fill: none; stroke: #0b0b0b; stroke-width: 1.5; stroke-linecap: square"/>
    </g>
    <g id="text_16">
     <text style="font: 10px 'DejaVu Sans', 'Bitstream Vera Sans', 'Computer Modern Sans Serif', 'Lucida Grande', 'Verdana', 'Geneva', 'Lucid', 'Arial', 'Helvetica', 'Avant Garde', sans-serif; text-anchor: start" x="758.498438" y="42.518438" transform="rotate(-0 758.498438 42.518438)">Creel et al. (2023)</text>
    </g>
    <g id="patch_7">
     <path d="M 730.498438 57.196563 
L 750.498438 57.196563 
L 750.498438 50.196563 
L 730.498438 50.196563 
z
" style="fill: #a4b9ca; fill-opacity: 0.4; stroke: #a4b9ca; stroke-opacity: 0.4; stroke-linejoin: miter"/>
    </g>
    <g id="text_17">
     <text style="font: 10px 'DejaVu Sans', 'Bitstream Vera Sans', 'Computer Modern Sans Serif', 'Lucida Grande', 'Verdana', 'Geneva', 'Lucid', 'Arial', 'Helvetica', 'Avant Garde', sans-serif; text-anchor: start" x="758.498438" y="57.196563" transform="rotate(-0 758.498438 57.196563)">66% credible interval</text>
    </g>
    <g id="patch_8">
     <path d="M 730.498438 71.874687 
L 750.498438 71.874687 
L 750.498438 64.874687 
L 730.498438 64.874687 
z
" style="fill: #d5dadd; fill-opacity: 0.4; stroke: #d5dadd; stroke-opacity: 0.4; stroke-linejoin: miter"/>
    </g>
    <g id="text_18">
     <text style="font: 10px 'DejaVu Sans', 'Bitstream Vera Sans', 'Computer Modern Sans Serif', 'Lucida Grande', 'Verdana', 'Geneva', 'Lucid', 'Arial', 'Helvetica', 'Avant Garde', sans-serif; text-anchor: start" x="758.498438" y="71.874687" transform="rotate(-0 758.498438 71.874687)">90% credible interval</text>
    </g>
    <g id="line2d_22">
     <path d="M 730.498438 83.052813 
L 740.498438 83.052813 
L 750.498438 83.052813 
" style="fill: none; stroke: #2626ff; stroke-width: 1.5; stroke-linecap: square"/>
    </g>
    <g id="text_19">
     <text style="font: 10px 'DejaVu Sans', 'Bitstream Vera Sans', 'Computer Modern Sans Serif', 'Lucida Grande', 'Verdana', 'Geneva', 'Lucid', 'Arial', 'Helvetica', 'Avant Garde', sans-serif; text-anchor: start" x="758.498438" y="86.552813" transform="rotate(-0 758.498438 86.552813)">Frederikse et al. (2020)</text>
    </g>
    <g id="patch_9">
     <path d="M 730.498438 101.230938 
L 750.498438 101.230938 
L 750.498438 94.230938 
L 730.498438 94.230938 
z
" style="fill: #d3d3ff; fill-opacity: 0.4; stroke: #d3d3ff; stroke-opacity: 0.4; stroke-linejoin: miter"/>
    </g>
    <g id="text_20">
     <text style="font: 10px 'DejaVu Sans', 'Bitstream Vera Sans', 'Computer Modern Sans Serif', 'Lucida Grande', 'Verdana', 'Geneva', 'Lucid', 'Arial', 'Helvetica', 'Avant Garde', sans-serif; text-anchor: start" x="758.498438" y="101.230938" transform="rotate(-0 758.498438 101.230938)">90% credible interval</text>
    </g>
    <g id="line2d_23">
     <path d="M 730.498438 112.409063 
L 740.498438 112.409063 
L 750.498438 112.409063 
" style="fill: none; stroke: #ff0001; stroke-width: 1.5; stroke-linecap: square"/>
    </g>
    <g id="text_21">
     <text style="font: 10px 'DejaVu Sans', 'Bitstream Vera Sans', 'Computer Modern Sans Serif', 'Lucida Grande', 'Verdana', 'Geneva', 'Lucid', 'Arial', 'Helvetica', 'Avant Garde', sans-serif; text-anchor: start" x="758.498438" y="115.909063" transform="rotate(-0 758.498438 115.909063)">Holocene Baseline</text>
    </g>
    <g id="LineCollection_2">
     <path d="M 740.498438 132.087187 
L 740.498438 122.087187 
" style="fill: none; stroke: #d57eeb; stroke-width: 2"/>
    </g>
    <g id="line2d_24">
     <g>
      <use xlink:href="#m7045457d09" x="740.498438" y="132.087187" style="fill: #d57eeb; stroke: #d57eeb"/>
     </g>
    </g>
    <g id="line2d_25">
     <g>
      <use xlink:href="#m7045457d09" x="740.498438" y="122.087187" style="fill: #d57eeb; stroke: #d57eeb"/>
     </g>
    </g>
    <g id="text_22">
     <text style="font: 10px 'DejaVu Sans', 'Bitstream Vera Sans', 'Computer Modern Sans Serif', 'Lucida Grande', 'Verdana', 'Geneva', 'Lucid', 'Arial', 'Helvetica', 'Avant Garde', sans-serif; text-anchor: start" x="758.498438" y="130.587187" transform="rotate(-0 758.498438 130.587187)">Committed change with credible interval</text>
    </g>
   </g>
  </g>
 </g>
 <defs>
  <clipPath id="p7afbb46e4f">
   <rect x="135" y="25.92" width="837" height="166.32"/>
  </clipPath>
 </defs>
</svg>
