<?xml version="1.0" encoding="utf-8" standalone="no"?>
<!DOCTYPE svg PUBLIC "-//W3C//DTD SVG 1.1//EN"
  "http://www.w3.org/Graphics/SVG/1.1/DTD/svg11.dtd">
<svg xmlns:xlink="http://www.w3.org/1999/xlink" width="432pt" height="216pt" viewBox="0 0 432 216" xmlns="http://www.w3.org/2000/svg" version="1.1">
 <metadata>
  <rdf:RDF xmlns:dc="http://purl.org/dc/elements/1.1/" xmlns:cc="http://creativecommons.org/ns#" xmlns:rdf="http://www.w3.org/1999/02/22-rdf-syntax-ns#">
   <cc:Work>
    <dc:type rdf:resource="http://purl.org/dc/dcmitype/StillImage"/>
    <dc:date>2026-01-03T22:30:09.564425</dc:date>
    <dc:format>image/svg+xml</dc:format>
    <dc:creator>
     <cc:Agent>
      <dc:title>Matplotlib v3.8.4, https://matplotlib.org/</dc:title>
     </cc:Agent>
    </dc:creator>
   </cc:Work>
  </rdf:RDF>
 </metadata>
 <defs>
  <style type="text/css">*{stroke-linejoin: round; stroke-linecap: butt}</style>
 </defs>
 <g id="figure_1">
  <g id="patch_1">
   <path d="M 0 216 
L 432 216 
L 432 0 
L 0 0 
z
" style="fill: #ffffff"/>
  </g>
  <g id="axes_1">
   <g id="patch_2">
    <path d="M 54 192.24 
L 388.8 192.24 
L 388.8 25.92 
L 54 25.92 
z
" style="fill: #ffffff"/>
   </g>
   <g id="PolyCollection_1">
    <defs>
     <path id="m0d01a2bc48" d="M 69.218182 -182.52 
L 69.218182 -165.299416 
L 71.797535 -165.171381 
L 74.376888 -164.979331 
L 76.95624 -164.684852 
L 79.535593 -164.608032 
L 82.114946 -164.505604 
L 84.694299 -164.198322 
L 87.273652 -164.031879 
L 89.853005 -163.698989 
L 92.432357 -163.69899 
L 95.01171 -163.839827 
L 97.591063 -163.647776 
L 100.170416 -163.353298 
L 102.749769 -163.09723 
L 105.329122 -162.879571 
L 107.908475 -162.521076 
L 110.487827 -162.213793 
L 113.06718 -161.765675 
L 115.646533 -161.573624 
L 118.225886 -161.355966 
L 120.805239 -161.202325 
L 123.384592 -161.048684 
L 125.963945 -160.933453 
L 128.543297 -160.600564 
L 131.12265 -160.267676 
L 133.702003 -159.998804 
L 136.281356 -159.525079 
L 138.860709 -159.076959 
L 141.440062 -158.577626 
L 144.019414 -158.091096 
L 146.598767 -157.719798 
L 149.17812 -156.951593 
L 151.757473 -156.554688 
L 154.336826 -156.080961 
L 156.916179 -155.709663 
L 159.495532 -155.197526 
L 162.074884 -154.60857 
L 164.654237 -154.224467 
L 167.23359 -153.917185 
L 169.812943 -153.63551 
L 172.392296 -153.302622 
L 174.971649 -152.931322 
L 177.551002 -152.585631 
L 180.130354 -152.137511 
L 182.709707 -151.75341 
L 185.28906 -151.561358 
L 187.868413 -151.26688 
L 190.447766 -150.895581 
L 193.027119 -150.460265 
L 195.606471 -150.037753 
L 198.185824 -149.564026 
L 200.765177 -149.218334 
L 203.34453 -148.821429 
L 205.923883 -148.48854 
L 208.503236 -148.206865 
L 211.082589 -148.104438 
L 213.661941 -147.745943 
L 216.241294 -147.438661 
L 218.820647 -147.131379 
L 221.4 -147.054558 
L 223.979353 -146.747276 
L 226.558706 -146.504012 
L 229.138059 -146.081499 
L 231.717411 -146.055893 
L 234.296764 -146.209533 
L 236.876117 -146.119909 
L 239.45547 -145.902252 
L 242.034823 -145.812628 
L 244.614176 -145.59497 
L 247.193529 -145.402918 
L 249.772881 -145.377312 
L 252.352234 -145.185261 
L 254.931587 -145.287688 
L 257.51094 -145.326098 
L 260.090293 -145.210867 
L 262.669646 -145.198064 
L 265.248998 -145.249278 
L 267.828351 -145.172457 
L 270.407704 -145.044423 
L 272.987057 -144.852372 
L 275.56641 -144.737141 
L 278.145763 -144.557894 
L 280.725116 -144.365843 
L 283.304468 -144.442663 
L 285.883821 -144.417056 
L 288.463174 -144.225005 
L 291.042527 -144.109774 
L 293.62188 -144.084167 
L 296.201233 -143.968937 
L 298.780586 -143.776886 
L 301.359938 -143.636048 
L 303.939291 -143.495211 
L 306.518644 -143.584834 
L 309.097997 -143.315963 
L 311.67735 -143.085502 
L 314.256703 -142.829433 
L 316.836055 -142.906254 
L 319.415408 -142.752613 
L 321.994761 -142.509348 
L 324.574114 -142.355707 
L 327.153467 -142.25328 
L 329.73282 -142.112443 
L 332.312173 -141.971605 
L 334.891525 -141.76675 
L 337.470878 -141.344238 
L 340.050231 -141.113777 
L 342.629584 -140.832102 
L 345.208937 -140.345572 
L 347.78829 -139.859043 
L 350.367643 -139.564564 
L 352.946995 -138.860377 
L 355.526348 -138.297027 
L 358.105701 -137.797694 
L 360.685054 -137.093506 
L 363.264407 -136.58137 
L 365.84376 -135.928396 
L 368.423112 -135.569901 
L 371.002465 -135.070568 
L 373.581818 -134.596842 
L 373.581818 -135.441867 
L 373.581818 -135.441867 
L 371.002465 -135.787559 
L 368.423112 -136.133251 
L 365.84376 -136.414926 
L 363.264407 -136.939865 
L 360.685054 -137.375181 
L 358.105701 -138.002548 
L 355.526348 -138.412257 
L 352.946995 -138.988411 
L 350.367643 -139.769419 
L 347.78829 -140.140718 
L 345.208937 -140.742478 
L 342.629584 -141.305828 
L 340.050231 -141.702733 
L 337.470878 -142.010015 
L 334.891525 -142.560562 
L 332.312173 -143.315963 
L 329.73282 -143.828099 
L 327.153467 -144.212201 
L 324.574114 -144.557894 
L 321.994761 -144.993209 
L 319.415408 -145.441329 
L 316.836055 -145.838235 
L 314.256703 -145.940662 
L 311.67735 -146.439995 
L 309.097997 -146.862507 
L 306.518644 -147.118575 
L 303.939291 -147.144182 
L 301.359938 -147.413054 
L 298.780586 -147.745942 
L 296.201233 -148.040421 
L 293.62188 -148.270882 
L 291.042527 -148.411719 
L 288.463174 -148.590967 
L 285.883821 -148.859839 
L 283.304468 -149.05189 
L 280.725116 -149.05189 
L 278.145763 -149.320762 
L 275.56641 -149.551223 
L 272.987057 -149.756078 
L 270.407704 -150.088966 
L 267.828351 -150.345035 
L 265.248998 -150.575496 
L 262.669646 -150.601103 
L 260.090293 -150.74194 
L 257.51094 -150.972401 
L 254.931587 -151.100436 
L 252.352234 -151.138846 
L 249.772881 -151.458931 
L 247.193529 -151.650982 
L 244.614176 -151.932657 
L 242.034823 -152.201529 
L 239.45547 -152.39358 
L 236.876117 -152.752075 
L 234.296764 -152.905716 
L 231.717411 -152.892913 
L 229.138059 -153.148981 
L 226.558706 -153.63551 
L 223.979353 -154.070827 
L 221.4 -154.493338 
L 218.820647 -154.762211 
L 216.241294 -155.21033 
L 213.661941 -155.748072 
L 211.082589 -156.132175 
L 208.503236 -156.362636 
L 205.923883 -156.721132 
L 203.34453 -157.169252 
L 200.765177 -157.604567 
L 198.185824 -158.039883 
L 195.606471 -158.564822 
L 193.027119 -159.102566 
L 190.447766 -159.678719 
L 187.868413 -160.114035 
L 185.28906 -160.498138 
L 182.709707 -160.831026 
L 180.130354 -161.381572 
L 177.551002 -161.919316 
L 174.971649 -162.367435 
L 172.392296 -162.892375 
L 169.812943 -163.302084 
L 167.23359 -163.686186 
L 164.654237 -164.070288 
L 162.074884 -164.608032 
L 159.495532 -165.299416 
L 156.916179 -165.888372 
L 154.336826 -166.400509 
L 151.757473 -167.002269 
L 149.17812 -167.591226 
L 146.598767 -168.487465 
L 144.019414 -168.96119 
L 141.440062 -169.614165 
L 138.860709 -170.292746 
L 136.281356 -170.868899 
L 133.702003 -171.50907 
L 131.12265 -171.89317 
L 128.543297 -172.405308 
L 125.963945 -172.86623 
L 123.384592 -173.083887 
L 120.805239 -173.301547 
L 118.225886 -173.557613 
L 115.646533 -173.903305 
L 113.06718 -174.338623 
L 110.487827 -174.953186 
L 107.908475 -175.362894 
L 105.329122 -175.913441 
L 102.749769 -176.335954 
L 100.170416 -176.707253 
L 97.591063 -177.104159 
L 95.01171 -177.449851 
L 92.432357 -178.230858 
L 89.853005 -178.960652 
L 87.273652 -179.434379 
L 84.694299 -179.728857 
L 82.114946 -180.189779 
L 79.535593 -180.778738 
L 76.95624 -181.598155 
L 74.376888 -181.905437 
L 71.797535 -182.289539 
L 69.218182 -182.52 
z
" style="stroke: #d3d3ff; stroke-opacity: 0.5"/>
    </defs>
    <g clip-path="url(#p547d9703c9)">
     <use xlink:href="#m0d01a2bc48" x="0" y="216" style="fill: #d3d3ff; fill-opacity: 0.5; stroke: #d3d3ff; stroke-opacity: 0.5"/>
    </g>
   </g>
   <g id="matplotlib.axis_1">
    <g id="xtick_1">
     <g id="line2d_1">
      <defs>
       <path id="mc6b762593f" d="M 0 0 
L 0 3.5 
" style="stroke: #000000; stroke-width: 0.8"/>
      </defs>
      <g>
       <use xlink:href="#mc6b762593f" x="120.805239" y="192.24" style="stroke: #000000; stroke-width: 0.8"/>
      </g>
     </g>
     <g id="text_1">
      <text style="font: 10px 'DejaVu Sans', 'Bitstream Vera Sans', 'Computer Modern Sans Serif', 'Lucida Grande', 'Verdana', 'Geneva', 'Lucid', 'Arial', 'Helvetica', 'Avant Garde', sans-serif; text-anchor: middle" x="120.805239" y="206.838437" transform="rotate(-0 120.805239 206.838437)">1920</text>
     </g>
    </g>
    <g id="xtick_2">
     <g id="line2d_2">
      <g>
       <use xlink:href="#mc6b762593f" x="198.185824" y="192.24" style="stroke: #000000; stroke-width: 0.8"/>
      </g>
     </g>
     <g id="text_2">
      <text style="font: 10px 'DejaVu Sans', 'Bitstream Vera Sans', 'Computer Modern Sans Serif', 'Lucida Grande', 'Verdana', 'Geneva', 'Lucid', 'Arial', 'Helvetica', 'Avant Garde', sans-serif; text-anchor: middle" x="198.185824" y="206.838437" transform="rotate(-0 198.185824 206.838437)">1950</text>
     </g>
    </g>
    <g id="xtick_3">
     <g id="line2d_3">
      <g>
       <use xlink:href="#mc6b762593f" x="275.56641" y="192.24" style="stroke: #000000; stroke-width: 0.8"/>
      </g>
     </g>
     <g id="text_3">
      <text style="font: 10px 'DejaVu Sans', 'Bitstream Vera Sans', 'Computer Modern Sans Serif', 'Lucida Grande', 'Verdana', 'Geneva', 'Lucid', 'Arial', 'Helvetica', 'Avant Garde', sans-serif; text-anchor: middle" x="275.56641" y="206.838437" transform="rotate(-0 275.56641 206.838437)">1980</text>
     </g>
    </g>
    <g id="xtick_4">
     <g id="line2d_4">
      <g>
       <use xlink:href="#mc6b762593f" x="352.946995" y="192.24" style="stroke: #000000; stroke-width: 0.8"/>
      </g>
     </g>
     <g id="text_4">
      <text style="font: 10px 'DejaVu Sans', 'Bitstream Vera Sans', 'Computer Modern Sans Serif', 'Lucida Grande', 'Verdana', 'Geneva', 'Lucid', 'Arial', 'Helvetica', 'Avant Garde', sans-serif; text-anchor: middle" x="352.946995" y="206.838437" transform="rotate(-0 352.946995 206.838437)">2010</text>
     </g>
    </g>
   </g>
   <g id="matplotlib.axis_2">
    <g id="ytick_1">
     <g id="line2d_5">
      <defs>
       <path id="me234fc2461" d="M 0 0 
L -3.5 0 
" style="stroke: #000000; stroke-width: 0.8"/>
      </defs>
      <g>
       <use xlink:href="#me234fc2461" x="54" y="174.549772" style="stroke: #000000; stroke-width: 0.8"/>
      </g>
     </g>
     <g id="text_5">
      <text style="font: 10px 'DejaVu Sans', 'Bitstream Vera Sans', 'Computer Modern Sans Serif', 'Lucida Grande', 'Verdana', 'Geneva', 'Lucid', 'Arial', 'Helvetica', 'Avant Garde', sans-serif; text-anchor: end" x="47" y="178.348991" transform="rotate(-0 47 178.348991)">27.50</text>
     </g>
    </g>
    <g id="ytick_2">
     <g id="line2d_6">
      <g>
       <use xlink:href="#me234fc2461" x="54" y="139.230024" style="stroke: #000000; stroke-width: 0.8"/>
      </g>
     </g>
     <g id="text_6">
      <text style="font: 10px 'DejaVu Sans', 'Bitstream Vera Sans', 'Computer Modern Sans Serif', 'Lucida Grande', 'Verdana', 'Geneva', 'Lucid', 'Arial', 'Helvetica', 'Avant Garde', sans-serif; text-anchor: end" x="47" y="143.029243" transform="rotate(-0 47 143.029243)">27.55</text>
     </g>
    </g>
    <g id="ytick_3">
     <g id="line2d_7">
      <g>
       <use xlink:href="#me234fc2461" x="54" y="103.910276" style="stroke: #000000; stroke-width: 0.8"/>
      </g>
     </g>
     <g id="text_7">
      <text style="font: 10px 'DejaVu Sans', 'Bitstream Vera Sans', 'Computer Modern Sans Serif', 'Lucida Grande', 'Verdana', 'Geneva', 'Lucid', 'Arial', 'Helvetica', 'Avant Garde', sans-serif; text-anchor: end" x="47" y="107.709495" transform="rotate(-0 47 107.709495)">27.60</text>
     </g>
    </g>
    <g id="ytick_4">
     <g id="line2d_8">
      <g>
       <use xlink:href="#me234fc2461" x="54" y="68.590528" style="stroke: #000000; stroke-width: 0.8"/>
      </g>
     </g>
     <g id="text_8">
      <text style="font: 10px 'DejaVu Sans', 'Bitstream Vera Sans', 'Computer Modern Sans Serif', 'Lucida Grande', 'Verdana', 'Geneva', 'Lucid', 'Arial', 'Helvetica', 'Avant Garde', sans-serif; text-anchor: end" x="47" y="72.389747" transform="rotate(-0 47 72.389747)">27.65</text>
     </g>
    </g>
    <g id="ytick_5">
     <g id="line2d_9">
      <g>
       <use xlink:href="#me234fc2461" x="54" y="33.27078" style="stroke: #000000; stroke-width: 0.8"/>
      </g>
     </g>
     <g id="text_9">
      <text style="font: 10px 'DejaVu Sans', 'Bitstream Vera Sans', 'Computer Modern Sans Serif', 'Lucida Grande', 'Verdana', 'Geneva', 'Lucid', 'Arial', 'Helvetica', 'Avant Garde', sans-serif; text-anchor: end" x="47" y="37.069999" transform="rotate(-0 47 37.069999)">27.70</text>
     </g>
    </g>
   </g>
   <g id="line2d_10">
    <path d="M 69.218182 42.016551 
L 71.797535 42.218704 
L 74.376888 42.53433 
L 76.95624 42.798968 
L 79.535593 43.240055 
L 82.114946 43.562575 
L 84.694299 43.899366 
L 87.273652 44.173847 
L 89.853005 44.571778 
L 92.432357 44.923729 
L 95.01171 45.230883 
L 97.591063 45.49095 
L 100.170416 45.831557 
L 102.749769 46.107472 
L 105.329122 46.451791 
L 107.908475 46.945096 
L 110.487827 47.260137 
L 113.06718 47.755763 
L 115.646533 48.066335 
L 118.225886 48.344899 
L 120.805239 48.538322 
L 123.384592 48.750097 
L 125.963945 48.904276 
L 128.543297 49.305865 
L 131.12265 49.711096 
L 133.702003 50.013076 
L 136.281356 50.560574 
L 138.860709 51.057259 
L 141.440062 51.620638 
L 144.019414 52.14748 
L 146.598767 52.564725 
L 149.17812 53.387726 
L 151.757473 53.890502 
L 154.336826 54.417764 
L 156.916179 54.865503 
L 159.495532 55.390167 
L 162.074884 55.998406 
L 164.654237 56.420902 
L 167.23359 56.79099 
L 169.812943 57.126744 
L 172.392296 57.491549 
L 174.971649 57.930191 
L 177.551002 58.308124 
L 180.130354 58.779566 
L 182.709707 59.218821 
L 185.28906 59.499624 
L 187.868413 59.802511 
L 190.447766 60.215979 
L 193.027119 60.709002 
L 195.606471 61.167056 
L 198.185824 61.674867 
L 200.765177 62.064854 
L 203.34453 62.435424 
L 205.923883 62.823369 
L 208.503236 63.12085 
L 211.082589 63.312538 
L 213.661941 63.655016 
L 216.241294 64.106138 
L 218.820647 64.484894 
L 221.4 64.686762 
L 223.979353 65.067601 
L 226.558706 65.447553 
L 229.138059 65.894821 
L 231.717411 66.062189 
L 234.296764 66.083842 
L 236.876117 66.24182 
L 239.45547 66.535039 
L 242.034823 66.728193 
L 244.614176 66.939807 
L 247.193529 67.178819 
L 249.772881 67.306748 
L 252.352234 67.56501 
L 254.931587 67.512214 
L 257.51094 67.583593 
L 260.090293 67.763773 
L 262.669646 67.872723 
L 265.248998 67.873967 
L 267.828351 68.031912 
L 270.407704 68.220569 
L 272.987057 68.422025 
L 275.56641 68.623041 
L 278.145763 68.887648 
L 280.725116 69.097599 
L 283.304468 69.11501 
L 285.883821 69.246247 
L 288.463174 69.452296 
L 291.042527 69.60049 
L 293.62188 69.695939 
L 296.201233 69.898242 
L 298.780586 70.140495 
L 301.359938 70.42973 
L 303.939291 70.662797 
L 306.518644 70.604354 
L 309.097997 70.827337 
L 311.67735 71.153746 
L 314.256703 71.564718 
L 316.836055 71.567055 
L 319.415408 71.790919 
L 321.994761 72.16604 
L 324.574114 72.464326 
L 327.153467 72.722923 
L 329.73282 72.988285 
L 332.312173 73.339715 
L 334.891525 73.828839 
L 337.470878 74.324337 
L 340.050231 74.601444 
L 342.629584 74.937143 
L 345.208937 75.460419 
L 347.78829 76.005676 
L 350.367643 76.332302 
L 352.946995 77.067268 
L 355.526348 77.648002 
L 358.105701 78.096803 
L 360.685054 78.7634 
L 363.264407 79.233596 
L 365.84376 79.821734 
L 368.423112 80.146302 
L 371.002465 80.576291 
L 373.581818 80.981025 
" clip-path="url(#p547d9703c9)" style="fill: none; stroke: #2626ff; stroke-width: 1.5; stroke-linecap: square"/>
   </g>
   <g id="line2d_11">
    <path d="M 69.218182 184.68 
L 71.797535 184.68 
L 74.376888 184.68 
L 76.95624 184.68 
L 79.535593 184.68 
L 82.114946 184.68 
L 84.694299 184.68 
L 87.273652 184.68 
L 89.853005 184.68 
L 92.432357 184.68 
L 95.01171 184.68 
L 97.591063 184.68 
L 100.170416 184.68 
L 102.749769 184.68 
L 105.329122 184.68 
L 107.908475 184.68 
L 110.487827 184.68 
L 113.06718 184.68 
L 115.646533 184.68 
L 118.225886 184.68 
L 120.805239 184.68 
L 123.384592 184.68 
L 125.963945 184.68 
L 128.543297 184.68 
L 131.12265 184.68 
L 133.702003 184.68 
L 136.281356 184.68 
L 138.860709 184.68 
L 141.440062 184.68 
L 144.019414 184.68 
L 146.598767 184.68 
L 149.17812 184.68 
L 151.757473 184.68 
L 154.336826 184.68 
L 156.916179 184.68 
L 159.495532 184.68 
L 162.074884 184.68 
L 164.654237 184.68 
L 167.23359 184.68 
L 169.812943 184.68 
L 172.392296 184.68 
L 174.971649 184.68 
L 177.551002 184.68 
L 180.130354 184.68 
L 182.709707 184.68 
L 185.28906 184.68 
L 187.868413 184.68 
L 190.447766 184.68 
L 193.027119 184.68 
L 195.606471 184.68 
L 198.185824 184.68 
L 200.765177 184.68 
L 203.34453 184.68 
L 205.923883 184.68 
L 208.503236 184.68 
L 211.082589 184.68 
L 213.661941 184.68 
L 216.241294 184.68 
L 218.820647 184.68 
L 221.4 184.68 
L 223.979353 184.68 
L 226.558706 184.68 
L 229.138059 184.68 
L 231.717411 184.68 
L 234.296764 184.68 
L 236.876117 184.68 
L 239.45547 184.68 
L 242.034823 184.68 
L 244.614176 184.68 
L 247.193529 184.68 
L 249.772881 184.68 
L 252.352234 184.68 
L 254.931587 184.68 
L 257.51094 184.68 
L 260.090293 184.68 
L 262.669646 184.68 
L 265.248998 184.68 
L 267.828351 184.68 
L 270.407704 184.68 
L 272.987057 184.68 
L 275.56641 184.68 
L 278.145763 184.68 
L 280.725116 184.68 
L 283.304468 184.68 
L 285.883821 184.68 
L 288.463174 184.68 
L 291.042527 184.68 
L 293.62188 184.68 
L 296.201233 184.68 
L 298.780586 184.68 
L 301.359938 184.68 
L 303.939291 184.68 
L 306.518644 184.68 
L 309.097997 184.68 
L 311.67735 184.68 
L 314.256703 184.68 
L 316.836055 184.68 
L 319.415408 184.68 
L 321.994761 184.68 
L 324.574114 184.68 
L 327.153467 184.68 
L 329.73282 184.68 
L 332.312173 184.68 
L 334.891525 184.68 
L 337.470878 184.68 
L 340.050231 184.68 
L 342.629584 184.68 
L 345.208937 184.68 
L 347.78829 184.68 
L 350.367643 184.68 
L 352.946995 184.68 
L 355.526348 184.68 
L 358.105701 184.68 
L 360.685054 184.68 
L 363.264407 184.68 
L 365.84376 184.68 
L 368.423112 184.68 
L 371.002465 184.68 
L 373.581818 184.68 
" clip-path="url(#p547d9703c9)" style="fill: none; stroke: #ff0001; stroke-width: 1.5; stroke-linecap: square"/>
   </g>
   <g id="line2d_12">
    <path d="M 198.185824 192.24 
L 198.185824 25.92 
" clip-path="url(#p547d9703c9)" style="fill: none; stroke-dasharray: 3.7,1.6; stroke-dashoffset: 0; stroke: #808080; stroke-opacity: 0.5"/>
   </g>
   <g id="patch_3">
    <path d="M 54 192.24 
L 54 25.92 
" style="fill: none; stroke: #000000; stroke-width: 0.8; stroke-linejoin: miter; stroke-linecap: square"/>
   </g>
   <g id="patch_4">
    <path d="M 388.8 192.24 
L 388.8 25.92 
" style="fill: none"/>
   </g>
   <g id="patch_5">
    <path d="M 54 192.24 
L 388.8 192.24 
" style="fill: none; stroke: #000000; stroke-width: 0.8; stroke-linejoin: miter; stroke-linecap: square"/>
   </g>
   <g id="patch_6">
    <path d="M 54 25.92 
L 388.8 25.92 
" style="fill: none"/>
   </g>
  </g>
 </g>
 <defs>
  <clipPath id="p547d9703c9">
   <rect x="54" y="25.92" width="334.8" height="166.32"/>
  </clipPath>
 </defs>
</svg>
