<?xml version="1.0" encoding="utf-8" standalone="no"?>
<!DOCTYPE svg PUBLIC "-//W3C//DTD SVG 1.1//EN"
  "http://www.w3.org/Graphics/SVG/1.1/DTD/svg11.dtd">
<svg xmlns:xlink="http://www.w3.org/1999/xlink" width="432pt" height="216pt" viewBox="0 0 432 216" xmlns="http://www.w3.org/2000/svg" version="1.1">
 <metadata>
  <rdf:RDF xmlns:dc="http://purl.org/dc/elements/1.1/" xmlns:cc="http://creativecommons.org/ns#" xmlns:rdf="http://www.w3.org/1999/02/22-rdf-syntax-ns#">
   <cc:Work>
    <dc:type rdf:resource="http://purl.org/dc/dcmitype/StillImage"/>
    <dc:date>2026-01-03T22:35:48.443444</dc:date>
    <dc:format>image/svg+xml</dc:format>
    <dc:creator>
     <cc:Agent>
      <dc:title>Matplotlib v3.8.4, https://matplotlib.org/</dc:title>
     </cc:Agent>
    </dc:creator>
   </cc:Work>
  </rdf:RDF>
 </metadata>
 <defs>
  <style type="text/css">*{stroke-linejoin: round; stroke-linecap: butt}</style>
 </defs>
 <g id="figure_1">
  <g id="patch_1">
   <path d="M 0 216 
L 432 216 
L 432 0 
L 0 0 
z
" style="fill: #ffffff"/>
  </g>
  <g id="axes_1">
   <g id="patch_2">
    <path d="M 54 192.24 
L 388.8 192.24 
L 388.8 25.92 
L 54 25.92 
z
" style="fill: #ffffff"/>
   </g>
   <g id="PolyCollection_1">
    <defs>
     <path id="me3dd65e072" d="M 69.218182 -182.52 
L 69.218182 -136.513153 
L 71.797535 -135.537249 
L 74.376888 -134.700763 
L 76.95624 -133.794566 
L 79.535593 -132.748956 
L 82.114946 -131.424515 
L 84.694299 -130.309199 
L 87.273652 -129.751543 
L 89.853005 -128.915052 
L 92.432357 -128.008859 
L 95.01171 -127.172368 
L 97.591063 -126.126758 
L 100.170416 -125.220566 
L 102.749769 -124.314368 
L 105.329122 -123.059634 
L 107.908475 -121.386662 
L 110.487827 -119.922803 
L 113.06718 -118.389244 
L 115.646533 -117.273928 
L 118.225886 -116.228317 
L 120.805239 -115.531244 
L 123.384592 -114.973583 
L 125.963945 -113.997679 
L 128.543297 -112.603532 
L 131.12265 -111.488216 
L 133.702003 -110.303193 
L 136.281356 -109.048459 
L 138.860709 -107.584606 
L 141.440062 -106.260165 
L 144.019414 -104.866018 
L 146.598767 -103.680996 
L 149.17812 -102.008018 
L 151.757473 -101.171532 
L 154.336826 -100.05621 
L 156.916179 -99.219724 
L 159.495532 -98.034702 
L 162.074884 -96.640555 
L 164.654237 -95.316114 
L 167.23359 -94.131086 
L 169.812943 -93.155185 
L 172.392296 -91.900453 
L 174.971649 -90.576013 
L 177.551002 -89.181866 
L 180.130354 -87.718013 
L 182.709707 -86.25416 
L 185.28906 -85.208549 
L 187.868413 -83.884109 
L 190.447766 -82.559668 
L 193.027119 -81.374646 
L 195.606471 -80.538157 
L 198.185824 -79.14401 
L 200.765177 -78.028691 
L 203.34453 -76.495132 
L 205.923883 -75.240397 
L 208.503236 -74.125081 
L 211.082589 -73.776544 
L 213.661941 -72.312691 
L 216.241294 -71.476202 
L 218.820647 -70.848835 
L 221.4 -70.570006 
L 223.979353 -69.803225 
L 226.558706 -69.245567 
L 229.138059 -68.130249 
L 231.717411 -68.269664 
L 234.296764 -69.106152 
L 236.876117 -69.245567 
L 239.45547 -69.036445 
L 242.034823 -69.036445 
L 244.614176 -68.618201 
L 247.193529 -68.130249 
L 249.772881 -68.060541 
L 252.352234 -67.572591 
L 254.931587 -67.781712 
L 257.51094 -67.781712 
L 260.090293 -67.572591 
L 262.669646 -67.502883 
L 265.248998 -67.502883 
L 267.828351 -66.875517 
L 270.407704 -66.387565 
L 272.987057 -65.411663 
L 275.56641 -65.202541 
L 278.145763 -64.923711 
L 280.725116 -64.505468 
L 283.304468 -64.575174 
L 285.883821 -64.156931 
L 288.463174 -63.39015 
L 291.042527 -62.971906 
L 293.62188 -62.902198 
L 296.201233 -62.623369 
L 298.780586 -62.135417 
L 301.359938 -61.577759 
L 303.939291 -61.089807 
L 306.518644 -60.810978 
L 309.097997 -59.765368 
L 311.67735 -59.068294 
L 314.256703 -58.440929 
L 316.836055 -58.231806 
L 319.415408 -57.465026 
L 321.994761 -56.698245 
L 324.574114 -56.280001 
L 327.153467 -56.140586 
L 329.73282 -55.722342 
L 332.312173 -55.652635 
L 334.891525 -55.51322 
L 337.470878 -54.537317 
L 340.050231 -53.840244 
L 342.629584 -52.794634 
L 345.208937 -51.888438 
L 347.78829 -51.191365 
L 350.367643 -50.285169 
L 352.946995 -49.030437 
L 355.526348 -48.193949 
L 358.105701 -47.775705 
L 360.685054 -46.520973 
L 363.264407 -45.475363 
L 365.84376 -44.290338 
L 368.423112 -43.314435 
L 371.002465 -41.920288 
L 373.581818 -41.362629 
L 373.581818 -42.617362 
L 373.581818 -42.617362 
L 371.002465 -42.896191 
L 368.423112 -44.011509 
L 365.84376 -44.917704 
L 363.264407 -45.963314 
L 360.685054 -47.008924 
L 358.105701 -48.193949 
L 355.526348 -48.542486 
L 352.946995 -49.378974 
L 350.367643 -50.703413 
L 347.78829 -51.609609 
L 345.208937 -52.446097 
L 342.629584 -53.422 
L 340.050231 -54.607025 
L 337.470878 -55.373806 
L 334.891525 -56.489123 
L 332.312173 -58.789465 
L 329.73282 -60.113904 
L 327.153467 -61.438344 
L 324.574114 -62.34454 
L 321.994761 -63.599272 
L 319.415408 -64.993419 
L 316.836055 -66.596688 
L 314.256703 -67.363468 
L 311.67735 -68.89703 
L 309.097997 -70.082055 
L 306.518644 -71.267079 
L 303.939291 -71.824739 
L 301.359938 -72.870349 
L 298.780586 -74.334202 
L 296.201233 -75.240397 
L 293.62188 -75.937471 
L 291.042527 -76.564838 
L 288.463174 -77.122496 
L 285.883821 -78.028691 
L 283.304468 -79.074301 
L 280.725116 -79.353132 
L 278.145763 -80.050205 
L 275.56641 -80.468448 
L 272.987057 -81.026109 
L 270.407704 -82.420256 
L 267.828351 -83.465866 
L 265.248998 -84.441767 
L 262.669646 -84.720598 
L 260.090293 -85.278256 
L 257.51094 -85.905623 
L 254.931587 -86.25416 
L 252.352234 -86.811818 
L 249.772881 -87.578598 
L 247.193529 -88.205965 
L 244.614176 -89.042453 
L 242.034823 -89.460696 
L 239.45547 -89.809233 
L 236.876117 -90.645722 
L 234.296764 -90.715428 
L 231.717411 -90.4366 
L 229.138059 -91.133674 
L 226.558706 -92.388405 
L 223.979353 -93.573431 
L 221.4 -94.688747 
L 218.820647 -95.594945 
L 216.241294 -96.989092 
L 213.661941 -98.662064 
L 211.082589 -100.05621 
L 208.503236 -100.753284 
L 205.923883 -101.938312 
L 203.34453 -103.611289 
L 200.765177 -105.075142 
L 198.185824 -106.190459 
L 195.606471 -107.724018 
L 193.027119 -108.909046 
L 190.447766 -110.303193 
L 187.868413 -111.906459 
L 185.28906 -113.440024 
L 182.709707 -115.043289 
L 180.130354 -116.995097 
L 177.551002 -118.737781 
L 174.971649 -120.341052 
L 172.392296 -122.014024 
L 169.812943 -123.547588 
L 167.23359 -124.732611 
L 164.654237 -126.196464 
L 162.074884 -127.799735 
L 159.495532 -129.612125 
L 156.916179 -131.006272 
L 154.336826 -132.261006 
L 151.757473 -133.72486 
L 149.17812 -135.328131 
L 146.598767 -137.419351 
L 144.019414 -138.95291 
L 141.440062 -140.765305 
L 138.860709 -142.647402 
L 136.281356 -144.529498 
L 133.702003 -146.341893 
L 131.12265 -147.945153 
L 128.543297 -149.478723 
L 125.963945 -151.36082 
L 123.384592 -152.476131 
L 120.805239 -153.312627 
L 118.225886 -154.218814 
L 115.646533 -155.612961 
L 113.06718 -157.63448 
L 110.487827 -159.725701 
L 107.908475 -161.538085 
L 105.329122 -163.83843 
L 102.749769 -165.650825 
L 100.170416 -166.835848 
L 97.591063 -168.090582 
L 95.01171 -169.624141 
L 92.432357 -170.60004 
L 89.853005 -171.994187 
L 87.273652 -173.318633 
L 84.694299 -174.433944 
L 82.114946 -175.828091 
L 79.535593 -177.361661 
L 76.95624 -178.825509 
L 74.376888 -179.731706 
L 71.797535 -181.265266 
L 69.218182 -182.52 
z
" style="stroke: #d3d3ff; stroke-opacity: 0.4"/>
    </defs>
    <g clip-path="url(#p8b2c7669fd)">
     <use xlink:href="#me3dd65e072" x="0" y="216" style="fill: #d3d3ff; fill-opacity: 0.4; stroke: #d3d3ff; stroke-opacity: 0.4"/>
    </g>
   </g>
   <g id="matplotlib.axis_1">
    <g id="xtick_1">
     <g id="line2d_1">
      <defs>
       <path id="md4682e33e2" d="M 0 0 
L 0 3.5 
" style="stroke: #000000; stroke-width: 0.8"/>
      </defs>
      <g>
       <use xlink:href="#md4682e33e2" x="120.805239" y="192.24" style="stroke: #000000; stroke-width: 0.8"/>
      </g>
     </g>
     <g id="text_1">
      <text style="font: 10px 'DejaVu Sans', 'Bitstream Vera Sans', 'Computer Modern Sans Serif', 'Lucida Grande', 'Verdana', 'Geneva', 'Lucid', 'Arial', 'Helvetica', 'Avant Garde', sans-serif; text-anchor: middle" x="120.805239" y="206.838437" transform="rotate(-0 120.805239 206.838437)">1920</text>
     </g>
    </g>
    <g id="xtick_2">
     <g id="line2d_2">
      <g>
       <use xlink:href="#md4682e33e2" x="198.185824" y="192.24" style="stroke: #000000; stroke-width: 0.8"/>
      </g>
     </g>
     <g id="text_2">
      <text style="font: 10px 'DejaVu Sans', 'Bitstream Vera Sans', 'Computer Modern Sans Serif', 'Lucida Grande', 'Verdana', 'Geneva', 'Lucid', 'Arial', 'Helvetica', 'Avant Garde', sans-serif; text-anchor: middle" x="198.185824" y="206.838437" transform="rotate(-0 198.185824 206.838437)">1950</text>
     </g>
    </g>
    <g id="xtick_3">
     <g id="line2d_3">
      <g>
       <use xlink:href="#md4682e33e2" x="275.56641" y="192.24" style="stroke: #000000; stroke-width: 0.8"/>
      </g>
     </g>
     <g id="text_3">
      <text style="font: 10px 'DejaVu Sans', 'Bitstream Vera Sans', 'Computer Modern Sans Serif', 'Lucida Grande', 'Verdana', 'Geneva', 'Lucid', 'Arial', 'Helvetica', 'Avant Garde', sans-serif; text-anchor: middle" x="275.56641" y="206.838437" transform="rotate(-0 275.56641 206.838437)">1980</text>
     </g>
    </g>
    <g id="xtick_4">
     <g id="line2d_4">
      <g>
       <use xlink:href="#md4682e33e2" x="352.946995" y="192.24" style="stroke: #000000; stroke-width: 0.8"/>
      </g>
     </g>
     <g id="text_4">
      <text style="font: 10px 'DejaVu Sans', 'Bitstream Vera Sans', 'Computer Modern Sans Serif', 'Lucida Grande', 'Verdana', 'Geneva', 'Lucid', 'Arial', 'Helvetica', 'Avant Garde', sans-serif; text-anchor: middle" x="352.946995" y="206.838437" transform="rotate(-0 352.946995 206.838437)">2010</text>
     </g>
    </g>
   </g>
   <g id="matplotlib.axis_2">
    <g id="ytick_1">
     <g id="line2d_5">
      <defs>
       <path id="mbc98839584" d="M 0 0 
L -3.5 0 
" style="stroke: #000000; stroke-width: 0.8"/>
      </defs>
      <g>
       <use xlink:href="#mbc98839584" x="54" y="159.074332" style="stroke: #000000; stroke-width: 0.8"/>
      </g>
     </g>
     <g id="text_5">
      <text style="font: 10px 'DejaVu Sans', 'Bitstream Vera Sans', 'Computer Modern Sans Serif', 'Lucida Grande', 'Verdana', 'Geneva', 'Lucid', 'Arial', 'Helvetica', 'Avant Garde', sans-serif; text-anchor: end" x="47" y="162.873551" transform="rotate(-0 47 162.873551)">0.090</text>
     </g>
    </g>
    <g id="ytick_2">
     <g id="line2d_6">
      <g>
       <use xlink:href="#mbc98839584" x="54" y="101.385496" style="stroke: #000000; stroke-width: 0.8"/>
      </g>
     </g>
     <g id="text_6">
      <text style="font: 10px 'DejaVu Sans', 'Bitstream Vera Sans', 'Computer Modern Sans Serif', 'Lucida Grande', 'Verdana', 'Geneva', 'Lucid', 'Arial', 'Helvetica', 'Avant Garde', sans-serif; text-anchor: end" x="47" y="105.184715" transform="rotate(-0 47 105.184715)">0.105</text>
     </g>
    </g>
    <g id="ytick_3">
     <g id="line2d_7">
      <g>
       <use xlink:href="#mbc98839584" x="54" y="43.69666" style="stroke: #000000; stroke-width: 0.8"/>
      </g>
     </g>
     <g id="text_7">
      <text style="font: 10px 'DejaVu Sans', 'Bitstream Vera Sans', 'Computer Modern Sans Serif', 'Lucida Grande', 'Verdana', 'Geneva', 'Lucid', 'Arial', 'Helvetica', 'Avant Garde', sans-serif; text-anchor: end" x="47" y="47.495879" transform="rotate(-0 47 47.495879)">0.120</text>
     </g>
    </g>
   </g>
   <g id="line2d_8">
    <path d="M 69.218182 55.71149 
L 71.797535 56.896353 
L 74.376888 58.095565 
L 76.95624 58.892377 
L 79.535593 60.065349 
L 82.114946 61.453411 
L 84.694299 62.568446 
L 87.273652 63.477494 
L 89.853005 64.578606 
L 92.432357 65.619812 
L 95.01171 66.589467 
L 97.591063 67.829034 
L 100.170416 68.875367 
L 102.749769 69.82945 
L 105.329122 71.407885 
L 107.908475 73.568328 
L 110.487827 74.963857 
L 113.06718 76.628501 
L 115.646533 78.090684 
L 118.225886 79.300086 
L 120.805239 80.028266 
L 123.384592 80.883839 
L 125.963945 81.920615 
L 128.543297 83.580962 
L 131.12265 84.892484 
L 133.702003 86.194083 
L 136.281356 87.675779 
L 138.860709 89.2544 
L 141.440062 90.680063 
L 144.019414 92.039359 
L 146.598767 93.379627 
L 149.17812 95.214688 
L 151.757473 96.513075 
L 154.336826 97.779477 
L 156.916179 98.808144 
L 159.495532 100.034106 
L 162.074884 101.524333 
L 164.654237 102.834909 
L 167.23359 104.200076 
L 169.812943 105.288355 
L 172.392296 106.61371 
L 174.971649 108.060231 
L 177.551002 109.372971 
L 180.130354 110.888917 
L 182.709707 112.507425 
L 185.28906 113.901806 
L 187.868413 115.203117 
L 190.447766 116.652095 
L 193.027119 117.926071 
L 195.606471 118.789776 
L 198.185824 120.339237 
L 200.765177 121.423792 
L 203.34453 122.715792 
L 205.923883 124.11096 
L 208.503236 125.249017 
L 211.082589 125.897224 
L 213.661941 127.160153 
L 216.241294 128.533032 
L 218.820647 129.570181 
L 221.4 130.332978 
L 223.979353 131.373724 
L 226.558706 132.41613 
L 229.138059 133.572884 
L 231.717411 134.074724 
L 234.296764 134.071196 
L 236.876117 134.249157 
L 239.45547 134.752367 
L 242.034823 135.215228 
L 244.614176 135.510266 
L 247.193529 136.167673 
L 249.772881 136.575623 
L 252.352234 137.227778 
L 254.931587 137.285659 
L 257.51094 137.66756 
L 260.090293 138.236589 
L 262.669646 138.676527 
L 265.248998 138.852997 
L 267.828351 139.632599 
L 270.407704 140.477092 
L 272.987057 141.346243 
L 275.56641 141.962043 
L 278.145763 142.592221 
L 280.725116 143.119243 
L 283.304468 143.464669 
L 285.883821 144.290869 
L 288.463174 145.042877 
L 291.042527 145.528965 
L 293.62188 145.974585 
L 296.201233 146.620802 
L 298.780586 147.359159 
L 301.359938 148.565042 
L 303.939291 149.500832 
L 306.518644 149.739368 
L 309.097997 150.782867 
L 311.67735 151.753423 
L 314.256703 152.904571 
L 316.836055 153.266688 
L 319.415408 154.233834 
L 321.994761 155.516659 
L 324.574114 156.34951 
L 327.153467 157.04499 
L 329.73282 157.870041 
L 332.312173 158.73599 
L 334.891525 159.994647 
L 337.470878 161.074525 
L 340.050231 161.808327 
L 342.629584 162.934554 
L 345.208937 163.864614 
L 347.78829 164.60139 
L 350.367643 165.492433 
L 352.946995 166.766177 
L 355.526348 167.644392 
L 358.105701 168.016039 
L 360.685054 169.224525 
L 363.264407 170.256687 
L 365.84376 171.350893 
L 368.423112 172.334275 
L 371.002465 173.572132 
L 373.581818 173.971022 
" clip-path="url(#p8b2c7669fd)" style="fill: none; stroke: #2626ff; stroke-width: 1.5; stroke-linecap: square"/>
   </g>
   <g id="line2d_9">
    <path d="M 69.218182 184.68 
L 71.797535 184.68 
L 74.376888 184.68 
L 76.95624 184.68 
L 79.535593 184.68 
L 82.114946 184.68 
L 84.694299 184.68 
L 87.273652 184.68 
L 89.853005 184.68 
L 92.432357 184.68 
L 95.01171 184.68 
L 97.591063 184.68 
L 100.170416 184.68 
L 102.749769 184.68 
L 105.329122 184.68 
L 107.908475 184.68 
L 110.487827 184.68 
L 113.06718 184.68 
L 115.646533 184.68 
L 118.225886 184.68 
L 120.805239 184.68 
L 123.384592 184.68 
L 125.963945 184.68 
L 128.543297 184.68 
L 131.12265 184.68 
L 133.702003 184.68 
L 136.281356 184.68 
L 138.860709 184.68 
L 141.440062 184.68 
L 144.019414 184.68 
L 146.598767 184.68 
L 149.17812 184.68 
L 151.757473 184.68 
L 154.336826 184.68 
L 156.916179 184.68 
L 159.495532 184.68 
L 162.074884 184.68 
L 164.654237 184.68 
L 167.23359 184.68 
L 169.812943 184.68 
L 172.392296 184.68 
L 174.971649 184.68 
L 177.551002 184.68 
L 180.130354 184.68 
L 182.709707 184.68 
L 185.28906 184.68 
L 187.868413 184.68 
L 190.447766 184.68 
L 193.027119 184.68 
L 195.606471 184.68 
L 198.185824 184.68 
L 200.765177 184.68 
L 203.34453 184.68 
L 205.923883 184.68 
L 208.503236 184.68 
L 211.082589 184.68 
L 213.661941 184.68 
L 216.241294 184.68 
L 218.820647 184.68 
L 221.4 184.68 
L 223.979353 184.68 
L 226.558706 184.68 
L 229.138059 184.68 
L 231.717411 184.68 
L 234.296764 184.68 
L 236.876117 184.68 
L 239.45547 184.68 
L 242.034823 184.68 
L 244.614176 184.68 
L 247.193529 184.68 
L 249.772881 184.68 
L 252.352234 184.68 
L 254.931587 184.68 
L 257.51094 184.68 
L 260.090293 184.68 
L 262.669646 184.68 
L 265.248998 184.68 
L 267.828351 184.68 
L 270.407704 184.68 
L 272.987057 184.68 
L 275.56641 184.68 
L 278.145763 184.68 
L 280.725116 184.68 
L 283.304468 184.68 
L 285.883821 184.68 
L 288.463174 184.68 
L 291.042527 184.68 
L 293.62188 184.68 
L 296.201233 184.68 
L 298.780586 184.68 
L 301.359938 184.68 
L 303.939291 184.68 
L 306.518644 184.68 
L 309.097997 184.68 
L 311.67735 184.68 
L 314.256703 184.68 
L 316.836055 184.68 
L 319.415408 184.68 
L 321.994761 184.68 
L 324.574114 184.68 
L 327.153467 184.68 
L 329.73282 184.68 
L 332.312173 184.68 
L 334.891525 184.68 
L 337.470878 184.68 
L 340.050231 184.68 
L 342.629584 184.68 
L 345.208937 184.68 
L 347.78829 184.68 
L 350.367643 184.68 
L 352.946995 184.68 
L 355.526348 184.68 
L 358.105701 184.68 
L 360.685054 184.68 
L 363.264407 184.68 
L 365.84376 184.68 
L 368.423112 184.68 
L 371.002465 184.68 
L 373.581818 184.68 
" clip-path="url(#p8b2c7669fd)" style="fill: none; stroke: #ff0001; stroke-width: 1.5; stroke-linecap: square"/>
   </g>
   <g id="line2d_10">
    <path d="M 198.185824 192.24 
L 198.185824 25.92 
" clip-path="url(#p8b2c7669fd)" style="fill: none; stroke-dasharray: 3.7,1.6; stroke-dashoffset: 0; stroke: #808080; stroke-opacity: 0.5"/>
   </g>
   <g id="patch_3">
    <path d="M 54 192.24 
L 54 25.92 
" style="fill: none; stroke: #000000; stroke-width: 0.8; stroke-linejoin: miter; stroke-linecap: square"/>
   </g>
   <g id="patch_4">
    <path d="M 388.8 192.24 
L 388.8 25.92 
" style="fill: none"/>
   </g>
   <g id="patch_5">
    <path d="M 54 192.24 
L 388.8 192.24 
" style="fill: none; stroke: #000000; stroke-width: 0.8; stroke-linejoin: miter; stroke-linecap: square"/>
   </g>
   <g id="patch_6">
    <path d="M 54 25.92 
L 388.8 25.92 
" style="fill: none"/>
   </g>
   <g id="legend_1">
    <g id="line2d_11">
     <path d="M 234.140625 39.018438 
L 244.140625 39.018438 
L 254.140625 39.018438 
" style="fill: none; stroke: #2626ff; stroke-width: 1.5; stroke-linecap: square"/>
    </g>
    <g id="text_8">
     <text style="font: 10px 'DejaVu Sans', 'Bitstream Vera Sans', 'Computer Modern Sans Serif', 'Lucida Grande', 'Verdana', 'Geneva', 'Lucid', 'Arial', 'Helvetica', 'Avant Garde', sans-serif; text-anchor: start" x="262.140625" y="42.518438" transform="rotate(-0 262.140625 42.518438)">Frederikse et al. 2020</text>
    </g>
    <g id="patch_7">
     <path d="M 234.140625 57.196562 
L 254.140625 57.196562 
L 254.140625 50.196562 
L 234.140625 50.196562 
z
" style="fill: #d3d3ff; fill-opacity: 0.4; stroke: #d3d3ff; stroke-opacity: 0.4; stroke-linejoin: miter"/>
    </g>
    <g id="text_9">
     <text style="font: 10px 'DejaVu Sans', 'Bitstream Vera Sans', 'Computer Modern Sans Serif', 'Lucida Grande', 'Verdana', 'Geneva', 'Lucid', 'Arial', 'Helvetica', 'Avant Garde', sans-serif; text-anchor: start" x="262.140625" y="57.196562" transform="rotate(-0 262.140625 57.196562)">90% credible interval</text>
    </g>
    <g id="line2d_12">
     <path d="M 234.140625 68.374687 
L 244.140625 68.374687 
L 254.140625 68.374687 
" style="fill: none; stroke: #ff0001; stroke-width: 1.5; stroke-linecap: square"/>
    </g>
    <g id="text_10">
     <text style="font: 10px 'DejaVu Sans', 'Bitstream Vera Sans', 'Computer Modern Sans Serif', 'Lucida Grande', 'Verdana', 'Geneva', 'Lucid', 'Arial', 'Helvetica', 'Avant Garde', sans-serif; text-anchor: start" x="262.140625" y="71.874687" transform="rotate(-0 262.140625 71.874687)">Holocene Baseline 95%</text>
    </g>
   </g>
  </g>
 </g>
 <defs>
  <clipPath id="p8b2c7669fd">
   <rect x="54" y="25.92" width="334.8" height="166.32"/>
  </clipPath>
 </defs>
</svg>
