<?xml version="1.0" encoding="utf-8" standalone="no"?>
<!DOCTYPE svg PUBLIC "-//W3C//DTD SVG 1.1//EN"
  "http://www.w3.org/Graphics/SVG/1.1/DTD/svg11.dtd">
<svg xmlns:xlink="http://www.w3.org/1999/xlink" width="1080pt" height="216pt" viewBox="0 0 1080 216" xmlns="http://www.w3.org/2000/svg" version="1.1">
 <metadata>
  <rdf:RDF xmlns:dc="http://purl.org/dc/elements/1.1/" xmlns:cc="http://creativecommons.org/ns#" xmlns:rdf="http://www.w3.org/1999/02/22-rdf-syntax-ns#">
   <cc:Work>
    <dc:type rdf:resource="http://purl.org/dc/dcmitype/StillImage"/>
    <dc:date>2026-01-03T22:32:06.056136</dc:date>
    <dc:format>image/svg+xml</dc:format>
    <dc:creator>
     <cc:Agent>
      <dc:title>Matplotlib v3.8.4, https://matplotlib.org/</dc:title>
     </cc:Agent>
    </dc:creator>
   </cc:Work>
  </rdf:RDF>
 </metadata>
 <defs>
  <style type="text/css">*{stroke-linejoin: round; stroke-linecap: butt}</style>
 </defs>
 <g id="figure_1">
  <g id="patch_1">
   <path d="M 0 216 
L 1080 216 
L 1080 0 
L 0 0 
z
" style="fill: #ffffff"/>
  </g>
  <g id="axes_1">
   <g id="patch_2">
    <path d="M 135 192.24 
L 972 192.24 
L 972 25.92 
L 135 25.92 
z
" style="fill: #ffffff"/>
   </g>
   <g id="PolyCollection_1">
    <path d="M 643.194084 148.717833 
L 643.194084 148.717833 
L 634.507006 149.24795 
L 625.819927 149.848321 
L 617.132849 150.345554 
L 608.445771 150.685712 
L 599.758692 151.130534 
L 591.071614 151.55308 
L 582.384536 151.749911 
L 573.697457 152.135346 
L 565.010379 152.430037 
L 556.3233 152.491541 
L 547.636222 152.941175 
L 538.949144 153.214595 
L 530.262065 153.391756 
L 521.574987 153.425571 
L 512.887909 153.899402 
L 504.20083 154.015972 
L 495.513752 153.870091 
L 486.826674 154.017699 
L 478.139595 154.207188 
L 469.452517 154.385767 
L 460.765439 154.836736 
L 452.07836 155.184955 
L 443.391282 155.766626 
L 434.704203 156.293926 
L 426.017125 156.795373 
L 417.330047 156.468743 
L 408.642968 156.151117 
L 399.95589 155.504823 
L 391.268812 155.281115 
L 382.581733 155.519122 
L 373.894655 156.002926 
L 365.207577 156.846731 
L 356.520498 156.704364 
L 347.83342 156.224251 
L 339.146341 156.005695 
L 330.459263 155.789243 
L 321.772185 155.251112 
L 313.085106 154.188203 
L 304.398028 152.507445 
L 295.71095 150.735384 
L 287.023871 142.302082 
L 278.336793 141.911716 
L 269.649715 141.023131 
L 260.962636 140.231941 
L 252.275558 138.840358 
L 243.58848 136.985594 
L 234.901401 134.673847 
L 226.214323 131.985702 
L 217.527244 130.448396 
L 208.840166 129.700433 
L 200.153088 128.291369 
L 191.466009 126.796409 
L 182.778931 124.941893 
L 174.091853 123.275604 
L 165.404774 121.530347 
L 156.717696 119.342528 
L 148.030618 116.951684 
L 139.343539 114.759026 
L 130.656461 112.131002 
L 121.969382 110.066097 
L 113.282304 104.369077 
L 104.595226 102.494683 
L 95.908147 97.500663 
L 87.221069 92.235607 
L 78.533991 87.002038 
L 69.846912 86.634549 
L 61.159834 86.072438 
L 52.472756 85.616951 
L 43.785677 85.108389 
L 35.098599 84.509687 
L 26.41152 81.781788 
L 17.724442 78.409822 
L 9.037364 78.387178 
L 0.350285 80.19173 
L -8.336793 81.85015 
L -17.023871 83.062048 
L -25.71095 84.324572 
L -34.398028 85.4857 
L -43.085106 86.682096 
L -51.772185 87.839422 
L -60.459263 88.675685 
L -69.146341 89.647095 
L -77.83342 90.454958 
L -86.520498 91.039865 
L -95.207577 91.510246 
L -103.894655 92.243834 
L -112.581733 92.86552 
L -121.268812 93.327867 
L -129.95589 93.716083 
L -138.642968 94.147611 
L -147.330047 94.400431 
L -156.017125 94.674223 
L -164.704203 94.982644 
L -173.391282 95.25587 
L -182.07836 95.52282 
L -190.765439 95.802993 
L -199.452517 96.086049 
L -208.139595 95.857188 
L -216.826674 96.023197 
L -225.513752 96.199272 
L -234.20083 96.446575 
L -242.887909 96.647593 
L -251.574987 96.807948 
L -260.262065 96.964631 
L -268.949144 97.060029 
L -277.636222 97.138332 
L -286.3233 97.153406 
L -295.010379 96.903313 
L -303.697457 96.629574 
L -312.384536 96.391977 
L -321.071614 96.011071 
L -329.758692 95.602135 
L -338.445771 95.237931 
L -347.132849 94.882186 
L -355.819927 94.531834 
L -364.507006 94.696696 
L -373.194084 94.854181 
L -381.881162 94.703706 
L -390.568241 94.585205 
L -399.255319 95.064688 
L -407.942398 94.758444 
L -416.629476 94.517006 
L -425.316554 94.267727 
L -434.003633 94.001951 
L -442.690711 93.742727 
L -451.377789 93.413536 
L -460.064868 93.042876 
L -468.751946 92.665937 
L -477.439024 92.222003 
L -486.126103 91.834124 
L -494.813181 91.411584 
L -503.500259 90.98253 
L -512.187338 90.505224 
L -520.874416 90.042123 
L -529.561495 89.573299 
L -538.248573 89.301914 
L -546.935651 88.996957 
L -555.62273 88.772503 
L -564.309808 88.741306 
L -572.996886 88.771996 
L -581.683965 88.659473 
L -590.371043 88.580645 
L -599.058121 88.424193 
L -607.7452 88.563023 
L -616.432278 88.30831 
L -625.119357 88.327793 
L -633.806435 88.35247 
L -642.493513 88.517881 
L -651.180592 88.732359 
L -659.86767 88.960155 
L -746.738454 88.73553 
L -833.609237 87.848002 
L -920.480021 88.525774 
L -1007.350804 87.053867 
L -1094.221588 88.52401 
L -1181.092372 88.660671 
L -1267.963155 88.479213 
L -1354.833939 88.368489 
L -1441.704722 89.90595 
L -1528.575506 89.162444 
L -1615.44629 90.24746 
L -1702.317073 88.843183 
L -1789.187857 92.638932 
L -1876.05864 95.018563 
L -1962.929424 97.822074 
L -2049.800208 101.916711 
L -2136.670991 104.268905 
L -2223.541775 107.225527 
L -2310.412558 110.836015 
L -2397.283342 116.777193 
L -2484.154126 123.344273 
L -2571.024909 127.184701 
L -2657.895693 129.787914 
L -2744.766476 128.57887 
L -2831.63726 125.877324 
L -2831.63726 71.756711 
L -2831.63726 71.756711 
L -2744.766476 71.926359 
L -2657.895693 74.525979 
L -2571.024909 73.908242 
L -2484.154126 72.832043 
L -2397.283342 71.255549 
L -2310.412558 69.697113 
L -2223.541775 67.809075 
L -2136.670991 66.93873 
L -2049.800208 62.888366 
L -1962.929424 56.424835 
L -1876.05864 57.075019 
L -1789.187857 59.882978 
L -1702.317073 55.909973 
L -1615.44629 55.880817 
L -1528.575506 56.031997 
L -1441.704722 57.193382 
L -1354.833939 56.708399 
L -1267.963155 59.578658 
L -1181.092372 59.332933 
L -1094.221588 61.504441 
L -1007.350804 59.502358 
L -920.480021 60.705629 
L -833.609237 60.966601 
L -746.738454 59.115086 
L -659.86767 56.098034 
L -651.180592 55.787854 
L -642.493513 55.477697 
L -633.806435 55.269715 
L -625.119357 55.163879 
L -616.432278 55.058068 
L -607.7452 55.14074 
L -599.058121 55.223418 
L -590.371043 55.304238 
L -581.683965 55.383167 
L -572.996886 55.462141 
L -564.309808 55.319833 
L -555.62273 55.177546 
L -546.935651 55.054931 
L -538.248573 54.951971 
L -529.561495 54.849018 
L -520.874416 54.528013 
L -512.187338 54.207029 
L -503.500259 53.931561 
L -494.813181 53.701612 
L -486.126103 53.47167 
L -477.439024 53.314408 
L -468.751946 53.157169 
L -460.064868 52.9482 
L -451.377789 52.687553 
L -442.690711 52.426885 
L -434.003633 52.555761 
L -425.316554 52.684656 
L -416.629476 52.783068 
L -407.942398 52.851048 
L -399.255319 52.91901 
L -390.568241 52.786525 
L -381.881162 52.654056 
L -373.194084 52.571384 
L -364.507006 52.538525 
L -355.819927 52.505669 
L -347.132849 52.769289 
L -338.445771 53.032914 
L -329.758692 53.223664 
L -321.071614 53.341567 
L -312.384536 53.459452 
L -303.697457 53.485573 
L -295.010379 53.511708 
L -286.3233 53.514033 
L -277.636222 53.492523 
L -268.949144 53.471032 
L -260.262065 53.332456 
L -251.574987 53.193895 
L -242.887909 53.044384 
L -234.20083 52.883924 
L -225.513752 52.723464 
L -216.826674 52.712011 
L -208.139595 52.700565 
L -199.452517 52.636008 
L -190.765439 52.518318 
L -182.07836 52.400648 
L -173.391282 52.340468 
L -164.704203 52.280292 
L -156.017125 52.169058 
L -147.330047 52.006787 
L -138.642968 51.844481 
L -129.95589 51.486993 
L -121.268812 51.129491 
L -112.581733 50.739692 
L -103.894655 50.31759 
L -95.207577 49.895478 
L -86.520498 49.379608 
L -77.83342 48.863733 
L -69.146341 48.294924 
L -60.459263 47.673163 
L -51.772185 47.051388 
L -43.085106 46.310182 
L -34.398028 45.56896 
L -25.71095 44.782646 
L -17.023871 43.951155 
L -8.336793 43.119703 
L 0.350285 43.471816 
L 9.037364 43.922364 
L 17.724442 45.107136 
L 26.41152 47.026076 
L 35.098599 48.498297 
L 43.785677 48.323426 
L 52.472756 48.148572 
L 61.159834 48.220116 
L 69.846912 48.538096 
L 78.533991 48.856079 
L 87.221069 49.099125 
L 95.908147 49.342205 
L 104.595226 49.419609 
L 113.282304 45.856998 
L 121.969382 45.925534 
L 130.656461 45.67901 
L 139.343539 45.484364 
L 148.030618 45.991901 
L 156.717696 46.977839 
L 165.404774 47.510392 
L 174.091853 49.167102 
L 182.778931 51.199923 
L 191.466009 52.311402 
L 200.153088 52.841247 
L 208.840166 53.420895 
L 217.527244 55.072135 
L 226.214323 56.567345 
L 234.901401 58.091267 
L 243.58848 62.092263 
L 252.275558 66.706345 
L 260.962636 76.075292 
L 269.649715 78.693413 
L 278.336793 81.632236 
L 287.023871 87.23999 
L 295.71095 92.053995 
L 304.398028 95.28604 
L 313.085106 98.362367 
L 321.772185 100.593672 
L 330.459263 102.635675 
L 339.146341 106.762932 
L 347.83342 110.893006 
L 356.520498 114.837804 
L 365.207577 118.557235 
L 373.894655 122.330769 
L 382.581733 125.881919 
L 391.268812 129.458619 
L 399.95589 133.287028 
L 408.642968 136.444783 
L 417.330047 138.920323 
L 426.017125 141.612054 
L 434.704203 143.217752 
L 443.391282 144.751744 
L 452.07836 145.743525 
L 460.765439 145.951379 
L 469.452517 146.100853 
L 478.139595 146.342241 
L 486.826674 146.673569 
L 495.513752 146.765806 
L 504.20083 146.927089 
L 512.887909 147.114027 
L 521.574987 147.340359 
L 530.262065 147.640381 
L 538.949144 147.764841 
L 547.636222 147.71315 
L 556.3233 147.759184 
L 565.010379 147.764532 
L 573.697457 147.645405 
L 582.384536 147.814519 
L 591.071614 147.974393 
L 599.758692 148.180876 
L 608.445771 148.248895 
L 617.132849 148.042635 
L 625.819927 147.968995 
L 634.507006 148.044534 
L 643.194084 148.717833 
z
" clip-path="url(#p60393f94cc)" style="fill: #a4b9ca; fill-opacity: 0.4; stroke: #a4b9ca; stroke-opacity: 0.4"/>
   </g>
   <g id="PolyCollection_2">
    <path d="M 643.194084 148.717833 
L 643.194084 148.717833 
L 634.507006 149.848864 
L 625.819927 150.529551 
L 617.132849 150.737152 
L 608.445771 151.276403 
L 599.758692 151.915831 
L 591.071614 152.530813 
L 582.384536 153.3531 
L 573.697457 154.292707 
L 565.010379 155.129306 
L 556.3233 155.997957 
L 547.636222 156.785916 
L 538.949144 157.735346 
L 530.262065 158.422073 
L 521.574987 158.963397 
L 512.887909 159.944646 
L 504.20083 160.211877 
L 495.513752 160.379617 
L 486.826674 160.743215 
L 478.139595 161.036248 
L 469.452517 161.356118 
L 460.765439 161.014423 
L 452.07836 160.562835 
L 443.391282 160.217395 
L 434.704203 159.532511 
L 426.017125 159.022271 
L 417.330047 158.312196 
L 408.642968 157.46391 
L 399.95589 156.777232 
L 391.268812 156.313531 
L 382.581733 156.733576 
L 373.894655 156.609891 
L 365.207577 157.067856 
L 356.520498 156.981896 
L 347.83342 156.459496 
L 339.146341 156.337539 
L 330.459263 156.075222 
L 321.772185 155.574417 
L 313.085106 154.499923 
L 304.398028 152.762314 
L 295.71095 152.064149 
L 287.023871 151.766526 
L 278.336793 151.366404 
L 269.649715 150.257777 
L 260.962636 149.517097 
L 252.275558 148.023088 
L 243.58848 147.229709 
L 234.901401 145.959835 
L 226.214323 144.112644 
L 217.527244 143.307072 
L 208.840166 143.198118 
L 200.153088 142.244785 
L 191.466009 140.978095 
L 182.778931 139.52544 
L 174.091853 137.88016 
L 165.404774 136.294637 
L 156.717696 133.260626 
L 148.030618 128.885948 
L 139.343539 123.207364 
L 130.656461 116.239815 
L 121.969382 114.368636 
L 113.282304 108.672877 
L 104.595226 105.903653 
L 95.908147 104.561733 
L 87.221069 104.121744 
L 78.533991 103.241076 
L 69.846912 100.819147 
L 61.159834 97.869553 
L 52.472756 94.206839 
L 43.785677 93.423094 
L 35.098599 90.96556 
L 26.41152 89.398577 
L 17.724442 87.947496 
L 9.037364 89.466534 
L 0.350285 91.266174 
L -8.336793 92.441089 
L -17.023871 93.580103 
L -25.71095 94.926581 
L -34.398028 96.171665 
L -43.085106 97.451993 
L -51.772185 98.693266 
L -60.459263 99.530442 
L -69.146341 100.502778 
L -77.83342 101.450361 
L -86.520498 102.358955 
L -95.207577 103.153034 
L -103.894655 103.816159 
L -112.581733 104.367389 
L -121.268812 104.915948 
L -129.95589 105.547041 
L -138.642968 106.221434 
L -147.330047 106.497963 
L -156.017125 106.795451 
L -164.704203 107.132939 
L -173.391282 107.440604 
L -182.07836 107.741956 
L -190.765439 107.931171 
L -199.452517 108.123266 
L -208.139595 107.813214 
L -216.826674 107.907838 
L -225.513752 108.012525 
L -234.20083 108.066705 
L -242.887909 108.074587 
L -251.574987 108.094792 
L -260.262065 108.164303 
L -268.949144 108.172532 
L -277.636222 108.003915 
L -286.3233 107.792033 
L -295.010379 107.598299 
L -303.697457 107.380921 
L -312.384536 107.199673 
L -321.071614 106.820936 
L -329.758692 106.4142 
L -338.445771 106.052189 
L -347.132849 105.698638 
L -355.819927 105.350456 
L -364.507006 105.492833 
L -373.194084 105.627841 
L -381.881162 105.454885 
L -390.568241 105.3139 
L -399.255319 105.770884 
L -407.942398 105.528184 
L -416.629476 105.3503 
L -425.316554 105.164566 
L -434.003633 104.962332 
L -442.690711 104.766635 
L -451.377789 104.448236 
L -460.064868 104.088361 
L -468.751946 103.72222 
L -477.439024 103.28907 
L -486.126103 102.911989 
L -494.813181 102.552562 
L -503.500259 102.186627 
L -512.187338 101.772429 
L -520.874416 101.37245 
L -529.561495 100.966747 
L -538.248573 100.705721 
L -546.935651 100.411126 
L -555.62273 100.19705 
L -564.309808 100.176194 
L -572.996886 99.8637 
L -581.683965 99.568217 
L -590.371043 99.306416 
L -599.058121 99.021925 
L -607.7452 99.087616 
L -616.432278 98.77851 
L -625.119357 98.94669 
L -633.806435 99.138781 
L -642.493513 99.367791 
L -651.180592 99.542049 
L -659.86767 99.672913 
L -746.738454 99.614864 
L -833.609237 98.702246 
L -920.480021 100.297191 
L -1007.350804 100.063344 
L -1094.221588 106.623774 
L -1181.092372 105.306201 
L -1267.963155 102.318216 
L -1354.833939 101.747748 
L -1441.704722 105.230564 
L -1528.575506 104.788721 
L -1615.44629 102.106964 
L -1702.317073 102.156729 
L -1789.187857 106.354902 
L -1876.05864 109.75016 
L -1962.929424 112.234167 
L -2049.800208 112.32984 
L -2136.670991 112.559325 
L -2223.541775 116.583405 
L -2310.412558 122.673046 
L -2397.283342 125.724777 
L -2484.154126 130.245417 
L -2571.024909 131.362028 
L -2657.895693 133.83662 
L -2744.766476 132.855344 
L -2831.63726 131.026584 
L -2831.63726 63.693118 
L -2831.63726 63.693118 
L -2744.766476 65.58225 
L -2657.895693 67.86298 
L -2571.024909 68.752687 
L -2484.154126 68.872753 
L -2397.283342 63.569378 
L -2310.412558 59.581606 
L -2223.541775 52.103108 
L -2136.670991 49.107345 
L -2049.800208 45.267964 
L -1962.929424 45.129176 
L -1876.05864 48.943084 
L -1789.187857 51.344793 
L -1702.317073 49.525254 
L -1615.44629 49.026596 
L -1528.575506 48.999659 
L -1441.704722 46.800662 
L -1354.833939 44.576293 
L -1267.963155 44.872366 
L -1181.092372 43.982825 
L -1094.221588 43.164503 
L -1007.350804 41.364381 
L -920.480021 41.764411 
L -833.609237 41.924041 
L -746.738454 41.639569 
L -659.86767 40.597071 
L -651.180592 40.524365 
L -642.493513 40.45166 
L -633.806435 40.541363 
L -625.119357 40.79343 
L -616.432278 41.045482 
L -607.7452 41.180612 
L -599.058121 41.315683 
L -590.371043 41.485256 
L -581.683965 41.689239 
L -572.996886 41.89326 
L -564.309808 41.901259 
L -555.62273 41.909298 
L -546.935651 42.036544 
L -538.248573 42.283033 
L -529.561495 42.529519 
L -520.874416 42.790644 
L -512.187338 43.051765 
L -503.500259 43.314317 
L -494.813181 43.578228 
L -486.126103 43.84217 
L -477.439024 44.046779 
L -468.751946 44.251391 
L -460.064868 44.303866 
L -451.377789 44.204208 
L -442.690711 44.104548 
L -434.003633 44.216493 
L -425.316554 44.328438 
L -416.629476 44.390524 
L -407.942398 44.402804 
L -399.255319 44.415106 
L -390.568241 44.195683 
L -381.881162 43.97624 
L -373.194084 43.830693 
L -364.507006 43.759002 
L -355.819927 43.687316 
L -347.132849 43.924065 
L -338.445771 44.16084 
L -329.758692 44.403057 
L -321.071614 44.650775 
L -312.384536 44.898477 
L -303.697457 45.031158 
L -295.010379 45.163853 
L -286.3233 45.244014 
L -277.636222 45.27165 
L -268.949144 45.29929 
L -260.262065 45.201975 
L -251.574987 45.104678 
L -242.887909 45.004001 
L -234.20083 44.900009 
L -225.513752 44.795984 
L -216.826674 45.011587 
L -208.139595 45.227188 
L -199.452517 45.388927 
L -190.765439 45.496816 
L -182.07836 45.604692 
L -173.391282 45.354207 
L -164.704203 45.103735 
L -156.017125 44.811021 
L -147.330047 44.476065 
L -138.642968 44.141107 
L -129.95589 43.62274 
L -121.268812 43.104354 
L -112.581733 42.396748 
L -103.894655 41.499873 
L -95.207577 40.603032 
L -86.520498 40.065821 
L -77.83342 39.528591 
L -69.146341 39.015618 
L -60.459263 38.526853 
L -51.772185 38.038088 
L -43.085106 37.703887 
L -34.398028 37.369704 
L -25.71095 37.216139 
L -17.023871 37.243285 
L -8.336793 37.270396 
L 0.350285 36.148186 
L 9.037364 34.927492 
L 17.724442 34.258137 
L 26.41152 34.140018 
L 35.098599 34.021886 
L 43.785677 33.750954 
L 52.472756 33.48 
L 61.159834 33.644289 
L 69.846912 34.243727 
L 78.533991 34.843207 
L 87.221069 35.574878 
L 95.908147 36.306559 
L 104.595226 37.071009 
L 113.282304 34.241991 
L 121.969382 35.200977 
L 130.656461 36.207329 
L 139.343539 37.323885 
L 148.030618 38.061437 
L 156.717696 38.669048 
L 165.404774 39.242267 
L 174.091853 39.559617 
L 182.778931 39.718299 
L 191.466009 40.573601 
L 200.153088 42.201295 
L 208.840166 43.853324 
L 217.527244 47.253412 
L 226.214323 50.651509 
L 234.901401 53.003903 
L 243.58848 55.117266 
L 252.275558 56.772296 
L 260.962636 60.588442 
L 269.649715 62.725973 
L 278.336793 63.996631 
L 287.023871 64.872919 
L 295.71095 65.819319 
L 304.398028 68.047511 
L 313.085106 70.216626 
L 321.772185 72.003439 
L 330.459263 74.158829 
L 339.146341 76.340104 
L 347.83342 85.078456 
L 356.520498 93.804786 
L 365.207577 103.627095 
L 373.894655 107.934461 
L 382.581733 110.762025 
L 391.268812 113.434335 
L 399.95589 115.555235 
L 408.642968 116.369622 
L 417.330047 119.565872 
L 426.017125 122.075441 
L 434.704203 122.699503 
L 443.391282 123.507122 
L 452.07836 127.244168 
L 460.765439 131.175994 
L 469.452517 131.864705 
L 478.139595 133.756031 
L 486.826674 135.730479 
L 495.513752 137.593597 
L 504.20083 139.495152 
L 512.887909 141.121189 
L 521.574987 142.066068 
L 530.262065 143.036275 
L 538.949144 143.579871 
L 547.636222 144.259634 
L 556.3233 145.050184 
L 565.010379 145.264497 
L 573.697457 145.575413 
L 582.384536 145.842508 
L 591.071614 146.108874 
L 599.758692 146.51937 
L 608.445771 146.791678 
L 617.132849 146.837769 
L 625.819927 147.008732 
L 634.507006 147.531443 
L 643.194084 148.717833 
z
" clip-path="url(#p60393f94cc)" style="fill: #d5dadd; fill-opacity: 0.4; stroke: #d5dadd; stroke-opacity: 0.4"/>
   </g>
   <g id="PolyCollection_3">
    <defs>
     <path id="m15b0eb7f20" d="M 641.022314 -67.88018 
L 641.022314 -67.514932 
L 641.06575 -67.512216 
L 641.109185 -67.508143 
L 641.152621 -67.501897 
L 641.196056 -67.500267 
L 641.239491 -67.498095 
L 641.282927 -67.491577 
L 641.326362 -67.488047 
L 641.369798 -67.480987 
L 641.413233 -67.480987 
L 641.456668 -67.483974 
L 641.500104 -67.4799 
L 641.543539 -67.473654 
L 641.586975 -67.468223 
L 641.63041 -67.463607 
L 641.673845 -67.456003 
L 641.717281 -67.449485 
L 641.760716 -67.439981 
L 641.804152 -67.435907 
L 641.847587 -67.431291 
L 641.891022 -67.428032 
L 641.934458 -67.424774 
L 641.977893 -67.422329 
L 642.021328 -67.415269 
L 642.064764 -67.408208 
L 642.108199 -67.402506 
L 642.151635 -67.392458 
L 642.19507 -67.382953 
L 642.238505 -67.372362 
L 642.281941 -67.362043 
L 642.325376 -67.354168 
L 642.368812 -67.337874 
L 642.412247 -67.329456 
L 642.455682 -67.319408 
L 642.499118 -67.311533 
L 642.542553 -67.30067 
L 642.585989 -67.288179 
L 642.629424 -67.280032 
L 642.672859 -67.273514 
L 642.716295 -67.26754 
L 642.75973 -67.260479 
L 642.803166 -67.252604 
L 642.846601 -67.245272 
L 642.890036 -67.235767 
L 642.933472 -67.227621 
L 642.976907 -67.223547 
L 643.020343 -67.217301 
L 643.063778 -67.209426 
L 643.107213 -67.200193 
L 643.150649 -67.191232 
L 643.194084 -67.181184 
L 645.365854 -67.173852 
L 647.537623 -67.165433 
L 649.709393 -67.158373 
L 651.881162 -67.152398 
L 654.052932 -67.150226 
L 656.224702 -67.142622 
L 658.396471 -67.136105 
L 660.568241 -67.129587 
L 662.74001 -67.127958 
L 664.91178 -67.121441 
L 667.08355 -67.116281 
L 669.255319 -67.107319 
L 671.427089 -67.106776 
L 673.598858 -67.110035 
L 675.770628 -67.108134 
L 677.942398 -67.103518 
L 680.114167 -67.101617 
L 682.285937 -67.097 
L 684.457706 -67.092927 
L 686.629476 -67.092384 
L 688.801245 -67.08831 
L 690.973015 -67.090483 
L 693.144785 -67.091297 
L 695.316554 -67.088853 
L 697.488324 -67.088582 
L 699.660093 -67.089668 
L 701.831863 -67.088039 
L 704.003633 -67.085323 
L 706.175402 -67.08125 
L 708.347172 -67.078806 
L 710.518941 -67.075004 
L 712.690711 -67.07093 
L 714.862481 -67.07256 
L 717.03425 -67.072017 
L 719.20602 -67.067943 
L 721.377789 -67.065499 
L 723.549559 -67.064956 
L 725.721328 -67.062512 
L 727.893098 -67.058439 
L 730.064868 -67.055451 
L 732.236637 -67.052464 
L 734.408407 -67.054365 
L 736.580176 -67.048662 
L 738.751946 -67.043774 
L 740.923716 -67.038343 
L 743.095485 -67.039972 
L 745.267255 -67.036714 
L 747.439024 -67.031554 
L 749.610794 -67.028295 
L 751.782564 -67.026123 
L 753.954333 -67.023136 
L 756.126103 -67.020149 
L 758.297872 -67.015804 
L 760.469642 -67.006842 
L 762.641412 -67.001954 
L 764.813181 -66.99598 
L 766.984951 -66.98566 
L 769.15672 -66.975341 
L 771.32849 -66.969095 
L 773.500259 -66.954159 
L 775.672029 -66.942211 
L 777.843799 -66.93162 
L 780.015568 -66.916684 
L 782.187338 -66.905822 
L 784.359107 -66.891972 
L 786.530877 -66.884368 
L 788.702647 -66.873778 
L 790.874416 -66.86373 
L 790.874416 -66.881653 
L 790.874416 -66.881653 
L 788.702647 -66.888985 
L 786.530877 -66.896317 
L 784.359107 -66.902291 
L 782.187338 -66.913425 
L 780.015568 -66.922658 
L 777.843799 -66.935965 
L 775.672029 -66.944655 
L 773.500259 -66.956875 
L 771.32849 -66.97344 
L 769.15672 -66.981315 
L 766.984951 -66.994079 
L 764.813181 -67.006027 
L 762.641412 -67.014446 
L 760.469642 -67.020963 
L 758.297872 -67.03264 
L 756.126103 -67.048662 
L 753.954333 -67.059525 
L 751.782564 -67.067672 
L 749.610794 -67.075004 
L 747.439024 -67.084237 
L 745.267255 -67.093741 
L 743.095485 -67.10216 
L 740.923716 -67.104332 
L 738.751946 -67.114923 
L 736.580176 -67.123885 
L 734.408407 -67.129316 
L 732.236637 -67.129859 
L 730.064868 -67.135562 
L 727.893098 -67.142622 
L 725.721328 -67.148868 
L 723.549559 -67.153756 
L 721.377789 -67.156743 
L 719.20602 -67.160545 
L 717.03425 -67.166248 
L 714.862481 -67.170321 
L 712.690711 -67.170321 
L 710.518941 -67.176024 
L 708.347172 -67.180912 
L 706.175402 -67.185257 
L 704.003633 -67.192318 
L 701.831863 -67.197749 
L 699.660093 -67.202637 
L 697.488324 -67.20318 
L 695.316554 -67.206167 
L 693.144785 -67.211056 
L 690.973015 -67.213771 
L 688.801245 -67.214586 
L 686.629476 -67.221375 
L 684.457706 -67.225448 
L 682.285937 -67.231423 
L 680.114167 -67.237125 
L 677.942398 -67.241199 
L 675.770628 -67.248802 
L 673.598858 -67.252061 
L 671.427089 -67.25179 
L 669.255319 -67.257221 
L 667.08355 -67.26754 
L 664.91178 -67.276773 
L 662.74001 -67.285735 
L 660.568241 -67.291437 
L 658.396471 -67.300942 
L 656.224702 -67.312348 
L 654.052932 -67.320494 
L 651.881162 -67.325382 
L 649.709393 -67.332986 
L 647.537623 -67.342491 
L 645.365854 -67.351724 
L 643.194084 -67.360957 
L 643.150649 -67.372091 
L 643.107213 -67.383496 
L 643.063778 -67.395717 
L 643.020343 -67.40495 
L 642.976907 -67.413096 
L 642.933472 -67.420157 
L 642.890036 -67.431834 
L 642.846601 -67.44324 
L 642.803166 -67.452744 
L 642.75973 -67.463878 
L 642.716295 -67.472568 
L 642.672859 -67.480715 
L 642.629424 -67.488862 
L 642.585989 -67.500267 
L 642.542553 -67.514932 
L 642.499118 -67.527423 
L 642.455682 -67.538286 
L 642.412247 -67.551049 
L 642.368812 -67.563541 
L 642.325376 -67.58255 
L 642.281941 -67.592598 
L 642.238505 -67.606447 
L 642.19507 -67.62084 
L 642.151635 -67.63306 
L 642.108199 -67.646638 
L 642.064764 -67.654785 
L 642.021328 -67.665648 
L 641.977893 -67.675424 
L 641.934458 -67.68004 
L 641.891022 -67.684657 
L 641.847587 -67.690088 
L 641.804152 -67.69742 
L 641.760716 -67.706653 
L 641.717281 -67.719688 
L 641.673845 -67.728378 
L 641.63041 -67.740055 
L 641.586975 -67.749017 
L 641.543539 -67.756892 
L 641.500104 -67.76531 
L 641.456668 -67.772642 
L 641.413233 -67.789208 
L 641.369798 -67.804686 
L 641.326362 -67.814734 
L 641.282927 -67.82098 
L 641.239491 -67.830756 
L 641.196056 -67.843248 
L 641.152621 -67.860628 
L 641.109185 -67.867145 
L 641.06575 -67.875292 
L 641.022314 -67.88018 
z
" style="stroke: #d3d3ff; stroke-opacity: 0.5"/>
    </defs>
    <g clip-path="url(#p60393f94cc)">
     <use xlink:href="#m15b0eb7f20" x="0" y="216" style="fill: #d3d3ff; fill-opacity: 0.5; stroke: #d3d3ff; stroke-opacity: 0.5"/>
    </g>
   </g>
   <g id="matplotlib.axis_1">
    <g id="xtick_1">
     <g id="line2d_1">
      <defs>
       <path id="m14f4fd728c" d="M 0 0 
L 0 3.5 
" style="stroke: #000000; stroke-width: 0.8"/>
      </defs>
      <g>
       <use xlink:href="#m14f4fd728c" x="208.840166" y="192.24" style="stroke: #000000; stroke-width: 0.8"/>
      </g>
     </g>
     <g id="text_1">
      <text style="font: 10px 'DejaVu Sans', 'Bitstream Vera Sans', 'Computer Modern Sans Serif', 'Lucida Grande', 'Verdana', 'Geneva', 'Lucid', 'Arial', 'Helvetica', 'Avant Garde', sans-serif; text-anchor: middle" x="208.840166" y="206.838437" transform="rotate(-0 208.840166 206.838437)">10</text>
     </g>
    </g>
    <g id="xtick_2">
     <g id="line2d_2">
      <g>
       <use xlink:href="#m14f4fd728c" x="295.71095" y="192.24" style="stroke: #000000; stroke-width: 0.8"/>
      </g>
     </g>
     <g id="text_2">
      <text style="font: 10px 'DejaVu Sans', 'Bitstream Vera Sans', 'Computer Modern Sans Serif', 'Lucida Grande', 'Verdana', 'Geneva', 'Lucid', 'Arial', 'Helvetica', 'Avant Garde', sans-serif; text-anchor: middle" x="295.71095" y="206.838437" transform="rotate(-0 295.71095 206.838437)">8</text>
     </g>
    </g>
    <g id="xtick_3">
     <g id="line2d_3">
      <g>
       <use xlink:href="#m14f4fd728c" x="382.581733" y="192.24" style="stroke: #000000; stroke-width: 0.8"/>
      </g>
     </g>
     <g id="text_3">
      <text style="font: 10px 'DejaVu Sans', 'Bitstream Vera Sans', 'Computer Modern Sans Serif', 'Lucida Grande', 'Verdana', 'Geneva', 'Lucid', 'Arial', 'Helvetica', 'Avant Garde', sans-serif; text-anchor: middle" x="382.581733" y="206.838437" transform="rotate(-0 382.581733 206.838437)">6</text>
     </g>
    </g>
    <g id="xtick_4">
     <g id="line2d_4">
      <g>
       <use xlink:href="#m14f4fd728c" x="469.452517" y="192.24" style="stroke: #000000; stroke-width: 0.8"/>
      </g>
     </g>
     <g id="text_4">
      <text style="font: 10px 'DejaVu Sans', 'Bitstream Vera Sans', 'Computer Modern Sans Serif', 'Lucida Grande', 'Verdana', 'Geneva', 'Lucid', 'Arial', 'Helvetica', 'Avant Garde', sans-serif; text-anchor: middle" x="469.452517" y="206.838437" transform="rotate(-0 469.452517 206.838437)">4</text>
     </g>
    </g>
    <g id="xtick_5">
     <g id="line2d_5">
      <g>
       <use xlink:href="#m14f4fd728c" x="556.3233" y="192.24" style="stroke: #000000; stroke-width: 0.8"/>
      </g>
     </g>
     <g id="text_5">
      <text style="font: 10px 'DejaVu Sans', 'Bitstream Vera Sans', 'Computer Modern Sans Serif', 'Lucida Grande', 'Verdana', 'Geneva', 'Lucid', 'Arial', 'Helvetica', 'Avant Garde', sans-serif; text-anchor: middle" x="556.3233" y="206.838437" transform="rotate(-0 556.3233 206.838437)">2</text>
     </g>
    </g>
    <g id="xtick_6">
     <g id="line2d_6">
      <g>
       <use xlink:href="#m14f4fd728c" x="643.194084" y="192.24" style="stroke: #000000; stroke-width: 0.8"/>
      </g>
     </g>
     <g id="text_6">
      <text style="font: 10px 'DejaVu Sans', 'Bitstream Vera Sans', 'Computer Modern Sans Serif', 'Lucida Grande', 'Verdana', 'Geneva', 'Lucid', 'Arial', 'Helvetica', 'Avant Garde', sans-serif; text-anchor: middle" x="643.194084" y="206.838437" transform="rotate(-0 643.194084 206.838437)">1950</text>
     </g>
    </g>
    <g id="xtick_7">
     <g id="line2d_7">
      <g>
       <use xlink:href="#m14f4fd728c" x="708.347172" y="192.24" style="stroke: #000000; stroke-width: 0.8"/>
      </g>
     </g>
     <g id="text_7">
      <text style="font: 10px 'DejaVu Sans', 'Bitstream Vera Sans', 'Computer Modern Sans Serif', 'Lucida Grande', 'Verdana', 'Geneva', 'Lucid', 'Arial', 'Helvetica', 'Avant Garde', sans-serif; text-anchor: middle" x="708.347172" y="206.838437" transform="rotate(-0 708.347172 206.838437)">1980</text>
     </g>
    </g>
    <g id="xtick_8">
     <g id="line2d_8">
      <g>
       <use xlink:href="#m14f4fd728c" x="751.782564" y="192.24" style="stroke: #000000; stroke-width: 0.8"/>
      </g>
     </g>
     <g id="text_8">
      <text style="font: 10px 'DejaVu Sans', 'Bitstream Vera Sans', 'Computer Modern Sans Serif', 'Lucida Grande', 'Verdana', 'Geneva', 'Lucid', 'Arial', 'Helvetica', 'Avant Garde', sans-serif; text-anchor: middle" x="751.782564" y="206.838437" transform="rotate(-0 751.782564 206.838437)">2000</text>
     </g>
    </g>
    <g id="xtick_9">
     <g id="line2d_9">
      <g>
       <use xlink:href="#m14f4fd728c" x="795.217955" y="192.24" style="stroke: #000000; stroke-width: 0.8"/>
      </g>
     </g>
     <g id="text_9">
      <text style="font: 10px 'DejaVu Sans', 'Bitstream Vera Sans', 'Computer Modern Sans Serif', 'Lucida Grande', 'Verdana', 'Geneva', 'Lucid', 'Arial', 'Helvetica', 'Avant Garde', sans-serif; text-anchor: middle" x="795.217955" y="206.838437" transform="rotate(-0 795.217955 206.838437)">2020</text>
     </g>
    </g>
   </g>
   <g id="matplotlib.axis_2">
    <g id="ytick_1">
     <g id="line2d_10">
      <defs>
       <path id="me714db4d1d" d="M 0 0 
L -3.5 0 
" style="stroke: #000000; stroke-width: 0.8"/>
      </defs>
      <g>
       <use xlink:href="#me714db4d1d" x="135" y="188.568513" style="stroke: #000000; stroke-width: 0.8"/>
      </g>
     </g>
     <g id="text_10">
      <text style="font: 10px 'DejaVu Sans', 'Bitstream Vera Sans', 'Computer Modern Sans Serif', 'Lucida Grande', 'Verdana', 'Geneva', 'Lucid', 'Arial', 'Helvetica', 'Avant Garde', sans-serif; text-anchor: end" x="128" y="192.367731" transform="rotate(-0 128 192.367731)">25.0</text>
     </g>
    </g>
    <g id="ytick_2">
     <g id="line2d_11">
      <g>
       <use xlink:href="#me714db4d1d" x="135" y="151.11191" style="stroke: #000000; stroke-width: 0.8"/>
      </g>
     </g>
     <g id="text_11">
      <text style="font: 10px 'DejaVu Sans', 'Bitstream Vera Sans', 'Computer Modern Sans Serif', 'Lucida Grande', 'Verdana', 'Geneva', 'Lucid', 'Arial', 'Helvetica', 'Avant Garde', sans-serif; text-anchor: end" x="128" y="154.911129" transform="rotate(-0 128 154.911129)">27.5</text>
     </g>
    </g>
    <g id="ytick_3">
     <g id="line2d_12">
      <g>
       <use xlink:href="#me714db4d1d" x="135" y="113.655308" style="stroke: #000000; stroke-width: 0.8"/>
      </g>
     </g>
     <g id="text_12">
      <text style="font: 10px 'DejaVu Sans', 'Bitstream Vera Sans', 'Computer Modern Sans Serif', 'Lucida Grande', 'Verdana', 'Geneva', 'Lucid', 'Arial', 'Helvetica', 'Avant Garde', sans-serif; text-anchor: end" x="128" y="117.454527" transform="rotate(-0 128 117.454527)">30.0</text>
     </g>
    </g>
    <g id="ytick_4">
     <g id="line2d_13">
      <g>
       <use xlink:href="#me714db4d1d" x="135" y="76.198706" style="stroke: #000000; stroke-width: 0.8"/>
      </g>
     </g>
     <g id="text_13">
      <text style="font: 10px 'DejaVu Sans', 'Bitstream Vera Sans', 'Computer Modern Sans Serif', 'Lucida Grande', 'Verdana', 'Geneva', 'Lucid', 'Arial', 'Helvetica', 'Avant Garde', sans-serif; text-anchor: end" x="128" y="79.997924" transform="rotate(-0 128 79.997924)">32.5</text>
     </g>
    </g>
    <g id="ytick_5">
     <g id="line2d_14">
      <g>
       <use xlink:href="#me714db4d1d" x="135" y="38.742103" style="stroke: #000000; stroke-width: 0.8"/>
      </g>
     </g>
     <g id="text_14">
      <text style="font: 10px 'DejaVu Sans', 'Bitstream Vera Sans', 'Computer Modern Sans Serif', 'Lucida Grande', 'Verdana', 'Geneva', 'Lucid', 'Arial', 'Helvetica', 'Avant Garde', sans-serif; text-anchor: end" x="128" y="42.541322" transform="rotate(-0 128 42.541322)">35.0</text>
     </g>
    </g>
    <g id="text_15">
     <text style="font: 10px 'Times New Roman'; text-anchor: middle" x="99.595313" y="109.08" transform="rotate(-90 99.595313 109.08)">Ice volume (10^6 Gt)</text>
    </g>
   </g>
   <g id="line2d_15">
    <path d="M 643.194084 148.717833 
L 625.819927 149.301981 
L 617.132849 149.564026 
L 599.758692 149.931001 
L 582.384536 150.286206 
L 565.010379 151.062511 
L 547.636222 151.197445 
L 521.574987 151.028589 
L 512.887909 151.460019 
L 504.20083 151.335133 
L 478.139595 151.291663 
L 469.452517 151.284548 
L 460.765439 150.761774 
L 443.391282 150.225369 
L 434.704203 150.097541 
L 426.017125 149.694622 
L 417.330047 148.97546 
L 408.642968 148.609555 
L 399.95589 148.003976 
L 382.581733 146.160783 
L 373.894655 145.670664 
L 365.207577 145.479916 
L 356.520498 142.900581 
L 339.146341 140.715907 
L 330.459263 138.787017 
L 321.772185 137.61742 
L 313.085106 136.293322 
L 295.71095 132.584648 
L 287.023871 124.973964 
L 269.649715 117.656696 
L 260.962636 112.965894 
L 252.275558 110.669805 
L 243.58848 106.037547 
L 234.901401 103.971265 
L 226.214323 102.207671 
L 208.840166 94.325698 
L 200.153088 88.888032 
L 191.466009 81.155953 
L 182.778931 74.465532 
L 174.091853 72.94926 
L 165.404774 71.905435 
L 156.717696 71.721268 
L 148.030618 71.886461 
L 139.343539 73.09163 
L 130.656461 72.216104 
L 121.969382 70.390778 
L 113.282304 68.363126 
L 104.595226 70.172155 
L 95.908147 68.841215 
L 87.221069 67.362083 
L 78.533991 66.179677 
L 69.846912 62.666828 
L 61.159834 58.926674 
L 52.472756 56.893819 
L 43.785677 56.372718 
L 35.098599 56.844804 
L 17.724442 58.519966 
L 9.037364 59.558088 
L -1 60.98875 
L -1 60.98875 
" clip-path="url(#p60393f94cc)" style="fill: none; stroke: #0b0b0b; stroke-width: 1.5; stroke-linecap: square"/>
   </g>
   <g id="line2d_16">
    <path d="M 641.022314 148.30088 
L 641.06575 148.305168 
L 641.109185 148.311862 
L 641.152621 148.317475 
L 641.196056 148.326831 
L 641.239491 148.333671 
L 641.282927 148.340815 
L 641.326362 148.346636 
L 641.369798 148.355076 
L 641.413233 148.362541 
L 641.456668 148.369056 
L 641.500104 148.374572 
L 641.543539 148.381796 
L 641.586975 148.387649 
L 641.63041 148.394952 
L 641.673845 148.405415 
L 641.717281 148.412097 
L 641.760716 148.422609 
L 641.804152 148.429196 
L 641.847587 148.435104 
L 641.891022 148.439207 
L 641.934458 148.443699 
L 641.977893 148.446969 
L 642.021328 148.455486 
L 642.064764 148.464081 
L 642.108199 148.470486 
L 642.151635 148.482099 
L 642.19507 148.492634 
L 642.238505 148.504583 
L 642.281941 148.515757 
L 642.325376 148.524607 
L 642.368812 148.542063 
L 642.412247 148.552727 
L 642.455682 148.56391 
L 642.499118 148.573406 
L 642.542553 148.584535 
L 642.585989 148.597435 
L 642.629424 148.606396 
L 642.672859 148.614246 
L 642.716295 148.621367 
L 642.75973 148.629105 
L 642.803166 148.638408 
L 642.846601 148.646424 
L 642.890036 148.656424 
L 642.933472 148.66574 
L 642.976907 148.671696 
L 643.020343 148.67812 
L 643.063778 148.68689 
L 643.107213 148.697347 
L 643.150649 148.707062 
L 643.194084 148.717833 
L 645.365854 148.726105 
L 647.537623 148.733964 
L 649.709393 148.742193 
L 651.881162 148.748502 
L 654.052932 148.752568 
L 656.224702 148.759832 
L 658.396471 148.7694 
L 660.568241 148.777434 
L 662.74001 148.781715 
L 664.91178 148.789793 
L 667.08355 148.797852 
L 669.255319 148.807338 
L 671.427089 148.810888 
L 673.598858 148.811347 
L 675.770628 148.814698 
L 677.942398 148.820917 
L 680.114167 148.825014 
L 682.285937 148.829502 
L 684.457706 148.834572 
L 686.629476 148.837285 
L 688.801245 148.842763 
L 690.973015 148.841643 
L 693.144785 148.843157 
L 695.316554 148.846979 
L 697.488324 148.84929 
L 699.660093 148.849316 
L 701.831863 148.852666 
L 704.003633 148.856667 
L 706.175402 148.86094 
L 708.347172 148.865204 
L 710.518941 148.870816 
L 712.690711 148.875269 
L 714.862481 148.875639 
L 717.03425 148.878422 
L 719.20602 148.882792 
L 721.377789 148.885936 
L 723.549559 148.88796 
L 725.721328 148.892251 
L 727.893098 148.897389 
L 730.064868 148.903524 
L 732.236637 148.908467 
L 734.408407 148.907228 
L 736.580176 148.911957 
L 738.751946 148.91888 
L 740.923716 148.927597 
L 743.095485 148.927646 
L 745.267255 148.932395 
L 747.439024 148.940351 
L 749.610794 148.946678 
L 751.782564 148.952162 
L 753.954333 148.957791 
L 756.126103 148.965245 
L 758.297872 148.975619 
L 760.469642 148.986128 
L 762.641412 148.992006 
L 764.813181 148.999126 
L 766.984951 149.010225 
L 769.15672 149.02179 
L 771.32849 149.028717 
L 773.500259 149.044306 
L 775.672029 149.056623 
L 777.843799 149.066142 
L 780.015568 149.080281 
L 782.187338 149.090254 
L 784.359107 149.102728 
L 786.530877 149.109612 
L 788.702647 149.118732 
L 790.874416 149.127317 
" clip-path="url(#p60393f94cc)" style="fill: none; stroke: #2626ff; stroke-width: 1.5; stroke-linecap: square"/>
   </g>
   <g id="line2d_17">
    <path d="M 645.365854 151.326773 
L 790.874416 151.326773 
L -1 151.326773 
L -1 151.326773 
" clip-path="url(#p60393f94cc)" style="fill: none; stroke: #ff0001; stroke-width: 1.5; stroke-linecap: square"/>
   </g>
   <g id="LineCollection_1">
    <path d="M 790.874416 184.68 
L 790.874416 150.751248 
" clip-path="url(#p60393f94cc)" style="fill: none; stroke: #d57eeb; stroke-width: 2"/>
   </g>
   <g id="line2d_18">
    <defs>
     <path id="m1173c51f94" d="M 5 0 
L -5 -0 
" style="stroke: #d57eeb"/>
    </defs>
    <g clip-path="url(#p60393f94cc)">
     <use xlink:href="#m1173c51f94" x="790.874416" y="184.68" style="fill: #d57eeb; stroke: #d57eeb"/>
    </g>
   </g>
   <g id="line2d_19">
    <g clip-path="url(#p60393f94cc)">
     <use xlink:href="#m1173c51f94" x="790.874416" y="150.751248" style="fill: #d57eeb; stroke: #d57eeb"/>
    </g>
   </g>
   <g id="line2d_20">
    <path d="M 643.194084 192.24 
L 643.194084 25.92 
" clip-path="url(#p60393f94cc)" style="fill: none; stroke-dasharray: 3.7,1.6; stroke-dashoffset: 0; stroke: #808080; stroke-opacity: 0.5"/>
   </g>
   <g id="patch_3">
    <path d="M 135 192.24 
L 135 25.92 
" style="fill: none; stroke: #000000; stroke-width: 0.8; stroke-linejoin: miter; stroke-linecap: square"/>
   </g>
   <g id="patch_4">
    <path d="M 972 192.24 
L 972 25.92 
" style="fill: none"/>
   </g>
   <g id="patch_5">
    <path d="M 135 192.24 
L 972 192.24 
" style="fill: none; stroke: #000000; stroke-width: 0.8; stroke-linejoin: miter; stroke-linecap: square"/>
   </g>
   <g id="patch_6">
    <path d="M 135 25.92 
L 972 25.92 
" style="fill: none"/>
   </g>
   <g id="legend_1">
    <g id="line2d_21">
     <path d="M 730.498438 39.018438 
L 740.498438 39.018438 
L 750.498438 39.018438 
" style="fill: none; stroke: #0b0b0b; stroke-width: 1.5; stroke-linecap: square"/>
    </g>
    <g id="text_16">
     <text style="font: 10px 'DejaVu Sans', 'Bitstream Vera Sans', 'Computer Modern Sans Serif', 'Lucida Grande', 'Verdana', 'Geneva', 'Lucid', 'Arial', 'Helvetica', 'Avant Garde', sans-serif; text-anchor: start" x="758.498438" y="42.518438" transform="rotate(-0 758.498438 42.518438)">Creel et al. (2023)</text>
    </g>
    <g id="patch_7">
     <path d="M 730.498438 57.196563 
L 750.498438 57.196563 
L 750.498438 50.196563 
L 730.498438 50.196563 
z
" style="fill: #a4b9ca; fill-opacity: 0.4; stroke: #a4b9ca; stroke-opacity: 0.4; stroke-linejoin: miter"/>
    </g>
    <g id="text_17">
     <text style="font: 10px 'DejaVu Sans', 'Bitstream Vera Sans', 'Computer Modern Sans Serif', 'Lucida Grande', 'Verdana', 'Geneva', 'Lucid', 'Arial', 'Helvetica', 'Avant Garde', sans-serif; text-anchor: start" x="758.498438" y="57.196563" transform="rotate(-0 758.498438 57.196563)">66% credible interval</text>
    </g>
    <g id="patch_8">
     <path d="M 730.498438 71.874687 
L 750.498438 71.874687 
L 750.498438 64.874687 
L 730.498438 64.874687 
z
" style="fill: #d5dadd; fill-opacity: 0.4; stroke: #d5dadd; stroke-opacity: 0.4; stroke-linejoin: miter"/>
    </g>
    <g id="text_18">
     <text style="font: 10px 'DejaVu Sans', 'Bitstream Vera Sans', 'Computer Modern Sans Serif', 'Lucida Grande', 'Verdana', 'Geneva', 'Lucid', 'Arial', 'Helvetica', 'Avant Garde', sans-serif; text-anchor: start" x="758.498438" y="71.874687" transform="rotate(-0 758.498438 71.874687)">90% credible interval</text>
    </g>
    <g id="line2d_22">
     <path d="M 730.498438 83.052813 
L 740.498438 83.052813 
L 750.498438 83.052813 
" style="fill: none; stroke: #2626ff; stroke-width: 1.5; stroke-linecap: square"/>
    </g>
    <g id="text_19">
     <text style="font: 10px 'DejaVu Sans', 'Bitstream Vera Sans', 'Computer Modern Sans Serif', 'Lucida Grande', 'Verdana', 'Geneva', 'Lucid', 'Arial', 'Helvetica', 'Avant Garde', sans-serif; text-anchor: start" x="758.498438" y="86.552813" transform="rotate(-0 758.498438 86.552813)">Frederikse et al. (2020)</text>
    </g>
    <g id="patch_9">
     <path d="M 730.498438 101.230938 
L 750.498438 101.230938 
L 750.498438 94.230938 
L 730.498438 94.230938 
z
" style="fill: #d3d3ff; fill-opacity: 0.5; stroke: #d3d3ff; stroke-opacity: 0.5; stroke-linejoin: miter"/>
    </g>
    <g id="text_20">
     <text style="font: 10px 'DejaVu Sans', 'Bitstream Vera Sans', 'Computer Modern Sans Serif', 'Lucida Grande', 'Verdana', 'Geneva', 'Lucid', 'Arial', 'Helvetica', 'Avant Garde', sans-serif; text-anchor: start" x="758.498438" y="101.230938" transform="rotate(-0 758.498438 101.230938)">90% credible interval</text>
    </g>
    <g id="line2d_23">
     <path d="M 730.498438 112.409063 
L 740.498438 112.409063 
L 750.498438 112.409063 
" style="fill: none; stroke: #ff0001; stroke-width: 1.5; stroke-linecap: square"/>
    </g>
    <g id="text_21">
     <text style="font: 10px 'DejaVu Sans', 'Bitstream Vera Sans', 'Computer Modern Sans Serif', 'Lucida Grande', 'Verdana', 'Geneva', 'Lucid', 'Arial', 'Helvetica', 'Avant Garde', sans-serif; text-anchor: start" x="758.498438" y="115.909063" transform="rotate(-0 758.498438 115.909063)">Holocene Baseline</text>
    </g>
    <g id="LineCollection_2">
     <path d="M 740.498438 132.087187 
L 740.498438 122.087187 
" style="fill: none; stroke: #d57eeb; stroke-width: 2"/>
    </g>
    <g id="line2d_24">
     <g>
      <use xlink:href="#m1173c51f94" x="740.498438" y="132.087187" style="fill: #d57eeb; stroke: #d57eeb"/>
     </g>
    </g>
    <g id="line2d_25">
     <g>
      <use xlink:href="#m1173c51f94" x="740.498438" y="122.087187" style="fill: #d57eeb; stroke: #d57eeb"/>
     </g>
    </g>
    <g id="text_22">
     <text style="font: 10px 'DejaVu Sans', 'Bitstream Vera Sans', 'Computer Modern Sans Serif', 'Lucida Grande', 'Verdana', 'Geneva', 'Lucid', 'Arial', 'Helvetica', 'Avant Garde', sans-serif; text-anchor: start" x="758.498438" y="130.587187" transform="rotate(-0 758.498438 130.587187)">Committed change with credible interval</text>
    </g>
   </g>
  </g>
 </g>
 <defs>
  <clipPath id="p60393f94cc">
   <rect x="135" y="25.92" width="837" height="166.32"/>
  </clipPath>
 </defs>
</svg>
