<?xml version="1.0" encoding="utf-8" standalone="no"?>
<!DOCTYPE svg PUBLIC "-//W3C//DTD SVG 1.1//EN"
  "http://www.w3.org/Graphics/SVG/1.1/DTD/svg11.dtd">
<svg xmlns:xlink="http://www.w3.org/1999/xlink" width="1080pt" height="216pt" viewBox="0 0 1080 216" xmlns="http://www.w3.org/2000/svg" version="1.1">
 <metadata>
  <rdf:RDF xmlns:dc="http://purl.org/dc/elements/1.1/" xmlns:cc="http://creativecommons.org/ns#" xmlns:rdf="http://www.w3.org/1999/02/22-rdf-syntax-ns#">
   <cc:Work>
    <dc:type rdf:resource="http://purl.org/dc/dcmitype/StillImage"/>
    <dc:date>2026-01-03T22:38:56.329404</dc:date>
    <dc:format>image/svg+xml</dc:format>
    <dc:creator>
     <cc:Agent>
      <dc:title>Matplotlib v3.8.4, https://matplotlib.org/</dc:title>
     </cc:Agent>
    </dc:creator>
   </cc:Work>
  </rdf:RDF>
 </metadata>
 <defs>
  <style type="text/css">*{stroke-linejoin: round; stroke-linecap: butt}</style>
 </defs>
 <g id="figure_1">
  <g id="patch_1">
   <path d="M 0 216 
L 1080 216 
L 1080 0 
L 0 0 
z
" style="fill: #ffffff"/>
  </g>
  <g id="axes_1">
   <g id="patch_2">
    <path d="M 135 192.24 
L 972 192.24 
L 972 25.92 
L 135 25.92 
z
" style="fill: #ffffff"/>
   </g>
   <g id="PolyCollection_1">
    <path d="M 758.751592 140.451031 
L 758.751592 140.451031 
L 748.089172 156.52055 
L 737.426752 158.802696 
L 726.764331 153.660438 
L 716.101911 158.373916 
L 705.43949 157.007778 
L 694.77707 151.371767 
L 684.11465 153.512571 
L 673.452229 157.49571 
L 662.789809 156.918834 
L 652.127389 162.303496 
L 641.464968 159.361348 
L 630.802548 163.787838 
L 620.140127 164.218743 
L 609.477707 156.949866 
L 598.815287 157.677118 
L 588.152866 159.173413 
L 577.490446 157.783293 
L 566.828025 160.157846 
L 556.165605 160.07205 
L 545.503185 159.91631 
L 534.840764 162.925925 
L 524.178344 162.401058 
L 513.515924 165.760113 
L 502.853503 161.724356 
L 492.191083 163.421758 
L 481.528662 165.105687 
L 470.866242 161.69559 
L 460.203822 164.038471 
L 449.541401 164.918002 
L 438.878981 166.957014 
L 428.216561 163.337761 
L 417.55414 168.901182 
L 406.89172 164.686576 
L 396.229299 163.215349 
L 385.566879 163.208283 
L 374.904459 164.288942 
L 364.242038 165.841513 
L 353.579618 164.181367 
L 342.917197 161.556913 
L 332.254777 160.305574 
L 321.592357 159.574551 
L 310.929936 161.967223 
L 300.267516 152.240279 
L 289.605096 155.091184 
L 278.942675 156.458281 
L 268.280255 155.798774 
L 257.617834 148.65985 
L 246.955414 151.758933 
L 236.292994 149.038695 
L 225.630573 148.037029 
L 214.968153 151.43186 
L 204.305732 147.064993 
L 193.643312 141.195001 
L 182.980892 134.11375 
L 172.318471 131.413646 
L 161.656051 124.688071 
L 150.993631 119.832764 
L 140.33121 117.601457 
L 129.66879 101.38802 
L 119.006369 104.006025 
L 65.694268 67.096138 
L 65.694268 33.48 
L 65.694268 33.48 
L 119.006369 38.250923 
L 129.66879 39.403532 
L 140.33121 43.806557 
L 150.993631 50.08291 
L 161.656051 55.102228 
L 172.318471 59.101599 
L 182.980892 64.3168 
L 193.643312 64.858389 
L 204.305732 65.951686 
L 214.968153 69.831239 
L 225.630573 74.42142 
L 236.292994 73.309796 
L 246.955414 72.170471 
L 257.617834 77.10145 
L 268.280255 88.759499 
L 278.942675 86.883221 
L 289.605096 86.282123 
L 300.267516 89.920652 
L 310.929936 96.060134 
L 321.592357 94.247898 
L 332.254777 94.504038 
L 342.917197 94.090847 
L 353.579618 94.759936 
L 364.242038 94.831152 
L 374.904459 96.166216 
L 385.566879 98.264836 
L 396.229299 99.964638 
L 406.89172 101.309955 
L 417.55414 102.90057 
L 428.216561 100.558475 
L 438.878981 97.584123 
L 449.541401 97.147984 
L 460.203822 100.510549 
L 470.866242 99.828185 
L 481.528662 102.631441 
L 492.191083 102.309146 
L 502.853503 104.595191 
L 513.515924 104.706485 
L 524.178344 99.684207 
L 534.840764 99.876585 
L 545.503185 98.623952 
L 556.165605 99.011243 
L 566.828025 101.85587 
L 577.490446 101.351256 
L 588.152866 101.911259 
L 598.815287 102.250612 
L 609.477707 105.962149 
L 620.140127 110.966591 
L 630.802548 108.087926 
L 641.464968 105.458436 
L 652.127389 109.462696 
L 662.789809 106.443787 
L 673.452229 104.181477 
L 684.11465 102.775999 
L 694.77707 107.991398 
L 705.43949 108.427476 
L 716.101911 109.894522 
L 726.764331 104.688358 
L 737.426752 103.165843 
L 748.089172 112.768449 
L 758.751592 140.451031 
z
" clip-path="url(#pc97feb706d)" style="fill: url(#h74e23cec0d); stroke: #000000; stroke-opacity: 0.4"/>
   </g>
   <g id="PolyCollection_2">
    <defs>
     <path id="m28035f3e78" d="M 758.751592 -75.548969 
L 758.751592 -31.32 
L 748.089172 -31.32 
L 737.426752 -31.32 
L 726.764331 -31.32 
L 716.101911 -31.32 
L 705.43949 -31.32 
L 694.77707 -31.32 
L 684.11465 -31.32 
L 673.452229 -31.32 
L 662.789809 -31.32 
L 652.127389 -31.32 
L 641.464968 -31.32 
L 630.802548 -31.32 
L 620.140127 -31.32 
L 609.477707 -31.32 
L 598.815287 -31.32 
L 588.152866 -31.32 
L 577.490446 -31.32 
L 566.828025 -31.32 
L 556.165605 -31.32 
L 545.503185 -31.32 
L 534.840764 -31.32 
L 524.178344 -31.32 
L 513.515924 -31.32 
L 502.853503 -31.32 
L 492.191083 -31.32 
L 481.528662 -31.32 
L 470.866242 -31.32 
L 460.203822 -31.32 
L 449.541401 -31.32 
L 438.878981 -31.32 
L 428.216561 -31.32 
L 417.55414 -31.32 
L 406.89172 -31.32 
L 396.229299 -31.32 
L 385.566879 -31.32 
L 374.904459 -31.32 
L 364.242038 -31.32 
L 353.579618 -31.32 
L 342.917197 -31.32 
L 332.254777 -31.32 
L 321.592357 -31.32 
L 310.929936 -31.32 
L 300.267516 -31.32 
L 289.605096 -31.32 
L 278.942675 -31.32 
L 268.280255 -31.32 
L 257.617834 -31.32 
L 246.955414 -31.32 
L 236.292994 -31.32 
L 225.630573 -31.32 
L 214.968153 -31.32 
L 204.305732 -31.32 
L 193.643312 -31.32 
L 182.980892 -31.32 
L 172.318471 -31.32 
L 161.656051 -31.32 
L 150.993631 -31.32 
L 140.33121 -31.32 
L 129.66879 -31.32 
L 119.006369 -31.32 
L 65.694268 -31.32 
L 65.694268 -163.915441 
L 65.694268 -163.915441 
L 119.006369 -138.230392 
L 129.66879 -136.247694 
L 140.33121 -123.183386 
L 150.993631 -119.111481 
L 161.656051 -111.428932 
L 172.318471 -106.45654 
L 182.980892 -105.430358 
L 193.643312 -99.640943 
L 204.305732 -90.57506 
L 214.968153 -89.004118 
L 225.630573 -89.272189 
L 236.292994 -88.589607 
L 246.955414 -87.237884 
L 257.617834 -85.962503 
L 268.280255 -81.324897 
L 278.942675 -79.846609 
L 289.605096 -84.144616 
L 300.267516 -82.089974 
L 310.929936 -79.085242 
L 321.592357 -78.73151 
L 332.254777 -76.264795 
L 342.917197 -74.432304 
L 353.579618 -74.880207 
L 364.242038 -72.311105 
L 374.904459 -73.522828 
L 385.566879 -74.399164 
L 396.229299 -73.459673 
L 406.89172 -70.979904 
L 417.55414 -65.842677 
L 428.216561 -72.919797 
L 438.878981 -71.899697 
L 449.541401 -71.241374 
L 460.203822 -71.378547 
L 470.866242 -70.864148 
L 481.528662 -72.723941 
L 492.191083 -71.624541 
L 502.853503 -71.696876 
L 513.515924 -71.959461 
L 524.178344 -74.01659 
L 534.840764 -77.299805 
L 545.503185 -76.282262 
L 556.165605 -77.010614 
L 566.828025 -76.289221 
L 577.490446 -74.919892 
L 588.152866 -73.852921 
L 598.815287 -68.647854 
L 609.477707 -71.992102 
L 620.140127 -67.367806 
L 630.802548 -68.226671 
L 641.464968 -67.92497 
L 652.127389 -71.22479 
L 662.789809 -68.485275 
L 673.452229 -71.30772 
L 684.11465 -74.662757 
L 694.77707 -70.242612 
L 705.43949 -71.575319 
L 716.101911 -72.571498 
L 726.764331 -72.148973 
L 737.426752 -72.281941 
L 748.089172 -75.166823 
L 758.751592 -75.548969 
z
" style="stroke: #8d5591; stroke-opacity: 0.4"/>
    </defs>
    <g clip-path="url(#pc97feb706d)">
     <use xlink:href="#m28035f3e78" x="0" y="216" style="fill: #8d5591; fill-opacity: 0.4; stroke: #8d5591; stroke-opacity: 0.4"/>
    </g>
   </g>
   <g id="PolyCollection_3">
    <path d="M 758.751592 139.24096 
L 758.751592 142.349133 
L 761.417197 142.477305 
L 764.082803 142.653541 
L 766.748408 142.797735 
L 769.414013 142.925907 
L 772.079618 142.965961 
L 774.745223 143.134187 
L 777.410828 143.230316 
L 780.076433 143.302413 
L 782.742038 143.334456 
L 785.407643 143.422574 
L 788.073248 143.48666 
L 790.738854 143.614832 
L 793.404459 143.59881 
L 796.070064 143.502681 
L 798.735669 143.48666 
L 801.401274 143.510692 
L 804.066879 143.510692 
L 806.732484 143.558757 
L 809.398089 143.614832 
L 812.063694 143.622843 
L 814.729299 143.678918 
L 817.394904 143.654886 
L 820.06051 143.654886 
L 822.726115 143.678918 
L 825.39172 143.686929 
L 828.057325 143.686929 
L 830.72293 143.759026 
L 833.388535 143.815101 
L 836.05414 143.927251 
L 838.719745 143.951284 
L 841.38535 143.983327 
L 844.050955 144.031391 
L 846.716561 144.023381 
L 849.382166 144.071445 
L 852.047771 144.159563 
L 854.713376 144.207628 
L 857.378981 144.215639 
L 860.044586 144.247682 
L 862.710191 144.303757 
L 865.375796 144.367843 
L 868.041401 144.423918 
L 870.707006 144.455961 
L 873.372611 144.576123 
L 876.038217 144.65623 
L 878.703822 144.728327 
L 881.369427 144.752359 
L 884.035032 144.840477 
L 886.700637 144.928596 
L 889.366242 144.97666 
L 892.031847 144.992682 
L 894.697452 145.040746 
L 897.363057 145.048757 
L 900.028662 145.064779 
L 902.694268 145.176929 
L 905.359873 145.257037 
L 908.025478 145.377198 
L 910.691083 145.481338 
L 913.356688 145.561445 
L 916.022293 145.665585 
L 918.687898 145.809779 
L 921.353503 145.905908 
L 924.019108 145.953972 
L 926.684713 146.098166 
L 929.350318 146.218327 
L 932.015924 146.35451 
L 934.681529 146.466661 
L 937.347134 146.626876 
L 940.012739 146.690962 
L 940.012739 146.546768 
L 940.012739 146.546768 
L 937.347134 146.514725 
L 934.681529 146.386553 
L 932.015924 146.282413 
L 929.350318 146.162252 
L 926.684713 146.042091 
L 924.019108 145.905908 
L 921.353503 145.865854 
L 918.687898 145.769725 
L 916.022293 145.617521 
L 913.356688 145.513381 
L 910.691083 145.417252 
L 908.025478 145.305101 
L 905.359873 145.168918 
L 902.694268 145.0808 
L 900.028662 144.952628 
L 897.363057 144.688273 
L 894.697452 144.536069 
L 892.031847 144.383864 
L 889.366242 144.279725 
L 886.700637 144.135531 
L 884.035032 143.975316 
L 881.369427 143.791069 
L 878.703822 143.70295 
L 876.038217 143.526714 
L 873.372611 143.390531 
L 870.707006 143.254348 
L 868.041401 143.190262 
L 865.375796 143.070101 
L 862.710191 142.901875 
L 860.044586 142.797735 
L 857.378981 142.717628 
L 854.713376 142.645531 
L 852.047771 142.581445 
L 849.382166 142.477305 
L 846.716561 142.357144 
L 844.050955 142.325101 
L 841.38535 142.244993 
L 838.719745 142.196929 
L 836.05414 142.132842 
L 833.388535 141.972627 
L 830.72293 141.852466 
L 828.057325 141.740316 
L 825.39172 141.708272 
L 822.726115 141.644186 
L 820.06051 141.572089 
L 817.394904 141.532036 
L 814.729299 141.46795 
L 812.063694 141.379832 
L 809.398089 141.307735 
L 806.732484 141.211606 
L 804.066879 141.163541 
L 801.401274 141.123487 
L 798.735669 141.027358 
L 796.070064 141.019348 
L 793.404459 141.05139 
L 790.738854 140.971283 
L 788.073248 140.827089 
L 785.407643 140.690906 
L 782.742038 140.562735 
L 780.076433 140.458594 
L 777.410828 140.298379 
L 774.745223 140.106122 
L 772.079618 139.945907 
L 769.414013 139.865799 
L 766.748408 139.729616 
L 764.082803 139.537358 
L 761.417197 139.369132 
L 758.751592 139.24096 
z
" clip-path="url(#pc97feb706d)" style="fill: url(#h74e23cec0d); stroke: #000000; stroke-opacity: 0.4"/>
   </g>
   <g id="PolyCollection_4">
    <defs>
     <path id="m25353dcae7" d="M 758.751592 -75.548969 
L 758.751592 -31.32 
L 761.417197 -31.32 
L 764.082803 -31.32 
L 766.748408 -31.32 
L 769.414013 -31.32 
L 772.079618 -31.32 
L 774.745223 -31.32 
L 777.410828 -31.32 
L 780.076433 -31.32 
L 782.742038 -31.32 
L 785.407643 -31.32 
L 788.073248 -31.32 
L 790.738854 -31.32 
L 793.404459 -31.32 
L 796.070064 -31.32 
L 798.735669 -31.32 
L 801.401274 -31.32 
L 804.066879 -31.32 
L 806.732484 -31.32 
L 809.398089 -31.32 
L 812.063694 -31.32 
L 814.729299 -31.32 
L 817.394904 -31.32 
L 820.06051 -31.32 
L 822.726115 -31.32 
L 825.39172 -31.32 
L 828.057325 -31.32 
L 830.72293 -31.32 
L 833.388535 -31.32 
L 836.05414 -31.32 
L 838.719745 -31.32 
L 841.38535 -31.32 
L 844.050955 -31.32 
L 846.716561 -31.32 
L 849.382166 -31.32 
L 852.047771 -31.32 
L 854.713376 -31.32 
L 857.378981 -31.32 
L 860.044586 -31.32 
L 862.710191 -31.32 
L 865.375796 -31.32 
L 868.041401 -31.32 
L 870.707006 -31.32 
L 873.372611 -31.32 
L 876.038217 -31.32 
L 878.703822 -31.32 
L 881.369427 -31.32 
L 884.035032 -31.32 
L 886.700637 -31.32 
L 889.366242 -31.32 
L 892.031847 -31.32 
L 894.697452 -31.32 
L 897.363057 -31.32 
L 900.028662 -31.32 
L 902.694268 -31.32 
L 905.359873 -31.32 
L 908.025478 -31.32 
L 910.691083 -31.32 
L 913.356688 -31.32 
L 916.022293 -31.32 
L 918.687898 -31.32 
L 921.353503 -31.32 
L 924.019108 -31.32 
L 926.684713 -31.32 
L 929.350318 -31.32 
L 932.015924 -31.32 
L 934.681529 -31.32 
L 937.347134 -31.32 
L 940.012739 -31.32 
L 940.012739 -69.385615 
L 940.012739 -69.385615 
L 937.347134 -69.431455 
L 934.681529 -69.57371 
L 932.015924 -69.68672 
L 929.350318 -69.812466 
L 926.684713 -69.931082 
L 924.019108 -70.06996 
L 921.353503 -70.11267 
L 918.687898 -70.213594 
L 916.022293 -70.359973 
L 913.356688 -70.462371 
L 910.691083 -70.547041 
L 908.025478 -70.653924 
L 905.359873 -70.783349 
L 902.694268 -70.867678 
L 900.028662 -70.991777 
L 897.363057 -71.136422 
L 894.697452 -71.235937 
L 892.031847 -71.330751 
L 889.366242 -71.410676 
L 886.700637 -71.506387 
L 884.035032 -71.653809 
L 881.369427 -71.764953 
L 878.703822 -71.806567 
L 876.038217 -71.938857 
L 873.372611 -72.050393 
L 870.707006 -72.170312 
L 868.041401 -72.197724 
L 865.375796 -72.305265 
L 862.710191 -72.443845 
L 860.044586 -72.528697 
L 857.378981 -72.60296 
L 854.713376 -72.654171 
L 852.047771 -72.710032 
L 849.382166 -72.796452 
L 846.716561 -72.891399 
L 844.050955 -72.931095 
L 841.38535 -72.991661 
L 838.719745 -73.064081 
L 836.05414 -73.134848 
L 833.388535 -73.234731 
L 830.72293 -73.33178 
L 828.057325 -73.421372 
L 825.39172 -73.441651 
L 822.726115 -73.492209 
L 820.06051 -73.557602 
L 817.394904 -73.60149 
L 814.729299 -73.608141 
L 812.063694 -73.683087 
L 809.398089 -73.729969 
L 806.732484 -73.805518 
L 804.066879 -73.839423 
L 801.401274 -73.892615 
L 798.735669 -73.950444 
L 796.070064 -73.970895 
L 793.404459 -73.97049 
L 790.738854 -74.028161 
L 788.073248 -74.161095 
L 785.407643 -74.280888 
L 782.742038 -74.400491 
L 780.076433 -74.488151 
L 777.410828 -74.60734 
L 774.745223 -74.765111 
L 772.079618 -74.910247 
L 769.414013 -74.984738 
L 766.748408 -75.115524 
L 764.082803 -75.275856 
L 761.417197 -75.424332 
L 758.751592 -75.548969 
z
" style="stroke: #8d5591; stroke-opacity: 0.4"/>
    </defs>
    <g clip-path="url(#pc97feb706d)">
     <use xlink:href="#m25353dcae7" x="0" y="216" style="fill: #8d5591; fill-opacity: 0.4; stroke: #8d5591; stroke-opacity: 0.4"/>
    </g>
   </g>
   <g id="matplotlib.axis_1">
    <g id="xtick_1">
     <g id="line2d_1">
      <defs>
       <path id="m598a774c03" d="M 0 0 
L 0 3.5 
" style="stroke: #000000; stroke-width: 0.8"/>
      </defs>
      <g>
       <use xlink:href="#m598a774c03" x="225.630573" y="192.24" style="stroke: #000000; stroke-width: 0.8"/>
      </g>
     </g>
     <g id="text_1">
      <text style="font: 10px 'DejaVu Sans', 'Bitstream Vera Sans', 'Computer Modern Sans Serif', 'Lucida Grande', 'Verdana', 'Geneva', 'Lucid', 'Arial', 'Helvetica', 'Avant Garde', sans-serif; text-anchor: middle" x="225.630573" y="206.838437" transform="rotate(-0 225.630573 206.838437)">10</text>
     </g>
    </g>
    <g id="xtick_2">
     <g id="line2d_2">
      <g>
       <use xlink:href="#m598a774c03" x="332.254777" y="192.24" style="stroke: #000000; stroke-width: 0.8"/>
      </g>
     </g>
     <g id="text_2">
      <text style="font: 10px 'DejaVu Sans', 'Bitstream Vera Sans', 'Computer Modern Sans Serif', 'Lucida Grande', 'Verdana', 'Geneva', 'Lucid', 'Arial', 'Helvetica', 'Avant Garde', sans-serif; text-anchor: middle" x="332.254777" y="206.838437" transform="rotate(-0 332.254777 206.838437)">8</text>
     </g>
    </g>
    <g id="xtick_3">
     <g id="line2d_3">
      <g>
       <use xlink:href="#m598a774c03" x="438.878981" y="192.24" style="stroke: #000000; stroke-width: 0.8"/>
      </g>
     </g>
     <g id="text_3">
      <text style="font: 10px 'DejaVu Sans', 'Bitstream Vera Sans', 'Computer Modern Sans Serif', 'Lucida Grande', 'Verdana', 'Geneva', 'Lucid', 'Arial', 'Helvetica', 'Avant Garde', sans-serif; text-anchor: middle" x="438.878981" y="206.838437" transform="rotate(-0 438.878981 206.838437)">6</text>
     </g>
    </g>
    <g id="xtick_4">
     <g id="line2d_4">
      <g>
       <use xlink:href="#m598a774c03" x="545.503185" y="192.24" style="stroke: #000000; stroke-width: 0.8"/>
      </g>
     </g>
     <g id="text_4">
      <text style="font: 10px 'DejaVu Sans', 'Bitstream Vera Sans', 'Computer Modern Sans Serif', 'Lucida Grande', 'Verdana', 'Geneva', 'Lucid', 'Arial', 'Helvetica', 'Avant Garde', sans-serif; text-anchor: middle" x="545.503185" y="206.838437" transform="rotate(-0 545.503185 206.838437)">4</text>
     </g>
    </g>
    <g id="xtick_5">
     <g id="line2d_5">
      <g>
       <use xlink:href="#m598a774c03" x="652.127389" y="192.24" style="stroke: #000000; stroke-width: 0.8"/>
      </g>
     </g>
     <g id="text_5">
      <text style="font: 10px 'DejaVu Sans', 'Bitstream Vera Sans', 'Computer Modern Sans Serif', 'Lucida Grande', 'Verdana', 'Geneva', 'Lucid', 'Arial', 'Helvetica', 'Avant Garde', sans-serif; text-anchor: middle" x="652.127389" y="206.838437" transform="rotate(-0 652.127389 206.838437)">2</text>
     </g>
    </g>
    <g id="xtick_6">
     <g id="line2d_6">
      <g>
       <use xlink:href="#m598a774c03" x="758.751592" y="192.24" style="stroke: #000000; stroke-width: 0.8"/>
      </g>
     </g>
     <g id="text_6">
      <text style="font: 10px 'DejaVu Sans', 'Bitstream Vera Sans', 'Computer Modern Sans Serif', 'Lucida Grande', 'Verdana', 'Geneva', 'Lucid', 'Arial', 'Helvetica', 'Avant Garde', sans-serif; text-anchor: middle" x="758.751592" y="206.838437" transform="rotate(-0 758.751592 206.838437)">1950</text>
     </g>
    </g>
    <g id="xtick_7">
     <g id="line2d_7">
      <g>
       <use xlink:href="#m598a774c03" x="838.719745" y="192.24" style="stroke: #000000; stroke-width: 0.8"/>
      </g>
     </g>
     <g id="text_7">
      <text style="font: 10px 'DejaVu Sans', 'Bitstream Vera Sans', 'Computer Modern Sans Serif', 'Lucida Grande', 'Verdana', 'Geneva', 'Lucid', 'Arial', 'Helvetica', 'Avant Garde', sans-serif; text-anchor: middle" x="838.719745" y="206.838437" transform="rotate(-0 838.719745 206.838437)">1980</text>
     </g>
    </g>
    <g id="xtick_8">
     <g id="line2d_8">
      <g>
       <use xlink:href="#m598a774c03" x="892.031847" y="192.24" style="stroke: #000000; stroke-width: 0.8"/>
      </g>
     </g>
     <g id="text_8">
      <text style="font: 10px 'DejaVu Sans', 'Bitstream Vera Sans', 'Computer Modern Sans Serif', 'Lucida Grande', 'Verdana', 'Geneva', 'Lucid', 'Arial', 'Helvetica', 'Avant Garde', sans-serif; text-anchor: middle" x="892.031847" y="206.838437" transform="rotate(-0 892.031847 206.838437)">2000</text>
     </g>
    </g>
    <g id="xtick_9">
     <g id="line2d_9">
      <g>
       <use xlink:href="#m598a774c03" x="945.343949" y="192.24" style="stroke: #000000; stroke-width: 0.8"/>
      </g>
     </g>
     <g id="text_9">
      <text style="font: 10px 'DejaVu Sans', 'Bitstream Vera Sans', 'Computer Modern Sans Serif', 'Lucida Grande', 'Verdana', 'Geneva', 'Lucid', 'Arial', 'Helvetica', 'Avant Garde', sans-serif; text-anchor: middle" x="945.343949" y="206.838437" transform="rotate(-0 945.343949 206.838437)">2020</text>
     </g>
    </g>
   </g>
   <g id="matplotlib.axis_2">
    <g id="ytick_1">
     <g id="line2d_10">
      <defs>
       <path id="md6726c938b" d="M 0 0 
L -3.5 0 
" style="stroke: #000000; stroke-width: 0.8"/>
      </defs>
      <g>
       <use xlink:href="#md6726c938b" x="135" y="184.68" style="stroke: #000000; stroke-width: 0.8"/>
      </g>
     </g>
     <g id="text_10">
      <text style="font: 10px 'DejaVu Sans', 'Bitstream Vera Sans', 'Computer Modern Sans Serif', 'Lucida Grande', 'Verdana', 'Geneva', 'Lucid', 'Arial', 'Helvetica', 'Avant Garde', sans-serif; text-anchor: end" x="128" y="188.479219" transform="rotate(-0 128 188.479219)">0.00</text>
     </g>
    </g>
    <g id="ytick_2">
     <g id="line2d_11">
      <g>
       <use xlink:href="#md6726c938b" x="135" y="149.322187" style="stroke: #000000; stroke-width: 0.8"/>
      </g>
     </g>
     <g id="text_11">
      <text style="font: 10px 'DejaVu Sans', 'Bitstream Vera Sans', 'Computer Modern Sans Serif', 'Lucida Grande', 'Verdana', 'Geneva', 'Lucid', 'Arial', 'Helvetica', 'Avant Garde', sans-serif; text-anchor: end" x="128" y="153.121406" transform="rotate(-0 128 153.121406)">0.08</text>
     </g>
    </g>
    <g id="ytick_3">
     <g id="line2d_12">
      <g>
       <use xlink:href="#md6726c938b" x="135" y="113.964374" style="stroke: #000000; stroke-width: 0.8"/>
      </g>
     </g>
     <g id="text_12">
      <text style="font: 10px 'DejaVu Sans', 'Bitstream Vera Sans', 'Computer Modern Sans Serif', 'Lucida Grande', 'Verdana', 'Geneva', 'Lucid', 'Arial', 'Helvetica', 'Avant Garde', sans-serif; text-anchor: end" x="128" y="117.763593" transform="rotate(-0 128 117.763593)">0.16</text>
     </g>
    </g>
    <g id="ytick_4">
     <g id="line2d_13">
      <g>
       <use xlink:href="#md6726c938b" x="135" y="78.606561" style="stroke: #000000; stroke-width: 0.8"/>
      </g>
     </g>
     <g id="text_13">
      <text style="font: 10px 'DejaVu Sans', 'Bitstream Vera Sans', 'Computer Modern Sans Serif', 'Lucida Grande', 'Verdana', 'Geneva', 'Lucid', 'Arial', 'Helvetica', 'Avant Garde', sans-serif; text-anchor: end" x="128" y="82.40578" transform="rotate(-0 128 82.40578)">0.24</text>
     </g>
    </g>
    <g id="ytick_5">
     <g id="line2d_14">
      <g>
       <use xlink:href="#md6726c938b" x="135" y="43.248748" style="stroke: #000000; stroke-width: 0.8"/>
      </g>
     </g>
     <g id="text_14">
      <text style="font: 10px 'DejaVu Sans', 'Bitstream Vera Sans', 'Computer Modern Sans Serif', 'Lucida Grande', 'Verdana', 'Geneva', 'Lucid', 'Arial', 'Helvetica', 'Avant Garde', sans-serif; text-anchor: end" x="128" y="47.047967" transform="rotate(-0 128 47.047967)">0.32</text>
     </g>
    </g>
   </g>
   <g id="line2d_15">
    <path d="M 758.751592 140.451031 
L 748.089172 140.833177 
L 737.426752 143.718059 
L 726.764331 143.851027 
L 716.101911 143.428502 
L 705.43949 144.424681 
L 694.77707 145.757388 
L 684.11465 141.337243 
L 673.452229 144.69228 
L 662.789809 147.514725 
L 652.127389 144.77521 
L 641.464968 148.07503 
L 630.802548 147.773329 
L 620.140127 148.632194 
L 609.477707 144.007898 
L 598.815287 147.352146 
L 588.152866 142.147079 
L 577.490446 141.080108 
L 566.828025 139.710779 
L 556.165605 138.989386 
L 545.503185 139.717738 
L 534.840764 138.700195 
L 524.178344 141.98341 
L 513.515924 144.040539 
L 502.853503 144.303124 
L 492.191083 144.375459 
L 481.528662 143.276059 
L 470.866242 145.135852 
L 460.203822 144.621453 
L 449.541401 144.758626 
L 438.878981 144.100303 
L 428.216561 143.080203 
L 417.55414 150.157323 
L 406.89172 145.020096 
L 396.229299 142.540327 
L 385.566879 141.600836 
L 374.904459 142.477172 
L 364.242038 143.688895 
L 353.579618 141.119793 
L 342.917197 141.567696 
L 332.254777 139.735205 
L 321.592357 137.26849 
L 310.929936 136.914758 
L 300.267516 133.910026 
L 289.605096 131.855384 
L 278.942675 136.153391 
L 268.280255 134.675103 
L 257.617834 130.037497 
L 246.955414 128.762116 
L 236.292994 127.410393 
L 225.630573 126.727811 
L 214.968153 126.995882 
L 204.305732 125.42494 
L 193.643312 116.359057 
L 182.980892 110.569642 
L 172.318471 109.54346 
L 161.656051 104.571068 
L 150.993631 96.888519 
L 140.33121 92.816614 
L 129.66879 79.752306 
L 119.006369 77.769608 
L 65.694268 52.084559 
" clip-path="url(#pc97feb706d)" style="fill: none; stroke: #0b0b0b; stroke-width: 1.5; stroke-linecap: square"/>
   </g>
   <g id="line2d_16">
    <path d="M 758.751592 140.451031 
L 761.417197 140.575668 
L 764.082803 140.724144 
L 766.748408 140.884476 
L 769.414013 141.015262 
L 772.079618 141.089753 
L 774.745223 141.234889 
L 777.410828 141.39266 
L 780.076433 141.511849 
L 782.742038 141.599509 
L 785.407643 141.719112 
L 788.073248 141.838905 
L 790.738854 141.971839 
L 793.404459 142.02951 
L 796.070064 142.029105 
L 798.735669 142.049556 
L 801.401274 142.107385 
L 804.066879 142.160577 
L 806.732484 142.194482 
L 809.398089 142.270031 
L 812.063694 142.316913 
L 814.729299 142.391859 
L 817.394904 142.39851 
L 820.06051 142.442398 
L 822.726115 142.507791 
L 825.39172 142.558349 
L 828.057325 142.578628 
L 830.72293 142.66822 
L 833.388535 142.765269 
L 836.05414 142.865152 
L 838.719745 142.935919 
L 841.38535 143.008339 
L 844.050955 143.068905 
L 846.716561 143.108601 
L 849.382166 143.203548 
L 852.047771 143.289968 
L 854.713376 143.345829 
L 857.378981 143.39704 
L 860.044586 143.471303 
L 862.710191 143.556155 
L 865.375796 143.694735 
L 868.041401 143.802276 
L 870.707006 143.829688 
L 873.372611 143.949607 
L 876.038217 144.061143 
L 878.703822 144.193433 
L 881.369427 144.235047 
L 884.035032 144.346191 
L 886.700637 144.493613 
L 889.366242 144.589324 
L 892.031847 144.669249 
L 894.697452 144.764063 
L 897.363057 144.863578 
L 900.028662 145.008223 
L 902.694268 145.132322 
L 905.359873 145.216651 
L 908.025478 145.346076 
L 910.691083 145.452959 
L 913.356688 145.537629 
L 916.022293 145.640027 
L 918.687898 145.786406 
L 921.353503 145.88733 
L 924.019108 145.93004 
L 926.684713 146.068918 
L 929.350318 146.187534 
L 932.015924 146.31328 
L 934.681529 146.42629 
L 937.347134 146.568545 
L 940.012739 146.614385 
" clip-path="url(#pc97feb706d)" style="fill: none; stroke: #2626ff; stroke-width: 1.5; stroke-linecap: square"/>
   </g>
   <g id="LineCollection_1">
    <path d="M 940.012739 179.298263 
L 940.012739 153.503634 
" clip-path="url(#pc97feb706d)" style="fill: none; stroke: #d57eeb; stroke-width: 2"/>
   </g>
   <g id="line2d_17">
    <defs>
     <path id="m425ce0440f" d="M 5 0 
L -5 -0 
" style="stroke: #d57eeb"/>
    </defs>
    <g clip-path="url(#pc97feb706d)">
     <use xlink:href="#m425ce0440f" x="940.012739" y="179.298263" style="fill: #d57eeb; stroke: #d57eeb"/>
    </g>
   </g>
   <g id="line2d_18">
    <g clip-path="url(#pc97feb706d)">
     <use xlink:href="#m425ce0440f" x="940.012739" y="153.503634" style="fill: #d57eeb; stroke: #d57eeb"/>
    </g>
   </g>
   <g id="line2d_19">
    <path d="M 758.751592 192.24 
L 758.751592 25.92 
" clip-path="url(#pc97feb706d)" style="fill: none; stroke-dasharray: 3.7,1.6; stroke-dashoffset: 0; stroke: #808080; stroke-opacity: 0.5"/>
   </g>
   <g id="patch_3">
    <path d="M 135 192.24 
L 135 25.92 
" style="fill: none; stroke: #000000; stroke-width: 0.8; stroke-linejoin: miter; stroke-linecap: square"/>
   </g>
   <g id="patch_4">
    <path d="M 972 192.24 
L 972 25.92 
" style="fill: none"/>
   </g>
   <g id="patch_5">
    <path d="M 135 192.24 
L 972 192.24 
" style="fill: none; stroke: #000000; stroke-width: 0.8; stroke-linejoin: miter; stroke-linecap: square"/>
   </g>
   <g id="patch_6">
    <path d="M 135 25.92 
L 972 25.92 
" style="fill: none"/>
   </g>
   <g id="legend_1">
    <g id="patch_7">
     <path d="M 437.249219 42.518438 
L 457.249219 42.518438 
L 457.249219 35.518438 
L 437.249219 35.518438 
z
" style="fill: url(#h74e23cec0d); stroke: #000000; stroke-opacity: 0.4; stroke-linejoin: miter"/>
    </g>
    <g id="text_15">
     <text style="font: 10px 'DejaVu Sans', 'Bitstream Vera Sans', 'Computer Modern Sans Serif', 'Lucida Grande', 'Verdana', 'Geneva', 'Lucid', 'Arial', 'Helvetica', 'Avant Garde', sans-serif; text-anchor: start" x="465.249219" y="42.518438" transform="rotate(-0 465.249219 42.518438)">90% credible interval</text>
    </g>
    <g id="line2d_20">
     <path d="M 437.249219 53.696562 
L 447.249219 53.696562 
L 457.249219 53.696562 
" style="fill: none; stroke: #0b0b0b; stroke-width: 1.5; stroke-linecap: square"/>
    </g>
    <g id="text_16">
     <text style="font: 10px 'DejaVu Sans', 'Bitstream Vera Sans', 'Computer Modern Sans Serif', 'Lucida Grande', 'Verdana', 'Geneva', 'Lucid', 'Arial', 'Helvetica', 'Avant Garde', sans-serif; text-anchor: start" x="465.249219" y="57.196562" transform="rotate(-0 465.249219 57.196562)">Creel et al. (2023)</text>
    </g>
    <g id="line2d_21">
     <path d="M 437.249219 68.374687 
L 447.249219 68.374687 
L 457.249219 68.374687 
" style="fill: none; stroke: #2626ff; stroke-width: 1.5; stroke-linecap: square"/>
    </g>
    <g id="text_17">
     <text style="font: 10px 'DejaVu Sans', 'Bitstream Vera Sans', 'Computer Modern Sans Serif', 'Lucida Grande', 'Verdana', 'Geneva', 'Lucid', 'Arial', 'Helvetica', 'Avant Garde', sans-serif; text-anchor: start" x="465.249219" y="71.874687" transform="rotate(-0 465.249219 71.874687)">Frederikse et al. (2020)</text>
    </g>
    <g id="LineCollection_2">
     <path d="M 447.249219 88.052813 
L 447.249219 78.052813 
" style="fill: none; stroke: #d57eeb; stroke-width: 2"/>
    </g>
    <g id="line2d_22">
     <g>
      <use xlink:href="#m425ce0440f" x="447.249219" y="88.052813" style="fill: #d57eeb; stroke: #d57eeb"/>
     </g>
    </g>
    <g id="line2d_23">
     <g>
      <use xlink:href="#m425ce0440f" x="447.249219" y="78.052813" style="fill: #d57eeb; stroke: #d57eeb"/>
     </g>
    </g>
    <g id="text_18">
     <text style="font: 10px 'DejaVu Sans', 'Bitstream Vera Sans', 'Computer Modern Sans Serif', 'Lucida Grande', 'Verdana', 'Geneva', 'Lucid', 'Arial', 'Helvetica', 'Avant Garde', sans-serif; text-anchor: start" x="465.249219" y="86.552813" transform="rotate(-0 465.249219 86.552813)">Committed change with credible interval</text>
    </g>
   </g>
  </g>
 </g>
 <defs>
  <clipPath id="pc97feb706d">
   <rect x="135" y="25.92" width="837" height="166.32"/>
  </clipPath>
 </defs>
 <defs>
  <pattern id="h74e23cec0d" patternUnits="userSpaceOnUse" x="0" y="0" width="72" height="72">
   <rect x="0" y="0" width="73" height="73" fill="none"/>
   <path d="M -36 36 
L 36 -36 
M -32 40 
L 40 -32 
M -28 44 
L 44 -28 
M -24 48 
L 48 -24 
M -20 52 
L 52 -20 
M -16 56 
L 56 -16 
M -12 60 
L 60 -12 
M -8 64 
L 64 -8 
M -4 68 
L 68 -4 
M 0 72 
L 72 0 
M 4 76 
L 76 4 
M 8 80 
L 80 8 
M 12 84 
L 84 12 
M 16 88 
L 88 16 
M 20 92 
L 92 20 
M 24 96 
L 96 24 
M 28 100 
L 100 28 
M 32 104 
L 104 32 
M 36 108 
L 108 36 
" style="fill: #000000; stroke: #000000; stroke-width: 1.0; stroke-linecap: butt; stroke-linejoin: miter; stroke-opacity: 0.4"/>
  </pattern>
 </defs>
</svg>
