<?xml version="1.0" encoding="utf-8" standalone="no"?>
<!DOCTYPE svg PUBLIC "-//W3C//DTD SVG 1.1//EN"
  "http://www.w3.org/Graphics/SVG/1.1/DTD/svg11.dtd">
<svg xmlns:xlink="http://www.w3.org/1999/xlink" width="1080pt" height="216pt" viewBox="0 0 1080 216" xmlns="http://www.w3.org/2000/svg" version="1.1">
 <metadata>
  <rdf:RDF xmlns:dc="http://purl.org/dc/elements/1.1/" xmlns:cc="http://creativecommons.org/ns#" xmlns:rdf="http://www.w3.org/1999/02/22-rdf-syntax-ns#">
   <cc:Work>
    <dc:type rdf:resource="http://purl.org/dc/dcmitype/StillImage"/>
    <dc:date>2026-01-11T10:54:27.589976</dc:date>
    <dc:format>image/svg+xml</dc:format>
    <dc:creator>
     <cc:Agent>
      <dc:title>Matplotlib v3.7.5, https://matplotlib.org/</dc:title>
     </cc:Agent>
    </dc:creator>
   </cc:Work>
  </rdf:RDF>
 </metadata>
 <defs>
  <style type="text/css">*{stroke-linejoin: round; stroke-linecap: butt}</style>
 </defs>
 <g id="figure_1">
  <g id="patch_1">
   <path d="M 0 216 
L 1080 216 
L 1080 0 
L 0 0 
z
" style="fill: #ffffff"/>
  </g>
  <g id="axes_1">
   <g id="patch_2">
    <path d="M 135 192.24 
L 972 192.24 
L 972 25.92 
L 135 25.92 
z
" style="fill: #ffffff"/>
   </g>
   <g id="PolyCollection_1">
    <path d="M 758.751592 145.640128 
L 758.751592 386.552981 
L 748.089172 386.552981 
L 737.426752 386.552981 
L 726.764331 386.552981 
L 716.101911 386.552981 
L 705.43949 386.552981 
L 694.77707 386.552981 
L 684.11465 386.552981 
L 673.452229 386.552981 
L 662.789809 386.552981 
L 652.127389 386.552981 
L 641.464968 386.552981 
L 630.802548 386.552981 
L 620.140127 386.552981 
L 609.477707 386.552981 
L 598.815287 386.552981 
L 588.152866 386.552981 
L 577.490446 386.552981 
L 566.828025 386.552981 
L 556.165605 386.552981 
L 545.503185 386.552981 
L 534.840764 386.552981 
L 524.178344 386.552981 
L 513.515924 386.552981 
L 502.853503 386.552981 
L 492.191083 386.552981 
L 481.528662 386.552981 
L 470.866242 386.552981 
L 460.203822 386.552981 
L 449.541401 386.552981 
L 438.878981 386.552981 
L 428.216561 386.552981 
L 417.55414 386.552981 
L 406.89172 386.552981 
L 396.229299 386.552981 
L 385.566879 386.552981 
L 374.904459 386.552981 
L 364.242038 386.552981 
L 353.579618 386.552981 
L 342.917197 386.552981 
L 332.254777 386.552981 
L 321.592357 386.552981 
L 310.929936 386.552981 
L 300.267516 386.552981 
L 289.605096 386.552981 
L 278.942675 386.552981 
L 268.280255 386.552981 
L 257.617834 386.552981 
L 246.955414 386.552981 
L 236.292994 386.552981 
L 225.630573 386.552981 
L 214.968153 386.552981 
L 204.305732 386.552981 
L 193.643312 386.552981 
L 182.980892 386.552981 
L 172.318471 386.552981 
L 161.656051 386.552981 
L 150.993631 386.552981 
L 140.33121 386.552981 
L 129.66879 386.552981 
L 119.006369 386.552981 
L 108.343949 386.552981 
L 97.681529 386.552981 
L 87.019108 386.552981 
L 76.356688 386.552981 
L 65.694268 386.552981 
L 55.031847 386.552981 
L 44.369427 386.552981 
L 33.707006 386.552981 
L 23.044586 386.552981 
L 12.382166 386.552981 
L 1.719745 386.552981 
L -8.942675 386.552981 
L -19.605096 386.552981 
L -30.267516 386.552981 
L -40.929936 386.552981 
L -51.592357 386.552981 
L -62.254777 386.552981 
L -72.917197 386.552981 
L -83.579618 386.552981 
L -94.242038 386.552981 
L -104.904459 386.552981 
L -115.566879 386.552981 
L -126.229299 386.552981 
L -136.89172 386.552981 
L -147.55414 386.552981 
L -158.216561 386.552981 
L -168.878981 386.552981 
L -179.541401 386.552981 
L -190.203822 386.552981 
L -200.866242 386.552981 
L -211.528662 386.552981 
L -222.191083 386.552981 
L -232.853503 386.552981 
L -243.515924 386.552981 
L -254.178344 386.552981 
L -264.840764 386.552981 
L -275.503185 386.552981 
L -286.165605 386.552981 
L -296.828025 386.552981 
L -307.490446 386.552981 
L -318.152866 386.552981 
L -328.815287 386.552981 
L -339.477707 386.552981 
L -350.140127 386.552981 
L -360.802548 386.552981 
L -371.464968 386.552981 
L -382.127389 386.552981 
L -392.789809 386.552981 
L -403.452229 386.552981 
L -414.11465 386.552981 
L -424.77707 386.552981 
L -435.43949 386.552981 
L -446.101911 386.552981 
L -456.764331 386.552981 
L -467.426752 386.552981 
L -478.089172 386.552981 
L -488.751592 386.552981 
L -499.414013 386.552981 
L -510.076433 386.552981 
L -520.738854 386.552981 
L -531.401274 386.552981 
L -542.063694 386.552981 
L -552.726115 386.552981 
L -563.388535 386.552981 
L -574.050955 386.552981 
L -584.713376 386.552981 
L -595.375796 386.552981 
L -606.038217 386.552981 
L -616.700637 386.552981 
L -627.363057 386.552981 
L -638.025478 386.552981 
L -648.687898 386.552981 
L -659.350318 386.552981 
L -670.012739 386.552981 
L -680.675159 386.552981 
L -691.33758 386.552981 
L -702 386.552981 
L -712.66242 386.552981 
L -723.324841 386.552981 
L -733.987261 386.552981 
L -744.649682 386.552981 
L -755.312102 386.552981 
L -765.974522 386.552981 
L -776.636943 386.552981 
L -787.299363 386.552981 
L -797.961783 386.552981 
L -808.624204 386.552981 
L -819.286624 386.552981 
L -829.949045 386.552981 
L -840.611465 386.552981 
L -947.235669 386.552981 
L -1053.859873 386.552981 
L -1160.484076 386.552981 
L -1267.10828 386.552981 
L -1373.732484 386.552981 
L -1480.356688 386.552981 
L -1586.980892 386.552981 
L -1693.605096 386.552981 
L -1800.229299 386.552981 
L -1906.853503 386.552981 
L -2013.477707 386.552981 
L -2120.101911 386.552981 
L -2226.726115 386.552981 
L -2333.350318 386.552981 
L -2439.974522 386.552981 
L -2546.598726 386.552981 
L -2653.22293 386.552981 
L -2759.847134 386.552981 
L -2866.471338 386.552981 
L -2973.095541 386.552981 
L -3079.719745 386.552981 
L -3186.343949 386.552981 
L -3292.968153 386.552981 
L -3399.592357 386.552981 
L -3506.216561 386.552981 
L -3506.216561 123.323037 
L -3506.216561 123.323037 
L -3399.592357 126.464375 
L -3292.968153 127.452855 
L -3186.343949 124.964576 
L -3079.719745 126.485499 
L -2973.095541 124.33773 
L -2866.471338 125.028749 
L -2759.847134 118.379508 
L -2653.22293 112.512474 
L -2546.598726 108.318924 
L -2439.974522 105.209499 
L -2333.350318 103.43006 
L -2226.726115 103.443366 
L -2120.101911 102.065907 
L -2013.477707 101.882048 
L -1906.853503 102.361515 
L -1800.229299 102.535334 
L -1693.605096 102.093597 
L -1586.980892 103.291341 
L -1480.356688 104.03198 
L -1373.732484 104.286676 
L -1267.10828 103.254615 
L -1160.484076 104.100057 
L -1053.859873 104.677207 
L -947.235669 104.970442 
L -840.611465 104.854633 
L -829.949045 104.817391 
L -819.286624 104.780153 
L -808.624204 104.742918 
L -797.961783 104.340779 
L -787.299363 104.192266 
L -776.636943 104.273786 
L -765.974522 104.680758 
L -755.312102 104.734908 
L -744.649682 104.776216 
L -733.987261 104.803162 
L -723.324841 104.778324 
L -712.66242 104.753486 
L -702 104.728651 
L -691.33758 104.724726 
L -680.675159 104.828651 
L -670.012739 104.790715 
L -659.350318 104.752766 
L -648.687898 104.76088 
L -638.025478 104.788181 
L -627.363057 104.815482 
L -616.700637 104.805065 
L -606.038217 104.794636 
L -595.375796 104.784219 
L -584.713376 104.773803 
L -574.050955 104.763386 
L -563.388535 104.814731 
L -552.726115 104.866069 
L -542.063694 104.917417 
L -531.401274 104.968758 
L -520.738854 105.020106 
L -510.076433 105.004983 
L -499.414013 104.98986 
L -488.751592 104.974747 
L -478.089172 104.959615 
L -467.426752 104.944501 
L -456.764331 104.958311 
L -446.101911 104.972136 
L -435.43949 104.985951 
L -424.77707 105.000292 
L -414.11465 105.102088 
L -403.452229 105.082516 
L -392.789809 105.070205 
L -382.127389 105.16092 
L -371.464968 105.258168 
L -360.802548 105.355421 
L -350.140127 105.338339 
L -339.477707 105.321251 
L -328.815287 105.304163 
L -318.152866 105.287087 
L -307.490446 105.269999 
L -296.828025 105.258331 
L -286.165605 105.24666 
L -275.503185 105.235014 
L -264.840764 105.223346 
L -254.178344 105.211674 
L -243.515924 105.123762 
L -232.853503 105.035862 
L -222.191083 104.94795 
L -211.528662 104.860031 
L -200.866242 104.772119 
L -190.203822 104.571277 
L -179.541401 104.520878 
L -168.878981 104.470485 
L -158.216561 104.420089 
L -147.55414 104.369703 
L -136.89172 104.275289 
L -126.229299 103.836839 
L -115.566879 103.411947 
L -104.904459 103.019262 
L -94.242038 102.586271 
L -83.579618 102.07844 
L -72.917197 101.570613 
L -62.254777 100.981671 
L -51.592357 100.311612 
L -40.929936 99.641553 
L -30.267516 98.826548 
L -19.605096 98.01153 
L -8.942675 97.275403 
L 1.719745 96.618145 
L 12.382166 95.960879 
L 23.044586 95.734705 
L 33.707006 96.039568 
L 44.369427 97.078779 
L 55.031847 99.226801 
L 65.694268 101.418551 
L 76.356688 102.182078 
L 87.019108 102.945612 
L 97.681529 103.663737 
L 108.343949 104.336463 
L 119.006369 105.009192 
L 129.66879 106.074807 
L 140.33121 106.406646 
L 150.993631 105.775463 
L 161.656051 105.711972 
L 172.318471 105.648471 
L 182.980892 105.523527 
L 193.643312 105.600238 
L 204.305732 108.805891 
L 214.968153 112.69751 
L 225.630573 115.141722 
L 236.292994 116.72873 
L 246.955414 118.315732 
L 257.617834 118.822584 
L 268.280255 119.789281 
L 278.942675 122.489362 
L 289.605096 123.918595 
L 300.267516 126.761057 
L 310.929936 128.928337 
L 321.592357 131.179338 
L 332.254777 135.254126 
L 342.917197 136.268639 
L 353.579618 137.262162 
L 364.242038 137.879559 
L 374.904459 138.478353 
L 385.566879 139.562146 
L 396.229299 140.264976 
L 406.89172 140.967804 
L 417.55414 142.558059 
L 428.216561 142.866425 
L 438.878981 143.104298 
L 449.541401 143.5536 
L 460.203822 144.138222 
L 470.866242 144.556269 
L 481.528662 144.923822 
L 492.191083 145.311108 
L 502.853503 145.562633 
L 513.515924 145.721413 
L 524.178344 145.908922 
L 534.840764 146.125161 
L 545.503185 146.3414 
L 556.165605 146.424296 
L 566.828025 146.507192 
L 577.490446 146.570394 
L 588.152866 146.613901 
L 598.815287 146.657408 
L 609.477707 146.528101 
L 620.140127 146.501384 
L 630.802548 146.561036 
L 641.464968 146.639104 
L 652.127389 146.717172 
L 662.789809 146.63983 
L 673.452229 146.533944 
L 684.11465 146.368162 
L 694.77707 146.220596 
L 705.43949 146.163173 
L 716.101911 146.079297 
L 726.764331 146.014065 
L 737.426752 145.886471 
L 748.089172 145.7633 
L 758.751592 145.640128 
z
" clip-path="url(#p57852f2a9c)" style="fill: #b8e2f4; stroke: #b8e2f4"/>
   </g>
   <g id="PolyCollection_2">
    <path d="M 758.751592 144.667867 
L 758.751592 145.640128 
L 748.089172 145.7633 
L 737.426752 145.886471 
L 726.764331 146.014065 
L 716.101911 146.079297 
L 705.43949 146.163173 
L 694.77707 146.220596 
L 684.11465 146.368162 
L 673.452229 146.533944 
L 662.789809 146.63983 
L 652.127389 146.717172 
L 641.464968 146.639104 
L 630.802548 146.561036 
L 620.140127 146.501384 
L 609.477707 146.528101 
L 598.815287 146.657408 
L 588.152866 146.613901 
L 577.490446 146.570394 
L 566.828025 146.507192 
L 556.165605 146.424296 
L 545.503185 146.3414 
L 534.840764 146.125161 
L 524.178344 145.908922 
L 513.515924 145.721413 
L 502.853503 145.562633 
L 492.191083 145.311108 
L 481.528662 144.923822 
L 470.866242 144.556269 
L 460.203822 144.138222 
L 449.541401 143.5536 
L 438.878981 143.104298 
L 428.216561 142.866425 
L 417.55414 142.558059 
L 406.89172 140.967804 
L 396.229299 140.264976 
L 385.566879 139.562146 
L 374.904459 138.478353 
L 364.242038 137.879559 
L 353.579618 137.262162 
L 342.917197 136.268639 
L 332.254777 135.254126 
L 321.592357 131.179338 
L 310.929936 128.928337 
L 300.267516 126.761057 
L 289.605096 123.918595 
L 278.942675 122.489362 
L 268.280255 119.789281 
L 257.617834 118.822584 
L 246.955414 118.315732 
L 236.292994 116.72873 
L 225.630573 115.141722 
L 214.968153 112.69751 
L 204.305732 108.805891 
L 193.643312 105.600238 
L 182.980892 105.523527 
L 172.318471 105.648471 
L 161.656051 105.711972 
L 150.993631 105.775463 
L 140.33121 106.406646 
L 129.66879 106.074807 
L 119.006369 105.009192 
L 108.343949 104.336463 
L 97.681529 103.663737 
L 87.019108 102.945612 
L 76.356688 102.182078 
L 65.694268 101.418551 
L 55.031847 99.226801 
L 44.369427 97.078779 
L 33.707006 96.039568 
L 23.044586 95.734705 
L 12.382166 95.960879 
L 1.719745 96.618145 
L -8.942675 97.275403 
L -19.605096 98.01153 
L -30.267516 98.826548 
L -40.929936 99.641553 
L -51.592357 100.311612 
L -62.254777 100.981671 
L -72.917197 101.570613 
L -83.579618 102.07844 
L -94.242038 102.586271 
L -104.904459 103.019262 
L -115.566879 103.411947 
L -126.229299 103.836839 
L -136.89172 104.275289 
L -147.55414 104.369703 
L -158.216561 104.420089 
L -168.878981 104.470485 
L -179.541401 104.520878 
L -190.203822 104.571277 
L -200.866242 104.772119 
L -211.528662 104.860031 
L -222.191083 104.94795 
L -232.853503 105.035862 
L -243.515924 105.123762 
L -254.178344 105.211674 
L -264.840764 105.223346 
L -275.503185 105.235014 
L -286.165605 105.24666 
L -296.828025 105.258331 
L -307.490446 105.269999 
L -318.152866 105.287087 
L -328.815287 105.304163 
L -339.477707 105.321251 
L -350.140127 105.338339 
L -360.802548 105.355421 
L -371.464968 105.258168 
L -382.127389 105.16092 
L -392.789809 105.070205 
L -403.452229 105.082516 
L -414.11465 105.102088 
L -424.77707 105.000292 
L -435.43949 104.985951 
L -446.101911 104.972136 
L -456.764331 104.958311 
L -467.426752 104.944501 
L -478.089172 104.959615 
L -488.751592 104.974747 
L -499.414013 104.98986 
L -510.076433 105.004983 
L -520.738854 105.020106 
L -531.401274 104.968758 
L -542.063694 104.917417 
L -552.726115 104.866069 
L -563.388535 104.814731 
L -574.050955 104.763386 
L -584.713376 104.773803 
L -595.375796 104.784219 
L -606.038217 104.794636 
L -616.700637 104.805065 
L -627.363057 104.815482 
L -638.025478 104.788181 
L -648.687898 104.76088 
L -659.350318 104.752766 
L -670.012739 104.790715 
L -680.675159 104.828651 
L -691.33758 104.724726 
L -702 104.728651 
L -712.66242 104.753486 
L -723.324841 104.778324 
L -733.987261 104.803162 
L -744.649682 104.776216 
L -755.312102 104.734908 
L -765.974522 104.680758 
L -776.636943 104.273786 
L -787.299363 104.192266 
L -797.961783 104.340779 
L -808.624204 104.742918 
L -819.286624 104.780153 
L -829.949045 104.817391 
L -840.611465 104.854633 
L -947.235669 104.970442 
L -1053.859873 104.677207 
L -1160.484076 104.100057 
L -1267.10828 103.254615 
L -1373.732484 104.286676 
L -1480.356688 104.03198 
L -1586.980892 103.291341 
L -1693.605096 102.093597 
L -1800.229299 102.535334 
L -1906.853503 102.361515 
L -2013.477707 101.882048 
L -2120.101911 102.065907 
L -2226.726115 103.443366 
L -2333.350318 103.43006 
L -2439.974522 105.209499 
L -2546.598726 108.318924 
L -2653.22293 112.512474 
L -2759.847134 118.379508 
L -2866.471338 125.028749 
L -2973.095541 124.33773 
L -3079.719745 126.485499 
L -3186.343949 124.964576 
L -3292.968153 127.452855 
L -3399.592357 126.464375 
L -3506.216561 123.323037 
L -3506.216561 122.350776 
L -3506.216561 122.350776 
L -3399.592357 125.492113 
L -3292.968153 126.480593 
L -3186.343949 123.992314 
L -3079.719745 125.513237 
L -2973.095541 123.365468 
L -2866.471338 124.056487 
L -2759.847134 117.407246 
L -2653.22293 111.540212 
L -2546.598726 107.346662 
L -2439.974522 104.237237 
L -2333.350318 102.457798 
L -2226.726115 102.471104 
L -2120.101911 101.093645 
L -2013.477707 100.909786 
L -1906.853503 101.389253 
L -1800.229299 101.563073 
L -1693.605096 101.121335 
L -1586.980892 102.319079 
L -1480.356688 103.059718 
L -1373.732484 103.314414 
L -1267.10828 102.282353 
L -1160.484076 103.127795 
L -1053.859873 103.704946 
L -947.235669 103.99818 
L -840.611465 103.882371 
L -829.949045 103.845129 
L -819.286624 103.807891 
L -808.624204 103.770656 
L -797.961783 103.368517 
L -787.299363 103.220004 
L -776.636943 103.301524 
L -765.974522 103.708496 
L -755.312102 103.762646 
L -744.649682 103.803954 
L -733.987261 103.8309 
L -723.324841 103.806062 
L -712.66242 103.781224 
L -702 103.756389 
L -691.33758 103.752465 
L -680.675159 103.85639 
L -670.012739 103.818453 
L -659.350318 103.780504 
L -648.687898 103.788618 
L -638.025478 103.815919 
L -627.363057 103.84322 
L -616.700637 103.832803 
L -606.038217 103.822374 
L -595.375796 103.811958 
L -584.713376 103.801541 
L -574.050955 103.791124 
L -563.388535 103.842469 
L -552.726115 103.893807 
L -542.063694 103.945155 
L -531.401274 103.996496 
L -520.738854 104.047844 
L -510.076433 104.032721 
L -499.414013 104.017598 
L -488.751592 104.002485 
L -478.089172 103.987353 
L -467.426752 103.972239 
L -456.764331 103.986049 
L -446.101911 103.999874 
L -435.43949 104.013689 
L -424.77707 104.02803 
L -414.11465 104.129826 
L -403.452229 104.110254 
L -392.789809 104.097943 
L -382.127389 104.188658 
L -371.464968 104.285906 
L -360.802548 104.383159 
L -350.140127 104.366077 
L -339.477707 104.348989 
L -328.815287 104.331901 
L -318.152866 104.314826 
L -307.490446 104.297738 
L -296.828025 104.28607 
L -286.165605 104.274398 
L -275.503185 104.262752 
L -264.840764 104.251084 
L -254.178344 104.239413 
L -243.515924 104.1515 
L -232.853503 104.0636 
L -222.191083 103.975688 
L -211.528662 103.887769 
L -200.866242 103.799857 
L -190.203822 103.599015 
L -179.541401 103.548616 
L -168.878981 103.498223 
L -158.216561 103.447827 
L -147.55414 103.397441 
L -136.89172 103.303027 
L -126.229299 102.864577 
L -115.566879 102.439686 
L -104.904459 102.047 
L -94.242038 101.614009 
L -83.579618 101.106178 
L -72.917197 100.598351 
L -62.254777 100.009409 
L -51.592357 99.33935 
L -40.929936 98.669291 
L -30.267516 97.854286 
L -19.605096 97.039269 
L -8.942675 96.303141 
L 1.719745 95.645884 
L 12.382166 94.988617 
L 23.044586 94.762443 
L 33.707006 95.067306 
L 44.369427 96.106517 
L 55.031847 98.254539 
L 65.694268 100.446289 
L 76.356688 101.209816 
L 87.019108 101.97335 
L 97.681529 102.691475 
L 108.343949 101.421688 
L 119.006369 102.659038 
L 129.66879 103.768238 
L 140.33121 104.387262 
L 150.993631 103.84559 
L 161.656051 103.95098 
L 172.318471 103.996784 
L 182.980892 103.894399 
L 193.643312 104.098375 
L 204.305732 107.503318 
L 214.968153 111.429471 
L 225.630573 113.86779 
L 236.292994 115.469803 
L 246.955414 117.086519 
L 257.617834 117.621407 
L 268.280255 118.69005 
L 278.942675 121.422628 
L 289.605096 122.75738 
L 300.267516 125.645008 
L 310.929936 127.878339 
L 321.592357 130.137116 
L 332.254777 134.266129 
L 342.917197 135.320924 
L 353.579618 136.304602 
L 364.242038 136.978474 
L 374.904459 137.550631 
L 385.566879 138.615159 
L 396.229299 139.338642 
L 406.89172 140.095981 
L 417.55414 141.799165 
L 428.216561 141.951958 
L 438.878981 142.212256 
L 449.541401 142.676029 
L 460.203822 143.257636 
L 470.866242 143.686991 
L 481.528662 144.013661 
L 492.191083 144.425115 
L 502.853503 144.67505 
L 513.515924 144.828057 
L 524.178344 144.970346 
L 534.840764 145.114411 
L 545.503185 145.353018 
L 556.165605 145.419904 
L 566.828025 145.518658 
L 577.490446 145.61196 
L 588.152866 145.678922 
L 598.815287 145.83685 
L 609.477707 145.634028 
L 620.140127 145.708964 
L 630.802548 145.749736 
L 641.464968 145.834437 
L 652.127389 145.839966 
L 662.789809 145.822846 
L 673.452229 145.654916 
L 684.11465 145.415381 
L 694.77707 145.364981 
L 705.43949 145.278262 
L 716.101911 145.172488 
L 726.764331 145.116544 
L 737.426752 144.986026 
L 748.089172 144.799438 
L 758.751592 144.667867 
z
" clip-path="url(#p57852f2a9c)" style="fill: #8d5591; stroke: #8d5591"/>
   </g>
   <g id="PolyCollection_3">
    <path d="M 758.751592 117.820168 
L 758.751592 144.667867 
L 748.089172 144.799438 
L 737.426752 144.986026 
L 726.764331 145.116544 
L 716.101911 145.172488 
L 705.43949 145.278262 
L 694.77707 145.364981 
L 684.11465 145.415381 
L 673.452229 145.654916 
L 662.789809 145.822846 
L 652.127389 145.839966 
L 641.464968 145.834437 
L 630.802548 145.749736 
L 620.140127 145.708964 
L 609.477707 145.634028 
L 598.815287 145.83685 
L 588.152866 145.678922 
L 577.490446 145.61196 
L 566.828025 145.518658 
L 556.165605 145.419904 
L 545.503185 145.353018 
L 534.840764 145.114411 
L 524.178344 144.970346 
L 513.515924 144.828057 
L 502.853503 144.67505 
L 492.191083 144.425115 
L 481.528662 144.013661 
L 470.866242 143.686991 
L 460.203822 143.257636 
L 449.541401 142.676029 
L 438.878981 142.212256 
L 428.216561 141.951958 
L 417.55414 141.799165 
L 406.89172 140.095981 
L 396.229299 139.338642 
L 385.566879 138.615159 
L 374.904459 137.550631 
L 364.242038 136.978474 
L 353.579618 136.304602 
L 342.917197 135.320924 
L 332.254777 134.266129 
L 321.592357 130.137116 
L 310.929936 127.878339 
L 300.267516 125.645008 
L 289.605096 122.75738 
L 278.942675 121.422628 
L 268.280255 118.69005 
L 257.617834 117.621407 
L 246.955414 117.086519 
L 236.292994 115.469803 
L 225.630573 113.86779 
L 214.968153 111.429471 
L 204.305732 107.503318 
L 193.643312 104.098375 
L 182.980892 103.894399 
L 172.318471 103.996784 
L 161.656051 103.95098 
L 150.993631 103.84559 
L 140.33121 104.387262 
L 129.66879 103.768238 
L 119.006369 102.659038 
L 108.343949 101.421688 
L 97.681529 102.691475 
L 87.019108 101.97335 
L 76.356688 101.209816 
L 65.694268 100.446289 
L 55.031847 98.254539 
L 44.369427 96.106517 
L 33.707006 95.067306 
L 23.044586 94.762443 
L 12.382166 94.988617 
L 1.719745 95.645884 
L -8.942675 96.303141 
L -19.605096 97.039269 
L -30.267516 97.854286 
L -40.929936 98.669291 
L -51.592357 99.33935 
L -62.254777 100.009409 
L -72.917197 100.598351 
L -83.579618 101.106178 
L -94.242038 101.614009 
L -104.904459 102.047 
L -115.566879 102.439686 
L -126.229299 102.864577 
L -136.89172 103.303027 
L -147.55414 103.397441 
L -158.216561 103.447827 
L -168.878981 103.498223 
L -179.541401 103.548616 
L -190.203822 103.599015 
L -200.866242 103.799857 
L -211.528662 103.887769 
L -222.191083 103.975688 
L -232.853503 104.0636 
L -243.515924 104.1515 
L -254.178344 104.239413 
L -264.840764 104.251084 
L -275.503185 104.262752 
L -286.165605 104.274398 
L -296.828025 104.28607 
L -307.490446 104.297738 
L -318.152866 104.314826 
L -328.815287 104.331901 
L -339.477707 104.348989 
L -350.140127 104.366077 
L -360.802548 104.383159 
L -371.464968 104.285906 
L -382.127389 104.188658 
L -392.789809 104.097943 
L -403.452229 104.110254 
L -414.11465 104.129826 
L -424.77707 104.02803 
L -435.43949 104.013689 
L -446.101911 103.999874 
L -456.764331 103.986049 
L -467.426752 103.972239 
L -478.089172 103.987353 
L -488.751592 104.002485 
L -499.414013 104.017598 
L -510.076433 104.032721 
L -520.738854 104.047844 
L -531.401274 103.996496 
L -542.063694 103.945155 
L -552.726115 103.893807 
L -563.388535 103.842469 
L -574.050955 103.791124 
L -584.713376 103.801541 
L -595.375796 103.811958 
L -606.038217 103.822374 
L -616.700637 103.832803 
L -627.363057 103.84322 
L -638.025478 103.815919 
L -648.687898 103.788618 
L -659.350318 103.780504 
L -670.012739 103.818453 
L -680.675159 103.85639 
L -691.33758 103.752465 
L -702 103.756389 
L -712.66242 103.781224 
L -723.324841 103.806062 
L -733.987261 103.8309 
L -744.649682 103.803954 
L -755.312102 103.762646 
L -765.974522 103.708496 
L -776.636943 103.301524 
L -787.299363 103.220004 
L -797.961783 103.368517 
L -808.624204 103.770656 
L -819.286624 103.807891 
L -829.949045 103.845129 
L -840.611465 103.882371 
L -947.235669 103.99818 
L -1053.859873 103.704946 
L -1160.484076 103.127795 
L -1267.10828 102.282353 
L -1373.732484 103.314414 
L -1480.356688 103.059718 
L -1586.980892 102.319079 
L -1693.605096 101.121335 
L -1800.229299 101.563073 
L -1906.853503 101.389253 
L -2013.477707 100.909786 
L -2120.101911 101.093645 
L -2226.726115 102.471104 
L -2333.350318 102.457798 
L -2439.974522 104.237237 
L -2546.598726 107.346662 
L -2653.22293 111.540212 
L -2759.847134 117.407246 
L -2866.471338 124.056487 
L -2973.095541 123.365468 
L -3079.719745 125.513237 
L -3186.343949 123.992314 
L -3292.968153 126.480593 
L -3399.592357 125.492113 
L -3506.216561 122.350776 
L -3506.216561 86.95448 
L -3506.216561 86.95448 
L -3399.592357 89.95631 
L -3292.968153 91.3973 
L -3186.343949 89.775077 
L -3079.719745 90.777562 
L -2973.095541 88.945728 
L -2866.471338 89.078715 
L -2759.847134 82.363276 
L -2653.22293 76.841456 
L -2546.598726 72.882884 
L -2439.974522 69.501562 
L -2333.350318 67.898549 
L -2226.726115 67.387811 
L -2120.101911 64.940106 
L -2013.477707 64.756247 
L -1906.853503 64.487122 
L -1800.229299 64.438569 
L -1693.605096 64.399146 
L -1586.980892 66.165539 
L -1480.356688 66.049892 
L -1373.732484 66.955163 
L -1267.10828 66.128814 
L -1160.484076 67.239642 
L -1053.859873 67.471604 
L -947.235669 67.844641 
L -840.611465 67.928045 
L -829.949045 67.890803 
L -819.286624 67.853565 
L -808.624204 67.81633 
L -797.961783 67.414191 
L -787.299363 67.265678 
L -776.636943 67.33908 
L -765.974522 67.666869 
L -755.312102 67.701353 
L -744.649682 67.698188 
L -733.987261 67.67736 
L -723.324841 67.700296 
L -712.66242 67.699604 
L -702 67.684269 
L -691.33758 67.689848 
L -680.675159 67.803274 
L -670.012739 67.749127 
L -659.350318 67.694963 
L -648.687898 67.694784 
L -638.025478 67.710153 
L -627.363057 67.68968 
L -616.700637 67.63812 
L -606.038217 67.586551 
L -595.375796 67.534991 
L -584.713376 67.483433 
L -574.050955 67.431874 
L -563.388535 67.483218 
L -552.726115 67.534557 
L -542.063694 67.585904 
L -531.401274 67.623646 
L -520.738854 67.674994 
L -510.076433 67.659871 
L -499.414013 67.654959 
L -488.751592 67.643234 
L -478.089172 67.628102 
L -467.426752 67.612989 
L -456.764331 67.667941 
L -446.101911 67.722907 
L -435.43949 67.777866 
L -424.77707 67.810265 
L -414.11465 67.937072 
L -403.452229 67.923642 
L -392.789809 67.917475 
L -382.127389 68.01433 
L -371.464968 68.117719 
L -360.802548 68.221118 
L -350.140127 68.169004 
L -339.477707 68.116884 
L -328.815287 68.064636 
L -318.152866 68.012267 
L -307.490446 67.938487 
L -296.828025 67.164693 
L -286.165605 67.007765 
L -275.503185 66.906477 
L -264.840764 66.801169 
L -254.178344 66.706396 
L -243.515924 66.519709 
L -232.853503 66.347943 
L -222.191083 66.180269 
L -211.528662 65.999984 
L -200.866242 65.805734 
L -190.203822 65.643713 
L -179.541401 65.59611 
L -168.878981 65.571241 
L -158.216561 65.563437 
L -147.55414 65.519839 
L -136.89172 65.504329 
L -126.229299 65.140771 
L -115.566879 64.827117 
L -104.904459 64.546497 
L -94.242038 64.228367 
L -83.579618 63.94199 
L -72.917197 63.456786 
L -62.254777 62.893238 
L -51.592357 62.25134 
L -40.929936 61.609442 
L -30.267516 60.806532 
L -19.605096 60.003606 
L -8.942675 59.330425 
L 1.719745 58.787106 
L 12.382166 58.244148 
L 23.044586 57.938019 
L 33.707006 58.275933 
L 44.369427 59.594159 
L 55.031847 62.019501 
L 65.694268 64.297444 
L 76.356688 65.064187 
L 87.019108 66.023346 
L 97.681529 66.886408 
L 108.343949 65.713324 
L 119.006369 67.028176 
L 129.66879 68.211828 
L 140.33121 68.779572 
L 150.993631 67.998067 
L 161.656051 67.890946 
L 172.318471 68.010371 
L 182.980892 68.68725 
L 193.643312 69.670493 
L 204.305732 74.008965 
L 214.968153 79.022913 
L 225.630573 82.549024 
L 236.292994 85.097245 
L 246.955414 87.660171 
L 257.617834 88.803791 
L 268.280255 90.143694 
L 278.942675 93.147529 
L 289.605096 94.636452 
L 300.267516 97.678251 
L 310.929936 100.047255 
L 321.592357 102.42321 
L 332.254777 107.358437 
L 342.917197 108.59646 
L 353.579618 109.763365 
L 364.242038 110.62199 
L 374.904459 111.380427 
L 385.566879 112.631236 
L 396.229299 113.322645 
L 406.89172 114.047911 
L 417.55414 115.720507 
L 428.216561 115.8442 
L 438.878981 116.162023 
L 449.541401 116.742033 
L 460.203822 117.35726 
L 470.866242 117.749954 
L 481.528662 117.987229 
L 492.191083 118.453577 
L 502.853503 118.714854 
L 513.515924 118.797746 
L 524.178344 118.975003 
L 534.840764 119.145583 
L 545.503185 119.484581 
L 556.165605 119.489195 
L 566.828025 119.511005 
L 577.490446 119.527365 
L 588.152866 119.517383 
L 598.815287 119.598367 
L 609.477707 119.318601 
L 620.140127 119.354357 
L 630.802548 119.370882 
L 641.464968 119.428098 
L 652.127389 119.406142 
L 662.789809 119.340599 
L 673.452229 119.124246 
L 684.11465 118.837196 
L 694.77707 118.740187 
L 705.43949 118.606859 
L 716.101911 118.461908 
L 726.764331 118.368891 
L 737.426752 118.198965 
L 748.089172 117.97694 
L 758.751592 117.820168 
z
" clip-path="url(#p57852f2a9c)" style="fill: #cee6c1; stroke: #cee6c1"/>
   </g>
   <g id="PolyCollection_4">
    <path d="M 758.751592 117.820168 
L 758.751592 117.820168 
L 748.089172 118.553597 
L 737.426752 118.994996 
L 726.764331 119.129617 
L 716.101911 119.479299 
L 705.43949 119.893943 
L 694.77707 120.292734 
L 684.11465 120.825955 
L 673.452229 121.435253 
L 662.789809 121.977754 
L 652.127389 122.54104 
L 641.464968 123.052 
L 630.802548 123.667668 
L 620.140127 124.112983 
L 609.477707 124.46401 
L 598.815287 125.100311 
L 588.152866 125.2736 
L 577.490446 125.382373 
L 566.828025 125.618152 
L 556.165605 125.808172 
L 545.503185 126.015595 
L 534.840764 125.79402 
L 524.178344 125.501183 
L 513.515924 125.277178 
L 502.853503 124.833058 
L 492.191083 124.502188 
L 481.528662 124.041732 
L 470.866242 123.491653 
L 460.203822 123.046369 
L 449.541401 122.745677 
L 438.878981 123.01806 
L 428.216561 122.937855 
L 417.55414 123.234827 
L 406.89172 123.179086 
L 396.229299 122.84033 
L 385.566879 122.761246 
L 374.904459 122.591143 
L 364.242038 122.266391 
L 353.579618 121.569624 
L 342.917197 120.442853 
L 332.254777 119.990121 
L 321.592357 119.797125 
L 310.929936 119.537661 
L 300.267516 118.81876 
L 289.605096 118.338459 
L 278.942675 117.369654 
L 268.280255 116.855179 
L 257.617834 116.031716 
L 246.955414 114.833885 
L 236.292994 114.311504 
L 225.630573 114.240852 
L 214.968153 113.622653 
L 204.305732 112.801255 
L 193.643312 111.859265 
L 182.980892 110.792366 
L 172.318471 109.764217 
L 161.656051 107.796781 
L 150.993631 104.959976 
L 140.33121 101.277639 
L 129.66879 96.75946 
L 119.006369 95.546075 
L 108.343949 91.8526 
L 97.681529 90.056869 
L 87.019108 89.186686 
L 76.356688 88.901371 
L 65.694268 88.330293 
L 55.031847 86.759768 
L 44.369427 84.847073 
L 33.707006 82.471948 
L 23.044586 81.963721 
L 12.382166 80.370107 
L 1.719745 79.353981 
L -8.942675 78.413012 
L -19.605096 79.398048 
L -30.267516 80.565043 
L -40.929936 81.326929 
L -51.592357 82.065535 
L -62.254777 82.938672 
L -72.917197 83.74606 
L -83.579618 84.576302 
L -94.242038 85.381218 
L -104.904459 85.924094 
L -115.566879 86.554615 
L -126.229299 87.169085 
L -136.89172 87.758273 
L -147.55414 88.273201 
L -158.216561 88.703212 
L -168.878981 89.060662 
L -179.541401 89.416381 
L -190.203822 89.82562 
L -200.866242 90.262937 
L -211.528662 90.442255 
L -222.191083 90.635164 
L -232.853503 90.854012 
L -243.515924 91.05352 
L -254.178344 91.248935 
L -264.840764 91.371633 
L -275.503185 91.496199 
L -286.165605 91.295143 
L -296.828025 91.356503 
L -307.490446 91.424389 
L -318.152866 91.459522 
L -328.815287 91.464634 
L -339.477707 91.477735 
L -350.140127 91.52281 
L -360.802548 91.528147 
L -371.464968 91.418806 
L -382.127389 91.281408 
L -392.789809 91.155779 
L -403.452229 91.014818 
L -414.11465 90.897286 
L -424.77707 90.651691 
L -435.43949 90.387938 
L -446.101911 90.153188 
L -456.764331 89.923924 
L -467.426752 89.698143 
L -478.089172 89.790468 
L -488.751592 89.878015 
L -499.414013 89.765861 
L -510.076433 89.674437 
L -520.738854 89.970773 
L -531.401274 89.813392 
L -542.063694 89.698041 
L -552.726115 89.5776 
L -563.388535 89.446459 
L -574.050955 89.319558 
L -584.713376 89.113088 
L -595.375796 88.879724 
L -606.038217 88.642296 
L -616.700637 88.361415 
L -627.363057 88.116893 
L -638.025478 87.883819 
L -648.687898 87.646524 
L -659.350318 87.377933 
L -670.012739 87.118563 
L -680.675159 86.85548 
L -691.33758 86.686216 
L -702 86.495183 
L -712.66242 86.356363 
L -723.324841 86.342838 
L -733.987261 86.140198 
L -744.649682 85.948589 
L -755.312102 85.778822 
L -765.974522 85.59434 
L -776.636943 85.636938 
L -787.299363 85.436496 
L -797.961783 85.545554 
L -808.624204 85.670117 
L -819.286624 85.818621 
L -829.949045 85.93162 
L -840.611465 86.01648 
L -947.235669 85.978838 
L -1053.859873 85.387042 
L -1160.484076 86.4213 
L -1267.10828 86.26966 
L -1373.732484 90.523838 
L -1480.356688 89.669444 
L -1586.980892 87.731855 
L -1693.605096 87.361929 
L -1800.229299 89.620397 
L -1906.853503 89.333879 
L -2013.477707 87.594866 
L -2120.101911 87.627137 
L -2226.726115 90.349486 
L -2333.350318 92.551176 
L -2439.974522 94.161956 
L -2546.598726 94.223996 
L -2653.22293 94.372808 
L -2759.847134 96.982265 
L -2866.471338 100.931156 
L -2973.095541 102.910082 
L -3079.719745 105.841538 
L -3186.343949 106.565616 
L -3292.968153 108.170291 
L -3399.592357 107.533972 
L -3506.216561 106.348094 
L -3506.216561 62.685009 
L -3506.216561 62.685009 
L -3399.592357 63.910036 
L -3292.968153 65.389 
L -3186.343949 65.965939 
L -3079.719745 66.043797 
L -2973.095541 62.604768 
L -2866.471338 60.018857 
L -2759.847134 55.169347 
L -2653.22293 53.226713 
L -2546.598726 50.737026 
L -2439.974522 50.647028 
L -2333.350318 53.120197 
L -2226.726115 54.67761 
L -2120.101911 53.497711 
L -2013.477707 53.174351 
L -1906.853503 53.156883 
L -1800.229299 51.730921 
L -1693.605096 50.288506 
L -1586.980892 50.480497 
L -1480.356688 49.903665 
L -1373.732484 49.373016 
L -1267.10828 48.205708 
L -1160.484076 48.465111 
L -1053.859873 48.568625 
L -947.235669 48.384156 
L -840.611465 47.708138 
L -829.949045 47.660991 
L -819.286624 47.613844 
L -808.624204 47.672013 
L -797.961783 47.835468 
L -787.299363 47.998914 
L -776.636943 48.086541 
L -765.974522 48.174129 
L -755.312102 48.28409 
L -744.649682 48.416365 
L -733.987261 48.548665 
L -723.324841 48.553852 
L -712.66242 48.559065 
L -702 48.641579 
L -691.33758 48.801417 
L -680.675159 48.961254 
L -670.012739 49.130583 
L -659.350318 49.299909 
L -648.687898 49.470164 
L -638.025478 49.6413 
L -627.363057 49.812456 
L -616.700637 49.945137 
L -606.038217 50.07782 
L -595.375796 50.111847 
L -584.713376 50.047223 
L -574.050955 49.982598 
L -563.388535 50.055189 
L -552.726115 50.127781 
L -542.063694 50.168042 
L -531.401274 50.176005 
L -520.738854 50.183982 
L -510.076433 50.041695 
L -499.414013 49.899395 
L -488.751592 49.805013 
L -478.089172 49.758525 
L -467.426752 49.712039 
L -456.764331 49.865561 
L -446.101911 50.019101 
L -435.43949 50.176169 
L -424.77707 50.336804 
L -414.11465 50.497429 
L -403.452229 50.583467 
L -392.789809 50.669515 
L -382.127389 50.721496 
L -371.464968 50.739417 
L -360.802548 50.757341 
L -350.140127 50.694235 
L -339.477707 50.631142 
L -328.815287 50.565857 
L -318.152866 50.498422 
L -307.490446 50.430966 
L -296.828025 50.570776 
L -286.165605 50.710585 
L -275.503185 50.815466 
L -264.840764 50.885428 
L -254.178344 50.955381 
L -243.515924 50.792952 
L -232.853503 50.63053 
L -222.191083 50.440717 
L -211.528662 50.223512 
L -200.866242 50.006305 
L -190.203822 49.670164 
L -179.541401 49.334011 
L -168.878981 48.875157 
L -158.216561 48.293569 
L -147.55414 47.712003 
L -136.89172 47.363643 
L -126.229299 47.015271 
L -115.566879 46.682628 
L -104.904459 46.365683 
L -94.242038 46.048738 
L -83.579618 45.832023 
L -72.917197 45.615318 
L -62.254777 45.515737 
L -51.592357 45.53334 
L -40.929936 45.550921 
L -30.267516 44.823212 
L -19.605096 44.031641 
L -8.942675 43.59759 
L 1.719745 43.520995 
L 12.382166 43.444391 
L 23.044586 43.268702 
L 33.707006 43.092999 
L 44.369427 43.199534 
L 55.031847 43.588245 
L 65.694268 43.976985 
L 76.356688 44.451445 
L 87.019108 44.92591 
L 97.681529 45.421626 
L 108.343949 43.58712 
L 119.006369 44.208984 
L 129.66879 44.861564 
L 140.33121 45.585606 
L 150.993631 46.063879 
L 161.656051 46.457891 
L 172.318471 46.829601 
L 182.980892 47.03539 
L 193.643312 47.138289 
L 204.305732 47.692918 
L 214.968153 48.748413 
L 225.630573 49.819689 
L 236.292994 52.024511 
L 246.955414 54.228042 
L 257.617834 55.753476 
L 268.280255 57.123909 
L 278.942675 58.19713 
L 289.605096 60.67175 
L 300.267516 62.057854 
L 310.929936 62.881825 
L 321.592357 63.450063 
L 332.254777 64.063766 
L 342.917197 65.508661 
L 353.579618 66.915245 
L 364.242038 68.073923 
L 374.904459 69.471608 
L 385.566879 70.886078 
L 396.229299 76.552553 
L 406.89172 82.211232 
L 417.55414 88.580611 
L 428.216561 91.373767 
L 438.878981 93.20733 
L 449.541401 94.940217 
L 460.203822 96.315537 
L 470.866242 96.843635 
L 481.528662 98.916277 
L 492.191083 100.543632 
L 502.853503 100.948312 
L 513.515924 101.472021 
L 524.178344 103.895347 
L 534.840764 106.444981 
L 545.503185 106.891582 
L 556.165605 108.118032 
L 566.828025 109.398383 
L 577.490446 110.606541 
L 588.152866 111.839625 
L 598.815287 112.894045 
L 609.477707 113.506762 
L 620.140127 114.135902 
L 630.802548 114.488403 
L 641.464968 114.929202 
L 652.127389 115.441843 
L 662.789809 115.580817 
L 673.452229 115.782433 
L 684.11465 115.955634 
L 694.77707 116.128361 
L 705.43949 116.394552 
L 716.101911 116.571133 
L 726.764331 116.601021 
L 737.426752 116.711884 
L 748.089172 117.050841 
L 758.751592 117.820168 
z
" clip-path="url(#p57852f2a9c)" style="fill: url(#hbff0732045); stroke: #000000; stroke-opacity: 0.3"/>
   </g>
   <g id="PolyCollection_5">
    <path d="M 756.085987 117.43238 
L 756.085987 117.669229 
L 756.139299 117.67099 
L 756.192611 117.673632 
L 756.245924 117.677682 
L 756.299236 117.678739 
L 756.352548 117.680147 
L 756.40586 117.684374 
L 756.459172 117.686663 
L 756.512484 117.691241 
L 756.565796 117.691241 
L 756.619108 117.689304 
L 756.67242 117.691946 
L 756.725732 117.695996 
L 756.779045 117.699518 
L 756.832357 117.702512 
L 756.885669 117.707442 
L 756.938981 117.711669 
L 756.992293 117.717832 
L 757.045605 117.720473 
L 757.098917 117.723467 
L 757.152229 117.72558 
L 757.205541 117.727693 
L 757.258854 117.729278 
L 757.312166 117.733857 
L 757.365478 117.738435 
L 757.41879 117.742133 
L 757.472102 117.748649 
L 757.525414 117.754812 
L 757.578726 117.76168 
L 757.632038 117.768372 
L 757.68535 117.773478 
L 757.738662 117.784044 
L 757.791975 117.789503 
L 757.845287 117.796019 
L 757.898599 117.801125 
L 757.951911 117.808169 
L 758.005223 117.81627 
L 758.058535 117.821553 
L 758.111847 117.825779 
L 758.165159 117.829653 
L 758.218471 117.834231 
L 758.271783 117.839338 
L 758.325096 117.844093 
L 758.378408 117.850256 
L 758.43172 117.855539 
L 758.485032 117.858181 
L 758.538344 117.862231 
L 758.591656 117.867338 
L 758.644968 117.873325 
L 758.69828 117.879136 
L 758.751592 117.885652 
L 761.417197 117.890406 
L 764.082803 117.895865 
L 766.748408 117.900444 
L 769.414013 117.904318 
L 772.079618 117.905726 
L 774.745223 117.910657 
L 777.410828 117.914883 
L 780.076433 117.91911 
L 782.742038 117.920166 
L 785.407643 117.924393 
L 788.073248 117.927739 
L 790.738854 117.93355 
L 793.404459 117.933902 
L 796.070064 117.931789 
L 798.735669 117.933021 
L 801.401274 117.936015 
L 804.066879 117.937248 
L 806.732484 117.940241 
L 809.398089 117.942883 
L 812.063694 117.943235 
L 814.729299 117.945876 
L 817.394904 117.944468 
L 820.06051 117.943939 
L 822.726115 117.945524 
L 825.39172 117.9457 
L 828.057325 117.944996 
L 830.72293 117.946053 
L 833.388535 117.947813 
L 836.05414 117.950455 
L 838.719745 117.95204 
L 841.38535 117.954505 
L 844.050955 117.957147 
L 846.716561 117.95609 
L 849.382166 117.956442 
L 852.047771 117.959084 
L 854.713376 117.960668 
L 857.378981 117.961021 
L 860.044586 117.962606 
L 862.710191 117.965247 
L 865.375796 117.967184 
L 868.041401 117.969121 
L 870.707006 117.967888 
L 873.372611 117.971586 
L 876.038217 117.974756 
L 878.703822 117.978278 
L 881.369427 117.977222 
L 884.035032 117.979335 
L 886.700637 117.982681 
L 889.366242 117.984794 
L 892.031847 117.986202 
L 894.697452 117.988139 
L 897.363057 117.990077 
L 900.028662 117.992894 
L 902.694268 117.998705 
L 905.359873 118.001875 
L 908.025478 118.005749 
L 910.691083 118.012441 
L 913.356688 118.019132 
L 916.022293 118.023183 
L 918.687898 118.032868 
L 921.353503 118.040616 
L 924.019108 118.047484 
L 926.684713 118.057169 
L 929.350318 118.064213 
L 932.015924 118.073194 
L 934.681529 118.078125 
L 937.347134 118.084992 
L 940.012739 118.091508 
L 940.012739 118.079886 
L 940.012739 118.079886 
L 937.347134 118.075131 
L 934.681529 118.070376 
L 932.015924 118.066502 
L 929.350318 118.059282 
L 926.684713 118.053295 
L 924.019108 118.044666 
L 921.353503 118.039031 
L 918.687898 118.031107 
L 916.022293 118.020365 
L 913.356688 118.015258 
L 910.691083 118.006982 
L 908.025478 117.999234 
L 905.359873 117.993775 
L 902.694268 117.989548 
L 900.028662 117.981976 
L 897.363057 117.971586 
L 894.697452 117.964543 
L 892.031847 117.95926 
L 889.366242 117.954505 
L 886.700637 117.948518 
L 884.035032 117.942354 
L 881.369427 117.936896 
L 878.703822 117.935487 
L 876.038217 117.928619 
L 873.372611 117.922808 
L 870.707006 117.919286 
L 868.041401 117.918934 
L 865.375796 117.915236 
L 862.710191 117.910657 
L 860.044586 117.906607 
L 857.378981 117.903437 
L 854.713376 117.9015 
L 852.047771 117.899035 
L 849.382166 117.895337 
L 846.716561 117.892695 
L 844.050955 117.892695 
L 841.38535 117.888997 
L 838.719745 117.885828 
L 836.05414 117.88301 
L 833.388535 117.878432 
L 830.72293 117.87491 
L 828.057325 117.87174 
L 825.39172 117.871388 
L 822.726115 117.869451 
L 820.06051 117.866281 
L 817.394904 117.86452 
L 814.729299 117.863992 
L 812.063694 117.859589 
L 809.398089 117.856948 
L 806.732484 117.853074 
L 804.066879 117.849376 
L 801.401274 117.846734 
L 798.735669 117.841804 
L 796.070064 117.83969 
L 793.404459 117.839867 
L 790.738854 117.836345 
L 788.073248 117.829653 
L 785.407643 117.823666 
L 782.742038 117.817855 
L 780.076433 117.814156 
L 777.410828 117.807993 
L 774.745223 117.800597 
L 772.079618 117.795314 
L 769.414013 117.792144 
L 766.748408 117.787214 
L 764.082803 117.78105 
L 761.417197 117.775063 
L 758.751592 117.769076 
L 758.69828 117.761856 
L 758.644968 117.75446 
L 758.591656 117.746536 
L 758.538344 117.740548 
L 758.485032 117.735265 
L 758.43172 117.730687 
L 758.378408 117.723115 
L 758.325096 117.715719 
L 758.271783 117.709555 
L 758.218471 117.702335 
L 758.165159 117.6967 
L 758.111847 117.691417 
L 758.058535 117.686135 
L 758.005223 117.678739 
L 757.951911 117.669229 
L 757.898599 117.661129 
L 757.845287 117.654085 
L 757.791975 117.645809 
L 757.738662 117.637708 
L 757.68535 117.625381 
L 757.632038 117.618866 
L 757.578726 117.609885 
L 757.525414 117.600552 
L 757.472102 117.592628 
L 757.41879 117.583823 
L 757.365478 117.57854 
L 757.312166 117.571496 
L 757.258854 117.565157 
L 757.205541 117.562163 
L 757.152229 117.559169 
L 757.098917 117.555647 
L 757.045605 117.550893 
L 756.992293 117.544905 
L 756.938981 117.536453 
L 756.885669 117.530818 
L 756.832357 117.523246 
L 756.779045 117.517435 
L 756.725732 117.512328 
L 756.67242 117.506869 
L 756.619108 117.502114 
L 756.565796 117.491372 
L 756.512484 117.481335 
L 756.459172 117.474819 
L 756.40586 117.470769 
L 756.352548 117.46443 
L 756.299236 117.456329 
L 756.245924 117.445059 
L 756.192611 117.440833 
L 756.139299 117.43555 
L 756.085987 117.43238 
z
" clip-path="url(#p57852f2a9c)" style="fill: url(#hbff0732045); stroke: #000000; stroke-opacity: 0.3"/>
   </g>
   <g id="PolyCollection_6">
    <path d="M 756.085987 145.630569 
L 756.085987 386.552981 
L 756.139299 386.552981 
L 756.192611 386.552981 
L 756.245924 386.552981 
L 756.299236 386.552981 
L 756.352548 386.552981 
L 756.40586 386.552981 
L 756.459172 386.552981 
L 756.512484 386.552981 
L 756.565796 386.552981 
L 756.619108 386.552981 
L 756.67242 386.552981 
L 756.725732 386.552981 
L 756.779045 386.552981 
L 756.832357 386.552981 
L 756.885669 386.552981 
L 756.938981 386.552981 
L 756.992293 386.552981 
L 757.045605 386.552981 
L 757.098917 386.552981 
L 757.152229 386.552981 
L 757.205541 386.552981 
L 757.258854 386.552981 
L 757.312166 386.552981 
L 757.365478 386.552981 
L 757.41879 386.552981 
L 757.472102 386.552981 
L 757.525414 386.552981 
L 757.578726 386.552981 
L 757.632038 386.552981 
L 757.68535 386.552981 
L 757.738662 386.552981 
L 757.791975 386.552981 
L 757.845287 386.552981 
L 757.898599 386.552981 
L 757.951911 386.552981 
L 758.005223 386.552981 
L 758.058535 386.552981 
L 758.111847 386.552981 
L 758.165159 386.552981 
L 758.218471 386.552981 
L 758.271783 386.552981 
L 758.325096 386.552981 
L 758.378408 386.552981 
L 758.43172 386.552981 
L 758.485032 386.552981 
L 758.538344 386.552981 
L 758.591656 386.552981 
L 758.644968 386.552981 
L 758.69828 386.552981 
L 758.751592 386.552981 
L 761.417197 386.552981 
L 764.082803 386.552981 
L 766.748408 386.552981 
L 769.414013 386.552981 
L 772.079618 386.552981 
L 774.745223 386.552981 
L 777.410828 386.552981 
L 780.076433 386.552981 
L 782.742038 386.552981 
L 785.407643 386.552981 
L 788.073248 386.552981 
L 790.738854 386.552981 
L 793.404459 386.552981 
L 796.070064 386.552981 
L 798.735669 386.552981 
L 801.401274 386.552981 
L 804.066879 386.552981 
L 806.732484 386.552981 
L 809.398089 386.552981 
L 812.063694 386.552981 
L 814.729299 386.552981 
L 817.394904 386.552981 
L 820.06051 386.552981 
L 822.726115 386.552981 
L 825.39172 386.552981 
L 828.057325 386.552981 
L 830.72293 386.552981 
L 833.388535 386.552981 
L 836.05414 386.552981 
L 838.719745 386.552981 
L 841.38535 386.552981 
L 844.050955 386.552981 
L 846.716561 386.552981 
L 849.382166 386.552981 
L 852.047771 386.552981 
L 854.713376 386.552981 
L 857.378981 386.552981 
L 860.044586 386.552981 
L 862.710191 386.552981 
L 865.375796 386.552981 
L 868.041401 386.552981 
L 870.707006 386.552981 
L 873.372611 386.552981 
L 876.038217 386.552981 
L 878.703822 386.552981 
L 881.369427 386.552981 
L 884.035032 386.552981 
L 886.700637 386.552981 
L 889.366242 386.552981 
L 892.031847 386.552981 
L 894.697452 386.552981 
L 897.363057 386.552981 
L 900.028662 386.552981 
L 902.694268 386.552981 
L 905.359873 386.552981 
L 908.025478 386.552981 
L 910.691083 386.552981 
L 913.356688 386.552981 
L 916.022293 386.552981 
L 918.687898 386.552981 
L 921.353503 386.552981 
L 924.019108 386.552981 
L 926.684713 386.552981 
L 929.350318 386.552981 
L 932.015924 386.552981 
L 934.681529 386.552981 
L 937.347134 386.552981 
L 940.012739 386.552981 
L 940.012739 145.677427 
L 940.012739 145.677427 
L 937.347134 145.67335 
L 934.681529 145.672856 
L 932.015924 145.673523 
L 929.350318 145.670243 
L 926.684713 145.667812 
L 924.019108 145.665357 
L 921.353503 145.664316 
L 918.687898 145.663179 
L 916.022293 145.660211 
L 913.356688 145.660367 
L 910.691083 145.657506 
L 908.025478 145.655506 
L 905.359873 145.656422 
L 902.694268 145.656683 
L 900.028662 145.654991 
L 897.363057 145.653895 
L 894.697452 145.653515 
L 892.031847 145.652964 
L 889.366242 145.652173 
L 886.700637 145.651153 
L 884.035032 145.650543 
L 881.369427 145.65 
L 878.703822 145.649566 
L 876.038217 145.648703 
L 873.372611 145.647515 
L 870.707006 145.647405 
L 868.041401 145.64796 
L 865.375796 145.647772 
L 862.710191 145.647577 
L 860.044586 145.647389 
L 857.378981 145.647197 
L 854.713376 145.647007 
L 852.047771 145.646812 
L 849.382166 145.646624 
L 846.716561 145.64643 
L 844.050955 145.646242 
L 841.38535 145.64605 
L 838.719745 145.645859 
L 836.05414 145.645668 
L 833.388535 145.645476 
L 830.72293 145.645284 
L 828.057325 145.645096 
L 825.39172 145.644903 
L 822.726115 145.644713 
L 820.06051 145.644522 
L 817.394904 145.644332 
L 814.729299 145.64414 
L 812.063694 145.643946 
L 809.398089 145.643756 
L 806.732484 145.643568 
L 804.066879 145.643374 
L 801.401274 145.643183 
L 798.735669 145.642993 
L 796.070064 145.6428 
L 793.404459 145.64261 
L 790.738854 145.642421 
L 788.073248 145.642226 
L 785.407643 145.642038 
L 782.742038 145.641845 
L 780.076433 145.641655 
L 777.410828 145.641463 
L 774.745223 145.641272 
L 772.079618 145.641083 
L 769.414013 145.640891 
L 766.748408 145.640701 
L 764.082803 145.64051 
L 761.417197 145.640318 
L 758.751592 145.640128 
L 758.69828 145.639935 
L 758.644968 145.639745 
L 758.591656 145.639553 
L 758.538344 145.639364 
L 758.485032 145.639172 
L 758.43172 145.638979 
L 758.378408 145.63879 
L 758.325096 145.638596 
L 758.271783 145.638405 
L 758.218471 145.638215 
L 758.165159 145.638024 
L 758.111847 145.637835 
L 758.058535 145.63764 
L 758.005223 145.637451 
L 757.951911 145.63726 
L 757.898599 145.63707 
L 757.845287 145.636878 
L 757.791975 145.636688 
L 757.738662 145.636493 
L 757.68535 145.636304 
L 757.632038 145.636112 
L 757.578726 145.635921 
L 757.525414 145.635731 
L 757.472102 145.635542 
L 757.41879 145.635348 
L 757.365478 145.635158 
L 757.312166 145.634965 
L 757.258854 145.634776 
L 757.205541 145.634583 
L 757.152229 145.634392 
L 757.098917 145.634204 
L 757.045605 145.634012 
L 756.992293 145.633818 
L 756.938981 145.633629 
L 756.885669 145.633438 
L 756.832357 145.633247 
L 756.779045 145.633055 
L 756.725732 145.632865 
L 756.67242 145.632674 
L 756.619108 145.632482 
L 756.565796 145.632291 
L 756.512484 145.632099 
L 756.459172 145.631909 
L 756.40586 145.631718 
L 756.352548 145.631526 
L 756.299236 145.631334 
L 756.245924 145.631143 
L 756.192611 145.630953 
L 756.139299 145.630761 
L 756.085987 145.630569 
z
" clip-path="url(#p57852f2a9c)" style="fill: #b8e2f4; stroke: #b8e2f4"/>
   </g>
   <g id="PolyCollection_7">
    <defs>
     <path id="m74db7f9c2c" d="M 756.085987 -71.504957 
L 756.085987 -70.369431 
L 756.139299 -70.369239 
L 756.192611 -70.369047 
L 756.245924 -70.368857 
L 756.299236 -70.368666 
L 756.352548 -70.368474 
L 756.40586 -70.368282 
L 756.459172 -70.368091 
L 756.512484 -70.367901 
L 756.565796 -70.367709 
L 756.619108 -70.367518 
L 756.67242 -70.367326 
L 756.725732 -70.367135 
L 756.779045 -70.366945 
L 756.832357 -70.366753 
L 756.885669 -70.366562 
L 756.938981 -70.366371 
L 756.992293 -70.366182 
L 757.045605 -70.365988 
L 757.098917 -70.365796 
L 757.152229 -70.365608 
L 757.205541 -70.365417 
L 757.258854 -70.365224 
L 757.312166 -70.365035 
L 757.365478 -70.364842 
L 757.41879 -70.364652 
L 757.472102 -70.364458 
L 757.525414 -70.364269 
L 757.578726 -70.364079 
L 757.632038 -70.363888 
L 757.68535 -70.363696 
L 757.738662 -70.363507 
L 757.791975 -70.363312 
L 757.845287 -70.363122 
L 757.898599 -70.36293 
L 757.951911 -70.36274 
L 758.005223 -70.362549 
L 758.058535 -70.36236 
L 758.111847 -70.362165 
L 758.165159 -70.361976 
L 758.218471 -70.361785 
L 758.271783 -70.361595 
L 758.325096 -70.361404 
L 758.378408 -70.36121 
L 758.43172 -70.361021 
L 758.485032 -70.360828 
L 758.538344 -70.360636 
L 758.591656 -70.360447 
L 758.644968 -70.360255 
L 758.69828 -70.360065 
L 758.751592 -70.359872 
L 761.417197 -70.359682 
L 764.082803 -70.35949 
L 766.748408 -70.359299 
L 769.414013 -70.359109 
L 772.079618 -70.358917 
L 774.745223 -70.358728 
L 777.410828 -70.358537 
L 780.076433 -70.358345 
L 782.742038 -70.358155 
L 785.407643 -70.357962 
L 788.073248 -70.357774 
L 790.738854 -70.357579 
L 793.404459 -70.35739 
L 796.070064 -70.3572 
L 798.735669 -70.357007 
L 801.401274 -70.356817 
L 804.066879 -70.356626 
L 806.732484 -70.356432 
L 809.398089 -70.356244 
L 812.063694 -70.356054 
L 814.729299 -70.35586 
L 817.394904 -70.355668 
L 820.06051 -70.355478 
L 822.726115 -70.355287 
L 825.39172 -70.355097 
L 828.057325 -70.354904 
L 830.72293 -70.354716 
L 833.388535 -70.354524 
L 836.05414 -70.354332 
L 838.719745 -70.354141 
L 841.38535 -70.35395 
L 844.050955 -70.353758 
L 846.716561 -70.35357 
L 849.382166 -70.353376 
L 852.047771 -70.353188 
L 854.713376 -70.352993 
L 857.378981 -70.352803 
L 860.044586 -70.352611 
L 862.710191 -70.352423 
L 865.375796 -70.352228 
L 868.041401 -70.35204 
L 870.707006 -70.352595 
L 873.372611 -70.352485 
L 876.038217 -70.351297 
L 878.703822 -70.350434 
L 881.369427 -70.35 
L 884.035032 -70.349457 
L 886.700637 -70.348847 
L 889.366242 -70.347827 
L 892.031847 -70.347036 
L 894.697452 -70.346485 
L 897.363057 -70.346105 
L 900.028662 -70.345009 
L 902.694268 -70.343317 
L 905.359873 -70.343578 
L 908.025478 -70.344494 
L 910.691083 -70.342494 
L 913.356688 -70.339633 
L 916.022293 -70.339789 
L 918.687898 -70.336821 
L 921.353503 -70.335684 
L 924.019108 -70.334643 
L 926.684713 -70.332188 
L 929.350318 -70.329757 
L 932.015924 -70.326477 
L 934.681529 -70.327144 
L 937.347134 -70.32665 
L 940.012739 -70.322573 
L 940.012739 -71.159349 
L 940.012739 -71.159349 
L 937.347134 -71.164433 
L 934.681529 -71.168055 
L 932.015924 -71.169872 
L 929.350318 -71.175917 
L 926.684713 -71.180954 
L 924.019108 -71.186462 
L 921.353503 -71.188443 
L 918.687898 -71.191799 
L 916.022293 -71.197984 
L 913.356688 -71.200078 
L 910.691083 -71.204801 
L 908.025478 -71.209151 
L 905.359873 -71.211079 
L 902.694268 -71.212673 
L 900.028662 -71.217093 
L 897.363057 -71.221368 
L 894.697452 -71.223936 
L 892.031847 -71.226571 
L 889.366242 -71.229119 
L 886.700637 -71.232243 
L 884.035032 -71.236094 
L 881.369427 -71.23908 
L 878.703822 -71.240429 
L 876.038217 -71.244199 
L 873.372611 -71.247839 
L 870.707006 -71.250586 
L 868.041401 -71.250634 
L 865.375796 -71.253185 
L 862.710191 -71.256427 
L 860.044586 -71.25848 
L 857.378981 -71.260304 
L 854.713376 -71.26162 
L 852.047771 -71.263043 
L 849.382166 -71.26513 
L 846.716561 -71.267412 
L 844.050955 -71.268472 
L 841.38535 -71.269996 
L 838.719745 -71.271779 
L 836.05414 -71.273526 
L 833.388535 -71.275913 
L 830.72293 -71.278238 
L 828.057325 -71.280396 
L 825.39172 -71.281035 
L 822.726115 -71.282336 
L 820.06051 -71.283965 
L 817.394904 -71.285119 
L 814.729299 -71.285458 
L 812.063694 -71.287299 
L 809.398089 -71.288519 
L 806.732484 -71.290368 
L 804.066879 -71.291308 
L 801.401274 -71.292668 
L 798.735669 -71.294129 
L 796.070064 -71.294772 
L 793.404459 -71.294953 
L 790.738854 -71.29641 
L 788.073248 -71.299527 
L 785.407643 -71.302348 
L 782.742038 -71.30517 
L 780.076433 -71.307287 
L 777.410828 -71.310099 
L 774.745223 -71.313758 
L 772.079618 -71.317138 
L 769.414013 -71.318968 
L 766.748408 -71.322033 
L 764.082803 -71.325748 
L 761.417197 -71.329204 
L 758.751592 -71.332133 
L 758.69828 -71.336241 
L 758.644968 -71.338613 
L 758.591656 -71.342024 
L 758.538344 -71.345873 
L 758.485032 -71.349353 
L 758.43172 -71.353067 
L 758.378408 -71.357345 
L 758.325096 -71.361369 
L 758.271783 -71.364876 
L 758.218471 -71.36872 
L 758.165159 -71.372259 
L 758.111847 -71.375198 
L 758.058535 -71.378841 
L 758.005223 -71.382342 
L 757.951911 -71.386297 
L 757.898599 -71.389584 
L 757.845287 -71.392375 
L 757.791975 -71.395764 
L 757.738662 -71.399239 
L 757.68535 -71.404064 
L 757.632038 -71.407642 
L 757.578726 -71.411267 
L 757.525414 -71.415058 
L 757.472102 -71.419235 
L 757.41879 -71.423172 
L 757.365478 -71.42665 
L 757.312166 -71.430156 
L 757.258854 -71.43454 
L 757.205541 -71.437352 
L 757.152229 -71.439704 
L 757.098917 -71.441732 
L 757.045605 -71.444979 
L 756.992293 -71.448867 
L 756.938981 -71.453261 
L 756.885669 -71.456977 
L 756.832357 -71.462626 
L 756.779045 -71.466805 
L 756.725732 -71.469406 
L 756.67242 -71.47224 
L 756.619108 -71.475563 
L 756.565796 -71.478204 
L 756.512484 -71.481026 
L 756.459172 -71.483998 
L 756.40586 -71.486486 
L 756.352548 -71.489495 
L 756.299236 -71.493193 
L 756.245924 -71.496347 
L 756.192611 -71.49855 
L 756.139299 -71.501772 
L 756.085987 -71.504957 
z
" style="stroke: #8d5591"/>
    </defs>
    <g clip-path="url(#p57852f2a9c)">
     <use xlink:href="#m74db7f9c2c" x="0" y="216" style="fill: #8d5591; stroke: #8d5591"/>
    </g>
   </g>
   <g id="PolyCollection_8">
    <defs>
     <path id="meae3a7a4cc" d="M 756.085987 -98.45021 
L 756.085987 -71.504957 
L 756.139299 -71.501772 
L 756.192611 -71.49855 
L 756.245924 -71.496347 
L 756.299236 -71.493193 
L 756.352548 -71.489495 
L 756.40586 -71.486486 
L 756.459172 -71.483998 
L 756.512484 -71.481026 
L 756.565796 -71.478204 
L 756.619108 -71.475563 
L 756.67242 -71.47224 
L 756.725732 -71.469406 
L 756.779045 -71.466805 
L 756.832357 -71.462626 
L 756.885669 -71.456977 
L 756.938981 -71.453261 
L 756.992293 -71.448867 
L 757.045605 -71.444979 
L 757.098917 -71.441732 
L 757.152229 -71.439704 
L 757.205541 -71.437352 
L 757.258854 -71.43454 
L 757.312166 -71.430156 
L 757.365478 -71.42665 
L 757.41879 -71.423172 
L 757.472102 -71.419235 
L 757.525414 -71.415058 
L 757.578726 -71.411267 
L 757.632038 -71.407642 
L 757.68535 -71.404064 
L 757.738662 -71.399239 
L 757.791975 -71.395764 
L 757.845287 -71.392375 
L 757.898599 -71.389584 
L 757.951911 -71.386297 
L 758.005223 -71.382342 
L 758.058535 -71.378841 
L 758.111847 -71.375198 
L 758.165159 -71.372259 
L 758.218471 -71.36872 
L 758.271783 -71.364876 
L 758.325096 -71.361369 
L 758.378408 -71.357345 
L 758.43172 -71.353067 
L 758.485032 -71.349353 
L 758.538344 -71.345873 
L 758.591656 -71.342024 
L 758.644968 -71.338613 
L 758.69828 -71.336241 
L 758.751592 -71.332133 
L 761.417197 -71.329204 
L 764.082803 -71.325748 
L 766.748408 -71.322033 
L 769.414013 -71.318968 
L 772.079618 -71.317138 
L 774.745223 -71.313758 
L 777.410828 -71.310099 
L 780.076433 -71.307287 
L 782.742038 -71.30517 
L 785.407643 -71.302348 
L 788.073248 -71.299527 
L 790.738854 -71.29641 
L 793.404459 -71.294953 
L 796.070064 -71.294772 
L 798.735669 -71.294129 
L 801.401274 -71.292668 
L 804.066879 -71.291308 
L 806.732484 -71.290368 
L 809.398089 -71.288519 
L 812.063694 -71.287299 
L 814.729299 -71.285458 
L 817.394904 -71.285119 
L 820.06051 -71.283965 
L 822.726115 -71.282336 
L 825.39172 -71.281035 
L 828.057325 -71.280396 
L 830.72293 -71.278238 
L 833.388535 -71.275913 
L 836.05414 -71.273526 
L 838.719745 -71.271779 
L 841.38535 -71.269996 
L 844.050955 -71.268472 
L 846.716561 -71.267412 
L 849.382166 -71.26513 
L 852.047771 -71.263043 
L 854.713376 -71.26162 
L 857.378981 -71.260304 
L 860.044586 -71.25848 
L 862.710191 -71.256427 
L 865.375796 -71.253185 
L 868.041401 -71.250634 
L 870.707006 -71.250586 
L 873.372611 -71.247839 
L 876.038217 -71.244199 
L 878.703822 -71.240429 
L 881.369427 -71.23908 
L 884.035032 -71.236094 
L 886.700637 -71.232243 
L 889.366242 -71.229119 
L 892.031847 -71.226571 
L 894.697452 -71.223936 
L 897.363057 -71.221368 
L 900.028662 -71.217093 
L 902.694268 -71.212673 
L 905.359873 -71.211079 
L 908.025478 -71.209151 
L 910.691083 -71.204801 
L 913.356688 -71.200078 
L 916.022293 -71.197984 
L 918.687898 -71.191799 
L 921.353503 -71.188443 
L 924.019108 -71.186462 
L 926.684713 -71.180954 
L 929.350318 -71.175917 
L 932.015924 -71.169872 
L 934.681529 -71.168055 
L 937.347134 -71.164433 
L 940.012739 -71.159349 
L 940.012739 -97.914298 
L 940.012739 -97.914298 
L 937.347134 -97.919865 
L 934.681529 -97.925779 
L 932.015924 -97.930243 
L 929.350318 -97.938332 
L 926.684713 -97.944799 
L 924.019108 -97.953967 
L 921.353503 -97.96014 
L 918.687898 -97.968127 
L 916.022293 -97.978236 
L 913.356688 -97.982728 
L 910.691083 -97.990228 
L 908.025478 -97.997425 
L 905.359873 -98.002042 
L 902.694268 -98.005853 
L 900.028662 -98.012668 
L 897.363057 -98.019395 
L 894.697452 -98.024229 
L 892.031847 -98.027879 
L 889.366242 -98.031435 
L 886.700637 -98.035538 
L 884.035032 -98.040697 
L 881.369427 -98.043776 
L 878.703822 -98.043808 
L 876.038217 -98.049461 
L 873.372611 -98.05395 
L 870.707006 -98.057017 
L 868.041401 -98.056213 
L 865.375796 -98.059419 
L 862.710191 -98.063397 
L 860.044586 -98.066729 
L 857.378981 -98.069511 
L 854.713376 -98.070824 
L 852.047771 -98.072862 
L 849.382166 -98.075696 
L 846.716561 -98.077501 
L 844.050955 -98.077741 
L 841.38535 -98.080629 
L 838.719745 -98.084268 
L 836.05414 -98.087033 
L 833.388535 -98.089803 
L 830.72293 -98.092398 
L 828.057325 -98.094571 
L 825.39172 -98.094588 
L 822.726115 -98.096086 
L 820.06051 -98.098564 
L 817.394904 -98.099546 
L 814.729299 -98.09882 
L 812.063694 -98.102372 
L 809.398089 -98.104131 
L 806.732484 -98.107419 
L 804.066879 -98.110329 
L 801.401274 -98.112986 
L 798.735669 -98.117019 
L 796.070064 -98.119192 
L 793.404459 -98.119489 
L 790.738854 -98.121791 
L 788.073248 -98.127943 
L 785.407643 -98.133169 
L 782.742038 -98.138407 
L 780.076433 -98.141183 
L 777.410828 -98.146393 
L 774.745223 -98.152597 
L 772.079618 -98.157308 
L 769.414013 -98.159944 
L 766.748408 -98.164036 
L 764.082803 -98.169371 
L 761.417197 -98.174468 
L 758.751592 -98.179832 
L 758.69828 -98.186816 
L 758.644968 -98.193116 
L 758.591656 -98.199897 
L 758.538344 -98.205584 
L 758.485032 -98.20975 
L 758.43172 -98.213612 
L 758.378408 -98.219654 
L 758.325096 -98.226138 
L 758.271783 -98.231336 
L 758.218471 -98.237369 
L 758.165159 -98.242386 
L 758.111847 -98.247004 
L 758.058535 -98.252094 
L 758.005223 -98.257905 
L 757.951911 -98.266271 
L 757.898599 -98.273487 
L 757.845287 -98.279645 
L 757.791975 -98.286897 
L 757.738662 -98.293812 
L 757.68535 -98.305132 
L 757.632038 -98.31087 
L 757.578726 -98.318116 
L 757.525414 -98.325865 
L 757.472102 -98.332696 
L 757.41879 -98.340227 
L 757.365478 -98.34438 
L 757.312166 -98.349953 
L 757.258854 -98.355477 
L 757.205541 -98.357597 
L 757.152229 -98.36051 
L 757.098917 -98.36317 
L 757.045605 -98.367002 
L 756.992293 -98.371273 
L 756.938981 -98.37809 
L 756.885669 -98.382423 
L 756.832357 -98.389208 
L 756.779045 -98.393944 
L 756.725732 -98.397738 
L 756.67242 -98.402423 
L 756.619108 -98.406 
L 756.565796 -98.410225 
L 756.512484 -98.415065 
L 756.459172 -98.420538 
L 756.40586 -98.424314 
L 756.352548 -98.428946 
L 756.299236 -98.433382 
L 756.245924 -98.439448 
L 756.192611 -98.443088 
L 756.139299 -98.447429 
L 756.085987 -98.45021 
z
" style="stroke: #cee6c1"/>
    </defs>
    <g clip-path="url(#p57852f2a9c)">
     <use xlink:href="#meae3a7a4cc" x="0" y="216" style="fill: #cee6c1; stroke: #cee6c1"/>
    </g>
   </g>
   <g id="matplotlib.axis_1">
    <g id="xtick_1">
     <g id="line2d_1">
      <defs>
       <path id="m2f57bf5fbb" d="M 0 0 
L 0 3.5 
" style="stroke: #000000; stroke-width: 0.8"/>
      </defs>
      <g>
       <use xlink:href="#m2f57bf5fbb" x="225.630573" y="192.24" style="stroke: #000000; stroke-width: 0.8"/>
      </g>
     </g>
     <g id="text_1">
      <text style="font: 10px 'DejaVu Sans', 'Bitstream Vera Sans', 'Computer Modern Sans Serif', 'Lucida Grande', 'Verdana', 'Geneva', 'Lucid', 'Arial', 'Helvetica', 'Avant Garde', sans-serif; text-anchor: middle" x="225.630573" y="206.838437" transform="rotate(-0 225.630573 206.838437)">10</text>
     </g>
    </g>
    <g id="xtick_2">
     <g id="line2d_2">
      <g>
       <use xlink:href="#m2f57bf5fbb" x="332.254777" y="192.24" style="stroke: #000000; stroke-width: 0.8"/>
      </g>
     </g>
     <g id="text_2">
      <text style="font: 10px 'DejaVu Sans', 'Bitstream Vera Sans', 'Computer Modern Sans Serif', 'Lucida Grande', 'Verdana', 'Geneva', 'Lucid', 'Arial', 'Helvetica', 'Avant Garde', sans-serif; text-anchor: middle" x="332.254777" y="206.838437" transform="rotate(-0 332.254777 206.838437)">8</text>
     </g>
    </g>
    <g id="xtick_3">
     <g id="line2d_3">
      <g>
       <use xlink:href="#m2f57bf5fbb" x="438.878981" y="192.24" style="stroke: #000000; stroke-width: 0.8"/>
      </g>
     </g>
     <g id="text_3">
      <text style="font: 10px 'DejaVu Sans', 'Bitstream Vera Sans', 'Computer Modern Sans Serif', 'Lucida Grande', 'Verdana', 'Geneva', 'Lucid', 'Arial', 'Helvetica', 'Avant Garde', sans-serif; text-anchor: middle" x="438.878981" y="206.838437" transform="rotate(-0 438.878981 206.838437)">6</text>
     </g>
    </g>
    <g id="xtick_4">
     <g id="line2d_4">
      <g>
       <use xlink:href="#m2f57bf5fbb" x="545.503185" y="192.24" style="stroke: #000000; stroke-width: 0.8"/>
      </g>
     </g>
     <g id="text_4">
      <text style="font: 10px 'DejaVu Sans', 'Bitstream Vera Sans', 'Computer Modern Sans Serif', 'Lucida Grande', 'Verdana', 'Geneva', 'Lucid', 'Arial', 'Helvetica', 'Avant Garde', sans-serif; text-anchor: middle" x="545.503185" y="206.838437" transform="rotate(-0 545.503185 206.838437)">4</text>
     </g>
    </g>
    <g id="xtick_5">
     <g id="line2d_5">
      <g>
       <use xlink:href="#m2f57bf5fbb" x="652.127389" y="192.24" style="stroke: #000000; stroke-width: 0.8"/>
      </g>
     </g>
     <g id="text_5">
      <text style="font: 10px 'DejaVu Sans', 'Bitstream Vera Sans', 'Computer Modern Sans Serif', 'Lucida Grande', 'Verdana', 'Geneva', 'Lucid', 'Arial', 'Helvetica', 'Avant Garde', sans-serif; text-anchor: middle" x="652.127389" y="206.838437" transform="rotate(-0 652.127389 206.838437)">2</text>
     </g>
    </g>
    <g id="xtick_6">
     <g id="line2d_6">
      <g>
       <use xlink:href="#m2f57bf5fbb" x="753.420382" y="192.24" style="stroke: #000000; stroke-width: 0.8"/>
      </g>
     </g>
    </g>
    <g id="xtick_7">
     <g id="line2d_7">
      <g>
       <use xlink:href="#m2f57bf5fbb" x="758.751592" y="192.24" style="stroke: #000000; stroke-width: 0.8"/>
      </g>
     </g>
     <g id="text_6">
      <text style="font: 10px 'DejaVu Sans', 'Bitstream Vera Sans', 'Computer Modern Sans Serif', 'Lucida Grande', 'Verdana', 'Geneva', 'Lucid', 'Arial', 'Helvetica', 'Avant Garde', sans-serif; text-anchor: middle" x="758.751592" y="206.838437" transform="rotate(-0 758.751592 206.838437)">1950</text>
     </g>
    </g>
    <g id="xtick_8">
     <g id="line2d_8">
      <g>
       <use xlink:href="#m2f57bf5fbb" x="838.719745" y="192.24" style="stroke: #000000; stroke-width: 0.8"/>
      </g>
     </g>
     <g id="text_7">
      <text style="font: 10px 'DejaVu Sans', 'Bitstream Vera Sans', 'Computer Modern Sans Serif', 'Lucida Grande', 'Verdana', 'Geneva', 'Lucid', 'Arial', 'Helvetica', 'Avant Garde', sans-serif; text-anchor: middle" x="838.719745" y="206.838437" transform="rotate(-0 838.719745 206.838437)">1980</text>
     </g>
    </g>
    <g id="xtick_9">
     <g id="line2d_9">
      <g>
       <use xlink:href="#m2f57bf5fbb" x="892.031847" y="192.24" style="stroke: #000000; stroke-width: 0.8"/>
      </g>
     </g>
     <g id="text_8">
      <text style="font: 10px 'DejaVu Sans', 'Bitstream Vera Sans', 'Computer Modern Sans Serif', 'Lucida Grande', 'Verdana', 'Geneva', 'Lucid', 'Arial', 'Helvetica', 'Avant Garde', sans-serif; text-anchor: middle" x="892.031847" y="206.838437" transform="rotate(-0 892.031847 206.838437)">2000</text>
     </g>
    </g>
    <g id="xtick_10">
     <g id="line2d_10">
      <g>
       <use xlink:href="#m2f57bf5fbb" x="945.343949" y="192.24" style="stroke: #000000; stroke-width: 0.8"/>
      </g>
     </g>
     <g id="text_9">
      <text style="font: 10px 'DejaVu Sans', 'Bitstream Vera Sans', 'Computer Modern Sans Serif', 'Lucida Grande', 'Verdana', 'Geneva', 'Lucid', 'Arial', 'Helvetica', 'Avant Garde', sans-serif; text-anchor: middle" x="945.343949" y="206.838437" transform="rotate(-0 945.343949 206.838437)">2020</text>
     </g>
    </g>
   </g>
   <g id="matplotlib.axis_2">
    <g id="ytick_1">
     <g id="line2d_11">
      <defs>
       <path id="m17eec3a7ec" d="M 0 0 
L -3.5 0 
" style="stroke: #000000; stroke-width: 0.8"/>
      </defs>
      <g>
       <use xlink:href="#m17eec3a7ec" x="135" y="192.24" style="stroke: #000000; stroke-width: 0.8"/>
      </g>
     </g>
     <g id="text_10">
      <text style="font: 10px 'DejaVu Sans', 'Bitstream Vera Sans', 'Computer Modern Sans Serif', 'Lucida Grande', 'Verdana', 'Geneva', 'Lucid', 'Arial', 'Helvetica', 'Avant Garde', sans-serif; text-anchor: end" x="128" y="196.039219" transform="rotate(-0 128 196.039219)">20</text>
     </g>
    </g>
    <g id="ytick_2">
     <g id="line2d_12">
      <g>
       <use xlink:href="#m17eec3a7ec" x="135" y="153.377404" style="stroke: #000000; stroke-width: 0.8"/>
      </g>
     </g>
     <g id="text_11">
      <text style="font: 10px 'DejaVu Sans', 'Bitstream Vera Sans', 'Computer Modern Sans Serif', 'Lucida Grande', 'Verdana', 'Geneva', 'Lucid', 'Arial', 'Helvetica', 'Avant Garde', sans-serif; text-anchor: end" x="128" y="157.176623" transform="rotate(-0 128 157.176623)">24</text>
     </g>
    </g>
    <g id="ytick_3">
     <g id="line2d_13">
      <g>
       <use xlink:href="#m17eec3a7ec" x="135" y="114.514808" style="stroke: #000000; stroke-width: 0.8"/>
      </g>
     </g>
     <g id="text_12">
      <text style="font: 10px 'DejaVu Sans', 'Bitstream Vera Sans', 'Computer Modern Sans Serif', 'Lucida Grande', 'Verdana', 'Geneva', 'Lucid', 'Arial', 'Helvetica', 'Avant Garde', sans-serif; text-anchor: end" x="128" y="118.314027" transform="rotate(-0 128 118.314027)">28</text>
     </g>
    </g>
    <g id="ytick_4">
     <g id="line2d_14">
      <g>
       <use xlink:href="#m17eec3a7ec" x="135" y="75.652212" style="stroke: #000000; stroke-width: 0.8"/>
      </g>
     </g>
     <g id="text_13">
      <text style="font: 10px 'DejaVu Sans', 'Bitstream Vera Sans', 'Computer Modern Sans Serif', 'Lucida Grande', 'Verdana', 'Geneva', 'Lucid', 'Arial', 'Helvetica', 'Avant Garde', sans-serif; text-anchor: end" x="128" y="79.45143" transform="rotate(-0 128 79.45143)">32</text>
     </g>
    </g>
    <g id="ytick_5">
     <g id="line2d_15">
      <g>
       <use xlink:href="#m17eec3a7ec" x="135" y="36.789616" style="stroke: #000000; stroke-width: 0.8"/>
      </g>
     </g>
     <g id="text_14">
      <text style="font: 10px 'DejaVu Sans', 'Bitstream Vera Sans', 'Computer Modern Sans Serif', 'Lucida Grande', 'Verdana', 'Geneva', 'Lucid', 'Arial', 'Helvetica', 'Avant Garde', sans-serif; text-anchor: end" x="128" y="40.588834" transform="rotate(-0 128 40.588834)">36</text>
     </g>
    </g>
    <g id="text_15">
     <text style="font: 10px 'Times New Roman'; text-anchor: middle" x="109.135938" y="109.08" transform="rotate(-90 109.135938 109.08)">Ice volume (10^6 Gt)</text>
    </g>
   </g>
   <g id="line2d_16">
    <path d="M 758.751592 117.820168 
L 652.127389 119.406142 
L 630.802548 119.370882 
L 609.477707 119.318601 
L 598.815287 119.598367 
L 577.490446 119.527365 
L 545.503185 119.484581 
L 534.840764 119.145583 
L 492.191083 118.453577 
L 481.528662 117.987229 
L 470.866242 117.749954 
L 460.203822 117.35726 
L 438.878981 116.162023 
L 428.216561 115.8442 
L 417.55414 115.720507 
L 406.89172 114.047911 
L 385.566879 112.631236 
L 374.904459 111.380427 
L 353.579618 109.763365 
L 332.254777 107.358437 
L 321.592357 102.42321 
L 300.267516 97.678251 
L 289.605096 94.636452 
L 278.942675 93.147529 
L 268.280255 90.143694 
L 257.617834 88.803791 
L 246.955414 87.660171 
L 225.630573 82.549024 
L 214.968153 79.022913 
L 204.305732 74.008965 
L 193.643312 69.670493 
L 182.980892 68.68725 
L 172.318471 68.010371 
L 161.656051 67.890946 
L 150.993631 67.998067 
L 140.33121 68.779572 
L 129.66879 68.211828 
L 119.006369 67.028176 
L 108.343949 65.713324 
L 97.681529 66.886408 
L 65.694268 64.297444 
L 55.031847 62.019501 
L 44.369427 59.594159 
L 33.707006 58.275933 
L 23.044586 57.938019 
L 12.382166 58.244148 
L -1 58.925695 
L -1 58.925695 
" clip-path="url(#p57852f2a9c)" style="fill: none; stroke: #0b0b0b; stroke-width: 1.5; stroke-linecap: square"/>
   </g>
   <g id="line2d_17">
    <path d="M 756.085987 117.54979 
L 756.139299 117.552571 
L 756.192611 117.556912 
L 756.245924 117.560552 
L 756.299236 117.566618 
L 756.352548 117.571054 
L 756.40586 117.575686 
L 756.459172 117.579462 
L 756.512484 117.584935 
L 756.565796 117.589775 
L 756.619108 117.594 
L 756.67242 117.597577 
L 756.725732 117.602262 
L 756.779045 117.606056 
L 756.832357 117.610792 
L 756.885669 117.617577 
L 756.938981 117.62191 
L 756.992293 117.628727 
L 757.045605 117.632998 
L 757.098917 117.63683 
L 757.152229 117.63949 
L 757.205541 117.642403 
L 757.258854 117.644523 
L 757.312166 117.650047 
L 757.365478 117.65562 
L 757.41879 117.659773 
L 757.472102 117.667304 
L 757.525414 117.674135 
L 757.578726 117.681884 
L 757.632038 117.68913 
L 757.68535 117.694868 
L 757.738662 117.706188 
L 757.791975 117.713103 
L 757.845287 117.720355 
L 757.898599 117.726513 
L 757.951911 117.733729 
L 758.005223 117.742095 
L 758.058535 117.747906 
L 758.111847 117.752996 
L 758.165159 117.757614 
L 758.218471 117.762631 
L 758.271783 117.768664 
L 758.325096 117.773862 
L 758.378408 117.780346 
L 758.43172 117.786388 
L 758.485032 117.79025 
L 758.538344 117.794416 
L 758.591656 117.800103 
L 758.644968 117.806884 
L 758.69828 117.813184 
L 758.751592 117.820168 
L 761.417197 117.825532 
L 764.082803 117.830629 
L 766.748408 117.835964 
L 769.414013 117.840056 
L 772.079618 117.842692 
L 774.745223 117.847403 
L 777.410828 117.853607 
L 780.076433 117.858817 
L 782.742038 117.861593 
L 785.407643 117.866831 
L 788.073248 117.872057 
L 790.738854 117.878209 
L 793.404459 117.880511 
L 796.070064 117.880808 
L 798.735669 117.882981 
L 801.401274 117.887014 
L 804.066879 117.889671 
L 806.732484 117.892581 
L 809.398089 117.895869 
L 812.063694 117.897628 
L 814.729299 117.90118 
L 817.394904 117.900454 
L 820.06051 117.901436 
L 822.726115 117.903914 
L 825.39172 117.905412 
L 828.057325 117.905429 
L 830.72293 117.907602 
L 833.388535 117.910197 
L 836.05414 117.912967 
L 838.719745 117.915732 
L 841.38535 117.919371 
L 844.050955 117.922259 
L 846.716561 117.922499 
L 849.382166 117.924304 
L 852.047771 117.927138 
L 854.713376 117.929176 
L 857.378981 117.930489 
L 860.044586 117.933271 
L 862.710191 117.936603 
L 865.375796 117.940581 
L 868.041401 117.943787 
L 870.707006 117.942983 
L 873.372611 117.94605 
L 876.038217 117.950539 
L 878.703822 117.956192 
L 881.369427 117.956224 
L 884.035032 117.959303 
L 886.700637 117.964462 
L 889.366242 117.968565 
L 892.031847 117.972121 
L 894.697452 117.975771 
L 897.363057 117.980605 
L 900.028662 117.987332 
L 902.694268 117.994147 
L 905.359873 117.997958 
L 908.025478 118.002575 
L 910.691083 118.009772 
L 913.356688 118.017272 
L 916.022293 118.021764 
L 918.687898 118.031873 
L 921.353503 118.03986 
L 924.019108 118.046033 
L 926.684713 118.055201 
L 929.350318 118.061668 
L 932.015924 118.069757 
L 934.681529 118.074221 
L 937.347134 118.080135 
L 940.012739 118.085702 
" clip-path="url(#p57852f2a9c)" style="fill: none; stroke: #2626ff; stroke-width: 1.5; stroke-linecap: square"/>
   </g>
   <g id="line2d_18">
    <path d="M 761.417197 119.511962 
L 940.012739 119.511962 
L -1 119.511962 
L -1 119.511962 
" clip-path="url(#p57852f2a9c)" style="fill: none; stroke-dasharray: 5.55,2.4; stroke-dashoffset: 0; stroke: #ff0001; stroke-width: 1.5"/>
   </g>
   <g id="LineCollection_1">
    <path d="M 940.012739 141.140208 
L 940.012739 119.138757 
" clip-path="url(#p57852f2a9c)" style="fill: none; stroke: #d57eeb; stroke-width: 2"/>
   </g>
   <g id="line2d_19">
    <defs>
     <path id="m6a0bcbb588" d="M 5 0 
L -5 -0 
" style="stroke: #d57eeb"/>
    </defs>
    <g clip-path="url(#p57852f2a9c)">
     <use xlink:href="#m6a0bcbb588" x="940.012739" y="141.140208" style="fill: #d57eeb; stroke: #d57eeb"/>
    </g>
   </g>
   <g id="line2d_20">
    <g clip-path="url(#p57852f2a9c)">
     <use xlink:href="#m6a0bcbb588" x="940.012739" y="119.138757" style="fill: #d57eeb; stroke: #d57eeb"/>
    </g>
   </g>
   <g id="line2d_21">
    <path d="M 758.751592 192.24 
L 758.751592 25.92 
" clip-path="url(#p57852f2a9c)" style="fill: none; stroke-dasharray: 3.7,1.6; stroke-dashoffset: 0; stroke: #808080; stroke-opacity: 0.5"/>
   </g>
   <g id="patch_3">
    <path d="M 135 192.24 
L 135 25.92 
" style="fill: none; stroke: #000000; stroke-width: 0.8; stroke-linejoin: miter; stroke-linecap: square"/>
   </g>
   <g id="patch_4">
    <path d="M 972 192.24 
L 972 25.92 
" style="fill: none"/>
   </g>
   <g id="patch_5">
    <path d="M 135 192.24 
L 972 192.24 
" style="fill: none; stroke: #000000; stroke-width: 0.8; stroke-linejoin: miter; stroke-linecap: square"/>
   </g>
   <g id="patch_6">
    <path d="M 135 25.92 
L 972 25.92 
" style="fill: none"/>
   </g>
   <g id="legend_1">
    <g id="line2d_22">
     <path d="M 730.498438 56.965937 
L 740.498438 56.965937 
L 750.498438 56.965937 
" style="fill: none; stroke: #0b0b0b; stroke-width: 1.5; stroke-linecap: square"/>
    </g>
    <g id="text_16">
     <text style="font: 10px 'DejaVu Sans', 'Bitstream Vera Sans', 'Computer Modern Sans Serif', 'Lucida Grande', 'Verdana', 'Geneva', 'Lucid', 'Arial', 'Helvetica', 'Avant Garde', sans-serif; text-anchor: start" x="758.498438" y="60.465937" transform="rotate(-0 758.498438 60.465937)">Creel et al. (2023)</text>
    </g>
    <g id="patch_7">
     <path d="M 730.498438 75.144063 
L 750.498438 75.144063 
L 750.498438 68.144063 
L 730.498438 68.144063 
z
" style="fill: #b8e2f4; stroke: #b8e2f4; stroke-linejoin: miter"/>
    </g>
    <g id="text_17">
     <text style="font: 10px 'DejaVu Sans', 'Bitstream Vera Sans', 'Computer Modern Sans Serif', 'Lucida Grande', 'Verdana', 'Geneva', 'Lucid', 'Arial', 'Helvetica', 'Avant Garde', sans-serif; text-anchor: start" x="758.498438" y="75.144063" transform="rotate(-0 758.498438 75.144063)">Antarctic ice sheet</text>
    </g>
    <g id="patch_8">
     <path d="M 730.498438 89.822187 
L 750.498438 89.822187 
L 750.498438 82.822187 
L 730.498438 82.822187 
z
" style="fill: #8d5591; stroke: #8d5591; stroke-linejoin: miter"/>
    </g>
    <g id="text_18">
     <text style="font: 10px 'DejaVu Sans', 'Bitstream Vera Sans', 'Computer Modern Sans Serif', 'Lucida Grande', 'Verdana', 'Geneva', 'Lucid', 'Arial', 'Helvetica', 'Avant Garde', sans-serif; text-anchor: start" x="758.498438" y="89.822187" transform="rotate(-0 758.498438 89.822187)">Glaciers</text>
    </g>
    <g id="patch_9">
     <path d="M 730.498438 104.500313 
L 750.498438 104.500313 
L 750.498438 97.500313 
L 730.498438 97.500313 
z
" style="fill: #cee6c1; stroke: #cee6c1; stroke-linejoin: miter"/>
    </g>
    <g id="text_19">
     <text style="font: 10px 'DejaVu Sans', 'Bitstream Vera Sans', 'Computer Modern Sans Serif', 'Lucida Grande', 'Verdana', 'Geneva', 'Lucid', 'Arial', 'Helvetica', 'Avant Garde', sans-serif; text-anchor: start" x="758.498438" y="104.500313" transform="rotate(-0 758.498438 104.500313)">Greenland Ice Sheet</text>
    </g>
    <g id="patch_10">
     <path d="M 730.498438 119.178438 
L 750.498438 119.178438 
L 750.498438 112.178438 
L 730.498438 112.178438 
z
" style="fill: url(#hbff0732045); stroke: #000000; stroke-opacity: 0.3; stroke-linejoin: miter"/>
    </g>
    <g id="text_20">
     <text style="font: 10px 'DejaVu Sans', 'Bitstream Vera Sans', 'Computer Modern Sans Serif', 'Lucida Grande', 'Verdana', 'Geneva', 'Lucid', 'Arial', 'Helvetica', 'Avant Garde', sans-serif; text-anchor: start" x="758.498438" y="119.178438" transform="rotate(-0 758.498438 119.178438)">90% credible interval</text>
    </g>
    <g id="line2d_23">
     <path d="M 730.498438 130.356562 
L 740.498438 130.356562 
L 750.498438 130.356562 
" style="fill: none; stroke: #2626ff; stroke-width: 1.5; stroke-linecap: square"/>
    </g>
    <g id="text_21">
     <text style="font: 10px 'DejaVu Sans', 'Bitstream Vera Sans', 'Computer Modern Sans Serif', 'Lucida Grande', 'Verdana', 'Geneva', 'Lucid', 'Arial', 'Helvetica', 'Avant Garde', sans-serif; text-anchor: start" x="758.498438" y="133.856562" transform="rotate(-0 758.498438 133.856562)">Frederikse et al. (2020)</text>
    </g>
    <g id="line2d_24">
     <path d="M 730.498438 145.034687 
L 740.498438 145.034687 
L 750.498438 145.034687 
" style="fill: none; stroke-dasharray: 5.55,2.4; stroke-dashoffset: 0; stroke: #ff0001; stroke-width: 1.5"/>
    </g>
    <g id="text_22">
     <text style="font: 10px 'DejaVu Sans', 'Bitstream Vera Sans', 'Computer Modern Sans Serif', 'Lucida Grande', 'Verdana', 'Geneva', 'Lucid', 'Arial', 'Helvetica', 'Avant Garde', sans-serif; text-anchor: start" x="758.498438" y="148.534687" transform="rotate(-0 758.498438 148.534687)">Baseline bound</text>
    </g>
    <g id="LineCollection_2">
     <path d="M 740.498438 164.712812 
L 740.498438 154.712812 
" style="fill: none; stroke: #d57eeb; stroke-width: 2"/>
    </g>
    <g id="line2d_25">
     <g>
      <use xlink:href="#m6a0bcbb588" x="740.498438" y="164.712812" style="fill: #d57eeb; stroke: #d57eeb"/>
     </g>
    </g>
    <g id="line2d_26">
     <g>
      <use xlink:href="#m6a0bcbb588" x="740.498438" y="154.712812" style="fill: #d57eeb; stroke: #d57eeb"/>
     </g>
    </g>
    <g id="text_23">
     <text style="font: 10px 'DejaVu Sans', 'Bitstream Vera Sans', 'Computer Modern Sans Serif', 'Lucida Grande', 'Verdana', 'Geneva', 'Lucid', 'Arial', 'Helvetica', 'Avant Garde', sans-serif; text-anchor: start" x="758.498438" y="163.212812" transform="rotate(-0 758.498438 163.212812)">Committed change with credible interval</text>
    </g>
   </g>
  </g>
 </g>
 <defs>
  <clipPath id="p57852f2a9c">
   <rect x="135" y="25.92" width="837" height="166.32"/>
  </clipPath>
 </defs>
 <defs>
  <pattern id="hbff0732045" patternUnits="userSpaceOnUse" x="0" y="0" width="72" height="72">
   <rect x="0" y="0" width="73" height="73" fill="none"/>
   <path d="M -36 36 
L 36 -36 
M -32 40 
L 40 -32 
M -28 44 
L 44 -28 
M -24 48 
L 48 -24 
M -20 52 
L 52 -20 
M -16 56 
L 56 -16 
M -12 60 
L 60 -12 
M -8 64 
L 64 -8 
M -4 68 
L 68 -4 
M 0 72 
L 72 0 
M 4 76 
L 76 4 
M 8 80 
L 80 8 
M 12 84 
L 84 12 
M 16 88 
L 88 16 
M 20 92 
L 92 20 
M 24 96 
L 96 24 
M 28 100 
L 100 28 
M 32 104 
L 104 32 
M 36 108 
L 108 36 
" style="fill: #000000; stroke: #000000; stroke-width: 1.0; stroke-linecap: butt; stroke-linejoin: miter; stroke-opacity: 0.3"/>
  </pattern>
 </defs>
</svg>
