<?xml version="1.0" encoding="utf-8" standalone="no"?>
<!DOCTYPE svg PUBLIC "-//W3C//DTD SVG 1.1//EN"
  "http://www.w3.org/Graphics/SVG/1.1/DTD/svg11.dtd">
<svg xmlns:xlink="http://www.w3.org/1999/xlink" width="1080pt" height="216pt" viewBox="0 0 1080 216" xmlns="http://www.w3.org/2000/svg" version="1.1">
 <metadata>
  <rdf:RDF xmlns:dc="http://purl.org/dc/elements/1.1/" xmlns:cc="http://creativecommons.org/ns#" xmlns:rdf="http://www.w3.org/1999/02/22-rdf-syntax-ns#">
   <cc:Work>
    <dc:type rdf:resource="http://purl.org/dc/dcmitype/StillImage"/>
    <dc:date>2026-01-03T23:12:04.870800</dc:date>
    <dc:format>image/svg+xml</dc:format>
    <dc:creator>
     <cc:Agent>
      <dc:title>Matplotlib v3.8.4, https://matplotlib.org/</dc:title>
     </cc:Agent>
    </dc:creator>
   </cc:Work>
  </rdf:RDF>
 </metadata>
 <defs>
  <style type="text/css">*{stroke-linejoin: round; stroke-linecap: butt}</style>
 </defs>
 <g id="figure_1">
  <g id="patch_1">
   <path d="M 0 216 
L 1080 216 
L 1080 0 
L 0 0 
z
" style="fill: #ffffff"/>
  </g>
  <g id="axes_1">
   <g id="patch_2">
    <path d="M 135 192.24 
L 972 192.24 
L 972 25.92 
L 135 25.92 
z
" style="fill: #ffffff"/>
   </g>
   <g id="matplotlib.axis_1">
    <g id="xtick_1">
     <g id="line2d_1">
      <defs>
       <path id="med635b1cb7" d="M 0 0 
L 0 3.5 
" style="stroke: #000000; stroke-width: 0.8"/>
      </defs>
      <g>
       <use xlink:href="#med635b1cb7" x="650.076923" y="192.24" style="stroke: #000000; stroke-width: 0.8"/>
      </g>
     </g>
     <g id="text_1">
      <text style="font: 10px 'DejaVu Sans', 'Bitstream Vera Sans', 'Computer Modern Sans Serif', 'Lucida Grande', 'Verdana', 'Geneva', 'Lucid', 'Arial', 'Helvetica', 'Avant Garde', sans-serif; text-anchor: middle" x="650.076923" y="206.838437" transform="rotate(-0 650.076923 206.838437)">1850</text>
     </g>
    </g>
    <g id="xtick_2">
     <g id="line2d_2">
      <g>
       <use xlink:href="#med635b1cb7" x="739.5" y="192.24" style="stroke: #000000; stroke-width: 0.8"/>
      </g>
     </g>
     <g id="text_2">
      <text style="font: 10px 'DejaVu Sans', 'Bitstream Vera Sans', 'Computer Modern Sans Serif', 'Lucida Grande', 'Verdana', 'Geneva', 'Lucid', 'Arial', 'Helvetica', 'Avant Garde', sans-serif; text-anchor: middle" x="739.5" y="206.838437" transform="rotate(-0 739.5 206.838437)">1900</text>
     </g>
    </g>
    <g id="xtick_3">
     <g id="line2d_3">
      <g>
       <use xlink:href="#med635b1cb7" x="828.923077" y="192.24" style="stroke: #000000; stroke-width: 0.8"/>
      </g>
     </g>
     <g id="text_3">
      <text style="font: 10px 'DejaVu Sans', 'Bitstream Vera Sans', 'Computer Modern Sans Serif', 'Lucida Grande', 'Verdana', 'Geneva', 'Lucid', 'Arial', 'Helvetica', 'Avant Garde', sans-serif; text-anchor: middle" x="828.923077" y="206.838437" transform="rotate(-0 828.923077 206.838437)">1950</text>
     </g>
    </g>
    <g id="xtick_4">
     <g id="line2d_4">
      <g>
       <use xlink:href="#med635b1cb7" x="891.519231" y="192.24" style="stroke: #000000; stroke-width: 0.8"/>
      </g>
     </g>
     <g id="text_4">
      <text style="font: 10px 'DejaVu Sans', 'Bitstream Vera Sans', 'Computer Modern Sans Serif', 'Lucida Grande', 'Verdana', 'Geneva', 'Lucid', 'Arial', 'Helvetica', 'Avant Garde', sans-serif; text-anchor: middle" x="891.519231" y="206.838437" transform="rotate(-0 891.519231 206.838437)">1985</text>
     </g>
    </g>
    <g id="xtick_5">
     <g id="line2d_5">
      <g>
       <use xlink:href="#med635b1cb7" x="954.115385" y="192.24" style="stroke: #000000; stroke-width: 0.8"/>
      </g>
     </g>
     <g id="text_5">
      <text style="font: 10px 'DejaVu Sans', 'Bitstream Vera Sans', 'Computer Modern Sans Serif', 'Lucida Grande', 'Verdana', 'Geneva', 'Lucid', 'Arial', 'Helvetica', 'Avant Garde', sans-serif; text-anchor: middle" x="954.115385" y="206.838437" transform="rotate(-0 954.115385 206.838437)">2020</text>
     </g>
    </g>
   </g>
   <g id="matplotlib.axis_2">
    <g id="ytick_1">
     <g id="line2d_6">
      <defs>
       <path id="m9d5f0daf88" d="M 0 0 
L -3.5 0 
" style="stroke: #000000; stroke-width: 0.8"/>
      </defs>
      <g>
       <use xlink:href="#m9d5f0daf88" x="135" y="181.752968" style="stroke: #000000; stroke-width: 0.8"/>
      </g>
     </g>
     <g id="text_6">
      <text style="font: 10px 'DejaVu Sans', 'Bitstream Vera Sans', 'Computer Modern Sans Serif', 'Lucida Grande', 'Verdana', 'Geneva', 'Lucid', 'Arial', 'Helvetica', 'Avant Garde', sans-serif; text-anchor: end" x="128" y="185.552187" transform="rotate(-0 128 185.552187)">36.0</text>
     </g>
    </g>
    <g id="ytick_2">
     <g id="line2d_7">
      <g>
       <use xlink:href="#m9d5f0daf88" x="135" y="139.965375" style="stroke: #000000; stroke-width: 0.8"/>
      </g>
     </g>
     <g id="text_7">
      <text style="font: 10px 'DejaVu Sans', 'Bitstream Vera Sans', 'Computer Modern Sans Serif', 'Lucida Grande', 'Verdana', 'Geneva', 'Lucid', 'Arial', 'Helvetica', 'Avant Garde', sans-serif; text-anchor: end" x="128" y="143.764594" transform="rotate(-0 128 143.764594)">37.5</text>
     </g>
    </g>
    <g id="ytick_3">
     <g id="line2d_8">
      <g>
       <use xlink:href="#m9d5f0daf88" x="135" y="98.177782" style="stroke: #000000; stroke-width: 0.8"/>
      </g>
     </g>
     <g id="text_8">
      <text style="font: 10px 'DejaVu Sans', 'Bitstream Vera Sans', 'Computer Modern Sans Serif', 'Lucida Grande', 'Verdana', 'Geneva', 'Lucid', 'Arial', 'Helvetica', 'Avant Garde', sans-serif; text-anchor: end" x="128" y="101.977001" transform="rotate(-0 128 101.977001)">39.0</text>
     </g>
    </g>
    <g id="ytick_4">
     <g id="line2d_9">
      <g>
       <use xlink:href="#m9d5f0daf88" x="135" y="56.390189" style="stroke: #000000; stroke-width: 0.8"/>
      </g>
     </g>
     <g id="text_9">
      <text style="font: 10px 'DejaVu Sans', 'Bitstream Vera Sans', 'Computer Modern Sans Serif', 'Lucida Grande', 'Verdana', 'Geneva', 'Lucid', 'Arial', 'Helvetica', 'Avant Garde', sans-serif; text-anchor: end" x="128" y="60.189408" transform="rotate(-0 128 60.189408)">40.5</text>
     </g>
    </g>
    <g id="text_10">
     <!-- Snow Area ($10^6\ km^2$) -->
     <g transform="translate(99.654687 162.03) rotate(-90)">
      <text>
       <tspan style="font: 10px 'DejaVu Sans'" x="0 6.347656 12.685547 18.803711 26.982422 30.161133 37.001953 41.113281 47.265625 53.393555 56.572266 60.473633 66.835938 101.991426" y="-0.9765625">Snow Area (10)</tspan>
       <tspan style="font: 7px 'DejaVu Sans'" x="73.293945 97.264375" y="-4.8046875">62</tspan>
       <tspan style="font: oblique 10px 'DejaVu Sans'" x="81.268034 87.05905" y="-0.9765625">km</tspan>
      </text>
     </g>
    </g>
   </g>
   <g id="line2d_10">
    <path d="M 650.076923 82.262833 
L 972 82.262833 
L 972 82.262833 
" clip-path="url(#p0d1b1095fd)" style="fill: none; stroke-dasharray: 7.4,3.2; stroke-dashoffset: 0; stroke: #ff0000; stroke-opacity: 0.8; stroke-width: 2"/>
   </g>
   <g id="line2d_11">
    <path d="M 650.076923 74.547407 
L 651.865385 76.151167 
L 653.653846 80.984912 
L 655.442308 75.314546 
L 657.230769 68.46992 
L 659.019231 75.3053 
L 660.807692 77.752308 
L 662.596154 79.169661 
L 664.384615 79.446755 
L 666.173077 78.871516 
L 667.961538 80.068409 
L 669.75 84.591598 
L 671.538462 73.552301 
L 673.326923 76.833543 
L 675.115385 82.37403 
L 676.903846 80.549157 
L 678.692308 82.126926 
L 680.480769 85.389673 
L 682.269231 79.433453 
L 684.057692 71.793738 
L 685.846154 71.013589 
L 687.634615 74.096988 
L 689.423077 77.765448 
L 691.211538 78.554285 
L 693 77.535439 
L 694.788462 79.342739 
L 696.576923 75.674073 
L 698.365385 78.258467 
L 700.153846 80.17966 
L 701.942308 79.520933 
L 703.730769 72.643549 
L 705.519231 72.383267 
L 707.307692 79.882829 
L 709.096154 77.134048 
L 710.884615 64.0589 
L 712.673077 53.904423 
L 714.461538 66.546177 
L 716.25 69.947877 
L 718.038462 75.73833 
L 719.826923 71.961177 
L 721.615385 76.143482 
L 723.403846 66.128424 
L 725.192308 70.254421 
L 726.980769 75.584084 
L 728.769231 73.659214 
L 730.557692 68.871056 
L 732.346154 69.401855 
L 734.134615 73.902272 
L 735.923077 77.543496 
L 737.711538 76.912734 
L 739.5 78.474817 
L 741.288462 73.248438 
L 743.076923 73.950591 
L 744.865385 59.377879 
L 746.653846 68.381339 
L 748.442308 72.628701 
L 750.230769 69.485438 
L 752.019231 71.111693 
L 753.807692 67.387728 
L 755.596154 72.354153 
L 757.384615 68.226847 
L 759.173077 75.166696 
L 760.961538 71.04667 
L 762.75 70.77211 
L 764.538462 74.406567 
L 766.326923 73.586601 
L 768.115385 74.525603 
L 769.903846 79.736804 
L 771.692308 78.424547 
L 773.480769 76.223534 
L 775.269231 70.580643 
L 777.057692 74.152078 
L 778.846154 82.575623 
L 780.634615 75.614569 
L 782.423077 76.801757 
L 784.211538 83.270364 
L 786 81.599255 
L 787.788462 85.190164 
L 789.576923 81.645623 
L 791.365385 81.192725 
L 793.153846 82.896767 
L 794.942308 74.948863 
L 796.730769 79.818405 
L 798.519231 78.334994 
L 800.307692 76.442985 
L 802.096154 84.511147 
L 803.884615 79.425957 
L 805.673077 75.115435 
L 807.461538 81.970818 
L 809.25 76.6133 
L 811.038462 78.192108 
L 812.826923 83.128048 
L 814.615385 79.149564 
L 816.403846 78.381116 
L 818.192308 75.426169 
L 819.980769 75.798107 
L 821.769231 76.918511 
L 823.557692 79.161197 
L 825.346154 80.746029 
L 827.134615 83.862281 
L 828.923077 74.392783 
L 830.711538 79.582445 
L 832.5 76.904567 
L 834.288462 80.224844 
L 836.076923 72.928045 
L 837.865385 82.221356 
L 839.653846 77.644003 
L 841.442308 73.940655 
L 843.230769 74.253438 
L 845.019231 80.943849 
L 846.807692 73.894412 
L 848.596154 72.843236 
L 850.384615 73.330415 
L 852.173077 73.361704 
L 853.961538 71.380962 
L 855.75 66.852736 
L 857.538462 74.369961 
L 859.326923 70.411645 
L 861.115385 72.892831 
L 862.903846 68.686121 
L 864.692308 69.212631 
L 866.480769 71.062022 
L 868.269231 72.628189 
L 870.057692 73.265255 
L 871.846154 72.505855 
L 873.634615 72.981169 
L 875.423077 68.77197 
L 877.211538 75.698296 
L 879 76.04392 
L 880.788462 74.493505 
L 882.576923 77.738049 
L 884.365385 81.765183 
L 886.153846 72.901056 
L 887.942308 66.895715 
L 889.730769 70.685142 
L 891.519231 78.13164 
L 893.307692 76.465408 
L 895.096154 77.930339 
L 896.884615 87.557935 
L 898.673077 89.245425 
L 900.461538 86.709912 
L 902.25 82.571558 
L 904.038462 72.181299 
L 905.826923 74.313519 
L 907.615385 80.614617 
L 909.403846 85.445496 
L 911.192308 86.195551 
L 912.980769 90.31535 
L 914.769231 97.6823 
L 916.557692 98.403651 
L 918.346154 101.343545 
L 920.134615 107.46151 
L 921.923077 112.942349 
L 923.711538 109.06738 
L 925.5 113.741794 
L 927.288462 116.463938 
L 929.076923 112.956756 
L 930.865385 118.972359 
L 932.653846 122.101542 
L 934.442308 112.626654 
L 936.230769 118.109546 
L 938.019231 121.694792 
L 939.807692 119.351896 
L 941.596154 123.020174 
L 943.384615 128.774828 
L 943.384615 128.774828 
" clip-path="url(#p0d1b1095fd)" style="fill: none; stroke: #0b0b0b; stroke-opacity: 0.8; stroke-width: 2; stroke-linecap: square"/>
   </g>
   <g id="line2d_12">
    <path d="M 135 89.963751 
L 135.715385 93.731495 
L 136.430769 88.680525 
L 137.146154 80.023873 
L 137.861538 89.677562 
L 138.576923 84.546357 
L 139.292308 90.84591 
L 140.007692 91.676951 
L 140.723077 66.240905 
L 141.438462 68.514155 
L 142.153846 95.199634 
L 142.869231 66.992137 
L 143.584615 75.115519 
L 144.3 62.881455 
L 145.015385 74.912009 
L 145.730769 74.521781 
L 146.446154 98.870353 
L 147.161538 81.563001 
L 147.876923 81.217088 
L 148.592308 90.751009 
L 149.307692 75.351973 
L 150.023077 65.319745 
L 150.738462 85.134994 
L 151.453846 65.38202 
L 152.169231 69.721504 
L 152.884615 84.064522 
L 154.315385 56.186892 
L 155.030769 65.852377 
L 155.746154 82.960682 
L 156.461538 65.353964 
L 157.176923 81.336006 
L 157.892308 88.311338 
L 158.607692 78.573588 
L 159.323077 82.423905 
L 160.038462 82.133572 
L 160.753846 66.433469 
L 161.469231 57.459279 
L 162.184615 103.794967 
L 162.9 98.710839 
L 163.615385 79.700171 
L 164.330769 86.406105 
L 165.046154 64.343324 
L 165.761538 65.036426 
L 166.476923 53.313102 
L 167.192308 99.934873 
L 167.907692 86.186974 
L 168.623077 67.79523 
L 169.338462 63.788056 
L 170.053846 71.6278 
L 170.769231 85.448813 
L 171.484615 77.589197 
L 172.2 59.336881 
L 172.915385 70.5077 
L 173.630769 68.523401 
L 174.346154 67.399582 
L 175.061538 80.488704 
L 175.776923 75.09182 
L 176.492308 58.931243 
L 177.207692 62.465509 
L 177.923077 63.395171 
L 179.353846 94.578053 
L 180.069231 90.648564 
L 180.784615 97.623365 
L 181.5 75.424556 
L 182.215385 97.582663 
L 182.930769 63.791776 
L 184.361538 87.807612 
L 185.076923 74.80255 
L 185.792308 68.110962 
L 186.507692 73.677986 
L 187.223077 57.134939 
L 187.938462 90.678426 
L 188.653846 71.062011 
L 189.369231 71.496661 
L 190.084615 50.030062 
L 190.8 58.760571 
L 191.515385 46.211732 
L 192.230769 79.189431 
L 192.946154 73.640366 
L 193.661538 94.345212 
L 195.092308 68.525314 
L 195.807692 75.756441 
L 196.523077 81.769274 
L 197.238462 81.175642 
L 197.953846 75.764518 
L 198.669231 91.203938 
L 199.384615 75.712976 
L 200.1 86.496436 
L 200.815385 75.393206 
L 201.530769 74.843996 
L 202.246154 96.455655 
L 202.961538 96.853535 
L 203.676923 85.762739 
L 204.392308 70.98422 
L 205.107692 95.251282 
L 205.823077 106.821468 
L 206.538462 96.33525 
L 207.253846 104.341095 
L 207.969231 75.249102 
L 208.684615 84.285992 
L 209.4 100.177065 
L 210.115385 94.480921 
L 210.830769 65.500831 
L 211.546154 77.412255 
L 212.261538 80.875957 
L 213.692308 99.875148 
L 214.407692 52.20161 
L 215.123077 87.979559 
L 215.838462 69.719804 
L 216.553846 73.976184 
L 217.269231 87.099951 
L 217.984615 73.58468 
L 218.7 62.765407 
L 219.415385 67.845709 
L 220.130769 70.449038 
L 221.561538 129.545576 
L 222.276923 75.292354 
L 222.992308 65.4698 
L 223.707692 87.497087 
L 224.423077 101.853283 
L 225.138462 61.119051 
L 225.853846 89.856098 
L 226.569231 89.675224 
L 227.284615 69.187066 
L 228 90.282034 
L 228.715385 71.597618 
L 229.430769 83.274501 
L 230.146154 91.708408 
L 231.576923 84.171431 
L 232.292308 95.113554 
L 233.007692 66.026343 
L 233.723077 76.693329 
L 234.438462 75.277158 
L 235.153846 97.093071 
L 235.869231 100.422552 
L 236.584615 83.934871 
L 237.3 80.871706 
L 238.015385 80.815914 
L 238.730769 102.115667 
L 239.446154 100.6962 
L 240.161538 97.976398 
L 240.876923 92.335621 
L 241.592308 64.425791 
L 242.307692 81.711675 
L 243.023077 94.701328 
L 243.738462 96.743225 
L 244.453846 104.02717 
L 245.169231 100.125523 
L 245.884615 64.245767 
L 246.6 75.518075 
L 247.315385 82.455999 
L 248.030769 102.057749 
L 248.746154 85.111295 
L 249.461538 87.789546 
L 250.176923 95.429074 
L 250.892308 91.072161 
L 251.607692 69.296206 
L 252.323077 82.506691 
L 253.038462 74.687777 
L 253.753846 84.992696 
L 254.469231 71.299634 
L 255.184615 81.436645 
L 255.9 98.396489 
L 256.615385 81.113261 
L 257.330769 82.816684 
L 258.046154 81.726128 
L 258.761538 86.126824 
L 259.476923 79.629713 
L 260.192308 110.2789 
L 260.907692 97.336432 
L 261.623077 95.54289 
L 262.338462 74.448454 
L 263.053846 92.370053 
L 263.769231 94.017472 
L 264.484615 111.453624 
L 265.2 96.574891 
L 265.915385 96.176268 
L 266.630769 86.598882 
L 267.346154 89.234623 
L 268.061538 96.531639 
L 268.776923 91.070461 
L 269.492308 95.764466 
L 270.207692 76.870271 
L 270.923077 99.120728 
L 271.638462 78.132987 
L 272.353846 83.875359 
L 273.069231 91.990664 
L 273.784615 92.025203 
L 274.5 99.977806 
L 275.930769 79.750756 
L 276.646154 78.974125 
L 277.361538 100.629143 
L 278.076923 99.76622 
L 278.792308 93.683248 
L 279.507692 98.518276 
L 280.223077 76.510118 
L 280.938462 95.799961 
L 281.653846 79.437574 
L 282.369231 96.887435 
L 283.084615 85.413743 
L 283.8 50.447495 
L 284.515385 95.886253 
L 285.230769 125.148599 
L 285.946154 76.778134 
L 286.661538 71.44565 
L 287.376923 87.226414 
L 288.092308 64.604433 
L 288.807692 55.22248 
L 289.523077 62.808553 
L 290.238462 76.768995 
L 290.953846 84.036042 
L 291.669231 60.310326 
L 292.384615 71.770628 
L 293.1 73.891167 
L 293.815385 82.725185 
L 294.530769 79.088686 
L 295.246154 72.125149 
L 295.961538 57.956204 
L 296.676923 80.532276 
L 297.392308 66.999895 
L 298.107692 70.172732 
L 298.823077 79.740554 
L 299.538462 91.517332 
L 300.253846 65.509971 
L 300.969231 80.482966 
L 301.684615 89.160552 
L 302.4 72.74875 
L 303.115385 71.23704 
L 303.830769 79.149154 
L 305.261538 69.754023 
L 305.976923 79.463292 
L 306.692308 79.317169 
L 307.407692 70.864134 
L 308.123077 87.369349 
L 308.838462 63.138632 
L 309.553846 88.170847 
L 310.269231 75.917549 
L 310.984615 83.474717 
L 311.7 72.606559 
L 312.415385 75.197985 
L 313.130769 74.81849 
L 313.846154 61.745733 
L 314.561538 65.005288 
L 315.276923 65.28255 
L 315.992308 95.817496 
L 316.707692 59.586406 
L 317.423077 87.167858 
L 318.138462 77.101837 
L 318.853846 81.698285 
L 319.569231 67.895975 
L 320.284615 77.699081 
L 321 59.291184 
L 321.715385 62.71259 
L 322.430769 80.817083 
L 323.146154 62.555415 
L 323.861538 84.717454 
L 324.576923 80.119199 
L 325.292308 80.149911 
L 326.007692 75.709682 
L 326.723077 84.145076 
L 327.438462 96.83143 
L 328.153846 71.244798 
L 328.869231 81.566296 
L 329.584615 89.380853 
L 330.3 100.456984 
L 331.015385 91.603624 
L 331.730769 71.873499 
L 332.446154 55.353831 
L 333.161538 89.358217 
L 333.876923 73.2478 
L 334.592308 72.658419 
L 335.307692 67.175243 
L 336.023077 90.933265 
L 336.738462 72.978402 
L 337.453846 80.529619 
L 338.169231 90.967271 
L 338.884615 93.588242 
L 339.6 86.433948 
L 340.315385 100.053259 
L 341.746154 86.717693 
L 342.461538 74.605948 
L 343.176923 60.453049 
L 343.892308 87.258827 
L 344.607692 71.514408 
L 345.323077 66.046003 
L 346.038462 61.776977 
L 346.753846 69.348917 
L 347.469231 86.745749 
L 348.184615 90.403183 
L 348.9 69.82937 
L 349.615385 68.305226 
L 350.330769 69.34371 
L 351.046154 97.615713 
L 351.761538 94.70781 
L 352.476923 84.482488 
L 353.192308 91.227317 
L 353.907692 91.657079 
L 354.623077 69.492277 
L 355.338462 81.392117 
L 356.053846 74.133678 
L 356.769231 103.292622 
L 357.484615 79.187093 
L 358.2 89.912847 
L 358.915385 96.060007 
L 359.630769 81.151519 
L 360.346154 89.288184 
L 361.061538 58.248344 
L 361.776923 83.556545 
L 362.492308 75.468658 
L 363.207692 69.634468 
L 363.923077 80.496143 
L 364.638462 62.654672 
L 365.353846 58.237291 
L 366.069231 78.44245 
L 366.784615 78.178472 
L 367.5 92.718623 
L 368.215385 73.644086 
L 368.930769 78.049246 
L 369.646154 75.232098 
L 370.361538 92.499173 
L 371.076923 84.506292 
L 371.792308 103.421423 
L 372.507692 77.607901 
L 373.223077 75.405746 
L 373.938462 79.786676 
L 374.653846 93.508751 
L 375.369231 84.421807 
L 376.084615 109.895367 
L 376.8 98.472579 
L 377.515385 66.075016 
L 378.230769 79.925679 
L 378.946154 66.818384 
L 379.661538 63.079333 
L 380.376923 94.170502 
L 381.092308 81.336325 
L 381.807692 87.889547 
L 382.523077 76.844129 
L 383.238462 81.597965 
L 383.953846 96.543329 
L 384.669231 94.148398 
L 385.384615 75.847622 
L 386.1 81.586275 
L 386.815385 100.269202 
L 387.530769 67.970365 
L 388.246154 82.941234 
L 388.961538 83.841034 
L 389.676923 61.696955 
L 390.392308 73.189988 
L 391.107692 63.044901 
L 391.823077 79.692094 
L 392.538462 87.011639 
L 393.253846 69.979956 
L 393.969231 88.541309 
L 394.684615 103.049367 
L 395.4 100.761026 
L 396.115385 84.125522 
L 396.830769 75.035922 
L 397.546154 78.42449 
L 398.261538 94.797078 
L 398.976923 96.260647 
L 399.692308 84.544656 
L 400.407692 90.201055 
L 401.123077 79.693688 
L 401.838462 102.978484 
L 402.553846 74.737193 
L 403.269231 79.464036 
L 403.984615 100.584509 
L 404.7 99.121472 
L 406.130769 76.365589 
L 406.846154 68.477279 
L 407.561538 92.118828 
L 408.276923 77.796532 
L 408.992308 76.61894 
L 409.707692 98.168643 
L 410.423077 83.873659 
L 411.138462 74.875452 
L 411.853846 84.553158 
L 412.569231 66.082348 
L 413.284615 85.732664 
L 414 77.885481 
L 414.715385 87.000162 
L 415.430769 69.454869 
L 416.146154 84.056127 
L 416.861538 92.01872 
L 417.576923 85.505987 
L 418.292308 80.231315 
L 419.007692 107.741566 
L 419.723077 86.594843 
L 420.438462 57.846532 
L 421.153846 93.127449 
L 421.869231 92.000229 
L 422.584615 100.309798 
L 423.3 103.834181 
L 424.730769 84.152303 
L 425.446154 98.888312 
L 426.161538 64.034925 
L 426.876923 75.198836 
L 427.592308 63.150959 
L 428.307692 78.404298 
L 429.023077 77.711409 
L 429.738462 85.138501 
L 430.453846 77.083133 
L 431.169231 73.464381 
L 431.884615 85.771878 
L 432.6 90.94708 
L 433.315385 68.885149 
L 434.030769 89.059488 
L 434.746154 101.570814 
L 435.461538 67.440283 
L 436.176923 77.012462 
L 436.892308 83.87079 
L 437.607692 77.776022 
L 438.323077 76.233175 
L 439.038462 53.522776 
L 439.753846 83.194798 
L 440.469231 87.238954 
L 441.184615 67.965583 
L 441.9 99.690448 
L 442.615385 62.814398 
L 443.330769 76.874097 
L 444.046154 98.943786 
L 444.761538 95.570308 
L 445.476923 89.261829 
L 446.192308 84.229668 
L 446.907692 68.428394 
L 447.623077 74.258653 
L 448.338462 85.17187 
L 449.053846 72.800398 
L 450.484615 80.89211 
L 451.2 80.481372 
L 451.915385 75.981524 
L 452.630769 113.013049 
L 453.346154 80.686794 
L 454.061538 84.610863 
L 454.776923 83.709576 
L 455.492308 101.086854 
L 456.207692 96.18732 
L 456.923077 104.260541 
L 457.638462 80.890835 
L 458.353846 80.040027 
L 459.069231 94.32959 
L 459.784615 77.696318 
L 460.5 121.935273 
L 461.215385 108.681004 
L 461.930769 69.640738 
L 462.646154 64.544814 
L 463.361538 87.911864 
L 464.076923 84.711396 
L 464.792308 77.216397 
L 465.507692 114.444631 
L 466.223077 73.207417 
L 466.938462 60.37749 
L 467.653846 82.905315 
L 468.369231 86.584535 
L 469.084615 67.168016 
L 469.8 74.217951 
L 470.515385 63.262544 
L 471.230769 65.971613 
L 471.946154 79.598363 
L 472.661538 81.238767 
L 473.376923 94.86201 
L 474.092308 93.486221 
L 474.807692 88.469363 
L 475.523077 101.011508 
L 476.238462 83.14485 
L 476.953846 80.982866 
L 477.669231 71.972544 
L 478.384615 67.309889 
L 479.1 80.967244 
L 479.815385 88.775106 
L 480.530769 90.990332 
L 481.246154 75.080237 
L 481.961538 72.033437 
L 482.676923 93.770709 
L 483.392308 70.99336 
L 484.107692 96.631959 
L 484.823077 96.422817 
L 485.538462 77.557315 
L 486.253846 100.050815 
L 486.969231 67.329974 
L 487.684615 73.188075 
L 488.4 100.203101 
L 489.115385 87.5007 
L 489.830769 98.488732 
L 490.546154 84.880049 
L 491.261538 75.621583 
L 491.976923 81.563745 
L 492.692308 47.820893 
L 493.407692 78.200682 
L 494.123077 41.342592 
L 494.838462 77.433934 
L 495.553846 62.357006 
L 496.269231 78.863922 
L 496.984615 80.227383 
L 497.7 85.079201 
L 498.415385 83.157603 
L 499.130769 87.337786 
L 499.846154 88.42813 
L 500.561538 97.433776 
L 501.276923 84.96294 
L 501.992308 88.956724 
L 502.707692 83.790024 
L 503.423077 71.542357 
L 504.138462 74.424436 
L 504.853846 71.067112 
L 505.569231 95.486142 
L 506.284615 112.045874 
L 507 90.709032 
L 507.715385 87.919834 
L 508.430769 94.255944 
L 509.146154 89.916142 
L 509.861538 79.187305 
L 510.576923 117.248388 
L 511.292308 88.105809 
L 512.007692 103.796454 
L 512.723077 96.425261 
L 514.153846 102.282725 
L 514.869231 97.274157 
L 515.584615 73.644617 
L 516.3 98.399252 
L 517.730769 77.096735 
L 518.446154 67.907452 
L 519.161538 33.48 
L 519.876923 80.687644 
L 520.592308 78.114709 
L 521.307692 98.207644 
L 522.023077 88.035458 
L 522.738462 85.23372 
L 523.453846 71.850119 
L 524.169231 75.627322 
L 524.884615 90.948461 
L 525.6 97.913804 
L 526.315385 75.113075 
L 527.030769 84.295556 
L 527.746154 96.926968 
L 528.461538 118.289634 
L 529.176923 76.893332 
L 529.892308 98.340802 
L 530.607692 104.509004 
L 532.038462 87.069876 
L 532.753846 49.391583 
L 533.469231 107.066424 
L 534.184615 112.461714 
L 534.9 101.250618 
L 535.615385 100.026478 
L 536.330769 80.153524 
L 537.046154 65.401149 
L 537.761538 85.250086 
L 538.476923 78.395053 
L 539.192308 93.358589 
L 539.907692 83.692254 
L 540.623077 64.181792 
L 541.338462 70.995698 
L 542.053846 81.397005 
L 542.769231 58.796597 
L 543.484615 53.465389 
L 544.2 57.69637 
L 544.915385 86.12895 
L 545.630769 98.376084 
L 546.346154 72.458523 
L 547.061538 81.293497 
L 547.776923 69.502479 
L 548.492308 91.240176 
L 549.207692 99.685454 
L 549.923077 83.384811 
L 551.353846 69.033185 
L 552.069231 81.210606 
L 552.784615 76.08397 
L 553.5 54.760518 
L 554.215385 82.00339 
L 554.930769 97.031008 
L 555.646154 105.575649 
L 557.076923 85.291744 
L 557.792308 91.885668 
L 559.223077 84.62436 
L 559.938462 87.987635 
L 560.653846 103.159783 
L 561.369231 88.028231 
L 562.084615 84.77314 
L 562.8 78.835547 
L 563.515385 87.311325 
L 564.230769 91.338371 
L 564.946154 82.063114 
L 566.376923 96.679144 
L 567.092308 57.894779 
L 568.523077 51.844113 
L 569.238462 54.493564 
L 569.953846 71.278698 
L 570.669231 105.255666 
L 571.384615 93.983465 
L 572.1 73.578304 
L 572.815385 80.557568 
L 573.530769 79.636939 
L 574.246154 66.899575 
L 574.961538 61.649558 
L 575.676923 73.592544 
L 577.107692 104.792748 
L 577.823077 81.967151 
L 578.538462 85.406942 
L 579.253846 74.024643 
L 579.969231 60.320103 
L 580.684615 64.478926 
L 581.4 75.261217 
L 582.115385 71.0364 
L 582.830769 80.884671 
L 583.546154 61.063897 
L 584.976923 78.575501 
L 585.692308 89.319428 
L 586.407692 87.684762 
L 587.123077 78.994104 
L 587.838462 71.956603 
L 588.553846 92.236364 
L 589.269231 81.664278 
L 589.984615 72.803586 
L 590.7 82.824761 
L 591.415385 70.355094 
L 592.130769 83.406384 
L 592.846154 82.113593 
L 593.561538 67.106698 
L 594.276923 72.654381 
L 594.992308 97.635267 
L 595.707692 98.81456 
L 596.423077 69.011718 
L 597.138462 68.812884 
L 597.853846 88.887541 
L 598.569231 63.681891 
L 599.284615 95.763297 
L 600.715385 78.15031 
L 601.430769 105.84441 
L 602.146154 77.30439 
L 602.861538 109.14286 
L 603.576923 95.277425 
L 604.292308 100.254749 
L 605.007692 108.257619 
L 605.723077 96.913791 
L 606.438462 90.236762 
L 607.153846 76.942217 
L 607.869231 79.616217 
L 608.584615 54.37996 
L 609.3 84.306821 
L 610.015385 99.836678 
L 610.730769 83.696505 
L 611.446154 83.765687 
L 612.161538 70.772528 
L 612.876923 62.437241 
L 613.592308 84.230412 
L 614.307692 78.617053 
L 615.023077 80.418353 
L 615.738462 81.429418 
L 616.453846 86.328527 
L 617.169231 92.086734 
L 617.884615 85.093017 
L 618.6 92.269627 
L 619.315385 82.160778 
L 620.030769 106.161523 
L 620.746154 99.203726 
L 621.461538 107.153672 
L 622.176923 73.753439 
L 622.892308 74.054506 
L 623.607692 73.084142 
L 624.323077 102.637247 
L 625.038462 99.325406 
L 625.753846 82.320078 
L 626.469231 88.740355 
L 627.184615 82.740169 
L 627.9 114.092766 
L 628.615385 99.369934 
L 629.330769 77.863271 
L 630.761538 89.987025 
L 631.476923 98.450368 
L 632.192308 80.637909 
L 632.907692 96.184769 
L 633.623077 67.01743 
L 634.338462 67.95995 
L 635.053846 75.369295 
L 635.053846 75.369295 
" clip-path="url(#p0d1b1095fd)" style="fill: none; stroke: #2626ff; stroke-opacity: 0.8; stroke-width: 2; stroke-linecap: square"/>
   </g>
   <g id="line2d_13">
    <path d="M 650.076923 94.20876 
L 651.865385 108.025948 
L 653.653846 120.497209 
L 655.442308 86.84203 
L 657.230769 89.046311 
L 659.019231 90.778746 
L 660.807692 94.302704 
L 662.596154 91.483325 
L 664.384615 62.46264 
L 666.173077 94.3467 
L 667.961538 89.191902 
L 669.75 111.069984 
L 671.538462 111.709312 
L 673.326923 94.205466 
L 675.115385 110.175604 
L 676.903846 105.411248 
L 678.692308 117.245837 
L 680.480769 84.066329 
L 682.269231 65.080316 
L 684.057692 86.368804 
L 685.846154 119.231305 
L 687.634615 114.499998 
L 689.423077 95.254576 
L 691.211538 112.699549 
L 693 113.084357 
L 694.788462 97.822623 
L 696.576923 90.456531 
L 698.365385 110.733954 
L 700.153846 96.467345 
L 701.942308 101.266027 
L 703.730769 95.865743 
L 705.519231 86.165826 
L 707.307692 101.530856 
L 709.096154 114.284055 
L 710.884615 94.68103 
L 712.673077 66.400525 
L 714.461538 83.913086 
L 716.25 98.358018 
L 718.038462 100.987597 
L 719.826923 108.282274 
L 721.615385 117.160607 
L 723.403846 102.251482 
L 725.192308 99.091503 
L 726.980769 116.384295 
L 728.769231 102.429274 
L 730.557692 106.016994 
L 734.134615 96.107829 
L 735.923077 95.564782 
L 737.711538 90.942829 
L 739.5 109.657213 
L 741.288462 105.830063 
L 743.076923 98.021563 
L 744.865385 91.423813 
L 746.653846 94.881458 
L 748.442308 94.445639 
L 750.230769 86.320451 
L 752.019231 95.072959 
L 753.807692 88.314101 
L 755.596154 103.616324 
L 757.384615 82.844953 
L 759.173077 85.703439 
L 760.961538 84.35018 
L 762.75 80.648111 
L 764.538462 86.45584 
L 766.326923 76.575793 
L 768.115385 100.771228 
L 769.903846 67.37397 
L 771.692308 79.828759 
L 773.480769 109.898661 
L 775.269231 106.662805 
L 777.057692 109.739679 
L 778.846154 99.244746 
L 780.634615 109.635321 
L 782.423077 93.176228 
L 784.211538 107.442518 
L 786 119.318234 
L 787.788462 128.329832 
L 789.576923 124.053898 
L 791.365385 92.801196 
L 793.153846 119.485399 
L 794.942308 99.49459 
L 796.730769 106.42125 
L 798.519231 125.044028 
L 800.307692 92.045926 
L 802.096154 107.245491 
L 803.884615 107.254843 
L 805.673077 106.320611 
L 807.461538 100.013938 
L 809.25 106.309665 
L 811.038462 120.160222 
L 812.826923 99.308722 
L 814.615385 109.006407 
L 816.403846 95.564995 
L 818.192308 80.291146 
L 819.980769 83.653252 
L 821.769231 94.532994 
L 823.557692 97.561621 
L 825.346154 95.653306 
L 827.134615 73.963856 
L 828.923077 64.014095 
L 830.711538 118.098665 
L 832.5 92.57792 
L 834.288462 69.542756 
L 836.076923 73.062356 
L 837.865385 100.878881 
L 839.653846 69.766776 
L 841.442308 67.748577 
L 843.230769 98.749416 
L 845.019231 107.865797 
L 846.807692 82.647075 
L 848.596154 47.705057 
L 852.173077 82.309345 
L 853.961538 86.651167 
L 855.75 74.024431 
L 857.538462 91.412336 
L 859.326923 70.950426 
L 861.115385 69.981656 
L 862.903846 94.217262 
L 864.692308 91.836358 
L 866.480769 99.502136 
L 868.269231 74.73156 
L 870.057692 89.569378 
L 871.846154 64.919315 
L 873.634615 81.926556 
L 875.423077 64.363941 
L 877.211538 73.014109 
L 879 88.54556 
L 880.788462 86.813762 
L 882.576923 87.121843 
L 884.365385 81.823685 
L 886.153846 61.370064 
L 887.942308 81.649612 
L 889.730769 114.030491 
L 891.519231 95.107178 
L 893.307692 88.010378 
L 895.096154 94.4721 
L 896.884615 110.323747 
L 898.673077 117.736173 
L 900.461538 93.57974 
L 902.25 101.435955 
L 904.038462 87.529181 
L 905.826923 89.320703 
L 907.615385 95.937476 
L 909.403846 101.229895 
L 911.192308 97.57161 
L 912.980769 103.601021 
L 914.769231 101.781975 
L 916.557692 102.815145 
L 918.346154 109.282075 
L 920.134615 117.640954 
L 921.923077 131.299372 
L 923.711538 122.363865 
L 925.5 123.901399 
L 927.288462 132.512672 
L 929.076923 141.934796 
L 930.865385 138.952184 
L 932.653846 128.795194 
L 934.442308 106.613176 
L 936.230769 121.792975 
L 938.019231 139.333061 
L 939.807692 146.878964 
L 941.596154 150.499203 
L 943.384615 150.154353 
L 943.384615 150.154353 
" clip-path="url(#p0d1b1095fd)" style="fill: none; stroke: #2626ff; stroke-opacity: 0.8; stroke-width: 2; stroke-linecap: square"/>
   </g>
   <g id="line2d_14">
    <path d="M 650.076923 192.24 
L 650.076923 25.92 
" clip-path="url(#p0d1b1095fd)" style="fill: none; stroke-dasharray: 3.7,1.6; stroke-dashoffset: 0; stroke: #808080; stroke-opacity: 0.5"/>
   </g>
   <g id="line2d_15">
    <path d="M 739.5 192.24 
L 739.5 25.92 
" clip-path="url(#p0d1b1095fd)" style="fill: none; stroke-dasharray: 3.7,1.6; stroke-dashoffset: 0; stroke: #808080; stroke-opacity: 0.5"/>
   </g>
   <g id="line2d_16">
    <path d="M 635.769231 192.24 
L 635.769231 25.92 
" clip-path="url(#p0d1b1095fd)" style="fill: none; stroke-dasharray: 3.7,1.6; stroke-dashoffset: 0; stroke: #808080; stroke-opacity: 0.8"/>
   </g>
   <g id="line2d_17">
    <path d="M 135 103.054888 
L 635.626125 103.054888 
L 635.626125 103.054888 
" clip-path="url(#p0d1b1095fd)" style="fill: none; stroke-dasharray: 7.4,3.2; stroke-dashoffset: 0; stroke: #2626ff; stroke-opacity: 0.8; stroke-width: 2"/>
   </g>
   <g id="line2d_18">
    <path d="M 650.192839 103.054888 
L 972 103.054888 
L 972 103.054888 
" clip-path="url(#p0d1b1095fd)" style="fill: none; stroke-dasharray: 7.4,3.2; stroke-dashoffset: 0; stroke: #2626ff; stroke-opacity: 0.8; stroke-width: 2"/>
   </g>
   <g id="line2d_19">
    <path d="M 828.923077 123.800016 
L 830.711538 128.199225 
L 832.5 109.092168 
L 834.288462 142.326087 
L 836.076923 120.417718 
L 837.865385 119.063396 
L 839.653846 91.832958 
L 841.442308 113.399664 
L 843.230769 117.256252 
L 845.019231 114.018589 
L 846.807692 116.015959 
L 848.596154 117.841275 
L 850.384615 112.390831 
L 852.173077 119.741513 
L 853.961538 97.316984 
L 855.75 107.70267 
L 857.538462 119.424293 
L 859.326923 112.581163 
L 861.115385 105.575968 
L 862.903846 92.298001 
L 864.692308 98.893095 
L 866.480769 102.527256 
L 868.269231 70.176027 
L 870.057692 101.19982 
L 871.846154 109.922147 
L 873.634615 117.450409 
L 875.423077 95.094425 
L 877.211538 108.167076 
L 879 93.154973 
L 880.788462 103.690289 
L 882.576923 109.876451 
L 884.365385 129.900735 
L 886.153846 105.52517 
L 887.942308 122.415194 
L 889.730769 115.310742 
L 891.519231 87.568076 
L 893.307692 112.210276 
L 895.096154 110.429274 
L 896.884615 128.9783 
L 898.673077 127.577112 
L 900.461538 148.420217 
L 902.25 135.454688 
L 904.038462 110.345213 
L 905.826923 105.935272 
L 907.615385 136.031741 
L 909.403846 148.671124 
L 911.192308 111.668504 
L 912.980769 130.107645 
L 914.769231 136.472555 
L 916.557692 147.307556 
L 918.346154 133.599722 
L 920.134615 141.260398 
L 921.923077 136.228025 
L 923.711538 139.485985 
L 925.5 137.990747 
L 927.288462 157.659554 
L 929.076923 156.659435 
L 930.865385 170.847828 
L 932.653846 165.392282 
L 934.442308 148.585575 
L 936.230769 146.793309 
L 938.019231 149.433302 
L 939.807692 155.167704 
L 941.596154 138.103289 
L 943.384615 161.353334 
L 945.173077 164.217134 
L 946.961538 171.598529 
L 948.75 155.639761 
L 950.538462 151.27424 
L 952.326923 161.73166 
L 954.115385 181.706847 
L 955.903846 178.571098 
L 957.692308 163.877384 
L 959.480769 177.456099 
L 961.269231 184.68 
" clip-path="url(#p0d1b1095fd)" style="fill: none; stroke: #fea443; stroke-opacity: 0.8; stroke-width: 2; stroke-linecap: square"/>
   </g>
   <g id="patch_3">
    <path d="M 135 192.24 
L 135 25.92 
" style="fill: none; stroke: #000000; stroke-width: 0.8; stroke-linejoin: miter; stroke-linecap: square"/>
   </g>
   <g id="patch_4">
    <path d="M 972 192.24 
L 972 25.92 
" style="fill: none"/>
   </g>
   <g id="patch_5">
    <path d="M 135 192.24 
L 972 192.24 
" style="fill: none; stroke: #000000; stroke-width: 0.8; stroke-linejoin: miter; stroke-linecap: square"/>
   </g>
   <g id="patch_6">
    <path d="M 135 25.92 
L 972 25.92 
" style="fill: none"/>
   </g>
   <g id="legend_1">
    <g id="patch_7">
     <path d="M 142 187.24 
L 425.701563 187.24 
Q 427.701563 187.24 427.701563 185.24 
L 427.701563 112.849375 
Q 427.701563 110.849375 425.701563 110.849375 
L 142 110.849375 
Q 140 110.849375 140 112.849375 
L 140 185.24 
Q 140 187.24 142 187.24 
z
" style="fill: #ffffff; opacity: 0.8; stroke: #cccccc; stroke-linejoin: miter"/>
    </g>
    <g id="line2d_20">
     <path d="M 144 118.947812 
L 154 118.947812 
L 164 118.947812 
" style="fill: none; stroke-dasharray: 7.4,3.2; stroke-dashoffset: 0; stroke: #ff0000; stroke-opacity: 0.8; stroke-width: 2"/>
    </g>
    <g id="text_11">
     <text style="font: 10px 'DejaVu Sans', 'Bitstream Vera Sans', 'Computer Modern Sans Serif', 'Lucida Grande', 'Verdana', 'Geneva', 'Lucid', 'Arial', 'Helvetica', 'Avant Garde', sans-serif; text-anchor: start" x="172" y="122.447812" transform="rotate(-0 172 122.447812)">Pre-industrial baseline based on multimodel mean</text>
    </g>
    <g id="line2d_21">
     <path d="M 144 133.625937 
L 154 133.625937 
L 164 133.625937 
" style="fill: none; stroke: #0b0b0b; stroke-opacity: 0.8; stroke-width: 2; stroke-linecap: square"/>
    </g>
    <g id="text_12">
     <text style="font: 10px 'DejaVu Sans', 'Bitstream Vera Sans', 'Computer Modern Sans Serif', 'Lucida Grande', 'Verdana', 'Geneva', 'Lucid', 'Arial', 'Helvetica', 'Avant Garde', sans-serif; text-anchor: start" x="172" y="137.125937" transform="rotate(-0 172 137.125937)">Multimodel mean, 1850-2014</text>
    </g>
    <g id="line2d_22">
     <path d="M 144 148.304062 
L 154 148.304062 
L 164 148.304062 
" style="fill: none; stroke: #2626ff; stroke-opacity: 0.8; stroke-width: 2; stroke-linecap: square"/>
    </g>
    <g id="text_13">
     <text style="font: 10px 'DejaVu Sans', 'Bitstream Vera Sans', 'Computer Modern Sans Serif', 'Lucida Grande', 'Verdana', 'Geneva', 'Lucid', 'Arial', 'Helvetica', 'Avant Garde', sans-serif; text-anchor: start" x="172" y="151.804062" transform="rotate(-0 172 151.804062)">CESM2 mid-Holocene and historical series</text>
    </g>
    <g id="line2d_23">
     <path d="M 144 162.982188 
L 154 162.982188 
L 164 162.982188 
" style="fill: none; stroke-dasharray: 7.4,3.2; stroke-dashoffset: 0; stroke: #2626ff; stroke-opacity: 0.8; stroke-width: 2"/>
    </g>
    <g id="text_14">
     <text style="font: 10px 'DejaVu Sans', 'Bitstream Vera Sans', 'Computer Modern Sans Serif', 'Lucida Grande', 'Verdana', 'Geneva', 'Lucid', 'Arial', 'Helvetica', 'Avant Garde', sans-serif; text-anchor: start" x="172" y="166.482188" transform="rotate(-0 172 166.482188)">Mid-Holocene baseline based on CESM2</text>
    </g>
    <g id="line2d_24">
     <path d="M 144 177.660313 
L 154 177.660313 
L 164 177.660313 
" style="fill: none; stroke: #fea443; stroke-opacity: 0.8; stroke-width: 2; stroke-linecap: square"/>
    </g>
    <g id="text_15">
     <text style="font: 10px 'DejaVu Sans', 'Bitstream Vera Sans', 'Computer Modern Sans Serif', 'Lucida Grande', 'Verdana', 'Geneva', 'Lucid', 'Arial', 'Helvetica', 'Avant Garde', sans-serif; text-anchor: start" x="172" y="181.160313" transform="rotate(-0 172 181.160313)">ERA5-Land data</text>
    </g>
   </g>
  </g>
 </g>
 <defs>
  <clipPath id="p0d1b1095fd">
   <rect x="135" y="25.92" width="837" height="166.32"/>
  </clipPath>
 </defs>
</svg>
