<?xml version="1.0" encoding="utf-8" standalone="no"?>
<!DOCTYPE svg PUBLIC "-//W3C//DTD SVG 1.1//EN"
  "http://www.w3.org/Graphics/SVG/1.1/DTD/svg11.dtd">
<svg xmlns:xlink="http://www.w3.org/1999/xlink" width="1080pt" height="216pt" viewBox="0 0 1080 216" xmlns="http://www.w3.org/2000/svg" version="1.1">
 <metadata>
  <rdf:RDF xmlns:dc="http://purl.org/dc/elements/1.1/" xmlns:cc="http://creativecommons.org/ns#" xmlns:rdf="http://www.w3.org/1999/02/22-rdf-syntax-ns#">
   <cc:Work>
    <dc:type rdf:resource="http://purl.org/dc/dcmitype/StillImage"/>
    <dc:date>2026-01-04T10:07:50.657437</dc:date>
    <dc:format>image/svg+xml</dc:format>
    <dc:creator>
     <cc:Agent>
      <dc:title>Matplotlib v3.8.4, https://matplotlib.org/</dc:title>
     </cc:Agent>
    </dc:creator>
   </cc:Work>
  </rdf:RDF>
 </metadata>
 <defs>
  <style type="text/css">*{stroke-linejoin: round; stroke-linecap: butt}</style>
 </defs>
 <g id="figure_1">
  <g id="patch_1">
   <path d="M 0 216 
L 1080 216 
L 1080 0 
L 0 0 
z
" style="fill: #ffffff"/>
  </g>
  <g id="axes_1">
   <g id="patch_2">
    <path d="M 135 192.24 
L 972 192.24 
L 972 25.92 
L 135 25.92 
z
" style="fill: #ffffff"/>
   </g>
   <g id="matplotlib.axis_1">
    <g id="xtick_1">
     <g id="line2d_1">
      <defs>
       <path id="me399e605d1" d="M 0 0 
L 0 3.5 
" style="stroke: #000000; stroke-width: 0.8"/>
      </defs>
      <g>
       <use xlink:href="#me399e605d1" x="650.076923" y="192.24" style="stroke: #000000; stroke-width: 0.8"/>
      </g>
     </g>
     <g id="text_1">
      <text style="font: 10px 'DejaVu Sans', 'Bitstream Vera Sans', 'Computer Modern Sans Serif', 'Lucida Grande', 'Verdana', 'Geneva', 'Lucid', 'Arial', 'Helvetica', 'Avant Garde', sans-serif; text-anchor: middle" x="650.076923" y="206.838437" transform="rotate(-0 650.076923 206.838437)">1850</text>
     </g>
    </g>
    <g id="xtick_2">
     <g id="line2d_2">
      <g>
       <use xlink:href="#me399e605d1" x="739.5" y="192.24" style="stroke: #000000; stroke-width: 0.8"/>
      </g>
     </g>
     <g id="text_2">
      <text style="font: 10px 'DejaVu Sans', 'Bitstream Vera Sans', 'Computer Modern Sans Serif', 'Lucida Grande', 'Verdana', 'Geneva', 'Lucid', 'Arial', 'Helvetica', 'Avant Garde', sans-serif; text-anchor: middle" x="739.5" y="206.838437" transform="rotate(-0 739.5 206.838437)">1900</text>
     </g>
    </g>
    <g id="xtick_3">
     <g id="line2d_3">
      <g>
       <use xlink:href="#me399e605d1" x="828.923077" y="192.24" style="stroke: #000000; stroke-width: 0.8"/>
      </g>
     </g>
     <g id="text_3">
      <text style="font: 10px 'DejaVu Sans', 'Bitstream Vera Sans', 'Computer Modern Sans Serif', 'Lucida Grande', 'Verdana', 'Geneva', 'Lucid', 'Arial', 'Helvetica', 'Avant Garde', sans-serif; text-anchor: middle" x="828.923077" y="206.838437" transform="rotate(-0 828.923077 206.838437)">1950</text>
     </g>
    </g>
    <g id="xtick_4">
     <g id="line2d_4">
      <g>
       <use xlink:href="#me399e605d1" x="891.519231" y="192.24" style="stroke: #000000; stroke-width: 0.8"/>
      </g>
     </g>
     <g id="text_4">
      <text style="font: 10px 'DejaVu Sans', 'Bitstream Vera Sans', 'Computer Modern Sans Serif', 'Lucida Grande', 'Verdana', 'Geneva', 'Lucid', 'Arial', 'Helvetica', 'Avant Garde', sans-serif; text-anchor: middle" x="891.519231" y="206.838437" transform="rotate(-0 891.519231 206.838437)">1985</text>
     </g>
    </g>
    <g id="xtick_5">
     <g id="line2d_5">
      <g>
       <use xlink:href="#me399e605d1" x="954.115385" y="192.24" style="stroke: #000000; stroke-width: 0.8"/>
      </g>
     </g>
     <g id="text_5">
      <text style="font: 10px 'DejaVu Sans', 'Bitstream Vera Sans', 'Computer Modern Sans Serif', 'Lucida Grande', 'Verdana', 'Geneva', 'Lucid', 'Arial', 'Helvetica', 'Avant Garde', sans-serif; text-anchor: middle" x="954.115385" y="206.838437" transform="rotate(-0 954.115385 206.838437)">2020</text>
     </g>
    </g>
   </g>
   <g id="matplotlib.axis_2">
    <g id="ytick_1">
     <g id="line2d_6">
      <defs>
       <path id="m33446430f4" d="M 0 0 
L -3.5 0 
" style="stroke: #000000; stroke-width: 0.8"/>
      </defs>
      <g>
       <use xlink:href="#m33446430f4" x="135" y="156.971956" style="stroke: #000000; stroke-width: 0.8"/>
      </g>
     </g>
     <g id="text_6">
      <text style="font: 10px 'DejaVu Sans', 'Bitstream Vera Sans', 'Computer Modern Sans Serif', 'Lucida Grande', 'Verdana', 'Geneva', 'Lucid', 'Arial', 'Helvetica', 'Avant Garde', sans-serif; text-anchor: end" x="128" y="160.771175" transform="rotate(-0 128 160.771175)">−9.0</text>
     </g>
    </g>
    <g id="ytick_2">
     <g id="line2d_7">
      <g>
       <use xlink:href="#m33446430f4" x="135" y="113.737152" style="stroke: #000000; stroke-width: 0.8"/>
      </g>
     </g>
     <g id="text_7">
      <text style="font: 10px 'DejaVu Sans', 'Bitstream Vera Sans', 'Computer Modern Sans Serif', 'Lucida Grande', 'Verdana', 'Geneva', 'Lucid', 'Arial', 'Helvetica', 'Avant Garde', sans-serif; text-anchor: end" x="128" y="117.536371" transform="rotate(-0 128 117.536371)">−7.5</text>
     </g>
    </g>
    <g id="ytick_3">
     <g id="line2d_8">
      <g>
       <use xlink:href="#m33446430f4" x="135" y="70.502349" style="stroke: #000000; stroke-width: 0.8"/>
      </g>
     </g>
     <g id="text_8">
      <text style="font: 10px 'DejaVu Sans', 'Bitstream Vera Sans', 'Computer Modern Sans Serif', 'Lucida Grande', 'Verdana', 'Geneva', 'Lucid', 'Arial', 'Helvetica', 'Avant Garde', sans-serif; text-anchor: end" x="128" y="74.301568" transform="rotate(-0 128 74.301568)">−6.0</text>
     </g>
    </g>
    <g id="ytick_4">
     <g id="line2d_9">
      <g>
       <use xlink:href="#m33446430f4" x="135" y="27.267545" style="stroke: #000000; stroke-width: 0.8"/>
      </g>
     </g>
     <g id="text_9">
      <text style="font: 10px 'DejaVu Sans', 'Bitstream Vera Sans', 'Computer Modern Sans Serif', 'Lucida Grande', 'Verdana', 'Geneva', 'Lucid', 'Arial', 'Helvetica', 'Avant Garde', sans-serif; text-anchor: end" x="128" y="31.066764" transform="rotate(-0 128 31.066764)">−4.5</text>
     </g>
    </g>
    <g id="text_10">
     <text style="font: 10px 'DejaVu Sans', 'Bitstream Vera Sans', 'Computer Modern Sans Serif', 'Lucida Grande', 'Verdana', 'Geneva', 'Lucid', 'Arial', 'Helvetica', 'Avant Garde', sans-serif; text-anchor: middle" x="97.6375" y="109.08" transform="rotate(-90 97.6375 109.08)">Permafrost MAGT (℃)</text>
    </g>
   </g>
   <g id="line2d_10">
    <path d="M 135 179.898169 
L 135.715385 179.331725 
L 136.430769 179.207617 
L 137.146154 179.363364 
L 138.576923 179.318393 
L 140.007692 179.756139 
L 140.723077 179.805837 
L 141.438462 180.107957 
L 142.153846 180.58523 
L 144.3 180.750543 
L 145.730769 180.674346 
L 146.446154 180.84895 
L 147.161538 180.762748 
L 148.592308 180.054988 
L 149.307692 179.418065 
L 152.169231 178.770449 
L 152.884615 178.455739 
L 153.6 177.708122 
L 154.315385 176.746483 
L 155.030769 176.612837 
L 157.892308 177.453364 
L 159.323077 178.351862 
L 160.038462 178.586802 
L 161.469231 178.330779 
L 163.615385 178.66407 
L 165.761538 179.584394 
L 166.476923 179.828735 
L 167.192308 180.345865 
L 168.623077 179.862765 
L 169.338462 179.495471 
L 170.053846 179.569056 
L 170.769231 179.530628 
L 171.484615 179.944074 
L 172.2 180.073295 
L 173.630769 179.307563 
L 174.346154 178.761405 
L 175.061538 177.927311 
L 176.492308 178.328717 
L 177.207692 178.186192 
L 177.923077 178.37289 
L 178.638462 178.299855 
L 180.069231 178.377398 
L 180.784615 178.201833 
L 181.5 177.84295 
L 182.930769 177.431785 
L 183.646154 177.417822 
L 184.361538 177.121117 
L 185.792308 177.124333 
L 186.507692 176.84654 
L 187.223077 176.883456 
L 187.938462 176.743652 
L 188.653846 176.769298 
L 189.369231 176.916936 
L 190.084615 177.357733 
L 190.8 178.228084 
L 191.515385 178.845381 
L 192.230769 179.854656 
L 192.946154 179.920104 
L 193.661538 179.873128 
L 194.376923 180.066918 
L 195.092308 179.643658 
L 195.807692 179.661086 
L 196.523077 179.51452 
L 197.953846 179.515372 
L 199.384615 179.791461 
L 200.1 179.334831 
L 200.815385 179.241839 
L 201.530769 179.394975 
L 202.246154 179.225017 
L 202.961538 178.87023 
L 204.392308 179.04159 
L 205.107692 179.066384 
L 205.823077 178.933864 
L 207.253846 179.16108 
L 207.969231 179.117979 
L 209.4 179.517708 
L 210.115385 179.202174 
L 211.546154 178.947498 
L 212.261538 178.66407 
L 212.976923 177.939598 
L 213.692308 178.136384 
L 214.407692 178.053288 
L 215.123077 177.33085 
L 217.269231 177.010808 
L 218.7 177.274802 
L 219.415385 177.298359 
L 220.130769 177.600946 
L 220.846154 178.181437 
L 222.276923 178.337074 
L 222.992308 178.785457 
L 223.707692 179.466278 
L 224.423077 179.577825 
L 225.138462 179.242389 
L 225.853846 179.064157 
L 226.569231 179.073668 
L 227.284615 178.913413 
L 228 179.153356 
L 228.715385 179.666721 
L 229.430769 179.961007 
L 230.861538 179.496048 
L 231.576923 179.424469 
L 232.292308 179.234528 
L 233.007692 178.725093 
L 234.438462 179.016768 
L 236.584615 179.278481 
L 237.3 179.611222 
L 238.015385 179.676341 
L 238.730769 179.599705 
L 239.446154 179.190244 
L 240.161538 179.418092 
L 240.876923 179.487307 
L 241.592308 179.415123 
L 242.307692 179.207342 
L 243.023077 178.651068 
L 245.169231 178.597852 
L 246.6 179.152916 
L 247.315385 179.032519 
L 248.746154 179.033426 
L 249.461538 179.194807 
L 250.176923 179.62153 
L 250.892308 179.751631 
L 251.607692 179.305199 
L 252.323077 179.199398 
L 253.753846 179.454184 
L 255.184615 179.390027 
L 255.9 179.501655 
L 256.615385 179.342775 
L 257.330769 178.902061 
L 258.761538 179.1265 
L 259.476923 179.161217 
L 260.907692 179.680382 
L 261.623077 179.840362 
L 265.2 178.459175 
L 265.915385 177.779893 
L 266.630769 177.564332 
L 268.061538 176.42438 
L 268.776923 176.661601 
L 270.923077 178.320828 
L 273.069231 178.73881 
L 274.5 180.087918 
L 275.215385 180.471733 
L 276.646154 180.565164 
L 278.076923 180.410929 
L 278.792308 180.509419 
L 279.507692 180.728168 
L 280.223077 180.114664 
L 280.938462 179.969968 
L 283.084615 179.072156 
L 283.8 179.550969 
L 284.515385 179.333732 
L 285.230769 178.23053 
L 285.946154 177.865188 
L 286.661538 178.469208 
L 287.376923 178.783808 
L 288.807692 179.136478 
L 289.523077 179.515592 
L 290.953846 178.972457 
L 293.1 179.358031 
L 294.530769 179.500089 
L 295.246154 179.94237 
L 295.961538 180.137534 
L 296.676923 180.05573 
L 297.392308 180.133191 
L 298.107692 180.406614 
L 299.538462 181.978622 
L 300.969231 181.930381 
L 301.684615 182.246492 
L 302.4 183.006286 
L 303.115385 183.376989 
L 303.830769 182.94683 
L 304.546154 182.657409 
L 305.261538 182.239015 
L 306.692308 181.79393 
L 308.123077 180.8879 
L 308.838462 180.519727 
L 309.553846 179.953915 
L 310.269231 180.281598 
L 312.415385 180.383469 
L 313.130769 180.011997 
L 313.846154 179.412265 
L 314.561538 178.977213 
L 315.276923 178.770174 
L 317.423077 179.46867 
L 318.138462 179.971974 
L 319.569231 180.42154 
L 320.284615 181.096864 
L 321 181.544615 
L 321.715385 181.45341 
L 322.430769 181.504785 
L 323.861538 180.923799 
L 324.576923 180.558567 
L 325.292308 180.360929 
L 326.007692 180.279289 
L 326.723077 180.695017 
L 327.438462 180.872809 
L 328.153846 180.590068 
L 329.584615 180.828471 
L 330.3 181.095627 
L 331.015385 181.064868 
L 331.730769 180.882595 
L 332.446154 180.947082 
L 333.161538 181.353354 
L 333.876923 181.536423 
L 334.592308 181.562234 
L 336.023077 182.169718 
L 337.453846 182.875993 
L 338.169231 183.093945 
L 338.884615 183.81336 
L 339.6 184.286675 
L 340.315385 184.553693 
L 341.030769 184.68 
L 341.746154 184.529531 
L 342.461538 184.568976 
L 343.176923 184.424252 
L 343.892308 184.107591 
L 345.323077 183.900607 
L 346.038462 183.786037 
L 346.753846 183.266955 
L 347.469231 183.057771 
L 348.184615 183.403515 
L 348.9 183.967567 
L 349.615385 184.319221 
L 350.330769 184.043489 
L 351.046154 183.416269 
L 351.761538 182.956726 
L 352.476923 182.757053 
L 353.907692 181.959023 
L 355.338462 180.505405 
L 356.053846 179.236562 
L 356.769231 178.836117 
L 358.915385 178.018873 
L 360.346154 178.19015 
L 362.492308 177.775385 
L 363.923077 178.418493 
L 364.638462 178.821933 
L 365.353846 179.504074 
L 366.069231 179.157122 
L 368.215385 178.847717 
L 368.930769 178.857365 
L 369.646154 178.597055 
L 372.507692 176.930433 
L 373.223077 176.579934 
L 373.938462 176.506844 
L 374.653846 176.830926 
L 376.8 177.203223 
L 377.515385 176.933896 
L 378.946154 176.230562 
L 379.661538 176.32633 
L 380.376923 176.57221 
L 381.092308 176.660749 
L 383.953846 177.795918 
L 384.669231 177.485992 
L 385.384615 178.907833 
L 386.1 178.655604 
L 386.815385 178.710113 
L 387.530769 178.010599 
L 388.961538 177.93487 
L 390.392308 178.264285 
L 391.107692 178.213763 
L 391.823077 177.541545 
L 392.538462 177.10828 
L 395.4 177.244922 
L 396.115385 177.635444 
L 397.546154 177.942429 
L 399.692308 177.645174 
L 400.407692 177.798035 
L 401.123077 178.149798 
L 401.838462 178.183663 
L 404.7 178.971083 
L 405.415385 178.730783 
L 406.130769 178.846893 
L 406.846154 179.159953 
L 407.561538 179.757128 
L 408.992308 180.164307 
L 411.853846 179.481754 
L 412.569231 179.852402 
L 413.284615 180.394327 
L 414 180.319724 
L 414.715385 180.075411 
L 419.007692 180.433827 
L 419.723077 180.298009 
L 421.869231 180.452051 
L 422.584615 180.509803 
L 423.3 180.271043 
L 427.592308 179.791076 
L 428.307692 179.327877 
L 429.023077 179.377905 
L 429.738462 179.832885 
L 430.453846 181.057143 
L 431.169231 181.734309 
L 431.884615 181.959985 
L 432.6 181.517154 
L 433.315385 181.512426 
L 434.746154 180.774677 
L 435.461538 180.024696 
L 436.176923 179.754242 
L 436.892308 179.656165 
L 437.607692 179.720157 
L 438.323077 179.253467 
L 439.038462 179.193873 
L 439.753846 178.912396 
L 440.469231 178.362033 
L 441.9 178.378168 
L 442.615385 179.523069 
L 443.330769 180.250647 
L 444.046154 180.32929 
L 444.761538 179.858202 
L 445.476923 179.721449 
L 446.192308 179.881731 
L 447.623077 179.311796 
L 448.338462 179.6328 
L 449.053846 179.671503 
L 449.769231 179.96928 
L 450.484615 180.116066 
L 451.2 179.758118 
L 452.630769 179.374469 
L 453.346154 179.213087 
L 454.061538 178.85874 
L 454.776923 177.519225 
L 455.492308 176.938184 
L 456.207692 176.848409 
L 456.923077 177.227193 
L 457.638462 176.722157 
L 459.069231 176.113106 
L 460.5 176.079681 
L 461.215385 176.234713 
L 462.646154 177.178319 
L 464.076923 178.046691 
L 464.792308 178.525201 
L 465.507692 178.411291 
L 466.223077 178.940379 
L 467.653846 178.56657 
L 468.369231 178.335259 
L 469.8 178.212113 
L 470.515385 177.921263 
L 471.230769 177.808975 
L 471.946154 177.987729 
L 473.376923 177.916371 
L 474.092308 178.099798 
L 474.807692 178.422149 
L 476.238462 179.67428 
L 476.953846 179.384749 
L 477.669231 179.317129 
L 478.384615 179.024162 
L 479.815385 177.60966 
L 480.530769 177.027795 
L 481.246154 177.040082 
L 482.676923 177.313725 
L 483.392308 177.37549 
L 484.107692 176.478091 
L 485.538462 175.952989 
L 486.969231 176.180259 
L 487.684615 175.899387 
L 489.115385 175.788309 
L 489.830769 175.485007 
L 491.261538 173.850766 
L 491.976923 173.492625 
L 492.692308 173.485478 
L 493.407692 174.335983 
L 494.123077 174.370535 
L 494.838462 174.219874 
L 498.415385 174.610175 
L 499.846154 175.404384 
L 500.561538 175.392152 
L 501.276923 175.085937 
L 501.992308 174.907402 
L 502.707692 174.465479 
L 503.423077 174.229385 
L 505.569231 174.6041 
L 507 175.76838 
L 507.715385 175.67756 
L 509.146154 177.313807 
L 509.861538 177.975964 
L 510.576923 178.175692 
L 511.292308 177.99812 
L 512.723077 178.209722 
L 513.438462 178.608187 
L 514.153846 178.319399 
L 514.869231 178.19639 
L 515.584615 177.915931 
L 517.015385 176.964903 
L 517.730769 176.943517 
L 518.446154 177.045772 
L 519.161538 176.998136 
L 519.876923 176.73755 
L 520.592308 177.080847 
L 521.307692 177.116554 
L 522.023077 176.804373 
L 522.738462 176.741701 
L 523.453846 176.81218 
L 524.169231 176.760337 
L 524.884615 176.843598 
L 525.6 177.45625 
L 526.315385 177.805484 
L 527.030769 177.747512 
L 527.746154 177.835281 
L 528.461538 177.786435 
L 529.176923 177.581705 
L 530.607692 176.55404 
L 531.323077 176.401647 
L 532.038462 176.723531 
L 532.753846 176.655498 
L 533.469231 176.202497 
L 534.184615 175.952384 
L 534.9 175.829678 
L 535.615385 175.958322 
L 536.330769 176.206015 
L 537.046154 175.781162 
L 537.761538 175.576679 
L 538.476923 175.747407 
L 539.907692 176.437986 
L 542.053846 176.839173 
L 542.769231 176.579082 
L 543.484615 176.034793 
L 544.915385 176.725263 
L 546.346154 177.644542 
L 547.061538 178.347272 
L 547.776923 178.392929 
L 549.207692 178.170936 
L 550.638462 177.839184 
L 551.353846 178.047983 
L 552.069231 178.133718 
L 552.784615 178.423386 
L 553.5 178.181739 
L 554.215385 178.263433 
L 554.930769 178.088115 
L 555.646154 177.639594 
L 557.076923 178.052683 
L 557.792308 178.758464 
L 558.507692 179.824694 
L 559.223077 180.471678 
L 559.938462 180.623796 
L 560.653846 180.546197 
L 561.369231 179.997401 
L 562.084615 179.674912 
L 564.230769 179.752263 
L 564.946154 180.466098 
L 566.376923 181.317894 
L 567.092308 180.95673 
L 567.807692 180.345508 
L 568.523077 180.074999 
L 569.953846 180.194627 
L 570.669231 179.910566 
L 571.384615 179.848636 
L 572.1 179.987477 
L 572.815385 180.355074 
L 573.530769 181.464487 
L 574.246154 181.456213 
L 575.676923 181.006813 
L 576.392308 181.305662 
L 577.107692 181.185924 
L 577.823077 181.472926 
L 578.538462 182.990646 
L 579.253846 183.943488 
L 579.969231 183.977463 
L 582.115385 183.260247 
L 582.830769 182.784898 
L 583.546154 181.935878 
L 584.261538 181.935328 
L 585.692308 181.566303 
L 587.123077 181.077045 
L 588.553846 180.018649 
L 589.984615 179.76969 
L 590.7 179.136945 
L 593.561538 179.163609 
L 594.276923 179.243351 
L 594.992308 179.528319 
L 595.707692 179.935388 
L 596.423077 180.169997 
L 597.853846 181.151015 
L 598.569231 181.256129 
L 599.284615 181.781313 
L 600.715385 181.819219 
L 601.430769 182.072136 
L 602.146154 182.13162 
L 602.861538 181.964713 
L 606.438462 179.95331 
L 607.153846 179.857817 
L 607.869231 179.991133 
L 608.584615 179.696985 
L 609.3 179.537527 
L 610.015385 179.717903 
L 612.161538 179.140051 
L 613.592308 178.879768 
L 614.307692 178.477949 
L 616.453846 178.63628 
L 617.169231 178.991204 
L 617.884615 178.936833 
L 618.6 179.34272 
L 619.315385 179.337662 
L 620.030769 179.210476 
L 622.176923 178.266402 
L 623.607692 177.129418 
L 624.323077 176.822625 
L 625.038462 177.185548 
L 626.469231 177.3582 
L 627.184615 176.762619 
L 627.9 176.555167 
L 628.615385 176.58425 
L 629.330769 176.927849 
L 630.046154 177.413753 
L 631.476923 178.88029 
L 632.907692 179.557978 
L 633.623077 179.531068 
L 634.338462 180.205237 
L 635.053846 180.226925 
L 635.053846 180.226925 
" clip-path="url(#p23eeed4582)" style="fill: none; stroke: #2626ff; stroke-opacity: 0.8; stroke-width: 2; stroke-linecap: square"/>
   </g>
   <g id="line2d_11">
    <path d="M 650.076923 174.371277 
L 651.865385 174.749841 
L 655.442308 174.700555 
L 659.019231 174.592913 
L 660.807692 174.682441 
L 666.173077 174.512455 
L 667.961538 174.841734 
L 669.75 174.857182 
L 671.538462 174.713145 
L 673.326923 174.718698 
L 675.115385 174.387083 
L 678.692308 173.954917 
L 680.480769 173.400705 
L 682.269231 171.855058 
L 685.846154 171.873063 
L 687.634615 171.69637 
L 689.423077 171.877158 
L 694.788462 171.523773 
L 696.576923 171.641009 
L 698.365385 172.01545 
L 700.153846 172.208773 
L 701.942308 172.174276 
L 703.730769 171.826388 
L 709.096154 171.416543 
L 710.884615 171.706706 
L 712.673077 171.783589 
L 716.25 171.564703 
L 718.038462 172.137854 
L 719.826923 171.927049 
L 723.403846 171.825619 
L 725.192308 172.000772 
L 728.769231 171.99236 
L 730.557692 171.777047 
L 732.346154 171.339412 
L 734.134615 171.122532 
L 735.923077 170.676815 
L 741.288462 169.906328 
L 743.076923 169.893711 
L 744.865385 169.406899 
L 746.653846 168.668133 
L 748.442308 168.369889 
L 752.019231 168.35007 
L 753.807692 168.328794 
L 759.173077 168.78941 
L 760.961538 168.860933 
L 762.75 168.741911 
L 764.538462 169.115389 
L 768.115385 169.049336 
L 773.480769 169.480099 
L 777.057692 169.469407 
L 780.634615 169.287436 
L 782.423077 168.723659 
L 784.211538 168.313346 
L 786 167.782636 
L 787.788462 166.759617 
L 789.576923 166.140863 
L 791.365385 165.941136 
L 793.153846 164.611022 
L 794.942308 164.188862 
L 796.730769 163.036897 
L 798.519231 162.223968 
L 800.307692 162.594396 
L 803.884615 161.663627 
L 805.673077 160.474773 
L 807.461538 160.086835 
L 809.25 159.291114 
L 811.038462 159.192872 
L 812.826923 158.141678 
L 814.615385 157.62529 
L 816.403846 157.929389 
L 819.980769 157.426607 
L 821.769231 157.728012 
L 823.557692 157.780844 
L 825.346154 158.145691 
L 827.134615 158.367079 
L 828.923077 158.829894 
L 830.711538 158.824589 
L 832.5 159.159639 
L 834.288462 158.715269 
L 836.076923 158.104157 
L 837.865385 158.131508 
L 839.653846 157.940769 
L 841.442308 157.62999 
L 843.230769 157.197605 
L 845.019231 157.038037 
L 846.807692 157.117862 
L 848.596154 156.847738 
L 850.384615 156.303724 
L 852.173077 156.596388 
L 853.961538 156.256912 
L 855.75 156.46681 
L 859.326923 155.515095 
L 861.115385 155.845665 
L 862.903846 156.308974 
L 864.692308 156.304191 
L 866.480769 156.624893 
L 868.269231 157.076108 
L 870.057692 157.10673 
L 871.846154 157.257089 
L 875.423077 157.229271 
L 877.211538 157.817953 
L 879 156.823659 
L 880.788462 156.153832 
L 882.576923 155.980988 
L 884.365385 156.076674 
L 886.153846 155.653744 
L 887.942308 154.992082 
L 895.096154 153.852431 
L 898.673077 152.84126 
L 900.461538 151.59152 
L 902.25 150.499149 
L 904.038462 149.559611 
L 905.826923 148.234994 
L 907.615385 148.268227 
L 909.403846 148.068115 
L 911.192308 148.002611 
L 912.980769 148.126499 
L 916.557692 147.687709 
L 918.346154 147.234048 
L 923.711538 145.207554 
L 925.5 144.30573 
L 927.288462 143.278862 
L 929.076923 141.732335 
L 930.865385 138.577654 
L 932.653846 137.733719 
L 934.442308 136.531753 
L 936.230769 135.156943 
L 938.019231 132.210016 
L 939.807692 129.64451 
L 941.596154 129.193186 
L 943.384615 128.992964 
L 943.384615 128.992964 
" clip-path="url(#p23eeed4582)" style="fill: none; stroke: #2626ff; stroke-opacity: 0.8; stroke-width: 2; stroke-linecap: square"/>
   </g>
   <g id="line2d_12">
    <path d="M 650.076923 192.24 
L 650.076923 25.92 
" clip-path="url(#p23eeed4582)" style="fill: none; stroke-dasharray: 3.7,1.6; stroke-dashoffset: 0; stroke: #808080; stroke-opacity: 0.5"/>
   </g>
   <g id="line2d_13">
    <path d="M 739.5 192.24 
L 739.5 25.92 
" clip-path="url(#p23eeed4582)" style="fill: none; stroke-dasharray: 3.7,1.6; stroke-dashoffset: 0; stroke: #808080; stroke-opacity: 0.5"/>
   </g>
   <g id="line2d_14">
    <path d="M 635.769231 192.24 
L 635.769231 25.92 
" clip-path="url(#p23eeed4582)" style="fill: none; stroke-dasharray: 3.7,1.6; stroke-dashoffset: 0; stroke: #808080; stroke-opacity: 0.8"/>
   </g>
   <g id="line2d_15">
    <path d="M 135 175.958055 
L 635.626125 175.958055 
L 635.626125 175.958055 
" clip-path="url(#p23eeed4582)" style="fill: none; stroke-dasharray: 7.4,3.2; stroke-dashoffset: 0; stroke: #2626ff; stroke-opacity: 0.8; stroke-width: 2"/>
   </g>
   <g id="line2d_16">
    <path d="M 650.192839 175.958055 
L 972 175.958055 
L 972 175.958055 
" clip-path="url(#p23eeed4582)" style="fill: none; stroke-dasharray: 7.4,3.2; stroke-dashoffset: 0; stroke: #2626ff; stroke-opacity: 0.8; stroke-width: 2"/>
   </g>
   <g id="line2d_17">
    <path d="M 650.076923 86.44522 
L 972 86.44522 
L 972 86.44522 
" clip-path="url(#p23eeed4582)" style="fill: none; stroke-dasharray: 7.4,3.2; stroke-dashoffset: 0; stroke: #ff0000; stroke-opacity: 0.8; stroke-width: 2"/>
   </g>
   <g id="line2d_18">
    <path d="M 650.076923 87.107167 
L 651.865385 86.508806 
L 653.653846 85.710586 
L 655.442308 85.653884 
L 657.230769 86.393195 
L 659.019231 86.681738 
L 660.807692 86.555239 
L 662.596154 87.031611 
L 664.384615 87.337859 
L 667.961538 87.120199 
L 673.326923 87.006129 
L 675.115385 87.347343 
L 678.692308 88.619466 
L 680.480769 88.769355 
L 682.269231 88.560301 
L 684.057692 88.563574 
L 685.846154 88.084182 
L 687.634615 87.453619 
L 689.423077 86.612708 
L 691.211538 86.514793 
L 693 87.226159 
L 694.788462 87.474969 
L 696.576923 87.317342 
L 698.365385 87.755423 
L 700.153846 88.040407 
L 703.730769 87.774777 
L 709.096154 87.608162 
L 710.884615 87.932055 
L 714.461538 89.166682 
L 716.25 89.306862 
L 718.038462 89.090128 
L 719.826923 89.071277 
L 721.615385 88.57112 
L 723.403846 87.933347 
L 725.192308 87.066762 
L 726.980769 86.955224 
L 728.769231 87.645163 
L 730.557692 87.884201 
L 732.346154 87.705629 
L 734.134615 88.142239 
L 735.923077 88.405433 
L 737.711538 88.204881 
L 746.653846 87.742388 
L 748.442308 88.642404 
L 752.019231 89.349293 
L 753.807692 89.697694 
L 755.596154 89.776469 
L 757.384615 89.531436 
L 759.173077 88.891882 
L 760.961538 87.733375 
L 762.75 87.544255 
L 764.538462 87.818395 
L 766.326923 88.467171 
L 768.115385 88.279627 
L 769.903846 88.542354 
L 771.692308 88.647514 
L 773.480769 88.225324 
L 775.269231 88.154023 
L 777.057692 88.330199 
L 784.211538 86.707442 
L 787.788462 85.855234 
L 789.576923 85.620096 
L 791.365385 85.781723 
L 793.153846 86.069104 
L 794.942308 86.096014 
L 796.730769 85.385228 
L 798.519231 84.32208 
L 802.096154 83.459939 
L 803.884615 83.044201 
L 805.673077 83.282804 
L 807.461538 83.183092 
L 809.25 82.556353 
L 811.038462 82.442918 
L 812.826923 82.665851 
L 814.615385 83.177869 
L 816.403846 83.218131 
L 818.192308 82.900796 
L 819.980769 82.967432 
L 821.769231 82.661843 
L 823.557692 82.842631 
L 825.346154 82.873605 
L 827.134615 82.309981 
L 830.711538 80.718217 
L 832.5 80.109639 
L 834.288462 80.138125 
L 836.076923 80.557998 
L 837.865385 81.466634 
L 839.653846 81.615229 
L 841.442308 81.218828 
L 843.230769 81.022352 
L 845.019231 81.116009 
L 850.384615 79.859059 
L 852.173077 79.790955 
L 853.961538 79.994946 
L 855.75 80.790936 
L 857.538462 81.035527 
L 859.326923 81.90212 
L 861.115385 82.138223 
L 862.903846 82.681269 
L 864.692308 83.513637 
L 866.480769 84.03543 
L 870.057692 85.942544 
L 873.634615 85.949558 
L 875.423077 86.763949 
L 877.211538 86.531613 
L 879 86.431722 
L 880.788462 86.851496 
L 882.576923 86.799761 
L 886.153846 87.430922 
L 889.730769 87.398121 
L 893.307692 88.812574 
L 895.096154 88.954228 
L 896.884615 88.973991 
L 898.673077 88.125988 
L 900.461538 87.013914 
L 902.25 85.460834 
L 904.038462 84.394021 
L 905.826923 83.477477 
L 907.615385 83.688078 
L 909.403846 83.668743 
L 911.192308 83.19443 
L 912.980769 82.535363 
L 914.769231 81.356581 
L 916.557692 79.180635 
L 920.134615 75.514925 
L 921.923077 73.825867 
L 923.711538 72.337488 
L 925.5 70.4092 
L 930.865385 63.220728 
L 934.442308 58.828074 
L 936.230769 56.663627 
L 941.596154 52.70979 
L 943.384615 51.229515 
L 943.384615 51.229515 
" clip-path="url(#p23eeed4582)" style="fill: none; stroke: #0b0b0b; stroke-opacity: 0.8; stroke-width: 2; stroke-linecap: square"/>
   </g>
   <g id="line2d_19">
    <path d="M 650.076923 68.490698 
L 651.865385 67.647299 
L 653.653846 67.146648 
L 655.442308 67.332535 
L 657.230769 69.528822 
L 659.019231 69.522596 
L 660.807692 69.664873 
L 662.596154 72.010076 
L 664.384615 72.056847 
L 666.173077 72.301105 
L 667.961538 71.773735 
L 669.75 69.50554 
L 671.538462 69.273431 
L 673.326923 69.649068 
L 675.115385 71.681403 
L 676.903846 71.812136 
L 678.692308 73.172116 
L 680.480769 72.545927 
L 682.269231 71.755194 
L 684.057692 71.254543 
L 685.846154 70.031728 
L 687.634615 69.156511 
L 689.423077 68.629842 
L 691.211538 68.744866 
L 693 70.88439 
L 694.788462 70.801638 
L 696.576923 70.912991 
L 698.365385 73.166096 
L 700.153846 73.19592 
L 701.942308 73.404664 
L 703.730769 72.830757 
L 705.519231 70.595121 
L 707.307692 70.343592 
L 709.096154 70.707313 
L 710.884615 72.717273 
L 712.673077 72.82563 
L 714.461538 74.155222 
L 716.25 73.50817 
L 718.038462 72.705178 
L 719.826923 72.193132 
L 721.615385 70.907164 
L 723.403846 70.076505 
L 725.192308 69.482065 
L 726.980769 69.620384 
L 728.769231 71.704122 
L 730.557692 71.627293 
L 732.346154 71.711076 
L 734.134615 73.945613 
L 735.923077 73.934343 
L 737.711538 74.11164 
L 739.5 73.525487 
L 741.288462 71.271462 
L 743.076923 70.707931 
L 744.865385 70.58249 
L 746.653846 70.761533 
L 748.442308 72.42021 
L 752.019231 72.702718 
L 753.807692 74.743574 
L 757.384615 74.754885 
L 759.173077 73.969843 
L 760.961538 71.904138 
L 762.75 71.647029 
L 764.538462 71.688303 
L 766.326923 73.682801 
L 768.115385 73.73074 
L 769.903846 75.125231 
L 773.480769 73.366071 
L 775.269231 72.859633 
L 777.057692 71.501742 
L 778.846154 70.595299 
L 782.423077 70.134093 
L 787.788462 68.132929 
L 789.576923 68.100699 
L 791.365385 68.878292 
L 793.153846 70.077646 
L 794.942308 70.298539 
L 796.730769 70.120308 
L 800.307692 66.937808 
L 802.096154 65.835266 
L 803.884615 66.150264 
L 805.673077 67.852277 
L 807.461538 68.00199 
L 809.25 67.193542 
L 811.038462 66.090286 
L 812.826923 65.129417 
L 816.403846 65.894901 
L 819.980769 67.650804 
L 821.769231 68.364721 
L 823.557692 69.477323 
L 825.346154 69.918422 
L 827.134615 70.11793 
L 828.923077 69.118812 
L 830.711538 68.37753 
L 832.5 68.576323 
L 834.288462 69.123581 
L 836.076923 70.722211 
L 837.865385 71.329654 
L 839.653846 70.932027 
L 841.442308 69.692499 
L 843.230769 68.770374 
L 845.019231 68.568324 
L 846.807692 67.712198 
L 848.596154 67.554046 
L 850.384615 67.221813 
L 852.173077 67.972386 
L 853.961538 68.283219 
L 855.75 71.18016 
L 857.538462 73.281641 
L 859.326923 75.088012 
L 861.115385 75.61765 
L 862.903846 77.4325 
L 864.692308 79.685344 
L 866.480769 80.875503 
L 868.269231 81.493075 
L 870.057692 82.228405 
L 871.846154 81.854459 
L 873.634615 82.14869 
L 875.423077 85.170646 
L 877.211538 85.466375 
L 879 85.645707 
L 880.788462 86.435642 
L 882.576923 84.782942 
L 886.153846 86.006307 
L 887.942308 85.658269 
L 889.730769 86.016739 
L 891.519231 86.814975 
L 893.307692 88.143591 
L 895.096154 88.674466 
L 896.884615 88.134273 
L 898.673077 87.276305 
L 900.461538 87.954145 
L 904.038462 87.90659 
L 905.826923 86.922728 
L 907.615385 87.264554 
L 909.403846 87.822216 
L 911.192308 88.066254 
L 914.769231 87.302763 
L 916.557692 84.963085 
L 918.346154 82.920978 
L 920.134615 81.10265 
L 921.923077 77.66509 
L 923.711538 75.807935 
L 927.288462 71.10028 
L 929.076923 69.388661 
L 930.865385 68.232449 
L 932.653846 66.928682 
L 934.442308 66.165823 
L 936.230769 65.100142 
L 938.019231 64.284712 
L 939.807692 63.312065 
L 941.596154 62.81999 
L 943.384615 61.581589 
L 943.384615 61.581589 
" clip-path="url(#p23eeed4582)" style="fill: none; stroke: #d3d3d3; stroke-opacity: 0.6; stroke-linecap: square"/>
   </g>
   <g id="line2d_20">
    <path d="M 650.076923 100.042093 
L 651.865385 98.717051 
L 653.653846 97.178495 
L 655.442308 96.729177 
L 657.230769 97.132054 
L 660.807692 98.772013 
L 662.596154 98.739426 
L 666.173077 96.402579 
L 667.961538 96.300764 
L 669.75 96.679094 
L 671.538462 96.397411 
L 673.326923 96.634344 
L 675.115385 97.250417 
L 676.903846 98.602481 
L 678.692308 98.970187 
L 680.480769 99.785411 
L 682.269231 100.404275 
L 684.057692 101.739694 
L 685.846154 101.113491 
L 687.634615 99.741636 
L 689.423077 98.102145 
L 691.211538 97.654449 
L 693 98.028189 
L 696.576923 99.591456 
L 698.365385 99.531738 
L 701.942308 97.127697 
L 703.730769 96.987894 
L 705.519231 97.346763 
L 707.307692 97.038678 
L 709.096154 97.238185 
L 710.884615 97.828819 
L 712.673077 99.166478 
L 714.461538 99.499151 
L 716.25 100.297223 
L 718.038462 100.912678 
L 719.826923 102.220829 
L 721.615385 101.57434 
L 723.403846 100.170929 
L 725.192308 98.539918 
L 726.980769 98.055773 
L 728.769231 98.40098 
L 732.346154 99.933928 
L 734.134615 99.863147 
L 737.711538 97.430779 
L 739.5 97.292817 
L 741.288462 97.651645 
L 743.076923 97.343203 
L 744.865385 97.538409 
L 746.653846 98.126444 
L 748.442308 99.460627 
L 750.230769 99.776821 
L 752.019231 100.592003 
L 753.807692 101.190595 
L 755.596154 102.507199 
L 757.384615 101.841303 
L 759.173077 100.418884 
L 760.961538 98.78184 
L 762.75 98.291853 
L 764.538462 98.636318 
L 768.115385 100.135071 
L 769.903846 100.083971 
L 773.480769 97.638396 
L 775.269231 97.473853 
L 777.057692 97.837807 
L 778.846154 97.126804 
L 780.634615 96.211936 
L 782.423077 95.672911 
L 784.211538 95.828397 
L 786 96.56638 
L 787.788462 96.504848 
L 789.576923 95.022272 
L 791.365385 94.598518 
L 793.153846 94.606489 
L 794.942308 94.870085 
L 798.519231 94.773039 
L 802.096154 94.387864 
L 803.884615 93.011817 
L 805.673077 92.155966 
L 807.461538 91.102188 
L 811.038462 89.453516 
L 812.826923 89.325738 
L 814.615385 89.600783 
L 816.403846 89.427746 
L 818.192308 88.261047 
L 821.769231 87.711275 
L 823.557692 87.813475 
L 827.134615 85.971714 
L 828.923077 85.280419 
L 830.711538 84.30916 
L 832.5 82.612549 
L 837.865385 80.333674 
L 839.653846 79.798814 
L 841.442308 79.437581 
L 843.230769 79.80761 
L 845.019231 79.284116 
L 846.807692 78.441981 
L 848.596154 78.498029 
L 850.384615 78.002628 
L 852.173077 77.199059 
L 855.75 74.906674 
L 857.538462 72.645447 
L 859.326923 71.869682 
L 861.115385 71.223742 
L 862.903846 70.207637 
L 864.692308 69.528121 
L 866.480769 68.081059 
L 871.846154 68.23572 
L 873.634615 67.419369 
L 875.423077 67.175427 
L 877.211538 66.760964 
L 879 66.643343 
L 880.788462 66.899627 
L 882.576923 67.441689 
L 884.365385 67.294766 
L 886.153846 67.731357 
L 887.942308 68.600032 
L 889.730769 68.794248 
L 891.519231 69.993313 
L 893.307692 70.764817 
L 895.096154 73.155788 
L 896.884615 73.465041 
L 898.673077 73.105499 
L 900.461538 71.624132 
L 902.25 69.178859 
L 905.826923 68.664079 
L 907.615385 69.868092 
L 909.403846 69.967172 
L 911.192308 69.13136 
L 912.980769 67.020849 
L 914.769231 64.625384 
L 916.557692 60.976964 
L 918.346154 57.935629 
L 920.134615 56.421551 
L 921.923077 55.896779 
L 923.711538 55.491785 
L 925.5 54.330722 
L 927.288462 53.021416 
L 929.076923 51.127977 
L 930.865385 48.622093 
L 932.653846 44.795922 
L 934.442308 43.760355 
L 936.230769 41.360534 
L 939.807692 37.315929 
L 941.596154 35.053341 
L 943.384615 33.48 
L 943.384615 33.48 
" clip-path="url(#p23eeed4582)" style="fill: none; stroke: #d3d3d3; stroke-opacity: 0.6; stroke-linecap: square"/>
   </g>
   <g id="line2d_21">
    <path d="M 650.076923 101.774727 
L 651.865385 102.557131 
L 653.653846 102.551963 
L 655.442308 103.041551 
L 659.019231 102.419952 
L 660.807692 100.945828 
L 662.596154 99.867174 
L 666.173077 100.024583 
L 667.961538 100.444709 
L 669.75 99.336505 
L 671.538462 98.874845 
L 675.115385 97.631496 
L 676.903846 98.100111 
L 678.692308 99.222746 
L 680.480769 99.491001 
L 682.269231 100.017657 
L 684.057692 101.593183 
L 685.846154 102.715805 
L 687.634615 103.450077 
L 689.423077 103.404144 
L 691.211538 103.839086 
L 694.788462 103.120977 
L 696.576923 101.604701 
L 698.365385 100.492896 
L 701.942308 100.614008 
L 703.730769 101.022121 
L 705.519231 99.899266 
L 707.307692 99.394244 
L 710.884615 98.105966 
L 712.673077 98.562939 
L 714.461538 99.665495 
L 716.25 99.933763 
L 718.038462 100.450949 
L 719.826923 102.007042 
L 721.615385 103.106106 
L 723.403846 103.811048 
L 725.192308 103.747098 
L 726.980769 104.160214 
L 730.557692 103.420637 
L 732.346154 101.871402 
L 734.134615 100.773726 
L 737.711538 100.887939 
L 739.5 101.260483 
L 741.288462 100.133133 
L 743.076923 99.643463 
L 746.653846 98.337002 
L 748.442308 98.800408 
L 750.230769 99.902578 
L 752.019231 100.148884 
L 753.807692 100.661864 
L 755.596154 102.212748 
L 757.384615 103.294454 
L 759.173077 103.995946 
L 760.961538 103.923694 
L 762.75 104.346761 
L 766.326923 103.573154 
L 768.115385 102.037952 
L 769.903846 100.913805 
L 773.480769 101.043094 
L 775.269231 101.427788 
L 777.057692 100.412425 
L 778.846154 99.653125 
L 782.423077 99.130277 
L 784.211538 99.258879 
L 787.788462 96.277152 
L 789.576923 95.906257 
L 791.365385 94.546648 
L 794.942308 91.302177 
L 796.730769 88.474285 
L 798.519231 86.06832 
L 800.307692 85.721642 
L 803.884615 83.977518 
L 805.673077 83.83535 
L 807.461538 84.184695 
L 809.25 83.812398 
L 811.038462 83.838731 
L 812.826923 84.420418 
L 814.615385 83.187913 
L 816.403846 82.894768 
L 818.192308 81.999953 
L 819.980769 81.740576 
L 821.769231 81.059507 
L 823.557692 81.173624 
L 825.346154 82.253983 
L 827.134615 82.449023 
L 828.923077 82.919796 
L 830.711538 82.87543 
L 832.5 82.296575 
L 834.288462 82.303392 
L 836.076923 83.192765 
L 839.653846 86.748138 
L 841.442308 87.248914 
L 843.230769 87.886565 
L 845.019231 89.703986 
L 846.807692 89.248538 
L 848.596154 88.071875 
L 850.384615 87.202404 
L 852.173077 87.280209 
L 853.961538 87.808871 
L 855.75 88.843338 
L 857.538462 88.4768 
L 859.326923 89.230547 
L 861.115385 89.419486 
L 862.903846 89.041045 
L 866.480769 86.829393 
L 868.269231 85.313776 
L 870.057692 84.059996 
L 871.846154 83.812027 
L 873.634615 82.65007 
L 875.423077 82.222536 
L 877.211538 82.354355 
L 879 82.808882 
L 882.576923 82.716811 
L 884.365385 81.862018 
L 886.153846 80.472172 
L 887.942308 79.875863 
L 889.730769 79.547959 
L 891.519231 80.288182 
L 893.307692 80.507976 
L 896.884615 78.678941 
L 898.673077 77.31323 
L 900.461538 76.591768 
L 902.25 76.221161 
L 904.038462 75.677491 
L 905.826923 74.526736 
L 907.615385 74.8455 
L 909.403846 75.924731 
L 911.192308 76.820674 
L 912.980769 77.208831 
L 914.769231 76.448267 
L 916.557692 76.277608 
L 918.346154 76.364484 
L 920.134615 75.224297 
L 921.923077 73.75464 
L 923.711538 73.019558 
L 925.5 72.708312 
L 927.288462 71.836916 
L 929.076923 70.001615 
L 930.865385 68.699565 
L 932.653846 65.537544 
L 934.442308 61.746695 
L 936.230769 60.169024 
L 938.019231 60.168007 
L 939.807692 59.909126 
L 941.596154 60.822083 
L 943.384615 60.357853 
L 943.384615 60.357853 
" clip-path="url(#p23eeed4582)" style="fill: none; stroke: #d3d3d3; stroke-opacity: 0.6; stroke-linecap: square"/>
   </g>
   <g id="line2d_22">
    <path d="M 650.076923 80.482755 
L 651.865385 79.302849 
L 653.653846 77.04426 
L 655.442308 76.197426 
L 657.230769 76.793227 
L 659.019231 78.305669 
L 662.596154 80.361465 
L 664.384615 82.356966 
L 666.173077 82.878069 
L 667.961538 82.974469 
L 669.75 83.801609 
L 671.538462 83.72133 
L 675.115385 83.755828 
L 678.692308 84.871385 
L 680.480769 85.24676 
L 682.269231 83.963582 
L 684.057692 81.930312 
L 685.846154 81.231912 
L 687.634615 80.020284 
L 689.423077 77.718375 
L 691.211538 76.836823 
L 693 77.441736 
L 694.788462 78.923873 
L 698.365385 80.921106 
L 700.153846 82.907302 
L 701.942308 83.395351 
L 703.730769 83.480055 
L 705.519231 84.285218 
L 707.307692 84.175473 
L 710.884615 84.189643 
L 714.461538 85.260972 
L 716.25 85.626273 
L 718.038462 84.338833 
L 719.826923 82.281732 
L 721.615385 81.577875 
L 723.403846 80.364049 
L 725.192308 78.052999 
L 726.980769 77.165853 
L 728.769231 77.758988 
L 730.557692 79.220316 
L 734.134615 81.213825 
L 735.923077 83.16448 
L 737.711538 83.641203 
L 739.5 83.736641 
L 741.288462 84.52795 
L 744.865385 84.426644 
L 746.653846 84.419923 
L 750.230769 85.4875 
L 752.019231 85.871218 
L 753.807692 84.583806 
L 755.596154 82.506982 
L 757.384615 81.809049 
L 759.173077 80.557399 
L 760.961538 78.256397 
L 762.75 77.372508 
L 764.538462 77.950085 
L 766.326923 79.423782 
L 769.903846 81.399437 
L 771.692308 83.365554 
L 773.480769 83.850331 
L 775.269231 83.943502 
L 777.057692 84.755523 
L 778.846154 84.8913 
L 780.634615 84.72196 
L 782.423077 83.553998 
L 784.211538 82.005065 
L 786 81.063617 
L 787.788462 81.242467 
L 789.576923 82.055135 
L 791.365385 83.613688 
L 793.153846 84.679849 
L 794.942308 85.560384 
L 798.519231 85.069216 
L 800.307692 85.016727 
L 802.096154 84.276862 
L 803.884615 83.338987 
L 805.673077 82.900733 
L 807.461538 81.806218 
L 809.25 80.984177 
L 811.038462 80.732057 
L 812.826923 80.618628 
L 814.615385 81.819769 
L 816.403846 80.751189 
L 819.980769 77.4586 
L 821.769231 76.232899 
L 823.557692 75.873356 
L 825.346154 76.415996 
L 827.134615 75.582671 
L 828.923077 74.070972 
L 830.711538 72.307262 
L 832.5 71.303581 
L 834.288462 72.021305 
L 836.076923 72.886447 
L 837.865385 75.839945 
L 839.653846 76.090016 
L 841.442308 75.119389 
L 845.019231 74.970955 
L 846.807692 75.752148 
L 848.596154 75.377295 
L 850.384615 75.245463 
L 852.173077 74.801436 
L 853.961538 75.968932 
L 855.75 76.200106 
L 857.538462 76.310373 
L 859.326923 76.954031 
L 861.115385 76.428434 
L 862.903846 76.301536 
L 864.692308 77.134105 
L 868.269231 83.955225 
L 870.057692 86.307603 
L 871.846154 86.071797 
L 873.634615 86.41049 
L 875.423077 87.658677 
L 877.211538 86.978982 
L 879 86.546308 
L 880.788462 87.005288 
L 882.576923 86.792683 
L 884.365385 87.763296 
L 887.942308 88.274943 
L 889.730769 87.62789 
L 891.519231 88.466657 
L 893.307692 89.942032 
L 895.096154 90.001667 
L 896.884615 92.625639 
L 898.673077 92.121647 
L 900.461538 90.076255 
L 902.25 87.2594 
L 904.038462 84.145167 
L 905.826923 84.401547 
L 907.615385 84.843347 
L 909.403846 84.750933 
L 911.192308 84.186248 
L 912.980769 84.122874 
L 914.769231 83.477718 
L 916.557692 81.721321 
L 918.346154 79.720625 
L 920.134615 77.136634 
L 921.923077 75.991981 
L 923.711538 75.279026 
L 925.5 73.312483 
L 927.288462 70.54523 
L 929.076923 66.603898 
L 930.865385 63.703686 
L 932.653846 61.923278 
L 934.442308 59.071884 
L 936.230769 55.404057 
L 938.019231 53.040795 
L 939.807692 51.075214 
L 941.596154 48.286754 
L 943.384615 46.742124 
L 943.384615 46.742124 
" clip-path="url(#p23eeed4582)" style="fill: none; stroke: #d3d3d3; stroke-opacity: 0.6; stroke-linecap: square"/>
   </g>
   <g id="line2d_23">
    <path d="M 650.076923 84.745559 
L 651.865385 84.319702 
L 655.442308 84.968733 
L 657.230769 85.791668 
L 659.019231 85.179484 
L 660.807692 84.018296 
L 662.596154 84.179912 
L 664.384615 84.696617 
L 666.173077 84.270718 
L 667.961538 84.107316 
L 669.75 86.149781 
L 671.538462 86.763559 
L 673.326923 86.753485 
L 675.115385 86.417568 
L 676.903846 86.896999 
L 680.480769 86.777674 
L 682.269231 86.660795 
L 684.057692 86.30014 
L 685.846154 85.327973 
L 687.634615 84.899588 
L 691.211538 85.498742 
L 693 86.318213 
L 694.788462 85.686293 
L 696.576923 84.525394 
L 698.365385 84.66528 
L 700.153846 85.158208 
L 701.942308 84.730523 
L 703.730769 84.553061 
L 705.519231 86.583472 
L 707.307692 87.180208 
L 709.096154 87.168127 
L 710.884615 86.818576 
L 712.673077 87.288785 
L 716.25 87.168883 
L 718.038462 87.043002 
L 719.826923 86.653648 
L 721.615385 85.690113 
L 723.403846 85.244204 
L 726.980769 85.773897 
L 728.769231 86.585657 
L 730.557692 85.949421 
L 732.346154 84.778311 
L 734.134615 84.914885 
L 735.923077 85.399401 
L 737.711538 84.952845 
L 739.5 84.786076 
L 741.288462 86.827826 
L 743.076923 87.427847 
L 744.865385 87.407368 
L 746.653846 87.06704 
L 748.442308 87.53964 
L 752.019231 87.43164 
L 753.807692 87.308631 
L 755.596154 86.920446 
L 757.384615 85.957489 
L 759.173077 85.517338 
L 762.75 86.063125 
L 764.538462 86.863808 
L 766.326923 86.23733 
L 768.115385 85.064007 
L 769.903846 85.189324 
L 771.692308 85.675778 
L 773.480769 85.228728 
L 775.269231 85.06534 
L 777.057692 87.143497 
L 778.846154 87.414295 
L 780.634615 87.282641 
L 782.423077 86.964606 
L 789.576923 87.016118 
L 791.365385 87.271468 
L 793.153846 88.0593 
L 794.942308 88.448886 
L 796.730769 88.232914 
L 798.519231 87.222841 
L 800.307692 86.99887 
L 802.096154 87.935302 
L 805.673077 89.669695 
L 807.461538 90.820368 
L 809.25 90.509108 
L 812.826923 93.835054 
L 814.615385 95.779015 
L 818.192308 98.352272 
L 819.980769 99.965017 
L 823.557692 99.875379 
L 825.346154 98.921973 
L 827.134615 97.428567 
L 828.923077 96.234435 
L 830.711538 95.721703 
L 832.5 95.759169 
L 836.076923 94.988901 
L 837.865385 94.833677 
L 839.653846 94.507148 
L 841.442308 94.595755 
L 843.230769 93.647105 
L 846.807692 92.399386 
L 848.596154 91.49205 
L 853.961538 91.82809 
L 855.75 92.824404 
L 857.538462 94.463373 
L 859.326923 96.368329 
L 861.115385 98.0018 
L 862.903846 100.423626 
L 864.692308 103.281892 
L 866.480769 103.903916 
L 868.269231 105.920638 
L 870.057692 108.870686 
L 871.846154 109.816203 
L 873.634615 111.119173 
L 875.423077 111.59246 
L 879 110.514369 
L 880.788462 111.129604 
L 884.365385 113.473268 
L 886.153846 114.898876 
L 887.942308 114.807423 
L 889.730769 115.00377 
L 893.307692 114.704453 
L 898.673077 110.813259 
L 902.25 106.74551 
L 904.038462 105.355624 
L 905.826923 102.872294 
L 907.615385 101.618898 
L 909.403846 99.878664 
L 911.192308 97.767617 
L 912.980769 96.627774 
L 914.769231 94.928771 
L 916.557692 91.964196 
L 918.346154 89.529561 
L 921.923077 85.820846 
L 925.5 78.209859 
L 927.288462 73.289544 
L 930.865385 66.845847 
L 932.653846 65.61381 
L 936.230769 61.284375 
L 939.807692 58.36965 
L 941.596154 56.566784 
L 943.384615 53.986009 
L 943.384615 53.986009 
" clip-path="url(#p23eeed4582)" style="fill: none; stroke: #d3d3d3; stroke-opacity: 0.6; stroke-linecap: square"/>
   </g>
   <g id="patch_3">
    <path d="M 135 192.24 
L 135 25.92 
" style="fill: none; stroke: #000000; stroke-width: 0.8; stroke-linejoin: miter; stroke-linecap: square"/>
   </g>
   <g id="patch_4">
    <path d="M 972 192.24 
L 972 25.92 
" style="fill: none"/>
   </g>
   <g id="patch_5">
    <path d="M 135 192.24 
L 972 192.24 
" style="fill: none; stroke: #000000; stroke-width: 0.8; stroke-linejoin: miter; stroke-linecap: square"/>
   </g>
   <g id="patch_6">
    <path d="M 135 25.92 
L 972 25.92 
" style="fill: none"/>
   </g>
   <g id="legend_1">
    <g id="patch_7">
     <path d="M 142 107.310625 
L 458.735938 107.310625 
Q 460.735938 107.310625 460.735938 105.310625 
L 460.735938 32.92 
Q 460.735938 30.92 458.735938 30.92 
L 142 30.92 
Q 140 30.92 140 32.92 
L 140 105.310625 
Q 140 107.310625 142 107.310625 
z
" style="fill: #ffffff; opacity: 0.8; stroke: #cccccc; stroke-linejoin: miter"/>
    </g>
    <g id="line2d_24">
     <path d="M 144 39.018438 
L 154 39.018438 
L 164 39.018438 
" style="fill: none; stroke: #2626ff; stroke-opacity: 0.8; stroke-width: 2; stroke-linecap: square"/>
    </g>
    <g id="text_11">
     <text style="font: 10px 'DejaVu Sans', 'Bitstream Vera Sans', 'Computer Modern Sans Serif', 'Lucida Grande', 'Verdana', 'Geneva', 'Lucid', 'Arial', 'Helvetica', 'Avant Garde', sans-serif; text-anchor: start" x="172" y="42.518438" transform="rotate(-0 172 42.518438)">CESM2 mid-Holocene and historical series</text>
    </g>
    <g id="line2d_25">
     <path d="M 144 53.696562 
L 154 53.696562 
L 164 53.696562 
" style="fill: none; stroke-dasharray: 7.4,3.2; stroke-dashoffset: 0; stroke: #2626ff; stroke-opacity: 0.8; stroke-width: 2"/>
    </g>
    <g id="text_12">
     <text style="font: 10px 'DejaVu Sans', 'Bitstream Vera Sans', 'Computer Modern Sans Serif', 'Lucida Grande', 'Verdana', 'Geneva', 'Lucid', 'Arial', 'Helvetica', 'Avant Garde', sans-serif; text-anchor: start" x="172" y="57.196562" transform="rotate(-0 172 57.196562)">Mid-Holocene baseline based on CESM2</text>
    </g>
    <g id="line2d_26">
     <path d="M 144 68.374687 
L 154 68.374687 
L 164 68.374687 
" style="fill: none; stroke-dasharray: 7.4,3.2; stroke-dashoffset: 0; stroke: #ff0000; stroke-opacity: 0.8; stroke-width: 2"/>
    </g>
    <g id="text_13">
     <text style="font: 10px 'DejaVu Sans', 'Bitstream Vera Sans', 'Computer Modern Sans Serif', 'Lucida Grande', 'Verdana', 'Geneva', 'Lucid', 'Arial', 'Helvetica', 'Avant Garde', sans-serif; text-anchor: start" x="172" y="71.874687" transform="rotate(-0 172 71.874687)">Pre-industrial baseline based on ISIMIP multimodel mean</text>
    </g>
    <g id="line2d_27">
     <path d="M 144 83.052813 
L 154 83.052813 
L 164 83.052813 
" style="fill: none; stroke: #0b0b0b; stroke-opacity: 0.8; stroke-width: 2; stroke-linecap: square"/>
    </g>
    <g id="text_14">
     <text style="font: 10px 'DejaVu Sans', 'Bitstream Vera Sans', 'Computer Modern Sans Serif', 'Lucida Grande', 'Verdana', 'Geneva', 'Lucid', 'Arial', 'Helvetica', 'Avant Garde', sans-serif; text-anchor: start" x="172" y="86.552813" transform="rotate(-0 172 86.552813)">ISIMIP multimodel mean, 1850-2014</text>
    </g>
    <g id="line2d_28">
     <path d="M 144 97.730938 
L 154 97.730938 
L 164 97.730938 
" style="fill: none; stroke: #d3d3d3; stroke-opacity: 0.6; stroke-linecap: square"/>
    </g>
    <g id="text_15">
     <text style="font: 10px 'DejaVu Sans', 'Bitstream Vera Sans', 'Computer Modern Sans Serif', 'Lucida Grande', 'Verdana', 'Geneva', 'Lucid', 'Arial', 'Helvetica', 'Avant Garde', sans-serif; text-anchor: start" x="172" y="101.230938" transform="rotate(-0 172 101.230938)">ISIMIP individual simulations, 1850-2014</text>
    </g>
   </g>
  </g>
 </g>
 <defs>
  <clipPath id="p23eeed4582">
   <rect x="135" y="25.92" width="837" height="166.32"/>
  </clipPath>
 </defs>
</svg>
