<?xml version="1.0" encoding="utf-8" standalone="no"?>
<!DOCTYPE svg PUBLIC "-//W3C//DTD SVG 1.1//EN"
  "http://www.w3.org/Graphics/SVG/1.1/DTD/svg11.dtd">
<svg xmlns:xlink="http://www.w3.org/1999/xlink" width="1080pt" height="216pt" viewBox="0 0 1080 216" xmlns="http://www.w3.org/2000/svg" version="1.1">
 <metadata>
  <rdf:RDF xmlns:dc="http://purl.org/dc/elements/1.1/" xmlns:cc="http://creativecommons.org/ns#" xmlns:rdf="http://www.w3.org/1999/02/22-rdf-syntax-ns#">
   <cc:Work>
    <dc:type rdf:resource="http://purl.org/dc/dcmitype/StillImage"/>
    <dc:date>2026-01-04T10:29:57.176120</dc:date>
    <dc:format>image/svg+xml</dc:format>
    <dc:creator>
     <cc:Agent>
      <dc:title>Matplotlib v3.7.5, https://matplotlib.org/</dc:title>
     </cc:Agent>
    </dc:creator>
   </cc:Work>
  </rdf:RDF>
 </metadata>
 <defs>
  <style type="text/css">*{stroke-linejoin: round; stroke-linecap: butt}</style>
 </defs>
 <g id="figure_1">
  <g id="patch_1">
   <path d="M 0 216 
L 1080 216 
L 1080 0 
L 0 0 
z
" style="fill: #ffffff"/>
  </g>
  <g id="axes_1">
   <g id="patch_2">
    <path d="M 135 192.24 
L 972 192.24 
L 972 25.92 
L 135 25.92 
z
" style="fill: #ffffff"/>
   </g>
   <g id="matplotlib.axis_1">
    <g id="xtick_1">
     <g id="line2d_1">
      <defs>
       <path id="mba70352445" d="M 0 0 
L 0 3.5 
" style="stroke: #000000; stroke-width: 0.8"/>
      </defs>
      <g>
       <use xlink:href="#mba70352445" x="625.549451" y="192.24" style="stroke: #000000; stroke-width: 0.8"/>
      </g>
     </g>
     <g id="text_1">
      <text style="font: 10px 'DejaVu Sans', 'Bitstream Vera Sans', 'Computer Modern Sans Serif', 'Lucida Grande', 'Verdana', 'Geneva', 'Lucid', 'Arial', 'Helvetica', 'Avant Garde', sans-serif; text-anchor: middle" x="625.549451" y="206.838437" transform="rotate(-0 625.549451 206.838437)">1850</text>
     </g>
    </g>
    <g id="xtick_2">
     <g id="line2d_2">
      <g>
       <use xlink:href="#mba70352445" x="710.714286" y="192.24" style="stroke: #000000; stroke-width: 0.8"/>
      </g>
     </g>
     <g id="text_2">
      <text style="font: 10px 'DejaVu Sans', 'Bitstream Vera Sans', 'Computer Modern Sans Serif', 'Lucida Grande', 'Verdana', 'Geneva', 'Lucid', 'Arial', 'Helvetica', 'Avant Garde', sans-serif; text-anchor: middle" x="710.714286" y="206.838437" transform="rotate(-0 710.714286 206.838437)">1900</text>
     </g>
    </g>
    <g id="xtick_3">
     <g id="line2d_3">
      <g>
       <use xlink:href="#mba70352445" x="795.879121" y="192.24" style="stroke: #000000; stroke-width: 0.8"/>
      </g>
     </g>
     <g id="text_3">
      <text style="font: 10px 'DejaVu Sans', 'Bitstream Vera Sans', 'Computer Modern Sans Serif', 'Lucida Grande', 'Verdana', 'Geneva', 'Lucid', 'Arial', 'Helvetica', 'Avant Garde', sans-serif; text-anchor: middle" x="795.879121" y="206.838437" transform="rotate(-0 795.879121 206.838437)">1950</text>
     </g>
    </g>
    <g id="xtick_4">
     <g id="line2d_4">
      <g>
       <use xlink:href="#mba70352445" x="855.494505" y="192.24" style="stroke: #000000; stroke-width: 0.8"/>
      </g>
     </g>
     <g id="text_4">
      <text style="font: 10px 'DejaVu Sans', 'Bitstream Vera Sans', 'Computer Modern Sans Serif', 'Lucida Grande', 'Verdana', 'Geneva', 'Lucid', 'Arial', 'Helvetica', 'Avant Garde', sans-serif; text-anchor: middle" x="855.494505" y="206.838437" transform="rotate(-0 855.494505 206.838437)">1985</text>
     </g>
    </g>
    <g id="xtick_5">
     <g id="line2d_5">
      <g>
       <use xlink:href="#mba70352445" x="915.10989" y="192.24" style="stroke: #000000; stroke-width: 0.8"/>
      </g>
     </g>
     <g id="text_5">
      <text style="font: 10px 'DejaVu Sans', 'Bitstream Vera Sans', 'Computer Modern Sans Serif', 'Lucida Grande', 'Verdana', 'Geneva', 'Lucid', 'Arial', 'Helvetica', 'Avant Garde', sans-serif; text-anchor: middle" x="915.10989" y="206.838437" transform="rotate(-0 915.10989 206.838437)">2020</text>
     </g>
    </g>
   </g>
   <g id="matplotlib.axis_2">
    <g id="ytick_1">
     <g id="line2d_6">
      <defs>
       <path id="m4911152fd9" d="M 0 0 
L -3.5 0 
" style="stroke: #000000; stroke-width: 0.8"/>
      </defs>
      <g>
       <use xlink:href="#m4911152fd9" x="135" y="150.27158" style="stroke: #000000; stroke-width: 0.8"/>
      </g>
     </g>
     <g id="text_6">
      <text style="font: 10px 'DejaVu Sans', 'Bitstream Vera Sans', 'Computer Modern Sans Serif', 'Lucida Grande', 'Verdana', 'Geneva', 'Lucid', 'Arial', 'Helvetica', 'Avant Garde', sans-serif; text-anchor: end" x="128" y="154.070798" transform="rotate(-0 128 154.070798)">15</text>
     </g>
    </g>
    <g id="ytick_2">
     <g id="line2d_7">
      <g>
       <use xlink:href="#m4911152fd9" x="135" y="105.859128" style="stroke: #000000; stroke-width: 0.8"/>
      </g>
     </g>
     <g id="text_7">
      <text style="font: 10px 'DejaVu Sans', 'Bitstream Vera Sans', 'Computer Modern Sans Serif', 'Lucida Grande', 'Verdana', 'Geneva', 'Lucid', 'Arial', 'Helvetica', 'Avant Garde', sans-serif; text-anchor: end" x="128" y="109.658347" transform="rotate(-0 128 109.658347)">18</text>
     </g>
    </g>
    <g id="ytick_3">
     <g id="line2d_8">
      <g>
       <use xlink:href="#m4911152fd9" x="135" y="61.446677" style="stroke: #000000; stroke-width: 0.8"/>
      </g>
     </g>
     <g id="text_8">
      <text style="font: 10px 'DejaVu Sans', 'Bitstream Vera Sans', 'Computer Modern Sans Serif', 'Lucida Grande', 'Verdana', 'Geneva', 'Lucid', 'Arial', 'Helvetica', 'Avant Garde', sans-serif; text-anchor: end" x="128" y="65.245896" transform="rotate(-0 128 65.245896)">21</text>
     </g>
    </g>
    <g id="text_9">
     <!-- Permafrost Area  ($10^6\ km^2$) -->
     <g transform="translate(109.195312 177.68) rotate(-90)">
      <text>
       <tspan style="font: 10px 'DejaVu Sans'" x="0 6.030273 12.182617 16.293945 26.035156 32.163086 35.683594 39.794922 45.913086 51.123047 55.043945 58.222656 65.063477 69.174805 75.327148 81.455078 84.633789 87.8125 91.713867 98.076172 133.23166" y="-0.9765625">Permafrost Area  (10)</tspan>
       <tspan style="font: 7px 'DejaVu Sans'" x="104.53418 128.504609" y="-4.8046875">62</tspan>
       <tspan style="font: oblique 10px 'DejaVu Sans'" x="112.508268 118.299284" y="-0.9765625">km</tspan>
      </text>
     </g>
    </g>
   </g>
   <g id="line2d_9">
    <path d="M 625.549451 153.119414 
L 932.142857 153.119414 
L 932.142857 153.119414 
" clip-path="url(#pfe07d26a7c)" style="fill: none; stroke-dasharray: 7.4,3.2; stroke-dashoffset: 0; stroke: #ff0000; stroke-opacity: 0.8; stroke-width: 2"/>
   </g>
   <g id="line2d_10">
    <path d="M 625.549451 153.038421 
L 630.659341 152.790626 
L 632.362637 152.099455 
L 634.065934 151.841471 
L 635.769231 152.226434 
L 637.472527 152.049746 
L 639.175824 152.780337 
L 640.879121 152.818872 
L 644.285714 153.128759 
L 645.989011 152.892214 
L 647.692308 153.15534 
L 652.802198 151.526109 
L 654.505495 151.867788 
L 656.208791 152.526425 
L 659.615385 152.875067 
L 663.021978 152.836398 
L 664.725275 152.614289 
L 666.428571 151.930458 
L 668.131868 151.715406 
L 669.835165 152.077869 
L 671.538462 151.984338 
L 673.241758 152.705672 
L 678.351648 153.240481 
L 680.054945 152.867152 
L 681.758242 153.107993 
L 686.868132 151.637946 
L 688.571429 151.853303 
L 690.274725 152.519385 
L 693.681319 152.870096 
L 695.384615 152.926947 
L 697.087912 152.865122 
L 698.791209 152.684202 
L 700.494505 152.150767 
L 702.197802 151.970667 
L 703.901099 152.30476 
L 705.604396 152.280036 
L 707.307692 152.934665 
L 709.010989 153.027567 
L 712.417582 153.480227 
L 714.120879 153.246555 
L 715.824176 153.461991 
L 717.527473 152.954382 
L 719.230769 152.204147 
L 720.934066 151.67762 
L 722.637363 151.827295 
L 724.340659 151.681222 
L 726.043956 152.248557 
L 731.153846 152.642456 
L 732.857143 152.430856 
L 734.56044 152.079549 
L 736.263736 151.890096 
L 737.967033 152.108836 
L 741.373626 153.068477 
L 743.076923 153.316129 
L 744.78022 153.321316 
L 746.483516 153.773993 
L 749.89011 154.224529 
L 751.593407 154.02592 
L 753.296703 154.328527 
L 755 154.95454 
L 756.703297 155.176675 
L 758.406593 155.549361 
L 760.10989 155.354279 
L 761.813187 155.61937 
L 763.516484 156.038339 
L 766.923077 157.105755 
L 768.626374 157.808896 
L 770.32967 157.78952 
L 773.736264 158.221505 
L 775.43956 158.965805 
L 777.142857 159.215326 
L 778.846154 159.332811 
L 780.549451 159.320538 
L 782.252747 159.70087 
L 783.956044 159.597718 
L 785.659341 159.792667 
L 787.362637 159.86057 
L 789.065934 160.174225 
L 790.769231 159.960899 
L 795.879121 160.520711 
L 797.582418 160.256806 
L 799.285714 160.284206 
L 800.989011 159.457891 
L 802.692308 159.538563 
L 804.395604 159.312706 
L 806.098901 159.943682 
L 807.802198 160.138561 
L 809.505495 160.220502 
L 814.615385 159.690208 
L 818.021978 159.929892 
L 821.428571 159.64859 
L 823.131868 159.204024 
L 824.835165 158.97789 
L 826.538462 158.513707 
L 828.241758 158.443901 
L 831.648352 157.321488 
L 833.351648 157.151518 
L 835.054945 156.069047 
L 836.758242 156.525986 
L 838.461538 156.576057 
L 840.164835 156.48181 
L 841.868132 156.552683 
L 843.571429 156.398416 
L 845.274725 156.116728 
L 846.978022 156.106687 
L 848.681319 156.392913 
L 850.384615 156.468494 
L 852.087912 156.047666 
L 853.791209 155.960491 
L 855.494505 155.240672 
L 857.197802 155.075791 
L 858.901099 155.244123 
L 860.604396 155.054803 
L 862.307692 155.013935 
L 864.010989 155.29583 
L 865.714286 156.229591 
L 867.417582 156.520106 
L 869.120879 156.931548 
L 870.824176 157.206589 
L 874.230769 157.208937 
L 875.934066 157.448349 
L 877.637363 158.544238 
L 879.340659 159.779979 
L 887.857143 165.340096 
L 891.263736 167.800579 
L 892.967033 168.705373 
L 896.373626 171.208316 
L 898.076923 172.96357 
L 904.89011 178.035088 
L 904.89011 178.035088 
" clip-path="url(#pfe07d26a7c)" style="fill: none; stroke: #0b0b0b; stroke-opacity: 0.8; stroke-width: 2; stroke-linecap: square"/>
   </g>
   <g id="line2d_11">
    <path d="M 135 37.488253 
L 135.681319 38.155655 
L 136.362637 37.884074 
L 137.043956 37.807948 
L 137.725275 37.977199 
L 138.406593 37.887773 
L 139.087912 37.360792 
L 139.769231 37.392643 
L 140.450549 37.669222 
L 141.131868 37.067865 
L 141.813187 36.758335 
L 142.494505 36.999589 
L 143.857143 36.710106 
L 144.538462 37.507087 
L 145.901099 37.398375 
L 146.582418 38.823311 
L 147.263736 38.558253 
L 147.945055 38.934309 
L 148.626374 38.90692 
L 149.307692 39.413712 
L 150.67033 39.585673 
L 151.351648 39.407895 
L 152.032967 39.969014 
L 152.714286 39.896898 
L 153.395604 39.117198 
L 154.758242 39.37898 
L 155.43956 39.071511 
L 156.120879 39.501641 
L 157.483516 39.293339 
L 158.164835 39.111269 
L 158.846154 38.744333 
L 159.527473 39.121095 
L 160.208791 39.194115 
L 160.89011 39.522197 
L 161.571429 39.347186 
L 162.252747 39.59149 
L 162.934066 38.947609 
L 163.615385 39.432461 
L 164.296703 38.288988 
L 164.978022 37.628307 
L 165.659341 37.406169 
L 166.340659 37.541451 
L 167.021978 37.932105 
L 167.703297 37.592615 
L 168.384615 37.804108 
L 169.065934 37.612522 
L 169.747253 37.955796 
L 170.428571 37.577085 
L 171.10989 37.84731 
L 171.791209 37.685429 
L 172.472527 37.955372 
L 173.153846 39.087917 
L 173.835165 38.680095 
L 174.516484 38.541085 
L 175.197802 38.841128 
L 175.879121 38.469477 
L 176.56044 38.732558 
L 177.241758 38.865751 
L 177.923077 39.220149 
L 178.604396 39.374632 
L 179.285714 39.764976 
L 179.967033 39.232319 
L 180.648352 39.509462 
L 181.32967 38.48865 
L 182.010989 39.089329 
L 182.692308 39.048555 
L 183.373626 39.143769 
L 184.054945 38.715023 
L 185.417582 38.301356 
L 186.098901 38.55447 
L 186.78022 37.903671 
L 187.461538 38.621899 
L 188.142857 38.359382 
L 188.824176 38.539052 
L 189.505495 38.203714 
L 190.186813 38.458804 
L 190.868132 37.496554 
L 191.549451 37.451093 
L 192.230769 38.171919 
L 192.912088 38.085515 
L 193.593407 37.702569 
L 194.274725 37.699124 
L 195.637363 37.441549 
L 196.318681 37.580869 
L 197 37.272609 
L 201.087912 37.740463 
L 201.769231 38.274926 
L 202.450549 38.166413 
L 203.131868 37.923973 
L 203.813187 37.874728 
L 204.494505 38.350911 
L 205.175824 38.399055 
L 205.857143 37.849569 
L 207.21978 37.655724 
L 207.901099 37.920217 
L 208.582418 38.443951 
L 209.945055 38.93462 
L 210.626374 38.795272 
L 211.307692 39.264396 
L 211.989011 39.167318 
L 212.67033 39.334423 
L 213.351648 39.362462 
L 214.032967 39.524343 
L 214.714286 39.566613 
L 215.395604 40.058891 
L 216.758242 40.03249 
L 218.120879 39.580082 
L 218.802198 38.973361 
L 220.164835 38.976438 
L 220.846154 38.922506 
L 221.527473 38.750206 
L 222.208791 38.842879 
L 223.571429 37.473993 
L 224.934066 36.793885 
L 225.615385 37.086812 
L 226.296703 37.636213 
L 226.978022 38.022011 
L 227.659341 37.199335 
L 228.340659 37.424099 
L 229.021978 36.613593 
L 229.703297 36.490312 
L 230.384615 36.561638 
L 231.065934 36.068258 
L 231.747253 36.759295 
L 232.428571 36.697795 
L 233.10989 37.176407 
L 233.791209 37.257644 
L 234.472527 37.803939 
L 235.153846 37.800268 
L 235.835165 36.191399 
L 236.516484 37.302286 
L 237.197802 36.81797 
L 237.879121 38.419978 
L 238.56044 38.256911 
L 239.241758 37.633474 
L 239.923077 38.255613 
L 240.604396 38.128491 
L 241.285714 38.396994 
L 241.967033 37.717986 
L 242.648352 37.849371 
L 243.32967 37.268402 
L 244.010989 37.478737 
L 244.692308 37.419666 
L 246.736264 37.957377 
L 247.417582 38.521066 
L 248.098901 38.199506 
L 248.78022 38.065721 
L 251.505495 38.2928 
L 252.186813 37.971777 
L 252.868132 37.965678 
L 253.549451 38.414274 
L 254.230769 37.646915 
L 255.593407 38.247876 
L 256.274725 38.33428 
L 256.956044 38.541594 
L 257.637363 38.551081 
L 259 38.827208 
L 261.725275 39.317425 
L 262.406593 39.211565 
L 263.087912 38.86801 
L 263.769231 38.043555 
L 264.450549 38.276367 
L 265.131868 38.206396 
L 266.494505 37.086049 
L 267.175824 37.231807 
L 267.857143 37.102624 
L 268.538462 37.127388 
L 269.21978 37.320188 
L 269.901099 36.994986 
L 271.263736 37.133995 
L 271.945055 37.296582 
L 272.626374 37.744246 
L 273.307692 37.795355 
L 273.989011 37.545743 
L 274.67033 37.568388 
L 275.351648 38.407356 
L 276.032967 38.205634 
L 277.395604 38.455472 
L 278.076923 38.698392 
L 278.758242 38.626868 
L 279.43956 38.959948 
L 280.120879 37.7144 
L 280.802198 37.675095 
L 281.483516 37.784173 
L 282.164835 37.611054 
L 282.846154 37.611054 
L 283.527473 38.089496 
L 284.208791 38.724341 
L 284.89011 37.957744 
L 285.571429 37.766327 
L 286.252747 37.856346 
L 286.934066 37.150062 
L 287.615385 37.775646 
L 288.296703 37.324254 
L 288.978022 37.353648 
L 289.659341 37.053803 
L 290.340659 37.11454 
L 291.021978 36.718747 
L 291.703297 35.682913 
L 292.384615 35.911008 
L 293.065934 35.796311 
L 293.747253 36.338342 
L 294.428571 36.396651 
L 296.472527 35.805403 
L 297.153846 36.404585 
L 297.835165 36.528262 
L 299.197802 37.261879 
L 299.879121 38.075095 
L 301.241758 37.960737 
L 301.923077 37.561724 
L 302.604396 37.456628 
L 303.285714 37.724932 
L 303.967033 37.660892 
L 304.648352 38.235282 
L 305.32967 38.372682 
L 306.010989 38.220881 
L 306.692308 38.63229 
L 307.373626 38.712567 
L 308.736264 39.580986 
L 309.417582 39.286082 
L 310.098901 39.158339 
L 310.78022 38.883709 
L 311.461538 38.34789 
L 312.142857 36.757262 
L 312.824176 36.771832 
L 313.505495 37.084638 
L 314.186813 37.693081 
L 315.549451 37.756416 
L 316.912088 37.521148 
L 317.593407 37.683538 
L 319.637363 37.601566 
L 321 37.861203 
L 322.362637 37.563842 
L 324.406593 36.115527 
L 325.087912 36.100081 
L 325.769231 35.865745 
L 326.450549 36.144046 
L 327.131868 35.825282 
L 327.813187 36.454282 
L 329.175824 35.979454 
L 329.857143 36.077746 
L 330.538462 36.705137 
L 331.21978 37.163079 
L 331.901099 36.901325 
L 332.582418 37.122023 
L 333.263736 36.785442 
L 333.945055 37.016841 
L 334.626374 37.384568 
L 335.307692 36.663713 
L 337.351648 37.900593 
L 338.032967 37.131228 
L 338.714286 37.742072 
L 339.395604 37.963137 
L 340.076923 37.495566 
L 340.758242 37.642905 
L 341.43956 38.157631 
L 342.120879 37.8952 
L 342.802198 37.859508 
L 343.483516 38.192814 
L 344.846154 38.183242 
L 346.208791 39.760571 
L 346.89011 39.506808 
L 347.571429 39.630795 
L 348.252747 39.301668 
L 348.934066 39.368844 
L 349.615385 39.116888 
L 350.296703 39.288877 
L 350.978022 40.45957 
L 353.021978 39.772741 
L 353.703297 39.491955 
L 354.384615 39.000581 
L 355.065934 38.972231 
L 355.747253 39.424159 
L 356.428571 39.21854 
L 357.10989 39.387762 
L 357.791209 39.140155 
L 358.472527 39.276538 
L 359.153846 39.807726 
L 359.835165 40.589289 
L 360.516484 40.841076 
L 361.197802 41.226619 
L 361.879121 41.198411 
L 362.56044 40.914406 
L 363.241758 39.418286 
L 363.923077 40.358624 
L 364.604396 39.818428 
L 365.967033 40.754784 
L 366.648352 40.713841 
L 368.010989 41.076908 
L 368.692308 40.944704 
L 369.373626 41.015917 
L 370.054945 40.369636 
L 371.417582 40.44788 
L 372.098901 41.243081 
L 372.78022 40.775962 
L 373.461538 38.185134 
L 374.142857 38.370423 
L 374.824176 38.996261 
L 375.505495 40.23105 
L 376.186813 39.713359 
L 376.868132 40.120927 
L 377.549451 40.221139 
L 378.230769 40.167179 
L 378.912088 40.275947 
L 379.593407 40.528834 
L 380.274725 40.442938 
L 380.956044 40.707008 
L 381.637363 40.364808 
L 382.318681 40.994627 
L 383.681319 39.811962 
L 384.362637 39.772261 
L 385.043956 39.299212 
L 385.725275 39.957776 
L 386.406593 39.4882 
L 387.087912 39.884473 
L 387.769231 39.646354 
L 390.494505 39.381494 
L 391.175824 39.707429 
L 391.857143 39.737699 
L 392.538462 38.134675 
L 393.21978 38.116462 
L 393.901099 37.559833 
L 394.582418 36.787531 
L 395.263736 36.473398 
L 395.945055 36.447901 
L 396.626374 35.888871 
L 397.989011 35.863627 
L 398.67033 35.533484 
L 399.351648 36.013846 
L 400.032967 36.166268 
L 400.714286 36.958024 
L 401.395604 37.175108 
L 402.076923 37.036466 
L 402.758242 36.65945 
L 403.43956 36.879526 
L 404.120879 36.717956 
L 404.802198 35.714538 
L 405.483516 35.154265 
L 406.164835 35.66405 
L 407.527473 35.631917 
L 408.208791 34.466985 
L 408.89011 35.29415 
L 409.571429 35.145484 
L 410.252747 36.035476 
L 410.934066 35.44211 
L 411.615385 35.918237 
L 413.659341 36.337721 
L 414.340659 37.286953 
L 415.021978 35.964658 
L 415.703297 36.504515 
L 416.384615 36.888195 
L 417.065934 36.425763 
L 417.747253 36.27577 
L 418.428571 36.775474 
L 419.10989 36.871281 
L 419.791209 36.579145 
L 420.472527 36.972594 
L 421.153846 36.678961 
L 421.835165 37.114964 
L 422.516484 37.288958 
L 423.197802 37.647536 
L 423.879121 37.418226 
L 424.56044 37.913271 
L 425.241758 37.510644 
L 425.923077 37.508301 
L 426.604396 36.794195 
L 427.285714 36.359943 
L 427.967033 36.861398 
L 428.648352 35.642929 
L 429.32967 34.702479 
L 430.010989 35.384987 
L 430.692308 35.855721 
L 431.373626 35.888334 
L 432.054945 36.145203 
L 433.417582 35.39343 
L 434.098901 34.937238 
L 434.78022 34.631492 
L 436.142857 35.105811 
L 437.505495 34.993147 
L 438.186813 35.347207 
L 438.868132 35.40128 
L 439.549451 35.234684 
L 440.912088 35.691779 
L 441.593407 35.001562 
L 442.274725 35.118235 
L 443.637363 35.724675 
L 444.318681 35.686301 
L 445 35.434317 
L 445.681319 35.401167 
L 446.362637 35.694998 
L 447.043956 35.450412 
L 447.725275 33.48 
L 448.406593 34.866506 
L 449.769231 35.247757 
L 450.450549 34.638607 
L 451.131868 35.151103 
L 451.813187 34.892709 
L 452.494505 35.428585 
L 453.175824 35.485171 
L 453.857143 35.885144 
L 454.538462 35.996678 
L 455.21978 35.463457 
L 456.582418 34.75082 
L 457.263736 35.083956 
L 457.945055 35.795972 
L 458.626374 35.870065 
L 459.307692 35.623333 
L 459.989011 35.710867 
L 460.67033 35.317699 
L 462.032967 35.928007 
L 462.714286 36.110529 
L 463.395604 36.122106 
L 464.076923 36.318774 
L 465.43956 36.359153 
L 466.120879 36.035137 
L 466.802198 36.47738 
L 467.483516 36.697795 
L 468.164835 36.704572 
L 468.846154 37.299462 
L 470.208791 37.23432 
L 471.571429 37.282238 
L 472.252747 37.588323 
L 472.934066 37.603995 
L 474.296703 37.933545 
L 474.978022 38.105506 
L 475.659341 38.439123 
L 476.340659 38.298532 
L 477.021978 38.672922 
L 477.703297 38.786631 
L 478.384615 39.018172 
L 479.065934 38.707654 
L 479.747253 39.649431 
L 480.428571 39.358707 
L 481.10989 39.381437 
L 481.791209 39.526009 
L 482.472527 39.819614 
L 483.153846 39.248979 
L 483.835165 39.975734 
L 484.516484 39.669338 
L 485.197802 39.69077 
L 485.879121 39.582313 
L 486.56044 39.086477 
L 487.923077 39.699297 
L 488.604396 39.167121 
L 489.285714 39.176015 
L 490.648352 38.846154 
L 491.32967 39.232827 
L 492.010989 39.128239 
L 492.692308 39.15944 
L 493.373626 38.702543 
L 494.054945 38.492377 
L 494.736264 38.639885 
L 495.417582 38.260526 
L 496.098901 39.172457 
L 496.78022 39.061036 
L 498.142857 39.37627 
L 498.824176 40.028706 
L 500.186813 40.246835 
L 500.868132 40.22145 
L 501.549451 41.023372 
L 502.230769 41.11723 
L 502.912088 41.0306 
L 503.593407 40.685322 
L 504.274725 41.798073 
L 504.956044 41.204905 
L 505.637363 41.192283 
L 506.318681 41.729825 
L 507 41.278688 
L 507.681319 41.616455 
L 508.362637 41.253726 
L 509.043956 41.123527 
L 510.406593 40.468521 
L 511.769231 40.91483 
L 512.450549 41.534314 
L 513.131868 41.361986 
L 513.813187 41.50492 
L 514.494505 42.014733 
L 515.175824 41.804313 
L 515.857143 42.309496 
L 516.538462 42.635855 
L 517.21978 42.450199 
L 517.901099 42.466379 
L 518.582418 42.209594 
L 519.263736 42.095518 
L 519.945055 42.724744 
L 520.626374 41.950297 
L 521.307692 41.558061 
L 521.989011 41.827524 
L 522.67033 42.223233 
L 523.351648 41.674792 
L 524.032967 41.677022 
L 524.714286 41.146653 
L 525.395604 40.39824 
L 526.758242 40.433253 
L 527.43956 39.982144 
L 528.120879 40.290178 
L 528.802198 39.511185 
L 529.483516 38.460837 
L 530.164835 38.42619 
L 530.846154 38.707173 
L 532.208791 38.727447 
L 532.89011 38.097741 
L 534.252747 38.837712 
L 536.296703 38.601766 
L 536.978022 38.626247 
L 538.340659 37.242368 
L 539.021978 37.455498 
L 539.703297 38.017973 
L 541.065934 37.319002 
L 541.747253 37.08989 
L 542.428571 36.485568 
L 543.10989 35.508664 
L 543.791209 36.905306 
L 544.472527 35.875345 
L 545.153846 35.966861 
L 545.835165 35.433018 
L 546.516484 36.708356 
L 547.197802 36.062865 
L 547.879121 35.728317 
L 548.56044 36.661116 
L 551.285714 36.890087 
L 551.967033 34.709143 
L 552.648352 36.003907 
L 553.32967 35.26837 
L 554.010989 36.054902 
L 554.692308 35.583463 
L 555.373626 34.929445 
L 556.054945 35.971548 
L 556.736264 35.756526 
L 557.417582 35.074214 
L 558.098901 35.591765 
L 558.78022 35.799954 
L 559.461538 35.623474 
L 560.142857 35.783492 
L 560.824176 36.589112 
L 561.505495 36.934983 
L 562.186813 36.515866 
L 562.868132 36.872354 
L 564.230769 36.641491 
L 564.912088 37.384116 
L 565.593407 37.353846 
L 566.274725 37.908443 
L 567.637363 37.975561 
L 568.318681 37.956643 
L 569 37.388323 
L 569.681319 37.783044 
L 571.043956 37.37844 
L 573.769231 36.480203 
L 574.450549 35.95229 
L 575.131868 35.94156 
L 575.813187 35.62387 
L 576.494505 35.685454 
L 577.175824 35.412349 
L 578.538462 35.696353 
L 579.21978 35.089603 
L 579.901099 35.741588 
L 580.582418 35.64132 
L 581.263736 36.243636 
L 582.626374 35.971265 
L 583.307692 36.376744 
L 585.351648 36.63782 
L 586.032967 36.472184 
L 586.714286 36.713918 
L 587.395604 36.712083 
L 588.076923 36.986459 
L 588.758242 37.088337 
L 589.43956 36.435025 
L 590.120879 36.380613 
L 590.802198 36.797696 
L 592.846154 36.994393 
L 593.527473 37.857475 
L 594.208791 37.490596 
L 594.89011 37.726627 
L 595.571429 37.504178 
L 596.252747 37.865805 
L 596.934066 37.740491 
L 597.615385 37.477607 
L 598.296703 37.947776 
L 599.659341 38.218651 
L 600.340659 38.495963 
L 601.021978 39.061092 
L 601.703297 38.502655 
L 602.384615 38.425428 
L 603.065934 38.565877 
L 603.747253 38.293676 
L 604.428571 38.863887 
L 605.791209 38.651208 
L 606.472527 37.882324 
L 607.153846 37.970648 
L 607.835165 36.89709 
L 608.516484 37.465353 
L 609.879121 37.35074 
L 610.56044 37.714203 
L 611.241758 37.42808 
L 611.241758 37.42808 
" clip-path="url(#pfe07d26a7c)" style="fill: none; stroke: #2626ff; stroke-opacity: 0.8; stroke-width: 2; stroke-linecap: square"/>
   </g>
   <g id="line2d_12">
    <path d="M 625.549451 39.792535 
L 628.956044 41.481992 
L 630.659341 41.317457 
L 632.362637 40.804594 
L 635.769231 41.500967 
L 637.472527 40.974579 
L 639.175824 41.3198 
L 640.879121 41.121805 
L 642.582418 41.337618 
L 644.285714 41.102208 
L 647.692308 41.308788 
L 649.395604 41.642574 
L 651.098901 42.210667 
L 652.802198 43.195619 
L 654.505495 43.04379 
L 656.208791 43.977267 
L 657.912088 42.901167 
L 659.615385 43.500801 
L 661.318681 43.021116 
L 663.021978 42.944821 
L 664.725275 42.745413 
L 666.428571 41.892948 
L 668.131868 42.421962 
L 669.835165 42.503764 
L 671.538462 43.149141 
L 676.648352 43.980373 
L 678.351648 43.893884 
L 680.054945 44.036987 
L 681.758242 43.621823 
L 683.461538 43.50786 
L 685.164835 42.492949 
L 686.868132 43.297582 
L 691.978022 43.756371 
L 693.681319 43.86048 
L 695.384615 43.510882 
L 697.087912 42.903624 
L 698.791209 44.246165 
L 700.494505 44.569023 
L 702.197802 43.799714 
L 703.901099 44.831144 
L 705.604396 44.664971 
L 707.307692 45.039869 
L 709.010989 45.213468 
L 710.714286 45.255965 
L 712.417582 45.42434 
L 714.120879 45.281745 
L 715.824176 46.123424 
L 717.527473 45.677256 
L 719.230769 45.753128 
L 722.637363 45.67638 
L 724.340659 44.86644 
L 726.043956 44.748862 
L 727.747253 44.940533 
L 729.450549 44.775094 
L 731.153846 44.336211 
L 732.857143 44.708004 
L 734.56044 44.426004 
L 736.263736 44.306393 
L 737.967033 43.531071 
L 739.67033 42.940303 
L 741.373626 44.130931 
L 743.076923 42.989096 
L 746.483516 42.930138 
L 748.186813 42.986526 
L 749.89011 43.373425 
L 753.296703 43.587714 
L 755 44.073046 
L 756.703297 44.297584 
L 758.406593 44.371959 
L 760.10989 44.898488 
L 761.813187 45.785854 
L 765.21978 46.351858 
L 766.923077 47.362082 
L 768.626374 46.995316 
L 770.32967 47.042471 
L 772.032967 47.716593 
L 773.736264 48.590151 
L 775.43956 48.960278 
L 778.846154 48.89234 
L 780.549451 48.465995 
L 782.252747 49.139016 
L 785.659341 49.441515 
L 787.362637 50.191961 
L 789.065934 49.939215 
L 790.769231 49.888728 
L 792.472527 50.009073 
L 794.175824 49.195461 
L 795.879121 46.541778 
L 797.582418 48.851595 
L 799.285714 48.072262 
L 800.989011 47.932971 
L 802.692308 47.022592 
L 804.395604 47.29406 
L 806.098901 47.195231 
L 807.802198 48.378913 
L 809.505495 48.141329 
L 811.208791 48.248685 
L 816.318681 49.544353 
L 818.021978 47.470595 
L 823.131868 47.467094 
L 826.538462 47.572134 
L 828.241758 46.69516 
L 829.945055 46.424878 
L 831.648352 46.667798 
L 833.351648 46.269746 
L 836.758242 47.69615 
L 841.868132 47.400032 
L 843.571429 47.100158 
L 845.274725 47.13136 
L 846.978022 47.340311 
L 848.681319 47.040212 
L 850.384615 47.498324 
L 852.087912 47.348556 
L 853.791209 47.449757 
L 855.494505 46.833745 
L 857.197802 47.357875 
L 860.604396 47.565358 
L 862.307692 48.138873 
L 865.714286 48.579845 
L 867.417582 49.083192 
L 869.120879 48.5945 
L 870.824176 48.504114 
L 872.527473 48.185887 
L 874.230769 48.789135 
L 877.637363 49.037731 
L 879.340659 49.152456 
L 881.043956 48.833184 
L 882.747253 49.573268 
L 884.450549 49.47924 
L 886.153846 50.902763 
L 887.857143 51.630761 
L 889.56044 52.114597 
L 891.263736 52.96661 
L 892.967033 54.232602 
L 894.67033 54.72392 
L 896.373626 56.327029 
L 898.076923 58.628685 
L 899.78022 58.694335 
L 901.483516 58.368512 
L 903.186813 59.248339 
L 904.89011 60.47895 
L 904.89011 60.47895 
" clip-path="url(#pfe07d26a7c)" style="fill: none; stroke: #2626ff; stroke-opacity: 0.8; stroke-width: 2; stroke-linecap: square"/>
   </g>
   <g id="line2d_13">
    <path d="M 625.549451 192.24 
L 625.549451 25.92 
" clip-path="url(#pfe07d26a7c)" style="fill: none; stroke-dasharray: 3.7,1.6; stroke-dashoffset: 0; stroke: #808080; stroke-opacity: 0.5"/>
   </g>
   <g id="line2d_14">
    <path d="M 710.714286 192.24 
L 710.714286 25.92 
" clip-path="url(#pfe07d26a7c)" style="fill: none; stroke-dasharray: 3.7,1.6; stroke-dashoffset: 0; stroke: #808080; stroke-opacity: 0.5"/>
   </g>
   <g id="line2d_15">
    <path d="M 611.923077 192.24 
L 611.923077 25.92 
" clip-path="url(#pfe07d26a7c)" style="fill: none; stroke-dasharray: 3.7,1.6; stroke-dashoffset: 0; stroke: #808080; stroke-opacity: 0.8"/>
   </g>
   <g id="line2d_16">
    <path d="M 135 40.995691 
L 611.786786 40.995691 
L 611.786786 40.995691 
" clip-path="url(#pfe07d26a7c)" style="fill: none; stroke-dasharray: 7.4,3.2; stroke-dashoffset: 0; stroke: #2626ff; stroke-opacity: 0.8; stroke-width: 2"/>
   </g>
   <g id="line2d_17">
    <path d="M 625.659846 40.995691 
L 932.142857 40.995691 
L 932.142857 40.995691 
" clip-path="url(#pfe07d26a7c)" style="fill: none; stroke-dasharray: 7.4,3.2; stroke-dashoffset: 0; stroke: #2626ff; stroke-opacity: 0.8; stroke-width: 2"/>
   </g>
   <g id="line2d_18">
    <path d="M 625.549451 171.006228 
L 627.252747 171.647767 
L 628.956044 171.113582 
L 630.659341 169.935339 
L 632.362637 168.541193 
L 634.065934 168.007674 
L 635.769231 168.605566 
L 637.472527 165.691428 
L 639.175824 167.465201 
L 640.879121 167.848371 
L 642.582418 169.343712 
L 644.285714 169.696109 
L 645.989011 168.734966 
L 647.692308 168.531379 
L 649.395604 167.563997 
L 651.098901 167.214637 
L 652.802198 167.060703 
L 656.208791 169.124796 
L 657.912088 169.11491 
L 659.615385 170.214119 
L 661.318681 170.951664 
L 663.021978 170.319314 
L 664.725275 169.46206 
L 666.428571 167.711698 
L 668.131868 167.282753 
L 669.835165 167.826007 
L 671.538462 164.977078 
L 673.241758 166.984034 
L 674.945055 167.430765 
L 676.648352 168.759446 
L 678.351648 169.339204 
L 680.054945 168.129302 
L 681.758242 167.860826 
L 683.461538 167.153841 
L 686.868132 166.686536 
L 688.571429 167.617869 
L 690.274725 168.722008 
L 691.978022 168.716999 
L 693.681319 169.978347 
L 695.384615 170.835262 
L 698.791209 169.324142 
L 700.494505 167.989021 
L 702.197802 167.497696 
L 703.901099 167.912048 
L 705.604396 165.032442 
L 707.307692 166.94421 
L 709.010989 167.483933 
L 710.714286 168.867935 
L 712.417582 169.432792 
L 715.824176 168.698022 
L 717.527473 168.050675 
L 719.230769 166.466744 
L 720.934066 165.822479 
L 722.637363 166.264464 
L 724.340659 163.969248 
L 726.043956 165.738059 
L 727.747253 166.560144 
L 731.153846 167.932318 
L 732.857143 166.686511 
L 734.56044 166.931287 
L 736.263736 166.251736 
L 737.967033 166.206187 
L 739.67033 165.756507 
L 741.373626 166.87173 
L 743.076923 168.199079 
L 744.78022 168.526785 
L 746.483516 169.742264 
L 748.186813 170.649787 
L 751.593407 170.696521 
L 753.296703 171.542804 
L 755 171.807842 
L 756.703297 171.31864 
L 760.10989 169.71533 
L 761.813187 169.866143 
L 763.516484 170.394947 
L 765.21978 171.5766 
L 766.923077 172.23422 
L 768.626374 172.561847 
L 770.32967 172.494821 
L 772.032967 171.964589 
L 773.736264 171.648652 
L 775.43956 173.058119 
L 778.846154 174.042888 
L 780.549451 174.112674 
L 782.252747 174.501911 
L 783.956044 174.288757 
L 785.659341 173.309317 
L 787.362637 173.437882 
L 789.065934 173.843556 
L 792.472527 171.196318 
L 794.175824 170.950176 
L 795.879121 171.189715 
L 797.582418 168.902882 
L 799.285714 168.529475 
L 800.989011 168.352993 
L 802.692308 168.61158 
L 804.395604 169.169 
L 806.098901 170.123173 
L 807.802198 170.628774 
L 809.505495 171.417533 
L 814.615385 169.944746 
L 816.318681 168.873656 
L 818.021978 168.803469 
L 819.725275 168.368391 
L 821.428571 167.796893 
L 823.131868 166.299321 
L 824.835165 166.025532 
L 826.538462 164.740773 
L 828.241758 164.542072 
L 829.945055 164.628957 
L 831.648352 163.974991 
L 833.351648 164.016222 
L 835.054945 163.331315 
L 836.758242 163.777043 
L 838.461538 163.987941 
L 840.164835 164.053687 
L 841.868132 163.498946 
L 843.571429 163.156761 
L 845.274725 162.016322 
L 848.681319 162.397193 
L 850.384615 161.626998 
L 852.087912 161.677543 
L 853.791209 162.153183 
L 855.494505 162.017972 
L 858.901099 160.732601 
L 860.604396 160.03015 
L 862.307692 160.246044 
L 864.010989 159.225538 
L 865.714286 160.262846 
L 867.417582 159.726835 
L 869.120879 159.725904 
L 870.824176 159.540086 
L 872.527473 159.91474 
L 874.230769 159.419573 
L 875.934066 159.441941 
L 877.637363 160.348172 
L 879.340659 161.90835 
L 881.043956 163.031302 
L 882.747253 164.297702 
L 884.450549 164.405051 
L 886.153846 166.659893 
L 889.56044 168.745271 
L 891.263736 169.284267 
L 892.967033 168.097252 
L 894.67033 169.18528 
L 896.373626 169.753485 
L 898.076923 171.369002 
L 899.78022 172.80393 
L 901.483516 173.258493 
L 903.186813 174.160258 
L 904.89011 174.845975 
L 904.89011 174.845975 
" clip-path="url(#pfe07d26a7c)" style="fill: none; stroke: #d3d3d3; stroke-opacity: 0.6; stroke-linecap: square"/>
   </g>
   <g id="line2d_19">
    <path d="M 625.549451 138.530525 
L 628.956044 138.771528 
L 630.659341 139.121367 
L 632.362637 137.437383 
L 634.065934 137.130588 
L 635.769231 137.063184 
L 637.472527 137.597123 
L 639.175824 138.95971 
L 640.879121 139.99428 
L 642.582418 140.320306 
L 644.285714 139.384989 
L 645.989011 139.087456 
L 647.692308 139.922876 
L 649.395604 138.931332 
L 651.098901 139.231302 
L 652.802198 138.684904 
L 654.505495 139.068812 
L 656.208791 139.866062 
L 657.912088 139.479612 
L 659.615385 138.443808 
L 661.318681 138.369193 
L 663.021978 138.657227 
L 664.725275 138.794852 
L 666.428571 137.337579 
L 669.835165 136.919806 
L 671.538462 137.456344 
L 673.241758 138.967291 
L 674.945055 140.102534 
L 676.648352 140.488638 
L 678.351648 139.76437 
L 680.054945 139.202871 
L 681.758242 140.032379 
L 683.461538 139.02812 
L 688.571429 139.357004 
L 690.274725 139.979831 
L 691.978022 139.811149 
L 693.681319 138.565914 
L 695.384615 138.611256 
L 697.087912 138.918773 
L 698.791209 139.088057 
L 700.494505 137.485082 
L 702.197802 137.502969 
L 703.901099 137.251526 
L 705.604396 138.066844 
L 707.307692 139.360039 
L 709.010989 140.233997 
L 710.714286 140.633791 
L 714.120879 139.330368 
L 715.824176 140.21621 
L 717.527473 139.292262 
L 719.230769 139.454793 
L 722.637363 139.647373 
L 724.340659 140.071103 
L 726.043956 139.840883 
L 727.747253 138.857443 
L 729.450549 138.827125 
L 732.857143 139.511443 
L 734.56044 137.675705 
L 737.967033 137.45345 
L 739.67033 138.178763 
L 741.373626 139.461903 
L 743.076923 140.445237 
L 744.78022 140.800509 
L 746.483516 140.575174 
L 748.186813 140.135188 
L 749.89011 140.153572 
L 751.593407 139.953071 
L 753.296703 140.352228 
L 755 141.459242 
L 756.703297 141.392286 
L 758.406593 142.528963 
L 761.813187 141.353756 
L 763.516484 141.775417 
L 765.21978 142.041533 
L 766.923077 142.651263 
L 768.626374 143.558775 
L 770.32967 143.310767 
L 772.032967 143.387123 
L 773.736264 144.239539 
L 775.43956 145.508915 
L 778.846154 146.741729 
L 780.549451 146.577758 
L 782.252747 145.704796 
L 783.956044 147.045822 
L 785.659341 147.618779 
L 787.362637 148.480926 
L 792.472527 148.939691 
L 795.879121 150.223229 
L 797.582418 150.970425 
L 799.285714 151.514634 
L 800.989011 150.264555 
L 802.692308 151.082995 
L 806.098901 154.098364 
L 807.802198 154.621254 
L 809.505495 154.424826 
L 811.208791 154.534338 
L 812.912088 155.003734 
L 814.615385 154.272108 
L 816.318681 155.253506 
L 818.021978 156.534998 
L 821.428571 157.814965 
L 823.131868 158.199572 
L 824.835165 156.943876 
L 826.538462 156.927687 
L 828.241758 156.729048 
L 831.648352 157.955241 
L 833.351648 157.344939 
L 835.054945 157.862401 
L 836.758242 158.854507 
L 838.461538 159.531021 
L 840.164835 159.201337 
L 841.868132 159.893438 
L 843.571429 160.044295 
L 845.274725 160.551969 
L 846.978022 159.595065 
L 848.681319 160.69292 
L 850.384615 160.133869 
L 852.087912 160.110311 
L 853.791209 158.8073 
L 857.197802 158.625337 
L 858.901099 158.077019 
L 860.604396 157.905952 
L 862.307692 158.709416 
L 864.010989 160.021798 
L 865.714286 160.463381 
L 867.417582 160.302232 
L 869.120879 160.875397 
L 872.527473 160.849664 
L 874.230769 162.233332 
L 875.934066 162.900904 
L 877.637363 164.924056 
L 879.340659 166.389457 
L 881.043956 168.041777 
L 882.747253 168.667533 
L 884.450549 169.046867 
L 886.153846 170.571715 
L 887.857143 171.08271 
L 889.56044 172.074446 
L 891.263736 173.210761 
L 892.967033 174.500611 
L 894.67033 175.29562 
L 896.373626 176.283555 
L 899.78022 179.037967 
L 901.483516 181.210348 
L 903.186813 183.180237 
L 904.89011 184.68 
L 904.89011 184.68 
" clip-path="url(#pfe07d26a7c)" style="fill: none; stroke: #d3d3d3; stroke-opacity: 0.6; stroke-linecap: square"/>
   </g>
   <g id="line2d_20">
    <path d="M 625.549451 138.751149 
L 627.252747 137.680399 
L 628.956044 138.66476 
L 630.659341 139.245958 
L 632.362637 139.104296 
L 634.065934 138.396074 
L 635.769231 139.951057 
L 637.472527 140.918911 
L 639.175824 141.608535 
L 640.879121 141.225175 
L 642.582418 141.069488 
L 644.285714 141.334707 
L 645.989011 141.271195 
L 647.692308 141.939433 
L 649.395604 141.326743 
L 651.098901 140.287772 
L 652.802198 137.839155 
L 654.505495 137.941319 
L 656.208791 138.590532 
L 657.912088 139.060404 
L 659.615385 138.558048 
L 661.318681 137.672343 
L 663.021978 138.582823 
L 664.725275 138.9578 
L 666.428571 139.074337 
L 668.131868 138.309283 
L 669.835165 139.831499 
L 671.538462 141.127315 
L 673.241758 141.526148 
L 676.648352 141.2422 
L 678.351648 141.598456 
L 680.054945 141.492774 
L 681.758242 142.184661 
L 683.461538 141.52675 
L 685.164835 140.40989 
L 686.868132 137.998185 
L 688.571429 137.701627 
L 690.274725 138.680672 
L 691.978022 138.983331 
L 693.681319 138.468572 
L 695.384615 137.650624 
L 697.087912 138.545324 
L 698.791209 139.183314 
L 700.494505 139.50375 
L 702.197802 138.640224 
L 703.901099 139.995259 
L 705.604396 141.5385 
L 707.307692 141.905813 
L 709.010989 141.594394 
L 710.714286 141.666079 
L 712.417582 141.904475 
L 714.120879 141.659196 
L 715.824176 142.485688 
L 717.527473 141.710437 
L 719.230769 140.388942 
L 720.934066 138.131799 
L 722.637363 138.223133 
L 724.340659 138.843571 
L 726.043956 139.299984 
L 727.747253 138.845981 
L 729.450549 138.032281 
L 731.153846 139.027331 
L 732.857143 139.657303 
L 734.56044 139.735442 
L 736.263736 139.053607 
L 737.967033 140.243965 
L 739.67033 141.646673 
L 741.373626 142.001837 
L 743.076923 141.782586 
L 744.78022 141.750708 
L 748.186813 142.473306 
L 749.89011 142.201739 
L 751.593407 142.274696 
L 753.296703 141.890226 
L 756.703297 143.85448 
L 758.406593 144.315045 
L 760.10989 145.419381 
L 761.813187 146.232418 
L 765.21978 147.483631 
L 766.923077 148.767344 
L 768.626374 149.889893 
L 770.32967 150.611176 
L 772.032967 150.479457 
L 773.736264 152.441524 
L 775.43956 153.197532 
L 777.142857 153.419038 
L 778.846154 152.606298 
L 780.549451 152.86742 
L 782.252747 153.39145 
L 783.956044 152.278848 
L 785.659341 152.618636 
L 787.362637 152.494057 
L 789.065934 152.490997 
L 790.769231 153.352806 
L 792.472527 154.359588 
L 797.582418 154.693786 
L 799.285714 155.005368 
L 800.989011 153.756105 
L 802.692308 153.343307 
L 804.395604 151.474384 
L 806.098901 151.745177 
L 807.802198 151.258786 
L 809.505495 149.993081 
L 811.208791 148.978234 
L 812.912088 149.150905 
L 814.615385 148.791167 
L 816.318681 149.048329 
L 818.021978 148.738287 
L 823.131868 148.977081 
L 824.835165 149.77214 
L 826.538462 150.019067 
L 828.241758 149.80402 
L 829.945055 151.428999 
L 831.648352 151.3868 
L 833.351648 151.828437 
L 835.054945 151.258558 
L 836.758242 151.251216 
L 840.164835 152.285368 
L 841.868132 152.969885 
L 843.571429 152.492959 
L 845.274725 152.918452 
L 846.978022 153.463768 
L 850.384615 153.768191 
L 852.087912 153.537288 
L 853.791209 154.252542 
L 857.197802 153.004108 
L 858.901099 153.855856 
L 860.604396 154.006861 
L 862.307692 153.711469 
L 864.010989 154.872961 
L 865.714286 155.54956 
L 867.417582 155.867213 
L 869.120879 156.358269 
L 870.824176 157.162387 
L 872.527473 156.371044 
L 874.230769 155.180357 
L 875.934066 154.954876 
L 877.637363 155.835396 
L 879.340659 156.105005 
L 881.043956 157.106355 
L 882.747253 157.878576 
L 886.153846 158.884552 
L 887.857143 159.911623 
L 889.56044 160.510068 
L 891.263736 161.265112 
L 892.967033 163.01014 
L 896.373626 167.19456 
L 898.076923 169.441484 
L 899.78022 169.668604 
L 901.483516 170.050108 
L 903.186813 169.537467 
L 904.89011 170.47794 
L 904.89011 170.47794 
" clip-path="url(#pfe07d26a7c)" style="fill: none; stroke: #d3d3d3; stroke-opacity: 0.6; stroke-linecap: square"/>
   </g>
   <g id="line2d_21">
    <path d="M 625.549451 153.210257 
L 627.252747 152.838342 
L 628.956044 153.191608 
L 630.659341 152.418147 
L 632.362637 152.275477 
L 634.065934 152.683659 
L 635.769231 152.537864 
L 637.472527 153.437537 
L 639.175824 153.607467 
L 640.879121 153.116307 
L 642.582418 153.089415 
L 644.285714 153.962198 
L 645.989011 153.722528 
L 647.692308 153.792073 
L 651.098901 153.128554 
L 652.802198 152.582331 
L 654.505495 151.874673 
L 656.208791 152.094465 
L 657.912088 152.914107 
L 659.615385 153.113201 
L 661.318681 153.051111 
L 663.021978 153.249677 
L 664.725275 152.431838 
L 666.428571 152.344956 
L 668.131868 152.730317 
L 669.835165 152.606459 
L 671.538462 153.464994 
L 673.241758 153.603769 
L 674.945055 153.368757 
L 676.648352 153.330471 
L 678.351648 153.965919 
L 680.054945 153.684443 
L 681.758242 153.751419 
L 683.461538 153.513954 
L 686.868132 152.624133 
L 688.571429 151.984108 
L 690.274725 152.326252 
L 691.978022 153.115771 
L 693.681319 153.310949 
L 695.384615 153.043782 
L 697.087912 153.376718 
L 698.791209 152.466647 
L 700.494505 152.508771 
L 702.197802 152.898871 
L 703.901099 152.984067 
L 705.604396 153.749456 
L 707.307692 153.666108 
L 709.010989 153.287703 
L 710.714286 153.387196 
L 712.417582 154.096158 
L 715.824176 153.964268 
L 717.527473 153.669071 
L 719.230769 153.490805 
L 720.934066 153.032528 
L 722.637363 152.14006 
L 724.340659 152.222092 
L 726.043956 153.138514 
L 727.747253 153.45742 
L 729.450549 153.279006 
L 731.153846 153.485999 
L 732.857143 152.816079 
L 734.56044 152.68266 
L 736.263736 153.176013 
L 737.967033 153.064245 
L 739.67033 154.009494 
L 741.373626 153.997323 
L 743.076923 153.567075 
L 744.78022 153.657327 
L 746.483516 154.185779 
L 748.186813 154.210108 
L 749.89011 154.982271 
L 751.593407 153.823658 
L 753.296703 154.724662 
L 755 155.250153 
L 756.703297 155.238279 
L 758.406593 156.119749 
L 761.813187 155.895922 
L 763.516484 156.713121 
L 765.21978 156.323891 
L 766.923077 156.199438 
L 768.626374 157.213381 
L 770.32967 156.570613 
L 772.032967 157.949447 
L 773.736264 158.256587 
L 775.43956 158.945057 
L 777.142857 158.413295 
L 778.846154 158.707293 
L 780.549451 159.277751 
L 783.956044 161.054499 
L 785.659341 162.139044 
L 787.362637 162.2348 
L 790.769231 163.814444 
L 792.472527 164.347137 
L 794.175824 165.043791 
L 795.879121 165.341657 
L 799.285714 165.113353 
L 800.989011 163.597475 
L 802.692308 163.604384 
L 804.395604 162.895325 
L 806.098901 162.811801 
L 807.802198 163.225762 
L 809.505495 164.268892 
L 811.208791 164.370216 
L 812.912088 163.44884 
L 816.318681 164.050577 
L 818.021978 163.905665 
L 819.725275 163.01802 
L 821.428571 163.282341 
L 823.131868 161.433624 
L 824.835165 161.838768 
L 826.538462 162.08719 
L 828.241758 162.462431 
L 829.945055 159.934355 
L 831.648352 159.244232 
L 833.351648 159.216159 
L 835.054945 156.950411 
L 836.758242 157.05615 
L 838.461538 157.903976 
L 840.164835 156.570057 
L 841.868132 157.650204 
L 843.571429 156.534559 
L 845.274725 156.614708 
L 846.978022 157.492071 
L 848.681319 157.910048 
L 850.384615 158.491754 
L 852.087912 157.764005 
L 853.791209 157.832929 
L 855.494505 154.768641 
L 857.197802 155.206322 
L 858.901099 156.000049 
L 860.604396 154.693519 
L 862.307692 153.8705 
L 865.714286 154.868764 
L 867.417582 156.092873 
L 869.120879 156.770072 
L 870.824176 156.82979 
L 872.527473 156.521786 
L 874.230769 156.957132 
L 875.934066 157.13147 
L 877.637363 157.934505 
L 881.043956 160.747848 
L 882.747253 162.284865 
L 886.153846 164.524482 
L 887.857143 166.374821 
L 892.967033 170.903875 
L 894.67033 171.664062 
L 896.373626 172.952957 
L 899.78022 176.760236 
L 901.483516 177.801118 
L 903.186813 178.584344 
L 904.89011 179.869709 
L 904.89011 179.869709 
" clip-path="url(#pfe07d26a7c)" style="fill: none; stroke: #d3d3d3; stroke-opacity: 0.6; stroke-linecap: square"/>
   </g>
   <g id="line2d_22">
    <path d="M 625.549451 163.693944 
L 627.252747 164.142397 
L 628.956044 163.198361 
L 630.659341 163.232319 
L 635.769231 162.974497 
L 640.879121 161.910226 
L 642.582418 161.16481 
L 644.285714 161.265793 
L 645.989011 161.644927 
L 647.692308 161.590938 
L 649.395604 161.669245 
L 651.098901 160.794043 
L 652.802198 161.463451 
L 654.505495 162.364743 
L 656.208791 162.956272 
L 657.912088 162.879312 
L 659.615385 164.04616 
L 661.318681 164.363591 
L 663.021978 163.37295 
L 664.725275 163.424895 
L 666.428571 163.183719 
L 669.835165 163.205573 
L 671.538462 162.895959 
L 674.945055 162.096091 
L 676.648352 161.286559 
L 680.054945 161.826368 
L 681.758242 161.710678 
L 683.461538 161.713053 
L 685.164835 161.041652 
L 686.868132 161.70883 
L 688.571429 162.605908 
L 690.274725 162.888161 
L 691.978022 162.923076 
L 693.681319 164.026698 
L 695.384615 164.493812 
L 697.087912 163.362694 
L 703.901099 163.380898 
L 705.604396 163.012936 
L 709.010989 162.537809 
L 710.714286 161.837651 
L 712.417582 162.03079 
L 714.120879 162.084591 
L 715.824176 161.945768 
L 717.527473 162.049464 
L 719.230769 161.219449 
L 720.934066 161.898579 
L 722.637363 162.861443 
L 724.340659 163.300095 
L 726.043956 163.225347 
L 727.747253 164.113058 
L 729.450549 164.532747 
L 731.153846 163.613138 
L 734.56044 163.37265 
L 736.263736 163.396439 
L 737.967033 163.576333 
L 739.67033 163.200299 
L 741.373626 163.009593 
L 743.076923 162.586668 
L 744.78022 161.871253 
L 746.483516 162.307807 
L 748.186813 162.544926 
L 749.89011 163.128098 
L 751.593407 163.381652 
L 753.296703 163.132714 
L 755 163.354647 
L 756.703297 164.079691 
L 758.406593 164.287016 
L 760.10989 163.771179 
L 761.813187 164.748611 
L 763.516484 164.493332 
L 765.21978 165.437881 
L 768.626374 165.820583 
L 772.032967 166.084699 
L 773.736264 164.521223 
L 775.43956 164.119399 
L 777.142857 164.64243 
L 778.846154 164.565849 
L 780.549451 163.767089 
L 782.252747 164.800802 
L 783.956044 163.320663 
L 785.659341 163.277558 
L 787.362637 162.655184 
L 789.065934 162.82931 
L 790.769231 161.382185 
L 792.472527 161.827912 
L 794.175824 161.853155 
L 795.879121 161.219543 
L 797.582418 161.456849 
L 799.285714 161.2582 
L 800.989011 161.318325 
L 802.692308 161.050549 
L 804.395604 160.442822 
L 806.098901 160.939894 
L 809.505495 160.998178 
L 811.208791 161.435065 
L 812.912088 161.688458 
L 814.615385 161.694504 
L 816.318681 161.928524 
L 818.021978 161.667041 
L 819.725275 161.560967 
L 821.428571 160.332255 
L 823.131868 161.110521 
L 824.835165 160.309134 
L 826.538462 158.793817 
L 828.241758 158.681933 
L 831.648352 154.046178 
L 833.351648 153.351834 
L 835.054945 150.942547 
L 836.758242 151.691013 
L 838.461538 149.722144 
L 840.164835 150.298601 
L 841.868132 148.750942 
L 843.571429 149.763506 
L 845.274725 148.48219 
L 846.978022 147.772142 
L 848.681319 147.36699 
L 850.384615 148.321655 
L 852.087912 147.149182 
L 853.791209 146.756502 
L 855.494505 147.043478 
L 857.197802 147.115273 
L 858.901099 147.555087 
L 860.604396 148.637534 
L 862.307692 148.532247 
L 864.010989 147.991891 
L 865.714286 150.003402 
L 867.417582 150.611378 
L 869.120879 150.928098 
L 872.527473 152.520678 
L 874.230769 152.254291 
L 875.934066 152.812557 
L 877.637363 153.679062 
L 879.340659 155.187511 
L 881.043956 155.425483 
L 882.747253 156.5607 
L 884.450549 159.343919 
L 886.153846 160.172093 
L 887.857143 161.63262 
L 889.56044 163.859828 
L 891.263736 165.703756 
L 892.967033 167.014989 
L 894.67033 168.781091 
L 896.373626 169.857024 
L 898.076923 171.528482 
L 899.78022 172.907917 
L 901.483516 174.853222 
L 903.186813 177.869529 
L 904.89011 180.301817 
L 904.89011 180.301817 
" clip-path="url(#pfe07d26a7c)" style="fill: none; stroke: #d3d3d3; stroke-opacity: 0.6; stroke-linecap: square"/>
   </g>
   <g id="patch_3">
    <path d="M 135 192.24 
L 135 25.92 
" style="fill: none; stroke: #000000; stroke-width: 0.8; stroke-linejoin: miter; stroke-linecap: square"/>
   </g>
   <g id="patch_4">
    <path d="M 972 192.24 
L 972 25.92 
" style="fill: none"/>
   </g>
   <g id="patch_5">
    <path d="M 135 192.24 
L 972 192.24 
" style="fill: none; stroke: #000000; stroke-width: 0.8; stroke-linejoin: miter; stroke-linecap: square"/>
   </g>
   <g id="patch_6">
    <path d="M 135 25.92 
L 972 25.92 
" style="fill: none"/>
   </g>
   <g id="legend_1">
    <g id="patch_7">
     <path d="M 142 107.310625 
L 458.735938 107.310625 
Q 460.735938 107.310625 460.735938 105.310625 
L 460.735938 32.92 
Q 460.735938 30.92 458.735938 30.92 
L 142 30.92 
Q 140 30.92 140 32.92 
L 140 105.310625 
Q 140 107.310625 142 107.310625 
z
" style="fill: #ffffff; opacity: 0.8; stroke: #cccccc; stroke-linejoin: miter"/>
    </g>
    <g id="line2d_23">
     <path d="M 144 39.018438 
L 154 39.018438 
L 164 39.018438 
" style="fill: none; stroke-dasharray: 7.4,3.2; stroke-dashoffset: 0; stroke: #ff0000; stroke-opacity: 0.8; stroke-width: 2"/>
    </g>
    <g id="text_10">
     <text style="font: 10px 'DejaVu Sans', 'Bitstream Vera Sans', 'Computer Modern Sans Serif', 'Lucida Grande', 'Verdana', 'Geneva', 'Lucid', 'Arial', 'Helvetica', 'Avant Garde', sans-serif; text-anchor: start" x="172" y="42.518438" transform="rotate(-0 172 42.518438)">Pre-industrial baseline based on ISIMIP multimodel mean</text>
    </g>
    <g id="line2d_24">
     <path d="M 144 53.696562 
L 154 53.696562 
L 164 53.696562 
" style="fill: none; stroke: #0b0b0b; stroke-opacity: 0.8; stroke-width: 2; stroke-linecap: square"/>
    </g>
    <g id="text_11">
     <text style="font: 10px 'DejaVu Sans', 'Bitstream Vera Sans', 'Computer Modern Sans Serif', 'Lucida Grande', 'Verdana', 'Geneva', 'Lucid', 'Arial', 'Helvetica', 'Avant Garde', sans-serif; text-anchor: start" x="172" y="57.196562" transform="rotate(-0 172 57.196562)">ISIMIP multimodel mean, 1850-2014</text>
    </g>
    <g id="line2d_25">
     <path d="M 144 68.374687 
L 154 68.374687 
L 164 68.374687 
" style="fill: none; stroke: #2626ff; stroke-opacity: 0.8; stroke-width: 2; stroke-linecap: square"/>
    </g>
    <g id="text_12">
     <text style="font: 10px 'DejaVu Sans', 'Bitstream Vera Sans', 'Computer Modern Sans Serif', 'Lucida Grande', 'Verdana', 'Geneva', 'Lucid', 'Arial', 'Helvetica', 'Avant Garde', sans-serif; text-anchor: start" x="172" y="71.874687" transform="rotate(-0 172 71.874687)">CESM2 mid-Holocene and historical series</text>
    </g>
    <g id="line2d_26">
     <path d="M 144 83.052813 
L 154 83.052813 
L 164 83.052813 
" style="fill: none; stroke-dasharray: 7.4,3.2; stroke-dashoffset: 0; stroke: #2626ff; stroke-opacity: 0.8; stroke-width: 2"/>
    </g>
    <g id="text_13">
     <text style="font: 10px 'DejaVu Sans', 'Bitstream Vera Sans', 'Computer Modern Sans Serif', 'Lucida Grande', 'Verdana', 'Geneva', 'Lucid', 'Arial', 'Helvetica', 'Avant Garde', sans-serif; text-anchor: start" x="172" y="86.552813" transform="rotate(-0 172 86.552813)">Mid-Holocene baseline based on CESM2</text>
    </g>
    <g id="line2d_27">
     <path d="M 144 97.730938 
L 154 97.730938 
L 164 97.730938 
" style="fill: none; stroke: #d3d3d3; stroke-opacity: 0.6; stroke-linecap: square"/>
    </g>
    <g id="text_14">
     <text style="font: 10px 'DejaVu Sans', 'Bitstream Vera Sans', 'Computer Modern Sans Serif', 'Lucida Grande', 'Verdana', 'Geneva', 'Lucid', 'Arial', 'Helvetica', 'Avant Garde', sans-serif; text-anchor: start" x="172" y="101.230938" transform="rotate(-0 172 101.230938)">ISIMIP individual simulations, 1850-2014</text>
    </g>
   </g>
  </g>
 </g>
 <defs>
  <clipPath id="pfe07d26a7c">
   <rect x="135" y="25.92" width="837" height="166.32"/>
  </clipPath>
 </defs>
</svg>
