<?xml version="1.0" encoding="utf-8" standalone="no"?>
<!DOCTYPE svg PUBLIC "-//W3C//DTD SVG 1.1//EN"
  "http://www.w3.org/Graphics/SVG/1.1/DTD/svg11.dtd">
<svg xmlns:xlink="http://www.w3.org/1999/xlink" width="1080pt" height="216pt" viewBox="0 0 1080 216" xmlns="http://www.w3.org/2000/svg" version="1.1">
 <metadata>
  <rdf:RDF xmlns:dc="http://purl.org/dc/elements/1.1/" xmlns:cc="http://creativecommons.org/ns#" xmlns:rdf="http://www.w3.org/1999/02/22-rdf-syntax-ns#">
   <cc:Work>
    <dc:type rdf:resource="http://purl.org/dc/dcmitype/StillImage"/>
    <dc:date>2026-01-03T22:57:43.070016</dc:date>
    <dc:format>image/svg+xml</dc:format>
    <dc:creator>
     <cc:Agent>
      <dc:title>Matplotlib v3.8.4, https://matplotlib.org/</dc:title>
     </cc:Agent>
    </dc:creator>
   </cc:Work>
  </rdf:RDF>
 </metadata>
 <defs>
  <style type="text/css">*{stroke-linejoin: round; stroke-linecap: butt}</style>
 </defs>
 <g id="figure_1">
  <g id="patch_1">
   <path d="M 0 216 
L 1080 216 
L 1080 0 
L 0 0 
z
" style="fill: #ffffff"/>
  </g>
  <g id="axes_1">
   <g id="patch_2">
    <path d="M 135 192.24 
L 972 192.24 
L 972 25.92 
L 135 25.92 
z
" style="fill: #ffffff"/>
   </g>
   <g id="matplotlib.axis_1">
    <g id="xtick_1">
     <g id="line2d_1">
      <defs>
       <path id="m9b8b0aac7e" d="M 0 0 
L 0 3.5 
" style="stroke: #000000; stroke-width: 0.8"/>
      </defs>
      <g>
       <use xlink:href="#m9b8b0aac7e" x="650.076923" y="192.24" style="stroke: #000000; stroke-width: 0.8"/>
      </g>
     </g>
     <g id="text_1">
      <text style="font: 10px 'DejaVu Sans', 'Bitstream Vera Sans', 'Computer Modern Sans Serif', 'Lucida Grande', 'Verdana', 'Geneva', 'Lucid', 'Arial', 'Helvetica', 'Avant Garde', sans-serif; text-anchor: middle" x="650.076923" y="206.838437" transform="rotate(-0 650.076923 206.838437)">1850</text>
     </g>
    </g>
    <g id="xtick_2">
     <g id="line2d_2">
      <g>
       <use xlink:href="#m9b8b0aac7e" x="739.5" y="192.24" style="stroke: #000000; stroke-width: 0.8"/>
      </g>
     </g>
     <g id="text_2">
      <text style="font: 10px 'DejaVu Sans', 'Bitstream Vera Sans', 'Computer Modern Sans Serif', 'Lucida Grande', 'Verdana', 'Geneva', 'Lucid', 'Arial', 'Helvetica', 'Avant Garde', sans-serif; text-anchor: middle" x="739.5" y="206.838437" transform="rotate(-0 739.5 206.838437)">1900</text>
     </g>
    </g>
    <g id="xtick_3">
     <g id="line2d_3">
      <g>
       <use xlink:href="#m9b8b0aac7e" x="828.923077" y="192.24" style="stroke: #000000; stroke-width: 0.8"/>
      </g>
     </g>
     <g id="text_3">
      <text style="font: 10px 'DejaVu Sans', 'Bitstream Vera Sans', 'Computer Modern Sans Serif', 'Lucida Grande', 'Verdana', 'Geneva', 'Lucid', 'Arial', 'Helvetica', 'Avant Garde', sans-serif; text-anchor: middle" x="828.923077" y="206.838437" transform="rotate(-0 828.923077 206.838437)">1950</text>
     </g>
    </g>
    <g id="xtick_4">
     <g id="line2d_4">
      <g>
       <use xlink:href="#m9b8b0aac7e" x="891.519231" y="192.24" style="stroke: #000000; stroke-width: 0.8"/>
      </g>
     </g>
     <g id="text_4">
      <text style="font: 10px 'DejaVu Sans', 'Bitstream Vera Sans', 'Computer Modern Sans Serif', 'Lucida Grande', 'Verdana', 'Geneva', 'Lucid', 'Arial', 'Helvetica', 'Avant Garde', sans-serif; text-anchor: middle" x="891.519231" y="206.838437" transform="rotate(-0 891.519231 206.838437)">1985</text>
     </g>
    </g>
    <g id="xtick_5">
     <g id="line2d_5">
      <g>
       <use xlink:href="#m9b8b0aac7e" x="954.115385" y="192.24" style="stroke: #000000; stroke-width: 0.8"/>
      </g>
     </g>
     <g id="text_5">
      <text style="font: 10px 'DejaVu Sans', 'Bitstream Vera Sans', 'Computer Modern Sans Serif', 'Lucida Grande', 'Verdana', 'Geneva', 'Lucid', 'Arial', 'Helvetica', 'Avant Garde', sans-serif; text-anchor: middle" x="954.115385" y="206.838437" transform="rotate(-0 954.115385 206.838437)">2020</text>
     </g>
    </g>
   </g>
   <g id="matplotlib.axis_2">
    <g id="ytick_1">
     <g id="line2d_6">
      <defs>
       <path id="m8cd8abf0af" d="M 0 0 
L -3.5 0 
" style="stroke: #000000; stroke-width: 0.8"/>
      </defs>
      <g>
       <use xlink:href="#m8cd8abf0af" x="135" y="153.286662" style="stroke: #000000; stroke-width: 0.8"/>
      </g>
     </g>
     <g id="text_6">
      <text style="font: 10px 'DejaVu Sans', 'Bitstream Vera Sans', 'Computer Modern Sans Serif', 'Lucida Grande', 'Verdana', 'Geneva', 'Lucid', 'Arial', 'Helvetica', 'Avant Garde', sans-serif; text-anchor: end" x="128" y="157.08588" transform="rotate(-0 128 157.08588)">−9.0</text>
     </g>
    </g>
    <g id="ytick_2">
     <g id="line2d_7">
      <g>
       <use xlink:href="#m8cd8abf0af" x="135" y="104.301435" style="stroke: #000000; stroke-width: 0.8"/>
      </g>
     </g>
     <g id="text_7">
      <text style="font: 10px 'DejaVu Sans', 'Bitstream Vera Sans', 'Computer Modern Sans Serif', 'Lucida Grande', 'Verdana', 'Geneva', 'Lucid', 'Arial', 'Helvetica', 'Avant Garde', sans-serif; text-anchor: end" x="128" y="108.100653" transform="rotate(-0 128 108.100653)">−7.5</text>
     </g>
    </g>
    <g id="ytick_3">
     <g id="line2d_8">
      <g>
       <use xlink:href="#m8cd8abf0af" x="135" y="55.316207" style="stroke: #000000; stroke-width: 0.8"/>
      </g>
     </g>
     <g id="text_8">
      <text style="font: 10px 'DejaVu Sans', 'Bitstream Vera Sans', 'Computer Modern Sans Serif', 'Lucida Grande', 'Verdana', 'Geneva', 'Lucid', 'Arial', 'Helvetica', 'Avant Garde', sans-serif; text-anchor: end" x="128" y="59.115426" transform="rotate(-0 128 59.115426)">−6.0</text>
     </g>
    </g>
    <g id="text_9">
     <text style="font: 10px 'DejaVu Sans', 'Bitstream Vera Sans', 'Computer Modern Sans Serif', 'Lucida Grande', 'Verdana', 'Geneva', 'Lucid', 'Arial', 'Helvetica', 'Avant Garde', sans-serif; text-anchor: middle" x="97.6375" y="109.08" transform="rotate(-90 97.6375 109.08)">Permafrost MAGT (℃)</text>
    </g>
   </g>
   <g id="line2d_9">
    <path d="M 135 179.262164 
L 135.715385 178.62038 
L 136.430769 178.479765 
L 137.146154 178.656227 
L 138.576923 178.605275 
L 140.007692 179.101243 
L 140.723077 179.157551 
L 141.438462 179.499855 
L 142.153846 180.040608 
L 144.3 180.227907 
L 145.730769 180.141576 
L 146.446154 180.339403 
L 147.161538 180.241735 
L 148.592308 179.43984 
L 149.307692 178.718204 
L 152.169231 177.984452 
L 152.884615 177.627884 
L 153.6 176.780831 
L 154.315385 175.69129 
L 155.030769 175.539868 
L 157.892308 176.492188 
L 159.323077 177.510191 
L 160.038462 177.776379 
L 161.469231 177.486304 
L 163.615385 177.863924 
L 165.761538 178.906656 
L 166.476923 179.183494 
L 167.192308 179.769406 
L 168.623077 179.222051 
L 169.338462 178.805905 
L 170.053846 178.889277 
L 170.769231 178.845738 
L 171.484615 179.314174 
L 172.2 179.460582 
L 173.630769 178.593005 
L 174.346154 177.974205 
L 175.061538 177.029173 
L 176.492308 177.483968 
L 177.207692 177.322487 
L 177.923077 177.534016 
L 178.638462 177.451267 
L 180.069231 177.539124 
L 180.784615 177.340207 
L 181.5 176.933592 
L 182.930769 176.46774 
L 183.646154 176.451919 
L 184.361538 176.115751 
L 185.792308 176.119395 
L 186.507692 175.804654 
L 187.223077 175.84648 
L 187.938462 175.688082 
L 188.653846 175.71714 
L 189.369231 175.884414 
L 190.084615 176.383838 
L 190.8 177.36995 
L 191.515385 178.06935 
L 192.230769 179.212863 
L 192.946154 179.287017 
L 193.661538 179.233792 
L 194.376923 179.453357 
L 195.092308 178.973802 
L 195.807692 178.993547 
L 196.523077 178.827488 
L 197.953846 178.828453 
L 199.384615 179.141263 
L 200.1 178.6239 
L 200.815385 178.51854 
L 201.530769 178.692043 
L 202.246154 178.499479 
L 202.961538 178.097504 
L 204.392308 178.291656 
L 205.107692 178.319748 
L 205.823077 178.169603 
L 207.253846 178.427039 
L 207.969231 178.378205 
L 209.4 178.8311 
L 210.115385 178.473599 
L 211.546154 178.18505 
L 212.261538 177.863924 
L 212.976923 177.043094 
L 213.692308 177.266054 
L 214.407692 177.171905 
L 215.123077 176.35338 
L 217.269231 175.99077 
L 218.7 176.289877 
L 219.415385 176.316568 
L 220.130769 176.6594 
L 220.846154 177.317099 
L 222.276923 177.493436 
L 222.992308 178.001456 
L 223.707692 178.77283 
L 224.423077 178.899212 
L 225.138462 178.519162 
L 225.853846 178.317225 
L 226.569231 178.328001 
L 227.284615 178.146431 
L 228 178.418287 
L 228.715385 178.999932 
L 229.430769 179.333359 
L 230.861538 178.806559 
L 231.576923 178.72546 
L 232.292308 178.510255 
L 233.007692 177.933064 
L 234.438462 178.263533 
L 236.584615 178.560054 
L 237.3 178.937052 
L 238.015385 179.010832 
L 238.730769 178.924003 
L 239.446154 178.460082 
L 240.161538 178.718235 
L 240.876923 178.796655 
L 241.592308 178.714871 
L 242.307692 178.479454 
L 243.023077 177.849193 
L 244.453846 177.679864 
L 245.169231 177.788899 
L 246.6 178.417789 
L 247.315385 178.281378 
L 248.746154 178.282406 
L 249.461538 178.465252 
L 250.176923 178.948731 
L 250.892308 179.096136 
L 251.607692 178.590326 
L 252.323077 178.470453 
L 253.753846 178.759127 
L 255.184615 178.686437 
L 255.9 178.812912 
L 256.615385 178.6329 
L 257.330769 178.133569 
L 258.761538 178.387859 
L 259.476923 178.427194 
L 260.907692 179.01541 
L 261.623077 179.196668 
L 265.2 177.631777 
L 265.915385 176.862148 
L 266.630769 176.617917 
L 268.061538 175.326345 
L 268.776923 175.595117 
L 270.923077 177.47503 
L 272.353846 177.60898 
L 273.069231 177.948605 
L 274.5 179.477151 
L 275.215385 179.912014 
L 276.646154 180.017872 
L 278.076923 179.843124 
L 278.792308 179.954713 
L 279.507692 180.202556 
L 280.223077 179.507454 
L 280.938462 179.343512 
L 283.084615 178.326288 
L 283.8 178.868785 
L 284.515385 178.622654 
L 285.230769 177.372722 
L 285.946154 176.958787 
L 286.661538 177.643145 
L 287.376923 177.999588 
L 288.807692 178.399165 
L 289.523077 178.828702 
L 290.953846 178.213329 
L 292.384615 178.558622 
L 294.530769 178.811137 
L 295.246154 179.312244 
L 295.961538 179.533366 
L 296.676923 179.440681 
L 297.392308 179.528445 
L 298.107692 179.838234 
L 299.538462 181.619326 
L 300.969231 181.564669 
L 301.684615 181.922824 
L 302.4 182.783675 
L 303.115385 183.203682 
L 303.830769 182.71631 
L 304.546154 182.388396 
L 305.261538 181.914353 
L 306.692308 181.41007 
L 308.123077 180.383534 
L 308.838462 179.966391 
L 309.553846 179.325324 
L 310.269231 179.696591 
L 312.415385 179.812011 
L 313.130769 179.391131 
L 313.846154 178.711632 
L 314.561538 178.218717 
L 315.276923 177.98414 
L 317.423077 178.77554 
L 318.138462 179.345786 
L 319.569231 179.855145 
L 320.284615 180.62029 
L 321 181.127594 
L 321.715385 181.024259 
L 322.430769 181.082467 
L 323.861538 180.424208 
L 324.576923 180.010398 
L 325.292308 179.786473 
L 326.007692 179.693975 
L 326.723077 180.164997 
L 327.438462 180.366436 
L 328.153846 180.046089 
L 329.584615 180.316201 
L 330.3 180.618889 
L 331.015385 180.584039 
L 331.730769 180.377523 
L 332.446154 180.450587 
L 333.161538 180.910895 
L 333.876923 181.118313 
L 334.592308 181.147558 
L 336.023077 181.835839 
L 337.453846 182.636052 
L 338.169231 182.882993 
L 338.884615 183.698093 
L 339.6 184.234361 
L 340.315385 184.536893 
L 341.030769 184.68 
L 341.746154 184.509518 
L 342.461538 184.55421 
L 343.176923 184.390237 
L 343.892308 184.031458 
L 345.323077 183.796944 
L 346.038462 183.667136 
L 346.753846 183.079013 
L 347.469231 182.842008 
L 348.184615 183.233736 
L 348.9 183.872811 
L 349.615385 184.271235 
L 350.330769 183.95883 
L 351.046154 183.248187 
L 351.761538 182.727522 
L 352.476923 182.501293 
L 353.907692 181.597121 
L 355.338462 179.950165 
L 356.053846 178.51256 
L 356.769231 178.058855 
L 358.2 177.571856 
L 358.915385 177.132913 
L 359.630769 177.291841 
L 360.346154 177.326971 
L 362.492308 176.85704 
L 363.923077 177.585684 
L 364.638462 178.042784 
L 365.353846 178.815653 
L 366.069231 178.422554 
L 368.215385 178.071997 
L 368.930769 178.082929 
L 369.646154 177.787995 
L 372.507692 175.899705 
L 373.223077 175.502589 
L 373.938462 175.419777 
L 374.653846 175.786964 
L 376.8 176.208778 
L 377.515385 175.90363 
L 378.946154 175.106749 
L 379.661538 175.215254 
L 380.376923 175.493837 
L 381.092308 175.594152 
L 383.953846 176.880304 
L 384.669231 176.529156 
L 385.384615 178.140109 
L 386.1 177.854332 
L 386.815385 177.916091 
L 387.530769 177.123539 
L 388.961538 177.037737 
L 390.392308 177.410967 
L 391.107692 177.353724 
L 391.823077 176.592098 
L 392.538462 176.101207 
L 395.4 176.256024 
L 396.115385 176.698486 
L 397.546154 177.046302 
L 399.692308 176.709511 
L 400.407692 176.882703 
L 401.123077 177.281252 
L 401.838462 177.319621 
L 403.269231 177.757319 
L 403.984615 178.053903 
L 404.7 178.211771 
L 405.415385 177.939511 
L 406.130769 178.071063 
L 406.846154 178.425762 
L 407.561538 179.102364 
L 408.992308 179.5637 
L 411.853846 178.790364 
L 412.569231 179.210309 
L 413.284615 179.824313 
L 414 179.739788 
L 414.715385 179.46298 
L 418.292308 180.003328 
L 419.723077 179.715184 
L 421.869231 179.889715 
L 422.584615 179.955149 
L 423.3 179.684632 
L 425.446154 179.51387 
L 426.876923 179.44364 
L 427.592308 179.140827 
L 428.307692 178.61602 
L 429.023077 178.672702 
L 429.738462 179.188197 
L 430.453846 180.575287 
L 431.169231 181.342519 
L 431.884615 181.598211 
L 432.6 181.096482 
L 433.315385 181.091125 
L 434.746154 180.255252 
L 435.461538 179.40552 
L 436.176923 179.099094 
L 436.892308 178.987973 
L 437.607692 179.060476 
L 438.323077 178.531713 
L 439.038462 178.464193 
L 439.753846 178.145279 
L 440.469231 177.521715 
L 441.9 177.539996 
L 442.615385 178.837173 
L 443.330769 179.661523 
L 444.046154 179.750626 
L 444.761538 179.216881 
L 445.476923 179.061939 
L 446.192308 179.24354 
L 446.907692 178.982585 
L 447.623077 178.597801 
L 448.338462 178.9615 
L 449.053846 179.005351 
L 449.769231 179.342734 
L 450.484615 179.509042 
L 451.2 179.103486 
L 452.630769 178.668809 
L 453.346154 178.485963 
L 454.061538 178.084486 
L 454.776923 176.566809 
L 455.492308 175.908488 
L 456.207692 175.806772 
L 456.923077 176.235936 
L 457.638462 175.663728 
L 459.069231 174.973671 
L 460.5 174.9358 
L 461.215385 175.111452 
L 462.646154 176.180562 
L 464.076923 177.164431 
L 464.792308 177.706585 
L 465.507692 177.577525 
L 466.223077 178.176984 
L 467.653846 177.753457 
L 468.369231 177.49138 
L 469.084615 177.4783 
L 469.8 177.351855 
L 470.515385 177.022321 
L 471.230769 176.895098 
L 471.946154 177.097627 
L 473.376923 177.016777 
L 474.092308 177.224601 
L 474.807692 177.589826 
L 476.238462 179.008496 
L 476.953846 178.680457 
L 477.669231 178.603843 
L 478.384615 178.27191 
L 479.815385 176.669273 
L 480.530769 176.010017 
L 481.246154 176.023939 
L 482.676923 176.333977 
L 483.392308 176.403957 
L 484.107692 175.3872 
L 485.538462 174.792257 
L 486.969231 175.049755 
L 487.684615 174.731526 
L 489.115385 174.605674 
L 489.830769 174.262031 
L 491.261538 172.410429 
L 491.976923 172.004654 
L 492.692308 171.996556 
L 493.407692 172.960182 
L 494.123077 172.99933 
L 494.838462 172.82863 
L 498.415385 173.270843 
L 499.846154 174.170686 
L 500.561538 174.156827 
L 501.276923 173.809883 
L 501.992308 173.607603 
L 502.707692 173.106901 
L 503.423077 172.839406 
L 505.569231 173.26396 
L 507 174.583094 
L 507.715385 174.480195 
L 509.146154 176.33407 
L 509.861538 177.084297 
L 510.576923 177.31059 
L 511.292308 177.1094 
L 512.723077 177.349146 
L 513.438462 177.800609 
L 514.153846 177.47341 
L 514.869231 177.334041 
L 515.584615 177.016279 
L 517.015385 175.93876 
L 517.730769 175.91453 
L 518.446154 176.030386 
L 519.161538 175.976413 
L 519.876923 175.681168 
L 520.592308 176.070125 
L 521.307692 176.110581 
L 522.023077 175.756879 
L 522.738462 175.685871 
L 523.453846 175.765724 
L 524.169231 175.706987 
L 524.884615 175.801322 
L 525.6 176.495458 
L 526.315385 176.891143 
L 527.030769 176.82546 
L 527.746154 176.924903 
L 528.461538 176.86956 
L 529.176923 176.6376 
L 530.607692 175.473251 
L 531.323077 175.300589 
L 532.038462 175.665285 
L 532.753846 175.588204 
L 533.469231 175.074951 
L 534.184615 174.791572 
L 534.9 174.652545 
L 535.615385 174.798299 
L 536.330769 175.078937 
L 537.046154 174.597576 
L 537.761538 174.365896 
L 538.476923 174.559331 
L 539.907692 175.341761 
L 540.623077 175.478857 
L 541.338462 175.732307 
L 542.053846 175.796308 
L 542.769231 175.501623 
L 543.484615 174.884942 
L 544.915385 175.667247 
L 545.630769 176.120329 
L 546.346154 176.708795 
L 547.061538 177.50499 
L 547.776923 177.55672 
L 549.207692 177.305202 
L 550.638462 176.929325 
L 551.353846 177.165895 
L 552.069231 177.263033 
L 552.784615 177.591228 
L 553.5 177.317441 
L 554.215385 177.410001 
L 554.930769 177.211365 
L 555.646154 176.703189 
L 556.361538 176.875664 
L 557.076923 177.17122 
L 557.792308 177.970873 
L 558.507692 179.178916 
L 559.223077 179.911952 
L 559.938462 180.084303 
L 560.653846 179.996383 
L 561.369231 179.374594 
L 562.084615 179.009213 
L 564.230769 179.096852 
L 564.946154 179.90563 
L 566.376923 180.870719 
L 567.092308 180.461518 
L 567.807692 179.769001 
L 568.523077 179.462513 
L 569.953846 179.598052 
L 570.669231 179.27621 
L 571.384615 179.206043 
L 572.1 179.363351 
L 572.815385 179.779839 
L 573.530769 181.03681 
L 574.246154 181.027435 
L 575.676923 180.518263 
L 576.392308 180.85686 
L 577.107692 180.721197 
L 577.823077 181.046371 
L 578.538462 182.765954 
L 579.253846 183.845529 
L 579.969231 183.884022 
L 582.115385 183.071414 
L 582.830769 182.532841 
L 583.546154 181.570898 
L 584.261538 181.570275 
L 585.692308 181.152167 
L 587.123077 180.597835 
L 588.553846 179.398668 
L 589.984615 179.116597 
L 590.7 178.399694 
L 593.561538 178.429904 
L 594.276923 178.520252 
L 594.992308 178.843122 
L 595.707692 179.304333 
L 596.423077 179.570147 
L 597.853846 180.681644 
L 598.569231 180.800738 
L 599.284615 181.395775 
L 600.715385 181.438723 
L 601.430769 181.725278 
L 602.146154 181.792674 
L 602.861538 181.603568 
L 606.438462 179.324639 
L 607.153846 179.216445 
L 607.869231 179.367493 
L 608.584615 179.034221 
L 609.3 178.853555 
L 610.015385 179.057922 
L 612.161538 178.403213 
L 613.592308 178.108311 
L 614.307692 177.653049 
L 616.453846 177.832438 
L 617.169231 178.234569 
L 617.884615 178.172966 
L 618.6 178.632838 
L 619.315385 178.627107 
L 620.030769 178.483004 
L 622.176923 177.413365 
L 623.607692 176.125157 
L 624.323077 175.777559 
L 625.038462 176.188753 
L 626.469231 176.384368 
L 627.184615 175.709572 
L 627.9 175.474528 
L 628.615385 175.507478 
L 629.330769 175.896778 
L 630.046154 176.44731 
L 631.476923 178.108903 
L 632.192308 178.431741 
L 632.907692 178.876726 
L 633.623077 178.846236 
L 634.338462 179.610073 
L 635.053846 179.634646 
L 635.053846 179.634646 
" clip-path="url(#pdd44e3ccd5)" style="fill: none; stroke: #2626ff; stroke-opacity: 0.8; stroke-width: 2; stroke-linecap: square"/>
   </g>
   <g id="line2d_10">
    <path d="M 650.076923 173.000171 
L 651.865385 173.429086 
L 655.442308 173.373244 
L 659.019231 173.251285 
L 660.807692 173.352721 
L 666.173077 173.160126 
L 667.961538 173.5332 
L 669.75 173.550703 
L 671.538462 173.387508 
L 673.326923 173.393799 
L 675.115385 173.018079 
L 676.903846 172.830561 
L 678.692308 172.528433 
L 680.480769 171.900508 
L 682.269231 170.149283 
L 685.846154 170.169682 
L 687.634615 169.969489 
L 689.423077 170.174323 
L 693 169.751014 
L 696.576923 169.906765 
L 698.365385 170.331008 
L 700.153846 170.550044 
L 701.942308 170.510958 
L 703.730769 170.1168 
L 705.519231 169.993096 
L 707.307692 169.755841 
L 709.096154 169.652443 
L 710.884615 169.981199 
L 712.673077 170.068309 
L 716.25 169.820309 
L 718.038462 170.469692 
L 719.826923 170.230849 
L 723.403846 170.115928 
L 725.192308 170.314377 
L 728.769231 170.304847 
L 730.557692 170.060897 
L 732.346154 169.565053 
L 734.134615 169.319328 
L 735.923077 168.814328 
L 739.5 168.116516 
L 741.288462 167.941363 
L 743.076923 167.927068 
L 744.865385 167.375508 
L 746.653846 166.538483 
L 748.442308 166.20057 
L 752.019231 166.178116 
L 753.807692 166.15401 
L 757.384615 166.500393 
L 760.961538 166.756926 
L 762.75 166.622073 
L 764.538462 167.045226 
L 768.115385 166.970387 
L 773.480769 167.458444 
L 777.057692 167.446329 
L 780.634615 167.240156 
L 782.423077 166.601393 
L 784.211538 166.136507 
L 786 165.535211 
L 787.788462 164.376126 
L 789.576923 163.675075 
L 791.365385 163.448783 
L 793.153846 161.941757 
L 794.942308 161.463448 
L 796.730769 160.158267 
L 798.519231 159.237215 
L 800.307692 159.656911 
L 803.884615 158.602345 
L 805.673077 157.255369 
L 807.461538 156.815834 
L 809.25 155.914278 
L 811.038462 155.80297 
L 812.826923 154.611962 
L 814.615385 154.026891 
L 816.403846 154.371437 
L 819.980769 153.801783 
L 821.769231 154.143276 
L 823.557692 154.203135 
L 825.346154 154.616509 
L 827.134615 154.867343 
L 828.923077 155.391714 
L 830.711538 155.385703 
L 832.5 155.765317 
L 834.288462 155.261843 
L 836.076923 154.569451 
L 837.865385 154.600439 
L 839.653846 154.384331 
L 841.442308 154.032217 
L 843.230769 153.542322 
L 845.019231 153.361532 
L 846.807692 153.451974 
L 848.596154 153.145922 
L 850.384615 152.529552 
L 852.173077 152.861142 
L 853.961538 152.476514 
L 855.75 152.714329 
L 859.326923 151.636031 
L 861.115385 152.010569 
L 862.903846 152.5355 
L 864.692308 152.530081 
L 866.480769 152.893438 
L 868.269231 153.404666 
L 870.057692 153.43936 
L 871.846154 153.609718 
L 875.423077 153.5782 
L 877.211538 154.24518 
L 879 153.11864 
L 880.788462 152.359724 
L 882.576923 152.16389 
L 884.365385 152.272303 
L 886.153846 151.793121 
L 887.942308 151.043455 
L 895.096154 149.752226 
L 898.673077 148.606564 
L 900.461538 147.190603 
L 902.25 145.952942 
L 904.038462 144.888441 
L 905.826923 143.387645 
L 907.615385 143.425298 
L 909.403846 143.19857 
L 911.192308 143.124353 
L 912.980769 143.264719 
L 916.557692 142.767568 
L 918.346154 142.253568 
L 923.711538 139.957541 
L 925.5 138.93577 
L 927.288462 137.772325 
L 929.076923 136.020103 
L 930.865385 132.445834 
L 932.653846 131.489652 
L 934.442308 130.12782 
L 936.230769 128.570154 
L 938.019231 125.231271 
L 939.807692 122.324543 
L 941.596154 121.81319 
L 943.384615 121.586337 
L 943.384615 121.586337 
" clip-path="url(#pdd44e3ccd5)" style="fill: none; stroke: #2626ff; stroke-opacity: 0.8; stroke-width: 2; stroke-linecap: square"/>
   </g>
   <g id="line2d_11">
    <path d="M 650.076923 192.24 
L 650.076923 25.92 
" clip-path="url(#pdd44e3ccd5)" style="fill: none; stroke-dasharray: 3.7,1.6; stroke-dashoffset: 0; stroke: #808080; stroke-opacity: 0.5"/>
   </g>
   <g id="line2d_12">
    <path d="M 739.5 192.24 
L 739.5 25.92 
" clip-path="url(#pdd44e3ccd5)" style="fill: none; stroke-dasharray: 3.7,1.6; stroke-dashoffset: 0; stroke: #808080; stroke-opacity: 0.5"/>
   </g>
   <g id="line2d_13">
    <path d="M 635.769231 192.24 
L 635.769231 25.92 
" clip-path="url(#pdd44e3ccd5)" style="fill: none; stroke-dasharray: 3.7,1.6; stroke-dashoffset: 0; stroke: #808080; stroke-opacity: 0.8"/>
   </g>
   <g id="line2d_14">
    <path d="M 135 174.797997 
L 635.626125 174.797997 
L 635.626125 174.797997 
" clip-path="url(#pdd44e3ccd5)" style="fill: none; stroke-dasharray: 7.4,3.2; stroke-dashoffset: 0; stroke: #2626ff; stroke-opacity: 0.8; stroke-width: 2"/>
   </g>
   <g id="line2d_15">
    <path d="M 650.192839 174.797997 
L 972 174.797997 
L 972 174.797997 
" clip-path="url(#pdd44e3ccd5)" style="fill: none; stroke-dasharray: 7.4,3.2; stroke-dashoffset: 0; stroke: #2626ff; stroke-opacity: 0.8; stroke-width: 2"/>
   </g>
   <g id="line2d_16">
    <path d="M 650.076923 73.379552 
L 972 73.379552 
L 972 73.379552 
" clip-path="url(#pdd44e3ccd5)" style="fill: none; stroke-dasharray: 7.4,3.2; stroke-dashoffset: 0; stroke: #ff0000; stroke-opacity: 0.8; stroke-width: 2"/>
   </g>
   <g id="line2d_17">
    <path d="M 650.076923 74.129541 
L 651.865385 73.451596 
L 653.653846 72.547209 
L 655.442308 72.482965 
L 657.230769 73.320607 
L 659.019231 73.647529 
L 660.807692 73.504204 
L 662.596154 74.043935 
L 664.384615 74.390917 
L 666.173077 74.206862 
L 673.326923 74.015065 
L 675.115385 74.401661 
L 678.692308 75.842982 
L 680.480769 76.012807 
L 682.269231 75.775948 
L 684.057692 75.779657 
L 685.846154 75.236503 
L 687.634615 74.522073 
L 689.423077 73.569317 
L 691.211538 73.458379 
L 693 74.26436 
L 694.788462 74.546263 
L 696.576923 74.367671 
L 698.365385 74.864018 
L 700.153846 75.186907 
L 701.942308 74.976214 
L 709.096154 74.697171 
L 710.884615 75.064143 
L 714.461538 76.462981 
L 716.25 76.621806 
L 718.038462 76.376245 
L 719.826923 76.354886 
L 721.615385 75.788206 
L 723.403846 75.065607 
L 725.192308 74.083762 
L 726.980769 73.957389 
L 728.769231 74.739094 
L 730.557692 75.009925 
L 732.346154 74.807601 
L 734.134615 75.302282 
L 735.923077 75.600483 
L 737.711538 75.373256 
L 746.653846 74.84925 
L 748.442308 75.868972 
L 750.230769 76.32723 
L 753.807692 77.06462 
L 755.596154 77.153872 
L 757.384615 76.876249 
L 759.173077 76.151631 
L 760.961538 74.839038 
L 762.75 74.624764 
L 764.538462 74.935366 
L 766.326923 75.670432 
L 768.115385 75.457943 
L 769.903846 75.755614 
L 771.692308 75.874762 
L 773.480769 75.396418 
L 775.269231 75.315634 
L 777.057692 75.515242 
L 784.211538 73.676651 
L 787.788462 72.711095 
L 789.576923 72.444683 
L 791.365385 72.627807 
L 793.153846 72.953411 
L 794.942308 72.983901 
L 796.730769 72.178577 
L 798.519231 70.974025 
L 802.096154 69.997216 
L 803.884615 69.526182 
L 805.673077 69.796521 
L 807.461538 69.683546 
L 809.25 68.973448 
L 811.038462 68.844926 
L 812.826923 69.09751 
L 814.615385 69.677629 
L 816.403846 69.723245 
L 818.192308 69.363704 
L 819.980769 69.439203 
L 821.769231 69.092969 
L 823.557692 69.297803 
L 825.346154 69.332896 
L 827.134615 68.694308 
L 830.711538 66.890832 
L 832.5 66.201311 
L 834.288462 66.233585 
L 836.076923 66.709303 
L 837.865385 67.738792 
L 839.653846 67.90715 
L 841.442308 67.458026 
L 843.230769 67.235418 
L 845.019231 67.341532 
L 846.807692 66.882486 
L 848.596154 66.302171 
L 850.384615 65.917403 
L 852.173077 65.84024 
L 853.961538 66.071363 
L 855.75 66.973224 
L 857.538462 67.250346 
L 859.326923 68.2322 
L 861.115385 68.499705 
L 862.903846 69.114979 
L 864.692308 70.058055 
L 866.480769 70.649249 
L 870.057692 72.810018 
L 873.634615 72.817965 
L 875.423077 73.740674 
L 877.211538 73.477436 
L 879 73.364259 
L 880.788462 73.839864 
L 882.576923 73.781248 
L 884.365385 74.199341 
L 886.153846 74.496358 
L 889.730769 74.459193 
L 893.307692 76.061775 
L 895.096154 76.222269 
L 896.884615 76.244662 
L 898.673077 75.28387 
L 900.461538 74.023885 
L 902.25 72.264238 
L 904.038462 71.055535 
L 905.826923 70.017086 
L 907.615385 70.255698 
L 909.403846 70.233792 
L 911.192308 69.696393 
L 912.980769 68.949667 
L 914.769231 67.614101 
L 916.557692 65.148745 
L 920.134615 60.995478 
L 921.923077 59.081769 
L 923.711538 57.395429 
L 925.5 55.21067 
L 930.865385 47.066099 
L 934.442308 42.089202 
L 936.230769 39.636873 
L 941.596154 35.157159 
L 943.384615 33.48 
L 943.384615 33.48 
" clip-path="url(#pdd44e3ccd5)" style="fill: none; stroke: #0b0b0b; stroke-opacity: 0.8; stroke-width: 2; stroke-linecap: square"/>
   </g>
   <g id="patch_3">
    <path d="M 135 192.24 
L 135 25.92 
" style="fill: none; stroke: #000000; stroke-width: 0.8; stroke-linejoin: miter; stroke-linecap: square"/>
   </g>
   <g id="patch_4">
    <path d="M 972 192.24 
L 972 25.92 
" style="fill: none"/>
   </g>
   <g id="patch_5">
    <path d="M 135 192.24 
L 972 192.24 
" style="fill: none; stroke: #000000; stroke-width: 0.8; stroke-linejoin: miter; stroke-linecap: square"/>
   </g>
   <g id="patch_6">
    <path d="M 135 25.92 
L 972 25.92 
" style="fill: none"/>
   </g>
   <g id="legend_1">
    <g id="patch_7">
     <path d="M 142 92.6325 
L 458.735938 92.6325 
Q 460.735938 92.6325 460.735938 90.6325 
L 460.735938 32.92 
Q 460.735938 30.92 458.735938 30.92 
L 142 30.92 
Q 140 30.92 140 32.92 
L 140 90.6325 
Q 140 92.6325 142 92.6325 
z
" style="fill: #ffffff; opacity: 0.8; stroke: #cccccc; stroke-linejoin: miter"/>
    </g>
    <g id="line2d_18">
     <path d="M 144 39.018438 
L 154 39.018438 
L 164 39.018438 
" style="fill: none; stroke: #2626ff; stroke-opacity: 0.8; stroke-width: 2; stroke-linecap: square"/>
    </g>
    <g id="text_10">
     <text style="font: 10px 'DejaVu Sans', 'Bitstream Vera Sans', 'Computer Modern Sans Serif', 'Lucida Grande', 'Verdana', 'Geneva', 'Lucid', 'Arial', 'Helvetica', 'Avant Garde', sans-serif; text-anchor: start" x="172" y="42.518438" transform="rotate(-0 172 42.518438)">CESM2 mid-Holocene and historical series</text>
    </g>
    <g id="line2d_19">
     <path d="M 144 53.696562 
L 154 53.696562 
L 164 53.696562 
" style="fill: none; stroke-dasharray: 7.4,3.2; stroke-dashoffset: 0; stroke: #2626ff; stroke-opacity: 0.8; stroke-width: 2"/>
    </g>
    <g id="text_11">
     <text style="font: 10px 'DejaVu Sans', 'Bitstream Vera Sans', 'Computer Modern Sans Serif', 'Lucida Grande', 'Verdana', 'Geneva', 'Lucid', 'Arial', 'Helvetica', 'Avant Garde', sans-serif; text-anchor: start" x="172" y="57.196562" transform="rotate(-0 172 57.196562)">Mid-Holocene baseline based on CESM2</text>
    </g>
    <g id="line2d_20">
     <path d="M 144 68.374687 
L 154 68.374687 
L 164 68.374687 
" style="fill: none; stroke-dasharray: 7.4,3.2; stroke-dashoffset: 0; stroke: #ff0000; stroke-opacity: 0.8; stroke-width: 2"/>
    </g>
    <g id="text_12">
     <text style="font: 10px 'DejaVu Sans', 'Bitstream Vera Sans', 'Computer Modern Sans Serif', 'Lucida Grande', 'Verdana', 'Geneva', 'Lucid', 'Arial', 'Helvetica', 'Avant Garde', sans-serif; text-anchor: start" x="172" y="71.874687" transform="rotate(-0 172 71.874687)">Pre-industrial baseline based on ISIMIP multimodel mean</text>
    </g>
    <g id="line2d_21">
     <path d="M 144 83.052813 
L 154 83.052813 
L 164 83.052813 
" style="fill: none; stroke: #0b0b0b; stroke-opacity: 0.8; stroke-width: 2; stroke-linecap: square"/>
    </g>
    <g id="text_13">
     <text style="font: 10px 'DejaVu Sans', 'Bitstream Vera Sans', 'Computer Modern Sans Serif', 'Lucida Grande', 'Verdana', 'Geneva', 'Lucid', 'Arial', 'Helvetica', 'Avant Garde', sans-serif; text-anchor: start" x="172" y="86.552813" transform="rotate(-0 172 86.552813)">ISIMIP multimodel mean, 1850-2014</text>
    </g>
   </g>
  </g>
 </g>
 <defs>
  <clipPath id="pdd44e3ccd5">
   <rect x="135" y="25.92" width="837" height="166.32"/>
  </clipPath>
 </defs>
</svg>
